<svg width="106" height="106" viewBox="0 0 106 106" fill="none" xmlns="http://www.w3.org/2000/svg">
<path d="M90.3754 25.7772C89.9333 26.8364 89.0948 27.6818 88.0384 28.1337C87.4905 28.3645 86.902 28.4834 86.3074 28.4834C85.7128 28.4834 85.1242 28.3645 84.5764 28.1337C83.5246 27.6912 82.6898 26.853 82.2527 25.8006C82.0278 25.262 81.9121 24.6842 81.9121 24.1006C81.9121 23.5172 82.0278 22.9394 82.2527 22.4009C82.6953 21.3421 83.5336 20.4969 84.5897 20.0444C85.1376 19.8137 85.7261 19.6948 86.3207 19.6948C86.9153 19.6948 87.5039 19.8137 88.0517 20.0444C88.5724 20.2656 89.0452 20.5853 89.444 20.986C89.8409 21.3878 90.157 21.8619 90.3754 22.3826C90.6003 22.9211 90.716 23.4988 90.716 24.0823C90.716 24.6659 90.6003 25.2436 90.3754 25.7821V25.7772ZM89.9079 22.5542C89.7173 22.0928 89.4403 21.672 89.0917 21.3143C88.7419 20.9576 88.3242 20.6743 87.8631 20.481C87.1402 20.1723 86.3408 20.0881 85.5692 20.2397C84.7976 20.3914 84.0898 20.7716 83.538 21.331C83.0002 21.891 82.6355 22.5939 82.4875 23.3556C82.3394 24.1172 82.4144 24.9053 82.7035 25.6256C82.8907 26.0878 83.1675 26.5085 83.518 26.8638C83.8713 27.2195 84.291 27.5026 84.7534 27.6971C85.2403 27.9017 85.764 28.0048 86.2923 28.0003C86.8105 28.0056 87.324 27.9062 87.8026 27.7079C88.2811 27.5098 88.7145 27.2169 89.0766 26.8472C89.8012 26.1074 90.2039 25.1119 90.1968 24.0774C90.203 23.5555 90.1048 23.0377 89.9079 22.5542ZM88.1368 24.1023C87.9462 24.3401 87.6938 24.5211 87.4074 24.6256L88.5508 26.3022H87.3456L86.3442 24.8023H85.5278V26.3022H84.4946V21.626H86.5744C87.0536 21.6015 87.526 21.7454 87.9098 22.0326C88.0761 22.17 88.2079 22.3444 88.2948 22.5417C88.3818 22.7391 88.4214 22.9538 88.4107 23.1691C88.4289 23.5023 88.3323 23.8317 88.1368 24.1023ZM87.152 22.7058C86.9731 22.5842 86.7588 22.5255 86.5428 22.5393H85.5412V23.9107H86.5744C86.7898 23.9254 87.0028 23.8581 87.1705 23.7224C87.2397 23.6594 87.294 23.5819 87.3299 23.4955C87.3657 23.4091 87.3819 23.3158 87.3773 23.2224C87.384 23.1249 87.3675 23.0271 87.3291 22.9371C87.2909 22.847 87.232 22.7673 87.1571 22.7042L87.152 22.7058Z" fill="#7573B6"/>
<path d="M48.9966 15.138C50.1646 15.0158 51.8062 14.8559 52.6493 14.8204C52.3536 14.3253 51.9555 13.899 51.4814 13.5701C50.8139 13.0578 50.041 12.6997 49.2182 12.5215C48.3955 12.3433 47.5432 12.3496 46.7232 12.5396C45.8236 12.7916 45.013 13.2907 44.3837 13.9802C43.7545 14.6697 43.3319 15.5218 43.1641 16.4394C44.1806 16.1329 45.1282 15.8709 46.1693 15.6199C47.1001 15.3971 48.0446 15.2361 48.9966 15.138Z" fill="#7574B6"/>
<path d="M17.1251 67.2902C20.284 66.1599 23.7765 65.1027 27.5202 64.1344C35.6926 61.9424 44.0221 60.3832 52.4347 59.4707C53.9178 59.2841 55.4186 59.1087 56.9372 58.9443C73.8101 57.1454 84.7436 58.8554 91.1034 60.7209C88.0403 56.3695 85.5716 51.6299 83.7626 46.6275C77.149 26.6155 69.7059 19.3401 53.2334 19.9242C50.3248 20.0123 47.4372 20.4454 44.6312 21.2144C29.0418 25.5784 26.9285 35.6766 24.5194 45.6637C23.7355 49.4534 22.5806 53.1569 21.0714 56.7212C19.2784 60.6368 17.2382 64.4347 14.9629 68.0919C15.657 67.824 16.3776 67.5567 17.1251 67.2902Z" fill="#7574B6"/>
<path d="M105.084 70.7731C104.366 68.5213 102.892 66.5855 100.911 65.2921C97.2363 60.8083 91.1234 52.6133 88.6097 45.0381C84.5477 32.7457 80.3078 25.5413 74.4306 20.9486C69.8165 17.3589 64.2183 15.2545 58.3786 14.9145C58.1753 13.7553 57.7417 12.6484 57.1032 11.6591C56.4649 10.6697 55.6347 9.81782 54.6614 9.15369C53.353 8.22908 51.8687 7.58187 50.3002 7.25186C48.7316 6.92186 47.1119 6.91608 45.541 7.23492C43.0821 7.88071 40.9288 9.36902 39.458 11.4395C37.9871 13.51 37.2922 16.0309 37.4949 18.5612C24.1945 24.6796 21.8032 35.1642 19.5564 44.4718C18.8494 47.9352 17.8063 51.3215 16.4421 54.5831C10.9075 66.5225 5.96243 72.0546 4.20733 73.7847C1.15754 76.2032 -0.241748 78.7304 0.034077 81.3488C0.576957 86.4256 7.20371 89.839 19.7254 91.4892C24.6128 92.1014 29.5309 92.4373 34.4562 92.4952C40.7935 97.2117 48.4854 99.7623 56.3898 99.7684C57.2018 99.7684 58.0271 99.7418 58.8369 99.6884C67.414 99.1671 75.5496 95.7116 81.8739 89.9034C82.8618 88.9779 83.7955 87.9961 84.6701 86.9631C94.3334 84.3269 100.873 80.9024 103.714 76.8848C104.378 76.0288 104.844 75.0375 105.081 73.9812C105.318 72.9251 105.319 71.8298 105.084 70.7731ZM58.4943 94.5672C57.7868 94.6131 57.0832 94.636 56.3832 94.636C49.4492 94.628 42.7091 92.3507 37.1955 88.1529C31.6819 83.9552 27.6987 78.0685 25.8563 71.395C36.639 67.5 47.9492 65.2538 59.4041 64.7325C62.3849 64.5881 65.07 64.5259 67.488 64.5259C83.5846 64.5259 87.8133 67.3019 87.8133 67.3019C86.9666 74.5826 83.5513 81.3242 78.1791 86.3198C72.8068 91.3153 65.8286 94.2383 58.4943 94.565V94.5672ZM24.5104 45.6777C26.9195 35.6839 29.0307 25.5902 44.6222 21.2262C47.4283 20.4576 50.316 20.0252 53.2244 19.9381C69.6858 19.354 77.1402 26.6294 83.7536 46.6414C85.5626 51.644 88.0313 56.3835 91.0944 60.735C84.7324 58.8783 73.8012 57.1705 56.926 58.9582C55.4133 59.121 53.9125 59.2966 52.4236 59.4845C44.011 60.3974 35.6815 61.9567 27.5091 64.1483C23.7631 65.1188 20.2661 66.176 17.1139 67.3043C16.3724 67.5722 15.6487 67.8417 14.9428 68.1126C17.218 64.4552 19.2582 60.6573 21.0513 56.7419C22.5643 53.1757 23.7229 49.4699 24.5104 45.6777ZM46.7199 12.5472C47.5401 12.3569 48.3922 12.3507 49.2149 12.5289C50.0378 12.7071 50.8107 13.0652 51.4782 13.5776C51.9524 13.9064 52.3506 14.3328 52.646 14.828C51.8008 14.8657 50.1613 15.0256 48.9934 15.1477C48.0383 15.2455 47.0908 15.4065 46.1571 15.6297C45.116 15.874 44.1684 16.1427 43.1495 16.4491C43.3169 15.5311 43.7394 14.6786 44.3688 13.9887C44.9981 13.2988 45.8089 12.7993 46.7088 12.5472H46.7199Z" fill="#25215D"/>
<path d="M67.4863 64.5222C65.0683 64.5222 62.3832 64.5844 59.4024 64.7287C47.9475 65.2503 36.6372 67.4965 25.8545 71.3913C27.697 78.0649 31.6802 83.9516 37.1938 88.1493C42.7075 92.347 49.4476 94.6242 56.3816 94.6323C57.08 94.6323 57.7837 94.6095 58.4926 94.5636C65.8276 94.2367 72.8063 91.313 78.1786 86.3166C83.551 81.3202 86.9659 74.5775 87.8117 67.296C87.8117 67.296 83.5829 64.5222 67.4863 64.5222ZM62.4456 79.2286L70.4093 78.8777C70.4093 78.8777 68.2827 87.2303 61.7915 87.5167C55.3004 87.8032 54.4841 79.5795 54.4841 79.5795L62.4456 79.2286ZM52.1816 67.798C52.9616 67.7932 53.7254 68.0193 54.3766 68.4478C55.0278 68.8764 55.5372 69.4882 55.8401 70.2057C56.1432 70.9232 56.2265 71.7141 56.0792 72.4788C55.9319 73.2435 55.5609 73.9474 55.0129 74.5015C54.4651 75.0558 53.7648 75.4353 53.0009 75.5922C52.2369 75.7491 51.4434 75.6765 50.7208 75.3832C49.9983 75.0901 49.3791 74.5894 48.9414 73.9449C48.5037 73.3003 48.2673 72.5408 48.2621 71.7621C48.2585 71.2451 48.3571 70.7322 48.552 70.2532C48.747 69.7741 49.0346 69.3383 49.3984 68.9701C49.762 68.6021 50.1949 68.3091 50.6721 68.1079C51.1493 67.9068 51.6615 67.8016 52.1794 67.798H52.1816ZM76.6758 75.4865C76.1578 75.4898 75.6442 75.3913 75.1644 75.1966C74.6846 75.0018 74.2481 74.7146 73.8794 74.3513C73.5108 73.9881 73.2174 73.5559 73.0161 73.0795C72.8147 72.603 72.7095 72.0917 72.7061 71.5745C72.7028 71.0575 72.8014 70.5448 72.9966 70.0657C73.1916 69.5867 73.4794 69.1508 73.8432 68.7828C74.2071 68.4148 74.64 68.1219 75.1172 67.921C75.5944 67.72 76.1066 67.6147 76.6246 67.6114C77.1427 67.6079 77.6564 67.7064 78.1364 67.9012C78.6165 68.0959 79.0533 68.3832 79.4221 68.7466C79.7909 69.1099 80.0842 69.5424 80.2856 70.019C80.4868 70.4957 80.592 71.0072 80.5953 71.5245C80.6019 72.5681 80.1932 73.5715 79.459 74.3144C78.7249 75.0573 77.7254 75.4789 76.6802 75.4865H76.6758Z" fill="white"/>
<path d="M61.7872 87.5135C68.2762 87.227 70.405 78.8723 70.405 78.8723L62.4413 79.2232L54.4775 79.574C54.4775 79.574 55.3006 87.8001 61.7872 87.5135Z" fill="#25215D"/>
<path d="M52.2364 75.6785C53.0165 75.6731 53.7775 75.4371 54.4232 75.0001C55.0688 74.563 55.5701 73.9446 55.8637 73.2232C56.1573 72.5016 56.2301 71.7095 56.0727 70.9468C55.9154 70.1839 55.535 69.485 54.9797 68.938C54.4243 68.3911 53.719 68.0208 52.9529 67.874C52.1868 67.7273 51.3944 67.8105 50.6758 68.1135C49.9572 68.4163 49.3445 68.9252 48.9157 69.5757C48.4867 70.226 48.2605 70.9888 48.2657 71.7676C48.2692 72.2847 48.3748 72.7961 48.5762 73.2724C48.7776 73.7488 49.0711 74.1809 49.4397 74.5441C49.8085 74.9072 50.2453 75.1943 50.7251 75.3889C51.205 75.5836 51.7186 75.6819 52.2364 75.6785Z" fill="#25215D"/>
<path d="M76.6226 67.6094C75.5769 67.6165 74.5769 68.0379 73.8424 68.7809C73.1077 69.5237 72.6987 70.5276 72.7052 71.5715C72.7087 72.0886 72.8142 72.6 73.0157 73.0763C73.2171 73.5527 73.5105 73.9848 73.8793 74.348C74.2479 74.7111 74.6848 74.9982 75.1645 75.1928C75.6445 75.3875 76.158 75.4858 76.676 75.4824C77.7216 75.4753 78.7217 75.054 79.4563 74.3111C80.1908 73.5681 80.5999 72.5643 80.5933 71.5204C80.5863 70.4765 80.1642 69.4781 79.4201 68.7448C78.6759 68.0113 77.6704 67.603 76.6248 67.6094H76.6226Z" fill="#25215D"/>
</svg>
