<svg width="1034" height="1170" viewBox="0 0 1034 1170" fill="none" xmlns="http://www.w3.org/2000/svg">
<path d="M949.335 1089.58L492.05 1089.25C488.645 1089.26 485.383 1090.62 482.978 1093.03C480.573 1095.44 479.219 1098.71 479.214 1102.11V1150.46C479.224 1153.86 480.583 1157.12 482.993 1159.53C485.403 1161.93 488.667 1163.28 492.069 1163.28L949.296 1163.66C952.7 1163.65 955.962 1162.29 958.367 1159.88C960.773 1157.46 962.126 1154.2 962.131 1150.79V1102.43C962.126 1099.03 960.778 1095.77 958.38 1093.36C955.983 1090.96 952.731 1089.6 949.335 1089.58V1089.58Z" fill="#F9D039"/>
<path d="M987.921 1015.57L530.655 1015.21C527.25 1015.23 523.989 1016.58 521.583 1019C519.178 1021.41 517.824 1024.67 517.819 1028.08V1076.42C517.829 1079.83 519.186 1083.08 521.591 1085.49C523.997 1087.89 527.255 1089.24 530.655 1089.25L987.881 1089.62C991.286 1089.61 994.547 1088.25 996.953 1085.84C999.358 1083.43 1000.71 1080.17 1000.72 1076.76V1028.41C1000.7 1025.02 999.35 1021.77 996.954 1019.36C994.559 1016.96 991.313 1015.59 987.921 1015.57V1015.57Z" fill="#F9D039"/>
<path d="M1020.96 941.594L563.736 941.24C560.33 941.245 557.066 942.603 554.659 945.015C552.252 947.427 550.901 950.695 550.901 954.104V1002.43C550.906 1005.83 552.26 1009.1 554.666 1011.51C557.072 1013.91 560.334 1015.27 563.736 1015.27L1020.86 1015.59C1024.27 1015.57 1027.53 1014.21 1029.94 1011.8C1032.34 1009.38 1033.7 1006.11 1033.7 1002.71V954.379C1033.71 952.702 1033.38 951.04 1032.74 949.489C1032.1 947.939 1031.17 946.529 1029.98 945.341C1028.8 944.153 1027.39 943.211 1025.85 942.568C1024.3 941.925 1022.64 941.594 1020.96 941.594V941.594Z" fill="#F9D039"/>
<path d="M992.382 880.326V928.691C992.382 932.094 991.033 935.358 988.63 937.766C986.227 940.175 982.967 941.53 979.567 941.535H840.93H829.942H822.355L522.34 941.339C518.932 941.318 515.669 939.954 513.259 937.542C510.849 935.131 509.486 931.866 509.465 928.455V880.149C509.452 878.45 509.774 876.765 510.412 875.191C511.051 873.617 511.993 872.185 513.185 870.975C514.377 869.766 515.796 868.804 517.36 868.143C518.924 867.483 520.603 867.138 522.301 867.128L829.903 867.384V920.096L840.891 889.236V867.384H848.753L979.606 867.502C982.993 867.527 986.234 868.888 988.626 871.289C991.017 873.689 992.367 876.936 992.382 880.326V880.326Z" fill="#F9D039"/>
<path d="M848.93 866.715L848.675 867.384L840.812 889.295V867.384H829.824V920.096L822.237 941.339H812.586V968.069C806.139 984.482 798.328 1000.32 789.234 1015.43H779.661V1030.24C765.963 1050.31 749.965 1068.71 731.995 1085.06C730.403 1086.51 728.83 1087.97 727.199 1089.35C716.56 1098.71 705.283 1107.33 693.449 1115.13V1089.37H682.441V1122.12C667.296 1131.29 651.379 1139.12 634.873 1145.52C631.236 1146.98 627.58 1148.35 623.885 1149.61C591.648 1160.88 557.782 1166.77 523.637 1167.06L492.089 1167.35C474.28 1167.35 474.732 1160.35 473.73 1151.03L461.169 866.715H848.93Z" fill="#151244"/>
<path d="M927.772 1089.56H916.784V1163.62H927.772V1089.56Z" fill="#FFEF8B"/>
<path d="M869.216 1089.54H858.228V1163.6H869.216V1089.54Z" fill="#FFEF8B"/>
<path d="M810.659 1089.46H799.672V1163.52H810.659V1089.46Z" fill="#FFEF8B"/>
<path d="M752.083 1089.37H741.096V1163.42H752.083V1089.37Z" fill="#FFEF8B"/>
<path d="M693.527 1089.37V1115.19C689.891 1117.57 686.235 1119.91 682.52 1122.12V1089.37H693.527Z" fill="#25215E"/>
<path d="M693.527 1115.19V1163.4H682.52V1122.1C686.235 1119.91 689.871 1117.57 693.527 1115.19Z" fill="#FFEF8B"/>
<path d="M634.951 1145.52V1163.4H623.963V1149.63C627.659 1148.35 631.315 1146.98 634.951 1145.52Z" fill="#FFEF8B"/>
<path d="M634.951 1089.37V1145.52C631.315 1146.98 627.659 1148.35 623.963 1149.61V1089.37H634.951Z" fill="#25215E"/>
<path d="M966.416 1015.55H955.428V1089.6H966.416V1015.55Z" fill="#FFEF8B"/>
<path d="M907.84 1015.45H896.853V1089.5H907.84V1015.45Z" fill="#FFEF8B"/>
<path d="M849.284 1015.45H838.296V1089.5H849.284V1015.45Z" fill="#FFEF8B"/>
<path d="M789.313 1015.43C786.259 1020.51 783.068 1025.46 779.74 1030.3V1015.43H789.313Z" fill="#25215E"/>
<path d="M790.728 1015.43V1089.48H779.74V1030.24C783.055 1025.4 786.246 1020.45 789.313 1015.37L790.728 1015.43Z" fill="#FFEF8B"/>
<path d="M999.439 941.594H988.451V1015.65H999.439V941.594Z" fill="#FFEF8B"/>
<path d="M940.883 941.496H929.895V1015.55H940.883V941.496Z" fill="#FFEF8B"/>
<path d="M882.228 941.476H871.24V1015.53H882.228V941.476Z" fill="#FFEF8B"/>
<path d="M822.316 941.398L816.203 958.608C815.082 961.775 813.863 964.941 812.664 968.069V941.398H822.316Z" fill="#25215E"/>
<path d="M823.652 941.398V1015.43H812.664V968.069C813.863 964.941 815.082 961.775 816.203 958.608L822.316 941.398H823.652Z" fill="#FFEF8B"/>
<path d="M958.004 867.462H947.016V941.516H958.004V867.462Z" fill="#FFEF8B"/>
<path d="M899.447 867.384H888.459V941.437H899.447V867.384Z" fill="#FFEF8B"/>
<path d="M840.891 867.384V889.295L829.903 920.155V867.384H840.891Z" fill="#25215E"/>
<path d="M840.891 889.295V941.437H829.903V920.155L840.891 889.295Z" fill="#FFEF8B"/>
<path d="M576.297 1089.25H565.309V1163.3H576.297V1089.25Z" fill="#25215E"/>
<path d="M517.74 1089.25H506.753V1163.3H517.74V1089.25Z" fill="#25215E"/>
<path d="M732.073 1085.12V1089.41H727.218C728.909 1088.03 730.481 1086.57 732.073 1085.12Z" fill="#FFEF8B"/>
<path d="M732.073 1015.35V1085.12C730.481 1086.57 728.909 1088.03 727.277 1089.41H721.085V1015.35H732.073Z" fill="#25215E"/>
<path d="M673.497 1015.33H662.51V1089.39H673.497V1015.33Z" fill="#25215E"/>
<path d="M614.941 1015.25H603.953V1089.31H614.941V1015.25Z" fill="#FFEF8B"/>
<path d="M556.365 1015.23H545.377V1089.29H556.365V1015.23Z" fill="#FFEF8B"/>
<path d="M765.096 941.378H754.108V1015.43H765.096V941.378Z" fill="#25215E"/>
<path d="M706.54 941.28H695.552V1015.33H706.54V941.28Z" fill="#FFEF8B"/>
<path d="M647.984 941.28H636.996V1015.33H647.984V941.28Z" fill="#FFEF8B"/>
<path d="M589.407 941.181H578.42V1015.23H589.407V941.181Z" fill="#FFEF8B"/>
<path d="M782.315 867.285H771.327V941.339H782.315V867.285Z" fill="#25215E"/>
<path d="M723.759 867.266H712.771V941.319H723.759V867.266Z" fill="#FFEF8B"/>
<path d="M665.104 867.167H654.116V941.221H665.104V867.167Z" fill="#FFEF8B"/>
<path d="M606.528 867.167H595.54V941.221H606.528V867.167Z" fill="#FFEF8B"/>
<path d="M547.972 867.167H536.984V941.221H547.972V867.167Z" fill="#FFEF8B"/>
<path d="M501.635 420.306H416.157L341.28 1169.42H426.758C633.607 1169.42 818.177 1001.67 838.989 794.864C859.801 588.058 708.621 420.306 501.635 420.306Z" fill="#FF953F"/>
<path d="M755.154 794.864C718.596 1001.67 521.195 1169.42 314.366 1169.42C107.536 1169.42 -30.6957 1001.67 5.86232 794.864C42.4203 588.058 239.802 420.306 446.651 420.306C653.5 420.306 791.693 587.921 755.154 794.864Z" fill="#F9D039"/>
<mask id="mask0_414_14595" style="mask-type:alpha" maskUnits="userSpaceOnUse" x="89" y="508" width="583" height="574">
<path d="M666.86 794.864C638.889 953.015 488.099 1081.11 330.033 1081.11C171.967 1081.11 66.3619 953.015 94.333 794.864C122.304 636.714 273.094 508.621 431.14 508.621C589.186 508.621 694.792 636.714 666.86 794.864Z" fill="white"/>
</mask>
<g mask="url(#mask0_414_14595)">
<path d="M666.86 794.864C638.889 953.015 488.099 1081.11 330.033 1081.11C171.968 1081.11 66.3622 953.015 94.3333 794.864C122.304 636.714 273.094 508.621 431.14 508.621C589.186 508.621 694.792 636.714 666.86 794.864Z" fill="white"/>
<path d="M131.573 788.928C167.969 637.189 305.338 514.4 444.504 505.158C438.154 504.546 431.561 504.193 424.845 504.1C278.995 502.095 129.928 629.317 91.7517 788.38C53.5751 947.444 140.915 1077.92 286.645 1079.92C293.362 1080.01 299.962 1079.84 306.686 1079.41C172.984 1066.41 95.1762 940.666 131.573 788.928Z" fill="#EBEBEB"/>
</g>
<path d="M477.126 794.864C467.717 848.155 416.841 891.393 363.54 891.393C310.238 891.393 274.619 848.155 284.028 794.864C293.436 741.574 344.332 698.335 397.633 698.335C450.935 698.335 486.476 741.535 477.126 794.864Z" fill="#EBEBEB"/>
<path d="M384.348 795.746C382.188 796.246 379.952 796.312 377.769 795.94C375.587 795.569 373.5 794.768 371.63 793.584C369.76 792.399 368.144 790.855 366.876 789.039C365.607 787.224 364.711 785.174 364.239 783.007C363.951 781.659 363.809 780.284 363.815 778.905L367.598 595.792C367.693 592.014 369.035 588.37 371.413 585.429C373.792 582.488 377.073 580.416 380.745 579.536V579.536C382.905 579.037 385.141 578.971 387.324 579.342C389.507 579.713 391.594 580.514 393.464 581.699C395.333 582.883 396.949 584.428 398.218 586.243C399.487 588.058 400.383 590.109 400.855 592.275C401.142 593.623 401.284 594.998 401.278 596.377L397.495 779.49C397.441 783.28 396.115 786.945 393.73 789.894C391.345 792.843 388.04 794.904 384.348 795.746Z" fill="#333133"/>
<path d="M385.908 804.05C384.163 804.996 382.145 805.305 380.2 804.925C378.255 804.545 376.505 803.499 375.249 801.966L244.838 636.579C243.466 634.82 242.843 632.588 243.105 630.367C243.366 628.147 244.492 626.117 246.236 624.718C246.597 624.43 246.993 624.19 247.415 624.003V624.003C249.16 623.057 251.178 622.747 253.123 623.127C255.068 623.507 256.818 624.553 258.074 626.086L388.485 791.474C389.857 793.233 390.48 795.465 390.219 797.685C389.957 799.906 388.832 801.936 387.087 803.334C386.726 803.622 386.33 803.862 385.908 804.05V804.05Z" fill="#333133"/>
<path d="M422.519 787.355C420.847 811.867 400.6 834.872 377.176 838.977C353.753 843.082 336.209 826.564 337.905 802.184C339.6 777.804 359.824 754.667 383.247 750.562C406.671 746.457 424.191 762.843 422.519 787.355Z" fill="#333133"/>
<path d="M435.922 101.455C435.922 101.455 443.804 121.688 432.135 125.722C420.466 129.756 405.446 135.156 410.535 154.582L468.073 164.761L472.48 103.627L435.922 101.455Z" fill="#25215E"/>
<path d="M298.377 90.1587C298.377 90.1587 255.922 113.743 242.639 158.43C242.639 158.43 282.301 133.294 298.377 90.1587Z" fill="#25215E"/>
<path d="M248.908 50.9335C248.908 50.9335 235.315 35.9137 227.122 24.9902C226.484 26.2929 226.147 27.7222 226.136 29.1726C226.126 30.6229 226.441 32.0571 227.06 33.369C228.673 36.9688 233.018 45.72 233.018 45.72L248.908 50.9335Z" fill="url(#paint0_linear_414_14595)"/>
<path opacity="0.3" d="M513.632 246.997C513.632 246.997 506.99 268.348 512.639 309C518.287 349.653 524.494 354.991 524.494 354.991C524.494 354.991 535.356 328.303 527.721 285.167C520.149 242.032 513.632 246.997 513.632 246.997Z" fill="#25215E"/>
<path d="M245.246 48.6371C245.246 48.6371 227.991 38.086 217.067 29.9554C216.887 31.4329 217.021 32.9317 217.459 34.354C217.898 35.7763 218.631 37.0902 219.612 38.2101C222.219 41.1892 228.984 48.4509 228.984 48.4509L245.246 48.6371Z" fill="url(#paint1_linear_414_14595)"/>
<path d="M298.377 90.1587C298.377 90.1587 287.143 71.1047 276.094 61.7949C265.046 52.4851 239.66 42.9891 229.108 43.1753C218.556 43.3615 214.646 55.5884 214.646 55.5884C214.646 55.5884 216.508 57.6365 220.605 54.9677C224.701 52.2989 227.743 49.568 230.039 50.0025C232.336 50.437 245.618 56.6435 244.749 60.1191C243.88 63.5948 237.798 62.7879 235.067 61.5466C232.336 60.3053 217.936 53.0437 214.894 57.8227C214.894 57.8227 231.529 73.339 238.48 73.9597C245.432 74.5803 260.018 73.9597 262.625 77.6836C265.232 81.4075 275.846 109.647 277.025 125.908C276.963 126.032 294.218 106.544 298.377 90.1587Z" fill="url(#paint2_linear_414_14595)"/>
<path d="M612.632 390.678C612.632 390.678 620.08 476.39 527.473 470.804C467.018 467.142 428.473 441.261 408.984 423.759C404.515 419.725 399.115 422.083 400.17 427.793C403.397 445.358 399.425 474.901 388.563 492.155C370.004 521.512 327.549 560.675 319.977 584.259C313.336 604.865 306.632 615.106 311.66 635.898C313.087 641.856 310.915 647.752 305.949 650.793L257.225 682.384C253.315 684.929 248.101 680.026 250.398 675.992C252.818 671.585 267.591 645.58 280.998 591.769C294.218 538.766 331.335 373.796 346.294 345.246C361.253 316.697 369.756 314.897 388.315 314.214C405.197 313.593 518.659 340.902 542.246 348.474C558.632 353.749 606.673 374.107 606.673 374.107L612.632 390.678Z" fill="#25215E"/>
<path d="M316.749 593.755C317.491 583.677 318.796 573.648 320.66 563.716C322.149 555.958 323.949 548.2 327.487 541.31C332.018 532.435 339.156 525.36 345.798 518.036C365.163 496.686 381.922 469.997 379.191 439.71C377.577 421.897 369.508 402.471 377.391 387.327C379.625 383.044 383.349 379.32 388.191 378.265C395.763 376.651 403.708 381.617 410.225 386.83C424.315 398.126 436.915 411.842 453.053 419.601C469.687 427.607 488.122 428.352 505.873 428.662C525.487 429.034 539.142 424.007 544.852 404.146C550.066 385.899 534.053 363.121 523.066 345.929L589.977 367.093C599.659 371.066 606.735 374.107 606.735 374.107L612.694 390.74C612.694 390.74 620.142 476.452 527.535 470.866C467.08 467.205 428.535 441.323 409.046 423.821C404.577 419.787 399.177 422.145 400.232 427.855C403.46 445.42 399.487 474.963 388.625 492.217C370.067 521.574 327.611 560.737 320.039 584.322C318.922 587.673 317.805 590.776 316.749 593.755Z" fill="#151244"/>
<path d="M250.46 675.868C252.88 671.461 267.653 645.456 281.06 591.707C296.018 597.107 310.542 592.452 318.549 588.666C312.467 606.417 307.067 616.595 311.722 635.836C313.149 641.794 310.977 647.69 306.011 650.731L257.287 682.322C253.377 684.867 248.163 679.964 250.46 675.868Z" fill="url(#paint3_linear_414_14595)"/>
<path d="M250.46 675.868C251.887 673.261 257.722 662.958 264.984 643.718C272.06 645.207 271.005 653.214 278.329 653.524C288.942 653.897 286.584 634.905 294.591 622.057C300.425 612.747 307.377 612.623 310.729 613.182C309.487 619.885 309.487 626.836 311.598 635.774C313.025 641.732 310.853 647.628 305.887 650.669L257.163 682.26C253.377 684.867 248.163 679.964 250.46 675.868Z" fill="#333133"/>
<path d="M382.356 205.662C382.356 205.662 376.522 218.572 376.584 232.722C376.646 259.224 392.784 265.679 392.784 265.679" stroke="#333133" stroke-width="1.86201" stroke-linecap="round" stroke-linejoin="round"/>
<path d="M451.749 98.7857L439.335 102.199C439.335 102.199 444.115 107.909 448.584 106.047C453.053 104.247 451.749 98.7857 451.749 98.7857Z" fill="#FF7341"/>
<path d="M242.639 158.43C283.232 130.315 298.377 90.1587 298.377 90.1587C330.094 146.017 329.473 197.345 329.473 197.345C346.604 174.195 387.198 144.9 416.37 145.21C445.542 145.521 457.397 155.141 457.397 155.141L503.515 163.209C503.515 163.209 509.411 154.52 527.287 154.893C527.287 154.893 558.942 151.914 602.328 204.483C649.625 261.769 683.142 368.707 636.404 387.14C599.287 401.85 587.246 365.728 565.708 365.294C544.17 364.859 533.742 364.487 524.494 354.929C524.494 354.929 525.425 351.763 526.48 346.302C469.066 328.427 409.977 324.765 409.977 324.765L396.322 260.59C396.322 260.59 372.115 300.311 325.253 300.311C272.184 300.311 256.294 239.301 254.184 214.041C252.074 188.78 263.184 190.456 265.915 182.388C268.646 174.319 257.536 175.374 249.342 169.974C241.149 164.575 242.639 158.43 242.639 158.43Z" fill="url(#paint4_linear_414_14595)"/>
<path d="M446.349 150.176C449.018 149.245 457.397 155.141 457.397 155.141L461.122 106.109H501.466L503.515 163.209C503.515 163.209 505.997 158.865 514.749 156.444C514.749 156.444 520.459 220.123 470.556 218.013C420.653 215.903 433.935 154.582 446.349 150.176Z" fill="url(#paint5_linear_414_14595)"/>
<path d="M475 110C475 110 459.699 115.169 458.766 138C458.766 138 453.562 110.431 461.019 110.431C468.32 110.503 475 110 475 110Z" fill="#FF8658"/>
<path d="M483.653 113.557C483.653 113.557 447.528 115.729 437.225 111.385C426.922 107.04 429.528 96.4893 429.528 96.4893L419.349 94.0067C419.349 94.0067 420.032 63.9051 449.142 53.6643C478.253 43.4236 500.349 91.5241 483.653 113.557Z" fill="url(#paint6_linear_414_14595)"/>
<path d="M466.522 268.906C466.522 268.906 464.784 279.457 462.239 283.181C459.694 286.905 462.301 290.939 466.584 288.767C469.074 287.511 471.05 285.426 472.17 282.871L466.522 268.906Z" fill="#FFB08F"/>
<path d="M513.632 246.997C513.632 246.997 507.797 266.051 511.894 308.876C515.742 349.777 523.935 355.673 523.935 355.673C523.935 355.673 535.418 328.303 527.784 285.167C520.149 242.032 513.632 246.997 513.632 246.997Z" fill="#25215E"/>
<path d="M459.073 89.6621C459.26 89.6622 459.443 89.6061 459.597 89.5012C459.752 89.3962 459.871 89.2471 459.94 89.0734C460.008 88.8997 460.023 88.7094 459.982 88.5272C459.941 88.3449 459.847 88.1792 459.71 88.0515C459.586 87.9361 447.216 76.5974 433.843 85.7917C433.639 85.9317 433.5 86.1467 433.455 86.3895C433.41 86.6323 433.463 86.883 433.603 87.0864C433.743 87.2899 433.958 87.4294 434.201 87.4743C434.444 87.5193 434.695 87.4659 434.898 87.326C447.051 78.9714 458.325 89.3052 458.438 89.4108C458.61 89.5721 458.837 89.6619 459.073 89.6621V89.6621Z" fill="#333133"/>
<path d="M435.922 68.8082L434.929 74.7044C434.911 74.8432 434.92 74.9843 434.958 75.1192C434.995 75.2541 435.059 75.3802 435.146 75.4901C435.232 75.5999 435.34 75.6913 435.463 75.7589C435.585 75.8265 435.72 75.8689 435.86 75.8837H436.17C440.142 75.1389 451.315 73.339 459.073 75.6354C459.23 75.6885 459.401 75.6794 459.551 75.6102C459.701 75.5409 459.819 75.4166 459.88 75.263C459.912 75.1942 459.929 75.1195 459.931 75.0436C459.932 74.9678 459.918 74.8925 459.888 74.8225C459.859 74.7525 459.816 74.6893 459.761 74.6369C459.706 74.5846 459.641 74.5441 459.57 74.5182C452.95 69.757 444.858 67.4924 436.728 68.1255C436.54 68.1426 436.362 68.2173 436.217 68.3394C436.073 68.4616 435.97 68.6253 435.922 68.8082Z" fill="#333133"/>
<path d="M513.942 246.749C513.942 246.749 486.073 242.342 471.177 251.342C458.453 259.038 463.79 277.595 470.432 290.815C472.505 294.887 475.865 298.16 479.99 300.125C484.087 302.049 489.363 304.346 493.273 304.966C500.535 306.208 502.77 303.539 501.218 296.712C499.728 289.884 494.328 285.974 491.721 289.884L489.363 283.678C489.363 283.678 494.018 272.32 484.584 265.058C484.584 265.058 523.997 285.416 529.832 301.553C529.832 301.553 528.28 280.078 521.887 259.597C521.01 256.586 519.824 253.674 518.349 250.907C517.108 248.425 515.68 246.873 513.942 246.749Z" fill="url(#paint7_linear_414_14595)"/>
<path d="M451.749 98.7857L439.335 102.199C439.335 102.199 444.115 107.909 448.584 106.047C453.053 104.247 451.749 98.7857 451.749 98.7857Z" fill="#E53E41"/>
<path d="M514.501 246.873C514.501 246.873 563.845 256.369 614.307 310.924C615.464 312.193 617.028 313.017 618.728 313.255C620.428 313.493 622.157 313.13 623.618 312.228C625.232 311.173 626.473 309.373 626.163 306.456C625.294 298.573 613.501 297.456 603.135 291.374C575.949 275.485 587.866 267.789 558.073 258.914C533.928 251.714 537.963 234.398 534.983 224.468C534.673 223.35 532.439 220.992 530.515 225.275C527.535 231.729 523.749 246.873 514.501 246.873Z" fill="#25215E"/>
<path d="M357.777 326.565C357.777 326.565 355.729 253.204 400.791 248.611C445.853 244.018 472.046 313.593 505.501 375.658C533.866 428.228 624.611 595.617 651.735 645.642C654.156 650.111 649.625 654.393 645.218 651.848C624.859 639.994 589.356 617.899 584.018 605.3C576.445 587.487 589.045 585.439 571.666 561.047C554.287 536.655 509.039 488.555 459.011 449.33C413.825 413.891 394.087 347.233 395.515 316.076C395.639 316.076 379.253 307.014 357.777 326.565Z" fill="#25215E"/>
<path d="M400.853 248.673C445.915 244.142 472.046 313.655 505.563 375.72C520.584 403.588 553.17 463.729 584.515 521.574L574.832 520.581C574.832 520.581 550.625 477.321 495.508 370.135C455.66 292.615 424.439 232.909 376.584 261.024C382.78 253.934 391.474 249.51 400.853 248.673V248.673Z" fill="#686596"/>
<path d="M373.542 316.324C369.073 317.814 357.777 326.813 357.777 326.813C357.591 324.951 365.846 320.11 372.549 303.477C376.956 292.677 381.984 277.658 391.853 279.147C409.108 281.754 410.473 311.111 414.508 335.626C426.239 406.443 463.977 443.372 497.246 481.728L496.066 480.673C483.094 469.191 457.397 452.123 434.184 425.745C410.908 399.367 398.494 366.473 395.639 316.076C395.639 316.076 386.142 312.104 373.542 316.324Z" fill="#151244"/>
<path d="M555.094 540.131C558.694 521.325 571.232 514.436 579.301 511.891C608.845 566.447 638.266 620.692 651.797 645.704C654.218 650.173 649.687 654.455 645.28 651.91C624.921 640.056 589.418 617.961 584.08 605.362C576.508 587.549 589.108 585.501 571.79 561.109C567.632 555.275 561.983 548.138 555.094 540.131Z" fill="url(#paint8_linear_414_14595)"/>
<path d="M579.797 575.446C590.101 574.639 600.776 588.356 604.873 600.893C608.908 613.43 619.645 624.478 628.521 624.478C632.68 624.478 635.039 620.94 636.342 617.216L651.735 645.642C654.156 650.111 649.625 654.393 645.218 651.848C624.859 639.994 589.356 617.899 584.018 605.3C578.37 591.831 584.142 587.425 579.797 575.446V575.446Z" fill="#333133"/>
<path d="M367.211 163.209C340.398 189.897 329.722 229.185 329.722 229.185C330.777 214.723 329.411 197.345 329.411 197.345C337.791 186.049 351.756 173.264 367.211 163.209Z" fill="#25215E"/>
<path d="M457.025 215.592C457.025 215.592 463.853 211.372 464.846 200.014C465.528 192.194 461.37 185.801 455.349 181.332C461.101 183.114 465.974 186.991 469.004 192.194C469.004 192.194 479.618 184.994 494.204 190.022C492.28 189.835 490.356 189.773 488.432 189.773C481.915 189.773 476.018 191.511 471.611 195.421C461.494 204.483 468.508 217.889 468.508 217.889C468.508 217.889 463.48 217.33 461.68 216.896C460.107 216.54 458.554 216.105 457.025 215.592V215.592Z" fill="#FF8658"/>
<path d="M432.135 64.2775C432.135 64.2775 448.087 56.8917 461.68 68.0635C475.211 79.2352 469.687 102.385 479.866 111.323C490.046 120.198 499.852 129.322 498.673 144.217C497.494 159.113 503.515 163.271 503.515 163.271C503.515 163.271 514.439 150.424 538.832 156.63C556.273 161.099 575.825 175.684 602.328 204.545C602.328 204.545 612.942 189.649 603.508 172.892C594.073 156.134 585.508 163.892 577.997 150.858C570.487 137.825 570.797 128.825 548.763 116.412C526.728 103.999 520.77 90.9655 517.418 82.2764C514.066 73.5873 502.397 55.3401 474.901 51.3679C446.535 47.1475 432.135 64.2775 432.135 64.2775Z" fill="#25215E"/>
<path d="M203.909 64.0385C205.377 64.0262 206.818 63.6385 208.099 62.9116C210.345 61.597 212.073 59.5383 212.992 57.0832C213.912 54.6282 213.965 51.9273 213.144 49.4369C212.76 48.2748 212.128 47.2122 211.294 46.3242C210.459 45.4362 209.442 44.7444 208.315 44.2979C207.178 43.876 205.963 43.7119 204.756 43.8172C203.55 43.9225 202.381 44.2946 201.332 44.9072C199.068 46.1989 197.333 48.2655 196.439 50.7357C195.49 53.1851 195.437 55.8966 196.287 58.3826C196.671 59.5448 197.303 60.6075 198.138 61.4955C198.972 62.3835 199.99 63.0752 201.118 63.5217C202.009 63.8638 202.955 64.0389 203.909 64.0385V64.0385ZM205.526 45.9864C206.215 45.9854 206.899 46.1115 207.543 46.3586C208.376 46.6941 209.127 47.2105 209.741 47.8714C210.355 48.5323 210.818 49.3216 211.098 50.1836C211.743 52.18 211.693 54.3394 210.957 56.3033C210.222 58.2672 208.845 59.9175 207.054 60.98C206.281 61.4383 205.417 61.7189 204.524 61.8021C203.631 61.8853 202.731 61.7691 201.888 61.4616C201.055 61.1261 200.305 60.6096 199.691 59.9488C199.076 59.2879 198.613 58.4986 198.333 57.6367C197.659 55.6448 197.708 53.475 198.473 51.5168C199.182 49.5374 200.566 47.8791 202.376 46.8403C203.339 46.2918 204.422 45.9981 205.526 45.9864V45.9864Z" fill="#B8B7B8"/>
<path d="M176.797 69.9903H194.354L198.054 38.4217H166.857L176.797 69.9903Z" fill="#D1D3D4"/>
<path d="M184.197 29.979C183.907 29.4651 183.544 28.9512 183.254 28.3638C182.959 27.8405 182.692 27.3014 182.456 26.7487C182.036 25.7467 181.79 24.6786 181.73 23.5918C181.722 22.6456 181.947 21.7123 182.383 20.8755C182.487 20.6697 182.609 20.4732 182.746 20.2882L182.963 19.8477C183.036 19.7008 183.181 19.4806 183.254 19.3338C183.636 18.6461 183.975 17.935 184.269 17.2047C184.876 15.7027 185.267 14.1204 185.43 12.5061C185.574 10.8534 185.427 9.18788 184.995 7.58731C184.159 4.51513 182.218 1.87027 179.554 0.172363C179.292 0.0123403 178.98 -0.0388242 178.682 0.0296518C178.385 0.0981277 178.125 0.280896 177.958 0.539439C177.858 0.689431 177.799 0.863238 177.786 1.04356C177.773 1.22389 177.807 1.40444 177.885 1.56725V1.56725C178.921 3.76919 179.607 6.12307 179.916 8.5417C180.127 10.7526 179.854 12.9832 179.118 15.0757C178.901 15.5896 178.683 16.1769 178.465 16.6908C178.409 16.8224 178.336 16.9459 178.248 17.0579L178.03 17.5718C177.817 17.9684 177.647 18.3868 177.522 18.8198C176.932 20.5417 176.806 22.3919 177.16 24.1792C177.511 25.8081 178.259 27.3223 179.336 28.5841C179.83 29.1822 180.364 29.7463 180.932 30.2726C181.513 30.7787 182.146 31.2216 182.818 31.5941C182.947 31.6668 183.088 31.7131 183.235 31.7304C183.381 31.7476 183.529 31.7354 183.671 31.6944C183.812 31.6535 183.944 31.5846 184.06 31.4918C184.175 31.399 184.271 31.2841 184.342 31.1536C184.455 30.9754 184.508 30.7655 184.495 30.5543C184.482 30.3431 184.403 30.1416 184.269 29.979H184.197Z" fill="#757475"/>
<path d="M879.33 547.675L937.36 792.991L911.205 791.395C911.205 791.395 906.628 787.632 913.331 771.883C920.033 756.134 919.828 747.748 904.503 743.862C889.178 739.976 877.899 734.249 882.354 714.205C886.808 694.161 886.277 691.297 864.863 683.116C843.449 674.935 837.523 649.532 850.069 610.916C859.509 581.75 879.33 547.675 879.33 547.675Z" fill="#4F9977"/>
<path d="M881.986 692.32C882.184 692.51 882.35 692.731 882.476 692.974C882.599 693.138 882.722 693.302 882.803 693.424L883.048 693.792C883.212 694.079 883.335 694.324 883.457 694.57C883.529 694.698 883.584 694.836 883.621 694.979C883.743 695.265 883.825 695.551 883.947 695.838C884.142 696.437 884.279 697.053 884.356 697.679L884.479 698.66C884.52 699.56 884.52 700.501 884.479 701.401C884.487 701.593 884.473 701.785 884.438 701.974C884.397 702.587 884.315 703.201 884.234 703.855C884.193 704.06 884.193 704.305 884.152 704.51C884.07 705.164 883.948 705.901 883.825 706.637L883.702 707.373C883.335 709.378 882.844 711.628 882.272 714.123C877.818 734.167 889.097 739.894 904.422 743.78C908.999 744.925 912.186 746.48 914.311 748.525L914.23 748.443C907.16 740.835 896.167 738.83 891.916 726.354C888.402 716.086 893.919 701.074 893.592 689.825C893.102 672.93 880.024 660.536 867.397 650.35C862.574 646.464 857.589 642.496 854.932 636.851C852.031 630.633 852.317 623.229 852.766 616.07C853.134 610.262 853.584 604.412 854.401 598.562C853.992 599.544 853.625 600.567 853.257 601.549L853.216 601.712C852.848 602.653 852.48 603.635 852.153 604.576L852.072 604.821C851.745 605.762 851.377 606.703 851.091 607.644L851.009 607.848L850.028 610.793C849.047 613.82 848.189 616.725 847.413 619.588C847.127 620.734 846.841 621.838 846.555 622.983C846.391 623.638 846.228 624.292 846.105 624.947C845.901 625.847 845.696 626.747 845.533 627.647C844.581 632.247 843.952 636.908 843.653 641.596C843.571 643.028 843.53 644.418 843.49 645.768C843.455 648.778 843.646 651.787 844.062 654.768C844.103 655.177 844.184 655.586 844.225 655.954C844.43 657.14 844.634 658.286 844.92 659.431C844.996 659.804 845.092 660.173 845.206 660.536C845.575 661.965 846.025 663.371 846.555 664.749C846.677 665.076 846.841 665.403 846.963 665.731C847.494 667.024 848.108 668.281 848.802 669.494C849.123 670.087 849.478 670.66 849.865 671.212C850.233 671.744 850.641 672.317 851.05 672.848C852.869 675.242 855.047 677.339 857.507 679.066C857.793 679.271 858.038 679.434 858.324 679.639C859.463 680.399 860.65 681.082 861.88 681.684C862.819 682.134 863.8 682.584 864.781 682.952C866.13 683.484 867.397 683.975 868.541 684.425C870.012 684.998 871.361 685.57 872.627 686.143L873.363 686.47C874.984 687.196 876.554 688.029 878.063 688.966L878.431 689.211C879.733 690.105 880.926 691.148 881.986 692.32V692.32Z" fill="#66BA93"/>
<path d="M878.104 550.865L877.286 551.315L877.041 551.724C877.368 551.438 877.736 551.152 878.104 550.865Z" fill="#66BA93"/>
<path d="M1002.58 449.99L945.779 793.931L937.401 792.991C937.401 792.991 912.595 751.307 920.727 727.336C931.843 689.906 915.578 674.976 920.85 647.118C925.754 621.184 944.226 609.525 933.682 580.073C923.139 550.62 910.552 487.42 1002.58 449.99Z" fill="#4F9977"/>
<path d="M937.36 792.991L941.447 793.44C932.66 775.442 925.182 748.975 930.413 730.608C942.019 689.825 922.771 667.94 931.802 635.378C940.875 602.817 957.058 597.376 940.384 567.433C930.903 550.415 930.004 529.144 930.985 513.927C922.035 539.534 928.165 564.487 933.723 580.032C944.267 609.484 925.795 621.143 920.85 647.077C915.578 674.894 931.843 689.865 920.727 727.295C912.595 751.307 937.36 792.991 937.36 792.991Z" fill="#66BA93"/>
<path d="M953.216 806.612L1009.86 649.982C1009.86 649.982 974.385 647.895 954.565 679.516C934.745 711.137 961.308 720.954 949.252 732.163C937.197 743.371 927.879 752.493 949.211 805.712L953.216 806.612Z" fill="#4F9977"/>
<path d="M950.07 785.791C946.392 778.101 942.673 769.388 945.738 760.797C948.762 752.207 957.507 746.684 962.616 738.994C968.214 730.608 968.95 719.564 964.455 711.505C962.411 707.823 959.387 704.796 957.303 701.115C954.524 696.247 954.115 690.765 954.687 684.998C955.014 681.848 956.526 679.353 955.137 678.616C954.923 678.901 954.731 679.201 954.565 679.516C934.745 711.137 961.308 720.954 949.252 732.163C937.605 743.003 928.451 751.92 947.332 801.008C949.906 801.172 952.522 801.213 955.137 801.213L956.118 798.554L950.07 785.791Z" fill="#66BA93"/>
<path d="M985.583 866.99L972.342 787.632H894.164L864.945 866.99" fill="#DCDDE2"/>
<path d="M886.154 809.353C886.154 809.353 876.265 838.601 885.5 851.078C898.169 868.258 923.016 866.99 985.583 866.99H864.904L886.154 809.353Z" fill="#D1D3D4"/>
<path d="M974.303 797.94C973.445 794.504 972.056 791.027 972.342 787.55H893.837C893.551 788.245 893.224 788.941 892.938 789.636C892.856 790.127 892.734 790.659 892.611 791.15C891.671 794.095 890.731 797.04 889.669 799.945C889.178 801.254 888.525 802.522 888.034 803.831C887.544 805.262 887.217 806.694 886.686 808.126C886.411 808.9 886.026 809.631 885.541 810.294C885.575 810.483 885.589 810.675 885.582 810.867H975.856C975.366 806.531 975.325 802.113 974.303 797.94Z" fill="#D1D3D4"/>
<path d="M844.266 656.24L843.857 653.091L888.361 585.84L891.753 600.076L844.266 656.24Z" fill="#7ED9AF"/>
<path d="M927.143 530.249L927.593 527.14L996.903 484.311L995.35 493.596L927.143 530.249Z" fill="#7ED9AF"/>
<path d="M926.694 548.697L926.531 546.161L992.939 508.159L991.835 514.95L926.694 548.697Z" fill="#7ED9AF"/>
<path d="M936.706 593.204L936.379 590.34L984.561 559.047L982.885 569.069L936.706 593.204Z" fill="#7ED9AF"/>
<path d="M920.074 665.403L919.869 662.908L972.383 632.678L971.157 640.205L920.074 665.403Z" fill="#7ED9AF"/>
<path d="M880.31 690.724L878.063 688.966L901.193 640.164L904.749 655.054L880.31 690.724Z" fill="#7ED9AF"/>
<path d="M884.561 700.828L884.315 697.106L907.446 666.59L909.53 675.344L884.561 700.828Z" fill="#7ED9AF"/>
<path d="M950.274 687.534L951.459 684.834L1002.79 669.412L1000.79 674.976L950.274 687.534Z" fill="#7ED9AF"/>
<path d="M947.046 700.01L947.291 697.515L998.047 682.584L996.126 687.902L947.046 700.01Z" fill="#7ED9AF"/>
<path d="M952.154 727.949C952.325 727.46 952.435 726.952 952.481 726.436C952.522 725.781 952.522 724.922 952.522 724.922L986.237 715.268L983.785 722.059L952.154 727.949Z" fill="#7ED9AF"/>
<path d="M940.016 779.287L939.363 776.71L966.866 768.856L964.046 776.669L940.016 779.287Z" fill="#7ED9AF"/>
<defs>
<linearGradient id="paint0_linear_414_14595" x1="256.804" y1="60.9897" x2="231.158" y2="20.305" gradientUnits="userSpaceOnUse">
<stop stop-color="#FF8658"/>
<stop offset="0.341103" stop-color="#FF9A72"/>
<stop offset="1" stop-color="#FFE76C"/>
</linearGradient>
<linearGradient id="paint1_linear_414_14595" x1="255.044" y1="55.8785" x2="241.836" y2="19.772" gradientUnits="userSpaceOnUse">
<stop stop-color="#FF8658"/>
<stop offset="0.341103" stop-color="#FF9A72"/>
<stop offset="1" stop-color="#FFE76C"/>
</linearGradient>
<linearGradient id="paint2_linear_414_14595" x1="327.409" y1="157.979" x2="251.096" y2="18.3973" gradientUnits="userSpaceOnUse">
<stop stop-color="#FF8658"/>
<stop offset="0.341103" stop-color="#FF9A72"/>
<stop offset="1" stop-color="#FFE76C"/>
</linearGradient>
<linearGradient id="paint3_linear_414_14595" x1="342.354" y1="719.598" x2="242.727" y2="588.59" gradientUnits="userSpaceOnUse">
<stop stop-color="#FF8658"/>
<stop offset="0.341103" stop-color="#FF9A72"/>
<stop offset="1" stop-color="#FFE76C"/>
</linearGradient>
<linearGradient id="paint4_linear_414_14595" x1="566.5" y1="30.5" x2="532.5" y2="375" gradientUnits="userSpaceOnUse">
<stop stop-color="#EAE9F7"/>
<stop offset="0.510417" stop-color="#8B89C2"/>
<stop offset="1" stop-color="#686596"/>
</linearGradient>
<linearGradient id="paint5_linear_414_14595" x1="599.5" y1="193" x2="430.392" y2="112.458" gradientUnits="userSpaceOnUse">
<stop stop-color="#FF8658"/>
<stop offset="0.341103" stop-color="#FF9A72"/>
<stop offset="1" stop-color="#FFE76C"/>
</linearGradient>
<linearGradient id="paint6_linear_414_14595" x1="647.5" y1="56" x2="449.32" y2="-22.4478" gradientUnits="userSpaceOnUse">
<stop stop-color="#FF8658"/>
<stop offset="0.341103" stop-color="#FF9A72"/>
<stop offset="1" stop-color="#FFE76C"/>
</linearGradient>
<linearGradient id="paint7_linear_414_14595" x1="624" y1="288.5" x2="496.015" y2="198.064" gradientUnits="userSpaceOnUse">
<stop stop-color="#FF8658"/>
<stop offset="0.482299" stop-color="#FF9A72"/>
<stop offset="1" stop-color="#FFE76C"/>
</linearGradient>
<linearGradient id="paint8_linear_414_14595" x1="686.237" y1="707.242" x2="535.753" y2="519.114" gradientUnits="userSpaceOnUse">
<stop stop-color="#FF8658"/>
<stop offset="0.341103" stop-color="#FF9A72"/>
<stop offset="1" stop-color="#FFE76C"/>
</linearGradient>
</defs>
</svg>
