<svg width="1568" height="1665" viewBox="0 0 1568 1665" fill="none" xmlns="http://www.w3.org/2000/svg">
<path d="M1565.68 698.627C1533.27 1149.37 1156.94 1574.39 725.427 1648.2C293.913 1722 -29.9718 1416.46 2.48491 966.008C34.9416 515.557 411.223 90.2508 842.74 16.441C1274.25 -57.3678 1598.14 248.177 1565.68 698.627Z" fill="#EAE9F7"/>
<path d="M1336.11 1393.46L751.29 1393.04C746.937 1393.05 742.765 1394.79 739.689 1397.87C736.612 1400.95 734.882 1405.13 734.875 1409.49V1471.32C734.888 1475.67 736.626 1479.84 739.708 1482.92C742.79 1485.99 746.964 1487.72 751.316 1487.72L1336.06 1488.2C1340.41 1488.18 1344.59 1486.44 1347.66 1483.36C1350.74 1480.28 1352.47 1476.1 1352.48 1471.75V1409.89C1352.47 1405.54 1350.75 1401.38 1347.68 1398.3C1344.61 1395.22 1340.45 1393.48 1336.11 1393.46V1393.46Z" fill="#F9D039"/>
<path d="M1385.46 1298.81L800.665 1298.36C796.312 1298.37 792.14 1300.11 789.064 1303.19C785.987 1306.28 784.257 1310.45 784.25 1314.81V1376.64C784.263 1380.99 785.998 1385.16 789.074 1388.23C792.15 1391.3 796.318 1393.03 800.665 1393.04L1385.41 1393.52C1389.76 1393.5 1393.94 1391.77 1397.01 1388.68C1400.09 1385.6 1401.82 1381.42 1401.83 1377.07V1315.24C1401.81 1310.9 1400.08 1306.74 1397.01 1303.66C1393.95 1300.59 1389.8 1298.84 1385.46 1298.81V1298.81Z" fill="#F9D039"/>
<path d="M1427.71 1204.2L842.967 1203.75C838.611 1203.76 834.435 1205.49 831.358 1208.58C828.28 1211.66 826.551 1215.84 826.551 1220.2V1282.01C826.558 1286.36 828.29 1290.53 831.367 1293.61C834.444 1296.69 838.615 1298.42 842.967 1298.43L1427.59 1298.83C1431.94 1298.81 1436.11 1297.07 1439.19 1293.98C1442.27 1290.9 1444 1286.72 1444 1282.36V1220.55C1444.01 1218.41 1443.59 1216.28 1442.78 1214.3C1441.96 1212.32 1440.76 1210.51 1439.25 1208.99C1437.74 1207.48 1435.94 1206.27 1433.96 1205.45C1431.98 1204.63 1429.86 1204.2 1427.71 1204.2V1204.2Z" fill="#F9D039"/>
<path d="M1391.16 1125.84V1187.69C1391.16 1192.05 1389.44 1196.22 1386.36 1199.3C1383.29 1202.38 1379.12 1204.11 1374.77 1204.12H1197.47H1183.42H1173.72L790.027 1203.87C785.668 1203.84 781.496 1202.1 778.413 1199.01C775.331 1195.93 773.588 1191.75 773.562 1187.39V1125.61C773.545 1123.44 773.957 1121.29 774.773 1119.27C775.589 1117.26 776.794 1115.43 778.319 1113.88C779.843 1112.33 781.658 1111.1 783.658 1110.26C785.659 1109.42 787.806 1108.97 789.977 1108.96L1183.37 1109.29V1176.7L1197.42 1137.23V1109.29H1207.48L1374.82 1109.44C1379.16 1109.47 1383.3 1111.21 1386.36 1114.28C1389.42 1117.35 1391.14 1121.5 1391.16 1125.84V1125.84Z" fill="#F9D039"/>
<path d="M1207.7 1108.43L1207.38 1109.29L1197.32 1137.31V1109.29H1183.27V1176.7L1173.57 1203.87H1161.22V1238.05C1152.98 1259.04 1142.99 1279.31 1131.36 1298.62H1119.12V1317.57C1101.6 1343.23 1081.14 1366.76 1058.16 1387.67C1056.12 1389.53 1054.11 1391.39 1052.02 1393.15C1038.42 1405.14 1023.99 1416.15 1008.86 1426.13V1393.18H994.781V1435.06C975.412 1446.79 955.056 1456.81 933.946 1465C929.296 1466.86 924.62 1468.62 919.894 1470.23C878.666 1484.63 835.355 1492.17 791.688 1492.54L751.341 1492.92C728.565 1492.92 729.143 1483.96 727.861 1472.04L711.798 1108.43H1207.7Z" fill="#151244"/>
<path d="M1308.53 1393.44H1294.48V1488.14H1308.53V1393.44Z" fill="#FFEF8B"/>
<path d="M1233.65 1393.4H1219.59V1488.11H1233.65V1393.4Z" fill="#FFEF8B"/>
<path d="M1158.76 1393.31H1144.7V1488.02H1158.76V1393.31Z" fill="#FFEF8B"/>
<path d="M1083.85 1393.18H1069.8V1487.89H1083.85V1393.18Z" fill="#FFEF8B"/>
<path d="M1008.96 1393.18V1426.21C1004.31 1429.26 999.63 1432.25 994.879 1435.07V1393.18H1008.96Z" fill="#25215E"/>
<path d="M1008.96 1426.21V1487.86H994.879V1435.04C999.63 1432.25 1004.28 1429.25 1008.96 1426.21Z" fill="#FFEF8B"/>
<path d="M934.042 1464.99V1487.85H919.99V1470.25C924.716 1468.61 929.392 1466.85 934.042 1464.99Z" fill="#FFEF8B"/>
<path d="M934.042 1393.18V1465C929.392 1466.86 924.716 1468.62 919.99 1470.23V1393.18H934.042Z" fill="#25215E"/>
<path d="M1357.95 1298.78H1343.89V1393.48H1357.95V1298.78Z" fill="#FFEF8B"/>
<path d="M1283.05 1298.65H1269V1393.36H1283.05V1298.65Z" fill="#FFEF8B"/>
<path d="M1208.15 1298.65H1194.1V1393.36H1208.15V1298.65Z" fill="#FFEF8B"/>
<path d="M1131.46 1298.63C1127.55 1305.12 1123.47 1311.46 1119.22 1317.65V1298.63H1131.46Z" fill="#25215E"/>
<path d="M1133.27 1298.6V1393.3H1119.22V1317.54C1123.46 1311.35 1127.54 1305.01 1131.46 1298.52L1133.27 1298.6Z" fill="#FFEF8B"/>
<path d="M1400.19 1204.21H1386.14V1298.91H1400.19V1204.21Z" fill="#FFEF8B"/>
<path d="M1325.29 1204.06H1311.24V1298.77H1325.29V1204.06Z" fill="#FFEF8B"/>
<path d="M1250.29 1204.02H1236.23V1298.73H1250.29V1204.02Z" fill="#FFEF8B"/>
<path d="M1173.66 1203.95L1165.84 1225.96C1164.41 1230.01 1162.85 1234.06 1161.32 1238.06V1203.95H1173.66Z" fill="#25215E"/>
<path d="M1175.37 1203.95V1298.63H1161.32V1238.06C1162.85 1234.06 1164.41 1230.01 1165.84 1225.96L1173.66 1203.95H1175.37Z" fill="#FFEF8B"/>
<path d="M1347.19 1109.4H1333.14V1204.11H1347.19V1109.4Z" fill="#FFEF8B"/>
<path d="M1272.3 1109.29H1258.25V1204H1272.3V1109.29Z" fill="#FFEF8B"/>
<path d="M1197.42 1109.29V1137.31L1183.37 1176.78V1109.29H1197.42Z" fill="#25215E"/>
<path d="M1197.42 1137.29V1203.98H1183.37V1176.76L1197.42 1137.29Z" fill="#FFEF8B"/>
<path d="M859.034 1393.04H844.981V1487.74H859.034V1393.04Z" fill="#25215E"/>
<path d="M784.145 1393.04H770.092V1487.74H784.145V1393.04Z" fill="#25215E"/>
<path d="M1058.26 1387.76V1393.24H1052.05C1054.21 1391.48 1056.22 1389.62 1058.26 1387.76Z" fill="#FFEF8B"/>
<path d="M1058.24 1298.52V1387.74C1056.21 1389.61 1054.2 1391.47 1052.11 1393.23H1044.19V1298.52H1058.24Z" fill="#25215E"/>
<path d="M983.344 1298.5H969.292V1393.21H983.344V1298.5Z" fill="#25215E"/>
<path d="M908.455 1298.39H894.402V1393.1H908.455V1298.39Z" fill="#FFEF8B"/>
<path d="M833.538 1298.38H819.486V1393.08H833.538V1298.38Z" fill="#FFEF8B"/>
<path d="M1100.49 1203.92H1086.44V1298.62H1100.49V1203.92Z" fill="#25215E"/>
<path d="M1025.6 1203.79H1011.55V1298.49H1025.6V1203.79Z" fill="#FFEF8B"/>
<path d="M950.719 1203.79H936.667V1298.49H950.719V1203.79Z" fill="#FFEF8B"/>
<path d="M875.803 1203.68H861.75V1298.38H875.803V1203.68Z" fill="#FFEF8B"/>
<path d="M1122.51 1109.14H1108.45V1203.85H1122.51V1109.14Z" fill="#25215E"/>
<path d="M1047.63 1109.12H1033.57V1203.83H1047.63V1109.12Z" fill="#FFEF8B"/>
<path d="M972.61 1109.01H958.557V1203.72H972.61V1109.01Z" fill="#FFEF8B"/>
<path d="M897.701 1109.01H883.649V1203.72H897.701V1109.01Z" fill="#FFEF8B"/>
<path d="M822.803 1109.01H808.75V1203.72H822.803V1109.01Z" fill="#FFEF8B"/>
<path d="M763.543 537.553H654.226L558.467 1495.6H667.784C932.323 1495.6 1168.37 1281.06 1194.98 1016.57C1221.6 752.091 1028.26 537.553 763.543 537.553Z" fill="#FF953F"/>
<path d="M1087.77 1016.57C1041.01 1281.06 788.556 1495.6 524.042 1495.6C259.529 1495.6 82.7449 1281.06 129.499 1016.57C176.253 752.091 428.684 537.553 693.222 537.553C957.76 537.553 1134.49 751.916 1087.77 1016.57Z" fill="#F9D039"/>
<mask id="mask0_414_15676" style="mask-type:alpha" maskUnits="userSpaceOnUse" x="236" y="650" width="745" height="733">
<path d="M974.837 1016.56C939.065 1218.82 746.221 1382.64 544.071 1382.64C341.921 1382.64 206.863 1218.82 242.635 1016.56C278.407 814.306 471.251 650.488 673.376 650.488C875.501 650.488 1010.56 814.306 974.837 1016.56Z" fill="white"/>
</mask>
<g mask="url(#mask0_414_15676)">
<path d="M974.837 1016.56C939.065 1218.82 746.221 1382.64 544.071 1382.64C341.921 1382.64 206.863 1218.82 242.635 1016.56C278.407 814.306 471.251 650.488 673.376 650.488C875.501 650.488 1010.56 814.306 974.837 1016.56Z" fill="white"/>
<path d="M290.261 1008.98C336.808 814.921 512.488 657.886 690.468 646.067C682.347 645.284 673.915 644.832 665.325 644.714C478.798 642.149 288.158 804.853 239.334 1008.28C190.51 1211.7 302.209 1378.57 488.582 1381.13C497.172 1381.25 505.614 1381.03 514.213 1380.47C343.221 1363.86 243.713 1203.04 290.261 1008.98Z" fill="#EBEBEB"/>
</g>
<path d="M732.193 1016.57C720.16 1084.73 655.095 1140.02 586.928 1140.02C518.761 1140.02 473.208 1084.73 485.24 1016.57C497.272 948.42 562.363 893.122 630.53 893.122C698.697 893.122 744.15 948.37 732.193 1016.57Z" fill="#EBEBEB"/>
<path d="M613.538 1017.71C610.776 1018.35 607.916 1018.43 605.124 1017.96C602.333 1017.48 599.664 1016.46 597.273 1014.94C594.881 1013.43 592.815 1011.45 591.192 1009.13C589.57 1006.81 588.424 1004.19 587.82 1001.42C587.452 999.694 587.27 997.935 587.278 996.171L592.116 761.989C592.238 757.156 593.954 752.496 596.995 748.735C600.037 744.974 604.234 742.324 608.93 741.199V741.199C611.692 740.56 614.552 740.476 617.344 740.95C620.135 741.425 622.804 742.449 625.195 743.964C627.587 745.479 629.653 747.454 631.276 749.776C632.898 752.098 634.045 754.72 634.648 757.49C635.016 759.214 635.198 760.973 635.19 762.737L630.352 996.919C630.283 1001.77 628.586 1006.45 625.536 1010.22C622.486 1014 618.259 1016.63 613.538 1017.71Z" fill="#333133"/>
<path d="M615.547 1028.32C613.315 1029.53 610.734 1029.92 608.247 1029.44C605.76 1028.95 603.521 1027.61 601.915 1025.65L435.133 814.138C433.378 811.889 432.581 809.034 432.916 806.194C433.251 803.355 434.69 800.759 436.921 798.97C437.382 798.602 437.889 798.294 438.428 798.055V798.055C440.66 796.845 443.241 796.449 445.728 796.935C448.215 797.422 450.454 798.759 452.061 800.719L618.842 1012.23C620.597 1014.48 621.394 1017.34 621.059 1020.18C620.724 1023.02 619.285 1025.61 617.054 1027.4C616.593 1027.77 616.086 1028.08 615.547 1028.32V1028.32Z" fill="#333133"/>
<path d="M662.356 1006.97C660.218 1038.31 634.324 1067.73 604.368 1072.98C574.412 1078.23 551.976 1057.11 554.144 1025.93C556.312 994.751 582.176 965.161 612.132 959.911C642.088 954.661 664.495 975.617 662.356 1006.97Z" fill="#333133"/>
<path d="M679.508 129.751C679.508 129.751 689.589 155.627 674.666 160.787C659.743 165.946 640.533 172.852 647.042 197.696L720.627 210.713L726.263 132.529L679.508 129.751Z" fill="#25215E"/>
<path d="M503.593 115.293C503.593 115.293 449.298 145.455 432.31 202.605C432.31 202.605 483.034 170.459 503.593 115.293Z" fill="#25215E"/>
<path d="M440.333 65.1289C440.333 65.1289 422.949 45.9202 412.471 31.9502C411.656 33.6161 411.225 35.4441 411.211 37.299C411.197 39.1538 411.601 40.988 412.392 42.6658C414.456 47.2696 420.012 58.4614 420.012 58.4614L440.333 65.1289Z" fill="url(#paint0_linear_414_15676)"/>
<path opacity="0.3" d="M778.879 315.884C778.879 315.884 770.385 343.188 777.609 395.179C784.832 447.17 792.77 453.996 792.77 453.996C792.77 453.996 806.662 419.865 796.898 364.699C787.214 309.534 778.879 315.884 778.879 315.884Z" fill="#25215E"/>
<path d="M435.651 62.1956C435.651 62.1956 413.584 48.7018 399.613 38.3037C399.383 40.1933 399.554 42.11 400.115 43.929C400.676 45.748 401.614 47.4284 402.868 48.8606C406.202 52.6706 414.854 61.9574 414.854 61.9574L435.651 62.1956Z" fill="url(#paint1_linear_414_15676)"/>
<path d="M503.593 115.299C503.593 115.299 489.226 90.9311 475.096 79.0249C460.966 67.1187 428.5 54.9743 415.006 55.2124C401.511 55.4506 396.51 71.0874 396.51 71.0874C396.51 71.0874 398.891 73.7068 404.131 70.2937C409.37 66.8805 413.259 63.388 416.196 63.9437C419.133 64.4993 436.121 72.4368 435.009 76.8818C433.898 81.3268 426.119 80.2949 422.626 78.7074C419.133 77.1199 400.717 67.833 396.828 73.9449C396.828 73.9449 418.101 93.7886 426.992 94.5824C435.882 95.3761 454.537 94.5824 457.871 99.3449C461.205 104.107 474.778 140.223 476.287 161.019C476.207 161.178 498.275 136.254 503.593 115.299Z" fill="url(#paint2_linear_414_15676)"/>
<path d="M905.499 499.636C905.499 499.636 915.025 609.253 796.59 602.109C719.275 597.426 669.98 564.327 645.055 541.943C639.339 536.784 632.433 539.8 633.783 547.102C637.91 569.566 632.83 607.348 618.939 629.414C595.204 666.959 540.908 717.044 531.224 747.207C522.73 773.559 514.157 786.656 520.587 813.247C522.413 820.867 519.635 828.407 513.284 832.297L450.971 872.698C445.97 875.953 439.302 869.682 442.239 864.523C445.335 858.887 464.228 825.629 481.374 756.811C498.281 689.025 545.751 478.046 564.881 441.534C584.012 405.021 594.887 402.719 618.621 401.846C640.212 401.053 785.318 435.978 815.483 445.661C836.439 452.408 897.879 478.443 897.879 478.443L905.499 499.636Z" fill="#25215E"/>
<path d="M527.089 759.345C528.037 746.455 529.707 733.629 532.09 720.927C533.995 711.005 536.297 701.083 540.822 692.273C546.617 680.922 555.745 671.873 564.239 662.507C589.005 635.202 610.438 601.071 606.945 562.336C604.881 539.555 594.562 514.711 604.643 495.343C607.501 489.867 612.264 485.104 618.455 483.755C628.14 481.691 638.3 488.041 646.635 494.708C664.654 509.155 680.768 526.697 701.407 536.618C722.681 546.858 746.256 547.81 768.959 548.207C794.043 548.683 811.507 542.254 818.81 516.854C825.477 493.518 804.997 464.387 790.947 442.4L876.519 469.467C888.902 474.547 897.951 478.437 897.951 478.437L905.571 499.709C905.571 499.709 915.097 609.326 796.663 602.182C719.347 597.499 670.052 564.4 645.127 542.016C639.411 536.857 632.505 539.873 633.855 547.175C637.983 569.638 632.902 607.421 619.011 629.487C595.276 667.031 540.981 717.117 531.296 747.28C529.867 751.566 528.439 755.535 527.089 759.345Z" fill="#151244"/>
<path d="M442.312 864.36C445.407 858.724 464.3 825.466 481.446 756.727C500.576 763.633 519.151 757.68 529.391 752.838C521.612 775.539 514.706 788.557 520.659 813.163C522.485 820.783 519.707 828.323 513.356 832.213L451.043 872.615C446.042 875.869 439.375 869.598 442.312 864.36Z" fill="url(#paint3_linear_414_15676)"/>
<path d="M442.316 864.356C444.142 861.022 451.603 847.846 460.891 823.24C469.94 825.145 468.59 835.384 477.957 835.781C491.531 836.257 488.515 811.969 498.755 795.538C506.216 783.632 515.107 783.473 519.393 784.187C517.806 792.76 517.806 801.65 520.505 813.08C522.331 820.7 519.552 828.24 513.202 832.13L450.889 872.532C446.047 875.865 439.379 869.595 442.316 864.356Z" fill="#333133"/>
<path d="M610.99 263.009C610.99 263.009 603.529 279.519 603.608 297.616C603.687 331.509 624.326 339.764 624.326 339.764" stroke="#333133" stroke-width="1.86201" stroke-linecap="round" stroke-linejoin="round"/>
<path d="M699.746 126.337L683.87 130.703C683.87 130.703 689.983 138.005 695.698 135.624C701.413 133.322 699.746 126.337 699.746 126.337Z" fill="#FF7341"/>
<path d="M432.315 202.605C484.229 166.649 503.598 115.293 503.598 115.293C544.161 186.73 543.367 252.373 543.367 252.373C565.276 222.767 617.19 185.302 654.498 185.699C691.807 186.095 706.968 198.399 706.968 198.399L765.947 208.717C765.947 208.717 773.489 197.605 796.35 198.081C796.35 198.081 836.834 194.271 892.32 261.502C952.807 334.765 995.672 471.528 935.899 495.102C888.43 513.914 873.031 467.718 845.486 467.162C817.941 466.606 804.605 466.13 792.778 453.906C792.778 453.906 793.969 449.858 795.318 442.873C721.892 420.013 646.322 415.33 646.322 415.33L628.859 333.257C628.859 333.257 597.901 384.056 537.969 384.056C470.099 384.056 449.778 306.031 447.079 273.725C444.38 241.42 458.589 243.563 462.082 233.244C465.575 222.925 451.366 224.275 440.888 217.369C430.41 210.464 432.315 202.605 432.315 202.605Z" fill="url(#paint4_linear_414_15676)"/>
<path d="M692.839 192.041C696.252 190.85 706.968 198.391 706.968 198.391L711.731 135.685H763.328L765.947 208.71C765.947 208.71 769.123 203.153 780.315 200.058C780.315 200.058 787.618 281.496 723.797 278.798C659.975 276.099 676.963 197.676 692.839 192.041Z" fill="url(#paint5_linear_414_15676)"/>
<path d="M729.476 140.669C729.476 140.669 709.907 147.28 708.715 176.478C708.715 176.478 702.06 141.22 711.596 141.22C720.933 141.312 729.476 140.669 729.476 140.669Z" fill="#FF8658"/>
<path d="M740.542 145.241C740.542 145.241 694.343 148.019 681.166 142.463C667.989 136.906 671.323 123.413 671.323 123.413L658.305 120.238C658.305 120.238 659.178 81.7409 696.407 68.644C733.636 55.5472 761.896 117.063 740.542 145.241Z" fill="url(#paint6_linear_414_15676)"/>
<path d="M718.628 343.904C718.628 343.904 716.406 357.398 713.151 362.161C709.897 366.923 713.231 372.082 718.708 369.304C721.893 367.697 724.419 365.031 725.852 361.764L718.628 343.904Z" fill="#FFB08F"/>
<path d="M778.891 315.884C778.891 315.884 771.43 340.252 776.669 395.02C781.59 447.328 792.068 454.869 792.068 454.869C792.068 454.869 806.753 419.865 796.99 364.699C787.226 309.534 778.891 315.884 778.891 315.884Z" fill="#25215E"/>
<path d="M709.106 114.669C709.345 114.669 709.579 114.598 709.776 114.463C709.974 114.329 710.127 114.138 710.214 113.916C710.302 113.694 710.321 113.451 710.269 113.218C710.217 112.985 710.095 112.773 709.921 112.609C709.762 112.462 693.943 97.9608 676.839 109.719C676.579 109.898 676.401 110.173 676.343 110.484C676.286 110.794 676.354 111.115 676.533 111.375C676.712 111.635 676.987 111.814 677.298 111.871C677.608 111.929 677.929 111.86 678.189 111.682C693.731 100.997 708.15 114.213 708.294 114.348C708.514 114.554 708.805 114.669 709.106 114.669V114.669Z" fill="#333133"/>
<path d="M679.501 87.9821L678.231 95.5227C678.208 95.7002 678.221 95.8806 678.268 96.0531C678.316 96.2257 678.398 96.3869 678.509 96.5274C678.62 96.6679 678.758 96.7849 678.914 96.8713C679.071 96.9577 679.244 97.012 679.422 97.0308H679.818C684.899 96.0783 699.187 93.7764 709.11 96.7133C709.31 96.7812 709.529 96.7696 709.721 96.681C709.913 96.5924 710.063 96.4335 710.141 96.2371C710.182 96.149 710.204 96.0535 710.206 95.9565C710.208 95.8595 710.189 95.7632 710.152 95.6737C710.115 95.5842 710.059 95.5034 709.989 95.4364C709.919 95.3694 709.836 95.3177 709.745 95.2846C701.278 89.1955 690.93 86.2992 680.533 87.1089C680.292 87.1307 680.064 87.2263 679.879 87.3825C679.694 87.5387 679.562 87.7481 679.501 87.9821Z" fill="#333133"/>
<path d="M779.279 315.562C779.279 315.562 743.638 309.927 724.587 321.436C708.314 331.278 715.141 355.012 723.634 371.918C726.285 377.126 730.583 381.311 735.859 383.825C741.098 386.285 747.845 389.222 752.846 390.016C762.133 391.603 764.991 388.19 763.007 379.459C761.101 370.728 754.195 365.727 750.861 370.728L747.845 362.79C747.845 362.79 753.799 348.265 741.733 338.978C741.733 338.978 792.139 365.013 799.601 385.65C799.601 385.65 797.616 358.187 789.44 331.993C788.318 328.143 786.802 324.419 784.915 320.88C783.328 317.705 781.502 315.721 779.279 315.562Z" fill="url(#paint7_linear_414_15676)"/>
<path d="M699.746 126.337L683.87 130.703C683.87 130.703 689.983 138.005 695.698 135.624C701.413 133.322 699.746 126.337 699.746 126.337Z" fill="#E53E41"/>
<path d="M780.005 315.714C780.005 315.714 843.112 327.858 907.648 397.629C909.127 399.251 911.127 400.305 913.301 400.609C915.475 400.913 917.687 400.449 919.555 399.296C921.619 397.946 923.206 395.644 922.809 391.914C921.698 381.833 906.616 380.404 893.36 372.626C858.591 352.306 873.832 342.463 835.73 331.113C804.851 321.905 810.011 299.759 806.201 287.059C805.804 285.631 802.946 282.614 800.485 288.091C796.675 296.346 791.833 315.714 780.005 315.714Z" fill="#25215E"/>
<path d="M579.566 417.639C579.566 417.639 576.946 323.818 634.576 317.944C692.206 312.07 725.704 401.05 768.49 480.424C804.766 547.655 920.819 761.729 955.508 825.705C958.604 831.42 952.809 836.897 947.173 833.643C921.137 818.482 875.731 790.225 868.905 774.112C859.22 751.331 875.335 748.712 853.108 717.517C830.882 686.323 773.014 624.807 709.034 574.642C651.246 529.319 626.003 444.071 627.829 404.225C627.987 404.225 607.031 392.636 579.566 417.639Z" fill="#25215E"/>
<path d="M634.649 318.031C692.279 312.236 725.698 401.136 768.563 480.511C787.773 516.151 829.447 593.065 869.534 667.042L857.15 665.772C857.15 665.772 826.192 610.448 755.703 473.367C704.741 374.228 664.813 297.869 603.612 333.826C611.536 324.759 622.655 319.101 634.649 318.031V318.031Z" fill="#686596"/>
<path d="M599.725 404.543C594.01 406.448 579.563 417.958 579.563 417.958C579.324 415.576 589.882 409.385 598.455 388.113C604.091 374.301 610.521 355.093 623.142 356.998C645.21 360.331 646.956 397.876 652.116 429.229C667.118 519.796 715.381 567.024 757.929 616.077L756.421 614.728C739.83 600.044 706.967 578.216 677.279 544.481C647.512 510.747 631.636 468.678 627.984 404.226C627.984 404.226 615.839 399.146 599.725 404.543Z" fill="#151244"/>
<path d="M831.907 690.768C836.511 666.717 852.545 657.907 862.865 654.652C900.65 724.423 938.276 793.797 955.58 825.785C958.676 831.5 952.881 836.977 947.245 833.722C921.209 818.562 875.804 790.304 868.977 774.191C859.293 751.41 875.407 748.791 853.26 717.597C847.941 710.135 840.718 701.007 831.907 690.768Z" fill="url(#paint8_linear_414_15676)"/>
<path d="M863.507 735.92C876.684 734.889 890.337 752.43 895.576 768.464C900.736 784.498 914.469 798.627 925.82 798.627C931.138 798.627 934.155 794.102 935.822 789.34L955.508 825.693C958.604 831.408 952.809 836.885 947.173 833.631C921.137 818.47 875.731 790.213 868.905 774.1C861.681 756.875 869.064 751.24 863.507 735.92V735.92Z" fill="#333133"/>
<path d="M591.628 208.712C557.336 242.843 543.683 293.087 543.683 293.087C545.032 274.593 543.286 252.368 543.286 252.368C554.002 237.922 571.862 221.571 591.628 208.712Z" fill="#25215E"/>
<path d="M706.492 275.713C706.492 275.713 715.224 270.316 716.494 255.79C717.367 245.789 712.049 237.613 704.349 231.898C711.705 234.178 717.937 239.135 721.812 245.789C721.812 245.789 735.386 236.582 754.041 243.011C751.58 242.773 749.119 242.693 746.658 242.693C738.323 242.693 730.782 244.916 725.146 249.917C712.207 261.505 721.177 278.65 721.177 278.65C721.177 278.65 714.748 277.936 712.446 277.38C710.434 276.925 708.447 276.369 706.492 275.713V275.713Z" fill="#FF8658"/>
<path d="M674.662 82.1956C674.662 82.1956 695.062 72.75 712.446 87.0374C729.751 101.325 722.686 130.932 735.705 142.362C748.723 153.712 761.265 165.38 759.757 184.43C758.249 203.48 765.948 208.799 765.948 208.799C765.948 208.799 779.919 192.368 811.115 200.305C833.421 206.02 858.426 224.674 892.321 261.583C892.321 261.583 905.895 242.533 893.829 221.102C881.763 199.67 870.809 209.592 861.204 192.924C851.599 176.255 851.996 164.745 823.816 148.871C795.636 132.996 788.016 116.327 783.729 105.214C779.443 94.1018 764.52 70.7656 729.354 65.6856C693.078 60.2881 674.662 82.1956 674.662 82.1956Z" fill="#25215E"/>
<path d="M382.808 81.9123C384.686 81.8965 386.529 81.4007 388.167 80.471C391.039 78.7898 393.25 76.1569 394.425 73.0172C395.601 69.8775 395.669 66.4233 394.619 63.2384C394.128 61.7521 393.32 60.3931 392.253 59.2574C391.186 58.1218 389.885 57.2371 388.443 56.666C386.989 56.1265 385.435 55.9166 383.892 56.0513C382.349 56.186 380.855 56.6618 379.513 57.4453C376.617 59.0972 374.398 61.7402 373.255 64.8993C372.042 68.0319 371.973 71.4996 373.061 74.6789C373.552 76.1653 374.36 77.5244 375.428 78.66C376.495 79.7957 377.796 80.6803 379.239 81.2513C380.379 81.6888 381.588 81.9127 382.808 81.9123V81.9123ZM384.877 58.8255C385.758 58.8242 386.632 58.9855 387.456 59.3015C388.522 59.7305 389.481 60.3909 390.267 61.2362C391.052 62.0814 391.645 63.0909 392.003 64.1932C392.827 66.7465 392.764 69.5081 391.823 72.0198C390.882 74.5314 389.121 76.6419 386.831 78.0008C385.842 78.5868 384.737 78.9457 383.595 79.0521C382.454 79.1586 381.303 79.0099 380.224 78.6167C379.159 78.1876 378.199 77.5271 377.414 76.6819C376.628 75.8367 376.036 74.8273 375.678 73.725C374.815 71.1776 374.879 68.4026 375.857 65.8983C376.764 63.3668 378.534 61.246 380.848 59.9175C382.079 59.216 383.465 58.8404 384.877 58.8255V58.8255Z" fill="#B8B7B8"/>
<path d="M348.138 89.5009H370.591L375.323 49.1279H335.426L348.138 89.5009Z" fill="#D1D3D4"/>
<path d="M357.602 38.339C357.231 37.6818 356.767 37.0245 356.396 36.2734C356.019 35.6042 355.678 34.9146 355.375 34.2078C354.838 32.9264 354.524 31.5604 354.447 30.1705C354.437 28.9605 354.724 27.7668 355.282 26.6966C355.416 26.4334 355.571 26.1821 355.746 25.9455L356.025 25.3821C356.117 25.1943 356.303 24.9127 356.396 24.7249C356.884 23.8454 357.318 22.936 357.695 22.0021C358.471 20.0812 358.971 18.0576 359.179 15.9931C359.363 13.8794 359.175 11.7494 358.622 9.7024C357.554 5.77341 355.071 2.39091 351.664 0.219457C351.33 0.0148054 350.93 -0.0506286 350.549 0.036945C350.169 0.124519 349.836 0.35826 349.622 0.68891C349.495 0.880734 349.419 1.10301 349.403 1.33363C349.387 1.56425 349.43 1.79516 349.53 2.00338V2.00338C350.855 4.81943 351.732 7.8298 352.128 10.923C352.397 13.7504 352.048 16.6032 351.107 19.2792C350.829 19.9365 350.55 20.6876 350.272 21.3448C350.2 21.5132 350.107 21.6711 349.994 21.8143L349.715 22.4715C349.443 22.9787 349.226 23.5138 349.066 24.0677C348.31 26.2697 348.15 28.636 348.602 30.9217C349.051 33.0049 350.008 34.9414 351.385 36.5551C352.018 37.32 352.7 38.0414 353.427 38.7146C354.17 39.3618 354.979 39.9283 355.839 40.4046C356.003 40.4976 356.184 40.5568 356.371 40.5789C356.558 40.6009 356.748 40.5853 356.929 40.5329C357.11 40.4806 357.279 40.3925 357.426 40.2738C357.574 40.1551 357.696 40.0081 357.787 39.8413C357.932 39.6134 358 39.3449 357.984 39.0748C357.967 38.8047 357.866 38.547 357.695 38.339H357.602Z" fill="#757475"/>
<path d="M1246.55 700.419L1320.76 1014.15L1287.31 1012.11C1287.31 1012.11 1281.46 1007.3 1290.03 987.158C1298.6 967.017 1298.34 956.292 1278.74 951.322C1259.14 946.352 1244.72 939.028 1250.41 913.394C1256.11 887.759 1255.43 884.097 1228.04 873.634C1200.66 863.171 1193.08 830.683 1209.12 781.298C1221.2 743.997 1246.55 700.419 1246.55 700.419Z" fill="#4F9977"/>
<path d="M1249.94 885.393C1250.2 885.636 1250.41 885.919 1250.57 886.231C1250.73 886.44 1250.88 886.649 1250.99 886.806L1251.3 887.277C1251.51 887.643 1251.67 887.957 1251.82 888.271C1251.92 888.435 1251.99 888.611 1252.03 888.794C1252.19 889.16 1252.29 889.526 1252.45 889.893C1252.7 890.659 1252.87 891.447 1252.97 892.247L1253.13 893.502C1253.18 894.653 1253.18 895.856 1253.13 897.007C1253.14 897.253 1253.12 897.498 1253.08 897.74C1253.03 898.525 1252.92 899.309 1252.82 900.146C1252.76 900.408 1252.76 900.722 1252.71 900.983C1252.61 901.82 1252.45 902.762 1252.29 903.704L1252.14 904.645C1251.67 907.209 1251.04 910.086 1250.31 913.277C1244.61 938.912 1259.04 946.236 1278.64 951.206C1284.49 952.671 1288.57 954.659 1291.28 957.274L1291.18 957.17C1282.14 947.439 1268.08 944.876 1262.64 928.92C1258.15 915.789 1265.2 896.589 1264.79 882.202C1264.16 860.596 1247.43 844.745 1231.28 831.718C1225.12 826.748 1218.74 821.674 1215.34 814.454C1211.63 806.502 1212 797.033 1212.57 787.878C1213.04 780.449 1213.62 772.968 1214.66 765.487C1214.14 766.743 1213.67 768.051 1213.2 769.306L1213.15 769.516C1212.68 770.719 1212.21 771.974 1211.79 773.178L1211.69 773.492C1211.27 774.695 1210.8 775.898 1210.43 777.101L1210.33 777.363L1209.07 781.13C1207.82 785.001 1206.72 788.715 1205.73 792.377C1205.36 793.842 1205 795.255 1204.63 796.719C1204.42 797.556 1204.21 798.393 1204.05 799.231C1203.79 800.381 1203.53 801.532 1203.32 802.683C1202.1 808.566 1201.3 814.527 1200.92 820.523C1200.81 822.354 1200.76 824.133 1200.71 825.859C1200.67 829.708 1200.91 833.556 1201.44 837.368C1201.49 837.891 1201.6 838.415 1201.65 838.885C1201.91 840.402 1202.17 841.867 1202.54 843.332C1202.64 843.809 1202.76 844.28 1202.9 844.745C1203.38 846.572 1203.95 848.371 1204.63 850.133C1204.79 850.552 1205 850.97 1205.15 851.389C1205.83 853.043 1206.62 854.65 1207.5 856.202C1207.91 856.96 1208.37 857.693 1208.86 858.399C1209.33 859.079 1209.86 859.811 1210.38 860.491C1212.7 863.553 1215.49 866.235 1218.64 868.443C1219 868.705 1219.32 868.914 1219.68 869.176C1221.14 870.148 1222.66 871.022 1224.23 871.792C1225.43 872.367 1226.68 872.942 1227.94 873.413C1229.66 874.093 1231.28 874.721 1232.75 875.297C1234.63 876.029 1236.35 876.761 1237.97 877.494L1238.91 877.912C1240.99 878.84 1243 879.907 1244.93 881.104L1245.4 881.418C1247.06 882.56 1248.59 883.895 1249.94 885.393V885.393Z" fill="#66BA93"/>
<path d="M1244.96 704.49L1243.93 705.058L1243.62 705.575C1244.03 705.213 1244.49 704.852 1244.96 704.49Z" fill="#66BA93"/>
<path d="M1404.17 575.488L1331.52 1015.35L1320.81 1014.15C1320.81 1014.15 1289.09 960.841 1299.49 930.184C1313.7 882.316 1292.9 863.221 1299.64 827.595C1305.91 794.427 1329.54 779.517 1316.05 741.85C1302.57 704.183 1286.47 623.357 1404.17 575.488Z" fill="#4F9977"/>
<path d="M1320.76 1014.15L1325.99 1014.73C1314.75 991.711 1305.19 957.863 1311.88 934.374C1326.72 882.216 1302.1 854.227 1313.65 812.584C1325.26 770.941 1345.95 763.983 1324.63 725.689C1312.5 703.926 1311.35 676.722 1312.61 657.261C1301.16 690.01 1309 721.922 1316.11 741.802C1329.59 779.469 1305.97 794.379 1299.65 827.546C1292.9 863.121 1313.7 882.268 1299.49 930.136C1289.09 960.845 1320.76 1014.15 1320.76 1014.15Z" fill="#66BA93"/>
<path d="M1341.03 1031.56L1413.47 831.247C1413.47 831.247 1368.1 828.579 1342.76 869.019C1317.41 909.458 1351.38 922.014 1335.96 936.348C1320.54 950.683 1308.63 962.349 1335.91 1030.41L1341.03 1031.56Z" fill="#4F9977"/>
<path d="M1337.02 1004.94C1332.32 995.1 1327.56 983.957 1331.48 972.971C1335.35 961.985 1346.53 954.922 1353.07 945.087C1360.23 934.363 1361.17 920.237 1355.42 909.931C1352.81 905.223 1348.94 901.352 1346.27 896.643C1342.72 890.418 1342.2 883.408 1342.93 876.031C1343.35 872.003 1345.28 868.812 1343.5 867.87C1343.23 868.234 1342.98 868.619 1342.77 869.021C1317.42 909.461 1351.39 922.016 1335.98 936.351C1321.08 950.214 1309.37 961.619 1333.52 1024.4C1336.81 1024.61 1340.16 1024.66 1343.5 1024.66L1344.76 1021.26L1337.02 1004.94Z" fill="#66BA93"/>
<path d="M1382.43 1108.79L1365.5 1007.3H1265.51L1228.15 1108.79" fill="#DCDDE2"/>
<path d="M1255.27 1035.07C1255.27 1035.07 1242.62 1072.47 1254.43 1088.43C1270.63 1110.4 1302.41 1108.78 1382.43 1108.78H1228.09L1255.27 1035.07Z" fill="#D1D3D4"/>
<path d="M1368.01 1020.5C1366.91 1016.1 1365.13 1011.65 1365.5 1007.21H1265.1C1264.73 1008.1 1264.31 1008.99 1263.95 1009.88C1263.84 1010.5 1263.69 1011.18 1263.53 1011.81C1262.33 1015.58 1261.13 1019.34 1259.77 1023.06C1259.14 1024.73 1258.3 1026.35 1257.68 1028.03C1257.05 1029.86 1256.63 1031.69 1255.95 1033.52C1255.6 1034.51 1255.11 1035.45 1254.49 1036.29C1254.53 1036.54 1254.55 1036.78 1254.54 1037.03H1369.99C1369.37 1031.48 1369.31 1025.83 1368.01 1020.5Z" fill="#D1D3D4"/>
<path d="M1201.7 839.272L1201.18 835.243L1258.09 749.237L1262.43 767.443L1201.7 839.272Z" fill="#7ED9AF"/>
<path d="M1307.69 678.127L1308.26 674.151L1396.9 619.377L1394.92 631.252L1307.69 678.127Z" fill="#7ED9AF"/>
<path d="M1307.12 701.729L1306.91 698.485L1391.84 649.885L1390.43 658.569L1307.12 701.729Z" fill="#7ED9AF"/>
<path d="M1319.92 758.634L1319.5 754.972L1381.12 714.951L1378.98 727.768L1319.92 758.634Z" fill="#7ED9AF"/>
<path d="M1298.65 850.973L1298.39 847.782L1365.55 809.121L1363.98 818.747L1298.65 850.973Z" fill="#7ED9AF"/>
<path d="M1247.81 883.384L1244.93 881.135L1274.51 818.723L1279.06 837.765L1247.81 883.384Z" fill="#7ED9AF"/>
<path d="M1253.23 896.286L1252.92 891.525L1282.5 852.498L1285.17 863.693L1253.23 896.286Z" fill="#7ED9AF"/>
<path d="M1337.28 879.288L1338.8 875.835L1404.44 856.112L1401.88 863.227L1337.28 879.288Z" fill="#7ED9AF"/>
<path d="M1333.14 895.232L1333.45 892.04L1398.36 872.945L1395.91 879.746L1333.14 895.232Z" fill="#7ED9AF"/>
<path d="M1339.68 930.973C1339.9 930.347 1340.04 929.697 1340.1 929.037C1340.15 928.2 1340.15 927.101 1340.15 927.101L1383.27 914.755L1380.14 923.439L1339.68 930.973Z" fill="#7ED9AF"/>
<path d="M1324.15 996.63L1323.32 993.335L1358.49 983.29L1354.88 993.282L1324.15 996.63Z" fill="#7ED9AF"/>
<path d="M1442 1489H120.001V1664H1442V1489Z" fill="#DCDDE2"/>
<path d="M226.157 1631.27L182.813 1513.42C182.155 1511.62 180.955 1510.07 179.376 1508.97C177.797 1507.88 175.917 1507.29 173.992 1507.3H154.829V1643.9H217.336C219.837 1643.9 222.235 1642.91 224.004 1641.15C225.772 1639.39 226.765 1637.01 226.765 1634.52C226.755 1633.41 226.549 1632.31 226.157 1631.27V1631.27Z" fill="#EEEFF5"/>
<path d="M209.96 1519.62L227.374 1570.27C227.77 1571.43 228.393 1572.5 229.208 1573.43C230.024 1574.35 231.015 1575.11 232.125 1575.65C233.234 1576.19 234.441 1576.5 235.674 1576.58C236.908 1576.66 238.144 1576.49 239.312 1576.09C240.282 1575.78 241.184 1575.29 241.974 1574.65L308.511 1524C315.659 1518.56 311.781 1507.22 302.808 1507.22H218.933C216.432 1507.22 214.034 1508.21 212.265 1509.97C210.497 1511.72 209.504 1514.11 209.504 1516.59C209.425 1517.62 209.581 1518.66 209.96 1519.62V1519.62Z" fill="#EEEFF5"/>
<path d="M241.669 1605.95L251.555 1636.94C252.186 1638.94 253.441 1640.68 255.136 1641.92C256.832 1643.15 258.881 1643.82 260.984 1643.82H376.417C379.036 1643.81 381.546 1642.77 383.399 1640.93C385.251 1639.09 386.295 1636.6 386.302 1633.99C386.289 1633.46 386.239 1632.93 386.15 1632.4L374.06 1563.84C373.704 1561.85 372.74 1560.01 371.298 1558.57C369.856 1557.14 368.007 1556.18 365.999 1555.83L315.583 1547.06C314.258 1546.83 312.899 1546.87 311.59 1547.18C310.282 1547.49 309.052 1548.07 307.979 1548.87L245.243 1595.21C243.574 1596.39 242.327 1598.07 241.684 1600C241.041 1601.93 241.036 1604.01 241.669 1605.95V1605.95Z" fill="#EEEFF5"/>
<path d="M357.331 1533.07L385.39 1537.84C386.784 1538.06 388.211 1537.99 389.575 1537.63C390.939 1537.26 392.208 1536.61 393.299 1535.72L406.834 1524.68C414.058 1518.86 409.876 1507.22 400.599 1507.22H366.075C363.64 1507.23 361.29 1508.12 359.46 1509.72L352.388 1516.07C351.017 1517.31 350.023 1518.9 349.518 1520.68C349.014 1522.45 349.019 1524.33 349.533 1526.1C350.048 1527.87 351.051 1529.46 352.429 1530.69C353.807 1531.93 355.505 1532.75 357.331 1533.07V1533.07Z" fill="#EEEFF5"/>
<path d="M395.199 1573.67L410.256 1636.34C410.766 1638.5 411.999 1640.42 413.754 1641.79C415.508 1643.17 417.68 1643.91 419.913 1643.89H451.851C453.15 1643.9 454.437 1643.64 455.637 1643.15C456.838 1642.66 457.929 1641.94 458.847 1641.02C459.766 1640.11 460.494 1639.02 460.99 1637.83C461.485 1636.64 461.739 1635.36 461.737 1634.07C461.717 1632.55 461.38 1631.06 460.748 1629.68L430.711 1569.21C429.996 1567.75 428.925 1566.5 427.596 1565.56C426.268 1564.62 424.725 1564.03 423.107 1563.84L406.15 1561.65C404.866 1561.48 403.563 1561.57 402.314 1561.91C401.066 1562.25 399.896 1562.82 398.872 1563.61C397.848 1564.4 396.99 1565.38 396.347 1566.49C395.704 1567.61 395.288 1568.84 395.123 1570.11C394.843 1571.29 394.87 1572.51 395.199 1573.67V1573.67Z" fill="#EEEFF5"/>
<path d="M431.168 1545.62L438.468 1546.98C439.845 1547.25 441.152 1547.79 442.305 1548.58C443.457 1549.38 444.43 1550.4 445.16 1551.59L461.889 1579.56C463.225 1581.8 465.399 1583.43 467.935 1584.08C470.471 1584.73 473.164 1584.36 475.425 1583.04C476.378 1582.49 477.227 1581.77 477.934 1580.93L527.057 1523.47C528.275 1522.04 529.056 1520.3 529.309 1518.44C529.562 1516.59 529.276 1514.7 528.485 1513C527.694 1511.3 526.43 1509.86 524.844 1508.85C523.257 1507.84 521.413 1507.3 519.529 1507.3H454.969C452.59 1507.29 450.292 1508.15 448.505 1509.72L426.605 1528.61C425.63 1529.46 424.834 1530.5 424.263 1531.65C423.692 1532.81 423.358 1534.07 423.28 1535.36C423.203 1536.64 423.382 1537.93 423.81 1539.15C424.237 1540.37 424.903 1541.49 425.769 1542.45C427.138 1544.1 429.049 1545.23 431.168 1545.62V1545.62Z" fill="#EEEFF5"/>
<path d="M477.173 1612.15L487.591 1637.7C488.324 1639.5 489.585 1641.05 491.211 1642.15C492.837 1643.24 494.754 1643.82 496.716 1643.82H611.617C612.915 1643.82 614.202 1643.57 615.403 1643.08C616.603 1642.58 617.694 1641.86 618.612 1640.95C619.531 1640.03 620.259 1638.95 620.755 1637.76C621.251 1636.56 621.505 1635.28 621.502 1633.99C621.49 1632.5 621.153 1631.03 620.514 1629.68L570.097 1527.56C569.403 1526.14 568.377 1524.91 567.104 1523.97C565.831 1523.03 564.349 1522.4 562.784 1522.15C561.218 1521.9 559.615 1522.02 558.108 1522.52C556.602 1523.01 555.237 1523.86 554.128 1524.99L479.15 1601.56C477.835 1602.95 476.95 1604.69 476.6 1606.57C476.249 1608.44 476.448 1610.38 477.173 1612.15V1612.15Z" fill="#EEEFF5"/>
<path d="M594.051 1521.51L622.567 1581.15C623.119 1582.32 623.897 1583.37 624.858 1584.24C625.819 1585.11 626.942 1585.78 628.165 1586.21C629.387 1586.65 630.684 1586.84 631.981 1586.78C633.278 1586.71 634.549 1586.39 635.722 1585.84C636.178 1585.63 636.612 1585.38 637.015 1585.08L724.996 1526.8C733.057 1521.43 729.331 1508.88 719.597 1508.81L603.024 1507.45C601.725 1507.43 600.435 1507.66 599.226 1508.13C598.018 1508.61 596.916 1509.31 595.984 1510.21C595.051 1511.11 594.306 1512.19 593.792 1513.37C593.278 1514.56 593.004 1515.83 592.986 1517.12C593.033 1518.64 593.395 1520.14 594.051 1521.51V1521.51Z" fill="#EEEFF5"/>
<path d="M640.665 1616.68L650.094 1637.92C650.866 1639.67 652.132 1641.16 653.739 1642.21C655.345 1643.25 657.223 1643.81 659.143 1643.82H785.07C786.369 1643.82 787.655 1643.57 788.856 1643.08C790.056 1642.58 791.147 1641.86 792.066 1640.95C792.984 1640.03 793.712 1638.95 794.208 1637.76C794.704 1636.56 794.958 1635.28 794.955 1633.99C794.968 1633.66 794.942 1633.33 794.879 1633.01L784.385 1531.03C784.209 1529.36 783.605 1527.76 782.631 1526.39C781.657 1525.01 780.345 1523.91 778.82 1523.18C777.295 1522.45 775.609 1522.13 773.921 1522.23C772.233 1522.33 770.599 1522.87 769.177 1523.78L644.391 1604.51C642.407 1605.76 640.94 1607.68 640.257 1609.91C639.573 1612.14 639.718 1614.55 640.665 1616.68Z" fill="#EEEFF5"/>
<path d="M808.339 1518.18L815.715 1581C816.024 1583.58 817.35 1585.94 819.401 1587.56C821.453 1589.17 824.065 1589.91 826.665 1589.62C826.893 1589.62 827.045 1589.54 827.273 1589.54L957.534 1566.41C959.818 1566.01 961.885 1564.81 963.373 1563.04C964.861 1561.27 965.674 1559.04 965.671 1556.73V1517.05C965.673 1515.76 965.42 1514.48 964.924 1513.28C964.428 1512.09 963.7 1511.01 962.781 1510.09C961.863 1509.18 960.772 1508.46 959.571 1507.96C958.371 1507.47 957.084 1507.22 955.785 1507.22H818.224C816.925 1507.22 815.639 1507.47 814.438 1507.96C813.238 1508.46 812.147 1509.18 811.228 1510.09C810.31 1511.01 809.582 1512.09 809.086 1513.28C808.59 1514.48 808.336 1515.76 808.339 1517.05C808.263 1517.42 808.263 1517.81 808.339 1518.18V1518.18Z" fill="#EEEFF5"/>
<path d="M821.951 1619.86L824.004 1635.35C824.311 1637.72 825.478 1639.89 827.284 1641.47C829.09 1643.04 831.412 1643.9 833.813 1643.89H924.38C925.679 1643.9 926.965 1643.64 928.166 1643.15C929.367 1642.66 930.457 1641.94 931.376 1641.02C932.294 1640.11 933.022 1639.02 933.518 1637.83C934.014 1636.64 934.268 1635.36 934.265 1634.07V1633.16L931.528 1602.09C931.419 1600.8 931.054 1599.55 930.455 1598.4C929.856 1597.26 929.034 1596.24 928.037 1595.41C927.04 1594.58 925.888 1593.96 924.647 1593.57C923.406 1593.19 922.1 1593.05 920.806 1593.17C920.502 1593.17 920.198 1593.25 919.969 1593.25L830.087 1608.89C827.56 1609.3 825.295 1610.68 823.774 1612.73C822.254 1614.78 821.6 1617.33 821.951 1619.86V1619.86Z" fill="#EEEFF5"/>
<path d="M955.785 1586.6L985.29 1580.62C987.066 1580.25 988.91 1580.38 990.616 1581C992.322 1581.61 993.822 1582.69 994.947 1584.1L1030.46 1627.87C1032.1 1629.9 1032.86 1632.49 1032.59 1635.08C1032.32 1637.67 1031.04 1640.05 1029.01 1641.7C1027.26 1643.13 1025.05 1643.91 1022.78 1643.9H963.009C960.623 1643.89 958.317 1643.04 956.515 1641.48C954.713 1639.93 953.536 1637.78 953.2 1635.43L947.877 1597.63C947.536 1595.14 948.164 1592.61 949.633 1590.56C951.102 1588.51 953.302 1587.09 955.785 1586.6Z" fill="#EEEFF5"/>
<path d="M989.32 1549.25L990.917 1516.59C991.045 1514.07 992.142 1511.69 993.981 1509.95C995.82 1508.21 998.261 1507.23 1000.8 1507.22H1111.98C1114.3 1507.22 1116.54 1508.03 1118.32 1509.51C1120.1 1510.98 1121.3 1513.04 1121.71 1515.31L1142.77 1632.25C1143.01 1633.52 1142.99 1634.83 1142.71 1636.09C1142.44 1637.35 1141.91 1638.55 1141.17 1639.61C1140.43 1640.67 1139.48 1641.58 1138.39 1642.27C1137.29 1642.97 1136.07 1643.44 1134.79 1643.67C1134.21 1643.76 1133.63 1643.81 1133.04 1643.82H1072.51C1071.09 1643.83 1069.69 1643.54 1068.4 1642.95C1067.11 1642.36 1065.97 1641.5 1065.06 1640.42L991.754 1556.13C990.913 1555.2 990.265 1554.11 989.848 1552.93C989.43 1551.75 989.251 1550.5 989.32 1549.25V1549.25Z" fill="#EEEFF5"/>
<path d="M1149.85 1518.79L1160.04 1576.92C1160.48 1579.48 1161.93 1581.77 1164.07 1583.27C1166.21 1584.77 1168.86 1585.37 1171.44 1584.93C1172.71 1584.72 1173.93 1584.26 1175.02 1583.57L1267.64 1525.44C1276 1520.15 1272.27 1507.3 1262.39 1507.3H1159.58C1158.28 1507.29 1156.99 1507.55 1155.79 1508.04C1154.59 1508.53 1153.5 1509.26 1152.58 1510.17C1151.67 1511.08 1150.94 1512.17 1150.44 1513.36C1149.95 1514.55 1149.69 1515.83 1149.69 1517.12C1149.71 1517.68 1149.76 1518.24 1149.85 1518.79V1518.79Z" fill="#EEEFF5"/>
<path d="M1168.02 1613.96L1170.83 1635.28C1171.15 1637.64 1172.32 1639.81 1174.13 1641.38C1175.93 1642.95 1178.25 1643.82 1180.64 1643.82H1338.43C1339.73 1643.82 1341.02 1643.57 1342.22 1643.08C1343.42 1642.58 1344.51 1641.86 1345.43 1640.95C1346.35 1640.03 1347.07 1638.95 1347.57 1637.76C1348.07 1636.56 1348.32 1635.28 1348.32 1633.99C1348.31 1632.18 1347.81 1630.41 1346.87 1628.85L1293.41 1542.9C1292.05 1540.69 1289.86 1539.11 1287.32 1538.5C1284.78 1537.89 1282.11 1538.31 1279.88 1539.65L1172.73 1604.28C1171.08 1605.26 1169.75 1606.69 1168.91 1608.41C1168.07 1610.14 1167.76 1612.06 1168.02 1613.96V1613.96Z" fill="#EEEFF5"/>
<path d="M1401.93 1507.22H1336.99C1335.07 1507.21 1333.19 1507.76 1331.59 1508.81L1314.55 1519.92C1312.36 1521.35 1310.83 1523.58 1310.29 1526.13C1309.74 1528.68 1310.24 1531.34 1311.66 1533.53C1311.66 1533.55 1311.67 1533.57 1311.69 1533.58C1311.7 1533.6 1311.72 1533.6 1311.74 1533.6L1341.25 1577.52C1341.96 1578.6 1342.88 1579.52 1343.96 1580.24C1345.04 1580.96 1346.25 1581.46 1347.52 1581.71C1348.79 1581.97 1350.1 1581.97 1351.37 1581.71C1352.65 1581.46 1353.86 1580.96 1354.93 1580.24L1355.85 1579.56L1402 1540.94L1401.93 1507.22Z" fill="#EEEFF5"/>
<path d="M1401.93 1563.99L1363.3 1594.15C1361.36 1595.67 1360.06 1597.86 1359.67 1600.28C1359.27 1602.7 1359.81 1605.18 1361.17 1607.23L1382.31 1639.36C1383.21 1640.73 1384.43 1641.86 1385.88 1642.64C1387.33 1643.42 1388.95 1643.82 1390.6 1643.82H1401.93V1563.99Z" fill="#EEEFF5"/>
<defs>
<linearGradient id="paint0_linear_414_15676" x1="450.431" y1="77.9898" x2="417.633" y2="25.9582" gradientUnits="userSpaceOnUse">
<stop stop-color="#FF8658"/>
<stop offset="0.341103" stop-color="#FF9A72"/>
<stop offset="1" stop-color="#FFE76C"/>
</linearGradient>
<linearGradient id="paint1_linear_414_15676" x1="448.181" y1="71.4566" x2="431.29" y2="25.2802" gradientUnits="userSpaceOnUse">
<stop stop-color="#FF8658"/>
<stop offset="0.341103" stop-color="#FF9A72"/>
<stop offset="1" stop-color="#FFE76C"/>
</linearGradient>
<linearGradient id="paint2_linear_414_15676" x1="540.722" y1="202.035" x2="443.126" y2="23.5238" gradientUnits="userSpaceOnUse">
<stop stop-color="#FF8658"/>
<stop offset="0.341103" stop-color="#FF9A72"/>
<stop offset="1" stop-color="#FFE76C"/>
</linearGradient>
<linearGradient id="paint3_linear_414_15676" x1="559.834" y1="920.286" x2="432.423" y2="752.74" gradientUnits="userSpaceOnUse">
<stop stop-color="#FF8658"/>
<stop offset="0.341103" stop-color="#FF9A72"/>
<stop offset="1" stop-color="#FFE76C"/>
</linearGradient>
<linearGradient id="paint4_linear_414_15676" x1="846.499" y1="38.9957" x2="803.017" y2="479.576" gradientUnits="userSpaceOnUse">
<stop stop-color="#EAE9F7"/>
<stop offset="0.510417" stop-color="#8B89C2"/>
<stop offset="1" stop-color="#686596"/>
</linearGradient>
<linearGradient id="paint5_linear_414_15676" x1="888.703" y1="246.809" x2="672.431" y2="143.803" gradientUnits="userSpaceOnUse">
<stop stop-color="#FF8658"/>
<stop offset="0.341103" stop-color="#FF9A72"/>
<stop offset="1" stop-color="#FFE76C"/>
</linearGradient>
<linearGradient id="paint6_linear_414_15676" x1="950.086" y1="71.6311" x2="696.634" y2="-28.6955" gradientUnits="userSpaceOnUse">
<stop stop-color="#FF8658"/>
<stop offset="0.341103" stop-color="#FF9A72"/>
<stop offset="1" stop-color="#FFE76C"/>
</linearGradient>
<linearGradient id="paint7_linear_414_15676" x1="920.032" y1="368.957" x2="756.353" y2="253.299" gradientUnits="userSpaceOnUse">
<stop stop-color="#FF8658"/>
<stop offset="0.482299" stop-color="#FF9A72"/>
<stop offset="1" stop-color="#FFE76C"/>
</linearGradient>
<linearGradient id="paint8_linear_414_15676" x1="999.626" y1="904.486" x2="807.172" y2="663.89" gradientUnits="userSpaceOnUse">
<stop stop-color="#FF8658"/>
<stop offset="0.341103" stop-color="#FF9A72"/>
<stop offset="1" stop-color="#FFE76C"/>
</linearGradient>
</defs>
</svg>
