<svg width="696" height="568" viewBox="0 0 696 568" fill="none" xmlns="http://www.w3.org/2000/svg">
<g clip-path="url(#clip0_320_23242)">
<path d="M224.692 552.955L193.573 553.049C187.42 552.667 181.273 552.25 175.12 551.91C157.014 550.985 139.011 548.611 121.286 544.812C100.267 540.189 80.0551 533.408 61.7676 521.779C47.8151 512.913 35.7359 502.083 27.2307 487.72C15.2006 467.391 14.3332 445.614 18.9812 423.122C22.3078 406.992 28.2104 391.719 33.7415 376.311C37.3913 366.151 39.7898 355.773 37.3638 345.087C35.5495 337.062 33.1046 329.192 30.0518 321.55C24.3539 307.37 17.8071 293.526 11.9717 279.406C0.31873 251.153 -2.40789 222.086 4.08476 192.113C10.7483 161.274 23.0993 133.122 41.8856 107.673C64.1169 77.5694 89.9988 51.4905 122.743 32.7584C145.69 19.6142 170.231 11.3609 196.834 9.96736C226.368 8.41572 253.923 15.4136 278.652 31.4533C297.761 43.844 316.102 57.4191 334.599 70.7252C355.356 85.6663 375.85 100.942 398.097 113.718C415.11 123.494 433.027 129.255 452.829 127.034C469.442 125.193 486.018 122.97 502.576 120.639C523.513 117.681 544.451 115.265 565.671 117.154C584.923 118.887 602.976 124.236 619.261 134.838C640.734 148.81 655.09 168.451 664.281 192.018C677.072 224.817 678.683 258.771 673.843 293.217C671.705 308.448 668.632 323.544 666.326 338.752C664.22 352.633 665.954 366.02 672.431 378.735C676.26 386.246 679.897 393.883 683.134 401.665C691.025 420.615 696.416 440.152 695.641 460.937C695.088 475.996 690.779 489.854 681.827 502.12C671.415 516.379 657.224 525.676 641.224 532.483C623.384 540.065 604.616 543.937 585.418 545.845C569.944 547.452 554.349 547.531 538.86 546.081C523.792 544.64 508.719 543.186 493.629 542.038C474.858 540.608 456.075 539.285 437.274 538.273C413.871 537.018 390.418 536.874 367.079 539.081C344.782 541.172 322.614 544.517 300.341 546.9C282.423 548.817 264.444 550.179 246.495 551.666C239.196 552.243 231.938 552.527 224.692 552.955Z" fill="#EAE9F7"/>
<g clip-path="url(#clip1_320_23242)">
<path d="M496.556 351.921L480.119 482.739H486.001L508.202 355.43L496.556 351.921Z" fill="#CAC9EA"/>
<path d="M560.902 351.921L603.668 482.739H597.787L549.957 355.43L560.902 351.921Z" fill="#CAC9EA"/>
<path d="M462.514 351.921L505.281 482.739H499.399L451.569 355.43L462.514 351.921Z" fill="#CAC9EA"/>
<path d="M462.514 351.921L468.941 371.573H457.645L451.569 355.43L462.514 351.921Z" fill="#8B89B1"/>
<path d="M560.901 351.921L567.328 371.573H555.994L549.957 355.43L560.901 351.921Z" fill="#8B89B1"/>
<path d="M494.102 371.573H505.398L508.202 355.43L496.556 351.921L494.102 371.573Z" fill="#8B89B1"/>
<path d="M398.208 351.921L381.771 482.739H387.614L409.854 355.43L398.208 351.921Z" fill="#CAC9EA"/>
<path d="M411.49 349.27L407.088 371.573H395.754L397.702 353.676L411.49 349.27Z" fill="#8B89B1"/>
<path d="M619.794 207.69C624.429 223.95 601.721 260.251 607.68 301.816C613.639 343.382 583.648 365.022 536.908 365.022H379.668C374.02 365.022 368.996 360.421 368.411 354.806C367.827 349.153 371.956 344.591 377.603 344.591H420.331C420.331 344.591 459.398 290.236 456.36 252.804C453.322 215.371 449.583 200.165 473.031 197.435C501.97 194.043 613.484 185.543 619.794 207.69Z" fill="#545254"/>
<path d="M560.161 344.513C602.11 337.026 607.68 301.777 607.68 301.777C613.6 343.343 583.648 364.983 536.908 364.983H379.668C374.02 364.983 368.995 360.382 368.411 354.767C367.827 349.153 371.955 344.552 377.603 344.552H420.331C420.331 344.513 518.212 351.999 560.161 344.513Z" fill="#757475"/>
</g>
<path d="M459.899 147.283C460.398 149.738 453.251 153.872 446.702 155.092C440.081 156.325 434.485 154.503 431.527 153.259C433.663 150.929 438.053 146.848 444.697 145.301C451.228 143.781 459.4 144.834 459.899 147.283Z" fill="#333133"/>
<path d="M434.103 144.554C434.501 137.627 443.455 131.039 455.765 128.3C456.745 140.57 462.499 151.964 471.789 160.029L446.988 166.477C444.313 163.964 441.935 161.152 439.901 158.096C437.084 153.857 433.849 148.989 434.103 144.554Z" fill="url(#paint0_linear_320_23242)"/>
<path d="M439.515 141.262C437.653 142.702 435.791 144.142 433.929 145.582C434.045 148.352 435.021 151.017 436.722 153.206C436.612 152.022 436.612 150.831 436.722 149.648C437.013 146.678 437.967 143.812 439.515 141.262V141.262Z" fill="#333133"/>
<path d="M322.179 236.832C310.903 238.865 299.49 240.051 288.036 240.378C281.418 240.554 280.149 240.28 276.764 241.023C259.363 244.842 248.612 261.795 249.385 262.623C249.646 262.903 251.167 261.282 257.438 257.465C261.503 254.988 265.696 252.728 270 250.694C271.019 254.408 272.894 257.831 275.475 260.688C276.599 261.923 277.16 262.54 278.052 262.945C283.424 265.392 292.136 258.758 293.835 257.465C295.444 256.239 296.816 254.969 299.311 254.241C301.197 253.714 303.175 253.604 305.109 253.918C309.572 254.515 316.892 255.121 326.688 255.853C325.186 249.513 323.683 243.172 322.179 236.832Z" fill="url(#paint1_linear_320_23242)"/>
<path d="M465.025 163.577C457.792 155.647 437.33 163.671 433.459 165.189C400.292 178.196 384.791 213.076 378.702 229.993C360.44 229.203 342.151 230.72 324.267 234.506C317.262 235.995 310.706 237.756 304.618 239.665C304.189 244.501 303.759 249.337 303.33 254.173C309.285 258.234 347.607 283.497 390.942 270.616C410.33 264.853 423.743 253.529 429.272 248.37C443.262 235.314 448.883 222.006 456.651 203.877C464.86 184.718 471.076 170.212 465.025 163.577Z" fill="url(#paint2_linear_320_23242)"/>
<path d="M507.915 300.189C507.69 301.23 507.451 302.117 507.29 302.936C507.102 304.24 506.847 305.533 506.527 306.811V306.817C506.467 307.14 506.383 307.458 506.276 307.769C506.267 307.809 506.255 307.849 506.24 307.888C502.755 320.343 493.907 328.019 490.1 331.321C490.026 331.385 489.952 331.45 489.878 331.511C489.679 331.633 489.478 331.753 489.275 331.872C489.137 331.952 488.995 332.036 488.853 332.117C488.032 332.597 487.196 333.066 486.344 333.523C486.334 333.529 486.323 333.535 486.312 333.539C484.682 334.351 483.02 335.109 481.329 335.824C481.326 335.828 481.319 335.828 481.316 335.831C467.472 341.66 451.976 344.284 441.221 345.481C441.214 345.483 441.206 345.485 441.198 345.484C436.901 345.961 433.365 346.209 430.994 346.348C429.78 346.419 428.54 346.474 428.54 346.474C414.219 347.071 402.514 345.345 393.743 343.259C393.965 343.337 394.197 343.411 394.423 343.485C394.725 343.588 395.025 343.692 395.321 343.798C395.418 343.833 395.515 343.868 395.608 343.901C395.904 344.01 396.201 344.12 396.491 344.23C396.767 344.333 397.044 344.439 397.325 344.552C397.326 344.553 397.328 344.554 397.329 344.554C397.331 344.555 397.333 344.555 397.334 344.555C402.633 346.673 408.215 349.888 413.079 354.856C414.086 355.906 415.032 357.013 415.913 358.17C416.306 358.68 416.693 359.199 417.066 359.728C417.098 359.773 417.131 359.815 417.163 359.86C420.664 364.793 423.476 370.454 425.789 375.932C425.802 375.96 425.812 375.989 425.824 376.019C427.329 379.579 428.62 383.057 429.754 386.204C429.754 386.211 429.757 386.217 429.76 386.223C430.24 387.548 430.691 388.812 431.116 389.999C431.116 389.999 432.082 392.691 433.735 396.772C433.739 396.786 433.744 396.799 433.751 396.811C434.953 399.784 436.515 403.488 438.331 407.428C442.051 415.498 446.832 424.558 451.731 430.3C452.346 431.014 452.999 431.695 453.686 432.341C454.243 432.872 454.63 433.202 454.63 433.202C456.476 434.771 458.532 436.073 460.74 437.07C465.546 438.766 471.241 441.584 472.023 446.098C472.084 446.438 472.111 446.784 472.104 447.129C471.498 448.822 470.094 450.625 468.197 453.837C467.868 454.391 467.557 454.935 467.262 455.468C466.432 456.648 465.536 458.015 464.615 459.64C458.347 470.682 461.223 475.245 455.273 481.242L455.18 481.335C450.355 484.717 443.607 485.555 439.871 484.311C439.941 482.483 440.956 479.984 442.199 477.04C442.388 476.946 442.572 476.842 442.75 476.728C444.302 475.719 445.555 473.442 445.507 468.439C446.218 466.208 446.684 463.906 446.898 461.575C447.054 459.696 446.983 457.806 446.686 455.945C445.281 447.253 438.888 438.932 427.473 428.257C420.77 421.992 412.337 414.909 402.172 406.468L402.113 406.42C391.304 397.441 378.533 386.923 363.796 374.202C357.886 369.098 352.958 364.766 348.861 360.961L348.851 360.951C348.304 360.441 347.77 359.942 347.251 359.451C337.046 349.802 332.457 343.608 330.678 336.541C330.677 336.533 330.675 336.526 330.672 336.519C330.354 335.233 330.121 333.927 329.976 332.611C329.976 332.609 329.976 332.607 329.976 332.606C329.975 332.604 329.974 332.603 329.973 332.601V332.595C328.63 320.717 333.645 309.785 339.949 300.889C339.945 300.886 339.945 300.886 339.952 300.883C342.801 295.241 347.865 287.399 356.711 282.315C373.311 272.775 391.681 279.59 395.842 271.388C396.968 269.169 397.4 265.166 392.654 257.561C392.657 257.561 392.66 257.558 392.664 257.558C392.95 257.415 393.24 257.277 393.53 257.135C398.851 254.565 404.31 252.294 409.883 250.332C409.885 250.33 409.887 250.329 409.89 250.329C411.835 249.646 413.787 249.003 415.745 248.401C420 247.094 424.271 245.99 428.527 245.1C444.358 241.788 459.938 241.462 473.318 244.954C477.959 246.14 482.438 247.887 486.656 250.158C488.787 251.316 490.831 252.63 492.77 254.088C494.546 255.422 496.224 256.882 497.791 258.457C498.78 259.45 499.728 260.492 500.635 261.583C501.073 265.423 502.201 269.225 503.595 272.936C509.551 288.785 508.852 295.826 507.915 300.189Z" fill="url(#paint3_linear_320_23242)"/>
<path d="M507.338 298.509V298.512C507.216 301.172 506.945 303.938 506.527 306.811V306.818C506.467 307.14 506.383 307.458 506.276 307.769C506.267 307.809 506.255 307.849 506.24 307.888C505.67 309.661 504.24 313.114 501.792 317.102C495.714 326.997 487.342 332.694 481.329 335.825C481.326 335.828 481.319 335.828 481.316 335.831C479.767 336.64 478.372 337.276 477.216 337.769C465.664 342.107 453.534 344.706 441.221 345.481C441.214 345.483 441.206 345.485 441.198 345.484C439.665 345.577 438.103 345.641 436.513 345.674C411.242 346.197 387.866 341.351 393.712 343.25C393.722 343.253 393.729 343.256 393.738 343.259H393.745C393.973 343.333 394.199 343.411 394.424 343.485C394.727 343.588 395.026 343.691 395.323 343.797C395.419 343.833 395.516 343.868 395.61 343.901C395.906 344.01 396.202 344.12 396.492 344.229C396.759 344.333 397.024 344.436 397.285 344.542H397.288L397.291 344.546C397.295 344.545 397.3 344.546 397.304 344.549C406.232 348.13 412.385 353.376 417.068 359.728C417.1 359.773 417.132 359.815 417.164 359.86C420.685 364.667 423.375 370.106 425.79 375.932C425.803 375.96 425.813 375.989 425.826 376.019C427.189 379.304 428.464 382.715 429.755 386.204C429.756 386.211 429.758 386.217 429.762 386.223C431.037 389.676 432.329 393.207 433.737 396.772C433.741 396.786 433.747 396.799 433.753 396.811C435.138 400.329 436.633 403.882 438.334 407.428C434.713 414.369 431.094 421.312 427.476 428.256C424.364 424.274 414.505 416.314 402.175 406.467L402.116 406.419C385.322 393.004 363.967 376.096 348.863 360.959L348.854 360.949C348.297 360.392 347.747 359.835 347.205 359.279V359.276C347.18 359.254 347.156 359.231 347.134 359.206C338.837 350.694 332.694 342.814 330.681 336.54C330.68 336.532 330.678 336.525 330.674 336.517C330.251 335.257 330.015 333.942 329.976 332.613V332.594C330.745 321.122 334.314 310.496 339.951 300.888C339.948 300.885 339.948 300.885 339.954 300.882C349.693 297.723 372.735 289.795 387.973 279.52C390.591 277.787 393.055 275.831 395.336 273.674C403.826 265.598 407.872 256.367 409.886 250.331C409.887 250.329 409.89 250.328 409.892 250.328C455.888 236.458 505.034 246.501 507.328 291.88C507.439 294.011 507.443 296.221 507.338 298.509Z" fill="#25215E"/>
<path d="M309.737 410.361C308.065 410.189 306.394 410.064 304.722 409.975C304.254 417.618 303.737 428.315 303.445 444.044C303.375 447.814 303.262 456.431 297.499 463.953C297.096 464.478 296.668 464.998 296.213 465.513C286.985 475.963 271.946 478.855 262.609 481.389C262.354 482.185 262.385 483.044 262.696 483.82C263.929 486.554 269.334 486.505 274.935 486.399C292.139 486.07 300.356 485.796 301.67 485.754C305.333 485.638 308.276 485.638 310.669 485.671C314.029 485.554 316.232 485.284 318.577 483.236C324.407 478.155 323.234 469.008 322.738 460.374C322.69 459.491 322.645 458.612 322.616 457.743C322.358 449.889 323.363 443.254 325.119 437.365C326.952 431.207 329.605 425.861 332.495 420.78C332.627 420.545 332.759 420.313 332.891 420.081C333.512 418.998 334.144 417.927 334.777 416.861C326.992 413.125 318.283 411.24 309.737 410.361Z" fill="url(#paint4_linear_320_23242)"/>
<path d="M353.49 365.174C349.185 354.715 348.649 347.729 351.88 344.217C358.666 336.844 382.072 344.797 422.098 368.075C416.8 357.503 401.174 330.038 370.563 320.681C356.975 316.528 332.994 313.667 327.723 323.583C323.125 332.231 333.292 349.603 353.49 365.174Z" fill="#25215E"/>
<path d="M509.086 291.973C508.961 287.341 508.25 279.802 503.242 271.934C499.365 265.841 493.541 261.048 485.727 259.696C480.993 261.739 476.296 262.429 469.599 262.936C426.581 268.035 383.135 268.659 340.199 274.138C335.953 277.011 331.987 280.278 328.353 283.895C328.353 283.896 328.352 283.896 328.352 283.897C328.351 283.898 328.35 283.898 328.349 283.898C316.254 293.111 302.925 319.948 305.197 336.96C305.593 357.983 304.837 394.69 303.444 444.045C310.669 441.821 317.894 439.594 325.119 437.365C330.386 419.578 343.835 406.886 347.969 388.72C349.947 379.693 350.236 367.35 347.25 359.452C325.311 314.666 357.239 335.136 397.285 344.544L397.289 344.547C397.293 344.546 397.298 344.548 397.301 344.55C397.308 344.55 397.318 344.553 397.324 344.553C445.604 352.554 485.864 342.538 499.183 322.727C509.501 307.38 509.086 291.973 509.086 291.973Z" fill="#46437B"/>
<path d="M460.589 344.329C460.618 344.639 455.099 345.54 446.858 346.438C389.884 352.647 349.497 325.952 341.875 335.87C336.558 342.789 348.401 350.204 349.329 373.175C349.986 389.467 344.578 400.313 338.454 410.704C343.295 399.426 344.126 390.009 343.504 382.584C341.548 359.221 322.427 340.694 329.01 326.162C331.459 320.755 336.449 318.255 337.187 317.897C347.317 312.997 357.987 321.325 382.891 331.621C394.174 336.286 401.335 339.247 410.821 341.533C437.794 348.034 460.517 343.533 460.589 344.329Z" fill="#1D1951"/>
<path d="M472.104 447.13C471.498 448.822 470.094 450.626 468.197 453.837C467.868 454.392 467.557 454.936 467.263 455.469C459.194 469.951 462.344 476.209 455.313 481.242C455.268 481.274 455.226 481.303 455.181 481.336C450.356 484.718 443.608 485.556 439.871 484.311C438.86 483.976 438.071 483.487 437.597 482.854C437.491 482.712 436.75 481.722 436.953 480.597C437.314 478.595 440.329 477.982 442.2 477.041C442.389 476.947 442.573 476.842 442.751 476.728C444.303 475.719 445.556 473.443 445.508 468.439C445.482 465.36 444.964 461.253 443.717 455.772C444.71 455.686 445.711 455.744 446.687 455.946C447.449 456.104 448.184 456.371 448.871 456.739C451.953 458.406 452.619 461.449 453.38 461.252C454.553 460.95 453.39 453.637 453.058 445.777C452.871 441.289 453.082 436.793 453.686 432.342C453.693 432.307 453.696 432.271 453.702 432.236C461.526 434.373 471.502 438.168 472.384 444.487C472.518 445.378 472.421 446.287 472.104 447.13V447.13Z" fill="#333133"/>
<path d="M322.607 484.142C320.404 486.202 318.339 485.774 310.67 485.67C308.277 485.638 305.332 485.638 301.67 485.756C300.356 485.798 292.139 486.072 274.936 486.401C269.335 486.507 263.93 486.555 262.696 483.821C262.386 483.046 262.355 482.186 262.609 481.39C262.782 480.776 263.028 480.186 263.34 479.63C265.456 475.726 269.638 476.019 278.157 472.537C282.483 470.767 286.425 469.132 290.075 465.444C291.863 463.628 293.381 461.565 294.584 459.318C295.647 460.186 297.164 461.704 297.483 463.832C297.489 463.874 297.496 463.912 297.499 463.955C297.954 467.552 294.645 470.325 295.55 471.57C296.449 472.805 300.548 471.231 301.348 470.925C309.781 467.691 311.952 461.785 319.386 460.285C320.446 460.071 321.525 459.963 322.607 459.963C322.652 460.102 322.697 460.24 322.739 460.376C327.902 476.411 324.962 481.937 322.607 484.142Z" fill="#333133"/>
<path d="M408.284 265.796C405.181 265.873 347.021 267.561 322.971 280.028C319.693 281.728 313.185 285.102 307.991 292.228C303.005 299.068 301.322 306.489 300.628 313.068C298.872 329.69 299.456 378.437 303.42 443.957C304.563 436.061 306.267 424.643 308.499 410.917C324.595 311.932 331.335 304.544 336.429 300.614C358.947 283.246 392.804 295.614 405.745 271.895C406.801 269.956 407.652 267.912 408.284 265.796V265.796Z" fill="#46437B"/>
<path d="M500.092 317.952C500.105 317.943 500.121 317.93 500.134 317.92C500.121 317.933 500.102 317.946 500.089 317.959C500.09 317.956 500.091 317.954 500.092 317.952V317.952Z" fill="url(#paint5_linear_320_23242)"/>
<path d="M509.848 285.111C509.76 288.941 509.42 292.762 508.832 296.548C510.643 270.216 481.388 249.675 452.786 257.719C441.439 251.519 421.244 229.895 414.456 221.286C396.761 189.473 438.965 147.04 476.791 167.084C483.173 172.885 487.292 178.453 490.034 184.077C500.613 205.777 492.696 213.891 502.028 245.9C505.561 258.021 510.235 268.269 509.848 285.111Z" fill="url(#paint6_linear_320_23242)"/>
<path d="M378.832 206.454C385.789 163.254 402.658 151.775 409.283 148.353C415.982 144.892 427.529 141.75 427.982 142.818C428.349 143.686 421.448 147.466 414.973 150.804C416.152 151.839 418.287 154.064 418.38 157C418.525 161.663 413.471 166.783 405.67 167.727C404.42 172.473 403.623 179.468 403.729 187.947C403.827 195.817 405.636 200.25 407.048 204.336" fill="url(#paint7_linear_320_23242)"/>
<path d="M430.229 107.418C423.465 109.517 420.569 115.714 418.822 119.447C415.432 126.695 416.019 133.518 416.525 136.73L422.9 138.485C425.149 143.619 427.727 145.177 429.565 145.674C439.776 148.438 457.672 126.783 452.972 116.608C451.626 113.693 448.587 112.077 445.325 110.342C442.144 108.65 436.373 105.512 430.229 107.418Z" fill="url(#paint8_linear_320_23242)"/>
<path d="M417.806 122.041C417.5 122.74 417.256 123.464 417.076 124.205C417.042 124.333 417.057 124.468 417.119 124.584C417.18 124.701 417.283 124.789 417.407 124.833C417.47 124.853 417.536 124.859 417.602 124.85C417.667 124.841 417.729 124.818 417.784 124.781C419.939 123.533 425.222 121.045 430.482 122.774C430.582 122.809 430.691 122.81 430.791 122.777C430.891 122.743 430.977 122.677 431.036 122.589V122.589C431.111 122.48 431.142 122.347 431.121 122.216C431.1 122.085 431.03 121.968 430.925 121.887V121.887C429.678 121.023 426.048 118.578 419.23 120.742C418.914 120.844 418.624 121.014 418.378 121.238C418.133 121.462 417.938 121.736 417.806 122.041V122.041Z" fill="#333133"/>
<path d="M427.177 138.506L426.921 138.297C426.881 138.268 426.847 138.232 426.822 138.19C426.796 138.149 426.778 138.102 426.771 138.054C426.763 138.005 426.764 137.956 426.776 137.908C426.787 137.86 426.807 137.815 426.836 137.775L426.844 137.765C426.869 137.727 426.902 137.696 426.94 137.672C426.978 137.648 427.02 137.632 427.065 137.625L431.111 136.46C431.157 136.438 431.207 136.427 431.257 136.428C431.308 136.428 431.358 136.44 431.403 136.463C431.448 136.486 431.487 136.518 431.518 136.559C431.549 136.599 431.57 136.645 431.58 136.695C431.61 136.762 431.591 136.811 431.606 136.845L431.596 137.093C431.524 138.379 431.077 139.186 430.336 139.518C429.008 140.073 427.334 138.678 427.177 138.506Z" fill="#333133"/>
<path d="M418.637 128.385C418.637 128.385 424.926 133.226 429.719 125.576C429.75 125.562 422.436 120.832 418.637 128.385Z" fill="white"/>
<path d="M424.481 129.756C421.309 130.434 418.667 128.371 418.667 128.371C419.88 125.977 421.425 124.84 422.983 124.365C423.828 124.942 424.442 125.8 424.716 126.787C424.99 127.773 424.907 128.825 424.481 129.756V129.756Z" fill="#333133"/>
<path d="M487.546 260.976C487.433 261.182 487.324 261.386 487.212 261.589C483.732 267.376 479.262 272.506 474.005 276.742C447.98 297.429 422.508 289.961 422.508 289.961C396.96 282.47 388.173 256.878 387.399 254.496C401.722 255.079 416.055 253.629 429.971 250.188C433.904 250.204 437.815 250.355 441.705 250.64C458.206 251.839 474.076 255.389 487.546 260.976Z" fill="#25215E"/>
<path d="M494.942 242.244C493.233 248.761 490.75 255.05 487.546 260.976C474.076 255.389 458.206 251.839 441.705 250.64C437.82 250.359 433.909 250.209 429.971 250.188C430.821 250.011 431.649 249.835 432.454 249.66C461.511 243.343 476.286 239.911 485.601 227.091C493.963 215.58 494.124 201.737 493.331 193.238C496.289 202.646 500.498 220.978 494.942 242.244Z" fill="#686596"/>
<path d="M431.527 153.259C438.449 153.649 445.288 151.595 450.853 147.456C459.835 151.471 465.836 158.33 465.025 163.577C464.035 169.987 452.466 176.632 437.003 173.249C435.178 166.586 433.352 159.922 431.527 153.259Z" fill="url(#paint9_linear_320_23242)"/>
<path d="M453.915 174.871C462.632 170.411 475.81 170.309 484.541 176.724C502.937 190.24 498.397 230.341 480.837 254.952C468.202 272.664 441.824 292.22 416.984 285.055C389.627 277.164 369.036 237.162 381.756 191.817L404.611 195.875C405.991 200.367 407.923 204.67 410.362 208.686C414.302 215.138 420.426 221.285 432.376 233.449C432.378 233.451 432.379 233.452 432.379 233.449C432.538 223.516 433.144 185.499 453.915 174.871Z" fill="url(#paint10_linear_320_23242)"/>
<path d="M408.538 205.053C411.568 211.13 415.642 216.625 420.575 221.288C425.509 225.922 428.836 229.138 433.781 229.348C437.184 229.492 439.798 228.156 441.189 229.67C442.807 231.429 441.995 236.186 439.579 237.408C435.74 239.349 429.884 231.341 425.729 233.539C423.546 234.694 423.227 237.583 422.186 237.408C421.059 237.219 421.403 233.774 420.471 229.962C418.657 222.537 413.928 221.577 410.569 213.188C409.534 210.579 408.85 207.843 408.538 205.053V205.053Z" fill="#686596"/>
<path d="M527.113 220.811C531.716 213.149 537.869 202.906 536.762 188.788C536.592 186.632 535.211 171.809 523.559 160.323C522.058 158.845 517.419 156.056 508.324 150.411C494.313 141.714 494.57 142.282 492.074 140.499C472.951 126.846 477.401 107.222 463.382 103.139C456.474 101.127 451.817 104.851 444.339 100.343C439.669 97.5291 439.234 94.7185 434.69 93.2267C429.955 91.6718 422.564 92.1407 418.44 97.2932C414.297 102.47 414.654 110.87 419.964 116.863C420.697 115.598 421.747 114.547 423.011 113.813C426.094 112.066 430.521 112.383 432.913 114.575C437.016 118.336 433.604 126.217 436.975 127.791C438.065 128.3 439.559 128.009 440.443 127.332C442.738 125.578 440.73 121.395 443.323 119.15C443.775 118.759 444.306 118.469 444.88 118.301C445.454 118.133 446.057 118.09 446.649 118.176C447.241 118.261 447.807 118.473 448.31 118.796C448.813 119.12 449.241 119.548 449.564 120.051C451.092 122.586 447.673 126.893 446.343 129.402C441.334 138.851 448.989 154.181 455.003 161.594C465.73 174.816 477.105 170.089 486.996 180.402C493.188 186.858 498.612 199.014 494.359 224.115C496.898 231.401 499.437 238.686 501.976 245.971C509.092 241.591 519.339 233.754 527.113 220.811Z" fill="#1D1951"/>
<path d="M445.74 133.107C446.913 132.226 447.151 130.56 446.271 129.385C445.391 128.21 443.726 127.972 442.552 128.853C441.379 129.734 441.141 131.4 442.021 132.575C442.901 133.75 444.566 133.988 445.74 133.107Z" fill="#FF7341"/>
<g clip-path="url(#clip2_320_23242)">
<path d="M671.427 482.739H54.1973V564.051H671.427V482.739Z" fill="#D1D3D4"/>
<path d="M103.76 548.842L83.5233 494.084C83.2161 493.248 82.6557 492.527 81.9187 492.018C81.1817 491.508 80.3038 491.237 79.4049 491.239H70.458V554.708H99.6419C100.81 554.708 101.929 554.249 102.755 553.432C103.581 552.615 104.044 551.508 104.044 550.352C104.039 549.837 103.943 549.325 103.76 548.842V548.842Z" fill="#F3F3F7"/>
<path d="M96.1978 496.964L104.328 520.497C104.513 521.038 104.804 521.537 105.185 521.966C105.565 522.395 106.028 522.746 106.546 522.997C107.064 523.248 107.628 523.396 108.204 523.431C108.78 523.466 109.357 523.388 109.902 523.202C110.355 523.058 110.776 522.831 111.145 522.534L142.21 499.001C145.548 496.472 143.737 491.204 139.548 491.204H100.387C99.2197 491.204 98.0999 491.663 97.2743 492.48C96.4487 493.296 95.9848 494.404 95.9848 495.559C95.9482 496.037 96.021 496.518 96.1978 496.964V496.964Z" fill="#F3F3F7"/>
<path d="M111.003 537.076L115.619 551.476C115.913 552.403 116.499 553.213 117.291 553.788C118.083 554.363 119.039 554.673 120.021 554.673H173.916C175.139 554.669 176.31 554.187 177.175 553.331C178.04 552.476 178.527 551.317 178.531 550.107C178.525 549.859 178.501 549.613 178.46 549.369L172.815 517.512C172.649 516.584 172.199 515.73 171.526 515.064C170.853 514.398 169.989 513.953 169.052 513.789L145.513 509.714C144.894 509.605 144.259 509.624 143.649 509.769C143.038 509.914 142.464 510.182 141.962 510.557L112.672 532.088C111.893 532.635 111.31 533.414 111.01 534.311C110.71 535.208 110.708 536.177 111.003 537.076V537.076Z" fill="#F3F3F7"/>
<path d="M165.004 503.216L178.105 505.429C178.756 505.535 179.422 505.502 180.059 505.332C180.695 505.163 181.288 504.86 181.797 504.446L188.117 499.318C191.49 496.613 189.537 491.204 185.206 491.204H169.087C167.95 491.209 166.853 491.62 165.998 492.363L162.696 495.313C162.056 495.89 161.592 496.632 161.356 497.456C161.121 498.28 161.123 499.153 161.364 499.975C161.604 500.798 162.072 501.538 162.716 502.111C163.359 502.683 164.152 503.066 165.004 503.216V503.216Z" fill="#F3F3F7"/>
<path d="M182.685 522.078L189.715 551.195C189.953 552.2 190.529 553.094 191.348 553.732C192.167 554.37 193.181 554.714 194.223 554.708H209.135C209.741 554.709 210.342 554.592 210.903 554.363C211.463 554.134 211.972 553.797 212.401 553.373C212.83 552.949 213.17 552.445 213.402 551.891C213.633 551.336 213.752 550.742 213.75 550.142C213.741 549.438 213.584 548.745 213.289 548.105L199.265 520.006C198.931 519.33 198.431 518.747 197.811 518.312C197.19 517.876 196.47 517.601 195.715 517.512L187.797 516.493C187.198 516.417 186.59 516.458 186.007 516.615C185.424 516.771 184.878 517.04 184.4 517.405C183.922 517.77 183.521 518.225 183.221 518.744C182.92 519.262 182.726 519.834 182.649 520.427C182.519 520.971 182.531 521.54 182.685 522.078V522.078Z" fill="#F3F3F7"/>
<path d="M199.478 509.047L202.886 509.679C203.529 509.801 204.14 510.054 204.678 510.423C205.216 510.792 205.67 511.269 206.011 511.822L213.821 524.817C214.445 525.858 215.46 526.612 216.644 526.915C217.828 527.218 219.086 527.045 220.141 526.433C220.586 526.175 220.982 525.842 221.313 525.45L244.248 498.756C244.816 498.091 245.181 497.28 245.299 496.418C245.417 495.556 245.284 494.678 244.914 493.888C244.545 493.098 243.955 492.429 243.214 491.96C242.474 491.491 241.613 491.241 240.733 491.239H210.591C209.48 491.238 208.407 491.637 207.573 492.363L197.348 501.144C196.892 501.539 196.521 502.019 196.254 502.557C195.988 503.094 195.832 503.679 195.795 504.277C195.759 504.875 195.843 505.474 196.042 506.04C196.242 506.605 196.553 507.126 196.957 507.572C197.596 508.341 198.489 508.863 199.478 509.047V509.047Z" fill="#F3F3F7"/>
<path d="M220.957 539.956L225.821 551.828C226.164 552.668 226.752 553.388 227.511 553.895C228.271 554.402 229.166 554.673 230.082 554.673H283.728C284.334 554.674 284.935 554.557 285.495 554.328C286.056 554.099 286.565 553.762 286.994 553.338C287.423 552.914 287.763 552.41 287.994 551.855C288.226 551.301 288.344 550.707 288.343 550.107C288.338 549.414 288.18 548.731 287.882 548.105L264.343 500.652C264.019 499.993 263.539 499.421 262.945 498.984C262.351 498.547 261.659 498.258 260.928 498.141C260.197 498.024 259.448 498.082 258.745 498.312C258.042 498.541 257.404 498.934 256.887 499.458L221.88 535.038C221.266 535.684 220.853 536.491 220.689 537.363C220.526 538.235 220.619 539.135 220.957 539.956V539.956Z" fill="#F3F3F7"/>
<path d="M275.526 497.842L288.84 525.555C289.098 526.098 289.461 526.585 289.91 526.989C290.358 527.392 290.883 527.704 291.454 527.907C292.025 528.109 292.63 528.198 293.236 528.168C293.841 528.138 294.435 527.99 294.982 527.733C295.195 527.637 295.398 527.519 295.586 527.382L336.663 500.301C340.427 497.807 338.687 491.977 334.143 491.942L279.716 491.309C279.109 491.299 278.507 491.407 277.943 491.628C277.379 491.848 276.864 492.177 276.429 492.594C275.993 493.012 275.646 493.511 275.405 494.062C275.165 494.613 275.037 495.205 275.029 495.805C275.051 496.511 275.22 497.205 275.526 497.842V497.842Z" fill="#F3F3F7"/>
<path d="M297.29 542.063L301.693 551.933C302.053 552.745 302.644 553.437 303.394 553.923C304.144 554.409 305.021 554.67 305.918 554.673H364.712C365.318 554.674 365.919 554.557 366.479 554.328C367.04 554.099 367.549 553.762 367.978 553.338C368.407 552.914 368.747 552.41 368.978 551.855C369.21 551.301 369.328 550.707 369.327 550.107C369.333 549.954 369.321 549.8 369.292 549.65L364.392 502.268C364.31 501.491 364.028 500.748 363.573 500.109C363.118 499.471 362.506 498.958 361.794 498.62C361.082 498.282 360.294 498.13 359.506 498.178C358.718 498.226 357.956 498.474 357.292 498.896L299.03 536.408C298.104 536.989 297.419 537.879 297.1 538.916C296.781 539.954 296.848 541.071 297.29 542.063Z" fill="#F3F3F7"/>
<path d="M375.575 496.297L379.019 525.485C379.164 526.685 379.783 527.78 380.741 528.53C381.698 529.281 382.918 529.625 384.132 529.489C384.238 529.489 384.309 529.454 384.416 529.454L445.234 518.706C446.3 518.518 447.265 517.964 447.959 517.142C448.654 516.319 449.034 515.282 449.032 514.21V495.77C449.034 495.17 448.915 494.576 448.684 494.021C448.452 493.467 448.112 492.963 447.683 492.539C447.254 492.114 446.745 491.778 446.185 491.549C445.624 491.32 445.023 491.203 444.417 491.204H380.191C379.584 491.203 378.984 491.32 378.423 491.549C377.863 491.778 377.353 492.114 376.925 492.539C376.496 492.963 376.156 493.467 375.924 494.021C375.693 494.576 375.574 495.17 375.575 495.77C375.54 495.944 375.54 496.123 375.575 496.297V496.297Z" fill="#F3F3F7"/>
<path d="M381.931 543.538L382.89 550.739C383.033 551.839 383.578 552.849 384.421 553.58C385.264 554.311 386.348 554.712 387.47 554.708H429.754C430.361 554.709 430.961 554.592 431.522 554.363C432.082 554.134 432.592 553.797 433.021 553.373C433.449 552.949 433.789 552.445 434.021 551.891C434.252 551.336 434.371 550.742 434.37 550.142V549.72L433.092 535.284C433.041 534.686 432.87 534.104 432.591 533.571C432.311 533.038 431.927 532.565 431.462 532.18C430.996 531.795 430.458 531.504 429.879 531.326C429.299 531.147 428.69 531.084 428.086 531.14C427.944 531.14 427.802 531.175 427.695 531.175L385.73 538.446C384.55 538.636 383.492 539.275 382.782 540.227C382.073 541.179 381.767 542.367 381.931 543.538V543.538Z" fill="#F3F3F7"/>
<path d="M444.417 528.084L458.192 525.309C459.021 525.137 459.883 525.197 460.679 525.482C461.476 525.768 462.176 526.267 462.701 526.925L479.281 547.262C480.045 548.206 480.403 549.409 480.277 550.612C480.15 551.815 479.55 552.921 478.607 553.689C477.786 554.354 476.756 554.714 475.695 554.708H447.79C446.675 554.707 445.599 554.309 444.757 553.587C443.916 552.864 443.366 551.865 443.21 550.774L440.724 533.212C440.565 532.053 440.859 530.878 441.545 529.925C442.23 528.972 443.258 528.314 444.417 528.084Z" fill="#F3F3F7"/>
<path d="M460.074 510.733L460.82 495.559C460.88 494.387 461.391 493.282 462.25 492.472C463.109 491.661 464.249 491.208 465.435 491.204H517.341C518.425 491.202 519.474 491.578 520.305 492.265C521.136 492.953 521.695 493.907 521.886 494.962L531.72 549.299C531.83 549.889 531.82 550.496 531.692 551.082C531.563 551.669 531.319 552.225 530.972 552.718C530.626 553.211 530.184 553.631 529.673 553.955C529.161 554.278 528.59 554.498 527.993 554.602C527.722 554.643 527.449 554.667 527.176 554.673H498.915C498.253 554.679 497.598 554.541 496.997 554.268C496.395 553.995 495.862 553.593 495.436 553.092L461.21 513.929C460.818 513.496 460.515 512.991 460.32 512.443C460.125 511.894 460.042 511.313 460.074 510.733V510.733Z" fill="#F3F3F7"/>
<path d="M535.022 496.578L539.78 523.588C539.988 524.78 540.666 525.841 541.664 526.539C542.662 527.237 543.9 527.515 545.105 527.311C545.698 527.212 546.266 526.997 546.774 526.679L590.017 499.669C593.923 497.21 592.183 491.239 587.567 491.239H539.567C538.96 491.238 538.359 491.355 537.799 491.584C537.238 491.813 536.729 492.15 536.3 492.574C535.872 492.998 535.532 493.502 535.3 494.056C535.069 494.611 534.95 495.205 534.951 495.805C534.959 496.064 534.983 496.322 535.022 496.578V496.578Z" fill="#F3F3F7"/>
<path d="M543.508 540.799L544.821 550.704C544.97 551.801 545.516 552.808 546.359 553.538C547.201 554.268 548.282 554.671 549.401 554.673H623.071C623.678 554.674 624.278 554.557 624.839 554.328C625.399 554.099 625.909 553.762 626.337 553.338C626.766 552.914 627.106 552.41 627.338 551.855C627.569 551.301 627.688 550.707 627.687 550.107C627.682 549.265 627.449 548.44 627.012 547.718L602.053 507.782C601.415 506.756 600.392 506.021 599.208 505.739C598.024 505.456 596.775 505.647 595.733 506.272L545.709 536.303C544.935 536.755 544.314 537.422 543.922 538.222C543.531 539.022 543.386 539.918 543.508 540.799V540.799Z" fill="#F3F3F7"/>
<path d="M652.716 491.204H622.396C621.501 491.199 620.624 491.456 619.876 491.942L611.923 497.105C610.899 497.768 610.183 498.806 609.93 499.991C609.677 501.175 609.909 502.411 610.574 503.427C610.574 503.436 610.577 503.445 610.584 503.452C610.591 503.458 610.6 503.462 610.609 503.462L624.385 523.869C624.719 524.369 625.15 524.798 625.653 525.132C626.156 525.466 626.72 525.699 627.314 525.816C627.908 525.934 628.52 525.934 629.114 525.817C629.708 525.699 630.272 525.467 630.775 525.134L631.201 524.817L652.752 506.869L652.716 491.204Z" fill="#F3F3F7"/>
<path d="M652.717 517.582L634.681 531.596C633.776 532.302 633.171 533.318 632.987 534.443C632.803 535.568 633.052 536.721 633.687 537.673L643.557 552.6C643.976 553.238 644.549 553.762 645.225 554.124C645.901 554.486 646.658 554.675 647.427 554.673H652.717V517.582Z" fill="#F3F3F7"/>
</g>
<g clip-path="url(#clip3_320_23242)">
<path d="M231.466 276.464H136.186L114.073 191.495H209.353L231.466 276.464Z" fill="url(#paint11_linear_320_23242)"/>
<path d="M281.87 283.895H138.136L136.185 276.464H281.87V283.895Z" fill="#FF9A72"/>
<path d="M158.058 235.311C155.951 228.771 157.918 222.295 162.45 220.846C166.982 219.398 172.365 223.525 174.471 230.065C176.578 236.605 174.612 243.081 170.08 244.53C165.547 245.978 160.165 241.851 158.058 235.311Z" fill="#FFDC51"/>
</g>
<g clip-path="url(#clip4_320_23242)">
<path d="M262.727 291.829L264.611 308.263L284.63 482.739H290.175L275.486 308.263L273.706 287.144V287.131L273.677 287.144L262.727 291.829Z" fill="#CAC9EA"/>
<path d="M176.15 291.829L178.034 308.263L198.053 482.739H203.598L188.909 308.263L187.129 287.144V287.131L187.1 287.144L176.15 291.829Z" fill="#CAC9EA"/>
<path d="M132.699 482.739H138.244L158.264 308.263L160.148 291.829L149.197 287.144L149.168 287.131V287.144L147.388 308.263L132.699 482.739Z" fill="#CAC9EA"/>
<path d="M219.6 482.739H225.145L245.165 308.263L247.048 291.829L236.098 287.144L236.069 287.131V287.144L234.289 308.263L219.6 482.739Z" fill="#CAC9EA"/>
<path d="M273.677 287.144L262.727 291.829L264.611 308.263H275.486L273.706 287.144H273.677Z" fill="#8B89B1"/>
<path d="M236.069 287.144L234.289 308.263H245.165L247.049 291.829L236.098 287.144H236.069Z" fill="#8B89B1"/>
<path d="M187.1 287.144L176.15 291.829L178.034 308.263H188.909L187.129 287.144H187.1Z" fill="#8B89B1"/>
<path d="M147.388 308.263H158.264L160.148 291.829L149.197 287.144H149.168L147.388 308.263Z" fill="#8B89B1"/>
<path d="M125.16 298.841H299.611V283.895H125.16V298.841Z" fill="#545254"/>
</g>
<g clip-path="url(#clip5_320_23242)">
<path d="M350.833 40.7329V46.6126C350.825 53.0854 348.656 59.3702 344.67 64.4698C340.684 69.5694 335.109 73.1918 328.829 74.762C322.55 76.3323 315.926 75.7605 310.008 73.1375C304.091 70.5144 299.219 65.9903 296.166 60.283C293.05 54.4405 292.024 47.7088 293.257 41.2032C294.49 34.6976 297.909 28.8087 302.948 24.5122C307.986 20.2156 314.341 17.7694 320.96 17.5788C327.578 17.3882 334.064 19.4647 339.341 23.4641C340.465 24.3204 341.526 25.2568 342.516 26.2658L334.122 34.5033C333.153 33.5141 332.068 32.6446 330.891 31.9133C327.743 29.9622 324.05 29.0742 320.359 29.3801C316.667 29.6861 313.172 31.1698 310.387 33.6126C307.602 36.0554 305.676 39.3281 304.892 42.9484C304.108 46.5688 304.508 50.3452 306.032 53.7212C307.404 56.7509 309.619 59.3216 312.413 61.1263C315.207 62.9311 318.461 63.8936 321.787 63.899C325.338 63.889 328.801 62.79 331.708 60.7503C334.615 58.7106 336.826 55.8283 338.044 52.4924H324.515V40.7329H350.833Z" fill="white"/>
<path d="M343.603 65.7629C340.504 69.2875 336.597 72.0088 332.216 73.694C327.836 75.3791 323.112 75.9781 318.45 75.4395C313.788 74.9009 309.325 73.2408 305.444 70.6013C301.563 67.9618 298.38 64.4214 296.166 60.283L306.032 53.7212C307.404 56.7509 309.619 59.3216 312.413 61.1263C315.206 62.9311 318.461 63.8936 321.786 63.899C324.229 63.899 326.643 63.3803 328.87 62.3774C331.097 61.3744 333.086 59.91 334.704 58.0811L343.603 65.7629Z" fill="#FF7341"/>
<path d="M304.5 46.6126C304.498 51.0438 306.203 55.3056 309.26 58.5132L300.74 66.6096C295.517 61.1251 292.646 53.8145 292.743 46.2412C292.84 38.6679 295.896 31.4329 301.258 26.0836L309.568 34.3946C307.961 35.9973 306.686 37.9016 305.816 39.9983C304.946 42.095 304.499 44.3427 304.5 46.6126V46.6126Z" fill="#FF7341"/>
<path d="M350.832 40.7329V46.6126C350.833 50.9528 349.859 55.2378 347.983 59.1516C346.107 63.0654 343.377 66.5082 339.993 69.2261L331.344 61.0092C334.429 58.9583 336.777 55.9738 338.044 52.4924H324.515V40.7329H350.832Z" fill="#FF7341"/>
<path d="M321.787 76.1804C313.948 76.1713 306.432 73.0532 300.889 67.5101C295.346 61.967 292.228 54.4516 292.219 46.6125C292.227 38.7733 295.345 31.2575 300.888 25.7143C306.432 20.1711 313.947 17.0532 321.787 17.0446C328.243 17.0172 334.527 19.1286 339.657 23.0489C340.801 23.9205 341.881 24.8733 342.888 25.8999C342.936 25.9488 342.974 26.0067 343 26.0703C343.025 26.1339 343.038 26.2019 343.038 26.2705C343.037 26.3391 343.023 26.4068 342.996 26.47C342.969 26.5331 342.93 26.5903 342.881 26.6383L334.488 34.8758C334.389 34.9727 334.256 35.0265 334.118 35.0252C333.979 35.024 333.847 34.9678 333.75 34.8691C332.809 33.9097 331.757 33.0663 330.616 32.3568C328.058 30.7691 325.119 29.8996 322.108 29.8395C319.098 29.7794 316.127 30.5309 313.507 32.0152C310.887 33.4996 308.715 35.6619 307.219 38.2751C305.723 40.8884 304.959 43.8562 305.005 46.8669C305.052 49.8777 305.909 52.8203 307.485 55.3859C309.061 57.9514 311.299 60.0452 313.964 61.4474C316.629 62.8497 319.622 63.5086 322.629 63.3551C325.636 63.2015 328.546 62.2411 331.054 60.5748C333.829 58.7224 335.995 56.0924 337.281 53.0143H324.515C324.376 53.0143 324.244 52.9593 324.146 52.8614C324.048 52.7635 323.993 52.6307 323.993 52.4923V40.7328C323.993 40.5943 324.048 40.4616 324.146 40.3637C324.244 40.2658 324.376 40.2108 324.515 40.2108H350.832C350.971 40.2108 351.104 40.2658 351.202 40.3637C351.3 40.4616 351.355 40.5943 351.355 40.7328V46.6125C351.345 54.4516 348.227 61.967 342.684 67.5101C337.141 73.0531 329.626 76.1713 321.787 76.1804H321.787ZM321.787 18.0887C316.207 18.0858 310.749 19.7202 306.09 22.7893C301.43 25.8584 297.774 30.2274 295.573 35.3547C293.373 40.482 292.725 46.1423 293.711 51.6341C294.697 57.1259 297.272 62.2077 301.118 66.2498C303.772 69.0666 306.975 71.3088 310.531 72.8374C314.086 74.366 317.917 75.1485 321.787 75.1364C329.349 75.1272 336.599 72.1191 341.946 66.7718C347.293 61.4245 350.301 54.1747 350.31 46.6125V41.2548H325.037V51.9702H338.044C338.128 51.9702 338.211 51.9904 338.285 52.0291C338.359 52.0678 338.423 52.1239 338.471 52.1925C338.52 52.2612 338.551 52.3404 338.562 52.4236C338.573 52.5067 338.563 52.5913 338.535 52.6701C337.224 56.253 334.807 59.3257 331.633 61.4436C328.836 63.3047 325.569 64.337 322.211 64.4215C318.852 64.5059 315.537 63.6392 312.65 61.9211C309.763 60.203 307.42 57.7037 305.892 54.7114C304.364 51.7191 303.713 48.3558 304.014 45.0094C304.315 41.663 305.556 38.47 307.594 35.7986C309.632 33.1272 312.383 31.0863 315.531 29.9114C318.678 28.7364 322.094 28.4753 325.384 29.1581C328.674 29.8409 331.704 31.4398 334.124 33.7704L341.774 26.2623C340.909 25.4109 339.99 24.6152 339.025 23.8797C334.076 20.0983 328.015 18.0619 321.787 18.0887V18.0887Z" fill="#FF7341"/>
<path d="M300.74 67.1316C300.669 67.1317 300.599 67.1174 300.534 67.0895C300.469 67.0616 300.411 67.0207 300.362 66.9693C295.045 61.3861 292.123 53.9441 292.221 46.2346C292.32 38.5251 295.43 31.1601 300.888 25.7144C300.988 25.6201 301.12 25.5675 301.258 25.5675C301.395 25.5675 301.527 25.6201 301.627 25.7144L309.938 34.0255C310.036 34.1234 310.091 34.2561 310.091 34.3945C310.091 34.5329 310.036 34.6656 309.938 34.7635C306.843 37.851 305.08 42.0266 305.024 46.3976C304.968 50.7686 306.624 54.988 309.638 58.1538C309.734 58.2541 309.785 58.3882 309.782 58.5266C309.778 58.665 309.72 58.7963 309.619 58.8917L301.1 66.988C301.003 67.0803 300.874 67.1318 300.74 67.1316V67.1316ZM301.261 26.8251C296.218 32.0438 293.358 38.9912 293.265 46.2478C293.172 53.5045 295.854 60.5226 300.762 65.8685L308.527 58.4892C305.546 55.1681 303.923 50.8471 303.98 46.3844C304.037 41.9217 305.77 37.6437 308.836 34.4L301.261 26.8251Z" fill="#FF7341"/>
<path d="M339.993 69.7481C339.859 69.7482 339.731 69.6968 339.634 69.6045L330.984 61.3876C330.928 61.3336 330.884 61.2675 330.856 61.1942C330.828 61.1209 330.817 61.0422 330.824 60.9641C330.831 60.886 330.855 60.8104 330.895 60.743C330.935 60.6755 330.99 60.618 331.055 60.5746C333.829 58.7223 335.995 56.0923 337.281 53.0144H324.515C324.376 53.0144 324.243 52.9594 324.146 52.8615C324.048 52.7636 323.993 52.6308 323.993 52.4924V40.7329C323.993 40.5944 324.048 40.4617 324.146 40.3638C324.243 40.2659 324.376 40.2109 324.515 40.2109H350.832C350.971 40.2109 351.104 40.2659 351.201 40.3638C351.299 40.4617 351.354 40.5944 351.354 40.7329V46.6126C351.36 51.0316 350.371 55.3952 348.461 59.38C346.551 63.3649 343.769 66.8689 340.321 69.6325C340.228 69.7073 340.112 69.7482 339.993 69.7481V69.7481ZM332.169 61.0728L340.019 68.5303C343.243 65.8611 345.838 62.5121 347.617 58.7231C349.396 54.934 350.316 50.7986 350.31 46.6126V41.2549H325.037V51.9704H338.044C338.128 51.9703 338.21 51.9905 338.285 52.0292C338.359 52.0679 338.423 52.124 338.471 52.1926C338.52 52.2613 338.55 52.3405 338.561 52.4237C338.572 52.5068 338.563 52.5914 338.535 52.6702C337.3 56.0443 335.083 58.971 332.169 61.0728V61.0728Z" fill="#FF7341"/>
</g>
<g filter="url(#filter0_ddd_320_23242)">
<path d="M369.714 97.3223C369.507 97.1573 369.259 97.0747 368.969 97.0747C362.018 97.0747 269.286 97.0747 269.286 97.0747C261.548 97.0747 255.259 90.8029 255.259 83.0868C255.259 65.4677 255.259 35.3462 255.259 17.7272C255.259 10.0111 261.548 3.7392 269.286 3.7392H382.418C390.156 3.7392 396.445 10.0111 396.445 17.7272V83.0868C396.445 89.4825 392.101 94.9291 386.225 96.5796C385.604 96.7446 385.232 97.3636 385.356 98.0238C385.811 100.169 386.804 104.832 387.507 107.968C387.632 108.463 387.383 109 386.97 109.247C386.556 109.536 385.976 109.495 385.563 109.206C380.887 105.74 371.576 98.7252 369.714 97.3223Z" fill="#757475"/>
</g>
<g filter="url(#filter1_ddd_320_23242)">
<path d="M361.903 98.5464C361.693 98.3779 361.44 98.2936 361.146 98.2936C354.085 98.2936 259.897 98.2936 259.897 98.2936C252.038 98.2936 245.649 91.8902 245.649 84.0122C245.649 66.0236 245.649 35.2701 245.649 17.2814C245.649 9.40346 252.038 3 259.897 3H374.806C382.665 3 389.054 9.40346 389.054 17.2814V84.0122C389.054 90.5421 384.641 96.103 378.672 97.7881C378.042 97.9566 377.664 98.5885 377.79 99.2626C378.252 101.453 379.261 106.214 379.975 109.415C380.101 109.921 379.849 110.469 379.429 110.721C379.009 111.016 378.42 110.974 378 110.679C373.251 107.141 363.794 99.9788 361.903 98.5464Z" fill="#F3F3F7"/>
<g clip-path="url(#clip6_320_23242)">
<path d="M328.82 38.3027H333.058V52.9889H328.82V38.3027Z" fill="#9E9CD2"/>
<path d="M326.409 85.864H308.368C301.286 85.864 295.545 80.124 295.545 73.0433V55.0063C295.545 47.9256 301.286 42.1857 308.368 42.1857H326.408C333.49 42.1857 339.231 47.9256 339.231 55.0063V73.0433C339.232 80.124 333.491 85.864 326.409 85.864Z" fill="url(#paint12_linear_320_23242)"/>
<path d="M323.436 81.6681H307.138C300.798 81.6681 295.659 76.5298 295.659 70.1912V54.1934C295.659 47.8548 300.798 42.7165 307.138 42.7165H323.436C329.776 42.7165 334.915 47.8548 334.915 54.1934V70.1912C334.915 76.5298 329.776 81.6681 323.436 81.6681V81.6681Z" fill="#9E9CD2"/>
<path d="M305.709 54.0378H301.471V41.0405C295.824 34.7303 296.032 25.0009 302.092 18.9413C308.365 12.6681 318.577 12.6669 324.851 18.9413L321.855 21.9369C317.232 17.3155 309.71 17.3155 305.089 21.9369C300.467 26.5589 300.467 34.0784 305.089 38.6998C305.486 39.0969 305.709 39.6356 305.709 40.1979V54.0378H305.709Z" fill="#9E9CD2"/>
<path d="M316.581 72.6517C314.501 72.6517 312.798 70.9496 312.798 68.8693V55.8138C312.798 53.7334 314.501 52.0313 316.581 52.0313C318.662 52.0313 320.365 53.7334 320.365 55.8138V68.8693C320.365 70.9496 318.662 72.6517 316.581 72.6517Z" fill="#23286B"/>
</g>
</g>
</g>
<defs>
<filter id="filter0_ddd_320_23242" x="235.259" y="-10.2608" width="190.187" height="145.705" filterUnits="userSpaceOnUse" color-interpolation-filters="sRGB">
<feFlood flood-opacity="0" result="BackgroundImageFix"/>
<feColorMatrix in="SourceAlpha" type="matrix" values="0 0 0 0 0 0 0 0 0 0 0 0 0 0 0 0 0 0 127 0" result="hardAlpha"/>
<feOffset dx="-4" dy="6"/>
<feGaussianBlur stdDeviation="8"/>
<feComposite in2="hardAlpha" operator="out"/>
<feColorMatrix type="matrix" values="0 0 0 0 0.619608 0 0 0 0 0.611765 0 0 0 0 0.823529 0 0 0 0.05 0"/>
<feBlend mode="normal" in2="BackgroundImageFix" result="effect1_dropShadow_320_23242"/>
<feColorMatrix in="SourceAlpha" type="matrix" values="0 0 0 0 0 0 0 0 0 0 0 0 0 0 0 0 0 0 127 0" result="hardAlpha"/>
<feOffset dx="9" dy="6"/>
<feGaussianBlur stdDeviation="10"/>
<feComposite in2="hardAlpha" operator="out"/>
<feColorMatrix type="matrix" values="0 0 0 0 0.458824 0 0 0 0 0.45098 0 0 0 0 0.713726 0 0 0 0.09 0"/>
<feBlend mode="normal" in2="effect1_dropShadow_320_23242" result="effect2_dropShadow_320_23242"/>
<feColorMatrix in="SourceAlpha" type="matrix" values="0 0 0 0 0 0 0 0 0 0 0 0 0 0 0 0 0 0 127 0" result="hardAlpha"/>
<feOffset dx="-3" dy="8"/>
<feGaussianBlur stdDeviation="6.5"/>
<feComposite in2="hardAlpha" operator="out"/>
<feColorMatrix type="matrix" values="0 0 0 0 0.458824 0 0 0 0 0.45098 0 0 0 0 0.713726 0 0 0 0.1 0"/>
<feBlend mode="normal" in2="effect2_dropShadow_320_23242" result="effect3_dropShadow_320_23242"/>
<feBlend mode="normal" in="SourceGraphic" in2="effect3_dropShadow_320_23242" result="shape"/>
</filter>
<filter id="filter1_ddd_320_23242" x="225.649" y="-11" width="192.404" height="147.923" filterUnits="userSpaceOnUse" color-interpolation-filters="sRGB">
<feFlood flood-opacity="0" result="BackgroundImageFix"/>
<feColorMatrix in="SourceAlpha" type="matrix" values="0 0 0 0 0 0 0 0 0 0 0 0 0 0 0 0 0 0 127 0" result="hardAlpha"/>
<feOffset dx="-4" dy="6"/>
<feGaussianBlur stdDeviation="8"/>
<feComposite in2="hardAlpha" operator="out"/>
<feColorMatrix type="matrix" values="0 0 0 0 0.619608 0 0 0 0 0.611765 0 0 0 0 0.823529 0 0 0 0.05 0"/>
<feBlend mode="normal" in2="BackgroundImageFix" result="effect1_dropShadow_320_23242"/>
<feColorMatrix in="SourceAlpha" type="matrix" values="0 0 0 0 0 0 0 0 0 0 0 0 0 0 0 0 0 0 127 0" result="hardAlpha"/>
<feOffset dx="9" dy="6"/>
<feGaussianBlur stdDeviation="10"/>
<feComposite in2="hardAlpha" operator="out"/>
<feColorMatrix type="matrix" values="0 0 0 0 0.458824 0 0 0 0 0.45098 0 0 0 0 0.713726 0 0 0 0.09 0"/>
<feBlend mode="normal" in2="effect1_dropShadow_320_23242" result="effect2_dropShadow_320_23242"/>
<feColorMatrix in="SourceAlpha" type="matrix" values="0 0 0 0 0 0 0 0 0 0 0 0 0 0 0 0 0 0 127 0" result="hardAlpha"/>
<feOffset dx="-3" dy="8"/>
<feGaussianBlur stdDeviation="6.5"/>
<feComposite in2="hardAlpha" operator="out"/>
<feColorMatrix type="matrix" values="0 0 0 0 0.458824 0 0 0 0 0.45098 0 0 0 0 0.713726 0 0 0 0.1 0"/>
<feBlend mode="normal" in2="effect2_dropShadow_320_23242" result="effect3_dropShadow_320_23242"/>
<feBlend mode="normal" in="SourceGraphic" in2="effect3_dropShadow_320_23242" result="shape"/>
</filter>
<linearGradient id="paint0_linear_320_23242" x1="448.211" y1="162.609" x2="432.473" y2="115.986" gradientUnits="userSpaceOnUse">
<stop stop-color="#FF8658"/>
<stop offset="0.335718" stop-color="#FF9A72"/>
<stop offset="1" stop-color="#FFE76C"/>
</linearGradient>
<linearGradient id="paint1_linear_320_23242" x1="371.41" y1="261.071" x2="247.676" y2="262.22" gradientUnits="userSpaceOnUse">
<stop stop-color="#FF8658"/>
<stop offset="0.446832" stop-color="#FF9A72"/>
<stop offset="1" stop-color="#FFE76C"/>
</linearGradient>
<linearGradient id="paint2_linear_320_23242" x1="286.733" y1="261.4" x2="442.303" y2="160.147" gradientUnits="userSpaceOnUse">
<stop stop-color="#EAE9F7"/>
<stop offset="0.537915" stop-color="#8B89C2"/>
<stop offset="1" stop-color="#686596"/>
</linearGradient>
<linearGradient id="paint3_linear_320_23242" x1="267.764" y1="578.811" x2="522.73" y2="238.919" gradientUnits="userSpaceOnUse">
<stop stop-color="#FF8658"/>
<stop offset="0.341103" stop-color="#FF9A72"/>
<stop offset="1" stop-color="#FFE76C"/>
</linearGradient>
<linearGradient id="paint4_linear_320_23242" x1="237.356" y1="516.073" x2="310.37" y2="391.222" gradientUnits="userSpaceOnUse">
<stop stop-color="#FF8658"/>
<stop offset="0.341103" stop-color="#FF9A72"/>
<stop offset="1" stop-color="#FFE76C"/>
</linearGradient>
<linearGradient id="paint5_linear_320_23242" x1="500.074" y1="317.974" x2="500.107" y2="317.905" gradientUnits="userSpaceOnUse">
<stop stop-color="#FF8658"/>
<stop offset="0.341103" stop-color="#FF9A72"/>
<stop offset="1" stop-color="#FFE76C"/>
</linearGradient>
<linearGradient id="paint6_linear_320_23242" x1="375.841" y1="199.861" x2="496.129" y2="243.348" gradientUnits="userSpaceOnUse">
<stop stop-color="#EAE9F7"/>
<stop offset="0.390937" stop-color="#8B89C2"/>
<stop offset="1" stop-color="#686596"/>
</linearGradient>
<linearGradient id="paint7_linear_320_23242" x1="361.785" y1="231.203" x2="428.088" y2="138.932" gradientUnits="userSpaceOnUse">
<stop stop-color="#FF8658"/>
<stop offset="0.341103" stop-color="#FF9A72"/>
<stop offset="1" stop-color="#FFE76C"/>
</linearGradient>
<linearGradient id="paint8_linear_320_23242" x1="473.319" y1="153.583" x2="411.09" y2="127.009" gradientUnits="userSpaceOnUse">
<stop stop-color="#FF8658"/>
<stop offset="0.187707" stop-color="#FF9A72"/>
<stop offset="1" stop-color="#FFE76C"/>
</linearGradient>
<linearGradient id="paint9_linear_320_23242" x1="413.913" y1="147.347" x2="523.207" y2="212.989" gradientUnits="userSpaceOnUse">
<stop stop-color="#EAE9F7"/>
<stop offset="0.510417" stop-color="#8B89C2"/>
<stop offset="1" stop-color="#686596"/>
</linearGradient>
<linearGradient id="paint10_linear_320_23242" x1="377.81" y1="130.609" x2="514.837" y2="347.718" gradientUnits="userSpaceOnUse">
<stop stop-color="#EAE9F7"/>
<stop offset="0.539123" stop-color="#8B89C2"/>
<stop offset="0.991051" stop-color="#686596"/>
</linearGradient>
<linearGradient id="paint11_linear_320_23242" x1="361.728" y1="379.554" x2="259.285" y2="127.517" gradientUnits="userSpaceOnUse">
<stop stop-color="#FF8658"/>
<stop offset="0.132517" stop-color="#FF9A72"/>
<stop offset="1" stop-color="#FFE76C"/>
</linearGradient>
<linearGradient id="paint12_linear_320_23242" x1="295.545" y1="64.0249" x2="339.232" y2="64.0249" gradientUnits="userSpaceOnUse">
<stop stop-color="#7573B6"/>
<stop offset="1" stop-color="#5F5E9B"/>
</linearGradient>
<clipPath id="clip0_320_23242">
<rect width="696" height="561.051" fill="white" transform="translate(0 3)"/>
</clipPath>
<clipPath id="clip1_320_23242">
<rect width="252.066" height="289.765" fill="white" transform="matrix(-1 0 0 1 620.422 192.974)"/>
</clipPath>
<clipPath id="clip2_320_23242">
<rect width="617.23" height="81.3117" fill="white" transform="translate(54.1973 482.739)"/>
</clipPath>
<clipPath id="clip3_320_23242">
<rect width="167.798" height="92.3997" fill="white" transform="matrix(-1 0 0 1 281.87 191.495)"/>
</clipPath>
<clipPath id="clip4_320_23242">
<rect width="174.451" height="198.844" fill="white" transform="translate(125.16 283.895)"/>
</clipPath>
<clipPath id="clip5_320_23242">
<rect width="59.1357" height="59.1358" fill="white" transform="translate(292.219 17.0448)"/>
</clipPath>
<clipPath id="clip6_320_23242">
<rect width="43.6865" height="71.6282" fill="white" transform="translate(295.545 14.2358)"/>
</clipPath>
</defs>
</svg>
