<svg width="318" height="255" viewBox="0 0 318 255" fill="none" xmlns="http://www.w3.org/2000/svg">
<path d="M211.153 252.036L225.095 252.078C227.851 251.907 230.606 251.72 233.362 251.568C241.474 251.153 249.539 250.09 257.48 248.388C266.897 246.318 275.952 243.28 284.146 238.071C290.396 234.1 295.808 229.249 299.619 222.816C305.008 213.71 305.397 203.956 303.315 193.881C301.824 186.656 299.18 179.816 296.702 172.914C295.066 168.363 293.992 163.715 295.079 158.929C295.892 155.334 296.987 151.809 298.355 148.386C300.907 142.034 303.841 135.834 306.455 129.509C311.676 116.854 312.897 103.834 309.988 90.4091C307.003 76.5957 301.47 63.9862 293.053 52.5874C283.093 39.1034 271.498 27.4223 256.828 19.0319C246.547 13.1444 235.552 9.44763 223.634 8.82343C210.402 8.12843 198.057 11.2629 186.978 18.4473C178.417 23.9973 170.2 30.0778 161.913 36.0378C152.614 42.7301 143.432 49.5725 133.465 55.2948C125.843 59.6736 117.816 62.2542 108.944 61.2594C101.501 60.4347 94.075 59.439 86.6568 58.3951C77.2769 57.0699 67.8962 55.988 58.3891 56.8338C49.7643 57.6102 41.6762 60.006 34.38 64.7548C24.7601 71.013 18.3285 79.8105 14.2107 90.3667C8.47978 105.058 7.75833 120.266 9.92647 135.695C10.8845 142.517 12.2611 149.279 13.2942 156.091C14.238 162.309 13.4612 168.305 10.5592 174C8.84387 177.364 7.21417 180.785 5.76392 184.271C2.22879 192.759 -0.186425 201.509 0.1609 210.819C0.408703 217.565 2.33919 223.772 6.34969 229.266C11.0144 235.653 17.3722 239.817 24.5403 242.866C32.5332 246.262 40.9413 247.996 49.5424 248.851C56.4749 249.571 63.4618 249.606 70.4012 248.957C77.1515 248.311 83.9045 247.66 90.6651 247.146C99.075 246.505 107.49 245.913 115.913 245.459C126.398 244.897 136.905 244.833 147.361 245.821C157.351 246.758 167.283 248.256 177.261 249.324C185.289 250.182 193.344 250.792 201.385 251.458C204.655 251.717 207.907 251.844 211.153 252.036Z" fill="#EAE9F7"/>
<path d="M305.385 225.43H2.79736V255H305.385V225.43Z" fill="#DCDDE2"/>
<path d="M8.01416 231.882V247.294C8.0166 247.642 8.15681 247.975 8.40446 248.221C8.65211 248.467 8.9873 248.607 9.33753 248.609C9.5922 248.601 9.84092 248.531 10.0612 248.403L34.0474 233.012C34.1936 232.92 34.3199 232.8 34.419 232.659C34.5181 232.517 34.5879 232.358 34.6245 232.19C34.661 232.021 34.6635 231.848 34.6319 231.678C34.6003 231.509 34.5351 231.348 34.4402 231.204C34.3182 231.021 34.1523 230.87 33.9575 230.766C33.7626 230.662 33.5448 230.608 33.3236 230.608H9.33753C9.16582 230.603 8.99482 230.632 8.83464 230.694C8.67446 230.755 8.52836 230.848 8.40497 230.967C8.28159 231.086 8.18343 231.228 8.1163 231.385C8.04917 231.542 8.01444 231.711 8.01416 231.882V231.882Z" fill="#EEEFF5"/>
<path d="M35.4999 249.698H73.402C73.576 249.699 73.7483 249.665 73.9091 249.599C74.0699 249.533 74.216 249.437 74.339 249.314C74.462 249.192 74.5595 249.047 74.6258 248.887C74.6921 248.727 74.7259 248.556 74.7254 248.383C74.73 248.228 74.7018 248.074 74.6427 247.931L68.5841 231.451C68.4915 231.198 68.3227 230.979 68.1008 230.825C67.8788 230.67 67.6144 230.588 67.3435 230.588H48.3614C48.1605 230.586 47.9621 230.632 47.7824 230.721C47.6027 230.811 47.4468 230.941 47.3275 231.101L34.4866 247.582C34.3785 247.716 34.2985 247.87 34.2513 248.035C34.2041 248.2 34.1907 248.373 34.2119 248.544C34.2331 248.714 34.2885 248.879 34.3747 249.028C34.461 249.177 34.5764 249.307 34.7141 249.411C34.934 249.595 35.2121 249.697 35.4999 249.698V249.698Z" fill="#EEEFF5"/>
<path d="M72.3472 232.313L74.7872 239.403C74.9026 239.73 75.1426 240 75.4557 240.153C75.7689 240.307 76.1302 240.333 76.4621 240.225C76.5986 240.181 76.7251 240.111 76.8343 240.019L86.1393 232.93C86.3584 232.764 86.5195 232.533 86.5996 232.271C86.6797 232.009 86.6748 231.729 86.5856 231.469C86.4964 231.21 86.3274 230.986 86.1026 230.827C85.8777 230.669 85.6084 230.585 85.3328 230.587H73.6086C73.4346 230.586 73.2623 230.62 73.1015 230.686C72.9407 230.752 72.7946 230.849 72.6716 230.971C72.5486 231.093 72.4511 231.238 72.3848 231.398C72.3185 231.558 72.2847 231.729 72.2852 231.902C72.284 232.042 72.3049 232.18 72.3472 232.313Z" fill="#EEEFF5"/>
<path d="M31.8881 248.192L29.4481 241.102C29.3328 240.775 29.0928 240.505 28.7796 240.351C28.4665 240.198 28.1051 240.172 27.7733 240.28C27.6367 240.324 27.5102 240.393 27.4011 240.486L18.0961 247.575C17.8769 247.741 17.7159 247.972 17.6357 248.234C17.5556 248.496 17.5605 248.776 17.6497 249.035C17.7389 249.294 17.9079 249.519 18.1328 249.677C18.3576 249.836 18.6269 249.92 18.9025 249.918H30.6268C30.8007 249.918 30.973 249.885 31.1339 249.819C31.2947 249.753 31.4408 249.656 31.5638 249.534C31.6867 249.412 31.7842 249.266 31.8505 249.107C31.9168 248.947 31.9507 248.775 31.9501 248.603C31.9513 248.463 31.9304 248.325 31.8881 248.192Z" fill="#EEEFF5"/>
<path d="M76.7929 244.397L78.1783 248.732C78.2679 249.012 78.4443 249.256 78.682 249.429C78.9198 249.603 79.2067 249.697 79.5017 249.698H95.6509C96.0183 249.698 96.3707 249.553 96.6305 249.295C96.8904 249.037 97.0363 248.687 97.0363 248.321C97.0397 248.239 97.0328 248.156 97.0156 248.075L95.3201 238.478C95.2697 238.203 95.1358 237.949 94.9362 237.75C94.7367 237.552 94.4811 237.419 94.2035 237.369L87.1524 236.136C86.969 236.103 86.7807 236.108 86.5993 236.15C86.4178 236.192 86.2471 236.272 86.0978 236.382L77.3098 242.876C77.0745 243.044 76.898 243.281 76.8053 243.554C76.7126 243.826 76.7082 244.121 76.7929 244.397V244.397Z" fill="#EEEFF5"/>
<path d="M92.9838 234.204L96.9126 234.862C97.1086 234.893 97.3089 234.883 97.5011 234.834C97.6932 234.784 97.873 234.696 98.0292 234.574L99.9315 233.033C100.074 232.92 100.191 232.78 100.278 232.62C100.365 232.461 100.418 232.286 100.435 232.106C100.453 231.926 100.434 231.744 100.379 231.572C100.324 231.399 100.236 231.239 100.118 231.101C99.9884 230.941 99.8247 230.812 99.6386 230.723C99.4526 230.634 99.2488 230.588 99.0424 230.588H94.2038C93.8612 230.588 93.5304 230.712 93.2733 230.937L92.2808 231.821C92.1463 231.941 92.0369 232.086 91.9589 232.248C91.8809 232.41 91.8358 232.586 91.8262 232.765C91.8166 232.945 91.8426 233.124 91.9029 233.293C91.9632 233.463 92.0564 233.619 92.1774 233.752C92.3833 233.994 92.6693 234.154 92.9838 234.204V234.204Z" fill="#EEEFF5"/>
<path d="M34.6302 242.6L39.0162 239.638C39.2333 239.489 39.4152 239.295 39.5506 239.068C39.686 238.841 39.7719 238.587 39.8029 238.32L40.1249 235.02C40.1509 234.776 40.1274 234.526 40.0557 234.287C39.9841 234.047 39.8658 233.823 39.7078 233.626C39.5499 233.429 39.3555 233.264 39.1361 233.142C38.9168 233.019 38.677 232.94 38.4309 232.91C38.1526 232.869 37.8712 232.89 37.6075 232.972C37.3439 233.055 37.1045 233.196 36.9072 233.386L32.2901 237.846C31.9633 238.162 31.768 238.591 31.7407 239.054L31.6498 240.856C31.6377 241.1 31.674 241.346 31.7566 241.581C31.8392 241.816 31.9665 242.033 32.1311 242.222C32.2958 242.411 32.4946 242.567 32.7162 242.682C32.9378 242.796 33.1779 242.867 33.4227 242.889C33.8531 242.942 34.2814 242.839 34.6302 242.6V242.6Z" fill="#EEEFF5"/>
<path d="M98.2773 239.876L100.386 248.651C100.458 248.95 100.631 249.217 100.875 249.407C101.119 249.598 101.42 249.7 101.73 249.699H106.197C106.564 249.699 106.917 249.554 107.176 249.295C107.436 249.037 107.582 248.687 107.582 248.322C107.584 248.108 107.534 247.897 107.437 247.705L103.24 239.239C103.138 239.034 102.986 238.857 102.798 238.725C102.611 238.592 102.393 238.508 102.165 238.479L99.7867 238.171C99.606 238.147 99.4223 238.158 99.2462 238.205C99.0701 238.252 98.9051 238.334 98.7609 238.445C98.6166 238.555 98.496 238.694 98.4058 238.851C98.3157 239.009 98.258 239.183 98.2359 239.362C98.2283 239.535 98.2422 239.707 98.2773 239.876V239.876Z" fill="#EEEFF5"/>
<path d="M103.323 235.951L104.356 236.136C104.55 236.174 104.732 236.252 104.893 236.365C105.053 236.479 105.188 236.625 105.287 236.793L107.624 240.698C107.717 240.853 107.84 240.989 107.986 241.097C108.133 241.205 108.299 241.284 108.476 241.328C108.653 241.371 108.836 241.38 109.017 241.353C109.197 241.326 109.37 241.264 109.526 241.17C109.652 241.086 109.77 240.99 109.877 240.883L116.742 232.848C116.911 232.648 117.019 232.404 117.053 232.145C117.088 231.886 117.047 231.622 116.937 231.385C116.826 231.148 116.65 230.947 116.429 230.806C116.208 230.665 115.951 230.589 115.688 230.588H106.652C106.319 230.59 105.998 230.706 105.742 230.916L102.682 233.547C102.544 233.664 102.432 233.807 102.35 233.968C102.268 234.128 102.219 234.303 102.206 234.483C102.193 234.662 102.215 234.842 102.272 235.013C102.328 235.184 102.418 235.342 102.537 235.478C102.726 235.732 103.008 235.902 103.323 235.951V235.951Z" fill="#EEEFF5"/>
<path d="M109.753 245.26L111.221 248.835C111.326 249.089 111.503 249.306 111.731 249.46C111.959 249.613 112.228 249.696 112.503 249.698H128.57C128.937 249.698 129.29 249.553 129.55 249.295C129.809 249.037 129.955 248.687 129.955 248.322C129.959 248.114 129.909 247.909 129.811 247.726L122.76 233.444C122.6 233.118 122.317 232.867 121.972 232.748C121.627 232.629 121.248 232.65 120.919 232.807C120.776 232.877 120.644 232.967 120.526 233.074L110.043 243.801C109.854 243.988 109.726 244.226 109.674 244.486C109.623 244.746 109.65 245.015 109.753 245.26V245.26Z" fill="#EEEFF5"/>
<path d="M126.109 232.581L130.1 240.924C130.258 241.252 130.539 241.506 130.884 241.629C131.229 241.752 131.608 241.735 131.94 241.581C132.002 241.56 132.059 241.525 132.106 241.479L144.43 233.321C144.678 233.159 144.867 232.922 144.969 232.645C145.072 232.368 145.082 232.066 144.999 231.783C144.915 231.5 144.743 231.251 144.506 231.073C144.27 230.895 143.982 230.797 143.685 230.793L127.37 230.608C127.004 230.606 126.652 230.747 126.389 231.001C126.126 231.254 125.973 231.6 125.964 231.964C125.978 232.176 126.027 232.385 126.109 232.581V232.581Z" fill="#EEEFF5"/>
<path d="M132.623 245.897L133.946 248.876C134.056 249.118 134.233 249.324 134.456 249.47C134.68 249.615 134.94 249.695 135.207 249.698H152.825C153.192 249.698 153.545 249.553 153.804 249.295C154.064 249.037 154.21 248.687 154.21 248.322V248.178L152.742 233.917C152.705 233.555 152.526 233.222 152.243 232.991C151.96 232.76 151.597 232.649 151.233 232.684C151.01 232.706 150.797 232.784 150.612 232.91L133.14 244.212C132.866 244.386 132.664 244.651 132.569 244.96C132.475 245.268 132.493 245.601 132.623 245.897Z" fill="#EEEFF5"/>
<path d="M156.092 232.129L157.126 240.924C157.145 241.104 157.2 241.278 157.288 241.436C157.376 241.595 157.494 241.734 157.636 241.847C157.779 241.96 157.942 242.043 158.117 242.093C158.292 242.143 158.475 242.157 158.656 242.136C158.685 242.139 158.714 242.132 158.739 242.116L176.976 238.869C177.296 238.813 177.586 238.646 177.794 238.397C178.002 238.149 178.116 237.836 178.114 237.513V231.964C178.114 231.599 177.968 231.249 177.708 230.991C177.448 230.733 177.096 230.588 176.728 230.588H157.477C157.11 230.588 156.757 230.733 156.498 230.991C156.238 231.249 156.092 231.599 156.092 231.964V232.129Z" fill="#EEEFF5"/>
<path d="M157.994 246.328L158.284 248.486C158.328 248.815 158.49 249.117 158.741 249.336C158.992 249.555 159.315 249.677 159.649 249.678H172.324C172.506 249.678 172.686 249.642 172.854 249.573C173.022 249.504 173.175 249.403 173.304 249.275C173.432 249.147 173.534 248.995 173.604 248.828C173.674 248.661 173.709 248.482 173.709 248.301V248.178L173.337 243.821C173.304 243.456 173.126 243.119 172.843 242.884C172.56 242.649 172.195 242.535 171.828 242.568C171.785 242.565 171.743 242.572 171.704 242.588L159.132 244.767C158.783 244.844 158.475 245.046 158.265 245.333C158.056 245.621 157.959 245.975 157.994 246.328V246.328Z" fill="#EEEFF5"/>
<path d="M176.728 241.684L180.843 240.842C181.093 240.791 181.351 240.809 181.591 240.892C181.831 240.975 182.044 241.121 182.208 241.314L187.191 247.438C187.306 247.578 187.391 247.74 187.443 247.913C187.494 248.086 187.511 248.267 187.492 248.447C187.472 248.626 187.418 248.8 187.331 248.958C187.244 249.117 187.126 249.257 186.985 249.37C186.74 249.57 186.433 249.679 186.116 249.678H177.762C177.428 249.677 177.106 249.555 176.855 249.336C176.604 249.117 176.442 248.815 176.398 248.486L175.653 243.205C175.602 242.863 175.684 242.514 175.885 242.231C176.085 241.948 176.387 241.752 176.728 241.684V241.684Z" fill="#EEEFF5"/>
<path d="M181.422 236.465L181.65 231.903C181.666 231.549 181.819 231.214 182.077 230.969C182.335 230.724 182.678 230.588 183.035 230.588H198.605C198.93 230.589 199.243 230.702 199.492 230.909C199.741 231.115 199.91 231.401 199.97 231.718L202.927 248.075C202.99 248.434 202.908 248.804 202.699 249.104C202.49 249.404 202.171 249.61 201.81 249.678C201.729 249.695 201.645 249.702 201.562 249.698H193.084C192.885 249.699 192.687 249.657 192.506 249.575C192.324 249.494 192.161 249.375 192.03 249.226L181.774 237.451C181.54 237.175 181.415 236.825 181.422 236.465V236.465Z" fill="#EEEFF5"/>
<path d="M203.899 232.19L205.326 240.328C205.356 240.505 205.421 240.675 205.517 240.827C205.614 240.979 205.74 241.11 205.888 241.214C206.036 241.317 206.204 241.39 206.38 241.428C206.557 241.467 206.74 241.47 206.918 241.438C207.092 241.401 207.259 241.339 207.414 241.253L220.379 233.115C220.532 233.019 220.665 232.895 220.77 232.748C220.875 232.601 220.95 232.435 220.99 232.259C221.031 232.084 221.036 231.902 221.005 231.724C220.975 231.547 220.91 231.377 220.813 231.225C220.686 231.029 220.511 230.869 220.305 230.758C220.099 230.646 219.869 230.588 219.635 230.588H205.243C204.875 230.588 204.523 230.733 204.263 230.991C204.003 231.249 203.857 231.599 203.857 231.964C203.878 232.047 203.878 232.129 203.899 232.19Z" fill="#EEEFF5"/>
<path d="M206.442 245.527L206.835 248.506C206.879 248.835 207.041 249.138 207.292 249.357C207.543 249.576 207.866 249.697 208.2 249.698H230.283C230.651 249.698 231.003 249.553 231.263 249.295C231.523 249.037 231.669 248.687 231.669 248.321C231.674 248.067 231.602 247.816 231.462 247.602L223.977 235.581C223.783 235.273 223.475 235.052 223.119 234.968C222.763 234.883 222.388 234.941 222.074 235.129L207.083 244.171C206.853 244.308 206.67 244.511 206.555 244.752C206.441 244.993 206.402 245.263 206.442 245.527V245.527Z" fill="#EEEFF5"/>
<path d="M226.934 232.375L229.311 230.814C229.54 230.668 229.805 230.59 230.077 230.588H241.036C241.403 230.588 241.756 230.733 242.015 230.991C242.275 231.249 242.421 231.599 242.421 231.964C242.422 232.165 242.378 232.363 242.292 232.544C242.206 232.725 242.081 232.885 241.925 233.012L232.703 240.718C232.564 240.835 232.404 240.922 232.231 240.977C232.059 241.032 231.877 241.052 231.696 241.037C231.516 241.021 231.34 240.971 231.179 240.888C231.018 240.805 230.876 240.692 230.759 240.554C230.718 240.513 230.697 240.472 230.655 240.431L226.541 234.286C226.34 233.981 226.269 233.609 226.342 233.251C226.416 232.893 226.628 232.579 226.934 232.375V232.375Z" fill="#EEEFF5"/>
<path d="M233.468 244.582L236.425 249.082C236.549 249.274 236.721 249.431 236.923 249.539C237.126 249.647 237.353 249.702 237.583 249.698H249.638C250.005 249.698 250.358 249.553 250.617 249.295C250.877 249.037 251.023 248.687 251.023 248.321C251.021 248.052 250.942 247.788 250.796 247.561L243.703 236.896C243.5 236.592 243.183 236.38 242.823 236.307C242.463 236.234 242.088 236.305 241.78 236.506C241.739 236.526 241.718 236.547 241.677 236.567L233.757 242.753C233.488 242.966 233.309 243.273 233.255 243.611C233.201 243.95 233.277 244.296 233.468 244.582V244.582Z" fill="#EEEFF5"/>
<path d="M248.996 230.896L246.288 233.136C246.021 233.352 245.846 233.66 245.796 233.998C245.746 234.337 245.826 234.681 246.019 234.965L250.775 241.951C250.875 242.102 251.005 242.232 251.157 242.332C251.309 242.433 251.479 242.503 251.658 242.537C251.837 242.571 252.021 242.57 252.2 242.533C252.378 242.496 252.548 242.424 252.698 242.321C252.922 242.171 253.095 241.956 253.194 241.705L257.061 232.478C257.199 232.14 257.198 231.761 257.059 231.423C256.92 231.086 256.653 230.815 256.316 230.67C256.145 230.604 255.963 230.569 255.779 230.567H249.865C249.548 230.583 249.244 230.698 248.996 230.896V230.896Z" fill="#EEEFF5"/>
<path d="M254.311 247.397L255.117 248.938C255.241 249.163 255.423 249.351 255.645 249.481C255.867 249.612 256.121 249.68 256.379 249.678L266.635 249.473C266.817 249.467 266.996 249.426 267.162 249.352C267.328 249.278 267.478 249.172 267.602 249.04C267.727 248.909 267.825 248.754 267.889 248.585C267.954 248.416 267.984 248.236 267.979 248.055C267.977 247.873 267.938 247.693 267.863 247.527C267.788 247.361 267.68 247.212 267.545 247.089L259.439 239.65C259.166 239.405 258.807 239.276 258.44 239.291C258.072 239.306 257.725 239.465 257.475 239.732C257.38 239.828 257.303 239.939 257.247 240.061L254.311 246.164C254.209 246.354 254.156 246.566 254.156 246.781C254.156 246.996 254.209 247.207 254.311 247.397V247.397Z" fill="#EEEFF5"/>
<path d="M260.886 231.451L259.253 235.561C259.151 235.825 259.133 236.113 259.199 236.388C259.266 236.663 259.414 236.912 259.625 237.102L264.898 241.705C265.117 241.894 265.389 242.012 265.678 242.041C265.967 242.07 266.257 242.01 266.511 241.869L281.709 233.156C281.973 233.006 282.18 232.773 282.297 232.494C282.415 232.214 282.436 231.905 282.359 231.612C282.281 231.319 282.108 231.06 281.867 230.875C281.626 230.69 281.331 230.589 281.026 230.588H262.189C261.91 230.587 261.637 230.668 261.405 230.822C261.173 230.976 260.992 231.194 260.886 231.451V231.451Z" fill="#EEEFF5"/>
<path d="M291.282 231.944L298.954 247.684C299.112 248.012 299.133 248.388 299.013 248.73C298.893 249.073 298.641 249.355 298.313 249.513C298.121 249.612 297.908 249.661 297.692 249.657L274.099 249.246C273.76 249.238 273.436 249.107 273.189 248.876L269.261 245.28C268.991 245.031 268.831 244.686 268.816 244.321C268.8 243.956 268.93 243.599 269.178 243.328C269.266 243.229 269.371 243.146 269.488 243.081L289.339 231.327C289.655 231.143 290.031 231.089 290.387 231.177C290.743 231.266 291.049 231.489 291.241 231.8C291.262 231.846 291.276 231.894 291.282 231.944V231.944Z" fill="#EEEFF5"/>
<path d="M295.914 230.588H298.54C298.908 230.588 299.26 230.733 299.52 230.991C299.78 231.249 299.926 231.599 299.926 231.964V237.472C299.926 237.837 299.78 238.187 299.52 238.445C299.26 238.703 298.908 238.848 298.54 238.848C298.278 238.849 298.02 238.776 297.797 238.638C297.574 238.499 297.395 238.302 297.279 238.068L294.653 232.56C294.574 232.397 294.529 232.22 294.519 232.04C294.51 231.859 294.537 231.678 294.599 231.508C294.66 231.338 294.755 231.182 294.878 231.048C295.001 230.915 295.149 230.807 295.315 230.732C295.5 230.636 295.706 230.586 295.914 230.588V230.588Z" fill="#EEEFF5"/>
<path d="M251.256 48.6432C252.356 47.7982 257.311 44.1659 263.466 45.2632C264.566 45.465 267.612 46.0073 269.912 48.4162C272.086 50.699 271.492 52.4269 272.743 54.2808C276.409 59.7167 287.152 53.3728 293.877 58.569C299.425 62.8445 295.684 69.7685 302.13 74.4728C306.326 77.5376 310.283 76.2385 312.419 79.7699C314.138 82.6202 313.367 86.4796 312.419 88.4597C306.781 100.214 268.168 101.337 259.978 86.8831C256.767 81.2203 260.129 76.0241 256.135 61.5076C254.897 57.0807 253.266 52.78 251.256 48.6432Z" fill="#333133"/>
<path d="M236.228 93.9838C234.295 92.319 234.004 87.7534 238.946 76.3899C243.281 74.4728 247.617 72.5558 251.939 70.6388C252.028 69.7307 252.129 68.8226 252.217 67.9145C252.369 66.4263 252.521 64.9381 252.685 63.4372C252.887 61.4698 253.089 59.5149 253.292 57.5474C255.744 57.4717 258.196 57.396 260.635 57.3204C260.901 61.3436 261.166 65.3669 261.431 69.3902C265.034 69.7181 269.053 70.5631 269.799 72.8837C272.099 80.0852 242.447 99.3817 236.228 93.9838Z" fill="url(#paint0_linear_674_31298)"/>
<path d="M256.793 61.394C255.263 63.5633 253.747 65.7452 252.217 67.9145C252.369 66.4263 252.521 64.938 252.685 63.4372C254.05 62.7561 255.428 62.0751 256.793 61.394Z" fill="#FF9A72"/>
<path d="M275.474 130.193C267.094 112.41 232.904 113.078 210.709 113.507C198.171 113.747 191.902 113.873 186.631 116.774C174.434 123.521 172.336 136.121 157.813 166.39C154.919 172.444 152.214 177.741 149.939 182.079C148.397 185.018 147.045 187.515 145.958 189.508C151.62 184.917 156.259 182.016 159.633 180.15C161.618 179.052 164.575 177.526 165.283 174.626C165.801 172.519 164.158 171.321 163.931 169.77C162.819 162.341 183.219 157.461 191.738 142.704C194.164 138.505 195.138 134.431 195.58 131.429C200.054 137.243 208.927 147.144 223.273 153.538C224.764 154.207 259.321 169.202 272.44 153.879C277.509 147.938 279.063 137.811 275.474 130.193Z" fill="url(#paint1_linear_674_31298)"/>
<path d="M163.918 169.782C164.335 170.06 167.331 172.141 167.078 174.638C166.863 176.807 164.272 178.397 162.111 179.708C160.998 180.377 160.922 180.263 159.848 180.944C157.497 182.432 156.17 184.085 155.551 184.778C152.328 188.385 146.969 190.58 145.995 189.508C145.502 188.978 145.894 187.225 150.179 181.613C149.37 183.202 149.117 184.11 149.383 184.324C150.166 184.917 154.603 180.087 163.918 169.782Z" fill="#333133"/>
<path d="M265.982 158.495C258.651 161.887 248.071 165.305 236.367 163.123C233.764 162.631 231.198 161.9 228.72 160.941C215.348 155.846 206.26 145.87 203.808 148.128C203.201 148.682 203.442 149.578 203.96 150.89C204.592 152.466 205.628 154.635 206.071 157.498C208.851 175.471 183.307 192.219 188.085 200.089C189.121 201.805 190.524 202.624 190.853 204.92C191.245 207.644 189.842 207.203 186.871 211.592C182.827 217.57 182.435 223.094 181.55 222.917C180.337 222.678 180.893 215.035 181.891 202.612C182.877 190.378 183.358 184.261 184.04 176.782C184.887 167.399 185.392 159.693 185.86 153.324C186.315 147.169 186.732 142.276 187.402 138.353C188.565 131.48 190.486 127.557 194.67 125.022C194.897 124.858 195.137 124.719 195.403 124.619C201.672 122.184 211.316 141.922 224.474 151.407C231.88 156.742 244.292 161.635 265.982 158.495Z" fill="url(#paint2_linear_674_31298)"/>
<path d="M188.413 133.586C188.527 132.211 188.893 130.874 189.475 129.626C191.055 126.321 193.81 124.757 194.884 124.215C196.515 123.597 198.259 123.357 199.991 123.534C210.798 124.719 215.55 145.706 230.325 155.859C235.002 159.075 242.598 162.518 254.859 162.253C255.213 162.24 237.163 165.267 224.865 155.052C216.763 148.317 208.447 133.888 201.343 129.462C200.332 128.831 197.627 127.154 194.531 127.746C193.229 128.011 192.015 128.604 191.004 129.462C189.766 130.559 188.855 131.984 188.413 133.586Z" fill="#FF9A72"/>
<path d="M190.676 79.9969C183.332 69.7055 175.976 62.8823 171.236 60.1581C170.023 59.4644 168.835 58.796 168.835 58.796C167.748 58.2537 165.624 57.2195 163.324 56.879C160.341 56.4501 160.076 57.6483 157.219 57.4465C153.149 57.1438 151.215 54.5205 150.444 55.1889C149.597 55.933 150.798 60.0698 153.832 62.5166C157.952 65.8462 162.389 63.6012 167.053 64.8876C171.072 65.9975 176.128 69.9577 180.046 83.0491L190.676 79.9969Z" fill="url(#paint3_linear_674_31298)"/>
<path d="M241.878 73.5774C241.221 76.8439 236.595 77.1592 233.271 79.3285C233.132 79.4168 232.993 79.5177 232.854 79.6186C232.297 80.0221 231.805 80.4888 231.375 81.0185C228.948 84.0706 228.43 90.1371 234.99 103.014C233.738 103.632 232.462 104.2 231.185 104.704C228.784 105.65 226.319 106.394 223.804 106.936C212.769 109.295 201.621 107.416 193.052 101.21C184.836 95.2576 181.411 87.0723 180.059 83.0491L185.481 73.2368C189.677 77.6385 192.673 78.3069 194.632 78.0925C195.858 77.9538 197.046 77.424 198.133 78.0925C199.991 79.2276 199.068 82.2671 200.395 82.9482C201.862 83.7049 203.846 80.4383 207.739 78.206C213.68 74.8133 216.625 78.0925 221.756 74.826C225.763 72.2783 224.853 69.7181 229.1 67.7253C229.909 67.347 235.103 64.9002 238.933 67.7253C240.488 68.8478 242.346 71.2441 241.878 73.5774Z" fill="url(#paint4_linear_674_31298)"/>
<path d="M238.491 87.6777C239.59 87.0723 240.488 86.1769 241.094 85.0796C241.297 84.6886 242.472 82.5193 241.549 80.2239C241.271 79.5429 240.842 78.9249 240.311 78.4204C240.437 78.4582 242.257 78.9753 242.687 80.5645C242.801 81.0059 242.801 81.4725 242.687 81.914C244.002 80.6401 245.645 79.7447 247.439 79.3159C248.4 79.0889 249.399 79.0132 250.372 79.0889C249.715 79.2024 243.976 80.3122 242.118 84.9535C241.739 85.9246 241.537 86.9588 241.549 87.993L238.491 87.6777Z" fill="#FF9A72"/>
<path d="M255.188 47.1045C252.179 47.2559 250.321 49.4756 249.222 50.7873C246.947 53.5115 246.504 56.5636 246.391 58.014L248.426 58.1275C248.489 58.9473 248.843 62.0247 250.916 63.0841C253.772 64.5471 257.88 61.1418 259.738 58.3419C260.345 57.4213 263.113 53.2593 261.052 49.917C259.788 47.8613 257.235 47.0037 255.188 47.1045Z" fill="url(#paint5_linear_674_31298)"/>
<path d="M262.177 51.5314C261.848 50.2071 261.368 48.2396 259.851 47.1802C257.753 45.7172 254.214 46.3352 251.143 48.7189C251.193 49.7152 251.56 51.0647 253.645 51.0395C254.934 50.9891 256.186 50.5981 257.26 49.8792C256.931 50.7873 256.666 51.7206 256.451 52.6665C256.186 53.9403 256.805 55.315 257.816 55.1258C257.816 55.1258 258.056 53.7007 258.966 52.9818C259.649 52.4395 260.711 52.8557 260.913 53.8268C261.027 54.3565 260.799 54.8736 260.635 55.1637C260.433 55.5294 260.167 55.8321 259.839 56.0844C258.385 57.2068 260.053 69.5919 261.418 69.3901C262 69.3018 262.455 66.956 262.013 57.3456H262.076C262.607 55.4538 262.644 53.4484 262.177 51.5314Z" fill="#333133"/>
<path d="M254.202 56.9041C254.328 56.9167 254.442 56.8285 254.454 56.7023C254.467 56.6393 254.442 56.5762 254.404 56.5258C254.379 56.4879 251.623 53.4106 248.109 55.3402C247.996 55.4033 247.958 55.542 248.008 55.6555C248.071 55.769 248.211 55.8069 248.324 55.7564C248.324 55.7564 248.324 55.7564 248.337 55.7564C251.522 54.0034 254.037 56.8158 254.063 56.8411C254.088 56.8663 254.151 56.9041 254.202 56.9041Z" fill="#333133"/>
<path d="M249.55 51.9476L248.944 53.2845C248.893 53.4106 248.956 53.5619 249.083 53.625L249.159 53.6502C250.157 53.7259 252.938 54.0034 254.631 55.0376C254.707 55.088 254.796 55.0628 254.846 54.9997C254.897 54.9367 254.884 54.861 254.834 54.8105C254.834 54.8105 254.834 54.8105 254.821 54.7979C253.544 53.2466 251.762 52.1998 249.778 51.8341C249.689 51.8215 249.601 51.8593 249.55 51.9476Z" fill="#333133"/>
<path d="M221.756 113.381C223.943 119.17 227.039 129.903 225.143 143.045C224.398 148.216 223.121 152.542 221.023 157.322C224.006 159.352 235.47 166.352 250.574 164.927C264.01 163.653 279.683 153.425 280.416 137.067C281.111 123.799 270.077 114.378 268.32 112.927C270.013 110.783 275.107 103.796 275.107 93.6432C275.094 80.7158 266.803 72.5432 265.274 71.0928C249.436 83.2004 240.361 88.1696 238.036 85.9751C236.746 84.7643 237.53 81.3338 240.412 75.7088C229.946 79.3411 223.791 87.5894 224.701 93.9837C224.929 95.6107 226.079 100.34 229.782 103.455C231.122 104.591 232.082 104.868 233.738 106.381C235.735 108.235 237.353 110.455 238.491 112.927L221.756 113.381Z" fill="url(#paint6_linear_674_31298)"/>
<path d="M270.468 112.032C270.291 112.095 270.026 112.196 269.71 112.322C269.179 112.536 265.918 113.886 262.998 116.547C261.671 117.745 257.601 121.44 256.439 127.595C255.794 131 256.464 133.561 257.235 136.726C258.056 140.119 259.131 141.91 260.622 143.158C261.115 143.575 262.265 144.52 262.885 144.167C263.795 143.65 262.265 141.04 262.202 136.613C262.164 133.346 262.961 132.728 262.998 128.15C263.024 125.085 262.67 125.11 262.885 124.316C264.427 118.476 284.713 120.04 285.042 117.657C285.181 116.698 282.033 115.046 270.468 112.032Z" fill="url(#paint7_linear_674_31298)"/>
<path d="M264.705 71.6604C270.418 66.6029 274.627 66.0227 277.37 66.3633C285.194 67.3344 286.508 76.5412 298.503 80.9176C302.181 82.2545 303.647 81.9771 307.098 83.9572C309.019 85.067 314.454 88.2074 316.818 94.6774C317.133 95.5477 319.168 101.324 317.045 106.861C312.368 119.031 291.109 120.898 278.394 118.249C275.449 117.631 267.701 116.017 266.411 111.376C265.666 108.689 267.372 106.117 267.991 105.057C270.772 100.277 272.011 91.1082 264.705 71.6604Z" fill="url(#paint8_linear_674_31298)"/>
<path d="M232.272 79.9969C226.862 83.9319 224.196 90.238 225.485 96.0143C226.584 100.895 230.149 103.708 231.362 104.591C228.91 105.663 226.319 106.369 223.791 106.936C223.235 105.726 219.607 97.5404 223.677 89.0272C226.23 83.6797 230.503 80.9933 232.272 79.9969Z" fill="url(#paint9_linear_674_31298)"/>
<path d="M264.149 86.6561C265.413 86.3661 265.918 90.5028 269.116 92.7478C274.083 96.2413 281.996 92.6343 282.792 94.7783C283.133 95.699 281.781 96.6197 282.223 97.4899C282.969 98.9656 288.214 96.1657 289.794 97.944C290.59 98.8394 290.11 100.441 290.022 100.769C288.669 105.347 281.187 105.347 270.355 111.59C269.053 112.347 268.029 113.003 267.422 113.394C269.154 111.754 270.961 110.216 272.845 108.765C278.899 104.124 282.312 103.102 282.109 101.551C281.882 99.7601 277.572 99.8989 269.672 95.7999C265.084 93.4036 263.378 91.7136 263.125 89.7083C262.961 88.3966 263.403 86.8327 264.149 86.6561Z" fill="#7471A5"/>
<path d="M238.491 112.94C242.321 112.877 247.541 113.394 252.849 116.093C256.085 117.745 258.095 119.574 258.272 119.359C258.55 119.019 254.353 113.747 247.642 110.556C243.761 108.715 239.502 107.794 235.205 107.844L238.491 112.94Z" fill="url(#paint10_linear_674_31298)"/>
<path d="M250.675 58.796L252.938 59.414C252.938 59.414 252.066 60.4482 251.257 60.1076C250.435 59.7797 250.675 58.796 250.675 58.796Z" fill="#F05659"/>
<path d="M187.996 199.888C189.778 201.237 191.927 203.305 191.839 205.752C191.75 208.237 189.488 208.363 187.314 212.298C185.026 216.435 185.759 219.159 182.852 222.161C182.245 222.779 181.79 223.018 181.436 222.892C180.16 222.438 180.589 218.49 181.019 215.123C181.007 216.548 181.158 217.305 181.474 217.381C182.41 217.608 184.179 211.693 187.996 199.888Z" fill="#333133"/>
<path d="M146.63 146.42H107.873L98.8776 112.03H137.635L146.63 146.42Z" fill="#7573B6"/>
<path d="M167.134 149.426H108.666L107.873 146.419H167.134V149.426Z" fill="#5F5E9B"/>
<path d="M116.659 129.319C116.159 126.583 117.298 124.089 119.203 123.748C121.108 123.408 123.058 125.35 123.558 128.086C124.058 130.822 122.919 133.316 121.014 133.656C119.109 133.997 117.159 132.055 116.659 129.319Z" fill="#CAC9EA"/>
<path d="M271.38 167.529L271.962 172.596L278.149 226.397H279.862L275.323 172.596L274.773 166.084V166.08L274.764 166.084L271.38 167.529Z" fill="#AFADCB"/>
<path d="M244.625 167.529L245.208 172.596L251.394 226.397H253.108L248.568 172.596L248.018 166.084V166.08L248.009 166.084L244.625 167.529Z" fill="#AFADCB"/>
<path d="M231.198 226.397H232.912L239.098 172.596L239.68 167.529L236.297 166.084L236.287 166.08V166.084L235.737 172.596L231.198 226.397Z" fill="#AFADCB"/>
<path d="M258.053 226.397H259.766L265.953 172.596L266.535 167.529L263.151 166.084L263.142 166.08V166.084L262.592 172.596L258.053 226.397Z" fill="#AFADCB"/>
<path d="M274.764 166.084L271.38 167.529L271.962 172.596H275.323L274.773 166.084H274.764Z" fill="#333133"/>
<path d="M263.142 166.084L262.592 172.596H265.953L266.535 167.529L263.151 166.084H263.142Z" fill="#333133"/>
<path d="M248.009 166.084L244.625 167.529L245.208 172.596H248.568L248.018 166.084H248.009Z" fill="#333133"/>
<path d="M235.738 172.596H239.099L239.681 167.529L236.297 166.084H236.288L235.738 172.596Z" fill="#333133"/>
<path d="M228.869 169.691H282.778V165.082H228.869V169.691Z" fill="#545254"/>
<path d="M160.076 58.1076H73.3256C69.2671 58.1076 66.322 54.8353 66.7468 50.8002L71.2994 7.57924C71.7242 3.54422 75.3578 0.271851 79.4162 0.271851H166.166C170.225 0.271851 173.17 3.54422 172.745 7.57924L168.192 50.8002C167.768 54.8353 164.132 58.1076 160.076 58.1076Z" fill="#7ED9AF"/>
<path d="M160.076 58.1076H91.7949L109.02 55.1484C131.566 51.2767 153.117 40.8768 170.879 25.2941L168.192 50.7957C167.768 54.8353 164.133 58.1076 160.076 58.1076Z" fill="#66BA93"/>
<path d="M93.5772 41.1899H75.1621L75.8204 34.9448H94.2355L93.5772 41.1899Z" fill="#4F9977"/>
<path d="M162.879 41.1899H144.464L145.122 34.9448H163.536L162.879 41.1899Z" fill="#4F9977"/>
<path d="M139.779 41.1899H121.364L122.021 34.9448H140.436L139.779 41.1899Z" fill="#4F9977"/>
<path d="M116.677 41.1899H98.2637L98.9205 34.9448H117.336L116.677 41.1899Z" fill="#4F9977"/>
<path d="M162.177 47.8545H120.662L120.907 45.5246H162.422L162.177 47.8545Z" fill="#4F9977"/>
<path d="M161.725 52.1427H133.751L133.997 49.8113H161.971L161.725 52.1427Z" fill="#3A765A"/>
<path d="M89.5381 29.2137H79.1434C78.7967 29.2201 78.4527 29.152 78.1348 29.014C77.817 28.8761 77.5328 28.6716 77.3017 28.4144C77.0706 28.1572 76.898 27.8535 76.7957 27.5239C76.6934 27.1943 76.6638 26.8467 76.709 26.5047L77.3809 20.1308C77.4707 19.394 77.825 18.7143 78.3786 18.2165C78.9321 17.7188 79.6477 17.4366 80.3938 17.4218H90.7884C91.1349 17.4159 91.4786 17.4843 91.7961 17.6224C92.1136 17.7606 92.3974 17.9652 92.6281 18.2223C92.8589 18.4794 93.0312 18.783 93.1333 19.1123C93.2355 19.4417 93.265 19.7891 93.2199 20.1308L92.548 26.5047C92.4579 27.2409 92.104 27.9201 91.5511 28.4176C90.9982 28.9152 90.2835 29.1979 89.5381 29.2137V29.2137Z" fill="#F9D039"/>
<path d="M77.2832 21.0568H93.1207" stroke="white" stroke-width="1.72767" stroke-miterlimit="10"/>
<path d="M76.8354 25.2985H92.673" stroke="white" stroke-width="1.72767" stroke-miterlimit="10"/>
<path d="M83.0678 28.8391C82.9734 28.841 82.8796 28.8231 82.7926 28.7864C82.7056 28.7497 82.6274 28.6952 82.5631 28.6264C82.5003 28.5545 82.4535 28.4702 82.4257 28.3791C82.3979 28.2879 82.3898 28.1919 82.402 28.0975L83.4053 18.5695C83.4349 18.349 83.5417 18.1459 83.7071 17.996C83.8724 17.846 84.0856 17.7589 84.3091 17.75H86.8596C86.9541 17.7477 87.048 17.7655 87.135 17.8022C87.222 17.8388 87.3002 17.8936 87.3643 17.9627C87.4272 18.0345 87.4741 18.1188 87.5018 18.21C87.5296 18.3012 87.5377 18.3971 87.5255 18.4916L86.5221 28.0196C86.4925 28.2401 86.3857 28.4432 86.2203 28.5931C86.055 28.7431 85.8418 28.8302 85.6183 28.8391H83.0678Z" fill="#F9D039"/>
<path d="M86.8643 18.1245C86.9059 18.1231 86.9472 18.1302 86.9859 18.1454C87.0245 18.1606 87.0595 18.1836 87.0888 18.2129C87.1165 18.2459 87.1367 18.2843 87.1481 18.3256C87.1596 18.367 87.1619 18.4103 87.1551 18.4527L86.1518 27.9791C86.1334 28.109 86.0701 28.2285 85.9728 28.3171C85.8755 28.4057 85.7502 28.4578 85.6185 28.4646H83.068C83.0265 28.466 82.9851 28.4589 82.9465 28.4437C82.9079 28.4285 82.8728 28.4055 82.8436 28.3762C82.8159 28.3432 82.7957 28.3048 82.7842 28.2634C82.7728 28.2221 82.7704 28.1788 82.7773 28.1364L83.7806 18.6085C83.7993 18.4788 83.8627 18.3597 83.96 18.2714C84.0573 18.1831 84.1824 18.1312 84.3139 18.1245H86.8643V18.1245ZM86.8643 17.3754H84.3139C83.9961 17.3821 83.6915 17.5027 83.456 17.7149C83.2205 17.9271 83.0699 18.2168 83.0319 18.5306L82.0286 28.0585C82.009 28.2045 82.0214 28.353 82.0649 28.4938C82.1085 28.6346 82.1822 28.7643 82.281 28.8741C82.3797 28.9838 82.5012 29.071 82.6371 29.1297C82.7729 29.1883 82.92 29.217 83.068 29.2137H85.6185C85.9361 29.2067 86.2406 29.086 86.476 28.8738C86.7115 28.6617 86.8622 28.3722 86.9005 28.0585L87.9038 18.5306C87.9234 18.3846 87.911 18.2361 87.8674 18.0953C87.8239 17.9545 87.7502 17.8248 87.6514 17.715C87.5526 17.6053 87.4311 17.5181 87.2953 17.4594C87.1594 17.4008 87.0124 17.3721 86.8643 17.3754V17.3754Z" fill="white"/>
<path d="M162.407 20.3284C166.511 16.4545 166.995 10.3335 163.487 6.657C159.979 2.98045 153.808 3.14049 149.704 7.01447C145.599 10.8885 145.116 17.0094 148.623 20.6859C152.131 24.3625 158.302 24.2024 162.407 20.3284Z" fill="#7573B6"/>
<path d="M149.712 21.6426C148.021 22.7401 146.048 23.3314 144.029 23.3462C138.658 23.3462 134.761 19.0176 135.324 13.676C135.888 8.33442 140.695 4.00572 146.065 4.00572C147.978 3.98601 149.846 4.58145 151.391 5.70334C148.658 7.44141 146.68 10.3617 146.332 13.67C145.984 16.9783 147.346 19.9001 149.712 21.6426Z" fill="#E53E41"/>
<path opacity="0.6" d="M154.698 14.2662C155.334 9.87528 153.994 6.04975 151.705 5.72164C149.416 5.39352 147.044 8.68707 146.408 13.078C145.772 17.4689 147.112 21.2944 149.401 21.6225C151.69 21.9507 154.062 18.6571 154.698 14.2662Z" fill="#E53E41"/>
<path d="M70.5278 14.9061L71.2991 7.57924C71.724 3.54422 75.3576 0.271851 79.416 0.271851H95.3092C95.3092 0.271851 85.246 1.06447 81.6953 2.67668C77.3265 4.65898 75.1723 6.84355 72.2301 11.6427L70.5278 14.9061Z" fill="#8FE3BC"/>
<path d="M163.538 34.9448H158.441C155.16 37.1883 151.793 39.27 148.339 41.1899H162.879L163.538 34.9448Z" fill="#3A765A"/>
<path d="M162.422 45.5216H139.813C138.04 46.3417 136.251 47.1183 134.446 47.8515H162.177L162.422 45.5216Z" fill="#3A765A"/>
<path d="M104.82 151.411L76.2705 224.965H78.5455L110.843 151.411H104.82Z" fill="#AFADCB"/>
<path d="M155.317 151.411L170.28 224.965H168.358L148.652 151.411H155.317Z" fill="#AFADCB"/>
<path d="M162.622 198.07H88.9268L89.2151 195.128H162.911L162.622 198.07Z" fill="#AFADCB"/>
<path d="M174.894 155.025H84.5052C84.1782 155.035 83.8524 154.98 83.5471 154.862C83.2417 154.745 82.963 154.568 82.7271 154.341C82.4913 154.115 82.3032 153.844 82.1739 153.544C82.0446 153.244 81.9766 152.921 81.974 152.594C81.9687 152.476 81.9795 152.358 82.006 152.243V152.243C82.1017 151.486 82.4635 150.788 83.0268 150.272C83.5901 149.757 84.3184 149.458 85.082 149.428H175.471C175.798 149.418 176.124 149.474 176.429 149.591C176.735 149.708 177.014 149.886 177.249 150.112C177.485 150.338 177.673 150.61 177.803 150.91C177.932 151.21 178 151.532 178.003 151.859C178.008 151.977 177.997 152.095 177.97 152.211V152.211C177.891 152.974 177.534 153.681 176.967 154.2C176.4 154.718 175.663 155.012 174.894 155.025V155.025Z" fill="#545254"/>
<path d="M35.7557 141.614L51.1058 206.08L44.1874 205.661C44.1874 205.661 42.9767 204.672 44.7495 200.534C46.5224 196.395 46.4683 194.191 42.4146 193.17C38.3609 192.149 35.3773 190.644 36.5556 185.376C37.7339 180.109 37.5934 179.356 31.9289 177.207C26.2645 175.057 24.6971 168.381 28.0158 158.233C30.5128 150.568 35.7557 141.614 35.7557 141.614Z" fill="#66BA93"/>
<path d="M36.4584 179.625C36.5109 179.675 36.5547 179.733 36.5882 179.797C36.6206 179.84 36.653 179.883 36.6746 179.916L36.7395 180.012C36.7827 180.088 36.8152 180.152 36.8476 180.217C36.8666 180.25 36.8811 180.286 36.8908 180.324C36.9233 180.399 36.9449 180.475 36.9773 180.55C37.0287 180.707 37.0649 180.869 37.0854 181.033L37.1178 181.291C37.1286 181.528 37.1286 181.775 37.1178 182.012C37.12 182.062 37.1164 182.113 37.107 182.162C37.0962 182.323 37.0746 182.485 37.053 182.657C37.0422 182.71 37.0422 182.775 37.0314 182.829C37.0097 183.001 36.9773 183.194 36.9449 183.388L36.9124 183.581C36.8152 184.108 36.6854 184.699 36.5341 185.355C35.3558 190.622 38.3394 192.127 42.3931 193.149C43.6038 193.45 44.447 193.858 45.0091 194.396L44.9875 194.374C43.1174 192.375 40.2095 191.848 39.0852 188.569C38.1556 185.871 39.6149 181.926 39.5285 178.97C39.3987 174.53 35.9396 171.273 32.5993 168.596C31.3237 167.575 30.0049 166.532 29.3023 165.049C28.5347 163.415 28.6104 161.469 28.7293 159.588C28.8266 158.061 28.9455 156.524 29.1617 154.987C29.0536 155.245 28.9563 155.513 28.859 155.771L28.8482 155.814C28.7509 156.062 28.6537 156.32 28.5672 156.567L28.5456 156.631C28.4591 156.879 28.3618 157.126 28.2861 157.373L28.2645 157.427L28.0051 158.201C27.7456 158.996 27.5186 159.76 27.3132 160.512C27.2376 160.813 27.1619 161.103 27.0862 161.404C27.043 161.576 26.9997 161.748 26.9673 161.92C26.9133 162.157 26.8592 162.393 26.816 162.63C26.5641 163.839 26.3979 165.064 26.3187 166.295C26.2971 166.672 26.2863 167.037 26.2755 167.392C26.2663 168.183 26.3169 168.973 26.4268 169.757C26.4376 169.864 26.4592 169.972 26.4701 170.069C26.5241 170.38 26.5782 170.681 26.6538 170.982C26.674 171.08 26.6992 171.177 26.7295 171.273C26.8271 171.648 26.9462 172.018 27.0862 172.38C27.1186 172.466 27.1619 172.552 27.1943 172.638C27.3346 172.978 27.4971 173.308 27.6808 173.627C27.7656 173.783 27.8595 173.933 27.9618 174.078C28.0591 174.218 28.1672 174.369 28.2753 174.508C28.7564 175.137 29.3326 175.689 29.9833 176.142C30.0589 176.196 30.1238 176.239 30.1995 176.293C30.5006 176.493 30.8148 176.672 31.1399 176.83C31.3886 176.949 31.648 177.067 31.9074 177.164C32.2642 177.303 32.5993 177.432 32.902 177.551C33.2911 177.701 33.6478 177.852 33.983 178.002L34.1775 178.088C34.6062 178.279 35.0215 178.498 35.4207 178.744L35.518 178.808C35.8625 179.043 36.1781 179.317 36.4584 179.625V179.625Z" fill="#4F9977"/>
<path d="M35.4315 142.452L35.2153 142.571L35.1504 142.678C35.2369 142.603 35.3342 142.528 35.4315 142.452Z" fill="#4F9977"/>
<path d="M68.3584 115.943L53.3326 206.328L51.1165 206.081C51.1165 206.081 44.5549 195.126 46.7061 188.827C49.6464 178.991 45.344 175.067 46.7385 167.747C48.0357 160.931 52.9218 157.868 50.1328 150.128C47.3438 142.388 44.0144 125.779 68.3584 115.943Z" fill="#66BA93"/>
<path d="M51.1058 206.081L52.1868 206.199C49.8627 201.469 47.8844 194.514 49.2681 189.687C52.3381 178.969 47.2466 173.218 49.6356 164.661C52.0355 156.105 56.3162 154.675 51.9057 146.806C49.3978 142.334 49.16 136.744 49.4194 132.745C47.0521 139.475 48.6736 146.032 50.1437 150.117C52.9327 157.857 48.0466 160.921 46.7386 167.736C45.3441 175.046 49.6465 178.98 46.7062 188.816C44.555 195.126 51.1058 206.081 51.1058 206.081Z" fill="#4F9977"/>
<path d="M55.3002 209.66L70.2827 168.499C70.2827 168.499 60.8997 167.951 55.6569 176.261C50.4141 184.57 57.4405 187.15 54.2516 190.096C51.0627 193.041 48.598 195.438 54.2408 209.424L55.3002 209.66Z" fill="#66BA93"/>
<path d="M54.468 204.189C53.4951 202.168 52.5114 199.878 53.3221 197.62C54.1221 195.363 56.4354 193.912 57.7866 191.891C59.2676 189.687 59.4622 186.785 58.2731 184.667C57.7326 183.699 56.9326 182.904 56.3813 181.936C55.6463 180.657 55.5382 179.217 55.6895 177.701C55.776 176.873 56.1759 176.218 55.8084 176.024C55.7517 176.099 55.7011 176.178 55.6571 176.261C50.4142 184.57 57.4407 187.15 54.2518 190.096C51.1709 192.944 48.7495 195.288 53.7437 208.187C54.4247 208.23 55.1166 208.241 55.8084 208.241L56.0678 207.543L54.468 204.189Z" fill="#4F9977"/>
<path d="M63.8616 225.527L60.3592 204.672H39.6798L31.9507 225.527" fill="#DCDDE2"/>
<path d="M37.5611 210.38C37.5611 210.38 34.9451 218.067 37.3882 221.345C40.7392 225.86 47.3117 225.527 63.8617 225.527H31.9399L37.5611 210.38Z" fill="#AFADCB"/>
<path d="M60.8781 207.381C60.6511 206.478 60.2836 205.565 60.3592 204.651H39.5933C39.5177 204.834 39.4312 205.016 39.3555 205.199C39.3339 205.328 39.3015 205.468 39.269 205.597C39.0204 206.371 38.7718 207.145 38.4907 207.908C38.361 208.252 38.1881 208.585 38.0583 208.929C37.9286 209.305 37.8421 209.682 37.7016 210.058C37.6291 210.261 37.5271 210.453 37.3989 210.628C37.4079 210.677 37.4115 210.728 37.4097 210.778H61.2889C61.1592 209.639 61.1484 208.478 60.8781 207.381Z" fill="#AFADCB"/>
<path d="M26.4807 170.144L26.3726 169.316L38.1446 151.643L39.0418 155.384L26.4807 170.144Z" fill="#7ED9AF"/>
<path d="M48.4033 137.034L48.5222 136.217L66.8559 124.962L66.4451 127.403L48.4033 137.034Z" fill="#7ED9AF"/>
<path d="M48.2845 141.883L48.2412 141.216L65.8074 131.23L65.5155 133.014L48.2845 141.883Z" fill="#7ED9AF"/>
<path d="M50.9332 153.578L50.8467 152.826L63.5916 144.602L63.1484 147.236L50.9332 153.578Z" fill="#7ED9AF"/>
<path d="M46.5335 172.552L46.4795 171.896L60.3702 163.952L60.0459 165.93L46.5335 172.552Z" fill="#7ED9AF"/>
<path d="M36.0154 179.206L35.4209 178.744L41.5393 165.919L42.4798 169.832L36.0154 179.206Z" fill="#7ED9AF"/>
<path d="M37.1396 181.861L37.0747 180.883L43.1931 172.864L43.7444 175.164L37.1396 181.861Z" fill="#7ED9AF"/>
<path d="M54.522 178.368L54.8355 177.658L68.4127 173.605L67.8831 175.067L54.522 178.368Z" fill="#7ED9AF"/>
<path d="M53.668 181.646L53.7328 180.99L67.1588 177.067L66.6507 178.464L53.668 181.646Z" fill="#7ED9AF"/>
<path d="M55.019 188.988C55.0644 188.86 55.0934 188.726 55.1055 188.591C55.1163 188.419 55.1163 188.193 55.1163 188.193L64.0345 185.656L63.3859 187.44L55.019 188.988Z" fill="#7ED9AF"/>
<path d="M51.8087 202.479L51.6357 201.802L58.9108 199.738L58.1649 201.791L51.8087 202.479Z" fill="#7ED9AF"/>
<defs>
<linearGradient id="paint0_linear_674_31298" x1="276.909" y1="80.2845" x2="233.755" y2="67.4643" gradientUnits="userSpaceOnUse">
<stop stop-color="#FF8658"/>
<stop offset="0.300472" stop-color="#FF9A72"/>
<stop offset="1" stop-color="#FFE76C"/>
</linearGradient>
<linearGradient id="paint1_linear_674_31298" x1="188.002" y1="222.265" x2="133.692" y2="156.446" gradientUnits="userSpaceOnUse">
<stop stop-color="#FF8658"/>
<stop offset="0.341103" stop-color="#FF9A72"/>
<stop offset="1" stop-color="#FFE76C"/>
</linearGradient>
<linearGradient id="paint2_linear_674_31298" x1="234.955" y1="191.173" x2="175.921" y2="134.789" gradientUnits="userSpaceOnUse">
<stop stop-color="#FF8658"/>
<stop offset="0.341103" stop-color="#FF9A72"/>
<stop offset="1" stop-color="#FFE76C"/>
</linearGradient>
<linearGradient id="paint3_linear_674_31298" x1="176.916" y1="98.3315" x2="144.955" y2="67.4978" gradientUnits="userSpaceOnUse">
<stop stop-color="#FF8658"/>
<stop offset="0.317651" stop-color="#FF9A72"/>
<stop offset="1" stop-color="#FFE76C"/>
</linearGradient>
<linearGradient id="paint4_linear_674_31298" x1="174.307" y1="56.5852" x2="260.398" y2="103.967" gradientUnits="userSpaceOnUse">
<stop stop-color="#EAE9F7"/>
<stop offset="0.510417" stop-color="#8B89C2"/>
<stop offset="1" stop-color="#686596"/>
</linearGradient>
<linearGradient id="paint5_linear_674_31298" x1="272.127" y1="64.6301" x2="245.556" y2="51.8667" gradientUnits="userSpaceOnUse">
<stop stop-color="#FF8658"/>
<stop offset="0.187182" stop-color="#FF9A72"/>
<stop offset="1" stop-color="#FFE76C"/>
</linearGradient>
<linearGradient id="paint6_linear_674_31298" x1="185.393" y1="110.073" x2="280.609" y2="76.3865" gradientUnits="userSpaceOnUse">
<stop stop-color="#EAE9F7"/>
<stop offset="0.652297" stop-color="#8B89C2"/>
<stop offset="1" stop-color="#686596"/>
</linearGradient>
<linearGradient id="paint7_linear_674_31298" x1="294.299" y1="107.247" x2="253.335" y2="141.28" gradientUnits="userSpaceOnUse">
<stop stop-color="#FF8658"/>
<stop offset="0.341103" stop-color="#FF9A72"/>
<stop offset="1" stop-color="#FFE76C"/>
</linearGradient>
<linearGradient id="paint8_linear_674_31298" x1="327.557" y1="92.8969" x2="259.736" y2="96.1567" gradientUnits="userSpaceOnUse">
<stop stop-color="#EAE9F7"/>
<stop offset="0.510417" stop-color="#8B89C2"/>
<stop offset="1" stop-color="#686596"/>
</linearGradient>
<linearGradient id="paint9_linear_674_31298" x1="213.435" y1="114.639" x2="232.353" y2="85.2907" gradientUnits="userSpaceOnUse">
<stop stop-color="#EAE9F7"/>
<stop offset="0.510417" stop-color="#8B89C2"/>
<stop offset="1" stop-color="#686596"/>
</linearGradient>
<linearGradient id="paint10_linear_674_31298" x1="201.914" y1="99.6363" x2="262.782" y2="119.414" gradientUnits="userSpaceOnUse">
<stop stop-color="#EAE9F7"/>
<stop offset="0.510417" stop-color="#8B89C2"/>
<stop offset="1" stop-color="#686596"/>
</linearGradient>
</defs>
</svg>
