<svg width="1182" height="1035" viewBox="0 0 1182 1035" fill="none" xmlns="http://www.w3.org/2000/svg">
<path d="M380.334 1030.66L327.611 1030.82C317.186 1030.17 306.771 1029.47 296.346 1028.89C265.67 1027.32 235.17 1023.3 205.139 1016.87C169.527 1009.04 135.283 997.55 104.3 977.852C80.661 962.834 60.1958 944.49 45.7858 920.161C25.404 885.727 23.9343 848.839 31.8092 810.74C37.4454 783.418 47.4457 757.549 56.8168 731.449C63.0005 714.238 67.0641 696.66 62.9539 678.56C59.8801 664.966 55.7378 651.636 50.5656 638.691C40.9118 614.671 29.82 591.222 19.9334 567.304C0.190398 519.448 -4.42918 470.212 6.57097 419.441C17.8607 367.204 38.7862 319.519 70.6149 276.412C108.28 225.42 152.131 181.246 207.607 149.516C246.485 127.252 288.064 113.272 333.135 110.911C383.174 108.283 429.859 120.136 471.755 147.305C504.131 168.294 535.206 191.288 566.543 213.827C601.71 239.135 636.433 265.011 674.125 286.651C702.949 303.21 733.305 312.969 766.854 309.207C795.001 306.088 823.085 302.323 851.138 298.375C886.61 293.363 922.084 289.272 958.037 292.471C990.653 295.407 1021.24 304.467 1048.83 322.425C1085.21 346.092 1109.53 379.361 1125.11 419.281C1146.78 474.838 1149.51 532.352 1141.31 590.699C1137.68 616.498 1132.48 642.069 1128.57 667.829C1125 691.342 1127.94 714.017 1138.91 735.555C1145.4 748.278 1151.56 761.214 1157.05 774.395C1170.42 806.494 1179.55 839.587 1178.24 874.794C1177.3 900.302 1170 923.776 1154.83 944.554C1137.19 968.706 1113.15 984.454 1086.04 995.983C1055.82 1008.83 1024.02 1015.38 991.492 1018.62C965.276 1021.34 938.854 1021.47 912.611 1019.02C887.084 1016.58 861.546 1014.11 835.98 1012.17C804.176 1009.75 772.353 1007.51 740.501 1005.79C700.851 1003.67 661.115 1003.42 621.573 1007.16C583.796 1010.7 546.237 1016.37 508.501 1020.4C478.145 1023.65 447.684 1025.96 417.274 1028.48C404.907 1029.45 392.61 1029.94 380.334 1030.66Z" fill="#EAE9F7"/>
<path d="M1080.33 546.658H979.711L1023.7 110.288H1124.32L1080.33 546.658Z" fill="#333133"/>
<path d="M937.833 558.031H846.754L867.887 347.89H959.022L937.833 558.031Z" fill="#333133"/>
<path d="M793.781 566.352H704.089L716.736 440.812H806.483L793.781 566.352Z" fill="#333133"/>
<path d="M778.195 587.544H682.401L695.936 452.96H791.729L778.195 587.544Z" fill="#DCDDE2"/>
<path d="M695.935 452.96L684.342 568.127C711.244 568.904 744.137 558.696 750.404 506.328C753.289 482.362 758.392 465.054 763.44 452.96H695.935Z" fill="#C0C0D1"/>
<path d="M919.972 587.544H824.955L847.974 359.04H942.992L919.972 587.544Z" fill="#DCDDE2"/>
<path d="M1061.58 587.544H966.953L1013.77 122.604H1108.4L1061.58 587.544Z" fill="#DCDDE2"/>
<path d="M1061.58 587.544L1108.4 122.604H1058.09C1055.26 166.707 1056.7 229.838 1071.23 314.216C1085.38 396.486 1017.93 529.405 1009.55 587.599H1061.58V587.544Z" fill="#EEEFF5"/>
<path d="M918.695 404.364C916.754 443.751 891.737 478.035 898.671 508.824C908.322 551.817 907.158 574.229 901.722 587.599H920.026L943.046 359.096H910.708C915.367 372.798 919.416 389.385 918.695 404.364Z" fill="#EEEFF5"/>
<path d="M1172.69 678.69C1172.65 678.536 1172.58 678.394 1172.47 678.277C1172.36 678.161 1172.23 678.074 1172.08 678.024L1150.56 666.374C1150.43 666.319 1150.3 666.291 1150.17 666.291C1150.03 666.291 1149.9 666.319 1149.78 666.374C1149.66 666.447 1149.56 666.544 1149.48 666.659C1149.41 666.774 1149.36 666.904 1149.33 667.04L1148.23 678.024H400.236L466.077 24.5233H477.059C477.197 24.5346 477.334 24.5033 477.453 24.4339C477.572 24.3644 477.667 24.2601 477.725 24.135C477.802 24.022 477.848 23.8906 477.858 23.7542C477.867 23.6177 477.841 23.4811 477.78 23.3583L468.406 0.668867C468.382 0.491381 468.297 0.327835 468.165 0.206345C468.034 0.0848543 467.864 0.0130098 467.685 0.0031619C467.518 -0.0111209 467.351 0.0231885 467.204 0.101945C467.056 0.180701 466.934 0.300534 466.853 0.446965C466.853 0.461678 466.847 0.475789 466.837 0.486192C466.827 0.496596 466.812 0.502441 466.798 0.502441L452.764 23.3028C452.683 23.4263 452.639 23.571 452.639 23.7189C452.639 23.8668 452.683 24.0115 452.764 24.135C452.836 24.2645 452.941 24.3733 453.067 24.451C453.193 24.5288 453.337 24.5727 453.485 24.5788H464.357L398.461 678.634C398.416 678.719 398.397 678.816 398.405 678.912C398.407 679.122 398.488 679.325 398.632 679.479C398.776 679.633 398.972 679.727 399.182 679.744H1148.06L1146.95 690.617C1146.93 690.764 1146.95 690.913 1147.01 691.049C1147.07 691.186 1147.16 691.304 1147.28 691.394C1147.43 691.498 1147.6 691.556 1147.78 691.56C1147.92 691.549 1148.05 691.511 1148.17 691.449L1172.08 679.744C1172.28 679.701 1172.46 679.582 1172.58 679.411C1172.69 679.19 1172.73 678.936 1172.69 678.69Z" fill="#333133"/>
<path d="M740.866 110.288H669.812L676.967 39.2243H748.022L740.866 110.288Z" fill="#EEEFF5"/>
<path d="M548.891 252.416H513.336L516.941 216.912H552.441L548.891 252.416Z" fill="#EEEFF5"/>
<path d="M493.295 729.599L519.559 938.212H510.161L474.687 735.195L493.295 729.599Z" fill="#AFADCB"/>
<path d="M390.48 729.599L322.146 938.212H331.543L407.969 735.195L390.48 729.599Z" fill="#AFADCB"/>
<path d="M547.689 729.599L479.354 938.212H488.752L565.178 735.195L547.689 729.599Z" fill="#AFADCB"/>
<path d="M547.689 729.599L537.42 760.937H555.468L565.177 735.195L547.689 729.599Z" fill="#333133"/>
<path d="M390.481 729.599L380.212 760.937H398.323L407.969 735.195L390.481 729.599Z" fill="#333133"/>
<path d="M497.216 760.937H479.167L474.687 735.195L493.295 729.599L497.216 760.937Z" fill="#333133"/>
<path d="M650.44 729.599L676.703 938.212H667.368L631.831 735.195L650.44 729.599Z" fill="#AFADCB"/>
<path d="M629.218 725.371L636.25 760.938H654.361L651.249 732.397L629.218 725.371Z" fill="#333133"/>
<path d="M296.38 499.596C288.974 525.525 325.257 583.414 315.735 649.698C306.213 715.982 354.135 750.491 428.817 750.491H680.063C689.087 750.491 697.116 743.154 698.049 734.2C698.983 725.184 692.386 717.909 683.362 717.909H615.089C615.089 717.909 552.667 631.23 557.521 571.538C562.375 511.845 568.35 487.595 530.884 483.243C484.643 477.833 306.462 464.278 296.38 499.596Z" fill="#5F5E9B"/>
<path d="M391.664 717.785C324.636 705.846 315.737 649.636 315.737 649.636C306.277 715.919 354.136 750.429 428.819 750.429H680.065C689.089 750.429 697.117 743.092 698.051 734.138C698.984 725.184 692.387 717.847 683.363 717.847H615.091C615.091 717.785 458.692 729.723 391.664 717.785Z" fill="#373662"/>
<path d="M1182 935H7V1035H1182V935Z" fill="#DCDDE2"/>
<path d="M26.7684 1003.83L32.6273 1014.73C33.007 1015.44 33.5753 1016.03 34.2716 1016.44C34.9678 1016.86 35.7658 1017.08 36.5803 1017.09H130.04C130.634 1017.09 131.222 1016.98 131.771 1016.75C132.32 1016.53 132.819 1016.2 133.239 1015.79C133.659 1015.38 133.992 1014.89 134.218 1014.35C134.444 1013.81 134.56 1013.23 134.558 1012.64C134.543 1012.07 134.423 1011.51 134.205 1010.98L111.475 955.294C111.138 954.478 110.563 953.778 109.821 953.284C109.08 952.79 108.206 952.523 107.311 952.517H77.8044C77.2276 952.508 76.655 952.614 76.1211 952.829C75.5873 953.043 75.1033 953.362 74.6984 953.767L27.6154 998.549C26.9252 999.228 26.4714 1000.1 26.3192 1001.05C26.167 1002 26.3242 1002.97 26.7684 1003.83Z" fill="#EEEFF5"/>
<path d="M130.322 958.349L137.734 979.595C138.128 980.702 138.947 981.612 140.016 982.132C141.085 982.651 142.319 982.737 143.452 982.372C143.76 982.29 144.048 982.148 144.299 981.955L180.229 960.71C181.248 960.11 181.984 959.138 182.275 958.005C182.566 956.873 182.389 955.673 181.782 954.669C181.376 954.014 180.805 953.472 180.126 953.095C179.446 952.718 178.679 952.519 177.899 952.517H134.557C133.964 952.515 133.375 952.629 132.826 952.851C132.277 953.074 131.779 953.401 131.359 953.814C130.939 954.227 130.606 954.718 130.38 955.258C130.153 955.798 130.038 956.376 130.04 956.96C130.024 957.438 130.121 957.914 130.322 958.349Z" fill="#EEEFF5"/>
<path d="M16.7433 959.439L24.2289 976.602C24.6253 977.496 25.3666 978.201 26.2935 978.567C27.2205 978.932 28.2592 978.929 29.1866 978.557C29.4396 978.471 29.6725 978.336 29.8714 978.161L58.7028 958.368C59.5209 957.81 60.0791 956.959 60.2551 956.002C60.4311 955.046 60.2105 954.062 59.6416 953.267C59.262 952.748 58.7518 952.333 58.1596 952.062C57.5675 951.791 56.9132 951.672 56.2593 951.718L19.9422 954.347C19.4445 954.381 18.9584 954.511 18.5118 954.729C18.0651 954.947 17.6668 955.249 17.3398 955.617C17.0128 955.984 16.7634 956.411 16.6061 956.873C16.4489 957.334 16.3867 957.821 16.4233 958.305C16.4388 958.702 16.5483 959.09 16.7433 959.439Z" fill="#EEEFF5"/>
<path d="M145.5 998.341L150.3 1012.64C150.672 1013.75 151.473 1014.67 152.53 1015.21C153.587 1015.74 154.814 1015.84 155.947 1015.49C156.018 1015.49 156.088 1015.42 156.159 1015.42L197.383 999.938C197.999 999.698 198.557 999.333 199.019 998.867C199.481 998.4 199.838 997.842 200.065 997.23L211.712 964.042C212.022 963.184 212.052 962.253 211.8 961.377C211.548 960.501 211.026 959.723 210.305 959.151C209.585 958.58 208.702 958.242 207.778 958.186C206.854 958.129 205.935 958.356 205.148 958.835L147.476 993.203C146.599 993.707 145.923 994.493 145.564 995.428C145.204 996.363 145.181 997.391 145.5 998.341Z" fill="#EEEFF5"/>
<path d="M200.417 1008.48L207.688 1005.91C208.313 1005.7 208.975 1005.63 209.631 1005.69C210.287 1005.75 210.923 1005.94 211.5 1006.26L215.876 1008.82C216.721 1009.32 217.376 1010.08 217.741 1010.97C218.105 1011.87 218.16 1012.87 217.895 1013.8C217.63 1014.73 217.06 1015.55 216.275 1016.13C215.489 1016.71 214.53 1017.02 213.547 1017.02H201.899C196.817 1017.09 195.617 1010.14 200.417 1008.48Z" fill="#EEEFF5"/>
<path d="M219.123 1000.7L234.158 1009.31C235.061 1009.82 236.116 1010.01 237.145 1009.85C238.174 1009.68 239.114 1009.18 239.805 1008.41L282.3 959.876C282.866 959.233 283.231 958.443 283.35 957.6C283.469 956.758 283.338 955.9 282.972 955.129C282.607 954.358 282.022 953.708 281.289 953.257C280.556 952.806 279.706 952.573 278.841 952.586H237.617C236.719 952.582 235.841 952.846 235.098 953.341C234.355 953.837 233.781 954.542 233.452 955.363L217.217 995.286C216.84 996.265 216.825 997.343 217.173 998.333C217.521 999.322 218.211 1000.16 219.123 1000.7Z" fill="#EEEFF5"/>
<path d="M260.701 1017.09H390.091C390.684 1017.09 391.273 1016.98 391.822 1016.75C392.371 1016.53 392.869 1016.2 393.289 1015.79C393.709 1015.38 394.042 1014.89 394.268 1014.35C394.495 1013.81 394.61 1013.23 394.608 1012.64C394.624 1012.12 394.528 1011.6 394.326 1011.12L373.643 955.433C373.327 954.578 372.751 953.84 371.993 953.318C371.236 952.796 370.333 952.516 369.408 952.517H304.607C303.921 952.512 303.244 952.667 302.631 952.968C302.017 953.27 301.485 953.71 301.078 954.253L257.242 1009.94C256.873 1010.39 256.599 1010.91 256.438 1011.47C256.277 1012.03 256.231 1012.61 256.304 1013.19C256.376 1013.76 256.565 1014.32 256.86 1014.82C257.154 1015.32 257.548 1015.76 258.018 1016.11C258.769 1016.74 259.718 1017.08 260.701 1017.09Z" fill="#EEEFF5"/>
<path d="M386.489 958.349L394.819 982.302C395.213 983.409 396.032 984.32 397.101 984.84C398.17 985.359 399.404 985.445 400.537 985.08C401.003 984.933 401.434 984.697 401.807 984.385L433.572 960.432C434.321 959.871 434.87 959.093 435.144 958.207C435.417 957.322 435.401 956.374 435.096 955.498C434.792 954.623 434.215 953.864 433.447 953.329C432.679 952.793 431.76 952.509 430.819 952.517H390.795C390.201 952.515 389.613 952.629 389.064 952.851C388.515 953.074 388.016 953.401 387.597 953.814C387.177 954.227 386.844 954.718 386.618 955.258C386.391 955.798 386.276 956.376 386.278 956.96C386.273 957.431 386.345 957.9 386.489 958.349Z" fill="#EEEFF5"/>
<path d="M401.666 999.174L406.396 1013.82C406.702 1014.77 407.304 1015.59 408.116 1016.18C408.927 1016.76 409.907 1017.08 410.914 1017.09H466.044C467.298 1017.09 468.501 1016.6 469.388 1015.72C470.275 1014.85 470.773 1013.67 470.773 1012.44C470.785 1012.16 470.761 1011.88 470.703 1011.6L464.914 979.178C464.742 978.246 464.285 977.388 463.604 976.718C462.923 976.048 462.05 975.598 461.102 975.429L437.032 971.263C436.405 971.151 435.763 971.168 435.143 971.311C434.524 971.454 433.941 971.722 433.431 972.096L403.431 994.036C402.628 994.604 402.025 995.404 401.709 996.326C401.392 997.248 401.377 998.244 401.666 999.174Z" fill="#EEEFF5"/>
<path d="M456.938 964.737L470.35 966.958C471.019 967.063 471.703 967.031 472.359 966.864C473.015 966.696 473.629 966.398 474.162 965.986L480.656 960.779C481.141 960.397 481.543 959.923 481.839 959.385C482.134 958.847 482.317 958.256 482.376 957.648C482.436 957.039 482.37 956.425 482.184 955.842C481.997 955.259 481.694 954.718 481.291 954.253C480.85 953.712 480.291 953.276 479.656 952.975C479.021 952.675 478.326 952.518 477.621 952.517H461.103C459.933 952.517 458.804 952.937 457.926 953.697L454.538 956.683C454.079 957.088 453.705 957.579 453.439 958.126C453.173 958.674 453.019 959.268 452.986 959.874C452.953 960.48 453.042 961.087 453.248 961.659C453.454 962.231 453.772 962.758 454.185 963.209C454.888 964.025 455.865 964.567 456.938 964.737Z" fill="#EEEFF5"/>
<path d="M475.009 983.899L482.21 1013.55C482.456 1014.56 483.043 1015.46 483.876 1016.1C484.709 1016.75 485.739 1017.09 486.798 1017.09H502.045C503.299 1017.09 504.502 1016.6 505.389 1015.72C506.276 1014.85 506.775 1013.67 506.775 1012.44C506.78 1011.71 506.61 1011 506.28 1010.35L491.951 981.747C491.602 981.054 491.084 980.457 490.444 980.009C489.803 979.561 489.06 979.275 488.28 979.178L480.162 978.137C479.545 978.056 478.918 978.096 478.317 978.254C477.716 978.413 477.153 978.688 476.66 979.063C476.168 979.437 475.756 979.904 475.448 980.437C475.141 980.969 474.944 981.556 474.868 982.164C474.842 982.746 474.89 983.329 475.009 983.899Z" fill="#EEEFF5"/>
<path d="M492.233 970.638L495.763 971.263C496.422 971.391 497.046 971.655 497.593 972.038C498.141 972.421 498.6 972.914 498.939 973.485L506.916 986.677C507.234 987.202 507.655 987.661 508.154 988.026C508.653 988.391 509.221 988.656 509.825 988.804C510.429 988.953 511.056 988.982 511.671 988.891C512.287 988.8 512.877 988.59 513.41 988.273C513.841 987.988 514.242 987.662 514.61 987.301L538.046 960.154C538.622 959.477 538.99 958.653 539.107 957.778C539.225 956.903 539.087 956.013 538.709 955.212C538.332 954.411 537.731 953.732 536.975 953.255C536.22 952.778 535.343 952.522 534.445 952.517H503.598C502.464 952.525 501.367 952.917 500.492 953.628L490.045 962.515C489.576 962.911 489.191 963.394 488.913 963.937C488.634 964.48 488.467 965.071 488.421 965.677C488.375 966.283 488.451 966.893 488.645 967.47C488.839 968.047 489.147 968.581 489.551 969.041C490.197 969.899 491.161 970.473 492.233 970.638Z" fill="#EEEFF5"/>
<path d="M514.187 1002.09L519.198 1014.17C519.554 1015.03 520.159 1015.76 520.938 1016.28C521.717 1016.8 522.634 1017.08 523.575 1017.09H578.423C579.677 1017.09 580.88 1016.6 581.767 1015.72C582.654 1014.85 583.152 1013.67 583.152 1012.44C583.165 1011.73 582.995 1011.04 582.658 1010.42L558.587 962.168C558.042 961.065 557.075 960.22 555.898 959.816C554.72 959.413 553.428 959.485 552.305 960.015C551.816 960.251 551.364 960.555 550.963 960.918L515.175 997.161C514.531 997.793 514.093 998.599 513.917 999.477C513.741 1000.36 513.835 1001.26 514.187 1002.09Z" fill="#EEEFF5"/>
<path d="M570.022 959.252L583.646 987.44C584.185 988.55 585.147 989.406 586.323 989.822C587.499 990.238 588.795 990.18 589.929 989.662C590.14 989.588 590.333 989.47 590.493 989.315L632.564 961.751C633.411 961.204 634.057 960.404 634.407 959.469C634.757 958.534 634.792 957.512 634.508 956.556C634.223 955.6 633.634 954.758 632.826 954.156C632.019 953.554 631.036 953.223 630.023 953.211L574.328 952.586C573.078 952.58 571.874 953.056 570.977 953.913C570.079 954.77 569.559 955.939 569.528 957.169C569.576 957.885 569.743 958.589 570.022 959.252Z" fill="#EEEFF5"/>
<path d="M592.257 1004.24L596.775 1014.31C597.15 1015.13 597.755 1015.82 598.517 1016.31C599.28 1016.81 600.169 1017.07 601.081 1017.09H661.223C662.477 1017.09 663.68 1016.6 664.567 1015.72C665.454 1014.85 665.953 1013.67 665.953 1012.44V1011.95L660.941 963.765C660.816 962.541 660.203 961.417 659.238 960.636C658.272 959.855 657.032 959.482 655.788 959.599C655.028 959.674 654.299 959.937 653.67 960.362L594.022 998.549C593.089 999.137 592.398 1000.03 592.075 1001.08C591.752 1002.12 591.816 1003.24 592.257 1004.24Z" fill="#EEEFF5"/>
<path d="M672.376 957.724L675.905 987.44C675.972 988.048 676.16 988.636 676.46 989.172C676.759 989.707 677.163 990.179 677.649 990.56C678.135 990.941 678.692 991.223 679.29 991.391C679.887 991.558 680.512 991.608 681.129 991.537C681.229 991.547 681.329 991.522 681.411 991.467L743.671 980.497C744.764 980.307 745.753 979.743 746.464 978.904C747.174 978.065 747.56 977.006 747.553 975.915V957.169C747.553 955.935 747.055 954.752 746.168 953.879C745.281 953.007 744.078 952.517 742.824 952.517H677.106C675.851 952.517 674.648 953.007 673.761 953.879C672.874 954.752 672.376 955.935 672.376 957.169V957.724Z" fill="#EEEFF5"/>
<path d="M678.871 1005.7L679.859 1012.99C680.009 1014.1 680.564 1015.12 681.421 1015.86C682.277 1016.6 683.378 1017.01 684.518 1017.02H727.789C728.41 1017.02 729.025 1016.9 729.599 1016.66C730.173 1016.43 730.694 1016.09 731.133 1015.66C731.573 1015.22 731.921 1014.71 732.159 1014.15C732.396 1013.58 732.519 1012.98 732.519 1012.37V1011.95L731.248 997.23C731.135 995.997 730.529 994.858 729.562 994.064C728.596 993.269 727.349 992.885 726.095 992.995C725.95 992.984 725.805 993.008 725.671 993.064L682.753 1000.42C681.563 1000.69 680.51 1001.37 679.795 1002.34C679.08 1003.31 678.751 1004.51 678.871 1005.7Z" fill="#EEEFF5"/>
<path d="M742.825 990.009L756.873 987.163C757.723 986.992 758.605 987.05 759.425 987.331C760.245 987.612 760.973 988.106 761.531 988.76L778.543 1009.45C778.934 1009.92 779.225 1010.47 779.401 1011.05C779.577 1011.64 779.634 1012.25 779.568 1012.86C779.503 1013.46 779.316 1014.05 779.019 1014.59C778.722 1015.12 778.321 1015.59 777.838 1015.98C777.003 1016.65 775.955 1017.02 774.873 1017.02H746.355C745.214 1017.01 744.114 1016.6 743.258 1015.86C742.401 1015.12 741.846 1014.1 741.696 1012.99L739.155 995.147C738.978 993.991 739.261 992.812 739.945 991.856C740.628 990.899 741.66 990.238 742.825 990.009Z" fill="#EEEFF5"/>
<path d="M758.849 972.374L759.625 956.96C759.681 955.764 760.204 954.634 761.084 953.806C761.965 952.979 763.136 952.517 764.355 952.517H817.508C818.615 952.521 819.686 952.905 820.536 953.602C821.387 954.299 821.963 955.265 822.167 956.336L832.261 1011.6C832.477 1012.82 832.197 1014.06 831.484 1015.08C830.771 1016.09 829.681 1016.79 828.449 1017.02C828.171 1017.08 827.887 1017.1 827.602 1017.09H798.661C797.98 1017.09 797.306 1016.95 796.685 1016.67C796.064 1016.4 795.51 1015.99 795.061 1015.49L760.049 975.707C759.252 974.775 758.826 973.591 758.849 972.374Z" fill="#EEEFF5"/>
<path d="M835.579 957.932L840.449 985.427C840.552 986.026 840.775 986.599 841.104 987.112C841.434 987.626 841.864 988.07 842.37 988.419C842.876 988.768 843.447 989.014 844.05 989.144C844.654 989.274 845.277 989.285 845.885 989.176C846.478 989.053 847.049 988.842 847.579 988.551L891.838 961.057C892.362 960.733 892.816 960.312 893.175 959.815C893.533 959.319 893.788 958.759 893.926 958.165C894.063 957.572 894.081 956.958 893.977 956.358C893.873 955.758 893.65 955.184 893.321 954.669C892.885 954.009 892.289 953.467 891.586 953.091C890.884 952.715 890.097 952.518 889.297 952.517H840.167C838.913 952.517 837.71 953.007 836.823 953.879C835.936 954.752 835.438 955.935 835.438 957.169C835.508 957.446 835.508 957.724 835.579 957.932Z" fill="#EEEFF5"/>
<path d="M844.261 1002.99L845.602 1013.06C845.753 1014.17 846.307 1015.19 847.164 1015.93C848.02 1016.67 849.121 1017.08 850.261 1017.09H925.65C926.905 1017.09 928.108 1016.6 928.995 1015.72C929.882 1014.85 930.38 1013.67 930.38 1012.44C930.397 1011.57 930.151 1010.73 929.674 1010.01L904.121 969.389C903.459 968.347 902.406 967.603 901.192 967.317C899.977 967.031 898.696 967.227 897.626 967.861L846.449 998.41C845.665 998.876 845.038 999.559 844.648 1000.38C844.259 1001.19 844.124 1002.1 844.261 1002.99Z" fill="#EEEFF5"/>
<path d="M914.216 958.557L922.333 953.281C923.113 952.789 924.019 952.524 924.945 952.517H962.357C963.612 952.517 964.815 953.007 965.702 953.879C966.589 954.752 967.087 955.935 967.087 957.169C967.09 957.846 966.94 958.515 966.647 959.127C966.354 959.74 965.925 960.28 965.393 960.71L933.91 986.746C933.437 987.138 932.891 987.435 932.301 987.62C931.712 987.804 931.091 987.873 930.475 987.821C929.859 987.77 929.259 987.599 928.71 987.319C928.161 987.039 927.673 986.656 927.275 986.191C927.133 986.052 927.063 985.913 926.922 985.774L912.874 965.014C912.189 963.981 911.946 962.724 912.197 961.515C912.448 960.306 913.173 959.244 914.216 958.557Z" fill="#EEEFF5"/>
<path d="M936.521 999.799L946.615 1015C947.04 1015.65 947.626 1016.18 948.318 1016.55C949.009 1016.91 949.784 1017.1 950.568 1017.09H991.722C992.976 1017.09 994.179 1016.6 995.066 1015.72C995.953 1014.85 996.451 1013.67 996.451 1012.44C996.444 1011.52 996.175 1010.63 995.675 1009.87L971.463 973.832C970.767 972.804 969.687 972.089 968.457 971.842C967.227 971.594 965.948 971.836 964.898 972.513C964.757 972.582 964.686 972.652 964.545 972.721L937.509 993.62C936.589 994.342 935.977 995.377 935.795 996.52C935.612 997.664 935.871 998.834 936.521 999.799Z" fill="#EEEFF5"/>
<path d="M989.533 953.558L980.286 961.126C979.376 961.858 978.778 962.897 978.608 964.041C978.438 965.184 978.709 966.349 979.368 967.306L995.603 990.912C995.947 991.422 996.391 991.86 996.909 992.199C997.427 992.539 998.008 992.774 998.62 992.89C999.231 993.007 999.859 993.002 1000.47 992.877C1001.08 992.752 1001.66 992.509 1002.17 992.162C1002.94 991.653 1003.53 990.926 1003.86 990.079L1017.06 958.905C1017.53 957.761 1017.53 956.482 1017.06 955.341C1016.58 954.199 1015.67 953.285 1014.52 952.795C1013.94 952.573 1013.31 952.455 1012.69 952.448H992.498C991.415 952.501 990.377 952.89 989.533 953.558Z" fill="#EEEFF5"/>
<path d="M1007.67 1009.31L1010.43 1014.52C1010.85 1015.28 1011.47 1015.91 1012.23 1016.35C1012.99 1016.79 1013.85 1017.02 1014.73 1017.02L1049.75 1016.32C1050.37 1016.31 1050.98 1016.17 1051.55 1015.92C1052.11 1015.67 1052.62 1015.31 1053.05 1014.86C1053.48 1014.42 1053.81 1013.9 1054.03 1013.32C1054.25 1012.75 1054.35 1012.14 1054.33 1011.53C1054.33 1010.92 1054.19 1010.31 1053.94 1009.75C1053.68 1009.19 1053.31 1008.68 1052.85 1008.27L1025.18 983.136C1024.25 982.306 1023.03 981.87 1021.77 981.922C1020.52 981.974 1019.33 982.51 1018.48 983.413C1018.15 983.737 1017.89 984.113 1017.7 984.524L1007.67 1005.14C1007.33 1005.79 1007.15 1006.5 1007.15 1007.23C1007.15 1007.95 1007.33 1008.67 1007.67 1009.31Z" fill="#EEEFF5"/>
<path d="M1030.12 955.433L1024.55 969.319C1024.2 970.212 1024.14 971.187 1024.36 972.116C1024.59 973.045 1025.1 973.885 1025.82 974.526L1043.82 990.079C1044.56 990.718 1045.5 991.115 1046.48 991.215C1047.47 991.314 1048.46 991.111 1049.32 990.634L1101.21 961.196C1102.11 960.687 1102.81 959.9 1103.22 958.957C1103.62 958.014 1103.69 956.966 1103.43 955.978C1103.16 954.989 1102.57 954.114 1101.75 953.488C1100.93 952.863 1099.92 952.521 1098.88 952.517H1034.57C1033.62 952.513 1032.69 952.789 1031.89 953.308C1031.1 953.827 1030.49 954.567 1030.12 955.433Z" fill="#EEEFF5"/>
<path d="M1133.89 957.099L1160.08 1010.28C1160.62 1011.39 1160.69 1012.66 1160.28 1013.82C1159.87 1014.97 1159.01 1015.93 1157.89 1016.46C1157.24 1016.79 1156.51 1016.96 1155.77 1016.95L1075.23 1015.56C1074.07 1015.53 1072.97 1015.09 1072.12 1014.31L1058.71 1002.16C1057.79 1001.32 1057.25 1000.15 1057.19 998.919C1057.14 997.684 1057.58 996.478 1058.43 995.564C1058.73 995.229 1059.09 994.947 1059.49 994.73L1127.25 955.016C1128.33 954.393 1129.62 954.211 1130.83 954.51C1132.05 954.808 1133.09 955.564 1133.75 956.613C1133.82 956.768 1133.87 956.931 1133.89 957.099Z" fill="#EEEFF5"/>
<path d="M1149.7 952.517H1158.67C1159.92 952.517 1161.12 953.007 1162.01 953.879C1162.9 954.752 1163.4 955.935 1163.4 957.169V975.776C1163.4 977.01 1162.9 978.193 1162.01 979.065C1161.12 979.938 1159.92 980.428 1158.67 980.428C1157.77 980.429 1156.89 980.182 1156.13 979.715C1155.37 979.249 1154.76 978.582 1154.36 977.79L1145.4 959.182C1145.13 958.631 1144.97 958.033 1144.94 957.423C1144.91 956.813 1145 956.203 1145.21 955.627C1145.42 955.052 1145.74 954.524 1146.16 954.074C1146.58 953.623 1147.09 953.259 1147.65 953.003C1148.29 952.679 1148.99 952.512 1149.7 952.517Z" fill="#EEEFF5"/>
<path d="M159.684 549.642C159.684 549.642 151.078 540.506 135.686 543.109C120.294 545.712 97.9687 560.104 79.6754 597.63C43.1381 672.436 60.7921 764.777 60.7921 764.777C60.7921 764.777 95.805 758.687 102.886 728.578C114.541 679.214 133.768 677.643 142.276 660.058C151.717 641.295 149.013 626.953 141.145 581.961C136.916 557.746 147.292 547.088 159.684 549.642Z" fill="#4F9977"/>
<path d="M207.286 305.969C207.286 305.969 206.548 317.855 189.829 340.548C167.405 370.215 147.734 409.558 169.863 459.658C191.992 509.758 205.27 542.569 207.286 572.973C207.286 572.973 212.646 533.777 232.365 506.369C249.528 482.498 273.181 452.831 267.772 399.292C262.362 345.754 207.286 305.969 207.286 305.969Z" fill="#4F9977"/>
<path d="M338.337 430.187C338.337 430.187 255.722 505.338 218.841 656.129C218.841 656.129 228.676 628.623 257.198 627.15C285.719 625.676 331.846 591.539 334.747 541.341C338.337 480.582 371.924 489.718 338.337 430.187Z" fill="#4F9977"/>
<path d="M207.532 762.371H199.664V647.435C199.664 603.131 185.993 577.786 174.486 564.328C170.909 560.148 166.519 556.739 161.582 554.307C156.645 551.875 151.264 550.472 145.767 550.182C140.408 549.871 135.042 550.67 130.007 552.53C124.971 554.389 120.376 557.269 116.508 560.988C116.213 561.234 115.967 561.528 115.672 561.823L110.115 556.273L111.05 555.339C115.697 550.885 121.212 547.435 127.253 545.204C133.294 542.973 139.731 542.009 146.161 542.372C152.723 542.716 159.147 544.392 165.04 547.297C170.932 550.202 176.171 554.275 180.436 559.269C192.779 573.759 207.483 600.773 207.483 647.484L207.532 762.371Z" fill="#4F9977"/>
<path d="M207.532 711.779H199.664C199.664 648.074 205.762 521.792 205.811 520.515L213.679 520.908C213.629 522.185 207.532 648.27 207.532 711.779Z" fill="#4F9977"/>
<path d="M207.532 762.371H199.664C199.664 741.692 202.565 706.72 216.285 657.799C224.498 628.574 232.808 607.846 232.907 607.65L240.185 610.597C239.89 611.432 207.532 692.28 207.532 762.371Z" fill="#4F9977"/>
<path d="M338.338 430.187C341.584 448.066 344.239 467.419 335.388 483.235C330.667 491.585 322.946 498.461 320.684 507.843C318.176 518.354 323.291 529.012 325.848 539.523C328.749 551.164 327.913 564.917 319.258 573.267C310.8 581.372 298.457 580.291 290.196 586.627C284.245 591.146 281.147 600.38 276.869 606.52C262.756 626.511 244.216 629.262 241.217 631.275C246.223 628.829 251.68 627.441 257.248 627.199C285.77 625.725 331.896 591.588 334.798 541.39C338.338 480.582 371.925 489.718 338.338 430.187Z" fill="#66BA93"/>
<path d="M199.91 472.576C200.894 472.38 201.877 472.429 202.861 472.281C208.073 471.495 210.778 465.061 209.598 459.953C208.418 454.844 204.582 450.768 201.041 446.887C192.927 438.046 185.256 428.566 180.24 417.662C175.224 406.758 173.06 394.184 176.257 382.641C180.092 368.741 190.862 358.083 199.025 346.147C206.451 335.243 211.712 320.753 206.746 308.965C205.516 313.827 201.73 324.486 189.878 340.547C167.454 370.215 147.784 409.558 169.913 459.658C186.19 496.545 197.697 524.051 203.402 548.168C194.55 514.179 204.385 506.713 197.55 491.388C196.075 488.048 194.353 484.659 194.304 481.024C194.255 477.389 196.32 473.313 199.91 472.576Z" fill="#66BA93"/>
<path d="M224.596 403.909C224.743 417.564 222.186 432.447 229.464 444.039C233.251 450.031 239.299 454.402 242.742 460.591C244.709 464.128 245.446 469.236 242.25 471.79C241.104 472.643 239.74 473.154 238.316 473.264C233.005 473.853 227.841 470.808 224.35 466.78C220.858 462.752 218.596 457.841 216.039 453.125C211.962 445.653 207.028 438.68 201.336 432.349C198.73 429.451 195.927 426.651 194.451 423.065C192.583 418.546 193.124 413.34 194.304 408.576C196.172 400.815 201.434 389.42 210.089 387.357C219.826 385.048 224.547 396.149 224.596 403.909Z" fill="#66BA93"/>
<path d="M246.881 445.748C251.81 444.221 254.045 437.313 251.873 430.318C249.701 423.322 243.944 418.889 239.016 420.416C234.087 421.942 231.853 428.851 234.025 435.846C236.196 442.842 241.953 447.275 246.881 445.748Z" fill="#66BA93"/>
<path d="M74.9535 756.133C71.7079 758.982 68.1181 761.438 64.5283 763.943C73.7241 761.438 97.23 752.695 102.885 728.627C114.54 679.264 133.767 677.692 142.275 660.108C151.716 641.345 149.012 627.002 141.144 582.01C138.488 566.98 141.537 557.157 147.143 552.491C146.426 552.359 145.69 552.376 144.979 552.54C137.701 554.308 132.046 564.77 130.03 571.155C126.981 580.782 127.571 591.146 128.358 601.215C129.145 611.285 130.128 621.55 127.817 631.423C124.965 643.702 117.146 654.312 108.147 663.153C99.0987 671.994 88.7718 679.313 79.1826 687.515C74.806 691.248 70.4785 695.374 68.5607 700.777C66.6429 706.18 68.0198 713.155 73.0357 715.955C75.9862 717.575 79.576 717.477 82.9199 717.968C86.2639 718.46 89.952 719.933 91.0831 723.077C91.7223 724.845 91.4273 726.76 91.0339 728.578C88.7313 739.232 83.1005 748.881 74.9535 756.133Z" fill="#66BA93"/>
<path d="M244.511 594.044C247.215 591.097 249.084 587.512 251.346 584.221C257.664 575.122 266.944 568.491 277.606 565.458C287.785 562.609 298.997 563.149 308.291 558.139C310.799 556.764 313.258 554.897 314.192 552.196C316.11 546.695 310.652 540.997 304.947 539.867C296.883 538.296 289.015 542.569 280.95 541.39C273.918 540.359 270.771 535.349 266.099 530.928C254.552 552.81 244.561 575.477 236.2 598.76C239.298 598.416 242.298 596.451 244.511 594.044Z" fill="#66BA93"/>
<path d="M117.196 632.798C120.098 627.346 121.13 619.389 115.967 616.049C112.672 613.937 108.148 614.821 104.804 616.933C101.46 619.045 98.903 622.14 95.9525 624.694C91.0349 628.967 83.8553 632.356 77.2166 630.49C74.8562 629.851 71.8073 626.904 68.7584 624.988C61.5297 647.73 58.2349 670.815 57.0547 691.494C58.7242 688.6 60.5462 685.796 62.5132 683.095C77.5112 663.153 105.541 654.852 117.196 632.798Z" fill="#66BA93"/>
<path d="M291.481 528.646C297.306 528.243 301.762 524.076 301.433 519.34C301.104 514.604 296.115 511.093 290.29 511.496C284.464 511.9 280.009 516.067 280.338 520.802C280.667 525.538 285.656 529.05 291.481 528.646Z" fill="#66BA93"/>
<path d="M88.5093 622.333C92.4294 620.109 94.1392 615.725 92.3283 612.54C90.5174 609.356 85.8715 608.578 81.9515 610.802C78.0314 613.026 76.3215 617.41 78.1324 620.595C79.9433 623.779 84.5892 624.557 88.5093 622.333Z" fill="#66BA93"/>
<path d="M255.624 938.212H153.831L117.933 746.653H291.522L255.624 938.212Z" fill="#DCDDE2"/>
<path d="M282.326 795.771L291.522 746.653H117.933L127.128 795.771H282.326Z" fill="#C0C0D1"/>
<path d="M587.516 341.716C587.516 341.716 579.339 362.741 591.444 366.933C603.548 371.125 619.13 376.736 613.85 396.923L554.164 407.501L549.593 343.973L587.516 341.716Z" fill="#333133"/>
<path d="M730.195 329.978C730.195 329.978 774.235 354.486 788.014 400.922C788.014 400.922 746.871 374.802 730.195 329.978Z" fill="#25215E"/>
<path d="M781.51 289.217C781.51 289.217 795.61 273.609 804.109 262.258C804.771 263.612 805.12 265.097 805.131 266.604C805.142 268.111 804.815 269.601 804.174 270.965C802.5 274.705 797.993 283.799 797.993 283.799L781.51 289.217Z" fill="url(#paint0_linear_731_42907)"/>
<path opacity="0.3" d="M506.905 492.956C506.905 492.956 513.794 515.143 507.935 557.387C502.076 599.631 495.637 605.177 495.637 605.177C495.637 605.177 484.37 577.445 492.289 532.621C500.144 487.797 506.905 492.956 506.905 492.956Z" fill="#25215E"/>
<path d="M785.31 286.831C785.31 286.831 803.209 275.866 814.541 267.418C814.727 268.953 814.588 270.51 814.133 271.988C813.679 273.466 812.918 274.832 811.901 275.995C809.197 279.091 802.179 286.637 802.179 286.637L785.31 286.831Z" fill="url(#paint1_linear_731_42907)"/>
<path d="M730.195 329.978C730.195 329.978 741.849 310.178 753.31 300.503C764.77 290.829 791.104 280.961 802.05 281.155C812.996 281.348 817.052 294.054 817.052 294.054C817.052 294.054 815.12 296.182 810.871 293.409C806.621 290.636 803.466 287.798 801.084 288.249C798.702 288.701 784.923 295.15 785.825 298.762C786.726 302.374 793.036 301.535 795.869 300.245C798.702 298.956 813.639 291.41 816.794 296.376C816.794 296.376 799.539 312.499 792.328 313.144C785.116 313.789 769.986 313.144 767.282 317.014C764.577 320.884 753.567 350.229 752.344 367.127C752.408 367.256 734.509 347.004 730.195 329.978Z" fill="url(#paint2_linear_731_42907)"/>
<path d="M404.209 642.262C404.209 642.262 396.483 731.329 492.546 725.525C555.258 721.72 595.242 694.825 615.459 676.638C620.095 672.446 625.696 674.896 624.602 680.83C621.254 699.082 625.374 729.782 636.642 747.711C655.893 778.217 699.933 818.914 707.788 843.422C714.677 864.834 721.631 875.476 716.416 897.081C714.935 903.273 717.189 909.4 722.339 912.56L772.882 945.388C776.939 948.032 782.347 942.937 779.965 938.745C777.454 934.166 762.13 907.143 748.223 851.226C734.508 796.147 696.006 624.719 680.489 595.052C664.972 565.384 656.151 563.514 636.899 562.804C619.386 562.159 501.689 590.537 477.222 598.405C460.225 603.888 410.39 625.042 410.39 625.042L404.209 642.262Z" fill="#46437B"/>
<path d="M711.137 853.289C710.368 842.817 709.014 832.395 707.081 822.074C705.536 814.012 703.668 805.95 699.998 798.791C695.298 789.569 687.894 782.216 681.005 774.606C660.916 752.419 643.532 724.687 646.365 693.213C648.039 674.703 656.409 654.516 648.232 638.779C645.914 634.329 642.051 630.46 637.029 629.363C629.174 627.686 620.933 632.846 614.172 638.263C599.557 650.001 586.486 664.255 569.746 672.317C552.49 680.637 533.368 681.411 514.953 681.733C494.608 682.12 480.443 676.896 474.519 656.258C469.111 637.296 485.722 613.626 497.119 595.761L427.711 617.754C417.666 621.882 410.326 625.042 410.326 625.042L404.145 642.327C404.145 642.327 396.419 731.394 492.483 725.59C555.195 721.784 595.178 694.89 615.395 676.702C620.031 672.51 625.633 674.961 624.538 680.895C621.19 699.147 625.311 729.846 636.578 747.776C655.83 778.282 699.87 818.978 707.725 843.486C708.884 846.969 710.043 850.194 711.137 853.289Z" fill="#1D1951"/>
<path d="M779.901 938.616C777.39 934.037 762.066 907.014 748.159 851.161C732.642 856.772 717.575 851.935 709.27 848.001C715.579 866.446 721.181 877.023 716.352 897.017C714.871 903.208 717.125 909.335 722.275 912.496L772.818 945.324C776.875 947.968 782.283 942.873 779.901 938.616Z" fill="url(#paint3_linear_731_42907)"/>
<path d="M779.901 938.616C778.421 935.907 772.368 925.201 764.835 905.208C757.495 906.756 758.59 915.076 750.992 915.398C739.982 915.785 742.429 896.049 734.123 882.699C728.071 873.025 720.86 872.896 717.383 873.476C718.67 880.442 718.67 887.665 716.481 896.952C715 903.144 717.254 909.271 722.405 912.431L772.948 945.259C776.875 947.968 782.284 942.873 779.901 938.616Z" fill="#333133"/>
<path d="M643.081 450.003C643.081 450.003 649.133 463.418 649.068 478.122C649.004 505.662 632.264 512.369 632.264 512.369" stroke="#333133" stroke-width="1.23837" stroke-linecap="round" stroke-linejoin="round"/>
<path d="M571.099 338.942L583.976 342.49C583.976 342.49 579.018 348.423 574.382 346.488C569.746 344.618 571.099 338.942 571.099 338.942Z" fill="#FF7341"/>
<path d="M788.013 400.922C745.905 371.706 730.195 329.978 730.195 329.978C697.293 388.023 697.937 441.36 697.937 441.36C680.167 417.304 638.058 386.862 607.797 387.185C577.536 387.507 565.238 397.504 565.238 397.504L517.399 405.888C517.399 405.888 511.283 396.859 492.74 397.246C492.74 397.246 459.903 394.15 414.897 448.777C365.835 508.306 331.067 619.431 379.549 638.586C418.052 653.871 430.543 616.335 452.885 615.884C475.227 615.432 486.043 615.045 495.637 605.113C495.637 605.113 494.671 601.824 493.577 596.148C553.133 577.574 614.429 573.768 614.429 573.768L628.594 507.081C628.594 507.081 653.704 548.357 702.315 548.357C757.365 548.357 773.848 484.959 776.037 458.709C778.226 432.46 766.701 434.201 763.868 425.817C761.035 417.433 772.56 418.529 781.059 412.918C789.558 407.307 788.013 400.922 788.013 400.922Z" fill="url(#paint4_linear_731_42907)"/>
<path d="M576.699 392.344C573.93 391.377 565.238 397.504 565.238 397.504L561.375 346.553H519.524L517.399 405.888C517.399 405.888 514.824 401.373 505.745 398.858C505.745 398.858 499.822 465.03 551.588 462.837C603.354 460.644 589.576 396.923 576.699 392.344Z" fill="url(#paint5_linear_731_42907)"/>
<path d="M550.43 354.421C550.43 354.421 563.114 359.065 563.886 379.574C563.886 379.574 568.2 354.808 562.019 354.808C555.967 354.873 550.43 354.421 550.43 354.421Z" fill="#333133"/>
<path d="M538.004 354.292C538.004 354.292 575.476 356.549 586.164 352.035C596.852 347.52 594.148 336.556 594.148 336.556L604.708 333.976C604.708 333.976 603.999 302.696 573.802 292.055C543.605 281.413 520.684 331.396 538.004 354.292Z" fill="url(#paint6_linear_731_42907)"/>
<path d="M563.499 329.462C563.305 329.462 563.115 329.403 562.955 329.294C562.795 329.185 562.671 329.03 562.6 328.85C562.529 328.669 562.513 328.472 562.556 328.282C562.598 328.093 562.696 327.921 562.838 327.788C562.967 327.668 575.798 315.885 589.671 325.44C589.882 325.585 590.027 325.809 590.073 326.061C590.12 326.313 590.064 326.574 589.919 326.785C589.774 326.997 589.551 327.142 589.299 327.188C589.047 327.235 588.787 327.179 588.576 327.034C575.97 318.352 564.274 329.091 564.158 329.2C563.979 329.368 563.743 329.461 563.499 329.462Z" fill="#333133"/>
<path d="M587.516 307.791L588.546 313.918C588.564 314.063 588.554 314.209 588.515 314.349C588.477 314.49 588.41 314.621 588.321 314.735C588.231 314.849 588.119 314.944 587.992 315.014C587.864 315.084 587.724 315.128 587.58 315.144H587.258C583.137 314.37 571.548 312.5 563.5 314.886C563.337 314.941 563.16 314.932 563.004 314.86C562.848 314.788 562.726 314.658 562.663 314.499C562.63 314.427 562.612 314.35 562.61 314.271C562.609 314.192 562.624 314.114 562.654 314.041C562.684 313.968 562.729 313.903 562.786 313.848C562.843 313.794 562.911 313.752 562.985 313.725C569.852 308.777 578.245 306.424 586.679 307.082C586.874 307.1 587.059 307.177 587.209 307.304C587.359 307.431 587.466 307.601 587.516 307.791Z" fill="#333133"/>
<path d="M506.904 492.956C506.904 492.956 512.956 512.756 508.707 557.258C504.715 599.76 496.216 605.887 496.216 605.887C496.216 605.887 484.305 577.445 492.224 532.621C500.144 487.797 506.904 492.956 506.904 492.956Z" fill="#25215E"/>
<path d="M571.099 338.942L583.976 342.49C583.976 342.49 579.018 348.423 574.382 346.488C569.746 344.618 571.099 338.942 571.099 338.942Z" fill="#E53E41"/>
<path d="M506.583 492.698C506.583 492.698 535.493 488.119 550.945 497.471C564.144 505.468 558.607 524.752 551.718 538.49C549.567 542.721 546.082 546.122 541.802 548.164C537.553 550.163 532.08 552.55 528.024 553.195C520.491 554.484 518.173 551.711 519.782 544.617C521.328 537.522 526.929 533.459 529.633 537.522L532.08 531.073C532.08 531.073 527.251 519.27 537.038 511.724C537.038 511.724 496.153 532.879 490.101 549.647C490.101 549.647 491.71 527.332 498.342 506.049C499.252 502.921 500.482 499.895 502.012 497.019C503.3 494.44 504.781 492.827 506.583 492.698Z" fill="url(#paint7_linear_731_42907)"/>
<path d="M555.773 515.723C555.773 515.723 557.576 526.687 560.216 530.557C562.856 534.426 560.151 538.619 555.709 536.361C553.125 535.056 551.076 532.889 549.914 530.234L555.773 515.723Z" fill="#F9D039"/>
<path d="M506.003 492.827C506.003 492.827 454.816 502.695 402.47 559.386C401.27 560.704 399.649 561.56 397.885 561.808C396.122 562.055 394.328 561.677 392.812 560.74C391.138 559.644 389.851 557.774 390.173 554.742C391.074 546.552 403.307 545.391 414.06 539.07C442.261 522.559 429.899 514.562 460.804 505.339C485.85 497.858 481.665 479.864 484.755 469.545C485.077 468.384 487.395 465.933 489.391 470.383C492.482 477.09 496.409 492.827 506.003 492.827Z" fill="#25215E"/>
<path d="M668.579 575.639C668.579 575.639 670.703 499.406 623.959 494.633C577.215 489.861 550.044 562.159 515.34 626.654C485.916 681.281 391.784 855.224 363.647 907.207C361.136 911.851 365.836 916.301 370.408 913.657C391.526 901.338 428.355 878.378 433.892 865.286C441.747 846.776 428.677 844.647 446.705 819.301C464.733 793.954 511.67 743.971 563.565 703.21C610.438 666.383 630.913 597.116 629.432 564.739C629.303 564.739 646.301 555.323 668.579 575.639Z" fill="#46437B"/>
<path d="M623.894 494.698C577.15 489.989 550.043 562.224 515.275 626.719C499.693 655.677 465.891 718.173 433.376 778.282L443.42 777.25C443.42 777.25 468.531 732.297 525.705 620.914C567.041 540.36 599.427 478.316 649.069 507.532C642.641 500.165 633.623 495.567 623.894 494.698Z" fill="#686596"/>
<path d="M652.223 564.997C656.859 566.545 668.577 575.897 668.577 575.897C668.771 573.962 660.207 568.931 653.254 551.647C648.682 540.424 643.467 524.817 633.23 526.365C615.33 529.073 613.914 559.579 609.729 585.055C597.56 658.644 558.413 697.018 523.902 736.876L525.126 735.78C538.582 723.848 565.238 706.112 589.318 678.702C613.463 651.291 626.34 617.109 629.302 564.739C629.302 564.739 639.153 560.611 652.223 564.997Z" fill="#25215E"/>
<path d="M463.894 797.566C460.16 778.024 447.154 770.865 438.783 768.221C408.136 824.912 377.617 881.28 363.581 907.272C361.07 911.915 365.77 916.366 370.341 913.721C391.46 901.403 428.288 878.443 433.826 865.35C441.681 846.84 428.61 844.712 446.574 819.365C450.888 813.303 456.747 805.886 463.894 797.566Z" fill="url(#paint8_linear_731_42907)"/>
<path d="M438.27 834.263C427.582 833.425 416.508 847.678 412.258 860.706C408.073 873.734 396.935 885.214 387.727 885.214C383.414 885.214 380.967 881.538 379.615 877.668L363.647 907.207C361.136 911.851 365.836 916.301 370.408 913.657C391.526 901.338 428.355 878.378 433.892 865.285C439.751 851.29 433.763 846.711 438.27 834.263Z" fill="#333133"/>
<path d="M658.79 405.888C686.605 433.621 697.679 474.446 697.679 474.446C696.585 459.419 698.001 441.36 698.001 441.36C689.309 429.622 674.822 416.336 658.79 405.888Z" fill="#25215E"/>
<path d="M565.625 460.322C565.625 460.322 558.542 455.936 557.512 444.134C556.804 436.007 561.118 429.364 567.363 424.721C561.397 426.572 556.342 430.6 553.198 436.007C553.198 436.007 542.188 428.526 527.058 433.75C529.054 433.556 531.05 433.492 533.046 433.492C539.806 433.492 545.923 435.298 550.494 439.361C560.989 448.777 553.713 462.708 553.713 462.708C553.713 462.708 558.929 462.128 560.796 461.676C562.427 461.306 564.039 460.854 565.625 460.322Z" fill="#FF7341"/>
<path d="M591.443 303.083C591.443 303.083 574.896 295.408 560.795 307.017C546.759 318.627 552.49 342.683 541.93 351.97C531.371 361.193 521.198 370.674 522.421 386.153C523.645 401.631 517.399 405.953 517.399 405.953C517.399 405.953 506.067 392.602 480.764 399.052C462.671 403.695 442.39 418.852 414.897 448.842C414.897 448.842 403.887 433.363 413.674 415.949C423.46 398.536 432.346 406.598 440.136 393.054C447.927 379.51 447.605 370.158 470.462 357.259C493.319 344.36 499.5 330.816 502.977 321.787C506.454 312.757 518.558 293.796 547.081 289.668C576.506 285.283 591.443 303.083 591.443 303.083Z" fill="#333133"/>
<path d="M823.991 305.046C822.236 305.031 820.512 304.564 818.981 303.689C816.296 302.106 814.229 299.626 813.13 296.67C812.031 293.713 811.966 290.461 812.948 287.462C813.407 286.062 814.163 284.782 815.161 283.713C816.159 282.643 817.375 281.81 818.723 281.273C820.083 280.765 821.535 280.567 822.978 280.694C824.42 280.821 825.818 281.269 827.072 282.007C829.78 283.562 831.855 286.051 832.923 289.026C834.057 291.975 834.122 295.241 833.105 298.235C832.645 299.634 831.89 300.914 830.892 301.983C829.894 303.053 828.677 303.886 827.329 304.423C826.263 304.835 825.132 305.046 823.991 305.046ZM822.057 283.306C821.233 283.305 820.416 283.457 819.645 283.754C818.649 284.158 817.752 284.78 817.018 285.576C816.283 286.372 815.729 287.323 815.395 288.361C814.624 290.765 814.683 293.365 815.563 295.731C816.442 298.096 818.089 300.083 820.23 301.363C821.155 301.914 822.188 302.252 823.255 302.353C824.323 302.453 825.399 302.313 826.407 301.943C827.404 301.538 828.3 300.917 829.035 300.121C829.769 299.325 830.324 298.374 830.658 297.336C831.464 294.938 831.405 292.324 830.491 289.966C829.643 287.582 827.988 285.585 825.824 284.334C824.673 283.674 823.377 283.32 822.057 283.306Z" fill="#333133"/>
<path d="M856.41 312.213H835.416L830.992 274.196H868.295L856.41 312.213Z" fill="#C0C0D1"/>
<path d="M847.561 264.029C847.908 263.41 848.342 262.791 848.689 262.084C849.041 261.454 849.36 260.804 849.643 260.139C850.145 258.932 850.439 257.646 850.511 256.337C850.52 255.198 850.252 254.073 849.73 253.066C849.605 252.818 849.46 252.581 849.296 252.358L849.036 251.828C848.949 251.651 848.776 251.386 848.689 251.209C848.232 250.381 847.827 249.525 847.474 248.645C846.749 246.836 846.281 244.931 846.086 242.987C845.914 240.996 846.09 238.991 846.607 237.063C847.606 233.363 849.927 230.178 853.113 228.134C853.425 227.941 853.799 227.879 854.155 227.962C854.511 228.044 854.822 228.264 855.022 228.576C855.141 228.756 855.212 228.966 855.227 229.183C855.242 229.4 855.201 229.617 855.108 229.813C853.869 232.465 853.05 235.3 852.679 238.213C852.428 240.875 852.753 243.561 853.634 246.081C853.894 246.7 854.154 247.407 854.414 248.026C854.481 248.185 854.569 248.333 854.675 248.468L854.935 249.087C855.189 249.565 855.393 250.069 855.542 250.59C856.248 252.664 856.398 254.892 855.976 257.044C855.556 259.006 854.661 260.829 853.373 262.349C852.782 263.069 852.145 263.749 851.465 264.382C850.77 264.992 850.014 265.525 849.209 265.974C849.056 266.061 848.887 266.117 848.712 266.138C848.537 266.159 848.36 266.144 848.19 266.095C848.021 266.045 847.863 265.963 847.725 265.851C847.587 265.739 847.473 265.601 847.388 265.443C847.253 265.229 847.189 264.976 847.204 264.722C847.22 264.467 847.314 264.225 847.474 264.029H847.561Z" fill="#333133"/>
<path d="M931.134 768.118L866.734 933.53H871.866L944.722 768.118H931.134Z" fill="#AFADCB"/>
<path d="M1045.04 768.118L1078.8 933.53H1074.46L1030.01 768.118H1045.04Z" fill="#AFADCB"/>
<path d="M1061.52 873.047H895.284L895.935 866.43H1062.17L1061.52 873.047Z" fill="#AFADCB"/>
<path d="M1089.2 776.244H885.31C884.572 776.267 883.837 776.143 883.148 775.879C882.459 775.615 881.831 775.216 881.299 774.707C880.767 774.198 880.342 773.588 880.051 772.914C879.759 772.239 879.606 771.513 879.6 770.779C879.588 770.513 879.612 770.247 879.672 769.988C879.888 768.286 880.704 766.716 881.974 765.557C883.245 764.398 884.888 763.725 886.611 763.659H1090.51C1091.24 763.636 1091.98 763.761 1092.67 764.025C1093.36 764.289 1093.98 764.687 1094.52 765.196C1095.05 765.705 1095.47 766.315 1095.76 766.99C1096.06 767.664 1096.21 768.39 1096.22 769.125C1096.23 769.39 1096.2 769.656 1096.14 769.916C1095.96 771.632 1095.16 773.223 1093.88 774.389C1092.6 775.555 1090.94 776.215 1089.2 776.244Z" fill="#373662"/>
<path d="M1091.82 725.467L1069.27 729.587L1068.1 744.292L1096.22 729.84L1091.82 725.467Z" fill="#333133"/>
<path d="M1041.09 706.325C1023.32 706.325 1007.55 720.459 1005.74 737.826C1004.71 748.348 1008.98 757.666 1016.47 763.37H1053.95C1062.61 757.602 1068.82 748.348 1069.91 737.826C1071.72 720.396 1058.8 706.325 1041.09 706.325Z" fill="#DCDDE2"/>
<path d="M1009.81 724.96H1068.43C1068.43 724.96 1062.87 706.325 1041.03 706.325C1018.93 706.325 1009.81 724.96 1009.81 724.96Z" fill="#C0C0D1"/>
<path d="M984.87 741.629C986.693 744.108 989.239 745.987 992.173 747.017C993.642 747.532 995.212 747.705 996.761 747.524C998.339 747.363 999.84 746.77 1001.09 745.813C1002.37 744.848 1003.36 743.553 1003.93 742.073C1004.53 740.537 1004.77 738.893 1004.64 737.256C1004.39 733.959 1003.02 730.839 1000.77 728.382C999.64 727.181 998.333 726.155 996.89 725.34C995.486 724.561 993.956 724.025 992.367 723.755C990.884 723.5 989.362 723.565 987.908 723.945C986.554 724.329 985.313 725.024 984.289 725.974C983.334 726.96 982.618 728.144 982.193 729.439C981.768 730.734 981.645 732.105 981.833 733.453C982.078 736.397 983.127 739.221 984.87 741.629ZM980.864 744.862C979.494 743.344 978.362 741.635 977.504 739.791C976.624 737.895 976.12 735.851 976.017 733.77C975.961 731.628 976.334 729.496 977.116 727.495C977.963 725.465 979.319 723.677 981.058 722.297C982.794 720.952 984.872 720.097 987.068 719.825C989.127 719.547 991.224 719.72 993.207 720.333C995.104 720.914 996.893 721.792 998.506 722.931C1000.06 724.048 1001.44 725.395 1002.58 726.924C1004.9 729.914 1006.27 733.507 1006.52 737.256C1006.59 739.15 1006.31 741.042 1005.68 742.834C1005.03 744.664 1003.94 746.316 1002.51 747.651C1001.02 748.997 999.229 749.975 997.278 750.503C995.293 750.999 993.224 751.086 991.203 750.757C987.2 749.934 983.574 747.866 980.864 744.862Z" fill="#333133"/>
<path d="M1040.83 707.303C1040.73 707.302 1040.63 707.296 1040.53 707.284C1040.5 707.284 1040.47 707.276 1040.44 707.276C1040.41 707.276 1040.35 707.271 1040.31 707.266C1038.98 707.089 1037.78 706.408 1036.96 705.37C1036.14 704.332 1035.77 703.02 1035.93 701.716V701.707C1036.1 700.279 1036.78 698.957 1037.86 697.98C1038.94 697.003 1040.33 696.435 1041.8 696.377C1042 696.34 1042.22 696.336 1042.43 696.365C1042.46 696.368 1042.49 696.373 1042.52 696.374C1042.56 696.374 1042.61 696.377 1042.65 696.383C1043.98 696.561 1045.18 697.242 1046 698.28C1046.82 699.317 1047.19 700.629 1047.03 701.932C1046.87 703.364 1046.19 704.692 1045.11 705.672C1044.03 706.652 1042.63 707.219 1041.16 707.271C1041.05 707.293 1040.94 707.304 1040.83 707.303ZM1040.53 705.376C1040.6 705.376 1040.68 705.386 1040.75 705.394L1040.8 705.4C1040.87 705.384 1040.94 705.376 1041 705.374C1042.02 705.359 1043 704.981 1043.75 704.311C1044.51 703.64 1044.99 702.722 1045.1 701.729C1045.21 700.923 1044.99 700.107 1044.49 699.46C1043.99 698.812 1043.25 698.385 1042.43 698.271C1042.36 698.271 1042.28 698.261 1042.21 698.254C1042.19 698.254 1042.18 698.248 1042.16 698.247C1042.09 698.262 1042.02 698.271 1041.96 698.273C1040.94 698.296 1039.96 698.68 1039.21 699.353C1038.45 700.026 1037.97 700.944 1037.85 701.937C1037.75 702.741 1037.97 703.552 1038.47 704.196C1038.97 704.84 1039.71 705.264 1040.53 705.376Z" fill="#333133"/>
<path d="M901.078 757.125C901.523 760.574 917.235 763.37 936.949 763.37C956.663 763.37 973.116 760.574 974.45 757.125H901.078Z" fill="#C0C0D1"/>
<defs>
<linearGradient id="paint0_linear_731_42907" x1="773.319" y1="299.667" x2="799.989" y2="257.431" gradientUnits="userSpaceOnUse">
<stop stop-color="#FF8658"/>
<stop offset="0.341103" stop-color="#FF9A72"/>
<stop offset="1" stop-color="#FFE76C"/>
</linearGradient>
<linearGradient id="paint1_linear_731_42907" x1="775.146" y1="294.355" x2="788.89" y2="256.851" gradientUnits="userSpaceOnUse">
<stop stop-color="#FF8658"/>
<stop offset="0.341103" stop-color="#FF9A72"/>
<stop offset="1" stop-color="#FFE76C"/>
</linearGradient>
<linearGradient id="paint2_linear_731_42907" x1="700.079" y1="400.453" x2="779.455" y2="255.524" gradientUnits="userSpaceOnUse">
<stop stop-color="#FF8658"/>
<stop offset="0.341103" stop-color="#FF9A72"/>
<stop offset="1" stop-color="#FFE76C"/>
</linearGradient>
<linearGradient id="paint3_linear_731_42907" x1="642.719" y1="727.467" x2="790.962" y2="930.362" gradientUnits="userSpaceOnUse">
<stop stop-color="#FF8658"/>
<stop offset="0.341103" stop-color="#FF9A72"/>
<stop offset="1" stop-color="#FFE76C"/>
</linearGradient>
<linearGradient id="paint4_linear_731_42907" x1="592.763" y1="165.471" x2="529.539" y2="864.061" gradientUnits="userSpaceOnUse">
<stop stop-color="#EAE9F7"/>
<stop offset="0.510417" stop-color="#8B89C2"/>
<stop offset="1" stop-color="#686596"/>
</linearGradient>
<linearGradient id="paint5_linear_731_42907" x1="348.452" y1="459.738" x2="682.972" y2="376.625" gradientUnits="userSpaceOnUse">
<stop stop-color="#FF8658"/>
<stop offset="0.341103" stop-color="#FF9A72"/>
<stop offset="1" stop-color="#FFE76C"/>
</linearGradient>
<linearGradient id="paint6_linear_731_42907" x1="490.513" y1="346.556" x2="578.38" y2="292.273" gradientUnits="userSpaceOnUse">
<stop stop-color="#FF8658"/>
<stop offset="0.341103" stop-color="#FF9A72"/>
<stop offset="1" stop-color="#FFE76C"/>
</linearGradient>
<linearGradient id="paint7_linear_731_42907" x1="466.222" y1="577.504" x2="520.338" y2="468.731" gradientUnits="userSpaceOnUse">
<stop stop-color="#FF8658"/>
<stop offset="0.341103" stop-color="#FF9A72"/>
<stop offset="1" stop-color="#FFE76C"/>
</linearGradient>
<linearGradient id="paint8_linear_731_42907" x1="559.199" y1="630.674" x2="242.186" y2="882.59" gradientUnits="userSpaceOnUse">
<stop stop-color="#FF8658"/>
<stop offset="0.341103" stop-color="#FF9A72"/>
<stop offset="1" stop-color="#FFE76C"/>
</linearGradient>
</defs>
</svg>
