<svg width="1022" height="984" viewBox="0 0 1022 984" fill="none" xmlns="http://www.w3.org/2000/svg">
<path d="M329.959 946.753L284.261 946.891C275.225 946.331 266.198 945.718 257.162 945.219C230.574 943.861 204.138 940.376 178.108 934.798C147.241 928.01 117.56 918.054 90.7051 900.981C70.2159 887.965 52.4776 872.065 39.9877 850.977C22.3216 821.131 21.0477 789.158 27.8733 756.136C32.7585 732.454 41.4264 710.032 49.5488 687.41C54.9086 672.492 58.4307 657.256 54.8682 641.568C52.204 629.786 48.6136 618.231 44.1306 607.011C35.7631 586.192 26.1492 565.867 17.5799 545.136C0.467566 503.657 -3.53648 460.981 5.99797 416.975C15.7834 371.698 33.9208 330.367 61.5084 293.004C94.1551 248.806 132.163 210.518 180.248 183.016C213.945 163.718 249.983 151.601 289.049 149.555C332.421 147.277 372.886 157.551 409.199 181.1C437.261 199.291 464.195 219.222 491.357 238.758C521.839 260.694 551.935 283.122 584.604 301.878C609.588 316.231 635.899 324.689 664.978 321.429C689.374 318.726 713.716 315.462 738.032 312.04C768.777 307.696 799.525 304.15 830.687 306.923C858.957 309.467 885.468 317.32 909.384 332.886C940.916 353.399 961.997 382.236 975.495 416.836C994.279 464.99 996.644 514.841 989.537 565.414C986.397 587.775 981.885 609.939 978.499 632.267C975.405 652.647 977.951 672.3 987.463 690.969C993.086 701.996 998.428 713.209 1003.18 724.634C1014.77 752.456 1022.69 781.139 1021.55 811.655C1020.73 833.764 1014.41 854.111 1001.26 872.119C985.971 893.054 965.132 906.703 941.636 916.696C915.437 927.829 887.877 933.513 859.685 936.315C836.961 938.674 814.06 938.79 791.314 936.661C769.188 934.545 747.053 932.411 724.893 930.725C697.327 928.625 669.744 926.683 642.136 925.197C607.769 923.355 573.328 923.143 539.055 926.384C506.311 929.454 473.757 934.364 441.049 937.864C414.737 940.678 388.335 942.677 361.977 944.86C351.258 945.708 340.6 946.125 329.959 946.753Z" fill="#EAE9F7"/>
<path d="M255.914 832.714H111.332L174.537 205.555H319.119L255.914 832.714Z" fill="#333133"/>
<path d="M471.197 849.058H340.324L370.771 547.039H501.644L471.197 849.058Z" fill="#333133"/>
<path d="M683.125 861.018H554.244L572.417 680.588H701.298L683.125 861.018Z" fill="#333133"/>
<path d="M660.648 891.475H523L542.448 698.049H680.096L660.648 891.475Z" fill="#DCDDE2"/>
<path d="M542.448 698.049L525.79 863.569C564.446 864.686 611.71 850.015 620.717 774.75C624.861 740.306 632.194 715.43 639.447 698.049H542.448Z" fill="#C0C0D1"/>
<path d="M445.612 891.476H309L342.077 563.066H478.689L445.612 891.476Z" fill="#DCDDE2"/>
<path d="M228.975 891.474H93L160.35 223.254H296.245L228.975 891.474Z" fill="#DCDDE2"/>
<path d="M228.975 891.474L296.245 223.254H223.953C219.888 286.64 221.961 377.373 242.843 498.643C263.167 616.883 166.248 807.917 154.212 891.554H228.975V891.474Z" fill="#EEEFF5"/>
<path d="M443.699 628.204C440.91 684.813 404.963 734.086 414.926 778.337C428.795 840.128 427.121 872.339 419.31 891.554H445.612L478.689 563.145H432.302C438.997 582.838 444.735 606.677 443.699 628.204Z" fill="#EEEFF5"/>
<path d="M187.772 186.575L305.689 186.483C306.567 186.486 307.408 186.834 308.028 187.452C308.648 188.07 308.997 188.907 308.998 189.78L309 202.172C308.997 203.045 308.647 203.881 308.026 204.497C307.405 205.114 306.563 205.46 305.686 205.462L187.769 205.553C186.891 205.551 186.05 205.202 185.43 204.585C184.81 203.967 184.461 203.13 184.46 202.257L184.457 189.865C184.46 188.992 184.81 188.156 185.432 187.54C186.053 186.923 186.894 186.576 187.772 186.575Z" fill="#F9D039"/>
<path d="M177.81 167.603L295.727 167.511C296.605 167.514 297.446 167.862 298.066 168.48C298.686 169.098 299.035 169.935 299.036 170.808L299.039 183.2C299.036 184.073 298.686 184.909 298.065 185.526C297.444 186.143 296.602 186.49 295.724 186.491L177.807 186.583C176.929 186.58 176.088 186.232 175.468 185.614C174.848 184.996 174.499 184.159 174.498 183.286L174.496 170.894C174.498 170.021 174.849 169.185 175.47 168.568C176.091 167.951 176.933 167.604 177.81 167.603Z" fill="#F9D039"/>
<path d="M169.286 148.641L287.203 148.549C288.081 148.551 288.922 148.9 289.542 149.518C290.162 150.136 290.511 150.973 290.512 151.846L290.515 164.237C290.512 165.11 290.162 165.947 289.541 166.563C288.919 167.18 288.078 167.527 287.2 167.529L169.312 167.605C168.434 167.603 167.593 167.254 166.972 166.636C166.352 166.018 166.003 165.181 166.002 164.308L166 151.916C165.999 151.048 166.345 150.216 166.961 149.602C167.578 148.988 168.414 148.642 169.286 148.641Z" fill="#F9D039"/>
<path d="M179.975 129.646L297.892 129.555C298.77 129.557 299.611 129.906 300.231 130.523C300.851 131.141 301.2 131.978 301.202 132.851L301.204 145.243C301.201 146.116 300.851 146.953 300.23 147.569C299.608 148.186 298.767 148.533 297.889 148.534L179.972 148.626C179.095 148.623 178.254 148.275 177.634 147.658C177.013 147.04 176.664 146.203 176.663 145.33L176.661 132.939C176.663 132.065 177.013 131.229 177.634 130.612C178.256 129.995 179.097 129.648 179.975 129.646Z" fill="#F9D039"/>
<path d="M196.152 186.568H193.317V205.551H196.152V186.568Z" fill="#FFE76C"/>
<path d="M211.255 186.566H208.42V205.549H211.255V186.566Z" fill="#FFE76C"/>
<path d="M226.359 186.542H223.523V205.525H226.359V186.542Z" fill="#FFE76C"/>
<path d="M241.462 186.518H238.627V205.5H241.462V186.518Z" fill="#FFE76C"/>
<path d="M256.565 186.517H253.73V205.499H256.565V186.517Z" fill="#FFE76C"/>
<path d="M271.668 186.515H268.833V205.498H271.668V186.515Z" fill="#FFE76C"/>
<path d="M186.19 167.598H183.354V186.581H186.19V167.598Z" fill="#FFE76C"/>
<path d="M201.294 167.573H198.458V186.556H201.294V167.573Z" fill="#FFE76C"/>
<path d="M216.397 167.573H213.562V186.555H216.397V167.573Z" fill="#FFE76C"/>
<path d="M231.5 167.571H228.665V186.553H231.5V167.571Z" fill="#FFE76C"/>
<path d="M177.669 148.639H174.834V167.621H177.669V148.639Z" fill="#FFE76C"/>
<path d="M192.773 148.614H189.938V167.596H192.773V148.614Z" fill="#FFE76C"/>
<path d="M207.898 148.613H205.063V167.595H207.898V148.613Z" fill="#FFE76C"/>
<path d="M223.001 148.588H220.166V167.57H223.001V148.588Z" fill="#FFE76C"/>
<path d="M188.355 129.641H185.52V148.624H188.355V129.641Z" fill="#FFE76C"/>
<path d="M203.459 129.617H200.624V148.599H203.459V129.617Z" fill="#FFE76C"/>
<path d="M218.562 129.616H215.727V148.598H218.562V129.616Z" fill="#FFE76C"/>
<path d="M286.795 186.49H283.959V205.473H286.795V186.49Z" fill="#FFE76C"/>
<path d="M301.898 186.489H299.062V205.471H301.898V186.489Z" fill="#FFE76C"/>
<path d="M246.626 167.547H243.791V186.529H246.626V167.547Z" fill="#FFE76C"/>
<path d="M261.729 167.545H258.894V186.527H261.729V167.545Z" fill="#FFE76C"/>
<path d="M276.832 167.521H273.997V186.503H276.832V167.521Z" fill="#FFE76C"/>
<path d="M291.935 167.519H289.1V186.501H291.935V167.519Z" fill="#FFE76C"/>
<path d="M238.105 148.587H235.27V167.569H238.105V148.587Z" fill="#FFE76C"/>
<path d="M253.208 148.562H250.373V167.545H253.208V148.562Z" fill="#FFE76C"/>
<path d="M268.311 148.561H265.476V167.544H268.311V148.561Z" fill="#FFE76C"/>
<path d="M283.413 148.536H280.578V167.519H283.413V148.536Z" fill="#FFE76C"/>
<path d="M233.665 129.592H230.83V148.574H233.665V129.592Z" fill="#FFE76C"/>
<path d="M248.769 129.59H245.934V148.572H248.769V129.59Z" fill="#FFE76C"/>
<path d="M263.895 129.565H261.06V148.548H263.895V129.565Z" fill="#FFE76C"/>
<path d="M278.998 129.564H276.163V148.546H278.998V129.564Z" fill="#FFE76C"/>
<path d="M294.101 129.563H291.266V148.546H294.101V129.563Z" fill="#FFE76C"/>
<path d="M186.772 110.575L304.689 110.483C305.567 110.486 306.408 110.834 307.028 111.452C307.648 112.07 307.997 112.907 307.998 113.78L308 126.172C307.997 127.045 307.647 127.881 307.026 128.497C306.405 129.114 305.563 129.46 304.686 129.462L186.769 129.553C185.891 129.551 185.05 129.202 184.43 128.585C183.81 127.967 183.461 127.13 183.46 126.257L183.457 113.865C183.46 112.992 183.81 112.156 184.432 111.54C185.053 110.923 185.894 110.576 186.772 110.575Z" fill="#F9D039"/>
<path d="M176.81 91.6028L294.727 91.5111C295.605 91.5138 296.446 91.8622 297.066 92.48C297.686 93.0978 298.035 93.9348 298.036 94.8078L298.039 107.2C298.036 108.073 297.686 108.909 297.065 109.526C296.444 110.143 295.602 110.49 294.724 110.491L176.807 110.583C175.929 110.58 175.088 110.232 174.468 109.614C173.848 108.996 173.499 108.159 173.498 107.286L173.496 94.8941C173.498 94.021 173.849 93.1846 174.47 92.5678C175.091 91.951 175.933 91.604 176.81 91.6028Z" fill="#F9D039"/>
<path d="M168.286 72.6405L286.203 72.5488C287.081 72.5515 287.922 72.8999 288.542 73.5177C289.162 74.1355 289.511 74.9725 289.512 75.8455L289.515 88.2373C289.512 89.1103 289.162 89.9467 288.541 90.5635C287.919 91.1803 287.078 91.5273 286.2 91.5285L168.312 91.6053C167.434 91.6027 166.593 91.2543 165.972 90.6363C165.352 90.0183 165.003 89.1811 165.002 88.3079L165 75.9162C164.999 75.0485 165.345 74.2161 165.961 73.6019C166.578 72.9876 167.414 72.6419 168.286 72.6405Z" fill="#F9D039"/>
<path d="M178.975 53.6464L296.892 53.5547C297.77 53.5573 298.611 53.9056 299.231 54.5235C299.851 55.1413 300.2 55.9783 300.202 56.8514L300.204 69.2432C300.201 70.1162 299.851 70.9526 299.23 71.5694C298.608 72.1862 297.767 72.5332 296.889 72.5344L178.972 72.6261C178.095 72.6235 177.254 72.2753 176.634 71.6576C176.013 71.04 175.664 70.2032 175.663 69.3303L175.661 56.9385C175.663 56.0653 176.013 55.2287 176.634 54.6117C177.256 53.9947 178.097 53.6476 178.975 53.6464Z" fill="#F9D039"/>
<path d="M195.152 110.568H192.317V129.551H195.152V110.568Z" fill="#FFE76C"/>
<path d="M210.255 110.566H207.42V129.549H210.255V110.566Z" fill="#FFE76C"/>
<path d="M225.359 110.542H222.523V129.525H225.359V110.542Z" fill="#FFE76C"/>
<path d="M240.462 110.518H237.627V129.5H240.462V110.518Z" fill="#FFE76C"/>
<path d="M255.565 110.517H252.73V129.499H255.565V110.517Z" fill="#FFE76C"/>
<path d="M270.668 110.515H267.833V129.498H270.668V110.515Z" fill="#FFE76C"/>
<path d="M185.19 91.5982H182.354V110.581H185.19V91.5982Z" fill="#FFE76C"/>
<path d="M200.294 91.5732H197.458V110.556H200.294V91.5732Z" fill="#FFE76C"/>
<path d="M215.397 91.5728H212.562V110.555H215.397V91.5728Z" fill="#FFE76C"/>
<path d="M230.5 91.571H227.665V110.553H230.5V91.571Z" fill="#FFE76C"/>
<path d="M176.669 72.6387H173.834V91.6212H176.669V72.6387Z" fill="#FFE76C"/>
<path d="M191.773 72.614H188.938V91.5964H191.773V72.614Z" fill="#FFE76C"/>
<path d="M206.898 72.6126H204.063V91.595H206.898V72.6126Z" fill="#FFE76C"/>
<path d="M222.001 72.5878H219.166V91.5703H222.001V72.5878Z" fill="#FFE76C"/>
<path d="M187.355 53.6411H184.52V72.6236H187.355V53.6411Z" fill="#FFE76C"/>
<path d="M202.459 53.6168H199.624V72.5993H202.459V53.6168Z" fill="#FFE76C"/>
<path d="M217.562 53.6157H214.727V72.5981H217.562V53.6157Z" fill="#FFE76C"/>
<path d="M285.795 110.49H282.959V129.473H285.795V110.49Z" fill="#FFE76C"/>
<path d="M300.898 110.489H298.062V129.471H300.898V110.489Z" fill="#FFE76C"/>
<path d="M245.626 91.5467H242.791V110.529H245.626V91.5467Z" fill="#FFE76C"/>
<path d="M260.729 91.5448H257.894V110.527H260.729V91.5448Z" fill="#FFE76C"/>
<path d="M275.832 91.5208H272.997V110.503H275.832V91.5208Z" fill="#FFE76C"/>
<path d="M290.935 91.5189H288.1V110.501H290.935V91.5189Z" fill="#FFE76C"/>
<path d="M237.105 72.5867H234.27V91.5691H237.105V72.5867Z" fill="#FFE76C"/>
<path d="M252.208 72.5624H249.373V91.5448H252.208V72.5624Z" fill="#FFE76C"/>
<path d="M267.311 72.5612H264.476V91.5437H267.311V72.5612Z" fill="#FFE76C"/>
<path d="M282.413 72.5365H279.578V91.5189H282.413V72.5365Z" fill="#FFE76C"/>
<path d="M232.665 53.5916H229.83V72.574H232.665V53.5916Z" fill="#FFE76C"/>
<path d="M247.769 53.5895H244.934V72.572H247.769V53.5895Z" fill="#FFE76C"/>
<path d="M262.895 53.5655H260.06V72.5479H262.895V53.5655Z" fill="#FFE76C"/>
<path d="M277.998 53.5636H275.163V72.5461H277.998V53.5636Z" fill="#FFE76C"/>
<path d="M293.101 53.5632H290.266V72.5456H293.101V53.5632Z" fill="#FFE76C"/>
<path d="M563.772 680.575L681.689 680.483C682.567 680.486 683.408 680.834 684.028 681.452C684.648 682.07 684.997 682.907 684.998 683.78L685 696.172C684.997 697.045 684.647 697.881 684.026 698.497C683.405 699.114 682.563 699.46 681.686 699.462L563.769 699.553C562.891 699.551 562.05 699.202 561.43 698.585C560.81 697.967 560.461 697.13 560.46 696.257L560.457 683.865C560.46 682.992 560.81 682.156 561.432 681.54C562.053 680.923 562.894 680.576 563.772 680.575Z" fill="#F9D039"/>
<path d="M553.81 661.603L671.727 661.511C672.605 661.514 673.446 661.862 674.066 662.48C674.686 663.098 675.035 663.935 675.036 664.808L675.039 677.2C675.036 678.073 674.686 678.909 674.065 679.526C673.444 680.143 672.602 680.49 671.724 680.491L553.807 680.583C552.929 680.58 552.088 680.232 551.468 679.614C550.848 678.996 550.499 678.159 550.498 677.286L550.496 664.894C550.498 664.021 550.849 663.185 551.47 662.568C552.091 661.951 552.933 661.604 553.81 661.603Z" fill="#F9D039"/>
<path d="M545.286 642.641L663.203 642.549C664.081 642.551 664.922 642.9 665.542 643.518C666.162 644.136 666.511 644.973 666.512 645.846L666.515 658.237C666.512 659.11 666.162 659.947 665.541 660.563C664.919 661.18 664.078 661.527 663.2 661.529L545.312 661.605C544.434 661.603 543.593 661.254 542.972 660.636C542.352 660.018 542.003 659.181 542.002 658.308L542 645.916C541.999 645.048 542.345 644.216 542.961 643.602C543.578 642.988 544.414 642.642 545.286 642.641Z" fill="#F9D039"/>
<path d="M555.975 623.646L673.892 623.555C674.77 623.557 675.611 623.906 676.231 624.523C676.851 625.141 677.2 625.978 677.202 626.851L677.204 639.243C677.201 640.116 676.851 640.953 676.23 641.569C675.608 642.186 674.767 642.533 673.889 642.534L555.972 642.626C555.095 642.623 554.254 642.275 553.634 641.658C553.013 641.04 552.664 640.203 552.663 639.33L552.661 626.939C552.663 626.065 553.013 625.229 553.634 624.612C554.256 623.995 555.097 623.648 555.975 623.646Z" fill="#F9D039"/>
<path d="M572.152 680.568H569.317V699.551H572.152V680.568Z" fill="#FFE76C"/>
<path d="M587.255 680.566H584.42V699.549H587.255V680.566Z" fill="#FFE76C"/>
<path d="M602.359 680.542H599.523V699.525H602.359V680.542Z" fill="#FFE76C"/>
<path d="M617.462 680.518H614.627V699.5H617.462V680.518Z" fill="#FFE76C"/>
<path d="M632.565 680.517H629.73V699.499H632.565V680.517Z" fill="#FFE76C"/>
<path d="M647.668 680.515H644.833V699.498H647.668V680.515Z" fill="#FFE76C"/>
<path d="M562.19 661.598H559.354V680.581H562.19V661.598Z" fill="#FFE76C"/>
<path d="M577.294 661.573H574.458V680.556H577.294V661.573Z" fill="#FFE76C"/>
<path d="M592.397 661.573H589.562V680.555H592.397V661.573Z" fill="#FFE76C"/>
<path d="M607.5 661.571H604.665V680.553H607.5V661.571Z" fill="#FFE76C"/>
<path d="M553.669 642.639H550.834V661.621H553.669V642.639Z" fill="#FFE76C"/>
<path d="M568.773 642.614H565.938V661.596H568.773V642.614Z" fill="#FFE76C"/>
<path d="M583.898 642.613H581.063V661.595H583.898V642.613Z" fill="#FFE76C"/>
<path d="M599.001 642.588H596.166V661.57H599.001V642.588Z" fill="#FFE76C"/>
<path d="M564.355 623.641H561.52V642.624H564.355V623.641Z" fill="#FFE76C"/>
<path d="M579.459 623.617H576.624V642.599H579.459V623.617Z" fill="#FFE76C"/>
<path d="M594.562 623.616H591.727V642.598H594.562V623.616Z" fill="#FFE76C"/>
<path d="M662.795 680.49H659.959V699.473H662.795V680.49Z" fill="#FFE76C"/>
<path d="M677.898 680.489H675.062V699.471H677.898V680.489Z" fill="#FFE76C"/>
<path d="M622.626 661.547H619.791V680.529H622.626V661.547Z" fill="#FFE76C"/>
<path d="M637.729 661.545H634.894V680.527H637.729V661.545Z" fill="#FFE76C"/>
<path d="M652.832 661.521H649.997V680.503H652.832V661.521Z" fill="#FFE76C"/>
<path d="M667.935 661.519H665.1V680.501H667.935V661.519Z" fill="#FFE76C"/>
<path d="M614.105 642.587H611.27V661.569H614.105V642.587Z" fill="#FFE76C"/>
<path d="M629.208 642.562H626.373V661.545H629.208V642.562Z" fill="#FFE76C"/>
<path d="M644.311 642.561H641.476V661.544H644.311V642.561Z" fill="#FFE76C"/>
<path d="M659.413 642.536H656.578V661.519H659.413V642.536Z" fill="#FFE76C"/>
<path d="M609.665 623.592H606.83V642.574H609.665V623.592Z" fill="#FFE76C"/>
<path d="M624.769 623.59H621.934V642.572H624.769V623.59Z" fill="#FFE76C"/>
<path d="M639.895 623.565H637.06V642.548H639.895V623.565Z" fill="#FFE76C"/>
<path d="M654.998 623.564H652.163V642.546H654.998V623.564Z" fill="#FFE76C"/>
<path d="M670.101 623.563H667.266V642.546H670.101V623.563Z" fill="#FFE76C"/>
<path d="M698.504 513.698C698.504 513.698 688.876 542.163 734.841 611.813C756.921 645.263 751.968 668.604 734.841 678.853C717.714 689.102 718.64 697.954 694.153 757.541C669.666 817.127 667.305 827.376 659.436 833.899C651.566 840.421 649.252 847.409 653.418 856.727C657.584 866.044 670.915 879.555 670.915 879.555H690.913C690.913 879.555 692.903 871.169 680.266 869.632C680.266 869.632 675.637 849.459 685.497 839.21C695.356 828.96 807.609 715.425 815.2 681.742C824.088 642.095 809.599 472.933 809.599 472.933C809.599 472.933 763.819 481.319 759.653 482.717C755.486 484.114 698.504 513.698 698.504 513.698Z" fill="#25215E"/>
<path d="M698.18 515.096C698.134 515.375 698.087 515.701 698.041 516.027L697.995 516.167L697.948 516.4L697.902 516.633L697.856 516.866L697.81 517.099L697.763 517.378C697.771 517.474 697.755 517.57 697.717 517.658C697.671 517.751 697.717 517.844 697.717 517.937C697.722 518.063 697.706 518.189 697.671 518.31C697.624 518.45 697.671 518.45 697.671 518.543C697.68 518.715 697.665 518.888 697.624 519.056V519.149C697.632 519.383 697.617 519.617 697.578 519.848V523.342C697.57 523.576 697.586 523.81 697.624 524.041V524.273C697.671 524.879 697.717 525.578 697.763 526.277V526.51C697.81 526.789 697.81 527.069 697.856 527.302C697.848 527.412 697.864 527.524 697.902 527.628C697.948 527.861 697.948 528.14 697.995 528.373L698.041 528.746C698.087 529.025 698.087 529.258 698.134 529.538L698.18 529.911L698.319 530.749L698.365 531.075C698.411 531.401 698.458 531.774 698.504 532.1L698.55 532.287C698.689 533.125 698.828 534.01 699.013 534.942L699.059 535.268C699.152 535.641 699.198 535.967 699.291 536.34L699.383 536.759C699.476 537.085 699.522 537.411 699.615 537.784L699.707 538.25C699.8 538.576 699.846 538.949 699.939 539.275L700.031 539.741L700.309 540.859L700.402 541.278C700.541 541.744 700.633 542.21 700.772 542.676L700.818 542.862C700.957 543.421 701.142 543.98 701.281 544.539V544.586C701.42 545.098 701.605 545.657 701.744 546.217L701.883 546.682C702.028 547.095 702.151 547.515 702.253 547.94L702.438 548.499C702.583 548.896 702.707 549.301 702.809 549.711L702.994 550.316L703.411 551.574L703.596 552.18C703.735 552.646 703.92 553.065 704.059 553.531L704.244 554.09C704.429 554.649 704.66 555.208 704.846 555.814L704.938 556.047C705.17 556.699 705.447 557.398 705.725 558.05L705.864 558.376C706.095 558.935 706.327 559.541 706.558 560.1L706.836 560.705C707.021 561.171 707.206 561.684 707.438 562.15L707.762 562.895C707.947 563.361 708.132 563.827 708.364 564.293L708.688 565.085C708.873 565.551 709.104 566.016 709.289 566.529L709.66 567.321L710.354 568.858L710.678 569.557C711.002 570.209 711.326 570.908 711.65 571.607L711.743 571.84C712.113 572.632 712.483 573.424 712.9 574.216L713.178 574.775C713.502 575.381 713.779 575.986 714.103 576.592L714.52 577.431C714.798 577.943 715.076 578.502 715.353 579.061L715.816 579.993L716.649 581.577L717.159 582.555L718.038 584.186L718.547 585.164C718.871 585.77 719.195 586.329 719.519 586.935L719.982 587.773C720.445 588.565 720.908 589.404 721.371 590.196L721.51 590.429C722.019 591.314 722.528 592.246 723.084 593.131L723.547 593.969C723.917 594.622 724.287 595.274 724.704 595.926L725.306 596.951L726.37 598.721L727.065 599.84L728.129 601.61L728.87 602.775L730.027 604.592L730.768 605.71C731.184 606.362 731.601 607.061 732.064 607.713L732.712 608.691C733.36 609.716 734.008 610.695 734.702 611.766C735.026 612.232 735.304 612.744 735.628 613.21L735.906 613.676L736.508 614.655L736.832 615.214L737.387 616.099L737.711 616.658L738.22 617.543L738.544 618.102L739.1 619.034L739.378 619.5C739.655 619.966 739.887 620.432 740.118 620.851L740.303 621.224C740.489 621.55 740.674 621.876 740.859 622.248L741.137 622.808L741.553 623.6L741.877 624.205L742.248 624.951L742.572 625.556L742.896 626.255L743.173 626.861L743.497 627.56L743.775 628.165C743.96 628.584 744.145 628.957 744.284 629.376C744.377 629.609 744.469 629.842 744.562 630.029L744.793 630.634L745.071 631.333L745.303 631.892L745.58 632.591L745.766 633.104L746.043 633.849L746.182 634.315C746.275 634.594 746.367 634.827 746.46 635.06L746.552 635.386C746.876 636.318 747.154 637.296 747.432 638.228L747.525 638.508C747.617 638.787 747.663 639.067 747.756 639.346L747.849 639.672C747.895 639.952 747.987 640.232 748.034 640.464L748.126 640.791C748.173 641.07 748.265 641.35 748.311 641.629L748.358 641.815C748.635 643.12 748.867 644.424 749.052 645.682V645.775C749.108 646.067 749.139 646.363 749.145 646.661V646.847C749.191 647.127 749.191 647.406 749.237 647.686V647.825C749.284 648.105 749.284 648.431 749.33 648.711C749.33 648.711 754.005 609.67 774.789 636.737C794.833 662.873 809.367 668.417 816.82 669.256C817.653 660.264 817.977 648.804 817.977 635.945L698.18 515.096Z" fill="#1D1951"/>
<path d="M725.583 797.281L680.451 791.318C668.277 821.647 665.499 828.868 659.481 833.899C651.612 840.422 649.298 847.41 653.464 856.728C657.63 866.045 670.961 879.556 670.961 879.556H690.958C690.958 879.556 692.949 871.17 680.312 869.633C680.312 869.633 675.683 849.46 685.543 839.21C689.014 835.53 705.447 818.805 725.583 797.281Z" fill="url(#paint0_linear_731_42753)"/>
<path d="M682.58 843.217C673.322 837.021 669.619 854.864 669.619 854.864C667.906 839.024 661.889 831.57 661.889 831.57C661.144 832.405 660.34 833.184 659.481 833.899C651.612 840.422 649.298 847.41 653.464 856.728C657.63 866.045 670.961 879.556 670.961 879.556H690.958C690.958 879.556 692.949 871.17 680.312 869.632C680.219 869.586 676.655 853.932 682.58 843.217Z" fill="#333133"/>
<path d="M807.006 335.404C807.006 335.404 720.445 357.254 719.103 410.225C717.76 463.196 763.031 468.88 763.031 468.88L807.006 335.404Z" fill="url(#paint1_linear_731_42753)"/>
<path d="M745.951 440.974C745.951 440.974 702.161 462.73 697.532 506.151C692.579 552.366 717.622 576.592 761.689 611.347C806.498 646.661 839.409 660.684 832.466 677.455C825.523 694.227 816.265 727.724 828.3 757.541C840.335 787.357 860.24 838.557 855.148 852.534C850.056 866.51 848.204 873.499 851.908 879.555H913.426C913.426 879.555 913.426 871.868 903.937 870.237C894.448 868.607 878.709 866.51 882.644 838.092C886.579 809.673 906.066 683.791 899.123 649.596C892.18 615.4 809.599 472.887 809.599 472.887L745.951 440.974Z" fill="#46437B"/>
<path d="M809.599 472.887L802.331 469.253L793.444 469.765C793.444 469.765 862.508 576.266 879.45 614.655C893.615 646.847 899.54 646.241 893.522 706.759C887.504 767.278 881.672 815.217 881.672 815.217L885.699 816.568C892.318 770.166 904.909 678.061 899.123 649.549C892.18 615.353 809.599 472.887 809.599 472.887Z" fill="#686596"/>
<path d="M820.151 556.502C837.294 543.962 849.401 531.316 847.191 528.256C844.982 525.197 829.293 532.882 812.15 545.422C795.006 557.962 782.9 570.608 785.109 573.667C787.319 576.727 803.007 569.042 820.151 556.502Z" fill="#333133"/>
<path d="M885.699 816.615L845.427 802.965C852.741 824.349 857.971 844.568 855.055 852.535C849.963 866.511 848.112 873.499 851.815 879.556H913.38C913.38 879.556 913.38 871.869 903.891 870.238C894.401 868.608 878.663 866.511 882.597 838.092C883.292 833.34 884.403 825.886 885.699 816.615Z" fill="url(#paint2_linear_731_42753)"/>
<path d="M881.625 815.218C881.625 815.218 877.737 840.468 882.32 851.649L885.653 816.615L881.625 815.218Z" fill="#FFE76C"/>
<path d="M903.937 870.192C896.253 868.887 884.495 867.256 882.366 851.649C874.404 854.165 877.321 868.048 877.321 868.048C868.572 860.128 858.527 858.405 853.157 858.125C849.639 868.468 848.714 874.384 851.908 879.556H913.38C913.38 879.509 913.38 871.822 903.937 870.192Z" fill="#333133"/>
<path d="M877.922 353.714C877.922 353.714 890.004 340.11 906.344 341.368L887.319 301.348C887.319 301.348 873.617 318.772 846.445 322.36L877.922 353.714Z" fill="url(#paint3_linear_731_42753)"/>
<path d="M906.971 341.284C909.67 339.985 907.576 329.919 902.295 318.799C897.013 307.68 890.544 299.718 887.845 301.017C885.147 302.315 887.241 312.382 892.522 323.501C897.804 334.621 904.273 342.582 906.971 341.284Z" fill="#333133"/>
<path d="M936.525 269.296L926.48 268.504L909.353 271.905L904.261 289.981L902.086 287.885L887.273 301.302C887.273 301.302 883.477 305.448 893.8 326.04L910.788 311.086C913.473 313.881 917.963 315.698 925.554 313.834C925.554 313.834 930.137 318.679 930.507 318.586C944.857 316.164 949.949 297.295 949.949 297.295L936.525 269.296Z" fill="url(#paint4_linear_731_42753)"/>
<path d="M852.787 320.077C874.404 325.574 889.032 354.086 883.153 388.189C877.274 422.291 860.98 421.779 860.656 445.585C860.425 461.286 841.076 461.099 843.39 469.578C844.455 473.445 849.362 476.194 849.547 482.204C849.686 488.12 845.52 491.521 845.844 502.703C846.168 513.884 847.371 528.466 847.371 528.466C847.371 528.466 806.359 539.321 785.065 573.796C785.065 573.796 772.104 560.425 778.261 530.656C784.417 500.886 779.511 493.385 767.475 481.319C755.44 469.252 757.94 449.033 757.94 449.033L745.904 440.973C745.904 440.973 779.603 363.311 806.96 335.451C821.171 321.009 840.613 316.955 852.787 320.077Z" fill="url(#paint5_linear_731_42753)"/>
<path fill-rule="evenodd" clip-rule="evenodd" d="M683.2 397.954C639.27 331.69 635.372 236.381 638.165 175.029L641.162 175.165C638.371 236.463 642.345 330.899 685.701 396.296C699.857 417.65 716.821 437.41 734.644 458.172C744.24 469.351 754.086 480.82 763.877 492.984C791.784 527.657 818.996 567.712 837.918 622.077C842.598 635.524 845.295 645.319 846.824 651.767C847.589 654.991 848.061 657.378 848.344 658.968C848.485 659.762 848.578 660.358 848.637 660.758C848.667 660.958 848.687 661.11 848.701 661.213L848.708 661.27L848.716 661.332L848.72 661.365L848.721 661.375L848.721 661.378L848.722 661.379C848.722 661.379 848.722 661.38 847.232 661.551C845.741 661.723 845.741 661.723 845.741 661.724L845.741 661.72L845.738 661.699C845.736 661.679 845.732 661.647 845.726 661.603C845.715 661.515 845.696 661.379 845.669 661.193C845.615 660.823 845.526 660.258 845.39 659.492C845.118 657.961 844.657 655.629 843.905 652.459C842.401 646.118 839.734 636.421 835.084 623.063C816.316 569.137 789.324 529.385 761.54 494.865C751.888 482.874 742.11 471.482 732.541 460.333C714.631 439.466 697.451 419.45 683.2 397.954Z" fill="#333133"/>
<path d="M847.371 528.466C847.371 528.466 856.814 579.574 852.972 604.312C852.139 609.67 845.612 619.174 842.002 621.783C835.243 626.628 828.763 622.435 824.55 620.618C819.551 618.428 809.229 613.676 809.136 606.921C809.09 604.964 811.358 601.936 813.441 599.84C822.699 590.522 824.874 596.718 824.874 596.718C824.874 596.718 831.448 595.647 809.043 547.94C809.043 547.987 830.753 531.262 847.371 528.466Z" fill="url(#paint6_linear_731_42753)"/>
<path d="M757.986 449.033C757.986 449.033 764.42 406.871 778.492 376.122C778.492 376.122 755.533 418.005 745.997 440.973L757.986 449.033Z" fill="#25215E"/>
<path d="M939.626 284.996C941.987 285.555 939.626 291.379 941.941 299.113C944.255 306.846 957.078 311.831 966.15 304.097C975.223 296.364 971.705 288.118 961.846 283.925C951.986 279.732 956.754 260.584 939.812 253.642C924.258 247.26 912.501 262.634 892.781 271.02C873.062 279.406 862.091 283.273 823.069 273.023C802.794 267.712 776.826 268.411 758.912 278.008C742.34 286.86 733.591 303.725 731.601 321.102C726.972 362.24 761.967 373.793 780.761 363.032C799.6 353.714 817.422 320.031 846.168 321.475C882.227 323.292 911.066 295.805 915.695 287.931C915.695 287.931 912.316 282.248 915.556 278.474C918.796 274.7 927.267 276.005 926.203 280.943C925.647 283.599 923.795 285.881 922.222 287.419C921.924 287.702 921.686 288.041 921.52 288.418C921.354 288.795 921.264 289.201 921.255 289.612C921.247 290.024 921.32 290.434 921.47 290.817C921.62 291.2 921.844 291.549 922.129 291.845L922.222 291.938L922.314 291.985C922.861 292.496 923.571 292.795 924.317 292.829C925.063 292.863 925.797 292.63 926.388 292.171C929.813 289.469 936.803 284.297 939.626 284.996Z" fill="#333133"/>
<path d="M908.612 301.348C908.612 301.348 907.964 307.498 910.788 311.132L902.271 318.772L908.612 301.348Z" fill="#FF7341"/>
<path d="M942.959 307.405C942.489 308.243 941.947 309.038 941.339 309.781C941.237 309.911 941.09 309.998 940.927 310.024C940.764 310.05 940.597 310.013 940.46 309.921C940.392 309.873 940.337 309.81 940.297 309.737C940.257 309.665 940.233 309.584 940.228 309.501C939.858 306.38 938.377 299.159 932.683 295.152C932.572 295.079 932.489 294.97 932.447 294.843C932.405 294.716 932.407 294.579 932.452 294.453C932.504 294.295 932.615 294.163 932.761 294.085C932.908 294.007 933.079 293.989 933.238 294.034C935.044 294.64 940.228 296.457 943.191 304.982C943.325 305.38 943.375 305.801 943.335 306.219C943.295 306.637 943.167 307.041 942.959 307.405Z" fill="#333133"/>
<path d="M936.108 310.759C936.038 310.759 935.968 310.749 935.901 310.728C935.815 310.701 927.321 307.932 928.853 299.729C928.887 299.546 928.991 299.385 929.143 299.281C929.295 299.176 929.482 299.136 929.663 299.171C929.844 299.205 930.005 299.31 930.109 299.463C930.212 299.616 930.252 299.805 930.218 299.987C928.911 306.982 936.012 309.298 936.315 309.393C936.474 309.443 936.609 309.548 936.697 309.69C936.785 309.832 936.82 310.001 936.795 310.166C936.77 310.331 936.687 310.482 936.561 310.591C936.435 310.7 936.274 310.759 936.108 310.759Z" fill="#333133"/>
<path d="M917.083 304.889L916.713 304.703C916.658 304.671 916.598 304.651 916.536 304.643C916.473 304.635 916.41 304.64 916.349 304.658C916.289 304.675 916.233 304.704 916.184 304.744C916.135 304.784 916.094 304.833 916.065 304.889C916.035 304.937 916.015 304.991 916.007 305.047C916 305.103 916.003 305.161 916.018 305.215L916.759 310.48C916.757 310.544 916.77 310.607 916.797 310.665C916.823 310.723 916.863 310.774 916.912 310.815C916.961 310.855 917.019 310.884 917.08 310.898C917.142 310.913 917.206 310.913 917.268 310.899C917.361 310.899 917.407 310.852 917.453 310.852L917.731 310.713C919.166 309.967 919.86 309.036 919.86 308.011C919.814 306.194 917.361 304.982 917.083 304.889Z" fill="#333133"/>
<path d="M823.763 741.654C821.264 717.521 840.752 692.317 850.935 671.865C858.619 656.398 847.695 643.213 831.771 639.207C823.902 637.25 815.802 635.619 809.043 634.128C792.148 630.355 777.057 622.202 765.901 614.655C808.488 647.592 839.132 661.243 832.42 677.455C826.726 691.292 819.412 716.543 823.763 741.654Z" fill="#25215E"/>
<path d="M919.12 214.555C908.612 215.114 901.808 227.18 907.594 238.035C913.38 248.89 922.916 250.241 922.916 250.241L926.11 251.918C938.747 237.29 932.914 213.809 919.12 214.555Z" fill="#333133"/>
<path d="M920.512 256.287C919.783 256.287 919.072 256.053 918.485 255.618C917.898 255.182 917.464 254.569 917.248 253.868C917.032 253.167 917.045 252.415 917.285 251.722C917.524 251.028 917.978 250.43 918.58 250.016C922.72 247.384 927.535 246.026 932.431 246.109C933.336 246.14 934.191 246.532 934.809 247.199C935.427 247.865 935.756 248.751 935.725 249.662C935.693 250.572 935.304 251.433 934.642 252.055C933.98 252.677 933.099 253.008 932.195 252.977C928.754 252.942 925.374 253.881 922.438 255.686C921.871 256.078 921.199 256.287 920.512 256.287Z" fill="#FF7341"/>
<path d="M914.167 290.913C916.008 290.913 917.5 289.411 917.5 287.558C917.5 285.706 916.008 284.204 914.167 284.204C912.326 284.204 910.834 285.706 910.834 287.558C910.834 289.411 912.326 290.913 914.167 290.913Z" fill="#FF7341"/>
<path d="M356.772 544.575L474.689 544.483C475.567 544.486 476.408 544.834 477.028 545.452C477.648 546.07 477.997 546.907 477.998 547.78L478 560.172C477.997 561.045 477.647 561.881 477.026 562.497C476.405 563.114 475.563 563.46 474.686 563.462L356.769 563.553C355.891 563.551 355.05 563.202 354.43 562.585C353.81 561.967 353.461 561.13 353.46 560.257L353.457 547.865C353.46 546.992 353.81 546.156 354.432 545.54C355.053 544.923 355.894 544.576 356.772 544.575Z" fill="#F9D039"/>
<path d="M346.81 525.603L464.727 525.511C465.605 525.514 466.446 525.862 467.066 526.48C467.686 527.098 468.035 527.935 468.036 528.808L468.039 541.2C468.036 542.073 467.686 542.909 467.065 543.526C466.444 544.143 465.602 544.49 464.724 544.491L346.807 544.583C345.929 544.58 345.088 544.232 344.468 543.614C343.848 542.996 343.499 542.159 343.498 541.286L343.496 528.894C343.498 528.021 343.849 527.185 344.47 526.568C345.091 525.951 345.933 525.604 346.81 525.603Z" fill="#F9D039"/>
<path d="M338.286 506.641L456.203 506.549C457.081 506.551 457.922 506.9 458.542 507.518C459.162 508.136 459.511 508.973 459.512 509.846L459.515 522.237C459.512 523.11 459.162 523.947 458.541 524.563C457.919 525.18 457.078 525.527 456.2 525.529L338.312 525.605C337.434 525.603 336.593 525.254 335.972 524.636C335.352 524.018 335.003 523.181 335.002 522.308L335 509.916C334.999 509.048 335.345 508.216 335.961 507.602C336.578 506.988 337.414 506.642 338.286 506.641Z" fill="#F9D039"/>
<path d="M348.975 487.646L466.892 487.555C467.77 487.557 468.611 487.906 469.231 488.523C469.851 489.141 470.2 489.978 470.202 490.851L470.204 503.243C470.201 504.116 469.851 504.953 469.23 505.569C468.608 506.186 467.767 506.533 466.889 506.534L348.972 506.626C348.095 506.623 347.254 506.275 346.634 505.658C346.013 505.04 345.664 504.203 345.663 503.33L345.661 490.939C345.663 490.065 346.013 489.229 346.634 488.612C347.256 487.995 348.097 487.648 348.975 487.646Z" fill="#F9D039"/>
<path d="M365.152 544.568H362.317V563.551H365.152V544.568Z" fill="#FFE76C"/>
<path d="M380.255 544.566H377.42V563.549H380.255V544.566Z" fill="#FFE76C"/>
<path d="M395.359 544.542H392.523V563.525H395.359V544.542Z" fill="#FFE76C"/>
<path d="M410.462 544.518H407.627V563.5H410.462V544.518Z" fill="#FFE76C"/>
<path d="M425.565 544.517H422.73V563.499H425.565V544.517Z" fill="#FFE76C"/>
<path d="M440.668 544.515H437.833V563.498H440.668V544.515Z" fill="#FFE76C"/>
<path d="M355.19 525.598H352.354V544.581H355.19V525.598Z" fill="#FFE76C"/>
<path d="M370.294 525.573H367.458V544.556H370.294V525.573Z" fill="#FFE76C"/>
<path d="M385.397 525.573H382.562V544.555H385.397V525.573Z" fill="#FFE76C"/>
<path d="M400.5 525.571H397.665V544.553H400.5V525.571Z" fill="#FFE76C"/>
<path d="M346.669 506.639H343.834V525.621H346.669V506.639Z" fill="#FFE76C"/>
<path d="M361.773 506.614H358.938V525.596H361.773V506.614Z" fill="#FFE76C"/>
<path d="M376.898 506.613H374.063V525.595H376.898V506.613Z" fill="#FFE76C"/>
<path d="M392.001 506.588H389.166V525.57H392.001V506.588Z" fill="#FFE76C"/>
<path d="M357.355 487.641H354.52V506.624H357.355V487.641Z" fill="#FFE76C"/>
<path d="M372.459 487.617H369.624V506.599H372.459V487.617Z" fill="#FFE76C"/>
<path d="M387.562 487.616H384.727V506.598H387.562V487.616Z" fill="#FFE76C"/>
<path d="M455.795 544.49H452.959V563.473H455.795V544.49Z" fill="#FFE76C"/>
<path d="M470.898 544.489H468.062V563.471H470.898V544.489Z" fill="#FFE76C"/>
<path d="M415.626 525.547H412.791V544.529H415.626V525.547Z" fill="#FFE76C"/>
<path d="M430.729 525.545H427.894V544.527H430.729V525.545Z" fill="#FFE76C"/>
<path d="M445.832 525.521H442.997V544.503H445.832V525.521Z" fill="#FFE76C"/>
<path d="M460.935 525.519H458.1V544.501H460.935V525.519Z" fill="#FFE76C"/>
<path d="M407.105 506.587H404.27V525.569H407.105V506.587Z" fill="#FFE76C"/>
<path d="M422.208 506.562H419.373V525.545H422.208V506.562Z" fill="#FFE76C"/>
<path d="M437.311 506.561H434.476V525.544H437.311V506.561Z" fill="#FFE76C"/>
<path d="M452.413 506.536H449.578V525.519H452.413V506.536Z" fill="#FFE76C"/>
<path d="M402.665 487.592H399.83V506.574H402.665V487.592Z" fill="#FFE76C"/>
<path d="M417.769 487.59H414.934V506.572H417.769V487.59Z" fill="#FFE76C"/>
<path d="M432.895 487.565H430.06V506.548H432.895V487.565Z" fill="#FFE76C"/>
<path d="M447.998 487.564H445.163V506.546H447.998V487.564Z" fill="#FFE76C"/>
<path d="M463.101 487.563H460.266V506.546H463.101V487.563Z" fill="#FFE76C"/>
<path d="M1022 879.555H15V983.555H1022V879.555Z" fill="#DCDDE2"/>
<path d="M37.2822 902.248V956.452C37.2909 957.677 37.7879 958.848 38.6657 959.714C39.5436 960.579 40.7317 961.069 41.9732 961.078C42.8759 961.051 43.7576 960.802 44.5386 960.355L129.563 906.223C130.081 905.899 130.529 905.476 130.88 904.979C131.231 904.483 131.479 903.922 131.608 903.33C131.738 902.739 131.747 902.127 131.635 901.532C131.523 900.937 131.292 900.37 130.955 899.863C130.523 899.218 129.935 898.689 129.244 898.324C128.553 897.958 127.781 897.767 126.997 897.767H41.9732C41.3645 897.749 40.7584 897.852 40.1906 898.069C39.6228 898.286 39.1049 898.613 38.6675 899.03C38.2302 899.448 37.8822 899.948 37.6443 900.501C37.4063 901.054 37.2832 901.648 37.2822 902.248Z" fill="#EEEFF5"/>
<path d="M69.3129 956.308C68.4049 956.812 67.6942 957.601 67.2944 958.55C66.8946 959.499 66.8286 960.552 67.107 961.542C67.3855 962.532 67.9922 963.402 68.8305 964.012C69.6687 964.622 70.6902 964.938 71.7317 964.908H206.451C207.067 964.91 207.678 964.792 208.248 964.56C208.818 964.328 209.336 963.988 209.772 963.558C210.208 963.128 210.553 962.617 210.788 962.055C211.024 961.493 211.144 960.891 211.142 960.283C211.149 959.443 210.921 958.618 210.482 957.898L176.399 901.526C175.778 900.49 174.77 899.735 173.592 899.425C172.413 899.114 171.158 899.271 170.096 899.863L69.3129 956.308Z" fill="#EEEFF5"/>
<path d="M195.529 904.633L211.728 932.241C212.353 933.292 213.374 934.057 214.569 934.369C215.763 934.68 217.035 934.513 218.105 933.904C218.402 933.753 218.674 933.558 218.911 933.325L249.549 905.717C250.003 905.311 250.372 904.819 250.633 904.271C250.894 903.723 251.042 903.13 251.069 902.525C251.097 901.921 251.002 901.317 250.792 900.748C250.581 900.18 250.258 899.658 249.842 899.213C249.405 898.74 248.873 898.361 248.28 898.1C247.687 897.839 247.046 897.701 246.397 897.695H199.561C198.944 897.693 198.333 897.812 197.763 898.043C197.193 898.275 196.675 898.616 196.239 899.046C195.803 899.475 195.458 899.986 195.223 900.548C194.988 901.11 194.868 901.713 194.87 902.321C194.872 903.136 195.1 903.936 195.529 904.633Z" fill="#EEEFF5"/>
<path d="M222.429 951.104L228.513 962.451C228.907 963.189 229.497 963.807 230.22 964.24C230.943 964.673 231.772 964.904 232.618 964.908H329.662C330.279 964.91 330.89 964.792 331.46 964.56C332.03 964.328 332.548 963.988 332.984 963.558C333.419 963.128 333.765 962.617 334 962.055C334.235 961.493 334.355 960.891 334.353 960.283C334.337 959.688 334.213 959.1 333.987 958.548L310.385 900.586C310.035 899.736 309.438 899.008 308.668 898.493C307.898 897.979 306.991 897.701 306.061 897.695H275.423C274.824 897.685 274.229 897.796 273.675 898.019C273.121 898.243 272.618 898.575 272.198 898.996L223.309 945.612C222.592 946.318 222.121 947.23 221.963 948.217C221.805 949.204 221.968 950.215 222.429 951.104Z" fill="#EEEFF5"/>
<path d="M329.955 903.766L337.651 925.881C338.06 927.034 338.911 927.982 340.021 928.522C341.131 929.063 342.412 929.153 343.588 928.772C343.908 928.687 344.207 928.54 344.468 928.339L381.776 906.223C382.834 905.599 383.598 904.587 383.9 903.408C384.203 902.229 384.019 900.981 383.388 899.936C382.967 899.253 382.375 898.689 381.669 898.297C380.963 897.905 380.167 897.698 379.357 897.695H334.353C333.736 897.693 333.125 897.812 332.555 898.043C331.985 898.275 331.468 898.616 331.032 899.046C330.596 899.475 330.25 899.986 330.015 900.548C329.78 901.11 329.66 901.713 329.662 902.321C329.646 902.818 329.746 903.313 329.955 903.766Z" fill="#EEEFF5"/>
<path d="M345.714 945.395L350.698 960.283C351.084 961.438 351.916 962.396 353.013 962.95C354.111 963.505 355.386 963.611 356.562 963.246C356.635 963.246 356.708 963.174 356.782 963.174L399.587 947.057C400.227 946.808 400.806 946.428 401.286 945.942C401.766 945.456 402.136 944.876 402.372 944.238L414.466 909.692C414.787 908.799 414.819 907.829 414.557 906.917C414.296 906.005 413.753 905.196 413.005 904.601C412.257 904.006 411.34 903.655 410.38 903.596C409.421 903.537 408.467 903.773 407.649 904.272L347.766 940.047C346.855 940.572 346.154 941.389 345.78 942.363C345.407 943.336 345.383 944.406 345.714 945.395Z" fill="#EEEFF5"/>
<path d="M402.739 955.947L410.288 953.272C410.937 953.06 411.624 952.983 412.305 953.045C412.987 953.107 413.647 953.308 414.246 953.634L418.79 956.308C419.667 956.824 420.348 957.611 420.726 958.546C421.105 959.481 421.161 960.514 420.886 961.483C420.611 962.453 420.02 963.307 419.204 963.913C418.388 964.519 417.393 964.843 416.372 964.836H404.278C399 964.908 397.754 957.681 402.739 955.947Z" fill="#EEEFF5"/>
<path d="M422.162 947.852L437.774 956.814C438.712 957.347 439.807 957.544 440.876 957.373C441.944 957.202 442.92 956.673 443.638 955.874L487.762 905.356C488.35 904.686 488.729 903.864 488.853 902.987C488.977 902.11 488.84 901.216 488.461 900.414C488.081 899.612 487.474 898.935 486.713 898.465C485.952 897.996 485.069 897.753 484.171 897.767H441.366C440.433 897.763 439.522 898.037 438.75 898.553C437.978 899.069 437.383 899.803 437.041 900.658L420.183 942.215C419.792 943.234 419.776 944.357 420.138 945.387C420.5 946.417 421.216 947.289 422.162 947.852Z" fill="#EEEFF5"/>
<path d="M465.334 964.908H599.686C600.303 964.91 600.914 964.792 601.484 964.56C602.054 964.328 602.572 963.988 603.008 963.558C603.444 963.128 603.789 962.617 604.024 962.055C604.259 961.493 604.379 960.891 604.377 960.283C604.394 959.739 604.294 959.197 604.084 958.693L582.608 900.731C582.28 899.841 581.682 899.072 580.895 898.529C580.108 897.986 579.171 897.695 578.211 897.695H510.924C510.212 897.69 509.509 897.851 508.872 898.165C508.235 898.479 507.683 898.937 507.259 899.502L461.742 957.464C461.359 957.936 461.075 958.478 460.908 959.059C460.741 959.64 460.693 960.249 460.769 960.848C460.844 961.448 461.04 962.027 461.346 962.55C461.651 963.074 462.06 963.532 462.549 963.897C463.328 964.545 464.314 964.903 465.334 964.908Z" fill="#EEEFF5"/>
<path d="M595.948 903.766L604.597 928.7C605.006 929.852 605.857 930.8 606.967 931.341C608.077 931.881 609.358 931.971 610.534 931.591C611.018 931.438 611.466 931.193 611.853 930.868L644.837 905.934C645.614 905.35 646.185 904.54 646.469 903.618C646.753 902.697 646.735 901.71 646.419 900.799C646.103 899.887 645.504 899.097 644.707 898.54C643.91 897.983 642.955 897.687 641.978 897.695H600.419C599.803 897.693 599.192 897.812 598.622 898.043C598.052 898.275 597.534 898.616 597.098 899.046C596.662 899.475 596.316 899.986 596.081 900.548C595.846 901.11 595.726 901.713 595.728 902.321C595.724 902.811 595.798 903.299 595.948 903.766Z" fill="#EEEFF5"/>
<path d="M1000.02 896.401L979.128 904.504C978.163 904.886 977.385 905.634 976.962 906.588C976.539 907.542 976.504 908.625 976.864 909.605C977.01 910.008 977.233 910.379 977.521 910.695L999.754 937.708C1000.27 938.345 1000.98 938.8 1001.77 939.01C1002.56 939.219 1003.4 939.173 1004.17 938.876C1004.93 938.58 1005.58 938.049 1006.03 937.359C1006.48 936.669 1006.7 935.854 1006.66 935.03L1005.32 899.976C1005.3 899.455 1005.18 898.944 1004.97 898.471C1004.75 897.997 1004.45 897.572 1004.07 897.218C1003.69 896.864 1003.24 896.589 1002.76 896.409C1002.27 896.229 1001.76 896.147 1001.24 896.169C1000.83 896.181 1000.41 896.259 1000.02 896.401Z" fill="#EEEFF5"/>
<path d="M611.707 946.262L616.618 961.512C616.936 962.494 617.561 963.351 618.403 963.962C619.246 964.572 620.263 964.903 621.309 964.908H678.553C679.856 964.908 681.105 964.398 682.026 963.49C682.947 962.582 683.464 961.35 683.464 960.066C683.476 959.775 683.452 959.484 683.391 959.199L677.381 925.448C677.202 924.477 676.727 923.584 676.02 922.887C675.313 922.189 674.407 921.721 673.423 921.545L648.429 917.209C647.778 917.092 647.111 917.109 646.468 917.259C645.825 917.408 645.22 917.686 644.69 918.076L613.539 940.914C612.705 941.505 612.08 942.338 611.751 943.298C611.422 944.257 611.407 945.294 611.707 946.262Z" fill="#EEEFF5"/>
<path d="M669.098 910.415L683.025 912.728C683.719 912.837 684.43 912.803 685.111 912.629C685.792 912.455 686.429 912.144 686.983 911.716L693.726 906.295C694.23 905.898 694.647 905.404 694.954 904.844C695.261 904.284 695.451 903.67 695.512 903.036C695.574 902.403 695.506 901.764 695.312 901.156C695.119 900.549 694.804 899.987 694.386 899.502C693.927 898.939 693.347 898.485 692.688 898.172C692.028 897.859 691.306 897.696 690.574 897.695H673.423C672.208 897.695 671.036 898.132 670.124 898.924L666.606 902.031C666.129 902.454 665.742 902.964 665.465 903.534C665.189 904.104 665.029 904.722 664.995 905.353C664.961 905.984 665.053 906.616 665.267 907.211C665.48 907.807 665.811 908.355 666.24 908.825C666.97 909.674 667.984 910.238 669.098 910.415Z" fill="#EEEFF5"/>
<path d="M687.862 930.362L695.338 961.223C695.593 962.277 696.203 963.215 697.068 963.885C697.933 964.554 699.003 964.915 700.102 964.908H715.934C717.237 964.908 718.486 964.398 719.407 963.49C720.328 962.582 720.845 961.35 720.845 960.066C720.851 959.314 720.675 958.571 720.332 957.898L705.453 928.122C705.091 927.401 704.553 926.779 703.888 926.312C703.223 925.846 702.451 925.549 701.642 925.448L693.212 924.364C692.572 924.279 691.921 924.321 691.296 924.486C690.672 924.652 690.087 924.938 689.576 925.328C689.065 925.717 688.637 926.203 688.318 926.758C687.998 927.312 687.793 927.923 687.715 928.555C687.688 929.161 687.737 929.768 687.862 930.362Z" fill="#EEEFF5"/>
<path d="M705.747 916.558L709.411 917.209C710.096 917.342 710.744 917.617 711.312 918.016C711.881 918.414 712.357 918.928 712.71 919.521L720.992 933.253C721.323 933.8 721.76 934.278 722.278 934.658C722.797 935.038 723.386 935.313 724.013 935.468C724.64 935.622 725.291 935.653 725.93 935.558C726.569 935.463 727.183 935.245 727.735 934.915C728.183 934.618 728.6 934.279 728.982 933.904L753.316 905.645C753.914 904.94 754.296 904.082 754.419 903.171C754.541 902.261 754.397 901.334 754.005 900.5C753.613 899.667 752.989 898.96 752.205 898.464C751.421 897.967 750.51 897.7 749.578 897.695H717.547C716.369 897.703 715.23 898.112 714.322 898.851L703.474 908.102C702.988 908.515 702.588 909.018 702.299 909.583C702.009 910.147 701.836 910.763 701.788 911.394C701.741 912.025 701.82 912.659 702.021 913.26C702.222 913.861 702.542 914.417 702.961 914.896C703.632 915.789 704.633 916.386 705.747 916.558Z" fill="#EEEFF5"/>
<path d="M728.542 949.298L733.746 961.873C734.115 962.765 734.743 963.529 735.552 964.069C736.36 964.609 737.313 964.901 738.29 964.908H795.241C796.544 964.908 797.793 964.398 798.714 963.49C799.635 962.582 800.152 961.35 800.152 960.066C800.165 959.336 799.989 958.614 799.639 957.97L774.645 907.741C774.079 906.593 773.075 905.713 771.852 905.293C770.63 904.874 769.289 904.948 768.122 905.501C767.614 905.746 767.145 906.062 766.729 906.44L729.568 944.166C728.899 944.824 728.444 945.664 728.261 946.578C728.078 947.492 728.176 948.439 728.542 949.298Z" fill="#EEEFF5"/>
<path d="M786.519 904.705L800.665 934.048C801.224 935.203 802.223 936.094 803.445 936.527C804.666 936.96 806.012 936.9 807.189 936.361C807.408 936.284 807.609 936.161 807.775 935.999L851.46 907.307C852.339 906.738 853.01 905.905 853.373 904.931C853.736 903.958 853.773 902.895 853.477 901.899C853.182 900.904 852.57 900.028 851.731 899.401C850.893 898.775 849.873 898.43 848.821 898.418L790.99 897.767C789.691 897.76 788.442 898.256 787.51 899.148C786.578 900.04 786.038 901.257 786.006 902.537C786.055 903.283 786.228 904.015 786.519 904.705Z" fill="#EEEFF5"/>
<path d="M809.608 951.538L814.299 962.018C814.688 962.868 815.316 963.592 816.108 964.104C816.9 964.616 817.823 964.895 818.77 964.908H881.218C882.521 964.908 883.77 964.398 884.691 963.49C885.612 962.582 886.129 961.35 886.129 960.066V959.56L880.925 909.403C880.795 908.13 880.16 906.959 879.157 906.147C878.154 905.334 876.866 904.946 875.574 905.067C874.785 905.145 874.029 905.418 873.376 905.862L811.44 945.612C810.471 946.224 809.754 947.157 809.418 948.243C809.083 949.328 809.15 950.497 809.608 951.538Z" fill="#EEEFF5"/>
<path d="M892.799 903.115L896.464 934.048C896.533 934.68 896.729 935.293 897.04 935.85C897.35 936.408 897.77 936.899 898.274 937.295C898.779 937.692 899.358 937.986 899.978 938.16C900.598 938.335 901.247 938.387 901.888 938.312C901.991 938.323 902.095 938.297 902.181 938.24L966.829 926.821C967.964 926.623 968.991 926.035 969.729 925.162C970.466 924.289 970.867 923.187 970.86 922.051V902.537C970.86 901.253 970.343 900.021 969.422 899.113C968.501 898.205 967.252 897.695 965.949 897.695H897.71C896.408 897.695 895.159 898.205 894.238 899.113C893.317 900.021 892.799 901.253 892.799 902.537V903.115Z" fill="#EEEFF5"/>
<path d="M899.543 953.056L900.569 960.644C900.725 961.802 901.301 962.864 902.19 963.635C903.08 964.405 904.222 964.832 905.406 964.836H950.337C950.982 964.836 951.621 964.711 952.216 964.468C952.812 964.224 953.354 963.868 953.81 963.418C954.266 962.968 954.627 962.434 954.874 961.847C955.121 961.259 955.248 960.63 955.248 959.994V959.56L953.929 944.239C953.811 942.955 953.182 941.769 952.178 940.943C951.175 940.116 949.88 939.716 948.578 939.83C948.428 939.818 948.277 939.843 948.138 939.902L903.574 947.563C902.338 947.835 901.245 948.544 900.502 949.556C899.76 950.568 899.418 951.813 899.543 953.056Z" fill="#EEEFF5"/>
<path d="M965.949 936.722L980.535 933.759C981.418 933.581 982.334 933.642 983.186 933.934C984.037 934.227 984.793 934.741 985.373 935.421L1003.04 956.958C1003.44 957.451 1003.75 958.019 1003.93 958.627C1004.11 959.236 1004.17 959.874 1004.1 960.505C1004.03 961.136 1003.84 961.748 1003.53 962.305C1003.22 962.862 1002.81 963.354 1002.3 963.752C1001.44 964.457 1000.35 964.841 999.226 964.836H969.614C968.43 964.832 967.287 964.405 966.398 963.635C965.509 962.864 964.932 961.802 964.776 960.644L962.138 942.07C961.955 940.867 962.248 939.64 962.958 938.644C963.668 937.649 964.739 936.96 965.949 936.722Z" fill="#EEEFF5"/>
<path d="M739.935 125.777L731.242 153.574C731.101 154.054 730.818 154.479 730.432 154.796C730.045 155.112 729.571 155.304 729.074 155.347C722.019 155.98 717.79 158.259 715.282 160.474C714.213 162.143 713.076 163.751 711.869 165.3C694.655 187.483 664.266 197.263 632.212 187.822C608.993 180.984 589.44 165.392 576.811 145.913C576.498 146.218 576.187 146.513 575.856 146.796C575.173 147.396 574.458 147.957 573.713 148.478C572.224 149.548 570.605 150.423 568.893 151.081C567.12 151.76 565.245 152.139 563.347 152.201C561.344 152.247 559.35 151.914 557.471 151.219C556.942 151.03 556.422 150.815 555.915 150.575C554.701 151.535 553.258 152.162 551.728 152.394C549.848 152.667 547.91 152.347 546.127 151.699C544.349 151.035 542.683 150.102 541.187 148.934C542.007 149.335 542.85 149.69 543.71 149.997C544.538 150.284 545.391 150.498 546.257 150.635C547.854 150.901 549.494 150.738 551.008 150.162C551.784 149.862 552.519 149.466 553.197 148.983C551.015 147.433 549.215 145.407 547.93 143.058C547.398 142.088 546.972 141.063 546.658 140.002C546.334 138.936 546.157 137.832 546.131 136.718C546.1 135.599 546.283 134.484 546.67 133.433C547.052 132.407 547.687 131.495 548.516 130.781C549.318 130.106 550.267 129.63 551.286 129.389C551.772 129.267 552.267 129.189 552.767 129.154C553.015 129.131 553.261 129.13 553.506 129.122C553.752 129.114 554.029 129.128 554.297 129.153C554.858 129.201 555.411 129.315 555.945 129.494C556.523 129.692 557.072 129.968 557.577 130.314C558.099 130.679 558.573 131.11 558.986 131.596C559.379 132.076 559.721 132.596 560.005 133.148C560.27 133.673 560.493 134.218 560.672 134.779C560.831 135.312 560.955 135.854 561.042 136.403C561.211 137.446 561.27 138.503 561.216 139.558C561.115 141.536 560.665 143.481 559.886 145.301C559.524 146.144 559.084 146.951 558.573 147.713C561.401 148.518 564.423 148.284 567.094 147.053C568.496 146.423 569.81 145.615 571.005 144.647C571.612 144.159 572.191 143.637 572.74 143.084C573.014 142.808 573.282 142.525 573.537 142.235L573.911 141.8L574.089 141.582C574.095 141.564 574.115 141.547 574.129 141.529C564.073 124.133 559.414 104.067 562.315 84.4836C565.851 60.5823 579.919 42.3553 599.301 32.8919C600.243 32.4317 601.202 31.9967 602.169 31.5777C604.643 30.0022 607.956 26.676 608.954 19.9146L610.524 9.2767C610.542 9.10945 610.596 8.94822 610.684 8.80468C610.772 8.66112 610.89 8.53881 611.031 8.44659C611.171 8.35437 611.331 8.29452 611.497 8.27137C611.664 8.24824 611.833 8.26238 611.993 8.31278L644.993 17.654C645.282 17.7451 645.539 17.9167 645.735 18.1488C645.93 18.3809 646.055 18.6638 646.096 18.9646L647.209 27.1858C650.014 27.7259 652.837 28.4127 655.678 29.2463C658.518 30.0799 661.301 31.044 664.026 32.1386L667.371 25.2461C667.49 24.9966 667.697 24.7997 667.952 24.693C668.207 24.5863 668.493 24.5774 668.754 24.6678L701.639 34.7287C701.988 34.8468 702.285 35.082 702.481 35.3945C702.676 35.707 702.757 36.0776 702.711 36.4433L701.141 47.0791C700.15 53.78 702.193 58.6703 704.004 61.5212C714.06 73.6723 721.208 87.9774 724.458 102.949L724.475 102.983C726.261 107.532 734.129 115.695 738.329 119.844C739.923 121.422 740.561 123.78 739.935 125.777ZM558.28 139.004C558.371 137.382 558.159 135.675 557.492 134.377C556.825 133.078 555.785 132.381 554.418 132.275C554.247 132.263 554.078 132.262 553.9 132.259C553.722 132.256 553.529 132.275 553.349 132.296C552.996 132.33 552.647 132.394 552.305 132.489C551.672 132.65 551.086 132.957 550.594 133.386C549.658 134.206 549.21 135.531 549.271 137.019C549.333 138.508 549.849 140.122 550.683 141.552C551.887 143.617 553.62 145.323 555.703 146.494C556.316 145.642 556.822 144.718 557.21 143.742C557.823 142.232 558.185 140.631 558.28 139.004Z" fill="#F05659"/>
<path d="M576.191 144.749C575.279 145.687 574.685 146.415 573.942 146.936C572.452 148.005 570.833 148.88 569.122 149.539C567.349 150.221 565.474 150.601 563.575 150.663C561.571 150.712 559.576 150.38 557.695 149.686C553.628 148.216 550.238 145.31 548.162 141.515C547.629 140.545 547.202 139.52 546.887 138.458L546.879 138.427C546.43 136.889 546.344 135.268 546.628 133.691L546.675 133.423C546.289 134.473 546.106 135.588 546.137 136.706C546.163 137.82 546.34 138.925 546.664 139.99C546.978 141.052 547.404 142.076 547.936 143.047C550.014 146.842 553.404 149.748 557.471 151.219C559.351 151.912 561.346 152.243 563.349 152.194C565.247 152.133 567.122 151.754 568.895 151.075C570.607 150.417 572.226 149.542 573.715 148.471C574.459 147.954 575.175 147.396 575.857 146.8C576.182 146.516 576.501 146.223 576.814 145.918L576.191 144.749Z" fill="#F97274"/>
<path d="M562.315 84.4836C565.851 60.5823 579.919 42.3553 599.301 32.8919C600.243 32.4317 601.202 31.9967 602.169 31.5777C604.643 30.0022 607.956 26.676 608.954 19.9146L610.524 9.2767C610.542 9.10945 610.596 8.94823 610.684 8.80468C610.772 8.66112 610.89 8.53881 611.031 8.44659C611.171 8.35437 611.331 8.29452 611.497 8.27138C611.664 8.24825 611.833 8.26239 611.994 8.31279L644.993 17.654C645.282 17.7451 645.539 17.9167 645.735 18.1488C645.93 18.3809 646.055 18.6638 646.096 18.9646L647.21 27.1858C650.014 27.7259 652.837 28.4127 655.678 29.2463C658.518 30.0799 661.301 31.044 664.026 32.1386L667.371 25.2461C667.49 24.9966 667.697 24.7997 667.952 24.693C668.207 24.5863 668.493 24.5774 668.754 24.6679L701.639 34.7288C701.988 34.8468 702.285 35.082 702.481 35.3945C702.676 35.707 702.757 36.0776 702.711 36.4433L701.141 47.0791C700.15 53.78 702.193 58.6703 704.004 61.5212C714.06 73.6723 721.209 87.9775 724.458 102.949C724.462 102.961 724.468 102.972 724.475 102.983C727.808 109.679 737.574 119.085 737.503 119.024C734.215 115.995 731.024 116.669 728.061 121.028C719.332 67.7227 628.218 -0.585817 562.315 84.4836Z" fill="#FF8F91"/>
<path d="M622.214 182.929C613.3 179.349 605.464 172.505 600.542 163.598C595.283 154.097 592.568 141.116 602.74 127.201C623.084 99.3713 694.486 89.395 723.694 137.457L734.559 132.029C735.03 131.796 735.587 132.331 735.452 132.871L730.034 152.783C729.964 153.069 729.817 153.33 729.61 153.539C729.402 153.748 729.142 153.896 728.857 153.969L719.985 156.154C719.899 156.168 719.811 156.164 719.727 156.143C719.643 156.121 719.565 156.083 719.497 156.029C719.428 155.976 719.372 155.908 719.331 155.832C719.29 155.755 719.266 155.671 719.259 155.585L718.803 151.508C718.79 151.393 718.645 151.346 718.597 151.448C716.323 156.244 688.965 209.738 622.214 182.929Z" fill="#F97274"/>
<path d="M647.583 171.412C647.583 171.412 636.466 146.683 655.815 138.951C675.164 131.218 687.95 141.425 687.95 141.425L647.583 171.412Z" fill="#F97274"/>
<path d="M647.583 171.412C647.583 171.412 658.535 199.475 699.551 211.016C707.092 213.099 701.184 199.246 699.693 195.216C693.347 178.051 688.996 163.075 687.95 141.425C687.95 141.425 652.894 130.295 647.583 171.412Z" fill="#F05659"/>
<path d="M679.403 146.088C679.648 146.1 679.891 146.127 680.132 146.169C683.923 146.809 686.992 150.354 687.433 154.413C689.7 175.277 704.204 205.162 699.463 207.227C696.926 208.335 682.497 196.594 673.281 183.912C664.188 171.401 660.718 158.005 670.993 149.223C673.473 147.101 676.295 145.988 679.403 146.088Z" fill="#FFB0B1"/>
<path d="M612.342 174.557L611.341 176.205C612.086 176.647 629.715 187.264 647.876 186.954L647.844 185.024C630.247 185.324 612.516 174.664 612.342 174.557Z" fill="#333133"/>
<path d="M712.592 151.636C713.807 152.133 714.061 154.327 713.159 156.538C712.256 158.749 710.539 160.139 709.323 159.643C708.108 159.146 707.854 156.951 708.756 154.74C709.659 152.53 711.376 151.14 712.592 151.636Z" fill="#333133"/>
<path opacity="0.15" d="M555.694 146.496C556.503 145.399 557.125 144.177 557.537 142.877C558.592 139.612 559.278 133.727 555.02 132.368C555.02 132.368 559.998 131.959 559.531 139.842C559.355 142.496 558.448 145.05 556.912 147.221L555.694 146.496Z" fill="#545254"/>
<defs>
<linearGradient id="paint0_linear_731_42753" x1="625.71" y1="913.759" x2="714.517" y2="778.863" gradientUnits="userSpaceOnUse">
<stop stop-color="#FF8658"/>
<stop offset="0.341103" stop-color="#FF9A72"/>
<stop offset="1" stop-color="#FFE76C"/>
</linearGradient>
<linearGradient id="paint1_linear_731_42753" x1="763.045" y1="468.879" x2="659" y2="322.053" gradientUnits="userSpaceOnUse">
<stop stop-color="#EAE9F7"/>
<stop offset="0.510417" stop-color="#8B89C2"/>
<stop offset="1" stop-color="#686596"/>
</linearGradient>
<linearGradient id="paint2_linear_731_42753" x1="821.865" y1="909.244" x2="897.226" y2="788.403" gradientUnits="userSpaceOnUse">
<stop stop-color="#FF8658"/>
<stop offset="0.341103" stop-color="#FF9A72"/>
<stop offset="1" stop-color="#FFE76C"/>
</linearGradient>
<linearGradient id="paint3_linear_731_42753" x1="906" y1="337.055" x2="876" y2="282.555" gradientUnits="userSpaceOnUse">
<stop stop-color="#EAE9F7"/>
<stop offset="0.510417" stop-color="#8B89C2"/>
<stop offset="1" stop-color="#686596"/>
</linearGradient>
<linearGradient id="paint4_linear_731_42753" x1="864.623" y1="348.343" x2="915.205" y2="247.675" gradientUnits="userSpaceOnUse">
<stop stop-color="#FF8658"/>
<stop offset="0.341103" stop-color="#FF9A72"/>
<stop offset="1" stop-color="#FFE76C"/>
</linearGradient>
<linearGradient id="paint5_linear_731_42753" x1="952" y1="419.054" x2="735.5" y2="305.554" gradientUnits="userSpaceOnUse">
<stop stop-color="#EAE9F7"/>
<stop offset="0.506275" stop-color="#8B89C2"/>
<stop offset="1" stop-color="#686596"/>
</linearGradient>
<linearGradient id="paint6_linear_731_42753" x1="793.493" y1="661.085" x2="896.805" y2="573.466" gradientUnits="userSpaceOnUse">
<stop stop-color="#FF8658"/>
<stop offset="0.341103" stop-color="#FF9A72"/>
<stop offset="1" stop-color="#FFE76C"/>
</linearGradient>
</defs>
</svg>
