<svg width="961" height="790" viewBox="0 0 961 790" fill="none" xmlns="http://www.w3.org/2000/svg">
<path d="M646.084 740.576L687.898 740.702C696.166 740.19 704.426 739.629 712.694 739.173C737.023 737.93 761.212 734.741 785.029 729.638C813.272 723.426 840.431 714.317 865.004 698.694C883.751 686.784 899.982 672.236 911.41 652.94C927.575 625.631 928.741 596.376 922.495 566.16C918.025 544.491 910.094 523.974 902.662 503.275C897.758 489.625 894.535 475.684 897.795 461.329C900.233 450.548 903.518 439.976 907.62 429.709C915.276 410.66 924.073 392.062 931.914 373.093C947.572 335.139 951.235 296.09 942.511 255.825C933.558 214.396 916.962 176.577 891.719 142.39C861.847 101.949 827.07 66.9148 783.072 41.7503C752.238 24.0925 719.263 13.0051 683.517 11.133C643.832 9.04857 606.806 18.4495 573.579 39.9969C547.902 56.6425 523.257 74.8792 498.404 92.7544C470.513 112.826 442.974 133.348 413.082 150.51C390.221 163.643 366.147 171.383 339.539 168.399C317.216 165.926 294.943 162.939 272.694 159.809C244.562 155.834 216.428 152.589 187.914 155.126C162.046 157.454 137.789 164.64 115.906 178.883C87.0537 197.652 67.7638 224.038 55.4137 255.698C38.2257 299.759 36.0619 345.373 42.5646 391.647C45.438 412.108 49.5665 432.389 52.6651 452.818C55.4958 471.467 53.166 489.45 44.4622 506.531C39.3176 516.622 34.4298 526.881 30.0802 537.335C19.4776 562.792 12.2339 589.038 13.2756 616.96C14.0188 637.19 19.8088 655.807 31.8371 672.286C45.8274 691.441 64.8957 703.93 86.3945 713.074C110.367 723.26 135.584 728.461 161.381 731.025C182.173 733.184 203.128 733.29 223.941 731.342C244.186 729.405 264.44 727.453 284.716 725.91C309.939 723.989 335.178 722.212 360.44 720.852C391.886 719.167 423.4 718.973 454.76 721.938C484.721 724.748 514.508 729.24 544.436 732.442C568.511 735.017 592.67 736.847 616.787 738.844C626.595 739.619 636.348 740.002 646.084 740.576Z" fill="#EAE9F7"/>
<path d="M823.894 268.064C836.025 256.152 836.025 236.839 823.894 224.928C811.763 213.016 792.094 213.016 779.963 224.928C767.832 236.839 767.832 256.152 779.963 268.064C792.094 279.976 811.763 279.976 823.894 268.064Z" fill="#1D1951"/>
<path d="M801.4 221.135L812.691 217.901C812.009 217.647 811.303 217.427 810.598 217.219L801.047 219.957L801.4 221.135Z" fill="#25215E"/>
<path d="M819.442 221.331L804.434 225.627L804.787 226.805L820.736 222.243C820.313 221.92 819.878 221.62 819.442 221.331Z" fill="#25215E"/>
<path d="M825.206 226.309L811.021 230.374L811.374 231.552L826.088 227.337C825.806 226.99 825.512 226.644 825.206 226.309Z" fill="#25215E"/>
<path d="M829.147 231.818L817.608 235.121L817.961 236.299L829.735 232.927C829.546 232.557 829.358 232.187 829.147 231.818Z" fill="#25215E"/>
<path d="M821.466 241.935L832.004 238.921C831.922 238.609 831.84 238.297 831.746 237.974L831.675 237.731L821.113 240.757L821.466 241.935Z" fill="#25215E"/>
<path d="M810.127 250.54L810.48 251.718L832.969 245.285C832.957 244.869 832.922 244.453 832.887 244.026L810.127 250.54Z" fill="#25215E"/>
<path d="M811.95 256.661L812.303 257.839L832.475 252.064C832.557 251.614 832.628 251.175 832.699 250.724L811.95 256.661Z" fill="#25215E"/>
<path d="M813.762 262.77L814.115 263.948L830.087 259.375C830.311 258.89 830.534 258.405 830.734 257.908L813.762 262.77Z" fill="#25215E"/>
<path d="M815.585 268.892L815.938 270.07L824.312 267.667C824.853 267.113 825.383 266.535 825.877 265.946L815.585 268.892Z" fill="#25215E"/>
<path d="M795.072 278.963C812.228 278.963 826.136 265.307 826.136 248.461C826.136 231.615 812.228 217.959 795.072 217.959C777.916 217.959 764.008 231.615 764.008 248.461C764.008 265.307 777.916 278.963 795.072 278.963Z" fill="#F9D039"/>
<path d="M786.38 219.194C783.607 219.99 780.96 221.156 778.511 222.659L766.984 261.523C770.009 267.809 775.136 272.888 781.51 275.914L798.624 218.155C794.513 217.701 790.351 218.055 786.38 219.194V219.194Z" fill="#FFE76C"/>
<path d="M798.365 278.813L814.432 224.611C811.847 222.588 808.948 220.986 805.846 219.864L788.52 278.293C791.752 278.985 795.076 279.161 798.365 278.813V278.813Z" fill="#FFE76C"/>
<path d="M809.402 262.532C817.317 254.761 817.317 242.161 809.402 234.39C801.488 226.618 788.656 226.618 780.742 234.39C772.828 242.161 772.828 254.761 780.742 262.532C788.656 270.303 801.488 270.303 809.402 262.532Z" fill="#FF7341"/>
<path d="M802.811 230.085L791.555 268.072C794.619 268.601 797.766 268.431 800.753 267.575C801.105 267.471 801.458 267.367 801.799 267.24L811.009 236.172C808.848 233.492 806.026 231.397 802.811 230.085V230.085Z" fill="#FF9A72"/>
<path d="M789.403 229.381C778.664 232.453 772.489 243.494 775.617 254.051C777.041 258.845 780.249 262.939 784.604 265.519L795.554 228.596C793.474 228.538 791.398 228.803 789.403 229.381V229.381Z" fill="#FF9A72"/>
<path d="M738.444 120.593L715.245 105.86L701.981 118.053L738.655 128.09L738.444 120.593Z" fill="#333133"/>
<path d="M709.917 62.0609C694.34 47.5497 668.749 47.3081 652.702 61.3536C643.035 69.9138 639.016 81.7246 640.837 92.9445L673.69 123.55C686.083 125.465 699.227 122.26 708.95 113.752C725.05 99.6499 725.437 76.5193 709.917 62.0609Z" fill="#DCDDE2"/>
<path d="M666.985 53.1774L718.361 101.038C718.361 101.038 729.006 79.8437 709.86 62.0081C690.488 43.9615 666.985 53.1774 666.985 53.1774Z" fill="#C0C0D1"/>
<path d="M631.24 47.7088C630.773 51.4127 631.441 55.1709 633.154 58.4871C634.014 60.1465 635.246 61.584 636.754 62.6869C638.271 63.8321 640.08 64.5271 641.974 64.6927C643.901 64.877 645.842 64.5236 647.58 63.6719C649.378 62.7821 650.959 61.5108 652.214 59.9467C654.732 56.7889 656.135 52.8871 656.204 48.8491C656.217 46.8547 655.925 44.8701 655.339 42.9637C654.757 41.1209 653.862 39.3922 652.693 37.8536C651.606 36.4149 650.218 35.2304 648.626 34.3826C647.121 33.6194 645.454 33.2277 643.766 33.2405C642.107 33.3427 640.493 33.8163 639.043 34.6264C637.592 35.4365 636.342 36.5622 635.385 37.9204C633.149 40.7512 631.716 44.1327 631.24 47.7088ZM625.036 47.3265C625.1 44.8514 625.53 42.3994 626.313 40.0503C627.121 37.6368 628.38 35.3986 630.024 33.4546C631.758 31.4941 633.86 29.8933 636.211 28.7429C638.644 27.62 641.321 27.1292 643.994 27.3162C646.637 27.5308 649.17 28.4638 651.321 30.0141C653.358 31.4464 655.052 33.3134 656.28 35.4803C657.458 37.5493 658.296 39.7946 658.761 42.13C659.197 44.4015 659.279 46.7269 659.004 49.0236C658.548 53.5899 656.758 57.9211 653.857 61.477C652.345 63.2312 650.521 64.6892 648.476 65.7765C646.384 66.8827 644.057 67.4725 641.69 67.4965C639.264 67.4846 636.877 66.8932 634.727 65.7717C632.573 64.5943 630.688 62.9824 629.191 61.0382C626.367 57.0337 624.91 52.2252 625.036 47.3265V47.3265Z" fill="#333133"/>
<path d="M708.875 62.724C708.787 62.6411 708.705 62.5533 708.628 62.4611C708.602 62.4368 708.582 62.4063 708.557 62.382C708.523 62.3503 708.476 62.2989 708.446 62.2627C707.432 61.0214 706.945 59.4312 707.091 57.8345C707.238 56.2377 708.005 54.7622 709.228 53.7255L709.236 53.717C710.575 52.58 712.275 51.958 714.031 51.963C715.788 51.9681 717.484 52.5997 718.816 53.7443C719.03 53.8814 719.22 54.0518 719.38 54.2491C719.403 54.2762 719.425 54.3039 719.45 54.3288C719.49 54.3664 719.527 54.4062 719.561 54.4481C720.576 55.6894 721.062 57.2792 720.915 58.8756C720.769 60.4719 720.002 61.9471 718.779 62.9837C717.444 64.1311 715.741 64.7605 713.981 64.757C712.221 64.7536 710.521 64.1175 709.191 62.9648C709.078 62.8955 708.972 62.8148 708.875 62.724V62.724ZM710.216 60.7553C710.278 60.8139 710.333 60.8815 710.389 60.9469L710.432 60.9969C710.503 61.0369 710.569 61.0843 710.63 61.1383C711.535 61.9568 712.707 62.4175 713.927 62.4342C715.147 62.4509 716.332 62.0223 717.259 61.2288C718.026 60.5978 718.513 59.6889 718.613 58.7006C718.713 57.7122 718.418 56.7244 717.793 55.9527C717.73 55.8946 717.676 55.827 717.619 55.7616C717.604 55.7469 717.591 55.727 717.577 55.7111C717.506 55.6708 717.439 55.6234 717.378 55.5697C716.466 54.758 715.29 54.3034 714.069 54.2897C712.848 54.276 711.662 54.7041 710.731 55.4951C709.971 56.1278 709.49 57.0348 709.393 58.0195C709.297 59.0042 709.592 59.9872 710.216 60.7553V60.7553Z" fill="#333133"/>
<path d="M961 661.984H0V789.984H961V661.984Z" fill="#DCDDE2"/>
<path d="M77.1672 766.043L45.659 679.844C45.1807 678.528 44.3082 677.392 43.1607 676.59C42.0132 675.789 40.6464 675.361 39.2468 675.365H25.3169V775.277H70.755C72.5729 775.277 74.3164 774.554 75.6018 773.269C76.8873 771.983 77.6094 770.239 77.6094 768.421C77.6017 767.608 77.4521 766.804 77.1672 766.043V766.043Z" fill="#EEEFF5"/>
<path d="M65.3934 684.378L78.052 721.423C78.3397 722.274 78.793 723.06 79.3857 723.736C79.9784 724.411 80.6988 724.962 81.5055 725.358C82.3121 725.754 83.1891 725.986 84.0858 726.041C84.9826 726.097 85.8814 725.974 86.7305 725.68C87.4351 725.453 88.0912 725.097 88.6653 724.63L137.033 687.584C142.229 683.603 139.41 675.31 132.887 675.31H71.9162C70.0983 675.31 68.3548 676.032 67.0694 677.318C65.7839 678.604 65.0617 680.347 65.0617 682.166C65.0046 682.919 65.118 683.675 65.3934 684.378V684.378Z" fill="#EEEFF5"/>
<path d="M88.4441 747.52L95.6302 770.19C96.0889 771.649 97.0009 772.924 98.2336 773.828C99.4664 774.733 100.956 775.221 102.485 775.221H186.396C188.3 775.216 190.125 774.457 191.471 773.11C192.818 771.763 193.576 769.938 193.582 768.034C193.573 767.644 193.536 767.256 193.471 766.872L184.682 716.723C184.424 715.263 183.723 713.918 182.675 712.87C181.627 711.822 180.282 711.121 178.823 710.862L142.174 704.448C141.211 704.277 140.223 704.306 139.271 704.535C138.32 704.763 137.426 705.185 136.646 705.775L91.0421 739.669C89.8288 740.53 88.9223 741.756 88.4549 743.168C87.9875 744.581 87.9837 746.106 88.4441 747.52V747.52Z" fill="#EEEFF5"/>
<path d="M172.521 694.219L192.919 697.703C193.932 697.869 194.969 697.817 195.96 697.55C196.952 697.283 197.875 696.807 198.667 696.155L208.507 688.082C213.758 683.825 210.718 675.31 203.974 675.31H178.878C177.107 675.317 175.399 675.965 174.069 677.134L168.928 681.779C167.931 682.686 167.209 683.855 166.842 685.152C166.475 686.449 166.479 687.823 166.853 689.118C167.227 690.413 167.956 691.577 168.958 692.479C169.96 693.381 171.194 693.984 172.521 694.219V694.219Z" fill="#EEEFF5"/>
<path d="M200.05 723.911L210.994 769.748C211.365 771.328 212.262 772.736 213.537 773.741C214.813 774.746 216.391 775.287 218.015 775.277H241.231C242.176 775.279 243.111 775.094 243.984 774.733C244.856 774.373 245.649 773.844 246.317 773.176C246.985 772.508 247.514 771.715 247.874 770.842C248.235 769.969 248.419 769.033 248.417 768.089C248.403 766.982 248.158 765.89 247.699 764.882L225.864 720.649C225.344 719.585 224.565 718.668 223.6 717.982C222.634 717.296 221.512 716.864 220.336 716.723L208.009 715.12C207.077 715 206.129 715.065 205.222 715.311C204.314 715.557 203.464 715.98 202.719 716.555C201.975 717.13 201.351 717.846 200.884 718.662C200.416 719.479 200.114 720.379 199.994 721.312C199.791 722.169 199.81 723.064 200.05 723.911V723.911Z" fill="#EEEFF5"/>
<path d="M226.196 703.398L231.502 704.393C232.504 704.584 233.454 704.983 234.292 705.564C235.129 706.145 235.836 706.895 236.367 707.766L248.528 728.224C249.499 729.862 251.079 731.049 252.923 731.526C254.767 732.002 256.724 731.73 258.367 730.767C259.06 730.36 259.677 729.836 260.191 729.219L295.901 687.197C296.786 686.152 297.353 684.875 297.537 683.518C297.721 682.16 297.513 680.778 296.938 679.535C296.363 678.292 295.445 677.239 294.291 676.5C293.138 675.761 291.798 675.367 290.428 675.365H243.498C241.768 675.363 240.097 675.992 238.799 677.134L222.879 690.957C222.17 691.578 221.591 692.334 221.176 693.181C220.761 694.028 220.519 694.948 220.462 695.889C220.405 696.831 220.536 697.774 220.847 698.664C221.157 699.554 221.641 700.374 222.271 701.076C223.266 702.287 224.655 703.109 226.196 703.398V703.398Z" fill="#EEEFF5"/>
<path d="M259.639 752.054L267.212 770.743C267.745 772.066 268.661 773.199 269.843 773.997C271.025 774.796 272.419 775.222 273.845 775.222H357.369C358.313 775.223 359.249 775.039 360.122 774.678C360.994 774.318 361.787 773.788 362.455 773.12C363.122 772.453 363.652 771.659 364.012 770.787C364.373 769.914 364.557 768.978 364.555 768.034C364.547 766.943 364.302 765.868 363.837 764.882L327.188 690.183C326.683 689.146 325.937 688.246 325.012 687.557C324.087 686.869 323.009 686.414 321.871 686.23C320.733 686.045 319.568 686.138 318.472 686.498C317.377 686.859 316.385 687.478 315.579 688.303L261.076 744.314C260.12 745.33 259.476 746.601 259.222 747.973C258.967 749.345 259.112 750.762 259.639 752.054V752.054Z" fill="#EEEFF5"/>
<path d="M344.6 685.76L365.329 729.385C365.73 730.24 366.296 731.007 366.995 731.642C367.693 732.277 368.51 732.768 369.398 733.087C370.287 733.405 371.23 733.545 372.173 733.498C373.115 733.451 374.04 733.218 374.892 732.813C375.224 732.662 375.539 732.476 375.832 732.26L439.788 689.63C445.647 685.705 442.939 676.526 435.863 676.471L351.123 675.476C350.179 675.459 349.24 675.629 348.362 675.977C347.484 676.324 346.683 676.841 346.005 677.498C345.327 678.156 344.786 678.941 344.412 679.808C344.038 680.676 343.839 681.608 343.826 682.553C343.86 683.664 344.123 684.756 344.6 685.76V685.76Z" fill="#EEEFF5"/>
<path d="M378.485 755.372L385.34 770.909C385.901 772.188 386.821 773.276 387.989 774.041C389.157 774.807 390.521 775.217 391.918 775.222H483.457C484.401 775.223 485.337 775.039 486.209 774.678C487.082 774.318 487.875 773.788 488.543 773.12C489.21 772.453 489.74 771.659 490.1 770.787C490.461 769.914 490.645 768.978 490.643 768.034C490.652 767.793 490.634 767.552 490.588 767.315L482.96 692.726C482.832 691.503 482.393 690.333 481.684 689.328C480.976 688.323 480.023 687.516 478.914 686.984C477.806 686.451 476.58 686.212 475.353 686.288C474.126 686.364 472.938 686.753 471.904 687.418L381.194 746.47C379.752 747.384 378.685 748.785 378.188 750.418C377.691 752.052 377.797 753.809 378.485 755.372Z" fill="#EEEFF5"/>
<path d="M500.373 683.327L505.734 729.274C505.959 731.164 506.923 732.887 508.414 734.069C509.906 735.25 511.804 735.792 513.694 735.577C513.86 735.577 513.971 735.522 514.137 735.522L608.827 718.603C610.487 718.306 611.99 717.434 613.071 716.14C614.153 714.846 614.744 713.212 614.742 711.526V682.497C614.744 681.553 614.559 680.617 614.199 679.745C613.838 678.872 613.309 678.078 612.641 677.411C611.974 676.743 611.181 676.213 610.308 675.853C609.435 675.492 608.5 675.308 607.556 675.31H507.559C506.614 675.308 505.679 675.492 504.806 675.853C503.934 676.213 503.141 676.743 502.473 677.411C501.805 678.078 501.276 678.872 500.916 679.745C500.555 680.617 500.371 681.553 500.373 682.497C500.317 682.771 500.317 683.053 500.373 683.327V683.327Z" fill="#EEEFF5"/>
<path d="M510.267 757.694L511.76 769.029C511.983 770.76 512.831 772.351 514.144 773.501C515.457 774.652 517.145 775.283 518.89 775.277H584.726C585.67 775.279 586.605 775.094 587.478 774.734C588.351 774.373 589.144 773.844 589.811 773.176C590.479 772.508 591.008 771.715 591.369 770.842C591.729 769.969 591.914 769.033 591.912 768.089V767.425L589.922 744.701C589.843 743.759 589.577 742.842 589.142 742.003C588.706 741.164 588.109 740.42 587.384 739.814C586.66 739.207 585.822 738.75 584.92 738.469C584.018 738.188 583.069 738.088 582.128 738.176C581.907 738.176 581.686 738.231 581.52 738.231L516.182 749.677C514.345 749.977 512.698 750.983 511.593 752.481C510.488 753.979 510.012 755.85 510.267 757.694V757.694Z" fill="#EEEFF5"/>
<path d="M607.555 733.366L629.003 728.998C630.294 728.726 631.635 728.821 632.875 729.27C634.115 729.719 635.206 730.506 636.023 731.541L661.838 763.555C663.028 765.041 663.584 766.936 663.388 768.83C663.191 770.723 662.257 772.463 660.788 773.673C659.51 774.719 657.906 775.286 656.255 775.277H612.807C611.072 775.276 609.396 774.65 608.086 773.512C606.776 772.374 605.92 770.802 605.676 769.084L601.807 741.438C601.559 739.614 602.015 737.763 603.083 736.264C604.151 734.764 605.751 733.728 607.555 733.366Z" fill="#EEEFF5"/>
<path d="M631.933 706.052L633.094 682.166C633.187 680.32 633.984 678.581 635.321 677.305C636.658 676.03 638.432 675.316 640.28 675.31H721.096C722.782 675.307 724.415 675.899 725.709 676.981C727.003 678.062 727.875 679.565 728.171 681.226L743.483 766.762C743.653 767.692 743.638 768.646 743.438 769.57C743.238 770.494 742.858 771.369 742.318 772.145C741.779 772.921 741.091 773.582 740.295 774.092C739.499 774.601 738.61 774.947 737.679 775.111C737.258 775.175 736.833 775.212 736.408 775.222H692.407C691.376 775.232 690.356 775.014 689.42 774.584C688.483 774.154 687.653 773.522 686.989 772.733L633.702 711.083C633.091 710.402 632.62 709.607 632.316 708.744C632.013 707.88 631.882 706.966 631.933 706.052V706.052Z" fill="#EEEFF5"/>
<path d="M748.624 683.769L756.031 726.288C756.355 728.165 757.41 729.835 758.965 730.934C760.519 732.033 762.446 732.47 764.323 732.149C765.246 731.993 766.129 731.655 766.921 731.154L834.249 688.635C840.329 684.764 837.621 675.365 830.435 675.365H755.699C754.755 675.363 753.82 675.548 752.947 675.908C752.074 676.269 751.281 676.798 750.614 677.466C749.946 678.134 749.417 678.927 749.056 679.8C748.696 680.673 748.511 681.608 748.513 682.553C748.525 682.96 748.562 683.366 748.624 683.769V683.769Z" fill="#EEEFF5"/>
<path d="M761.835 753.381L763.88 768.974C764.112 770.702 764.963 772.287 766.274 773.436C767.585 774.584 769.268 775.219 771.011 775.222H885.712C886.656 775.223 887.592 775.039 888.464 774.678C889.337 774.318 890.13 773.788 890.798 773.12C891.465 772.453 891.994 771.659 892.355 770.787C892.715 769.914 892.9 768.978 892.898 768.034C892.891 766.709 892.528 765.41 891.848 764.274L852.988 701.407C851.994 699.792 850.401 698.635 848.558 698.19C846.715 697.744 844.77 698.046 843.148 699.03L765.262 746.304C764.058 747.015 763.09 748.066 762.48 749.325C761.871 750.584 761.646 751.995 761.835 753.381V753.381Z" fill="#EEEFF5"/>
<path d="M931.869 675.31H884.662C883.268 675.302 881.903 675.706 880.737 676.471L868.355 684.599C866.761 685.643 865.646 687.277 865.252 689.141C864.859 691.006 865.219 692.951 866.254 694.551C866.254 694.566 866.26 694.58 866.271 694.59C866.281 694.601 866.295 694.606 866.31 694.606L887.757 726.731C888.278 727.517 888.949 728.193 889.732 728.719C890.515 729.245 891.394 729.611 892.319 729.796C893.243 729.981 894.195 729.981 895.12 729.797C896.045 729.612 896.924 729.247 897.707 728.721L898.371 728.224L931.924 699.97L931.869 675.31Z" fill="#EEEFF5"/>
<path d="M931.869 716.834L903.788 738.895C902.378 740.005 901.437 741.604 901.15 743.376C900.863 745.148 901.252 746.962 902.24 748.46L917.607 771.959C918.259 772.963 919.152 773.788 920.205 774.357C921.257 774.927 922.436 775.224 923.632 775.222H931.869V716.834Z" fill="#EEEFF5"/>
<path d="M420.007 220.962L490.261 259.443L584.44 605.757C584.44 605.757 582.644 638.364 580.292 635.719C566.355 620.215 513.578 567.633 509.205 550.807C503.485 528.756 510.038 501.691 491.331 476.306C456.482 438.844 416.929 374.74 389.107 331.867C361.549 303.281 374.892 234.931 420.007 220.962Z" fill="#25215E"/>
<path d="M490.063 258.847L584.441 605.757L581.534 607C563.383 559.696 553.224 525.621 547.187 502.498C542.708 485.301 540.264 473.158 532.655 454.387C523.553 431.991 516.617 420.417 512.508 401.686C509.391 387.478 511.769 365.453 503.34 340.505C499.576 329.496 496.826 318.165 495.123 306.654C491.821 283.65 490.063 258.847 490.063 258.847Z" fill="#46437B"/>
<path d="M566.527 621.036C570.622 609.659 579.143 606.485 584.48 605.532C598.589 643.378 612.632 680.999 619.092 698.354C619.363 698.984 619.411 699.688 619.228 700.349C619.044 701.01 618.64 701.588 618.082 701.987C617.525 702.386 616.848 702.581 616.164 702.542C615.48 702.502 614.83 702.228 614.323 701.767C602.288 692.283 581.428 674.835 579.13 666.223C575.853 654.053 584.163 653.868 575.166 636.579C573.053 632.451 566.474 621.208 566.527 621.036Z" fill="url(#paint0_linear_722_38916)"/>
<path d="M580.662 606.418C581.869 605.923 583.142 605.607 584.44 605.479C598.536 643.325 612.592 680.946 619.039 698.302C619.462 699.466 618.101 700.577 618.735 701.278C621.021 703.857 583.304 611.234 580.662 606.418Z" fill="#FFE76C"/>
<path d="M579.064 646.54C585.775 646.963 591.416 656.765 592.922 665.218C594.428 673.671 600.306 681.753 606.014 682.56C608.656 682.93 610.532 680.867 611.707 678.591L619.052 698.302C619.334 698.931 619.389 699.638 619.21 700.303C619.03 700.969 618.626 701.551 618.067 701.953C617.507 702.354 616.826 702.55 616.139 702.507C615.452 702.463 614.801 702.183 614.297 701.714C602.235 692.23 581.389 674.782 579.09 666.17C576.699 656.99 580.781 654.662 579.064 646.54Z" fill="#333133"/>
<path d="M588.074 64.0622C588.074 64.0622 622.052 85.7564 631.418 117.306C631.418 117.306 597.07 98.7862 588.074 64.0622Z" fill="#4B497F"/>
<path d="M478.94 76.166C478.94 76.166 473.656 89.9366 481.582 92.688C489.509 95.4395 499.72 99.1037 496.259 112.319L457.156 119.25L454.17 77.6476L478.94 76.166Z" fill="#333133"/>
<path d="M622.5 38.1481C622.5 38.1481 627.785 23.4913 630.427 13.332C631.259 14.0723 631.914 14.9904 632.344 16.0185C632.774 17.0466 632.968 18.1584 632.91 19.2715C632.831 22.3008 632.303 29.8541 632.303 29.8541L622.5 38.1481Z" fill="url(#paint1_linear_722_38916)"/>
<path d="M624.429 35.4363C624.429 35.4363 633.584 22.896 638.961 13.9141C639.523 14.911 639.868 16.0153 639.975 17.1549C640.082 18.2945 639.948 19.4439 639.582 20.5282C638.604 23.3987 635.922 30.5419 635.922 30.5419L624.429 35.4363Z" fill="url(#paint2_linear_722_38916)"/>
<path d="M587.756 65.6892C587.756 65.6892 596.37 51.0456 604.851 43.8892C613.332 36.7327 632.184 27.0232 640.11 25.7004C644.036 24.9686 648.01 24.5264 652 24.3776C651.635 25.2688 651.096 26.0786 650.416 26.7598C649.736 27.4411 648.927 27.9802 648.037 28.346C644.074 29.6688 637.468 30.9917 634.826 32.3145C633.228 33.1214 628.881 38.9286 629.542 41.5742C630.202 44.2199 634.047 45.1723 636.147 44.2199C638.248 43.2674 649.477 37.1692 651.815 40.8334C651.815 40.8334 638.842 51.6806 633.505 52.1568C628.168 52.633 617.19 53.2415 615.182 56.1252C613.174 59.009 605.036 80.69 604.138 93.1642C604.19 93.2436 590.94 78.2693 587.756 65.6892Z" fill="url(#paint3_linear_722_38916)"/>
<path d="M513.578 195.101C516.775 222.364 511.57 235.923 489.958 259.231C455.293 255.898 432.055 241.188 398.804 230.751C400.997 281.335 379.595 345.955 321.601 339.209C315.946 328.031 310.636 316.721 304.981 305.49C321.627 282.552 339.329 261.348 356.08 238.436C359.357 206.358 370.52 141.222 400.032 124.158C434.024 105.07 487.329 106.723 487.329 106.723L496.576 106.802C519.206 106.564 550.74 129.29 563.951 147.294C563.951 147.294 563.475 107.424 588.074 64.0357C597.318 85.3727 612.284 103.729 631.312 117.068C631.312 117.068 632.462 121.843 626.107 126.036C619.753 130.23 611.139 129.409 613.253 135.68C615.367 141.95 623.993 140.64 622.355 160.271C620.717 179.902 608.405 227.285 567.254 227.285C530.898 227.285 515.164 197.786 515.164 197.786L513.578 195.101Z" fill="url(#paint4_linear_722_38916)"/>
<path d="M533.962 120.719C555.1 141.884 563.554 172.877 563.554 172.877C563.105 164.503 563.189 156.108 563.805 147.744C557.187 138.775 546.169 128.669 533.962 120.719Z" fill="#4B497F"/>
<path d="M509.074 233.634C505.335 241.571 492.864 256.532 489.958 259.443C485.196 259.153 480.467 258.458 475.822 257.366C516.564 232.814 513.578 195.312 513.578 195.312C513.578 195.312 517.357 216.186 509.074 233.634Z" fill="#7573B6"/>
<path d="M380.348 630.308C369.952 614.077 362.052 479.639 348.748 389.727C332.129 277.235 402.318 243.212 402.318 243.212L458.503 313.136C458.503 313.136 458.978 354.143 435.16 397.214C399.002 462.575 421.394 458.064 423.944 519.178C424.763 539.153 403.15 606.59 396.915 628.642C395.448 634.026 390.428 645.997 380.348 630.308Z" fill="#25215E"/>
<path d="M307.531 324.843C312.551 334.619 321.733 340.201 321.733 339.394C321.733 337.264 321.416 330.068 316.448 320.306C311.481 310.543 307.425 306.919 304.929 305.675C304.644 306.242 304.431 306.842 304.294 307.461C303.581 310.583 303.687 317.369 307.531 324.843Z" fill="#4B497F"/>
<path d="M298.825 314.247L268.705 318.467C268.705 318.467 268.005 321.113 271.492 321.509L258.083 328.018C258.083 328.018 258.242 331.351 263.368 330.518L257.885 335.24C257.885 335.24 260.382 337.82 265.23 335.518C270.079 333.216 280.33 325.703 280.33 325.703L277.014 331.417C278.214 332.142 279.653 332.359 281.013 332.022C282.373 331.684 283.543 330.82 284.267 329.618C287.319 325.266 290.674 323.494 293.581 324.75C295.324 325.491 299.248 328.6 304.149 328.004C306.791 327.687 308.971 326.113 311.428 324.287C313.167 322.994 314.746 321.497 316.131 319.829C314.749 316.876 313.086 314.063 311.164 311.43C310.169 310.08 309.054 308.823 307.835 307.673C306.926 306.824 305.955 306.046 304.929 305.345C303.751 308.818 301.639 311.899 298.825 314.247V314.247Z" fill="url(#paint5_linear_722_38916)"/>
<path d="M374.721 610.294L405.7 597.423C400.296 616.988 397.126 635.269 399.742 642.399C404.313 654.887 405.977 661.13 402.648 666.541H349.805C349.805 666.541 349.805 659.675 358.326 658.207C366.847 656.738 380.982 654.887 377.442 629.488C376.874 625.229 375.896 618.575 374.721 610.294Z" fill="url(#paint6_linear_722_38916)"/>
<path d="M358.34 658.154C365.236 656.99 375.791 655.508 377.707 641.592C384.854 643.841 382.238 656.236 382.238 656.236C390.164 649.172 396.624 647.624 401.446 647.373C404.604 656.633 405.409 661.924 402.569 666.527H349.858C349.858 666.527 349.858 659.609 358.34 658.154Z" fill="#333133"/>
<path d="M491.332 476.306C497.263 480.578 509.034 500.593 510.447 507.524C516.921 539.272 505.163 544.709 566.289 620.533C544.214 597.317 510.329 562.196 509.206 550.807C503.38 533.743 505.19 493.053 491.332 476.306Z" fill="#1D1951"/>
<path d="M434.565 109.607C435.144 97.3654 437.297 85.2498 440.972 73.56C437.973 65.8347 467.394 84.5791 463.43 84.5923C461.792 89.2751 464.091 100.466 465.029 106.485C472.731 106.604 480.367 106.485 488.095 107.001C479.957 120.652 468.279 131.843 451.739 133.92C435.199 135.997 424.776 130.296 417.246 116.512C417.193 116.433 429.162 111.684 434.565 109.607Z" fill="url(#paint7_linear_722_38916)"/>
<path d="M422.742 347.688C421.42 348.799 426.071 378.907 442.241 412.956C441.038 411.369 433.376 399.728 433.548 400.217C433.548 400.217 421.077 422.189 417.087 437.838C413.415 452.297 414.828 456.358 416.44 468.819C416.44 468.819 426.057 506.281 423.97 523.345C420.482 548.611 414.354 573.44 405.687 597.423C405.938 596.616 406.189 595.823 406.426 595.016C416.177 562.962 419.583 529.31 416.453 495.95C415.04 480.631 412.094 467.02 411.499 455.921C410.965 447.283 411.524 438.611 413.164 430.113C414.828 422.176 416.07 417.215 421.09 401.818C426.48 385.15 419.412 357.265 422.742 347.688Z" fill="#1D1951"/>
<path d="M349.171 324.38C344.838 303.453 348.603 289.987 353.135 281.507C363.703 261.321 382.674 260.448 386.386 241.968C388.949 229.203 383.03 224.851 383.889 207.84C384.489 197.68 387.321 187.779 392.185 178.843C392.385 178.413 392.739 178.074 393.178 177.894C393.616 177.715 394.106 177.708 394.55 177.876C394.993 178.043 395.357 178.372 395.567 178.797C395.778 179.222 395.821 179.711 395.686 180.166C391.894 197.591 394.339 215.796 402.595 231.597C401.642 236.24 400.38 240.814 398.817 245.289C389.812 252.617 381.717 261.002 374.708 270.263C362.593 286.366 353.902 304.784 349.171 324.38V324.38Z" fill="#4B497F"/>
<path d="M462.968 91.299L454.104 82.5817C457.082 83.81 460.252 84.504 463.47 84.632C463.378 85.1876 463.312 85.7564 463.246 86.3385C463.062 87.9856 462.969 89.6417 462.968 91.299V91.299Z" fill="#333133"/>
<path d="M446.534 84.4072C446.534 84.4072 471.08 85.8887 478.081 82.9256C485.083 79.9625 483.366 72.7928 483.366 72.7928L490.275 71.0996C490.275 71.0996 489.813 50.6224 470.036 43.6511C450.26 36.6798 435.186 69.4196 446.534 84.4072Z" fill="url(#paint8_linear_722_38916)"/>
<path d="M463.232 68.1497C463.065 68.1463 462.906 68.0783 462.788 67.9599C462.669 67.8416 462.602 67.6821 462.598 67.5147C462.602 67.3406 462.673 67.1746 462.796 67.0517C462.889 66.9724 471.291 59.2603 480.38 65.5173C480.504 65.6176 480.585 65.761 480.609 65.9189C480.632 66.0768 480.595 66.2376 480.505 66.3694C480.415 66.5012 480.279 66.5942 480.123 66.6299C479.968 66.6657 479.805 66.6415 479.666 66.5623C471.41 60.8742 463.747 67.8851 463.668 67.9777C463.548 68.0854 463.393 68.1464 463.232 68.1497Z" fill="#333133"/>
<path d="M478.94 53.9559L479.614 57.9243C479.627 58.0182 479.621 58.1138 479.597 58.2055C479.572 58.2971 479.53 58.383 479.472 58.4581C479.414 58.5332 479.342 58.596 479.26 58.6429C479.178 58.6898 479.087 58.7198 478.993 58.7312H478.768C476.126 58.2286 468.477 56.9983 463.206 58.5593C463.101 58.5977 462.985 58.5928 462.883 58.5457C462.782 58.4986 462.703 58.4131 462.664 58.3079C462.642 58.2648 462.629 58.2175 462.626 58.1691C462.623 58.1206 462.629 58.072 462.645 58.0262C462.661 57.9804 462.686 57.9384 462.719 57.9026C462.752 57.8669 462.792 57.8383 462.836 57.8185V57.8185C467.352 54.5619 472.879 53.0235 478.425 53.4796C478.548 53.4995 478.663 53.5553 478.754 53.64C478.846 53.7247 478.91 53.8345 478.94 53.9559V53.9559Z" fill="#333133"/>
<path d="M468.213 74.3537L476.641 76.6819C476.641 76.6819 473.405 80.5577 470.366 79.3275C467.328 78.0973 468.213 74.3537 468.213 74.3537Z" fill="#F97274"/>
<path d="M468.213 74.3537L476.641 76.6819C476.641 76.6819 473.405 80.5577 470.366 79.3275C467.328 78.0973 468.213 74.3537 468.213 74.3537Z" fill="#D65D2F"/>
<path d="M454.672 84.4865C454.672 84.4865 463.919 87.6745 464.408 101.101C464.408 101.101 466.311 84.7378 462.268 84.7378C458.226 84.7378 454.672 84.4865 454.672 84.4865Z" fill="#FF7341"/>
<path d="M373.254 160.628C373.254 160.628 358.723 136.182 365.09 124.78C371.458 113.377 377.323 118.655 382.423 109.792C387.522 100.929 387.324 94.7913 402.239 86.3517C417.154 77.9121 421.262 69.036 423.534 63.123C425.807 57.21 433.746 44.7887 452.426 42.0901C471.753 39.2196 481.582 50.834 481.582 50.834C481.582 50.834 470.736 45.8072 461.502 53.4135C452.268 61.0197 456.059 76.7612 449.15 82.8462C442.241 88.9312 436.666 88.283 436.666 98.4555C436.666 106.392 434.565 109.607 434.565 109.607C434.565 109.607 411.209 118.734 403.639 122.266C383.823 131.526 373.254 161.065 373.254 161.065" fill="#333133"/>
<path d="M801.565 307.242H790.436V570.494H801.565V307.242Z" fill="#3A765A"/>
<path d="M883.487 552.443C847.086 579.062 795.122 569.825 795.122 569.825C795.122 569.825 802.234 517.427 838.635 490.724C875.035 464.021 927 473.342 927 473.342C927 473.342 919.887 525.74 883.487 552.443Z" fill="#4F9977"/>
<path d="M708.513 552.443C744.914 579.062 796.879 569.825 796.879 569.825C796.879 569.825 789.766 517.427 753.365 490.724C716.965 464.021 665 473.342 665 473.342C665 473.342 672.113 525.74 708.513 552.443Z" fill="#4F9977"/>
<path d="M856.793 447.478C831.522 465.952 795.456 459.57 795.456 459.57C795.456 459.57 800.393 423.127 825.664 404.653C850.935 386.179 887.001 392.561 887.001 392.561C887.001 392.561 882.064 429.005 856.793 447.478Z" fill="#4F9977"/>
<path d="M735.207 447.478C760.478 465.952 796.544 459.57 796.544 459.57C796.544 459.57 791.607 423.127 766.335 404.653C741.064 386.179 704.999 392.561 704.999 392.561C704.999 392.561 709.936 429.005 735.207 447.478Z" fill="#4F9977"/>
<path d="M842.567 368.545C823.154 382.736 795.54 377.782 795.54 377.782C795.54 377.782 799.305 349.903 818.719 335.712C838.132 321.521 865.747 326.475 865.747 326.475C865.747 326.475 861.981 354.354 842.567 368.545Z" fill="#4F9977"/>
<path d="M749.433 368.545C768.846 382.736 796.46 377.782 796.46 377.782C796.46 377.782 792.695 349.903 773.281 335.712C753.868 321.521 726.253 326.475 726.253 326.475C726.253 326.475 730.019 354.354 749.433 368.545Z" fill="#4F9977"/>
<path d="M828.258 302.711C814.87 312.536 795.707 309.093 795.707 309.093C795.707 309.093 798.301 289.779 811.773 279.955C825.162 270.13 844.325 273.573 844.325 273.573C844.325 273.573 841.647 292.97 828.258 302.711Z" fill="#4F9977"/>
<path d="M763.742 302.711C777.13 312.536 796.293 309.093 796.293 309.093C796.293 309.093 793.699 289.779 780.227 279.955C766.754 270.13 747.675 273.573 747.675 273.573C747.675 273.573 750.269 292.97 763.742 302.711Z" fill="#4F9977"/>
<path d="M876.206 599.296H714.12V667.985H876.206V599.296Z" fill="#DCDDE2"/>
<path d="M876.206 564.952H714.12V604.166H876.206V564.952Z" fill="#C0C0D1"/>
<path d="M166.516 637.514L337.207 637.381C338.477 637.385 339.695 637.889 340.592 638.783C341.49 639.678 341.995 640.889 341.997 642.153L342 660.088C341.996 661.351 341.488 662.561 340.589 663.454C339.69 664.346 338.472 664.848 337.202 664.85L166.511 664.982C165.241 664.978 164.023 664.474 163.126 663.58C162.228 662.686 161.723 661.475 161.721 660.211L161.717 642.276C161.722 641.012 162.229 639.802 163.128 638.91C164.027 638.017 165.245 637.515 166.516 637.514V637.514Z" fill="#F9D039"/>
<path d="M152.096 610.054L322.787 609.921C324.057 609.925 325.275 610.429 326.172 611.324C327.07 612.218 327.575 613.429 327.577 614.693L327.58 632.628C327.576 633.892 327.069 635.102 326.17 635.995C325.271 636.888 324.053 637.39 322.782 637.392L152.091 637.525C150.821 637.521 149.603 637.017 148.705 636.123C147.807 635.228 147.302 634.017 147.301 632.753L147.297 614.818C147.301 613.554 147.808 612.344 148.707 611.451C149.607 610.558 150.825 610.056 152.096 610.054V610.054Z" fill="#F9D039"/>
<path d="M139.757 582.609L310.448 582.476C311.719 582.48 312.936 582.984 313.834 583.878C314.731 584.772 315.236 585.984 315.238 587.248L315.241 605.183C315.238 606.447 314.731 607.657 313.831 608.55C312.932 609.443 311.714 609.945 310.444 609.947L139.794 610.058C138.523 610.054 137.305 609.55 136.408 608.655C135.51 607.761 135.005 606.549 135.003 605.285L135 587.35C134.999 586.094 135.5 584.889 136.392 584C137.284 583.111 138.494 582.611 139.757 582.609V582.609Z" fill="#F9D039"/>
<path d="M155.23 555.117L325.921 554.984C327.192 554.988 328.409 555.492 329.307 556.387C330.205 557.281 330.71 558.492 330.712 559.756L330.715 577.691C330.711 578.955 330.204 580.166 329.305 581.058C328.406 581.951 327.187 582.453 325.917 582.455L155.226 582.588C153.956 582.584 152.738 582.08 151.841 581.186C150.943 580.292 150.438 579.081 150.435 577.818L150.432 559.882C150.436 558.618 150.943 557.407 151.842 556.514C152.741 555.621 153.959 555.119 155.23 555.117V555.117Z" fill="#F9D039"/>
<path d="M178.647 637.504H174.542V664.979H178.647V637.504Z" fill="#FFE76C"/>
<path d="M200.509 637.501H196.405V664.976H200.509V637.501Z" fill="#FFE76C"/>
<path d="M222.372 637.467H218.268V664.941H222.372V637.467Z" fill="#FFE76C"/>
<path d="M244.236 637.431H240.131V664.905H244.236V637.431Z" fill="#FFE76C"/>
<path d="M266.098 637.43H261.994V664.904H266.098V637.43Z" fill="#FFE76C"/>
<path d="M287.96 637.427H283.856V664.902H287.96V637.427Z" fill="#FFE76C"/>
<path d="M164.226 610.047H160.122V637.522H164.226V610.047Z" fill="#FFE76C"/>
<path d="M186.09 610.011H181.985V637.486H186.09V610.011Z" fill="#FFE76C"/>
<path d="M207.952 610.011H203.848V637.485H207.952V610.011Z" fill="#FFE76C"/>
<path d="M229.815 610.008H225.71V637.483H229.815V610.008Z" fill="#FFE76C"/>
<path d="M151.891 582.606H147.787V610.081H151.891V582.606Z" fill="#FFE76C"/>
<path d="M173.755 582.57H169.65V610.045H173.755V582.57Z" fill="#FFE76C"/>
<path d="M195.65 582.568H191.546V610.043H195.65V582.568Z" fill="#FFE76C"/>
<path d="M217.513 582.532H213.409V610.007H217.513V582.532Z" fill="#FFE76C"/>
<path d="M167.361 555.109H163.256V582.584H167.361V555.109Z" fill="#FFE76C"/>
<path d="M189.224 555.074H185.12V582.549H189.224V555.074Z" fill="#FFE76C"/>
<path d="M211.086 555.073H206.982V582.547H211.086V555.073Z" fill="#FFE76C"/>
<path d="M309.857 637.391H305.752V664.866H309.857V637.391Z" fill="#FFE76C"/>
<path d="M331.719 637.389H327.615V664.864H331.719V637.389Z" fill="#FFE76C"/>
<path d="M251.711 609.973H247.606V637.447H251.711V609.973Z" fill="#FFE76C"/>
<path d="M273.573 609.97H269.469V637.445H273.573V609.97Z" fill="#FFE76C"/>
<path d="M295.435 609.935H291.331V637.41H295.435V609.935Z" fill="#FFE76C"/>
<path d="M317.298 609.933H313.193V637.407H317.298V609.933Z" fill="#FFE76C"/>
<path d="M239.376 582.531H235.271V610.005H239.376V582.531Z" fill="#FFE76C"/>
<path d="M261.238 582.495H257.134V609.97H261.238V582.495Z" fill="#FFE76C"/>
<path d="M283.1 582.494H278.996V609.968H283.1V582.494Z" fill="#FFE76C"/>
<path d="M304.962 582.458H300.858V609.933H304.962V582.458Z" fill="#FFE76C"/>
<path d="M232.949 555.038H228.845V582.512H232.949V555.038Z" fill="#FFE76C"/>
<path d="M254.813 555.035H250.708V582.509H254.813V555.035Z" fill="#FFE76C"/>
<path d="M276.708 555H272.604V582.475H276.708V555Z" fill="#FFE76C"/>
<path d="M298.57 554.997H294.466V582.472H298.57V554.997Z" fill="#FFE76C"/>
<path d="M320.433 554.997H316.329V582.471H320.433V554.997Z" fill="#FFE76C"/>
<path d="M307.422 533.758L168.89 533.651C167.859 533.654 166.871 534.062 166.142 534.785C165.414 535.509 165.004 536.489 165.003 537.511L165 552.023C165.003 553.045 165.415 554.024 166.145 554.746C166.875 555.468 167.863 555.874 168.894 555.875L307.426 555.983C308.457 555.98 309.445 555.572 310.173 554.848C310.902 554.125 311.312 553.145 311.313 552.122L311.316 537.611C311.313 536.589 310.901 535.61 310.171 534.888C309.442 534.166 308.453 533.76 307.422 533.758V533.758Z" fill="#F9D039"/>
<path d="M319.125 511.541L180.593 511.433C179.562 511.436 178.574 511.844 177.846 512.568C177.117 513.291 176.707 514.272 176.706 515.294L176.703 529.805C176.706 530.828 177.118 531.807 177.847 532.529C178.577 533.252 179.566 533.658 180.597 533.66L319.129 533.767C320.16 533.764 321.148 533.356 321.877 532.632C322.606 531.909 323.015 530.929 323.017 529.906L323.02 515.395C323.016 514.373 322.605 513.393 321.875 512.671C321.145 511.948 320.157 511.542 319.125 511.541V511.541Z" fill="#F9D039"/>
<path d="M329.139 489.335L190.608 489.228C189.576 489.231 188.588 489.639 187.86 490.362C187.131 491.086 186.721 492.066 186.72 493.088L186.717 507.6C186.72 508.622 187.132 509.601 187.861 510.324C188.591 511.046 189.58 511.452 190.611 511.454L329.109 511.544C330.141 511.541 331.129 511.133 331.858 510.409C332.586 509.685 332.996 508.705 332.997 507.682L333 493.171C333.001 492.155 332.594 491.18 331.871 490.461C331.147 489.741 330.164 489.336 329.139 489.335V489.335Z" fill="#F9D039"/>
<path d="M316.581 467.092L178.05 466.984C177.018 466.987 176.03 467.395 175.302 468.119C174.573 468.842 174.163 469.823 174.162 470.845L174.159 485.356C174.162 486.379 174.574 487.358 175.304 488.081C176.033 488.803 177.022 489.209 178.053 489.211L316.585 489.318C317.616 489.315 318.604 488.907 319.333 488.184C320.061 487.461 320.471 486.481 320.473 485.458L320.476 470.947C320.473 469.924 320.061 468.945 319.332 468.222C318.602 467.5 317.613 467.093 316.581 467.092V467.092Z" fill="#F9D039"/>
<path d="M297.577 533.75H300.908V555.98H297.577V533.75Z" fill="#FFE76C"/>
<path d="M279.833 533.748H283.164V555.978H279.833V533.748Z" fill="#FFE76C"/>
<path d="M262.089 533.72H265.42V555.949H262.089V533.72Z" fill="#FFE76C"/>
<path d="M244.345 533.691H247.676V555.921H244.345V533.691Z" fill="#FFE76C"/>
<path d="M226.602 533.69H229.933V555.92H226.602V533.69Z" fill="#FFE76C"/>
<path d="M208.859 533.688H212.189V555.918H208.859V533.688Z" fill="#FFE76C"/>
<path d="M309.28 511.535H312.611V533.765H309.28V511.535Z" fill="#FFE76C"/>
<path d="M291.536 511.506H294.867V533.736H291.536V511.506Z" fill="#FFE76C"/>
<path d="M273.793 511.506H277.124V533.735H273.793V511.506Z" fill="#FFE76C"/>
<path d="M256.049 511.503H259.38V533.733H256.049V511.503Z" fill="#FFE76C"/>
<path d="M319.291 489.333H322.622V511.562H319.291V489.333Z" fill="#FFE76C"/>
<path d="M301.547 489.304H304.878V511.533H301.547V489.304Z" fill="#FFE76C"/>
<path d="M283.777 489.302H287.108V511.532H283.777V489.302Z" fill="#FFE76C"/>
<path d="M266.033 489.273H269.364V511.503H266.033V489.273Z" fill="#FFE76C"/>
<path d="M306.736 467.086H310.067V489.315H306.736V467.086Z" fill="#FFE76C"/>
<path d="M288.992 467.057H292.323V489.287H288.992V467.057Z" fill="#FFE76C"/>
<path d="M271.249 467.056H274.58V489.285H271.249V467.056Z" fill="#FFE76C"/>
<path d="M191.088 533.659H194.418V555.888H191.088V533.659Z" fill="#FFE76C"/>
<path d="M173.344 533.657H176.675V555.887H173.344V533.657Z" fill="#FFE76C"/>
<path d="M238.278 511.475H241.609V533.704H238.278V511.475Z" fill="#FFE76C"/>
<path d="M220.535 511.473H223.866V533.702H220.535V511.473Z" fill="#FFE76C"/>
<path d="M202.792 511.445H206.123V533.674H202.792V511.445Z" fill="#FFE76C"/>
<path d="M185.048 511.443H188.379V533.672H185.048V511.443Z" fill="#FFE76C"/>
<path d="M248.289 489.272H251.62V511.501H248.289V489.272Z" fill="#FFE76C"/>
<path d="M230.546 489.243H233.877V511.473H230.546V489.243Z" fill="#FFE76C"/>
<path d="M212.803 489.242H216.134V511.472H212.803V489.242Z" fill="#FFE76C"/>
<path d="M195.06 489.213H198.391V511.442H195.06V489.213Z" fill="#FFE76C"/>
<path d="M253.505 467.028H256.836V489.257H253.505V467.028Z" fill="#FFE76C"/>
<path d="M235.761 467.025H239.092V489.255H235.761V467.025Z" fill="#FFE76C"/>
<path d="M217.99 466.997H221.321V489.226H217.99V466.997Z" fill="#FFE76C"/>
<path d="M200.247 466.995H203.578V489.224H200.247V466.995Z" fill="#FFE76C"/>
<path d="M182.504 466.994H185.835V489.224H182.504V466.994Z" fill="#FFE76C"/>
<path d="M185.619 451.005L302.712 450.913C303.583 450.916 304.418 451.264 305.034 451.882C305.65 452.5 305.996 453.337 305.998 454.21L306 466.601C305.997 467.474 305.649 468.31 305.032 468.927C304.415 469.543 303.58 469.89 302.709 469.891L185.616 469.983C184.745 469.98 183.91 469.632 183.294 469.014C182.678 468.396 182.331 467.56 182.33 466.687L182.328 454.295C182.331 453.422 182.679 452.586 183.295 451.969C183.912 451.353 184.748 451.006 185.619 451.005V451.005Z" fill="#F9D039"/>
<path d="M175.728 432.032L292.82 431.941C293.692 431.943 294.527 432.292 295.143 432.91C295.758 433.527 296.105 434.364 296.106 435.238L296.108 447.629C296.106 448.502 295.758 449.339 295.141 449.955C294.524 450.572 293.689 450.919 292.817 450.921L175.725 451.012C174.853 451.01 174.018 450.661 173.402 450.043C172.786 449.426 172.44 448.589 172.438 447.715L172.436 435.324C172.439 434.451 172.787 433.614 173.403 432.997C174.02 432.381 174.856 432.034 175.728 432.032V432.032Z" fill="#F9D039"/>
<path d="M167.263 413.07L284.356 412.979C285.227 412.981 286.062 413.33 286.678 413.947C287.294 414.565 287.64 415.402 287.642 416.275L287.644 428.667C287.641 429.54 287.293 430.376 286.677 430.993C286.06 431.61 285.224 431.957 284.353 431.958L167.289 432.035C166.417 432.032 165.581 431.684 164.966 431.066C164.35 430.448 164.003 429.611 164.002 428.738L164 416.346C163.999 415.478 164.343 414.646 164.955 414.032C165.567 413.417 166.397 413.072 167.263 413.07V413.07Z" fill="#F9D039"/>
<path d="M177.878 394.076L294.97 393.984C295.842 393.987 296.677 394.335 297.293 394.953C297.909 395.571 298.255 396.408 298.256 397.281L298.259 409.673C298.256 410.546 297.908 411.382 297.291 411.999C296.674 412.616 295.839 412.963 294.967 412.964L177.875 413.056C177.003 413.053 176.168 412.705 175.553 412.087C174.937 411.47 174.59 410.633 174.589 409.76L174.586 397.368C174.589 396.495 174.937 395.658 175.553 395.041C176.17 394.424 177.006 394.077 177.878 394.076V394.076Z" fill="#F9D039"/>
<path d="M193.941 450.998H191.126V469.981H193.941V450.998Z" fill="#FFE76C"/>
<path d="M208.938 450.996H206.123V469.979H208.938V450.996Z" fill="#FFE76C"/>
<path d="M223.937 450.972H221.121V469.955H223.937V450.972Z" fill="#FFE76C"/>
<path d="M238.935 450.947H236.119V469.93H238.935V450.947Z" fill="#FFE76C"/>
<path d="M253.932 450.947H251.116V469.929H253.932V450.947Z" fill="#FFE76C"/>
<path d="M268.929 450.945H266.114V469.927H268.929V450.945Z" fill="#FFE76C"/>
<path d="M184.048 432.028H181.233V451.01H184.048V432.028Z" fill="#FFE76C"/>
<path d="M199.047 432.003H196.231V450.985H199.047V432.003Z" fill="#FFE76C"/>
<path d="M214.044 432.002H211.229V450.985H214.044V432.002Z" fill="#FFE76C"/>
<path d="M229.042 432.001H226.227V450.983H229.042V432.001Z" fill="#FFE76C"/>
<path d="M175.587 413.068H172.772V432.051H175.587V413.068Z" fill="#FFE76C"/>
<path d="M190.585 413.044H187.77V432.026H190.585V413.044Z" fill="#FFE76C"/>
<path d="M205.605 413.042H202.79V432.025H205.605V413.042Z" fill="#FFE76C"/>
<path d="M220.603 413.017H217.788V432H220.603V413.017Z" fill="#FFE76C"/>
<path d="M186.199 394.071H183.384V413.053H186.199V394.071Z" fill="#FFE76C"/>
<path d="M201.197 394.047H198.382V413.029H201.197V394.047Z" fill="#FFE76C"/>
<path d="M216.194 394.045H213.379V413.028H216.194V394.045Z" fill="#FFE76C"/>
<path d="M283.95 450.92H281.135V469.902H283.95V450.92Z" fill="#FFE76C"/>
<path d="M298.947 450.919H296.132V469.901H298.947V450.919Z" fill="#FFE76C"/>
<path d="M244.062 431.976H241.247V450.959H244.062V431.976Z" fill="#FFE76C"/>
<path d="M259.06 431.974H256.244V450.957H259.06V431.974Z" fill="#FFE76C"/>
<path d="M274.057 431.95H271.242V450.933H274.057V431.95Z" fill="#FFE76C"/>
<path d="M289.054 431.949H286.239V450.931H289.054V431.949Z" fill="#FFE76C"/>
<path d="M235.601 413.016H232.785V431.999H235.601V413.016Z" fill="#FFE76C"/>
<path d="M250.598 412.992H247.783V431.975H250.598V412.992Z" fill="#FFE76C"/>
<path d="M265.595 412.991H262.78V431.973H265.595V412.991Z" fill="#FFE76C"/>
<path d="M280.592 412.966H277.777V431.949H280.592V412.966Z" fill="#FFE76C"/>
<path d="M231.192 394.021H228.377V413.004H231.192V394.021Z" fill="#FFE76C"/>
<path d="M246.19 394.019H243.375V413.002H246.19V394.019Z" fill="#FFE76C"/>
<path d="M261.21 393.995H258.395V412.978H261.21V393.995Z" fill="#FFE76C"/>
<path d="M276.208 393.993H273.393V412.976H276.208V393.993Z" fill="#FFE76C"/>
<path d="M291.205 393.993H288.39V412.975H291.205V393.993Z" fill="#FFE76C"/>
<path d="M280.709 382.5L192.478 382.43C191.821 382.432 191.192 382.698 190.727 383.169C190.263 383.641 190.002 384.28 190.002 384.946L190 394.403C190.002 395.069 190.264 395.707 190.729 396.177C191.194 396.648 191.823 396.912 192.48 396.913L280.711 396.983C281.368 396.981 281.997 396.716 282.462 396.244C282.926 395.773 283.187 395.134 283.188 394.468L283.189 385.011C283.187 384.345 282.925 383.707 282.46 383.236C281.995 382.766 281.366 382.501 280.709 382.5V382.5Z" fill="#F9D039"/>
<path d="M288.163 368.021L199.932 367.951C199.275 367.953 198.646 368.219 198.182 368.691C197.718 369.162 197.457 369.801 197.456 370.467L197.454 379.924C197.456 380.59 197.718 381.228 198.183 381.699C198.648 382.17 199.277 382.435 199.934 382.436L288.166 382.506C288.822 382.504 289.452 382.238 289.916 381.766C290.38 381.295 290.641 380.656 290.642 379.99L290.644 370.533C290.642 369.867 290.379 369.228 289.915 368.758C289.45 368.287 288.82 368.022 288.163 368.021V368.021Z" fill="#F9D039"/>
<path d="M294.541 353.55L206.31 353.48C205.653 353.482 205.023 353.748 204.559 354.219C204.095 354.691 203.834 355.33 203.833 355.996L203.832 365.453C203.834 366.119 204.096 366.757 204.561 367.228C205.025 367.699 205.655 367.963 206.312 367.964L294.522 368.023C295.179 368.021 295.808 367.755 296.272 367.283C296.737 366.812 296.998 366.173 296.998 365.507L297 356.05C297 355.387 296.742 354.752 296.281 354.283C295.82 353.815 295.194 353.551 294.541 353.55V353.55Z" fill="#F9D039"/>
<path d="M286.543 339.054L198.311 338.984C197.654 338.986 197.025 339.252 196.561 339.724C196.097 340.195 195.836 340.834 195.835 341.5L195.833 350.957C195.835 351.623 196.097 352.262 196.562 352.732C197.027 353.203 197.657 353.468 198.314 353.469L286.545 353.539C287.202 353.537 287.831 353.271 288.295 352.8C288.759 352.328 289.02 351.69 289.021 351.024L289.023 341.567C289.021 340.9 288.759 340.262 288.294 339.791C287.829 339.32 287.2 339.055 286.543 339.054V339.054Z" fill="#F9D039"/>
<path d="M274.439 382.495H276.56V396.981H274.439V382.495Z" fill="#FFE76C"/>
<path d="M263.138 382.493H265.259V396.98H263.138V382.493Z" fill="#FFE76C"/>
<path d="M251.837 382.475H253.958V396.962H251.837V382.475Z" fill="#FFE76C"/>
<path d="M240.535 382.456H242.657V396.943H240.535V382.456Z" fill="#FFE76C"/>
<path d="M229.234 382.456H231.356V396.942H229.234V382.456Z" fill="#FFE76C"/>
<path d="M217.934 382.454H220.055V396.941H217.934V382.454Z" fill="#FFE76C"/>
<path d="M281.893 368.018H284.015V382.504H281.893V368.018Z" fill="#FFE76C"/>
<path d="M270.591 367.999H272.713V382.485H270.591V367.999Z" fill="#FFE76C"/>
<path d="M259.291 367.998H261.412V382.485H259.291V367.998Z" fill="#FFE76C"/>
<path d="M247.99 367.997H250.111V382.483H247.99V367.997Z" fill="#FFE76C"/>
<path d="M288.269 353.548H290.39V368.035H288.269V353.548Z" fill="#FFE76C"/>
<path d="M276.967 353.53H279.089V368.016H276.967V353.53Z" fill="#FFE76C"/>
<path d="M265.65 353.529H267.771V368.015H265.65V353.529Z" fill="#FFE76C"/>
<path d="M254.349 353.51H256.47V367.996H254.349V353.51Z" fill="#FFE76C"/>
<path d="M280.273 339.05H282.394V353.537H280.273V339.05Z" fill="#FFE76C"/>
<path d="M268.971 339.032H271.093V353.518H268.971V339.032Z" fill="#FFE76C"/>
<path d="M257.671 339.031H259.792V353.517H257.671V339.031Z" fill="#FFE76C"/>
<path d="M206.615 382.435H208.737V396.922H206.615V382.435Z" fill="#FFE76C"/>
<path d="M195.315 382.434H197.436V396.921H195.315V382.434Z" fill="#FFE76C"/>
<path d="M236.671 367.978H238.792V382.465H236.671V367.978Z" fill="#FFE76C"/>
<path d="M225.371 367.977H227.492V382.463H225.371V367.977Z" fill="#FFE76C"/>
<path d="M214.07 367.958H216.191V382.445H214.07V367.958Z" fill="#FFE76C"/>
<path d="M202.769 367.957H204.891V382.444H202.769V367.957Z" fill="#FFE76C"/>
<path d="M243.047 353.509H245.169V367.995H243.047V353.509Z" fill="#FFE76C"/>
<path d="M231.747 353.49H233.868V367.977H231.747V353.49Z" fill="#FFE76C"/>
<path d="M220.446 353.489H222.567V367.976H220.446V353.489Z" fill="#FFE76C"/>
<path d="M209.145 353.47H211.267V367.957H209.145V353.47Z" fill="#FFE76C"/>
<path d="M246.369 339.013H248.491V353.499H246.369V339.013Z" fill="#FFE76C"/>
<path d="M235.068 339.011H237.189V353.498H235.068V339.011Z" fill="#FFE76C"/>
<path d="M223.75 338.993H225.871V353.479H223.75V338.993Z" fill="#FFE76C"/>
<path d="M212.449 338.991H214.571V353.478H212.449V338.991Z" fill="#FFE76C"/>
<path d="M201.149 338.991H203.27V353.477H201.149V338.991Z" fill="#FFE76C"/>
<path d="M219.661 640.301C253.417 606.835 253.417 552.575 219.661 519.108C185.904 485.642 131.175 485.642 97.4187 519.108C63.6626 552.575 63.6626 606.835 97.4187 640.301C131.175 673.768 185.904 673.768 219.661 640.301Z" fill="#1D1951"/>
<path d="M157.068 508.452L188.488 499.366C186.59 498.652 184.626 498.036 182.662 497.452L156.086 505.142L157.068 508.452Z" fill="#25215E"/>
<path d="M207.274 509.003L165.512 521.074L166.494 524.384L210.874 511.567C209.696 510.658 208.485 509.815 207.274 509.003Z" fill="#25215E"/>
<path d="M223.312 522.989L183.84 534.41L184.822 537.72L225.767 525.877C224.981 524.903 224.163 523.93 223.312 522.989Z" fill="#25215E"/>
<path d="M234.276 538.467L202.168 547.747L203.15 551.057L235.912 541.582C235.389 540.543 234.865 539.505 234.276 538.467Z" fill="#25215E"/>
<path d="M212.904 566.891L242.229 558.422C242 557.546 241.771 556.67 241.509 555.762L241.313 555.08L211.922 563.582L212.904 566.891Z" fill="#25215E"/>
<path d="M181.353 591.065L182.334 594.375L244.913 576.301C244.88 575.133 244.782 573.965 244.684 572.765L181.353 591.065Z" fill="#25215E"/>
<path d="M186.426 608.263L187.408 611.573L243.538 595.349C243.767 594.083 243.964 592.85 244.16 591.585L186.426 608.263Z" fill="#25215E"/>
<path d="M191.466 625.428L192.448 628.738L236.895 615.889C237.516 614.526 238.138 613.163 238.695 611.768L191.466 625.428Z" fill="#25215E"/>
<path d="M196.539 642.626L197.521 645.936L220.824 639.186C222.33 637.629 223.803 636.007 225.177 634.352L196.539 642.626Z" fill="#25215E"/>
<path d="M139.46 670.922C187.199 670.922 225.898 632.554 225.898 585.226C225.898 537.897 187.199 499.529 139.46 499.529C91.7221 499.529 53.0225 537.897 53.0225 585.226C53.0225 632.554 91.7221 670.922 139.46 670.922Z" fill="#F9D039"/>
<path d="M115.272 503C107.559 505.236 100.191 508.512 93.3764 512.735L61.3018 621.924C69.7196 639.584 83.9848 653.853 101.722 662.355L149.343 500.08C137.903 498.806 126.322 499.799 115.272 503V503Z" fill="#FFE76C"/>
<path d="M148.623 670.499L193.332 518.219C186.138 512.536 178.071 508.033 169.439 504.882L121.229 669.039C130.222 670.984 139.472 671.477 148.623 670.499V670.499Z" fill="#FFE76C"/>
<path d="M179.336 624.759C201.358 602.925 201.358 567.526 179.336 545.692C157.313 523.858 121.607 523.858 99.5845 545.692C77.5619 567.526 77.5619 602.925 99.5845 624.759C121.607 646.593 157.313 646.593 179.336 624.759Z" fill="#FF7341"/>
<path d="M160.995 533.599L129.673 640.322C138.2 641.81 146.957 641.332 155.268 638.927C156.249 638.635 157.231 638.343 158.181 637.986L183.808 550.7C177.794 543.169 169.942 537.284 160.995 533.599V533.599Z" fill="#FF9A72"/>
<path d="M123.684 531.62C93.8018 540.251 76.6189 571.272 85.3249 600.93C89.2865 614.4 98.2121 625.902 110.33 633.151L140.801 529.413C135.014 529.252 129.237 529.997 123.684 531.62V531.62Z" fill="#FF9A72"/>
<path d="M266.899 659.57C288.348 638.393 288.348 604.059 266.899 582.883C245.45 561.706 210.674 561.706 189.224 582.883C167.775 604.059 167.775 638.393 189.224 659.57C210.674 680.746 245.45 680.746 266.899 659.57Z" fill="#1D1951"/>
<path d="M227.126 576.14L247.091 570.39C245.885 569.939 244.637 569.549 243.389 569.179L226.502 574.045L227.126 576.14Z" fill="#25215E"/>
<path d="M259.028 576.489L232.492 584.127L233.116 586.221L261.316 578.111C260.567 577.536 259.798 577.002 259.028 576.489Z" fill="#25215E"/>
<path d="M269.219 585.338L244.138 592.565L244.762 594.66L270.779 587.165C270.28 586.549 269.76 585.933 269.219 585.338Z" fill="#25215E"/>
<path d="M276.186 595.132L255.784 601.004L256.408 603.099L277.226 597.103C276.893 596.446 276.56 595.789 276.186 595.132Z" fill="#25215E"/>
<path d="M262.605 613.118L281.239 607.759C281.094 607.205 280.948 606.651 280.782 606.076L280.657 605.645L261.981 611.024L262.605 613.118Z" fill="#25215E"/>
<path d="M242.558 628.415L243.182 630.509L282.945 619.073C282.924 618.333 282.862 617.594 282.799 616.835L242.558 628.415Z" fill="#25215E"/>
<path d="M245.781 639.297L246.405 641.391L282.071 631.125C282.217 630.324 282.341 629.544 282.466 628.743L245.781 639.297Z" fill="#25215E"/>
<path d="M248.984 650.159L249.608 652.253L277.85 644.122C278.245 643.26 278.64 642.397 278.994 641.515L248.984 650.159Z" fill="#25215E"/>
<path d="M252.207 661.041L252.831 663.135L267.638 658.864C268.595 657.879 269.531 656.852 270.404 655.805L252.207 661.041Z" fill="#25215E"/>
<path d="M215.938 678.946C246.272 678.946 270.862 654.668 270.862 624.72C270.862 594.772 246.272 570.494 215.938 570.494C185.605 570.494 161.014 594.772 161.014 624.72C161.014 654.668 185.605 678.946 215.938 678.946Z" fill="#F9D039"/>
<path d="M200.569 572.69C195.667 574.105 190.986 576.177 186.656 578.85L166.275 647.941C171.624 659.116 180.688 668.145 191.959 673.524L222.218 570.842C214.949 570.036 207.59 570.664 200.569 572.69V572.69Z" fill="#FFE76C"/>
<path d="M221.761 678.678L250.169 582.32C245.598 578.724 240.472 575.875 234.988 573.881L204.354 677.754C210.068 678.985 215.946 679.297 221.761 678.678V678.678Z" fill="#FFE76C"/>
<path d="M241.276 649.735C255.269 635.919 255.269 613.52 241.276 599.704C227.282 585.888 204.594 585.888 190.601 599.704C176.607 613.52 176.607 635.919 190.601 649.735C204.594 663.551 227.282 663.551 241.276 649.735Z" fill="#FF7341"/>
<path d="M229.622 592.052L209.72 659.583C215.138 660.524 220.702 660.222 225.983 658.7C226.607 658.515 227.231 658.331 227.834 658.105L244.117 602.873C240.296 598.108 235.307 594.383 229.622 592.052V592.052Z" fill="#FF9A72"/>
<path d="M205.914 590.8C186.926 596.261 176.008 615.89 181.54 634.657C184.057 643.18 189.729 650.458 197.429 655.045L216.79 589.403C213.113 589.301 209.442 589.773 205.914 590.8V590.8Z" fill="#FF9A72"/>
<defs>
<linearGradient id="paint0_linear_722_38916" x1="516" y1="619.985" x2="606.254" y2="678.814" gradientUnits="userSpaceOnUse">
<stop stop-color="#FF8658"/>
<stop offset="0.341103" stop-color="#FF9A72"/>
<stop offset="1" stop-color="#FFE76C"/>
</linearGradient>
<linearGradient id="paint1_linear_722_38916" x1="618.888" y1="47.7675" x2="645.075" y2="27.8949" gradientUnits="userSpaceOnUse">
<stop stop-color="#FF8658"/>
<stop offset="0.341103" stop-color="#FF9A72"/>
<stop offset="1" stop-color="#FFE76C"/>
</linearGradient>
<linearGradient id="paint2_linear_722_38916" x1="619.027" y1="43.7789" x2="641.781" y2="14.0058" gradientUnits="userSpaceOnUse">
<stop stop-color="#FF8658"/>
<stop offset="0.341103" stop-color="#FF9A72"/>
<stop offset="1" stop-color="#FFE76C"/>
</linearGradient>
<linearGradient id="paint3_linear_722_38916" x1="565.481" y1="119.828" x2="631.582" y2="8.25145" gradientUnits="userSpaceOnUse">
<stop stop-color="#FF8658"/>
<stop offset="0.341103" stop-color="#FF9A72"/>
<stop offset="1" stop-color="#FFE76C"/>
</linearGradient>
<linearGradient id="paint4_linear_722_38916" x1="391.5" y1="72.9849" x2="458" y2="300.985" gradientUnits="userSpaceOnUse">
<stop stop-color="#EAE9F7"/>
<stop offset="0.620944" stop-color="#8B89C2"/>
<stop offset="1" stop-color="#686596"/>
</linearGradient>
<linearGradient id="paint5_linear_722_38916" x1="341.5" y1="311.985" x2="297.656" y2="390.024" gradientUnits="userSpaceOnUse">
<stop stop-color="#FF8658"/>
<stop offset="0.0653617" stop-color="#FF9A72"/>
<stop offset="1" stop-color="#FFE76C"/>
</linearGradient>
<linearGradient id="paint6_linear_722_38916" x1="483.5" y1="596.986" x2="364.18" y2="657.31" gradientUnits="userSpaceOnUse">
<stop stop-color="#FF8658"/>
<stop offset="0.341103" stop-color="#FF9A72"/>
<stop offset="1" stop-color="#FFE76C"/>
</linearGradient>
<linearGradient id="paint7_linear_722_38916" x1="417" y1="202.486" x2="487.028" y2="58.8747" gradientUnits="userSpaceOnUse">
<stop stop-color="#FF8658"/>
<stop offset="0.341103" stop-color="#FF9A72"/>
<stop offset="1" stop-color="#FFE76C"/>
</linearGradient>
<linearGradient id="paint8_linear_722_38916" x1="374" y1="110.983" x2="453.637" y2="11.4047" gradientUnits="userSpaceOnUse">
<stop stop-color="#FF8658"/>
<stop offset="0.341103" stop-color="#FF9A72"/>
<stop offset="1" stop-color="#FFE76C"/>
</linearGradient>
</defs>
</svg>
