<svg width="170" height="244" viewBox="0 0 170 244" fill="none" xmlns="http://www.w3.org/2000/svg">
<mask id="mask0_411_13658" style="mask-type:alpha" maskUnits="userSpaceOnUse" x="0" y="0" width="170" height="244">
<rect width="170" height="244" fill="#F3F3F7"/>
</mask>
<g mask="url(#mask0_411_13658)">
<rect width="170" height="244" fill="#F3F3F7"/>
<path d="M142.064 157.781L142.785 164.071L150.447 230.854H152.569L146.948 164.071L146.266 155.988V155.983L146.255 155.988L142.064 157.781Z" fill="#AFADCB"/>
<path d="M108.928 157.781L109.649 164.071L117.311 230.854H119.433L113.811 164.071L113.13 155.988V155.983L113.119 155.988L108.928 157.781Z" fill="#AFADCB"/>
<path d="M92.2972 230.854H94.4195L102.082 164.071L102.803 157.781L98.6117 155.988L98.6005 155.983V155.988L97.9193 164.071L92.2972 230.854Z" fill="#AFADCB"/>
<path d="M125.558 230.854H127.68L135.342 164.071L136.063 157.781L131.872 155.988L131.861 155.983V155.988L131.18 164.071L125.558 230.854Z" fill="#AFADCB"/>
<path d="M146.255 155.988L142.064 157.782L142.785 164.072H146.948L146.266 155.988H146.255Z" fill="#333133"/>
<path d="M131.861 155.988L131.18 164.072H135.342L136.063 157.782L131.872 155.988H131.861Z" fill="#333133"/>
<path d="M113.119 155.988L108.928 157.782L109.649 164.072H113.811L113.13 155.988H113.119Z" fill="#333133"/>
<path d="M97.9193 164.072H102.082L102.803 157.782L98.6117 155.988H98.6005L97.9193 164.072Z" fill="#333133"/>
<path d="M89.4117 160.465H156.181V154.744H89.4117V160.465Z" fill="#545254"/>
<path d="M177.967 221.858H-2.96719V244H177.967V221.858Z" fill="#D1D3D4"/>
<path d="M3.18119 240.152H1.1945C0.916527 240.152 0.649929 240.043 0.453372 239.85C0.256815 239.657 0.146407 239.395 0.146407 239.121V234.998C0.146407 234.724 0.256815 234.462 0.453372 234.269C0.649929 234.075 0.916527 233.967 1.1945 233.967C1.39326 233.967 1.58808 234.021 1.75678 234.125C1.92548 234.228 2.06128 234.376 2.14874 234.551L4.13545 238.675C4.19508 238.797 4.22941 238.93 4.23648 239.065C4.24355 239.2 4.2232 239.335 4.17662 239.463C4.13003 239.59 4.05814 239.707 3.96513 239.807C3.87212 239.907 3.75985 239.988 3.63485 240.044C3.49482 240.116 3.33908 240.153 3.18119 240.152V240.152Z" fill="#EAE9F7"/>
<path d="M1.23123 227.013L3.07715 232.322C3.16441 232.567 3.346 232.769 3.58291 232.884C3.81982 232.999 4.09317 233.018 4.34425 232.937C4.44753 232.905 4.54323 232.852 4.62583 232.783L11.6653 227.475C11.8311 227.35 11.953 227.178 12.0136 226.982C12.0742 226.786 12.0705 226.576 12.003 226.381C11.9355 226.187 11.8077 226.019 11.6376 225.901C11.4675 225.782 11.2637 225.719 11.0552 225.721H2.18548C2.05389 225.72 1.92351 225.746 1.80185 225.795C1.6802 225.844 1.56967 225.917 1.47662 226.008C1.38357 226.1 1.30984 226.208 1.25967 226.328C1.20951 226.448 1.18389 226.576 1.1843 226.705C1.18339 226.81 1.19923 226.914 1.23123 227.013Z" fill="#EAE9F7"/>
<path d="M5.03053 236.06L6.07864 239.307C6.14647 239.516 6.27988 239.698 6.45974 239.828C6.6396 239.958 6.85667 240.029 7.07981 240.03H19.2972C19.5752 240.03 19.8418 239.921 20.0383 239.728C20.2349 239.535 20.3453 239.272 20.3453 238.999C20.3479 238.937 20.3427 238.875 20.3297 238.814L19.0469 231.629C19.0088 231.422 18.9075 231.232 18.7566 231.084C18.6056 230.935 18.4122 230.836 18.2022 230.798L12.8678 229.875C12.7291 229.85 12.5866 229.854 12.4494 229.885C12.3121 229.917 12.183 229.976 12.07 230.06L5.42162 234.922C5.24357 235.047 5.11009 235.225 5.03994 235.429C4.96979 235.633 4.9665 235.854 5.03053 236.06V236.06Z" fill="#EAE9F7"/>
<path d="M17.2792 228.429L20.2514 228.921C20.3997 228.944 20.5513 228.937 20.6967 228.9C20.842 228.863 20.978 228.797 21.0962 228.706L22.5354 227.552C22.6429 227.467 22.732 227.362 22.7975 227.243C22.863 227.124 22.9035 226.993 22.9166 226.858C22.9297 226.723 22.9152 226.587 22.8739 226.458C22.8326 226.328 22.7654 226.209 22.6762 226.105C22.5784 225.986 22.4546 225.889 22.3138 225.822C22.173 225.756 22.0189 225.721 21.8627 225.721H18.2022C17.943 225.721 17.6927 225.814 17.4982 225.982L16.7473 226.644C16.6456 226.734 16.5628 226.842 16.5038 226.964C16.4448 227.085 16.4107 227.217 16.4034 227.351C16.3962 227.485 16.4159 227.62 16.4615 227.747C16.5071 227.873 16.5776 227.99 16.6691 228.09C16.8249 228.271 17.0413 228.391 17.2792 228.429V228.429Z" fill="#EAE9F7"/>
<path d="M21.2839 232.675L22.8795 239.245C22.934 239.47 23.0642 239.669 23.2488 239.812C23.4334 239.954 23.6616 240.031 23.8963 240.03H27.2753C27.5532 240.03 27.8198 239.921 28.0164 239.728C28.2129 239.535 28.3234 239.272 28.3234 238.999C28.3245 238.839 28.287 238.68 28.2139 238.537L25.0383 232.198C24.961 232.045 24.8462 231.912 24.7043 231.813C24.5623 231.714 24.3976 231.65 24.2248 231.629L22.4258 231.398C22.2891 231.38 22.1501 231.389 22.0169 231.424C21.8836 231.459 21.7589 231.52 21.6497 231.603C21.5406 231.686 21.4493 231.79 21.3811 231.908C21.313 232.026 21.2693 232.156 21.2526 232.29C21.2468 232.419 21.2573 232.549 21.2839 232.675V232.675Z" fill="#EAE9F7"/>
<path d="M25.1008 229.737L25.883 229.875C26.0291 229.903 26.1674 229.962 26.2887 230.047C26.4101 230.132 26.5117 230.241 26.5869 230.367L28.3546 233.291C28.4252 233.407 28.5184 233.509 28.6291 233.59C28.7397 233.671 28.8656 233.729 28.9993 233.762C29.1331 233.795 29.2722 233.802 29.4085 233.782C29.5449 233.761 29.6758 233.715 29.7938 233.645C29.8893 233.581 29.9783 233.509 30.0597 233.429L35.2533 227.413C35.381 227.263 35.4626 227.081 35.4886 226.887C35.5147 226.693 35.4841 226.495 35.4004 226.318C35.3168 226.14 35.1835 225.99 35.0162 225.884C34.8489 225.779 34.6544 225.722 34.4555 225.721H27.6194C27.368 225.722 27.1249 225.809 26.9311 225.967L24.6159 227.936C24.512 228.024 24.4267 228.131 24.365 228.252C24.3032 228.372 24.2662 228.503 24.256 228.637C24.2459 228.772 24.2628 228.907 24.3057 229.034C24.3487 229.162 24.4168 229.281 24.5064 229.383C24.6496 229.573 24.8631 229.7 25.1008 229.737V229.737Z" fill="#EAE9F7"/>
<path d="M29.9659 236.706L31.0766 239.384C31.1553 239.573 31.2895 239.736 31.4621 239.851C31.6347 239.966 31.838 240.028 32.0465 240.03H44.2013C44.4793 240.03 44.7459 239.921 44.9424 239.728C45.139 239.534 45.2494 239.272 45.2494 238.999C45.2522 238.843 45.2146 238.69 45.1399 238.553L39.8055 227.859C39.6847 227.615 39.4704 227.427 39.2095 227.338C38.9486 227.249 38.6623 227.264 38.4133 227.382C38.3049 227.434 38.2048 227.502 38.1161 227.582L30.1849 235.614C30.0422 235.754 29.9451 235.933 29.9061 236.127C29.8671 236.322 29.8879 236.523 29.9659 236.706V236.706Z" fill="#EAE9F7"/>
<path d="M42.3398 227.213L45.3589 233.46C45.4782 233.706 45.6914 233.895 45.9521 233.987C46.2128 234.08 46.5 234.067 46.7512 233.952C46.7981 233.936 46.8408 233.909 46.8763 233.875L56.1997 227.767C56.3874 227.645 56.5306 227.468 56.6081 227.261C56.6856 227.054 56.6934 226.827 56.6303 226.615C56.5673 226.403 56.4366 226.217 56.2577 226.084C56.0788 225.95 55.8611 225.877 55.6366 225.874L43.294 225.736C43.0168 225.734 42.7501 225.84 42.5512 226.03C42.3523 226.219 42.2371 226.479 42.2303 226.751C42.2408 226.91 42.2778 227.066 42.3398 227.213V227.213Z" fill="#EAE9F7"/>
<path d="M47.2674 237.183L48.2686 239.414C48.3518 239.595 48.4857 239.749 48.6547 239.858C48.8237 239.967 49.0208 240.027 49.2228 240.03H62.5509C62.8289 240.03 63.0955 239.921 63.292 239.728C63.4886 239.534 63.599 239.272 63.599 238.999V238.891L62.4884 228.213C62.4607 227.942 62.325 227.692 62.111 227.519C61.897 227.346 61.6221 227.264 61.3464 227.29C61.178 227.306 61.0165 227.364 60.8771 227.459L47.6585 235.921C47.4516 236.052 47.2987 236.25 47.227 236.481C47.1554 236.713 47.1697 236.961 47.2674 237.183Z" fill="#EAE9F7"/>
<path d="M65.0226 226.875L65.8047 233.46C65.8195 233.595 65.8613 233.725 65.9276 233.844C65.9939 233.962 66.0835 234.067 66.1911 234.151C66.2987 234.236 66.4223 234.298 66.5547 234.336C66.6871 234.373 66.8256 234.384 66.9624 234.368C66.9844 234.37 67.0066 234.365 67.0249 234.353L80.8223 231.921C81.0645 231.879 81.2838 231.754 81.4412 231.568C81.5987 231.383 81.6842 231.148 81.6827 230.906V226.752C81.6827 226.478 81.5723 226.216 81.3757 226.023C81.1792 225.829 80.9126 225.721 80.6346 225.721H66.0707C65.7927 225.721 65.5261 225.829 65.3296 226.023C65.133 226.216 65.0226 226.478 65.0226 226.752V226.875Z" fill="#EAE9F7"/>
<path d="M66.4618 237.506L66.6807 239.122C66.7141 239.368 66.837 239.594 67.0269 239.759C67.2167 239.923 67.4605 240.013 67.7132 240.014H77.3026C77.4402 240.014 77.5765 239.988 77.7036 239.936C77.8308 239.884 77.9464 239.808 78.0437 239.712C78.141 239.617 78.2182 239.503 78.2709 239.378C78.3236 239.253 78.3507 239.119 78.3507 238.983V238.891L78.0691 235.629C78.044 235.356 77.9097 235.103 77.6955 234.927C77.4814 234.751 77.205 234.666 76.9271 234.691C76.895 234.688 76.8628 234.693 76.8333 234.706L67.3221 236.337C67.0583 236.395 66.8251 236.546 66.6666 236.761C66.5081 236.977 66.4352 237.242 66.4618 237.506V237.506Z" fill="#EAE9F7"/>
<path d="M80.6346 234.029L83.7476 233.398C83.9361 233.36 84.1316 233.373 84.3133 233.435C84.495 233.498 84.6563 233.607 84.7801 233.752L88.5501 238.337C88.6366 238.442 88.7012 238.563 88.7402 238.692C88.7792 238.822 88.7917 238.958 88.7772 239.092C88.7627 239.226 88.7213 239.357 88.6555 239.475C88.5897 239.594 88.5007 239.699 88.3937 239.783C88.2088 239.933 87.9763 240.015 87.7366 240.014H81.4167C81.164 240.013 80.9202 239.922 80.7304 239.758C80.5406 239.594 80.4176 239.368 80.3843 239.122L79.8211 235.167C79.7821 234.911 79.8448 234.65 79.9962 234.438C80.1477 234.226 80.3763 234.079 80.6346 234.029V234.029Z" fill="#EAE9F7"/>
<path d="M84.1856 230.121L84.3577 226.705C84.3701 226.44 84.4859 226.19 84.6811 226.006C84.8763 225.823 85.1359 225.721 85.4058 225.721H97.1852C97.4305 225.722 97.6678 225.807 97.8563 225.961C98.0447 226.116 98.1725 226.33 98.2177 226.567L100.455 238.815C100.502 239.084 100.44 239.36 100.282 239.585C100.124 239.81 99.8828 239.964 99.6099 240.015C99.5482 240.027 99.4852 240.033 99.4222 240.03H93.0084C92.8575 240.03 92.7082 239.999 92.5706 239.938C92.433 239.877 92.3103 239.788 92.2106 239.676L84.4516 230.86C84.275 230.653 84.1805 230.391 84.1856 230.121V230.121Z" fill="#EAE9F7"/>
<path d="M101.19 226.921L102.269 233.014C102.292 233.147 102.341 233.274 102.414 233.387C102.488 233.501 102.583 233.6 102.695 233.677C102.807 233.754 102.934 233.809 103.067 233.838C103.201 233.867 103.339 233.869 103.474 233.845C103.605 233.817 103.732 233.771 103.849 233.706L113.658 227.613C113.774 227.542 113.874 227.448 113.954 227.338C114.033 227.228 114.09 227.104 114.12 226.972C114.151 226.841 114.155 226.705 114.132 226.572C114.109 226.439 114.059 226.312 113.986 226.198C113.89 226.051 113.757 225.931 113.602 225.848C113.446 225.765 113.272 225.721 113.094 225.721H102.207C101.929 225.721 101.662 225.829 101.466 226.023C101.269 226.216 101.159 226.478 101.159 226.752C101.174 226.813 101.174 226.875 101.19 226.921Z" fill="#EAE9F7"/>
<path d="M103.114 236.907L103.411 239.138C103.445 239.384 103.567 239.61 103.757 239.774C103.947 239.938 104.191 240.029 104.444 240.03H121.151C121.429 240.03 121.695 239.921 121.892 239.728C122.088 239.535 122.199 239.272 122.199 238.999C122.203 238.808 122.148 238.621 122.042 238.461L116.379 229.459C116.233 229.229 116 229.064 115.73 229C115.461 228.937 115.177 228.98 114.94 229.121L103.599 235.891C103.425 235.994 103.286 236.146 103.2 236.326C103.114 236.507 103.084 236.709 103.114 236.907V236.907Z" fill="#EAE9F7"/>
<path d="M118.616 227.059L120.415 225.89C120.588 225.781 120.789 225.722 120.994 225.721H129.285C129.563 225.721 129.83 225.829 130.026 226.023C130.223 226.216 130.333 226.478 130.333 226.752C130.334 226.902 130.301 227.05 130.236 227.186C130.171 227.321 130.076 227.441 129.958 227.536L122.981 233.306C122.876 233.393 122.755 233.459 122.625 233.5C122.494 233.541 122.356 233.556 122.22 233.545C122.083 233.533 121.95 233.495 121.829 233.433C121.707 233.371 121.599 233.286 121.511 233.183C121.479 233.152 121.464 233.122 121.432 233.091L118.319 228.49C118.167 228.261 118.114 227.983 118.169 227.715C118.225 227.447 118.386 227.211 118.616 227.059V227.059Z" fill="#EAE9F7"/>
<path d="M123.56 236.199L125.797 239.568C125.891 239.712 126.021 239.83 126.174 239.911C126.327 239.991 126.499 240.032 126.673 240.03H135.793C136.071 240.03 136.337 239.921 136.534 239.728C136.731 239.534 136.841 239.272 136.841 238.999C136.839 238.797 136.78 238.6 136.669 238.43L131.303 230.444C131.149 230.216 130.91 230.058 130.637 230.003C130.365 229.948 130.081 230.002 129.848 230.152C129.817 230.167 129.801 230.182 129.77 230.198L123.779 234.829C123.575 234.989 123.439 235.219 123.399 235.472C123.358 235.725 123.416 235.985 123.56 236.199V236.199Z" fill="#EAE9F7"/>
<path d="M135.308 225.951L133.259 227.628C133.057 227.79 132.924 228.021 132.887 228.274C132.849 228.527 132.909 228.785 133.055 228.998L136.653 234.229C136.729 234.342 136.828 234.439 136.943 234.514C137.057 234.59 137.186 234.642 137.322 234.667C137.457 234.693 137.596 234.692 137.731 234.664C137.866 234.637 137.994 234.583 138.108 234.506C138.278 234.393 138.409 234.232 138.483 234.044L141.409 227.136C141.513 226.882 141.513 226.599 141.407 226.346C141.302 226.093 141.101 225.89 140.846 225.782C140.716 225.733 140.578 225.707 140.439 225.705H135.965C135.725 225.717 135.495 225.803 135.308 225.951V225.951Z" fill="#EAE9F7"/>
<path d="M139.328 238.307L139.938 239.461C140.032 239.629 140.17 239.77 140.338 239.867C140.506 239.965 140.697 240.016 140.893 240.015L148.652 239.861C148.789 239.857 148.925 239.826 149.05 239.771C149.176 239.715 149.289 239.636 149.384 239.537C149.478 239.439 149.552 239.323 149.601 239.196C149.65 239.07 149.673 238.935 149.668 238.799C149.667 238.663 149.637 238.528 149.581 238.404C149.524 238.28 149.442 238.168 149.34 238.076L143.208 232.506C143.002 232.322 142.73 232.226 142.452 232.237C142.174 232.249 141.911 232.367 141.722 232.568C141.65 232.64 141.592 232.723 141.55 232.814L139.328 237.384C139.251 237.526 139.211 237.684 139.211 237.845C139.211 238.006 139.251 238.165 139.328 238.307V238.307Z" fill="#EAE9F7"/>
<path d="M144.303 226.367L143.067 229.444C142.99 229.642 142.976 229.858 143.027 230.064C143.077 230.27 143.189 230.456 143.349 230.598L147.338 234.045C147.503 234.187 147.709 234.274 147.928 234.297C148.146 234.319 148.366 234.274 148.558 234.168L160.056 227.644C160.256 227.531 160.412 227.357 160.501 227.148C160.59 226.939 160.606 226.707 160.547 226.488C160.489 226.269 160.358 226.075 160.176 225.936C159.993 225.797 159.77 225.722 159.539 225.721H145.288C145.077 225.72 144.871 225.781 144.695 225.896C144.52 226.011 144.383 226.175 144.303 226.367V226.367Z" fill="#EAE9F7"/>
<path d="M167.298 226.736L173.102 238.522C173.222 238.767 173.238 239.049 173.147 239.305C173.056 239.562 172.866 239.773 172.617 239.892C172.472 239.965 172.311 240.002 172.148 239.999L154.299 239.692C154.043 239.686 153.798 239.587 153.611 239.415L150.638 236.722C150.434 236.536 150.314 236.278 150.302 236.004C150.29 235.73 150.389 235.463 150.576 235.26C150.643 235.186 150.722 235.124 150.81 235.076L165.828 226.275C166.067 226.137 166.352 226.096 166.621 226.162C166.89 226.229 167.122 226.396 167.267 226.629C167.283 226.663 167.293 226.699 167.298 226.736V226.736Z" fill="#EAE9F7"/>
<path d="M170.803 225.721H172.789C173.067 225.721 173.334 225.829 173.53 226.023C173.727 226.216 173.837 226.478 173.837 226.752V230.875C173.837 231.149 173.727 231.411 173.53 231.604C173.334 231.797 173.067 231.906 172.789 231.906C172.59 231.906 172.396 231.852 172.227 231.748C172.058 231.645 171.922 231.497 171.835 231.321L169.848 227.198C169.789 227.076 169.754 226.943 169.747 226.808C169.74 226.673 169.761 226.537 169.807 226.41C169.854 226.283 169.926 226.166 170.019 226.066C170.112 225.966 170.224 225.885 170.349 225.828C170.489 225.757 170.645 225.72 170.803 225.721V225.721Z" fill="#EAE9F7"/>
<path d="M112.685 151.905H148.83L157.219 119.455H121.073L112.685 151.905Z" fill="#F9D039"/>
<path d="M93.5632 154.743H148.09L148.83 151.905H93.5632V154.743Z" fill="#FF8658"/>
<path d="M140.636 135.768C141.103 133.186 140.041 130.833 138.264 130.512C136.487 130.191 134.669 132.024 134.202 134.605C133.736 137.187 134.798 139.54 136.575 139.861C138.351 140.182 140.17 138.35 140.636 135.768Z" fill="#FFF6AC"/>
<path d="M29.9476 55.3892C34.6539 55.4211 38.3115 54.878 40.7881 54.3668C41.934 54.1302 43.4524 53.9111 44.9133 52.8219C46.122 51.9209 46.8482 50.7955 47.2143 50.2178C47.8053 49.2839 48.256 48.2684 48.552 47.2037L50.1674 45.1904C50.5393 44.7274 51.0416 44.3867 51.6094 44.2124C53.1273 43.7462 53.912 43.5766 53.9632 43.7037C54.0184 43.8401 53.2272 44.3189 51.5897 45.14L50.5255 46.8652L52.3319 45.9657C52.9411 45.6619 53.629 45.5529 54.3022 45.6533C55.8292 45.8821 56.5891 46.0772 56.5819 46.2385C56.5753 46.388 55.9104 46.5083 54.5872 46.5995C56.2056 46.883 57.009 47.1058 56.9974 47.268C56.9836 47.4541 55.8957 47.5604 53.7338 47.5867L52.5123 48.5558L53.0603 48.3652C53.6845 48.1473 54.3539 48.0924 55.0053 48.2055C56.4063 48.4504 57.1016 48.6438 57.0912 48.7858C57.0796 48.9445 56.1866 49.0388 54.4121 49.0687C53.6886 49.5074 53.013 50.0208 52.3965 50.6003C52.2345 50.7526 52.0927 50.8944 51.9661 51.0238C51.857 51.7624 51.6192 52.4761 51.2635 53.1325C50.1544 55.1585 48.1957 56.04 46.7866 56.5749C40.3745 59.0091 30.8462 61.2924 29.3963 61.637C29.5801 59.5544 29.7638 57.4717 29.9476 55.3892Z" fill="url(#paint0_linear_411_13658)"/>
<path d="M43.4622 92.2411C28.376 96.8467 -1.60459 63.2638 16.5372 56.2786C20.749 54.0219 29.4377 56.2017 38.4508 54.8044C37.7609 55.5558 37.2351 56.2084 36.8785 56.6713C35.5498 58.3965 34.3585 60.361 34.422 60.4052C33.0124 60.957 31.5683 61.4165 30.0989 61.7808C28.6757 62.1334 27.2316 62.396 25.7753 62.5669C43.1161 66.8505 53.0159 76.4292 51.9403 83.4731C51.7781 84.5331 50.9083 88.5449 43.4622 92.2411Z" fill="url(#paint1_linear_411_13658)"/>
<path d="M109.277 224.308C108.853 223.971 108.529 223.193 108.296 222.718C107.228 220.542 105.661 219.838 103.903 218.547C103.391 218.176 102.904 217.771 102.445 217.335C101.158 216.104 99.5469 214.053 98.4667 210.548C96.3217 205.595 94.1764 200.641 92.0306 195.687L100.573 196.038C101.27 200.109 101.968 204.18 102.667 208.25C102.671 208.275 102.675 208.3 102.679 208.325C103.461 208.704 104.546 209.373 105.371 210.548C106.251 211.803 106.019 212.472 106.775 214.059C107.516 215.613 108.165 215.867 108.947 216.74L109.488 223.679C109.501 223.793 109.489 223.908 109.452 224.017C109.416 224.126 109.356 224.225 109.277 224.308V224.308Z" fill="url(#paint2_linear_411_13658)"/>
<path d="M37.588 221.155C39.1491 220.839 41.6966 220.487 44.0522 218.74C44.0522 218.74 44.2348 218.605 44.518 218.363C44.9746 217.971 45.4053 217.549 45.8075 217.101C49.9816 212.429 47.8834 202.141 47.6798 201.187C50.7223 200.681 53.7649 200.174 56.8075 199.666C55.4033 205.01 53.999 210.354 52.5947 215.698C53.4384 217.699 53.4758 219.326 53.4139 220.261C53.3951 220.584 53.3521 220.905 53.2851 221.221C53.2863 221.222 53.2851 221.223 53.284 221.224L37.588 221.155Z" fill="url(#paint3_linear_411_13658)"/>
<path d="M101.158 199.081C98.9735 199.9 96.7891 200.719 94.6051 201.538C89.5033 191.504 83.0023 182.246 75.2967 174.04C71.0301 169.491 70.2039 169.32 66.286 164.912C57.5001 155.029 47.7477 144.057 48.733 131.212C48.9775 128.03 50.1443 121.295 57.1585 113.659C60.543 114.459 65.8554 116.248 70.3818 120.681C76.7723 126.938 78.3298 135.364 79.3924 140.339C81.4156 149.813 80.2525 155.368 81.9247 159.585C82.4491 160.901 83.2634 162.082 84.3073 163.041C86.7307 165.325 88.2017 164.889 91.2115 168.072C93.7099 170.714 95.223 173.719 97.0625 179.657C97.7939 182.018 98.5861 184.871 99.3163 188.181C100.027 191.394 100.676 195.039 101.158 199.081Z" fill="#25215E"/>
<path d="M57.8115 197.387C57.1413 200.275 56.2581 203.11 55.1692 205.867C52.9072 206.023 50.6448 206.179 48.382 206.335C48.3796 206.316 48.3772 206.294 48.3737 206.275C46.7905 194.058 44.326 184.514 42.2971 177.901C40.7957 173.008 39.9754 171.166 37.6159 163.391C34.2949 152.447 32.6344 146.974 31.8819 141.275C31.1821 135.975 30.8065 128.097 32.8181 118.222C33.5905 118.747 34.3395 119.268 35.0649 119.787C52.2248 132.039 56.5393 142.605 57.0414 150.285C57.1713 152.271 57.0332 153.876 55.0525 173.103C55.0548 173.111 55.0572 173.118 55.0595 173.126C56.8007 178.963 57.6925 181.895 57.9779 182.932C58.8822 186.222 59.2894 190.851 57.8115 197.387Z" fill="#25215E"/>
<path d="M34.8151 107.275C31.1494 117.708 32.7912 128.495 39.3352 134.787C43.7306 139.013 52.529 143.32 58.937 139.954C59.5726 139.62 61.7439 138.392 63.1497 135.858C67.6035 127.833 61.3161 112.221 49.7511 107.569C43.8355 105.19 38.0738 106.296 34.8151 107.275Z" fill="#25215E"/>
<path d="M45.6904 125.595C47.237 125.875 46.4532 130.738 48.1479 137.063C49.6338 142.608 52.4143 146.996 54.3499 150.051C55.3451 151.622 56.2522 152.893 56.9244 153.796L55.9882 163.625C47.3922 146.837 45.4095 139.908 45.6904 137.063C45.7403 136.557 45.9178 135.582 45.8074 134.137C45.4932 130.022 43.264 127.96 44.2862 126.414C44.5599 126 45.1508 125.497 45.6904 125.595Z" fill="#151244"/>
<path d="M57.8115 197.388C58.6997 191.897 57.8243 188.052 56.8074 185.507C55.1843 181.444 52.2588 178.2 53.5309 175.093C53.863 174.317 54.3893 173.64 55.0591 173.127C56.8004 178.963 57.6921 181.896 57.9776 182.933C58.8822 186.222 59.2894 190.851 57.8115 197.388Z" fill="#151244"/>
<path d="M99.3159 188.181C99.3049 188.186 99.296 188.192 99.2854 188.198C98.0883 184.366 95.9246 178.951 91.7961 173.454C87.3634 167.552 84.2073 166.269 82.4345 161.284C82.239 160.737 82.0693 160.168 81.9243 159.584C82.4486 160.9 83.263 162.082 84.3068 163.04C86.7302 165.324 88.2013 164.889 91.211 168.071C93.7094 170.714 95.2225 173.719 97.062 179.656C97.7938 182.017 98.5861 184.87 99.3159 188.181Z" fill="#151244"/>
<path d="M49.7861 206.219C49.3544 206.255 48.8816 206.277 48.3737 206.275C46.7904 194.058 44.3259 184.515 42.297 177.901C40.7956 173.008 39.9753 171.167 37.6159 163.391C36.947 161.186 33.1445 149.92 31.8818 141.275C31.0526 135.598 30.2185 126.397 33.1445 113.956C33.4978 114.089 33.8581 114.22 34.2254 114.349C34.8263 114.561 36.1218 114.347 35.9945 114.939C31.3763 136.359 35.0462 146.395 37.4993 155.551C40.2746 165.909 45.3128 176.818 48.4988 196.624C49.1436 200.631 49.5439 203.965 49.7861 206.219Z" fill="#686596"/>
<path d="M109.277 224.309C108.898 224.714 108.127 224.779 107.78 224.229C107.469 223.746 106.256 221.801 103.653 218.788C103.728 218.7 103.812 218.619 103.904 218.548C104.781 217.868 105.889 218.534 106.554 217.425C107.599 215.653 104.15 214.301 102.704 211.751C102.285 211.012 101.933 209.962 102.278 208.931C102.362 208.681 102.483 208.445 102.637 208.231C102.647 208.238 102.657 208.244 102.667 208.251C103.148 208.577 103.651 208.868 104.173 209.124C105.371 209.711 105.922 209.742 106.609 210.125C106.891 210.284 107.153 210.476 107.387 210.699C108.154 211.431 108.62 212.424 108.693 213.481L108.947 216.74L109.488 223.679C109.501 223.793 109.489 223.909 109.453 224.018C109.416 224.126 109.356 224.226 109.277 224.309V224.309Z" fill="#333133"/>
<path d="M37.382 222.367C37.2854 222.102 37.2854 221.812 37.382 221.548C37.8014 220.242 40.132 220.061 43.3501 218.388C43.8126 218.148 44.1795 217.936 44.4032 217.803C44.4843 218.028 44.5239 218.266 44.5202 218.505C44.5068 219.169 44.1456 219.488 44.2862 219.792C44.429 220.102 44.9709 220.135 45.1054 220.143C46.999 220.258 48.1975 217.204 50.8393 216.282C51.4217 216.079 52.5946 215.697 52.5946 215.697C52.9843 216.313 53.2695 216.989 53.4387 217.698C53.574 218.264 53.6327 218.847 53.6131 219.429C53.5891 220.09 53.4592 220.817 53.2968 221.197C52.777 222.413 50.6519 223.058 48.1479 222.835L38.4431 223.111C38.2714 223.073 37.6066 222.906 37.382 222.367Z" fill="#333133"/>
<path d="M48.382 206.336L49.7862 206.219C49.6341 209.942 48.8446 212.839 48.0309 214.41C47.5154 215.408 46.844 216.316 46.042 217.102C45.7129 217.402 45.3608 217.676 44.9888 217.921C45.6161 217.076 46.1645 216.175 46.6271 215.229C48.3356 211.734 48.4849 208.397 48.382 206.336Z" fill="#FFF6AC"/>
<path d="M63.9344 96.4314C63.2799 99.6573 62.1687 103.374 60.8549 107.767C60.0314 110.52 59.1956 112.748 58.5947 114.252C57.8416 114.266 57.0886 114.281 56.3357 114.295L54.0767 114.338C52.813 114.362 47.4421 114.511 32.9481 114.94C32.6874 113.032 32.4654 111.023 32.2987 108.921C32.0743 106.091 31.9751 103.406 31.9655 100.889C31.0069 99.9855 28.8651 97.7182 28.035 94.1092C27.8158 93.1563 27.3272 90.9159 28.035 88.3119C28.9013 85.1253 31.0452 83.285 33.7342 81.0407C36.587 78.6699 39.8061 76.7783 43.2657 75.44C43.8883 75.4384 58.7293 75.5866 62.9783 84.6625C64.9517 88.8771 64.3896 94.1879 63.9344 96.4314Z" fill="url(#paint4_linear_411_13658)"/>
<path d="M99.3716 111.507C102.873 114.651 105.971 116.671 108.163 117.93C109.178 118.513 110.46 119.356 112.275 119.51C113.778 119.637 115.067 119.276 115.725 119.086C116.786 118.779 117.797 118.318 118.725 117.718L121.269 117.282C121.854 117.182 122.456 117.26 122.997 117.506C124.442 118.164 125.142 118.557 125.096 118.686C125.047 118.825 124.137 118.659 122.367 118.188L120.427 118.773L122.375 119.297C123.033 119.474 123.62 119.849 124.057 120.37C125.048 121.554 125.488 122.204 125.375 122.32C125.271 122.428 124.694 122.077 123.643 121.267C124.666 122.553 125.12 123.252 125.004 123.366C124.87 123.496 123.985 122.855 122.35 121.441L120.792 121.356L121.329 121.577C121.94 121.828 122.478 122.231 122.891 122.747C123.777 123.86 124.169 124.466 124.067 124.565C123.953 124.676 123.222 124.154 121.874 123C121.042 122.848 120.195 122.785 119.35 122.81C119.127 122.816 118.927 122.828 118.747 122.841C118.175 123.322 117.524 123.698 116.822 123.953C114.649 124.734 112.598 124.095 111.189 123.561C104.775 121.131 96.129 116.521 94.8156 115.817L99.3716 111.507Z" fill="url(#paint5_linear_411_13658)"/>
<path d="M58.5246 59.9196C58.5246 59.9196 61.5612 48.0634 71.0175 47.7462C80.4738 47.429 86.7846 54.6734 97.3039 51.8993C107.823 49.1251 115.8 39.4196 129.753 44.3979C143.706 49.3762 147.17 65.8886 137.736 77.1784C128.291 88.4813 116.831 83.9257 112.155 80.6043C107.48 77.2829 100.721 69.0395 90.7625 72.7458C80.7915 76.4654 76.4616 76.6905 70.7499 73.3831C65.0383 70.0757 65.7304 61.6291 58.5246 59.9196Z" fill="#25215E"/>
<path d="M49.8328 73.0326C53.0116 72.932 55.5658 72.1332 55.5378 71.2484C55.5098 70.3636 52.9101 69.7279 49.7314 69.8286C46.5526 69.9292 43.9984 70.728 44.0264 71.6128C44.0544 72.4976 46.654 73.1332 49.8328 73.0326Z" fill="#25215E"/>
<path d="M53.5471 63.9453C53.6211 65.2881 53.763 66.757 54.007 68.3276C54.2572 69.9383 54.5958 71.534 55.021 73.1075L46.6541 73.4731C46.7778 72.3251 46.9129 71.1621 47.0597 69.9842C47.2468 68.4857 47.4466 67.015 47.6591 65.5719L53.5471 63.9453Z" fill="url(#paint6_linear_411_13658)"/>
<path d="M43.9901 71.6095C43.5609 73.9615 43.1318 76.3135 42.7027 78.6655C44.8364 79.5173 47.1371 79.868 49.4277 79.6907C53.7645 79.3451 56.7097 77.1785 57.812 76.2734C57.0495 74.6058 56.2871 72.9382 55.5246 71.2705C53.7755 72.2638 51.8098 72.814 49.7992 72.873C47.7885 72.9321 45.794 72.4981 43.9896 71.6092L43.9901 71.6095Z" fill="url(#paint7_linear_411_13658)"/>
<path d="M63.9344 96.4311C63.2799 99.6569 62.1686 103.373 60.8549 107.766C60.0314 110.519 59.1956 112.748 58.5947 114.251C57.0884 114.28 55.5824 114.309 54.0767 114.338C54.5289 111.416 54.7581 108.463 54.7625 105.506C54.7743 97.0747 53.3397 91.0484 51.5199 86.051C55.7884 89.838 59.6658 92.6448 63.9344 96.4311Z" fill="#686596"/>
<path d="M53.1374 79.1034C55.1887 76.3758 58.4217 75.6184 58.9665 75.5086C65.2771 74.2373 73.2002 80.656 80.5712 91.5328C85.6849 99.081 92.0292 105.718 99.3396 111.166L109.548 118.771C108.012 120.585 108.575 119.905 107.039 121.719C90.1075 119.98 67.2328 117.066 55.2088 97.029C53.89 94.4288 48.9407 84.6834 53.1374 79.1034Z" fill="url(#paint8_linear_411_13658)"/>
<path d="M47.6876 65.6129L50.0458 65.3181L47.1963 69.052C47.36 67.9056 47.5238 66.7593 47.6876 65.6129Z" fill="#25215E"/>
<path d="M54.6083 55.814C52.7456 54.4828 50.5852 54.9478 49.2835 55.2275C46.7568 55.7707 45.1162 57.2552 44.3889 58.0131C44.6041 58.5157 44.8193 59.0183 45.0345 59.5209C43.4985 61.2333 43.546 62.3515 43.6588 62.8613C44.2521 65.5444 50.2139 67.5246 53.8781 65.2196C54.1513 65.0477 56.7885 63.3267 56.8085 60.2713C56.8098 60.0942 56.7822 57.3679 54.6083 55.814Z" fill="url(#paint9_linear_411_13658)"/>
<path d="M56.7272 61.7699C57.9203 59.1767 56.1829 55.0349 51.4063 54.8853C50.9634 55.5085 50.5454 56.4967 51.8192 57.4668C52.6166 58.0448 53.5582 58.3913 54.54 58.4679C53.9139 58.8626 53.3131 59.296 52.7411 59.7656C51.9762 60.4107 51.7072 61.5289 52.4005 61.8916C52.4005 61.8916 53.2124 61.1462 54.107 61.1393C54.7754 61.1369 55.2144 61.8835 54.8833 62.5639C54.7181 62.8862 54.4324 63.1303 54.0883 63.2433C53.8159 63.3363 53.5916 63.5338 53.4648 63.7922C53.338 64.0506 53.319 64.3489 53.4121 64.6213C53.4138 64.6266 53.4156 64.6317 53.4174 64.6369C53.5051 64.8751 53.6709 65.0765 53.8878 65.2083L53.9222 65.2383C54.7487 64.7081 55.8353 63.7176 56.7272 61.7699Z" fill="#25215E"/>
<path d="M49.177 61.5285C49.1983 61.5565 49.2276 61.5774 49.2609 61.5886C49.2943 61.5998 49.3302 61.6007 49.3641 61.5912C49.398 61.5818 49.4282 61.5624 49.451 61.5355C49.4737 61.5087 49.4878 61.4756 49.4916 61.4406C49.4949 61.4089 49.7942 58.2595 46.8909 57.2933C46.8687 57.2845 46.8449 57.2804 46.821 57.2811C46.7971 57.2818 46.7736 57.2874 46.752 57.2975C46.7303 57.3076 46.7109 57.3221 46.6951 57.3399C46.6792 57.3578 46.6671 57.3787 46.6595 57.4014C46.652 57.424 46.6492 57.448 46.6512 57.4718C46.6532 57.4956 46.6601 57.5188 46.6714 57.5399C46.6827 57.5609 46.6982 57.5795 46.7169 57.5944C46.7356 57.6092 46.7571 57.6202 46.7802 57.6264C49.4183 58.5044 49.1456 61.3749 49.1427 61.4038C49.1379 61.4482 49.1501 61.4928 49.177 61.5285V61.5285Z" fill="#333133"/>
<path d="M49.6818 55.6758L48.6818 56.1968C48.6592 56.2096 48.6394 56.2268 48.6234 56.2474C48.6075 56.2679 48.5957 56.2914 48.5889 56.3165C48.582 56.3416 48.5802 56.3678 48.5835 56.3936C48.5867 56.4194 48.5951 56.4443 48.608 56.4669L48.6103 56.4708L48.6456 56.5175C49.2092 57.0303 50.75 58.5064 51.2866 59.9339C51.2964 59.9635 51.3172 59.9882 51.3446 60.0029C51.3721 60.0176 51.4042 60.0212 51.4342 60.013C51.4475 60.0101 51.4601 60.0046 51.4712 59.9969C51.4824 59.9891 51.4919 59.9793 51.4992 59.9678C51.5066 59.9564 51.5116 59.9437 51.514 59.9303C51.5164 59.917 51.5161 59.9033 51.5132 59.89C51.5126 59.8873 51.5119 59.8844 51.511 59.8816C51.4747 58.3447 50.8955 56.8703 49.8761 55.7196C49.8521 55.6932 49.8206 55.6749 49.7858 55.6671C49.7511 55.6593 49.7147 55.6623 49.6818 55.6758Z" fill="#333133"/>
<path d="M59.9294 59.6937C60.3965 58.5494 59.8474 57.2432 58.7031 56.7761C57.5588 56.3091 56.2525 56.8581 55.7854 58.0023C55.3183 59.1466 55.8674 60.4528 57.0117 60.9199C58.156 61.387 59.4623 60.838 59.9294 59.6937Z" fill="#F05659"/>
<path d="M44.9362 60.9947C45.0107 60.8519 46.0531 60.9178 46.3119 61.5842C46.5225 62.127 46.1031 62.7842 45.9189 62.7634C45.7562 62.745 45.8483 62.2092 45.4276 61.5842C45.157 61.1826 44.8957 61.0722 44.9362 60.9947Z" fill="#333133"/>
</g>
<defs>
<linearGradient id="paint0_linear_411_13658" x1="32.8481" y1="77.077" x2="27.0695" y2="47.6459" gradientUnits="userSpaceOnUse">
<stop stop-color="#FF8658"/>
<stop offset="0.341103" stop-color="#FF9A72"/>
<stop offset="1" stop-color="#FFE76C"/>
</linearGradient>
<linearGradient id="paint1_linear_411_13658" x1="26.102" y1="45.076" x2="32.8481" y2="92.8177" gradientUnits="userSpaceOnUse">
<stop stop-color="#EAE9F7"/>
<stop offset="0.649118" stop-color="#8B89C2"/>
<stop offset="1" stop-color="#686596"/>
</linearGradient>
<linearGradient id="paint2_linear_411_13658" x1="128.332" y1="210.096" x2="85.1332" y2="201.977" gradientUnits="userSpaceOnUse">
<stop stop-color="#FF8658"/>
<stop offset="0.413632" stop-color="#FF9A72"/>
<stop offset="1" stop-color="#FFE76C"/>
</linearGradient>
<linearGradient id="paint3_linear_411_13658" x1="71.5951" y1="217.535" x2="38.5002" y2="206.976" gradientUnits="userSpaceOnUse">
<stop stop-color="#FF8658"/>
<stop offset="0.396101" stop-color="#FF9A72"/>
<stop offset="1" stop-color="#FFE76C"/>
</linearGradient>
<linearGradient id="paint4_linear_411_13658" x1="19.5289" y1="87.802" x2="73.3249" y2="113.057" gradientUnits="userSpaceOnUse">
<stop stop-color="#EAE9F7"/>
<stop offset="0.598441" stop-color="#8B89C2"/>
<stop offset="1" stop-color="#686596"/>
</linearGradient>
<linearGradient id="paint5_linear_411_13658" x1="101.347" y1="135.543" x2="96.5286" y2="117.497" gradientUnits="userSpaceOnUse">
<stop stop-color="#FF8658"/>
<stop offset="0.341103" stop-color="#FF9A72"/>
<stop offset="1" stop-color="#FFE76C"/>
</linearGradient>
<linearGradient id="paint6_linear_411_13658" x1="64.6759" y1="77.5956" x2="39.4791" y2="68.3231" gradientUnits="userSpaceOnUse">
<stop stop-color="#FF8658"/>
<stop offset="0.19711" stop-color="#FF9A72"/>
<stop offset="1" stop-color="#FFE76C"/>
</linearGradient>
<linearGradient id="paint7_linear_411_13658" x1="42.7078" y1="70.1574" x2="65.7138" y2="91.9526" gradientUnits="userSpaceOnUse">
<stop stop-color="#EAE9F7"/>
<stop offset="0.510417" stop-color="#8B89C2"/>
<stop offset="1" stop-color="#686596"/>
</linearGradient>
<linearGradient id="paint8_linear_411_13658" x1="92.1794" y1="75.5202" x2="54.1244" y2="114.267" gradientUnits="userSpaceOnUse">
<stop stop-color="#EAE9F7"/>
<stop offset="0.533122" stop-color="#8B89C2"/>
<stop offset="1" stop-color="#686596"/>
</linearGradient>
<linearGradient id="paint9_linear_411_13658" x1="65.3679" y1="65.4874" x2="43.7071" y2="61.3145" gradientUnits="userSpaceOnUse">
<stop stop-color="#FF8658"/>
<stop offset="0.437044" stop-color="#FF9A72"/>
<stop offset="1" stop-color="#FFE76C"/>
</linearGradient>
</defs>
</svg>
