<svg width="696" height="568" viewBox="0 0 696 568" fill="none" xmlns="http://www.w3.org/2000/svg">
<g clip-path="url(#clip0_320_23243)">
<path d="M213.352 565.142H183.621C177.744 564.76 171.872 564.343 165.994 564.001C148.699 563.065 131.507 560.745 114.583 557.065C94.5151 552.587 75.2244 546.051 57.7862 534.888C44.4818 526.378 32.9726 515.997 24.8881 502.25C13.4533 482.794 12.6871 461.987 17.1925 440.511C20.4171 425.111 26.1002 410.537 31.4289 395.833C34.9451 386.136 37.2664 376.228 34.9794 366.013C33.2691 358.341 30.9559 350.815 28.0613 343.505C22.6583 329.941 16.4435 316.697 10.909 303.19C-0.142813 276.165 -2.6642 248.387 3.62498 219.77C10.08 190.327 21.9608 163.467 39.9822 139.208C61.3082 110.512 86.1104 85.6714 117.448 67.8695C139.408 55.378 162.878 47.5636 188.298 46.3088C216.519 44.9113 242.825 51.6761 266.404 67.071C284.625 78.9636 302.109 91.9856 319.742 104.751C339.53 119.085 359.067 133.738 380.284 146.007C396.51 155.396 413.611 160.952 432.536 158.887C448.413 157.176 464.256 155.099 480.082 152.92C500.093 150.154 520.104 147.907 540.372 149.772C558.759 151.483 575.992 156.645 591.52 166.821C611.994 180.231 625.653 199.037 634.367 221.578C646.493 252.95 647.934 285.394 643.212 318.288C641.125 332.833 638.146 347.247 635.899 361.769C633.846 375.025 635.464 387.819 641.616 399.985C645.253 407.172 648.706 414.479 651.776 421.922C659.26 440.049 664.355 458.73 663.554 478.585C662.983 492.97 658.826 506.198 650.238 517.891C640.25 531.483 626.665 540.324 611.36 546.781C594.293 553.973 576.352 557.618 558.005 559.386C543.217 560.877 528.317 560.908 513.523 559.478C499.132 558.057 484.736 556.626 470.322 555.485C452.392 554.065 434.451 552.747 416.492 551.726C394.137 550.46 371.731 550.254 349.427 552.296C328.118 554.23 306.929 557.362 285.643 559.575C268.519 561.354 251.339 562.603 234.186 563.972C227.211 564.503 220.276 564.754 213.352 565.142Z" fill="#EAE9F7"/>
<g clip-path="url(#clip1_320_23243)">
<path d="M533.682 313.273H212.807C212.337 313.283 211.871 313.191 211.441 313.004C211.01 312.816 210.625 312.537 210.312 312.186C209.999 311.836 209.765 311.421 209.627 310.971C209.488 310.521 209.449 310.046 209.511 309.579L230.218 111.202C230.341 110.196 230.821 109.269 231.57 108.59C232.32 107.911 233.289 107.527 234.299 107.508H555.17C555.64 107.498 556.106 107.59 556.537 107.777C556.967 107.965 557.353 108.243 557.666 108.594C557.979 108.945 558.213 109.36 558.352 109.81C558.491 110.26 558.531 110.735 558.469 111.202L537.741 309.579C537.619 310.581 537.142 311.506 536.397 312.184C535.652 312.862 534.688 313.249 533.682 313.273V313.273Z" fill="#F3F3F7"/>
</g>
<g clip-path="url(#clip2_320_23243)">
<path d="M664.49 523H19.4902V566H664.49V523Z" fill="#DCDDE2"/>
<path d="M29.7051 532.383V554.794C29.709 555.3 29.9369 555.785 30.3393 556.143C30.7417 556.501 31.2864 556.703 31.8555 556.707C32.2694 556.696 32.6735 556.593 33.0316 556.408L72.0084 534.026C72.246 533.892 72.4513 533.717 72.6123 533.512C72.7733 533.307 72.8868 533.075 72.9462 532.83C73.0056 532.586 73.0097 532.333 72.9583 532.087C72.9069 531.841 72.801 531.606 72.6468 531.397C72.4485 531.13 72.179 530.911 71.8624 530.76C71.5457 530.609 71.1918 530.53 70.8324 530.53H31.8555C31.5765 530.523 31.2986 530.565 31.0383 530.655C30.778 530.745 30.5406 530.88 30.3401 531.052C30.1396 531.225 29.9801 531.432 29.8711 531.66C29.762 531.889 29.7055 532.135 29.7051 532.383V532.383Z" fill="#F3F3F7"/>
<path d="M44.3882 554.735C43.972 554.943 43.6462 555.269 43.4629 555.662C43.2796 556.054 43.2494 556.489 43.377 556.899C43.5047 557.308 43.7828 557.667 44.1671 557.92C44.5514 558.172 45.0196 558.303 45.4971 558.291H107.255C107.538 558.291 107.818 558.242 108.079 558.147C108.341 558.051 108.578 557.91 108.778 557.732C108.978 557.554 109.136 557.343 109.244 557.111C109.352 556.878 109.407 556.629 109.406 556.378C109.409 556.031 109.305 555.69 109.103 555.392L93.4789 532.084C93.1944 531.656 92.7323 531.344 92.192 531.215C91.6517 531.087 91.0762 531.152 90.5893 531.397L44.3882 554.735Z" fill="#F3F3F7"/>
<path d="M102.249 533.369L109.674 544.784C109.961 545.219 110.429 545.535 110.977 545.663C111.524 545.792 112.107 545.723 112.598 545.471C112.734 545.409 112.859 545.328 112.967 545.232L127.012 533.817C127.221 533.649 127.39 533.446 127.509 533.219C127.629 532.993 127.697 532.747 127.71 532.497C127.722 532.247 127.679 531.998 127.582 531.763C127.486 531.528 127.338 531.312 127.147 531.128C126.946 530.932 126.703 530.776 126.431 530.668C126.159 530.56 125.865 530.503 125.568 530.5H104.097C103.814 530.5 103.534 530.549 103.273 530.644C103.011 530.74 102.774 530.881 102.574 531.059C102.374 531.236 102.216 531.448 102.108 531.68C102 531.912 101.945 532.161 101.946 532.413C101.947 532.75 102.052 533.081 102.249 533.369V533.369Z" fill="#F3F3F7"/>
<path d="M114.581 552.583L117.369 557.274C117.55 557.58 117.821 557.835 118.152 558.014C118.484 558.193 118.863 558.289 119.251 558.29H163.738C164.021 558.291 164.301 558.242 164.562 558.147C164.824 558.051 165.061 557.91 165.261 557.732C165.461 557.554 165.619 557.343 165.727 557.111C165.835 556.878 165.89 556.629 165.889 556.378C165.882 556.132 165.825 555.889 165.721 555.661L154.901 531.696C154.741 531.344 154.467 531.043 154.114 530.83C153.761 530.618 153.345 530.503 152.919 530.5H138.874C138.599 530.496 138.327 530.542 138.073 530.634C137.819 530.727 137.588 530.864 137.395 531.038L114.984 550.312C114.655 550.604 114.439 550.981 114.367 551.389C114.294 551.797 114.369 552.215 114.581 552.583V552.583Z" fill="#F3F3F7"/>
<path d="M163.873 533.01L167.401 542.154C167.588 542.631 167.978 543.023 168.487 543.246C168.996 543.47 169.583 543.507 170.122 543.35C170.269 543.314 170.406 543.253 170.525 543.17L187.628 534.026C188.113 533.768 188.464 533.35 188.602 532.862C188.741 532.375 188.656 531.859 188.367 531.427C188.174 531.145 187.903 530.911 187.579 530.749C187.256 530.587 186.891 530.501 186.519 530.5H165.889C165.606 530.5 165.326 530.549 165.065 530.644C164.803 530.74 164.566 530.881 164.366 531.059C164.166 531.237 164.008 531.448 163.9 531.68C163.792 531.912 163.737 532.161 163.738 532.413C163.731 532.619 163.777 532.823 163.873 533.01V533.01Z" fill="#F3F3F7"/>
<path d="M171.097 550.222L173.382 556.378C173.559 556.855 173.94 557.252 174.443 557.481C174.946 557.71 175.531 557.754 176.07 557.603C176.104 557.603 176.137 557.573 176.171 557.573L195.794 550.91C196.087 550.807 196.352 550.649 196.572 550.449C196.792 550.248 196.962 550.008 197.07 549.744L202.615 535.461C202.762 535.091 202.776 534.69 202.656 534.313C202.536 533.936 202.288 533.602 201.945 533.356C201.602 533.11 201.181 532.965 200.742 532.94C200.302 532.916 199.864 533.013 199.49 533.22L172.038 548.011C171.62 548.228 171.299 548.566 171.127 548.969C170.956 549.371 170.945 549.814 171.097 550.222V550.222Z" fill="#F3F3F7"/>
<path d="M197.238 554.585L200.699 553.479C200.997 553.392 201.312 553.36 201.624 553.385C201.936 553.411 202.239 553.494 202.514 553.629L204.597 554.734C204.999 554.948 205.311 555.273 205.484 555.66C205.658 556.047 205.684 556.473 205.558 556.874C205.432 557.275 205.161 557.628 204.787 557.879C204.413 558.129 203.956 558.264 203.488 558.261H197.944C195.525 558.29 194.953 555.302 197.238 554.585Z" fill="#F3F3F7"/>
<path d="M206.142 551.238L213.299 554.944C213.729 555.164 214.231 555.246 214.721 555.175C215.211 555.104 215.658 554.885 215.987 554.555L236.215 533.668C236.484 533.391 236.658 533.051 236.715 532.688C236.772 532.326 236.709 531.956 236.535 531.625C236.361 531.293 236.083 531.013 235.734 530.819C235.385 530.625 234.98 530.524 234.569 530.53H214.946C214.518 530.529 214.1 530.642 213.747 530.855C213.393 531.068 213.12 531.372 212.963 531.725L205.235 548.908C205.056 549.329 205.049 549.793 205.214 550.219C205.38 550.645 205.708 551.006 206.142 551.238V551.238Z" fill="#F3F3F7"/>
<path d="M225.933 558.29H287.524C287.806 558.291 288.086 558.242 288.348 558.147C288.609 558.051 288.846 557.91 289.046 557.732C289.246 557.554 289.404 557.343 289.512 557.111C289.62 556.878 289.675 556.629 289.674 556.378C289.682 556.153 289.636 555.929 289.54 555.721L279.695 531.755C279.544 531.387 279.27 531.07 278.909 530.845C278.549 530.621 278.119 530.5 277.679 530.5H246.833C246.507 530.498 246.184 530.565 245.892 530.695C245.6 530.824 245.347 531.014 245.153 531.247L224.287 555.213C224.111 555.408 223.981 555.632 223.905 555.872C223.828 556.112 223.806 556.364 223.841 556.612C223.875 556.86 223.965 557.099 224.105 557.315C224.245 557.532 224.433 557.721 224.657 557.872C225.014 558.14 225.466 558.288 225.933 558.29V558.29Z" fill="#F3F3F7"/>
<path d="M285.81 533.01L289.775 543.32C289.962 543.796 290.352 544.188 290.861 544.412C291.37 544.635 291.957 544.672 292.496 544.515C292.718 544.452 292.924 544.35 293.101 544.216L308.222 533.907C308.578 533.665 308.84 533.33 308.97 532.949C309.1 532.568 309.092 532.16 308.947 531.784C308.802 531.407 308.527 531.08 308.162 530.85C307.797 530.619 307.359 530.497 306.911 530.5H287.86C287.577 530.5 287.297 530.549 287.036 530.644C286.774 530.74 286.537 530.881 286.337 531.059C286.137 531.236 285.979 531.448 285.871 531.68C285.763 531.912 285.708 532.161 285.709 532.413C285.707 532.615 285.741 532.817 285.81 533.01Z" fill="#F3F3F7"/>
<path d="M293.034 550.581L295.285 556.886C295.431 557.292 295.717 557.647 296.104 557.899C296.49 558.151 296.956 558.288 297.435 558.29H323.678C324.275 558.29 324.847 558.08 325.27 557.704C325.692 557.329 325.929 556.819 325.929 556.288C325.934 556.168 325.923 556.048 325.895 555.93L323.14 541.975C323.058 541.574 322.841 541.204 322.516 540.916C322.192 540.628 321.777 540.434 321.326 540.361L309.868 538.568C309.57 538.52 309.264 538.527 308.969 538.589C308.674 538.651 308.397 538.766 308.154 538.927L293.874 548.37C293.491 548.614 293.205 548.959 293.054 549.355C292.903 549.752 292.896 550.181 293.034 550.581V550.581Z" fill="#F3F3F7"/>
<path d="M319.343 535.76L325.727 536.716C326.046 536.761 326.372 536.747 326.684 536.675C326.996 536.603 327.288 536.474 327.542 536.297L330.633 534.056C330.864 533.892 331.056 533.688 331.196 533.456C331.337 533.225 331.424 532.971 331.452 532.709C331.48 532.447 331.449 532.183 331.36 531.932C331.272 531.681 331.127 531.448 330.936 531.247C330.726 531.015 330.46 530.827 330.157 530.698C329.855 530.568 329.524 530.501 329.188 530.5H321.326C320.769 530.5 320.231 530.681 319.814 531.008L318.201 532.293C317.982 532.468 317.805 532.679 317.678 532.915C317.551 533.15 317.478 533.406 317.462 533.667C317.447 533.928 317.489 534.189 317.587 534.435C317.685 534.681 317.836 534.908 318.033 535.102C318.368 535.453 318.832 535.686 319.343 535.76V535.76Z" fill="#F3F3F7"/>
<path d="M327.945 544.007L331.372 556.766C331.489 557.203 331.769 557.59 332.166 557.867C332.562 558.144 333.052 558.293 333.556 558.29H340.814C341.411 558.29 341.984 558.08 342.406 557.704C342.828 557.329 343.065 556.819 343.065 556.288C343.068 555.977 342.987 555.67 342.83 555.392L336.009 543.081C335.843 542.782 335.597 542.525 335.292 542.332C334.987 542.14 334.633 542.017 334.262 541.975L330.398 541.527C330.104 541.492 329.806 541.509 329.519 541.577C329.233 541.646 328.965 541.764 328.731 541.925C328.496 542.087 328.3 542.287 328.154 542.517C328.008 542.746 327.914 542.998 327.878 543.26C327.865 543.51 327.888 543.761 327.945 544.007V544.007Z" fill="#F3F3F7"/>
<path d="M336.144 538.3L337.824 538.568C338.138 538.624 338.435 538.737 338.695 538.902C338.956 539.067 339.174 539.279 339.336 539.525L343.133 545.202C343.284 545.429 343.485 545.626 343.722 545.783C343.96 545.94 344.23 546.054 344.518 546.118C344.805 546.182 345.104 546.195 345.397 546.155C345.689 546.116 345.971 546.026 346.224 545.89C346.429 545.767 346.62 545.627 346.795 545.471L357.951 533.787C358.225 533.496 358.4 533.141 358.456 532.765C358.512 532.388 358.446 532.005 358.267 531.66C358.087 531.316 357.801 531.024 357.441 530.818C357.082 530.613 356.664 530.503 356.237 530.5H341.554C341.014 530.504 340.492 530.673 340.075 530.978L335.102 534.803C334.879 534.974 334.696 535.182 334.563 535.415C334.431 535.649 334.351 535.903 334.329 536.164C334.308 536.425 334.344 536.688 334.436 536.936C334.528 537.184 334.675 537.414 334.867 537.612C335.175 537.982 335.633 538.228 336.144 538.3V538.3Z" fill="#F3F3F7"/>
<path d="M346.593 551.836L348.979 557.035C349.148 557.404 349.436 557.72 349.807 557.943C350.178 558.167 350.615 558.288 351.062 558.29H377.17C377.767 558.29 378.34 558.08 378.762 557.704C379.184 557.329 379.421 556.819 379.421 556.288C379.427 555.986 379.346 555.688 379.186 555.422L367.728 534.654C367.469 534.179 367.008 533.816 366.448 533.642C365.888 533.468 365.273 533.499 364.738 533.728C364.505 533.829 364.29 533.96 364.099 534.116L347.064 549.714C346.757 549.986 346.549 550.334 346.465 550.711C346.381 551.089 346.426 551.481 346.593 551.836V551.836Z" fill="#F3F3F7"/>
<path d="M373.172 533.399L379.657 545.531C379.913 546.009 380.371 546.377 380.931 546.556C381.491 546.735 382.108 546.71 382.647 546.487C382.748 546.455 382.84 546.404 382.916 546.338L402.942 534.475C403.345 534.239 403.653 533.895 403.819 533.492C403.986 533.09 404.002 532.65 403.867 532.239C403.731 531.827 403.451 531.465 403.067 531.206C402.682 530.947 402.215 530.804 401.732 530.799L375.221 530.53C374.626 530.527 374.053 530.732 373.626 531.101C373.199 531.47 372.951 531.973 372.937 532.502C372.959 532.811 373.039 533.114 373.172 533.399V533.399Z" fill="#F3F3F7"/>
<path d="M383.756 552.762L385.907 557.095C386.085 557.447 386.373 557.746 386.736 557.958C387.099 558.17 387.522 558.285 387.956 558.29H416.584C417.181 558.29 417.754 558.08 418.176 557.704C418.598 557.329 418.835 556.819 418.835 556.288V556.079L416.45 535.341C416.39 534.815 416.099 534.331 415.639 533.995C415.179 533.659 414.589 533.498 413.997 533.548C413.635 533.581 413.288 533.694 412.989 533.877L384.596 550.312C384.152 550.565 383.823 550.951 383.669 551.4C383.515 551.849 383.546 552.332 383.756 552.762Z" fill="#F3F3F7"/>
<path d="M421.893 532.742L423.573 545.531C423.605 545.792 423.694 546.046 423.837 546.276C423.979 546.507 424.172 546.71 424.403 546.874C424.634 547.037 424.9 547.159 425.184 547.231C425.468 547.303 425.766 547.325 426.06 547.294C426.107 547.298 426.155 547.288 426.194 547.264L455.83 542.543C456.35 542.461 456.821 542.218 457.159 541.857C457.497 541.496 457.681 541.04 457.678 540.571V532.502C457.678 531.971 457.441 531.462 457.018 531.087C456.596 530.711 456.024 530.5 455.427 530.5H424.144C423.547 530.5 422.975 530.711 422.552 531.087C422.13 531.462 421.893 531.971 421.893 532.502V532.742Z" fill="#F3F3F7"/>
<path d="M424.984 553.39L425.455 556.527C425.526 557.006 425.79 557.445 426.198 557.764C426.606 558.082 427.129 558.259 427.672 558.261H448.269C448.565 558.261 448.858 558.209 449.131 558.108C449.404 558.008 449.652 557.86 449.861 557.674C450.07 557.488 450.236 557.268 450.349 557.025C450.462 556.782 450.521 556.521 450.521 556.259V556.079L449.916 549.744C449.862 549.213 449.573 548.723 449.114 548.382C448.654 548.04 448.06 547.874 447.463 547.921C447.394 547.917 447.325 547.927 447.261 547.951L426.832 551.119C426.265 551.231 425.765 551.524 425.424 551.943C425.084 552.361 424.927 552.876 424.984 553.39V553.39Z" fill="#F3F3F7"/>
<path d="M455.426 546.637L462.113 545.411C462.518 545.338 462.938 545.363 463.328 545.484C463.718 545.605 464.065 545.817 464.331 546.099L472.429 555.003C472.614 555.207 472.753 555.442 472.837 555.693C472.921 555.945 472.948 556.209 472.916 556.47C472.885 556.731 472.796 556.984 472.655 557.214C472.514 557.445 472.322 557.648 472.093 557.812C471.695 558.104 471.196 558.262 470.681 558.261H457.106C456.564 558.259 456.04 558.082 455.632 557.764C455.224 557.445 454.96 557.006 454.889 556.527L453.679 548.848C453.595 548.35 453.73 547.843 454.055 547.431C454.381 547.02 454.872 546.735 455.426 546.637V546.637Z" fill="#F3F3F7"/>
<path d="M463.054 539.047L463.423 532.413C463.45 531.898 463.699 531.412 464.118 531.055C464.537 530.699 465.095 530.5 465.675 530.5H490.976C491.503 530.502 492.012 530.667 492.417 530.967C492.822 531.267 493.097 531.683 493.194 532.144L497.998 555.93C498.101 556.452 497.968 556.99 497.628 557.426C497.289 557.862 496.77 558.162 496.184 558.261C496.051 558.285 495.916 558.295 495.781 558.29H482.004C481.68 558.291 481.36 558.23 481.064 558.112C480.768 557.993 480.505 557.82 480.291 557.603L463.625 540.481C463.246 540.08 463.043 539.57 463.054 539.047V539.047Z" fill="#F3F3F7"/>
<path d="M499.578 532.831L501.896 544.664C501.945 544.922 502.051 545.169 502.208 545.39C502.365 545.611 502.57 545.802 502.811 545.952C503.051 546.102 503.323 546.208 503.61 546.264C503.898 546.32 504.194 546.325 504.484 546.278C504.766 546.225 505.038 546.134 505.29 546.009L526.358 534.176C526.607 534.037 526.823 533.855 526.994 533.642C527.164 533.428 527.286 533.187 527.351 532.931C527.417 532.676 527.425 532.412 527.376 532.154C527.326 531.895 527.22 531.648 527.063 531.427C526.856 531.143 526.572 530.909 526.238 530.747C525.903 530.586 525.529 530.501 525.148 530.5H501.762C501.165 530.5 500.592 530.711 500.17 531.087C499.748 531.462 499.511 531.971 499.511 532.502C499.544 532.622 499.544 532.742 499.578 532.831Z" fill="#F3F3F7"/>
<path d="M503.711 552.224L504.349 556.557C504.421 557.036 504.685 557.475 505.093 557.794C505.5 558.112 506.024 558.289 506.567 558.29H542.452C543.049 558.29 543.622 558.08 544.044 557.704C544.466 557.329 544.704 556.819 544.704 556.288C544.712 555.918 544.595 555.553 544.368 555.243L532.204 537.762C531.889 537.313 531.388 536.993 530.81 536.87C530.232 536.747 529.622 536.831 529.113 537.104L504.752 550.252C504.379 550.453 504.081 550.747 503.895 551.098C503.71 551.449 503.646 551.841 503.711 552.224V552.224Z" fill="#F3F3F7"/>
<path d="M537.009 533.1L540.873 530.829C541.244 530.617 541.675 530.503 542.116 530.5H559.924C560.522 530.5 561.094 530.711 561.516 531.087C561.939 531.462 562.176 531.971 562.176 532.502C562.177 532.794 562.106 533.082 561.966 533.345C561.827 533.609 561.623 533.842 561.369 534.026L546.383 545.232C546.158 545.401 545.898 545.529 545.618 545.608C545.337 545.688 545.042 545.717 544.748 545.695C544.455 545.673 544.169 545.599 543.908 545.479C543.647 545.358 543.414 545.193 543.225 544.993C543.158 544.933 543.124 544.874 543.057 544.814L536.37 535.879C536.044 535.434 535.928 534.893 536.048 534.373C536.167 533.853 536.513 533.395 537.009 533.1V533.1Z" fill="#F3F3F7"/>
<path d="M547.627 550.85L552.432 557.394C552.634 557.673 552.913 557.902 553.242 558.059C553.571 558.216 553.94 558.296 554.314 558.29H573.903C574.5 558.29 575.072 558.08 575.495 557.704C575.917 557.329 576.154 556.819 576.154 556.288C576.15 555.896 576.022 555.513 575.784 555.183L564.259 539.674C563.928 539.232 563.414 538.924 562.828 538.817C562.243 538.711 561.634 538.815 561.134 539.106C561.067 539.136 561.034 539.166 560.966 539.196L548.097 548.19C547.659 548.501 547.368 548.947 547.281 549.439C547.194 549.931 547.317 550.435 547.627 550.85V550.85Z" fill="#F3F3F7"/>
<path d="M572.861 530.949L568.459 534.206C568.026 534.521 567.742 534.968 567.661 535.46C567.58 535.952 567.709 536.453 568.022 536.865L575.751 547.025C575.914 547.245 576.126 547.433 576.372 547.579C576.619 547.725 576.895 547.826 577.186 547.877C577.477 547.927 577.776 547.925 578.066 547.871C578.356 547.817 578.632 547.712 578.876 547.563C579.241 547.344 579.522 547.031 579.682 546.666L585.965 533.249C586.19 532.757 586.189 532.207 585.963 531.716C585.737 531.224 585.303 530.831 584.756 530.62C584.477 530.524 584.181 530.474 583.882 530.47H574.272C573.757 530.493 573.263 530.661 572.861 530.949V530.949Z" fill="#F3F3F7"/>
<path d="M581.497 554.944L582.807 557.185C583.007 557.512 583.304 557.785 583.665 557.974C584.026 558.164 584.438 558.263 584.857 558.261L601.523 557.962C601.818 557.954 602.11 557.895 602.379 557.787C602.649 557.679 602.892 557.525 603.095 557.333C603.298 557.142 603.456 556.917 603.561 556.671C603.666 556.425 603.716 556.163 603.707 555.9C603.704 555.635 603.64 555.374 603.519 555.132C603.397 554.891 603.221 554.674 603.001 554.495L589.83 543.678C589.387 543.321 588.803 543.133 588.206 543.156C587.609 543.178 587.045 543.409 586.638 543.798C586.485 543.937 586.36 544.099 586.268 544.276L581.497 553.151C581.331 553.427 581.245 553.735 581.245 554.047C581.245 554.36 581.331 554.668 581.497 554.944V554.944Z" fill="#F3F3F7"/>
<path d="M592.181 531.755L589.527 537.732C589.362 538.116 589.332 538.536 589.44 538.935C589.548 539.335 589.789 539.697 590.132 539.973L598.7 546.666C599.056 546.942 599.499 547.113 599.968 547.155C600.437 547.198 600.909 547.111 601.321 546.905L626.017 534.236C626.447 534.017 626.783 533.678 626.974 533.272C627.165 532.866 627.2 532.415 627.074 531.99C626.947 531.564 626.667 531.188 626.275 530.918C625.884 530.649 625.403 530.502 624.908 530.5H594.298C593.845 530.499 593.402 530.617 593.025 530.841C592.647 531.064 592.354 531.383 592.181 531.755V531.755Z" fill="#F3F3F7"/>
<path d="M641.575 532.473L654.04 555.362C654.297 555.838 654.332 556.385 654.137 556.883C653.942 557.381 653.532 557.791 652.999 558.022C652.687 558.164 652.341 558.236 651.991 558.231L613.652 557.633C613.102 557.622 612.576 557.43 612.174 557.095L605.79 551.866C605.352 551.504 605.092 551.002 605.067 550.471C605.042 549.94 605.253 549.421 605.655 549.027C605.799 548.883 605.97 548.762 606.159 548.669L638.416 531.576C638.93 531.308 639.542 531.23 640.12 531.358C640.698 531.487 641.196 531.812 641.507 532.263C641.541 532.33 641.564 532.4 641.575 532.473V532.473Z" fill="#F3F3F7"/>
<path d="M649.101 530.5H653.368C653.965 530.5 654.538 530.711 654.96 531.087C655.382 531.462 655.62 531.971 655.62 532.502V540.511C655.62 541.042 655.382 541.551 654.96 541.926C654.538 542.302 653.965 542.513 653.368 542.513C652.941 542.513 652.523 542.407 652.161 542.206C651.798 542.005 651.507 541.718 651.319 541.377L647.052 533.369C646.923 533.132 646.85 532.875 646.834 532.612C646.819 532.349 646.863 532.087 646.963 531.839C647.063 531.592 647.218 531.364 647.417 531.17C647.617 530.976 647.858 530.82 648.127 530.71C648.428 530.57 648.762 530.498 649.101 530.5V530.5Z" fill="#F3F3F7"/>
</g>
<g clip-path="url(#clip3_320_23243)">
<path d="M343.596 440.006C343.596 440.006 339.847 437.517 339.182 441.933C338.517 446.348 337.208 452.658 332.826 450.805C328.444 448.952 328.445 445.912 328.445 445.912C328.445 445.912 324.858 452.132 318.167 450.928C311.476 449.724 310.039 446.167 311.729 444.474C313.418 442.78 317.79 445.893 321.591 442.081C325.392 438.27 325.402 437.01 321 437.677C316.597 438.344 306.523 440.948 304.053 435.93C301.583 430.911 301.603 428.391 307.886 428.338C314.168 428.286 324.199 430.721 323.598 427.576C322.996 424.432 314.844 422.611 311.075 422.642C307.306 422.674 300.411 420.842 299.819 416.438C299.227 412.034 298.055 401.964 305.562 405.681C313.07 409.397 323.08 414.353 324.357 411.822C325.635 409.291 317.515 403.691 313.133 401.837C308.751 399.984 301.866 396.892 303.165 391.842C304.463 386.792 306.375 383.626 308.867 386.125C311.358 388.624 318.19 398.015 321.347 396.099C324.503 394.182 320.766 390.434 317.027 386.686C313.289 382.939 310.174 379.815 310.861 372.881C311.547 365.946 317.207 365.268 320.966 366.497C324.725 367.725 327.766 379.668 328.368 382.813C328.969 385.957 332.729 387.186 332.137 382.781C331.545 378.376 330.363 369.567 332.897 367.026C335.431 364.485 340.831 369.899 341.858 372.2C342.886 374.501 344.08 382.05 338.378 387.767C332.677 393.484 339.582 394.056 341.493 390.89C343.404 387.725 343.492 377.225 346.014 376.154C348.536 375.083 352.907 378.196 353.467 386.38C354.026 394.564 350.215 399.636 345.78 404.082C341.346 408.529 346.33 413.526 349.497 410.35C352.665 407.174 356.466 403.363 357.142 397.688C357.817 392.013 363.466 392.595 364.681 397.625C365.895 402.654 367.099 408.943 362.042 412.765C356.984 416.587 350.659 421.68 350.639 424.199C350.617 426.719 353.13 426.698 356.931 422.886C360.732 419.075 363.298 412.754 367.68 414.608C372.062 416.46 373.245 425.269 367.564 428.466C361.883 431.664 353.71 432.362 353.057 435.517C352.402 438.672 357.407 441.149 356.129 443.68C354.852 446.211 350.459 445.617 348.59 443.743C346.722 441.87 343.596 440.006 343.596 440.006Z" fill="#66BA93"/>
<path d="M315.852 432.99C318.694 436.559 321.328 440.226 323.896 443.964C326.451 447.704 328.932 451.497 331.286 455.37C333.642 459.241 335.936 463.154 338.087 467.147C340.275 471.12 342.3 475.184 344.285 479.267L341.868 480.408C339.977 476.335 338.043 472.277 335.944 468.303C333.883 464.309 331.678 460.391 329.409 456.511C327.143 452.628 324.748 448.822 322.278 445.067C319.803 441.323 317.233 437.61 314.518 434.075L315.852 432.99Z" fill="#8FE3BC"/>
<path d="M339.703 433.098C341.747 436.663 343.505 440.314 345.131 444.058C346.734 447.804 348.182 451.626 349.351 455.553C350.493 459.485 351.428 463.497 351.937 467.606C352.39 471.72 352.445 475.915 351.809 480.098L348.977 479.578C349.647 475.764 349.701 471.821 349.365 467.888C348.973 463.953 348.163 460.047 347.144 456.192C346.098 452.341 344.768 448.559 343.282 444.84C341.78 441.135 340.111 437.456 338.22 433.966L339.703 433.098Z" fill="#66BA93"/>
<path d="M365.352 525.685H336.346C334.459 525.685 332.881 524.246 332.704 522.362L328.727 480.096C328.575 478.481 329.842 477.087 331.458 477.087H370.238C371.855 477.087 373.121 478.481 372.97 480.096L368.993 522.362C368.817 524.246 367.24 525.685 365.352 525.685Z" fill="#8FE3BC"/>
<path d="M370.546 455.187C370.546 455.187 369.756 451.394 366.6 453.669C363.443 455.945 358.707 458.979 357.129 455.187C355.55 451.394 359.497 449.118 359.497 449.118C359.497 449.118 351.341 451.141 347.921 446.337C344.501 441.533 345.816 438.498 347.921 438.498C350.026 438.498 350.815 443.049 355.551 443.049C360.286 443.049 361.076 442.291 357.919 440.015C354.762 437.739 346.869 433.187 348.448 428.636C350.027 424.085 351.605 422.568 355.552 426.36C359.498 430.153 364.234 437.739 365.812 435.463C367.391 433.187 363.444 427.119 361.076 424.843C358.708 422.567 355.552 417.257 357.92 414.222C360.288 411.188 365.813 404.36 368.18 411.188C370.547 418.016 373.705 427.119 376.073 426.36C378.441 425.602 376.862 417.257 375.284 413.464C373.705 409.67 371.338 403.602 375.284 401.327C379.23 399.052 382.387 398.292 382.387 401.327C382.387 404.361 380.808 414.223 383.966 414.981C387.123 415.74 387.123 411.189 387.123 406.637C387.123 402.085 387.123 398.292 391.858 394.5C396.593 390.707 400.54 393.741 402.118 396.776C403.697 399.81 398.172 408.913 396.594 411.189C395.015 413.465 396.594 416.499 398.962 413.465C401.33 410.43 406.065 404.362 409.222 404.362C412.379 404.362 412.379 410.937 411.59 412.959C410.802 414.982 406.855 420.293 399.751 420.293C392.647 420.293 396.594 424.844 399.751 424.085C402.908 423.326 409.485 417.005 411.721 417.89C413.957 418.775 414.747 423.326 410.011 428.636C405.276 433.946 399.751 434.705 394.226 434.705C388.701 434.705 388.701 440.773 392.647 440.773C396.593 440.773 401.33 440.773 405.276 437.739C409.222 434.705 412.379 438.498 410.011 442.291C407.643 446.084 404.486 450.636 398.962 449.877C393.437 449.119 386.333 448.36 384.754 449.877C383.176 451.395 384.754 452.912 389.49 452.912C394.225 452.912 399.75 450.636 401.329 454.429C402.908 458.222 398.171 464.291 392.647 462.774C387.122 461.256 381.597 456.705 379.229 458.222C376.861 459.739 378.439 464.29 376.072 465.05C373.704 465.808 371.337 462.774 371.337 460.498C371.335 458.221 370.546 455.187 370.546 455.187Z" fill="#8FE3BC"/>
<path d="M373.915 446.462C372.032 448.915 370.275 451.55 368.648 454.222C367.02 456.903 365.527 459.663 364.168 462.482C362.79 465.292 361.618 468.194 360.588 471.133C359.537 474.069 358.8 477.091 358.175 480.117L355.412 479.559C356.157 476.394 357.024 473.265 358.198 470.258C359.352 467.246 360.646 464.296 362.142 461.456C363.619 458.609 365.226 455.835 366.964 453.15C368.713 450.464 370.547 447.871 372.593 445.361L373.915 446.462Z" fill="#8FE3BC"/>
<path d="M317.435 430.913C317.435 430.913 318.225 434.804 321.382 432.47C324.538 430.135 329.275 427.022 330.852 430.913C332.431 434.804 328.484 437.139 328.484 437.139C328.484 437.139 337.826 434.564 341.247 439.493C344.667 444.422 342.165 448.034 340.061 448.034C337.956 448.034 337.167 443.365 332.431 443.365C327.696 443.365 326.906 444.143 330.063 446.478C333.22 448.812 341.113 453.482 339.534 458.152C337.955 462.821 336.377 464.378 332.43 460.486C328.484 456.595 323.748 448.812 322.17 451.147C320.591 453.482 324.538 459.707 326.905 462.043C329.274 464.378 332.43 469.825 330.062 472.939C327.694 476.052 322.169 483.057 319.802 476.052C317.435 469.047 314.277 459.708 311.909 460.486C309.541 461.265 311.12 469.826 312.698 473.717C314.277 477.608 316.644 483.835 312.698 486.17C308.752 488.504 305.595 489.282 305.595 486.17C305.595 483.057 307.173 472.939 304.016 472.161C300.859 471.382 300.859 476.052 300.859 480.721C300.859 485.391 300.859 489.282 296.124 493.174C291.388 497.066 287.441 493.952 285.864 490.839C284.286 487.726 289.81 478.386 291.388 476.052C292.967 473.717 291.388 470.604 289.02 473.717C286.652 476.83 281.917 483.057 278.76 483.057C275.603 483.057 275.603 476.312 276.392 474.236C277.181 472.161 281.127 466.713 288.231 466.713C295.334 466.713 291.388 462.044 288.231 462.822C285.074 463.6 278.497 470.086 276.261 469.178C274.025 468.27 273.235 463.601 277.971 458.153C282.706 452.704 288.231 451.927 293.756 451.927C299.281 451.927 299.281 445.701 295.334 445.701C291.388 445.701 286.652 445.701 282.706 448.814C278.76 451.927 275.602 448.036 277.971 444.145C280.339 440.253 283.495 435.584 289.02 436.362C294.545 437.141 300.345 438.3 301.923 436.743C303.502 435.187 303.227 433.249 298.491 433.249C293.756 433.249 288.231 435.583 286.652 431.692C285.073 427.801 289.809 421.574 295.334 423.132C300.859 424.688 306.384 429.357 308.752 427.801C311.12 426.245 309.542 421.575 311.909 420.797C314.277 420.019 316.644 423.132 316.644 425.466C316.646 427.8 317.435 430.913 317.435 430.913Z" fill="#8FE3BC"/>
<path d="M303.391 444.178C305.046 444.074 306.316 442.836 306.228 441.414C306.14 439.991 304.726 438.923 303.071 439.027C301.416 439.131 300.145 440.369 300.234 441.791C300.322 443.214 301.736 444.282 303.391 444.178Z" fill="#42B961"/>
<path d="M328.202 419.458C328.45 418.055 327.327 416.679 325.695 416.387C324.062 416.094 322.537 416.995 322.289 418.399C322.041 419.803 323.163 421.178 324.796 421.47C326.429 421.763 327.954 420.862 328.202 419.458Z" fill="#8FE3BC"/>
<path d="M382.702 445.747C384.824 445.747 386.544 444.591 386.544 443.166C386.544 441.741 384.824 440.585 382.702 440.585C380.58 440.585 378.86 441.741 378.86 443.166C378.86 444.591 380.58 445.747 382.702 445.747Z" fill="#7ED9AF"/>
<path d="M316.105 454.633C317.289 454.633 318.25 453.808 318.25 452.79C318.25 451.772 317.289 450.947 316.105 450.947C314.92 450.947 313.959 451.772 313.959 452.79C313.959 453.808 314.92 454.633 316.105 454.633Z" fill="#42B961"/>
<path d="M297.883 459.677C298.988 459.25 299.59 458.132 299.227 457.181C298.864 456.23 297.674 455.805 296.569 456.233C295.463 456.66 294.861 457.778 295.224 458.729C295.587 459.68 296.777 460.105 297.883 459.677Z" fill="#42B961"/>
<path d="M339.929 402.034C341.034 401.607 341.636 400.489 341.273 399.538C340.91 398.587 339.72 398.162 338.614 398.59C337.509 399.017 336.907 400.135 337.27 401.086C337.633 402.037 338.823 402.462 339.929 402.034Z" fill="#8FE3BC"/>
</g>
<g clip-path="url(#clip4_320_23243)">
<path d="M314.572 430.919C317.508 434.582 320.228 438.345 322.881 442.181C325.52 446.018 328.082 449.91 330.514 453.885C332.947 457.857 335.316 461.872 337.538 465.97C339.798 470.047 341.89 474.217 343.94 478.407L341.443 479.577C339.49 475.398 337.493 471.234 335.325 467.156C333.196 463.058 330.919 459.037 328.575 455.055C326.234 451.071 323.761 447.165 321.21 443.313C318.653 439.47 315.999 435.661 313.194 432.033L314.572 430.919Z" fill="#DCDDE2"/>
<path d="M339.207 431.031C341.318 434.689 343.134 438.435 344.813 442.277C346.469 446.121 347.965 450.043 349.172 454.072C350.351 458.108 351.317 462.224 351.844 466.441C352.311 470.663 352.367 474.968 351.711 479.26L348.786 478.726C349.477 474.812 349.534 470.766 349.187 466.73C348.782 462.692 347.945 458.684 346.892 454.728C345.812 450.776 344.438 446.896 342.904 443.079C341.353 439.278 339.629 435.502 337.676 431.921L339.207 431.031Z" fill="#AFADCB"/>
<path d="M365.699 526.039H335.739C333.791 526.039 332.161 524.562 331.978 522.629L327.871 479.257C327.714 477.601 329.022 476.169 330.692 476.169H370.746C372.415 476.169 373.723 477.601 373.567 479.257L369.459 522.629C369.277 524.563 367.648 526.039 365.699 526.039Z" fill="#DCDDE2"/>
<path d="M374.543 444.744C372.598 447.261 370.784 449.965 369.103 452.707C367.422 455.458 365.88 458.29 364.476 461.183C363.053 464.067 361.842 467.045 360.779 470.06C359.693 473.073 358.932 476.174 358.287 479.279L355.432 478.706C356.202 475.459 357.097 472.247 358.311 469.162C359.502 466.072 360.839 463.044 362.384 460.13C363.91 457.208 365.569 454.362 367.364 451.607C369.17 448.85 371.065 446.19 373.178 443.614L374.543 444.744Z" fill="#DCDDE2"/>
<path d="M316.208 428.788C316.208 428.788 317.024 432.781 320.284 430.386C323.544 427.99 328.436 424.796 330.066 428.788C331.697 432.781 327.62 435.177 327.62 435.177C327.62 435.177 337.269 432.535 340.802 437.592C344.334 442.65 341.751 446.357 339.577 446.357C337.403 446.357 336.588 441.566 331.697 441.566C326.806 441.566 325.99 442.364 329.251 444.76C332.511 447.156 340.663 451.947 339.033 456.739C337.402 461.531 335.772 463.128 331.696 459.135C327.62 455.142 322.728 447.156 321.098 449.551C319.468 451.947 323.544 458.336 325.989 460.732C328.435 463.128 331.696 468.718 329.25 471.913C326.804 475.108 321.097 482.296 318.652 475.108C316.207 467.92 312.946 458.337 310.5 459.135C308.054 459.934 309.685 468.719 311.315 472.712C312.946 476.705 315.391 483.094 311.315 485.49C307.24 487.886 303.978 488.684 303.978 485.49C303.978 482.296 305.609 471.913 302.348 471.115C299.087 470.316 299.087 475.108 299.087 479.899C299.087 484.69 299.087 488.683 294.196 492.677C289.305 496.671 285.229 493.476 283.599 490.281C281.969 487.087 287.675 477.503 289.305 475.108C290.936 472.712 289.305 469.518 286.859 472.712C284.414 475.906 279.522 482.296 276.262 482.296C273.002 482.296 273.002 475.374 273.816 473.245C274.631 471.115 278.707 465.525 286.044 465.525C293.381 465.525 289.305 460.733 286.044 461.532C282.784 462.33 275.99 468.986 273.681 468.054C271.371 467.123 270.556 462.331 275.447 456.74C280.338 451.149 286.044 450.352 291.75 450.352C297.457 450.352 297.457 443.963 293.381 443.963C289.305 443.963 284.414 443.963 280.338 447.157C276.262 450.352 273.001 446.359 275.447 442.366C277.893 438.373 281.153 433.582 286.859 434.38C292.566 435.179 298.557 436.368 300.186 434.771C301.817 433.174 301.532 431.185 296.641 431.185C291.75 431.185 286.044 433.581 284.414 429.588C282.783 425.595 287.674 419.205 293.381 420.804C299.087 422.401 304.794 427.192 307.24 425.595C309.686 423.998 308.055 419.206 310.5 418.408C312.946 417.609 315.391 420.804 315.391 423.199C315.393 425.594 316.208 428.788 316.208 428.788Z" fill="#DCDDE2"/>
</g>
<g clip-path="url(#clip5_320_23243)">
<path d="M307.557 459.959C301.757 464.235 293.49 462.751 293.49 462.751C293.49 462.751 294.624 454.334 300.424 450.045C306.224 445.756 314.49 447.253 314.49 447.253C314.49 447.253 313.357 455.683 307.557 459.959Z" fill="#8FE3BC"/>
</g>
<g clip-path="url(#clip6_320_23243)">
<path d="M306.005 452.259C299.521 447.905 297.82 438.874 297.82 438.874C297.82 438.874 306.629 436.898 313.126 441.246C319.623 445.595 321.312 454.631 321.312 454.631C321.312 454.631 312.489 456.613 306.005 452.259Z" fill="#8FE3BC"/>
</g>
<g clip-path="url(#clip7_320_23243)">
<path d="M377.005 446.259C370.521 441.905 368.82 432.874 368.82 432.874C368.82 432.874 377.629 430.898 384.126 435.246C390.623 439.595 392.312 448.631 392.312 448.631C392.312 448.631 383.489 450.613 377.005 446.259Z" fill="#8FE3BC"/>
</g>
<g clip-path="url(#clip8_320_23243)">
<path d="M331.732 411.156C339.527 410.674 346.366 416.812 346.366 416.812C346.366 416.812 340.571 423.735 332.769 424.23C324.966 424.724 318.134 418.574 318.134 418.574C318.134 418.574 323.937 411.639 331.732 411.156Z" fill="#66BA93"/>
</g>
<g clip-path="url(#clip9_320_23243)">
<path d="M330.954 404.715C333.496 397.331 341.786 393.365 341.786 393.365C341.786 393.365 345.96 401.371 343.427 408.767C340.895 416.164 332.596 420.117 332.596 420.117C332.596 420.117 328.413 412.1 330.954 404.715Z" fill="#66BA93"/>
</g>
<g filter="url(#filter0_ddd_320_23243)">
<path d="M655.47 334H137.84C137.083 334.016 136.331 333.868 135.636 333.565C134.942 333.263 134.32 332.813 133.815 332.247C133.31 331.68 132.933 331.011 132.71 330.285C132.487 329.559 132.424 328.793 132.523 328.04L165.929 7.95988C166.126 6.33759 166.9 4.84127 168.109 3.74623C169.319 2.65118 170.882 2.03106 172.51 1.99996H690.134C690.892 1.98377 691.644 2.13205 692.339 2.43463C693.034 2.73722 693.655 3.18695 694.161 3.75302C694.666 4.31909 695.044 4.9881 695.267 5.71422C695.491 6.44034 695.556 7.20639 695.457 7.95988L662.018 328.04C661.822 329.657 661.052 331.148 659.85 332.243C658.647 333.337 657.093 333.961 655.47 334V334Z" fill="white"/>
</g>
<path d="M691.762 43.1324H162.25L165.929 8.03819C166.125 6.42057 166.896 4.92799 168.099 3.83355C169.303 2.73912 170.859 2.11602 172.483 2.07827H690.107C690.864 2.06209 691.616 2.21036 692.311 2.51295C693.006 2.81553 693.627 3.26527 694.133 3.83134C694.638 4.3974 695.016 5.06642 695.24 5.79253C695.463 6.51865 695.528 7.2847 695.429 8.03819L691.762 43.1324Z" fill="#25215E"/>
<path d="M197.187 27.8888C200.393 24.8367 200.771 20.0146 198.032 17.1186C195.293 14.2225 190.473 14.3491 187.267 17.4013C184.06 20.4535 183.682 25.2755 186.422 28.1716C189.161 31.0676 193.981 30.941 197.187 27.8888Z" fill="#F05659"/>
<path d="M220.125 27.8912C223.331 24.839 223.71 20.017 220.97 17.1209C218.231 14.2249 213.411 14.3515 210.205 17.4037C206.998 20.4559 206.62 25.2779 209.36 28.1739C212.099 31.07 216.919 30.9434 220.125 27.8912Z" fill="#F9D039"/>
<path d="M243.062 27.8897C246.268 24.8375 246.647 20.0155 243.907 17.1194C241.168 14.2234 236.348 14.35 233.142 17.4022C229.935 20.4544 229.557 25.2764 232.297 28.1724C235.036 31.0685 239.856 30.9419 243.062 27.8897Z" fill="#7ED9AF"/>
<path d="M667.932 34.9864H332.715C332.183 34.9974 331.655 34.8929 331.167 34.6802C330.679 34.4674 330.242 34.1514 329.887 33.7538C329.532 33.3562 329.267 32.8863 329.109 32.3763C328.952 31.8662 328.907 31.3282 328.976 30.7988L330.698 14.3168C330.834 13.179 331.376 12.1288 332.223 11.3595C333.069 10.5902 334.165 10.1533 335.307 10.1292H670.523C671.055 10.1173 671.584 10.2211 672.072 10.4335C672.561 10.646 672.998 10.9619 673.353 11.3598C673.709 11.7577 673.974 12.228 674.131 12.7384C674.288 13.2488 674.333 13.7873 674.263 14.3168L672.524 30.81C672.384 31.9426 671.843 32.9871 671.001 33.7536C670.158 34.5201 669.069 34.9576 667.932 34.9864V34.9864Z" fill="#F3F3F7"/>
<path d="M268.223 22.9995C268.435 23.2064 273.289 28.5513 273.289 28.5513C273.438 28.7442 273.507 28.987 273.482 29.2294C273.457 29.4719 273.34 29.6954 273.155 29.854L273.089 29.9099C273.005 29.9952 272.906 30.0631 272.797 30.1094C272.687 30.1557 272.569 30.1796 272.45 30.1796C272.332 30.1796 272.214 30.1557 272.104 30.1094C271.995 30.0631 271.895 29.9952 271.812 29.9099L266.117 23.4132C265.955 23.219 265.873 22.9699 265.889 22.7172C265.904 22.4645 266.016 22.2274 266.2 22.0546L273.339 15.558C273.42 15.4741 273.517 15.4074 273.625 15.3619C273.732 15.3164 273.847 15.2929 273.964 15.2929C274.08 15.2929 274.195 15.3164 274.302 15.3619C274.41 15.4074 274.507 15.4741 274.588 15.558L274.643 15.6195C274.791 15.8065 274.86 16.0442 274.835 16.2815C274.81 16.5188 274.693 16.7368 274.51 16.8886C274.51 16.8886 268.474 22.2335 268.285 22.4124C267.995 22.6864 267.967 22.6864 268.223 22.9995Z" fill="#F3F3F7"/>
<path d="M292.995 22.4124C292.839 22.2335 287.93 16.8886 287.93 16.8886C287.781 16.7023 287.711 16.4651 287.735 16.2278C287.759 15.9905 287.875 15.7721 288.058 15.6195L288.125 15.558C288.206 15.474 288.304 15.4072 288.411 15.3616C288.519 15.316 288.635 15.2925 288.752 15.2925C288.868 15.2925 288.984 15.316 289.092 15.3616C289.2 15.4072 289.297 15.474 289.379 15.558L295.158 22.0546C295.305 22.2636 295.366 22.5213 295.329 22.7742C295.291 23.0272 295.158 23.256 294.957 23.4132L287.924 29.9099C287.84 29.9947 287.74 30.0621 287.63 30.108C287.52 30.154 287.402 30.1777 287.283 30.1777C287.164 30.1777 287.046 30.154 286.936 30.108C286.826 30.0621 286.726 29.9947 286.642 29.9099L286.592 29.854C286.444 29.661 286.375 29.4183 286.4 29.1758C286.424 28.9334 286.541 28.7098 286.726 28.5513C286.726 28.5513 292.7 23.2064 292.951 22.9995C293.28 22.6864 293.246 22.6864 292.995 22.4124Z" fill="#F3F3F7"/>
<g clip-path="url(#clip10_320_23243)">
<path d="M513.682 313.273H192.807C192.337 313.283 191.871 313.191 191.441 313.004C191.01 312.816 190.625 312.537 190.312 312.186C189.999 311.835 189.765 311.421 189.627 310.971C189.488 310.521 189.449 310.046 189.511 309.579L210.218 111.202C210.341 110.196 210.821 109.269 211.57 108.59C212.32 107.911 213.289 107.527 214.299 107.508H535.17C535.64 107.498 536.106 107.59 536.537 107.777C536.967 107.965 537.353 108.243 537.666 108.594C537.979 108.945 538.213 109.36 538.352 109.81C538.491 110.26 538.531 110.735 538.469 111.202L517.741 309.579C517.619 310.581 517.142 311.506 516.397 312.184C515.652 312.862 514.688 313.249 513.682 313.273V313.273Z" fill="white"/>
</g>
<g clip-path="url(#clip11_320_23243)">
<path d="M311.214 278C310.57 278 309.951 277.752 309.487 277.307L272.116 241.449L235.564 271.566C235.056 271.985 234.401 272.186 233.744 272.124C233.087 272.062 232.482 271.744 232.061 271.237C231.64 270.731 231.439 270.08 231.501 269.426C231.563 268.772 231.883 268.169 232.391 267.75L270.655 236.223C271.127 235.833 271.726 235.631 272.338 235.654C272.95 235.677 273.532 235.924 273.972 236.347L310.889 271.768L373.88 185.659C374.125 185.325 374.45 185.057 374.825 184.88C375.2 184.702 375.614 184.621 376.029 184.644C376.444 184.667 376.847 184.794 377.2 185.011C377.553 185.229 377.846 185.531 378.052 185.89L426.444 270.335L475.919 174.756C476.105 174.398 476.375 174.09 476.707 173.859C477.039 173.629 477.423 173.482 477.825 173.433C478.227 173.383 478.634 173.432 479.013 173.575C479.392 173.718 479.73 173.95 479.997 174.253L535.847 237.363L596.885 115.517C597.029 115.224 597.23 114.961 597.477 114.746C597.723 114.53 598.01 114.365 598.321 114.26C598.632 114.155 598.961 114.113 599.288 114.135C599.616 114.157 599.936 114.244 600.23 114.389C600.523 114.535 600.785 114.738 601 114.985C601.215 115.232 601.379 115.519 601.481 115.829C601.584 116.139 601.625 116.467 601.6 116.793C601.575 117.119 601.485 117.437 601.337 117.728L538.65 242.868C538.468 243.231 538.199 243.544 537.867 243.78C537.535 244.015 537.15 244.166 536.745 244.219C536.341 244.271 535.93 244.224 535.548 244.081C535.167 243.939 534.826 243.705 534.557 243.4L478.673 180.249L428.766 276.658C428.561 277.054 428.253 277.387 427.873 277.623C427.494 277.859 427.058 277.989 426.61 277.999C426.162 278.014 425.718 277.905 425.327 277.684C424.937 277.464 424.615 277.141 424.396 276.75L375.637 191.671L313.225 276.981C313.015 277.267 312.747 277.505 312.437 277.679C312.128 277.853 311.784 277.959 311.43 277.99C311.358 277.997 311.286 278 311.214 278Z" fill="#E53E41"/>
<path d="M603.999 150.466C603.397 150.466 602.816 150.248 602.364 149.853C601.911 149.458 601.617 148.914 601.537 148.32L597.631 119.082L573.358 137.892C573.1 138.095 572.805 138.246 572.489 138.335C572.173 138.423 571.842 138.449 571.516 138.41C571.19 138.371 570.875 138.268 570.589 138.107C570.303 137.946 570.052 137.731 569.85 137.473C569.648 137.215 569.5 136.92 569.413 136.604C569.327 136.289 569.304 135.959 569.346 135.635C569.388 135.311 569.494 134.998 569.658 134.715C569.822 134.431 570.041 134.183 570.301 133.984L597.997 112.523C598.342 112.255 598.752 112.083 599.186 112.024C599.62 111.964 600.062 112.02 600.467 112.185C600.872 112.35 601.226 112.619 601.493 112.964C601.761 113.309 601.932 113.718 601.99 114.15L606.468 147.664C606.514 148.014 606.485 148.37 606.383 148.708C606.28 149.046 606.106 149.359 605.872 149.624C605.638 149.89 605.35 150.103 605.027 150.249C604.704 150.395 604.353 150.47 603.998 150.471L603.999 150.466Z" fill="#E53E41"/>
</g>
<g clip-path="url(#clip12_320_23243)">
<path d="M551.656 287.015L465.898 286.947C465.26 286.949 464.648 287.206 464.197 287.661C463.746 288.117 463.493 288.733 463.492 289.377L463.49 298.507C463.492 299.15 463.747 299.766 464.199 300.221C464.651 300.675 465.262 300.93 465.901 300.931L551.658 300.999C552.297 300.997 552.908 300.74 553.359 300.285C553.81 299.83 554.064 299.213 554.065 298.57L554.067 289.439C554.065 288.796 553.81 288.18 553.358 287.726C552.906 287.271 552.294 287.016 551.656 287.015V287.015Z" fill="#F9D039"/>
<path d="M558.901 273.035L473.144 272.968C472.505 272.97 471.893 273.227 471.442 273.682C470.991 274.137 470.738 274.754 470.737 275.397L470.735 284.528C470.737 285.171 470.992 285.787 471.444 286.242C471.895 286.696 472.507 286.952 473.146 286.953L558.903 287.021C559.542 287.019 560.154 286.762 560.605 286.307C561.056 285.851 561.309 285.235 561.31 284.591L561.312 275.461C561.31 274.817 561.055 274.201 560.604 273.747C560.152 273.292 559.54 273.036 558.901 273.035V273.035Z" fill="#F9D039"/>
<path d="M565.1 259.063L479.342 258.996C478.704 258.998 478.092 259.254 477.641 259.71C477.19 260.165 476.937 260.782 476.936 261.425L476.934 270.556C476.936 271.199 477.191 271.815 477.643 272.27C478.094 272.724 478.706 272.98 479.345 272.981L565.082 273.037C565.72 273.035 566.332 272.779 566.783 272.323C567.234 271.868 567.488 271.251 567.489 270.608L567.49 261.477C567.491 260.838 567.239 260.224 566.791 259.772C566.343 259.319 565.735 259.064 565.1 259.063V259.063Z" fill="#F9D039"/>
<path d="M557.326 245.068L471.568 245C470.93 245.002 470.318 245.259 469.867 245.714C469.416 246.169 469.163 246.786 469.162 247.429L469.16 256.56C469.162 257.203 469.417 257.82 469.868 258.274C470.32 258.728 470.932 258.984 471.571 258.985L557.328 259.053C557.967 259.051 558.578 258.794 559.029 258.339C559.48 257.884 559.734 257.267 559.735 256.624L559.737 247.493C559.735 246.85 559.48 246.233 559.029 245.779C558.577 245.324 557.965 245.068 557.326 245.068V245.068Z" fill="#F9D039"/>
<path d="M545.562 287.01H547.624V300.997H545.562V287.01Z" fill="#FFF6AC"/>
<path d="M534.578 287.009H536.64V300.996H534.578V287.009Z" fill="#FFF6AC"/>
<path d="M523.593 286.991H525.655V300.978H523.593V286.991Z" fill="#FFF6AC"/>
<path d="M512.608 286.973H514.67V300.96H512.608V286.973Z" fill="#FFF6AC"/>
<path d="M501.624 286.972H503.687V300.959H501.624V286.972Z" fill="#FFF6AC"/>
<path d="M490.641 286.971H492.703V300.958H490.641V286.971Z" fill="#FFF6AC"/>
<path d="M552.807 273.032H554.869V287.019H552.807V273.032Z" fill="#FFF6AC"/>
<path d="M541.822 273.014H543.884V287.001H541.822V273.014Z" fill="#FFF6AC"/>
<path d="M530.838 273.013H532.9V287H530.838V273.013Z" fill="#FFF6AC"/>
<path d="M519.854 273.012H521.916V286.999H519.854V273.012Z" fill="#FFF6AC"/>
<path d="M559.004 259.062H561.066V273.049H559.004V259.062Z" fill="#FFF6AC"/>
<path d="M548.019 259.044H550.081V273.031H548.019V259.044Z" fill="#FFF6AC"/>
<path d="M537.019 259.043H539.081V273.03H537.019V259.043Z" fill="#FFF6AC"/>
<path d="M526.035 259.024H528.097V273.011H526.035V259.024Z" fill="#FFF6AC"/>
<path d="M551.232 245.064H553.294V259.051H551.232V245.064Z" fill="#FFF6AC"/>
<path d="M540.247 245.046H542.309V259.033H540.247V245.046Z" fill="#FFF6AC"/>
<path d="M529.263 245.045H531.325V259.032H529.263V245.045Z" fill="#FFF6AC"/>
<path d="M479.64 286.952H481.702V300.94H479.64V286.952Z" fill="#FFF6AC"/>
<path d="M468.656 286.952H470.718V300.939H468.656V286.952Z" fill="#FFF6AC"/>
<path d="M508.853 272.994H510.915V286.981H508.853V272.994Z" fill="#FFF6AC"/>
<path d="M497.869 272.993H499.931V286.98H497.869V272.993Z" fill="#FFF6AC"/>
<path d="M486.885 272.975H488.947V286.962H486.885V272.975Z" fill="#FFF6AC"/>
<path d="M475.901 272.974H477.963V286.961H475.901V272.974Z" fill="#FFF6AC"/>
<path d="M515.05 259.024H517.112V273.011H515.05V259.024Z" fill="#FFF6AC"/>
<path d="M504.066 259.006H506.128V272.993H504.066V259.006Z" fill="#FFF6AC"/>
<path d="M493.083 259.005H495.145V272.992H493.083V259.005Z" fill="#FFF6AC"/>
<path d="M482.099 258.987H484.161V272.974H482.099V258.987Z" fill="#FFF6AC"/>
<path d="M518.279 245.027H520.341V259.014H518.279V245.027Z" fill="#FFF6AC"/>
<path d="M507.294 245.026H509.356V259.013H507.294V245.026Z" fill="#FFF6AC"/>
<path d="M496.294 245.008H498.356V258.995H496.294V245.008Z" fill="#FFF6AC"/>
<path d="M485.31 245.007H487.372V258.994H485.31V245.007Z" fill="#FFF6AC"/>
<path d="M474.326 245.006H476.388V258.993H474.326V245.006Z" fill="#FFF6AC"/>
</g>
<g filter="url(#filter1_d_320_23243)">
<path d="M391.684 168H242.847C235.884 168 230.831 162.342 231.56 155.365L239.371 80.6347C240.1 73.658 246.334 68 253.297 68H402.133C409.096 68 414.149 73.658 413.421 80.6347L405.61 155.365C404.881 162.342 398.644 168 391.684 168Z" fill="#7ED9AF"/>
<path d="M391.684 168H274.535L304.088 162.883C342.77 156.189 379.746 138.207 410.218 111.264L405.61 155.358C404.881 162.342 398.644 168 391.684 168Z" fill="#66BA93"/>
<path d="M277.593 138.749H245.998L247.128 127.951H278.722L277.593 138.749Z" fill="#66BA93"/>
<path d="M396.494 138.749H364.899L366.028 127.951H397.62L396.494 138.749Z" fill="#66BA93"/>
<path d="M356.861 138.749H325.266L326.393 127.951H357.988L356.861 138.749Z" fill="#66BA93"/>
<path d="M317.225 138.749H285.633L286.76 127.951H318.355L317.225 138.749Z" fill="#66BA93"/>
<path d="M395.29 150.272H324.062L324.483 146.244H395.711L395.29 150.272Z" fill="#66BA93"/>
<path d="M394.514 157.687H346.52L346.941 153.655H394.935L394.514 157.687Z" fill="#46875C"/>
<path d="M270.663 118.041H252.829C252.234 118.052 251.644 117.935 251.099 117.696C250.553 117.458 250.066 117.104 249.669 116.659C249.273 116.215 248.977 115.69 248.801 115.12C248.626 114.55 248.575 113.949 248.652 113.358L249.805 102.337C249.959 101.063 250.567 99.8875 251.517 99.027C252.467 98.1664 253.694 97.6785 254.974 97.6528H272.808C273.403 97.6426 273.993 97.7609 274.537 97.9997C275.082 98.2386 275.569 98.5923 275.965 99.0369C276.361 99.4815 276.656 100.006 276.832 100.576C277.007 101.145 277.057 101.746 276.98 102.337L275.827 113.358C275.673 114.63 275.065 115.805 274.117 116.665C273.168 117.525 271.942 118.014 270.663 118.041V118.041Z" fill="#F9D039"/>
<path d="M249.637 103.938H276.81" stroke="white" stroke-width="4.07439" stroke-miterlimit="10"/>
<path d="M248.87 111.272H276.042" stroke="white" stroke-width="4.07439" stroke-miterlimit="10"/>
<path d="M259.562 117.394C259.4 117.397 259.239 117.366 259.09 117.303C258.941 117.239 258.806 117.145 258.696 117.026C258.588 116.902 258.508 116.756 258.46 116.598C258.413 116.441 258.399 116.275 258.42 116.111L260.141 99.6373C260.192 99.2559 260.375 98.9048 260.659 98.6455C260.942 98.3863 261.308 98.2357 261.692 98.2202H266.067C266.23 98.2163 266.391 98.247 266.54 98.3105C266.689 98.3739 266.823 98.4685 266.933 98.5881C267.041 98.7123 267.122 98.858 267.169 99.0156C267.217 99.1733 267.231 99.3392 267.21 99.5026L265.489 115.977C265.438 116.358 265.254 116.709 264.971 116.968C264.687 117.228 264.321 117.378 263.938 117.394H259.562Z" fill="#F9D039"/>
<path d="M266.075 98.8679C266.147 98.8654 266.218 98.8776 266.284 98.9039C266.35 98.9303 266.41 98.97 266.46 99.0207C266.508 99.0776 266.543 99.1441 266.562 99.2156C266.582 99.2871 266.586 99.362 266.574 99.4352L264.853 115.907C264.821 116.131 264.713 116.338 264.546 116.491C264.379 116.644 264.164 116.734 263.938 116.746H259.562C259.491 116.749 259.42 116.736 259.354 116.71C259.287 116.684 259.227 116.644 259.177 116.593C259.13 116.536 259.095 116.47 259.075 116.398C259.056 116.327 259.051 116.252 259.063 116.179L260.785 99.7047C260.817 99.4805 260.925 99.2745 261.092 99.1218C261.259 98.9692 261.474 98.8794 261.7 98.8679H266.075V98.8679ZM266.075 97.5725H261.7C261.154 97.5842 260.632 97.7927 260.228 98.1596C259.824 98.5266 259.565 99.0273 259.5 99.5699L257.779 116.044C257.745 116.296 257.766 116.553 257.841 116.797C257.916 117.04 258.042 117.264 258.212 117.454C258.381 117.644 258.59 117.795 258.823 117.896C259.056 117.997 259.308 118.047 259.562 118.041H263.938C264.483 118.029 265.005 117.821 265.409 117.454C265.813 117.087 266.072 116.586 266.137 116.044L267.859 99.5699C267.892 99.3175 267.871 99.0607 267.796 98.8173C267.722 98.5739 267.595 98.3496 267.426 98.1598C267.256 97.97 267.048 97.8193 266.815 97.7179C266.582 97.6165 266.329 97.5669 266.075 97.5725V97.5725Z" fill="white"/>
<path d="M395.683 102.679C402.725 95.9803 403.555 85.397 397.536 79.0401C391.518 72.6832 380.93 72.96 373.888 79.6582C366.846 86.3565 366.017 96.9397 372.035 103.297C378.053 109.653 388.641 109.377 395.683 102.679Z" fill="#7573B6"/>
<path d="M373.904 104.951C371.002 106.848 367.617 107.871 364.152 107.896C354.938 107.896 348.251 100.412 349.218 91.1762C350.185 81.9404 358.432 74.456 367.646 74.456C370.928 74.4219 374.133 75.4514 376.783 77.3912C372.095 80.3964 368.701 85.4456 368.104 91.1658C367.507 96.886 369.843 101.938 373.904 104.951Z" fill="#F05659"/>
<path opacity="0.6" d="M382.457 92.1967C383.549 84.6046 381.25 77.9901 377.322 77.4228C373.394 76.8555 369.325 82.5502 368.234 90.1422C367.142 97.7342 369.441 104.349 373.369 104.916C377.297 105.483 381.366 99.7887 382.457 92.1967Z" fill="#F05659"/>
<path d="M238.048 93.3031L239.371 80.6347C240.1 73.658 246.334 68 253.297 68H280.565C280.565 68 263.3 69.3705 257.208 72.158C249.712 75.5855 246.016 79.3627 240.968 87.6606L238.048 93.3031Z" fill="#8FE3BC"/>
<path d="M397.623 127.951H388.879C383.25 131.83 377.473 135.429 371.547 138.749H396.494L397.623 127.951Z" fill="#46875C"/>
<path d="M395.711 146.238H356.921C353.878 147.656 350.808 148.999 347.711 150.267H395.289L395.711 146.238Z" fill="#46875C"/>
</g>
<g clip-path="url(#clip13_320_23243)">
<path d="M616.048 390.339C615.77 387.141 615.364 383.967 615.303 380.741C615.105 370.448 616.904 360.444 619.443 350.531C621.152 343.854 623.215 337.267 624.675 330.527C624.934 329.33 624.877 328.06 625.469 326.939V321.275C624.885 320.279 624.849 319.064 624.092 318.115C622.862 316.569 621.296 315.507 619.549 314.674C615.084 312.55 610.286 311.636 605.448 310.898C599.082 309.925 592.686 309.515 586.268 309.245C585.992 309.234 585.627 309.425 585.447 309.009H578.622C578.438 309.286 578.15 309.245 577.882 309.245L567.098 309.267C566.831 309.267 566.536 309.316 566.39 309.005H562.382C562.281 309.323 562.01 309.224 561.795 309.229C553.56 309.413 545.336 309.878 537.122 310.454C529.615 310.983 522.111 311.58 514.644 312.557C513.21 312.76 511.8 313.108 510.435 313.595C505.701 315.235 503.346 318.743 502.577 323.534C501.851 328.075 502.139 332.622 502.473 337.166C502.912 343.116 503.565 349.054 503.888 355.008C504.242 361.546 502.914 367.892 501.059 374.125C497.461 386.261 491.845 397.49 485.479 408.361C482.926 412.725 480.163 416.957 477.364 421.165C477.432 421.261 477.523 421.337 477.629 421.387C477.736 421.436 477.853 421.456 477.97 421.446C480.799 421.682 483.628 421.979 486.481 422.116C490.81 422.328 495.136 422.588 499.465 422.824C502.858 423.006 506.255 423.166 509.648 423.284C514.691 423.461 519.736 423.723 524.775 423.756C535.002 423.796 545.232 424.056 555.462 423.61C558.702 423.468 561.939 423.346 565.176 423.138C569.731 422.85 574.26 422.392 578.778 421.722C585.021 420.799 590.974 419.052 596.489 415.923C603.335 412.103 608.908 406.351 612.511 399.383C614.023 396.483 615.065 393.426 616.048 390.339Z" fill="#AFADCB"/>
<path d="M585.447 309.019C585.626 309.427 585.992 309.236 586.268 309.255C592.685 309.519 599.091 309.93 605.448 310.907C610.286 311.648 615.083 312.559 619.549 314.683C621.296 315.516 622.85 316.571 624.092 318.124C624.849 319.068 624.884 320.288 625.469 321.284C625.469 317.475 625.445 313.664 625.49 309.854C625.49 309.146 625.346 309.007 624.644 309.009C611.581 309.03 598.515 309.033 585.447 309.019Z" fill="#FBFBFB"/>
<path d="M566.383 309.019C566.541 309.33 566.836 309.281 567.09 309.281L577.874 309.26C578.146 309.26 578.431 309.295 578.615 309.024L566.383 309.019Z" fill="#333133"/>
<path d="M616.048 390.339C615.065 393.426 614.023 396.476 612.511 399.374C608.911 406.345 603.34 412.102 596.493 415.925C590.978 419.055 585.025 420.801 578.782 421.724C574.265 422.392 569.736 422.85 565.181 423.14C561.944 423.346 558.706 423.468 555.467 423.612C545.237 424.058 535.007 423.799 524.779 423.759C519.741 423.737 514.696 423.475 509.652 423.287C506.26 423.169 502.862 423.008 499.47 422.826C495.141 422.59 490.815 422.335 486.486 422.118C483.657 421.981 480.813 421.675 477.975 421.448C477.858 421.459 477.74 421.438 477.634 421.389C477.528 421.34 477.436 421.263 477.369 421.167C476.989 421.559 476.499 421.434 476.044 421.436C466.094 421.436 456.145 421.474 446.195 421.417C442.961 421.398 440.445 422.468 439.068 425.51C437.821 428.271 438.651 431.762 441.008 434.124C442.753 435.875 444.894 436.694 447.343 436.706C451.337 436.727 455.334 436.73 459.328 436.739C459.618 436.64 459.918 436.573 460.224 436.539C462.635 436.522 465.05 436.539 467.464 436.539C467.737 436.539 468.016 436.517 468.211 436.775C470.098 436.758 471.984 436.727 473.856 436.727C483.109 436.727 492.364 436.727 501.622 436.727C502.094 436.727 502.565 436.784 503.037 436.812C503.322 436.43 503.744 436.55 504.112 436.548C506.25 436.548 508.389 436.548 510.527 436.548C510.911 436.548 511.312 436.482 511.64 436.772H532.359C532.461 436.716 532.562 436.612 532.666 436.609C535.346 436.6 538.026 436.6 540.706 436.609C540.797 436.609 540.887 436.739 540.979 436.81C541.33 436.784 541.686 436.739 542.031 436.737C551.049 436.657 560.069 436.923 569.083 436.539C570.733 436.468 572.357 436.27 573.994 436.13C574.576 436.083 575.173 435.975 575.738 436.163C575.894 435.892 576.158 435.88 576.432 435.828C578.928 435.356 581.42 434.884 583.912 434.412C586.617 433.98 589.177 433.064 591.721 432.099C597.641 429.857 602.979 426.695 607.367 422.062C612.153 417.006 614.968 410.995 616.09 404.125C616.798 399.751 616.682 395.392 616.276 391.005C616.226 390.775 616.149 390.552 616.048 390.339V390.339Z" fill="#8B89B1"/>
<path d="M504.915 441.544C505.609 444.244 506.759 446.782 507.723 449.382C510.553 457.02 513.441 464.634 516.305 472.257C519.059 479.587 521.775 486.934 524.6 494.237C525.161 495.686 524.807 497.033 524.654 498.397C524.1 503.354 523.445 508.31 522.81 513.266C522.388 516.556 521.957 519.846 521.488 523.129C521.398 523.771 521.565 524.019 522.195 523.976C522.391 523.965 522.589 523.976 522.784 523.976C525.944 523.976 525.871 523.976 526.37 520.795C527.113 516.094 527.967 511.409 528.782 506.717C528.799 506.618 528.917 506.54 529.091 506.318C529.714 507.97 530.294 509.535 530.883 511.092C532.392 515.083 533.929 519.065 535.396 523.075C535.669 523.821 536.063 524.019 536.78 523.986C537.565 523.943 538.352 523.943 539.137 523.986C539.927 524.028 540.08 523.769 539.816 523.023C538.644 519.576 537.496 516.118 536.374 512.65C534.589 507.177 532.852 501.69 531.032 496.228C530.529 494.716 531.147 493.349 531.381 491.961C533.118 481.607 534.938 471.268 536.751 460.926C537.803 454.929 538.895 448.939 539.953 442.944C540.008 442.474 540.036 442.001 540.036 441.528L531.805 441.441L526.691 482.075C526.397 481.784 526.187 481.42 526.08 481.02C523.03 471.712 520.014 462.394 516.918 453.102C515.631 449.238 514.561 445.314 513.066 441.511L504.915 441.544Z" fill="#46437B"/>
<path d="M577.893 441.552C578.155 443.232 578.94 444.74 579.525 446.307C582.373 453.978 585.27 461.631 588.152 469.29C591.514 478.23 594.876 487.171 598.238 496.113C601.089 503.698 603.937 511.285 606.782 518.874C607.317 520.304 607.85 521.734 608.362 523.174C608.576 523.783 608.956 524.024 609.602 523.988C610.424 523.936 611.248 523.936 612.07 523.988C612.898 524.05 612.978 523.752 612.745 523.044C611.766 520.108 610.833 517.16 609.871 514.22C606.518 503.992 603.163 493.759 599.806 483.519C597.002 474.96 594.201 466.4 591.405 457.839C589.62 452.366 587.869 446.883 586.098 441.405C585.671 441.436 585.242 441.485 584.815 441.49C582.507 441.518 580.201 441.533 577.893 441.552Z" fill="#46437B"/>
<path d="M458.839 441.422C458.368 445.14 457.896 448.857 457.425 452.573C456.932 456.524 456.463 460.477 455.965 464.426C455.442 468.57 454.888 472.707 454.371 476.849C453.94 480.298 453.565 483.753 453.131 487.199C452.629 491.187 452.077 495.169 451.571 499.155C451.137 502.561 450.741 505.973 450.316 509.381C449.882 512.867 449.43 516.351 448.994 519.834C448.843 521.036 448.739 522.244 448.567 523.441C448.496 523.913 448.732 523.974 449.083 523.976C450.142 523.976 451.205 523.962 452.259 523.976C452.804 523.976 452.855 523.658 452.931 523.228C453.615 519.266 454.327 515.31 455.025 511.352C456.505 502.974 457.982 494.595 459.455 486.217C461.218 476.068 462.944 465.908 464.705 455.755C465.533 450.987 466.403 446.229 467.251 441.464L458.839 441.422Z" fill="#46437B"/>
<path d="M577.893 441.552C580.202 441.533 582.507 441.518 584.816 441.493C585.242 441.493 585.671 441.438 586.098 441.408C585.367 439.071 584.422 436.801 583.903 434.396C581.411 434.868 578.919 435.34 576.422 435.812C576.149 435.864 575.885 435.875 575.729 436.147C576.396 437.974 576.887 439.866 577.893 441.552Z" fill="#686596"/>
<path d="M458.84 441.422L467.254 441.469C467.569 439.903 467.888 438.338 468.211 436.772C468.016 436.52 467.74 436.536 467.464 436.536C465.05 436.536 462.635 436.536 460.224 436.536C459.919 436.57 459.618 436.638 459.328 436.737L458.84 441.422Z" fill="#686596"/>
<path d="M531.8 441.448L540.031 441.535C540.623 440.013 540.67 438.38 540.974 436.798C540.882 436.727 540.793 436.598 540.701 436.598C538.021 436.588 535.341 436.588 532.661 436.598C532.557 436.598 532.456 436.704 532.354 436.76C532.167 438.324 531.983 439.887 531.8 441.448Z" fill="#686596"/>
<path d="M504.916 441.544L513.062 441.518C512.59 439.936 512.113 438.351 511.63 436.765C511.303 436.475 510.902 436.541 510.518 436.541C508.379 436.541 506.241 436.541 504.102 436.541C503.73 436.541 503.313 436.423 503.027 436.805C503.619 438.403 504.039 440.065 504.916 441.544Z" fill="#686596"/>
</g>
<g clip-path="url(#clip14_320_23243)">
<path d="M173.74 194.52L121.812 222.815L52.2148 477.609C52.2148 477.609 53.5543 501.606 55.2929 499.661C65.5826 488.255 104.595 449.571 107.824 437.192C112.046 420.958 107.212 401.054 121.032 382.371C146.836 354.81 176.028 307.646 196.608 276.106C216.939 255.08 207.075 204.795 173.74 194.52Z" fill="#46437B"/>
<path d="M110.316 263.214L52.2148 477.609L54.3704 478.493C67.7736 443.726 75.278 418.65 79.7132 401.664C83.0219 389.02 84.8314 380.08 90.4642 366.296C97.1879 349.823 101.259 346.268 104.293 332.492C106.901 320.617 104.719 319.432 107.974 304.931C112.427 285.169 110.316 263.214 110.316 263.214Z" fill="#686596"/>
<path d="M65.4493 488.874C62.4245 480.5 56.1265 478.122 52.1436 477.467C41.7564 505.285 31.378 532.969 26.6057 545.737C26.3822 546.205 26.3314 546.737 26.4623 547.238C26.5931 547.74 26.8973 548.179 27.3212 548.479C27.7451 548.779 28.2615 548.92 28.7797 548.878C29.2978 548.836 29.7844 548.613 30.1538 548.248C39.0243 541.272 54.4677 528.433 56.1619 522.102C58.5836 513.145 52.4452 513.013 59.0626 500.298C60.6238 497.247 65.5202 488.98 65.4493 488.874Z" fill="url(#paint0_linear_320_23243)"/>
<path d="M54.9733 478.148C54.0839 477.772 53.1412 477.537 52.1791 477.45C41.7652 505.285 31.3779 532.969 26.6145 545.737C26.3041 546.622 27.2975 547.417 26.8363 547.93C25.1775 549.778 53.1016 481.641 54.9733 478.148Z" fill="#FFF6AC"/>
<path d="M56.1794 507.619C51.2209 507.928 47.0606 515.144 45.943 521.36C44.8253 527.576 40.4877 533.526 36.2476 534.119C34.2695 534.393 32.9123 532.872 32.043 531.192L26.632 545.702C26.4085 546.17 26.3577 546.701 26.4886 547.203C26.6195 547.704 26.9236 548.144 27.3475 548.444C27.7714 548.744 28.2879 548.885 28.806 548.843C29.3242 548.801 29.8108 548.578 30.1802 548.213C39.095 541.237 54.5029 528.398 56.1972 522.067C57.9535 515.303 54.8755 513.632 56.1794 507.619Z" fill="#333133"/>
<path d="M120.26 239.12C119.045 243.267 116.375 252.454 112.108 254.717C111.86 254.85 107.788 248.802 107.548 248.775C106.938 248.783 106.333 248.66 105.774 248.413C105.118 247.935 104.062 249.394 103.716 248.413C102.67 245.406 107.14 237.519 109.296 234.416C111.673 230.994 113.793 220.268 118.326 218.862C120.703 221.842 121.404 235.273 120.26 239.12Z" fill="#333133"/>
<path d="M137.042 245.079C137.042 245.079 138.816 251.852 140.75 254.116C142.684 256.379 141.203 259.182 138.266 258.042C136.55 257.369 135.125 256.117 134.239 254.505L137.042 245.079Z" fill="url(#paint1_linear_320_23243)"/>
<path d="M132.731 234.407C124.917 224.68 111.442 212.726 111.442 212.726C105.987 218.739 103.459 232.32 103.459 232.311C117.598 239.252 122.087 242.798 123.48 244.478C118.752 249.712 122.193 256.247 122.193 256.247V259.943C117.989 259.412 114.414 260.571 113.225 262.967C112.943 263.555 112.794 264.198 112.791 264.85L121.067 263.639C119.294 264.574 117.581 265.62 115.94 266.769C112.773 269.147 113.598 271.659 113.598 271.659L118.548 269.687C116.25 272.746 118.361 273.993 118.361 273.993C118.361 273.993 127.045 267.892 127.143 267.653C127.924 267.229 128.669 266.769 129.37 266.38C131.942 264.839 133.929 262.491 135.02 259.704C138.355 250.933 140.635 238.96 132.731 234.407Z" fill="url(#paint2_linear_320_23243)"/>
<path d="M123.976 110.635C120.863 110.723 128.101 110.547 121.626 110.635C119.266 110.635 101.783 114.243 97.4361 118.708C97.1079 119.053 95.7773 119.592 94.8371 120.229C85.6207 126.277 77.0518 137.365 71.0022 145.995C65.538 153.793 58.1401 163.59 54.1484 169.152C48.1076 178.18 46.5908 189.418 47.3802 199.887C47.939 208.081 50.2344 216.063 54.1151 223.307C57.9958 230.551 63.3735 236.893 69.8934 241.914C81.8241 250.959 95.254 253.815 112.108 254.717C111.54 248.757 110.626 245.327 111.673 237.21C112.471 231.091 113.9 222.001 118.353 218.853C110.981 209.667 90.3575 192.053 90.9341 187.632C91.2711 185.209 96.8152 183.609 98.9175 181.522C99.9109 180.558 103.495 177.251 104.532 175.651C102.173 195.705 106.023 205.714 121.998 222.832C147.616 220.374 164.78 209.569 189.316 201.877C187.764 239.093 203.509 286.628 246.415 281.632C250.593 273.409 254.514 265.045 258.701 256.821C246.397 239.951 233.269 224.344 220.939 207.491C218.509 183.892 210.295 135.976 188.456 123.421C166.643 112.925 147.048 113.323 123.976 110.635Z" fill="url(#paint3_linear_320_23243)"/>
<path d="M107.903 203.848C110.671 209.667 119.887 220.648 122.043 222.832C125.56 222.619 129.053 222.107 132.483 221.303C102.377 203.274 104.55 175.651 104.55 175.651C104.55 175.651 101.791 190.974 107.903 203.848Z" fill="#25215E"/>
<path d="M73.5035 142.263C71.0109 145.8 53.9885 168.453 51.9927 172.273C45.2334 185.13 47.3889 196.448 47.3889 199.834C47.3889 206.572 51.3806 217.288 51.3806 217.288C51.3806 217.288 48.001 201.054 50.1565 186.049C52.1701 171.99 62.034 163.343 62.7525 162.476C66.3716 157.976 70.3012 152.617 73.2728 149.92C73.9606 149.504 74.5626 148.961 75.0469 148.32C75.7717 147.146 76.1212 145.78 76.0493 144.403C76.2622 140.459 81.6997 138.125 87.1018 133.386C90.7742 130.158 91.2532 127.727 93.5595 124.544C97.0367 119.68 108.151 113.447 123.275 110.768C123.275 110.768 119.319 110.29 111.291 112.607C97.4536 116.621 88.8582 121.166 73.5035 142.263Z" fill="#9E9CD2"/>
<path d="M203.012 495.682C210.694 483.736 216.531 384.829 226.359 318.681C238.645 235.919 186.726 210.896 186.726 210.896L145.212 262.339C145.212 262.339 144.858 292.526 162.457 324.234C189.183 372.308 172.631 368.966 170.75 413.955C170.192 428.615 186.158 478.263 190.762 494.453C191.88 498.414 195.623 507.221 203.012 495.682Z" fill="#46437B"/>
<path d="M256.856 270.951C253.148 278.131 246.362 282.243 246.362 281.632C246.362 280.067 246.592 274.771 250.3 267.582C254.008 260.394 256.98 257.741 258.825 256.821C259.018 257.242 259.161 257.685 259.251 258.139C259.783 260.456 259.703 265.451 256.856 270.951Z" fill="#333133"/>
<path d="M263.331 263.152L285.596 266.247C285.596 266.247 286.11 268.148 283.538 268.493L293.446 273.285C293.446 273.285 293.322 275.735 289.534 275.116L293.588 278.573C293.588 278.573 291.743 280.474 288.159 278.776C284.575 277.079 277 271.552 277 271.552L279.457 275.761C278.566 276.28 277.506 276.432 276.504 276.184C275.502 275.937 274.636 275.309 274.091 274.435C271.838 271.243 269.354 269.934 267.216 270.854C265.921 271.411 263.02 273.692 259.383 273.25C257.388 273.02 255.835 271.862 254.008 270.527C252.721 269.573 251.554 268.468 250.531 267.237C251.571 265.08 252.818 263.027 254.256 261.11C254.992 260.122 255.814 259.202 256.713 258.36C257.385 257.719 258.102 257.128 258.86 256.592C259.715 259.147 261.262 261.418 263.331 263.152V263.152Z" fill="url(#paint4_linear_320_23243)"/>
<path d="M207.208 480.916L184.304 471.455C188.305 485.841 190.647 499.29 188.739 504.524C185.36 513.711 184.127 518.3 186.584 522.288H225.614C225.614 522.288 225.614 517.23 219.316 516.16C213.018 515.09 202.568 513.711 205.185 495.028C205.611 491.942 206.347 487.043 207.208 480.916Z" fill="url(#paint5_linear_320_23243)"/>
<path d="M219.307 516.161C214.206 515.276 206.409 514.233 204.99 503.976C199.712 505.63 201.646 514.755 201.646 514.755C195.836 509.547 191.001 508.415 187.453 508.238C185.12 515.029 184.499 518.919 186.619 522.324H225.578C225.578 522.324 225.578 517.239 219.307 516.161Z" fill="#333133"/>
<path d="M121.022 382.379C116.64 385.527 107.938 400.249 106.892 405.369C102.111 428.738 110.848 432.726 65.6265 488.485C81.9392 471.402 106.98 445.574 107.814 437.2C112.116 424.636 110.759 394.705 121.022 382.379Z" fill="#333133"/>
<path d="M132.563 110.874C133.006 100.882 135.286 93.7554 137.495 87.0531C135.277 81.3764 133.503 79.8467 134.621 72.5608C136.173 62.4455 148.601 59.3861 157.028 64.2758C162.678 67.5474 168.444 71.712 171.158 77.6185C169.961 78.5027 168.834 79.4665 167.699 80.4038C169.402 86.3722 170.36 91.6952 163.547 94.5512C160.93 95.6476 157.019 95.179 154.118 95.1878C152.912 98.6362 154.615 106.877 155.298 111.298C161.028 114.835 163.973 114.835 169.863 116.763C163.849 126.798 152.583 128.408 140.413 126.542C127.613 124.579 125.342 121.042 119.798 110.874C124.032 110.28 128.329 110.28 132.563 110.874V110.874Z" fill="url(#paint6_linear_320_23243)"/>
<path d="M140.319 71.1189C142.686 59.29 134.977 47.7866 123.1 45.4253C111.224 43.0641 99.6775 50.7391 97.3106 62.568C94.9437 74.3969 102.653 85.9003 114.529 88.2616C126.405 90.6228 137.952 82.9478 140.319 71.1189Z" fill="#333133"/>
<path d="M165.658 76.6636C160.576 71.8358 156.451 73.6042 151.599 77.6274C156.779 82.2341 160.984 81.2526 165.658 76.6636Z" fill="white"/>
<path d="M161.818 69.7579C162.22 70.2293 162.596 70.7222 162.944 71.2345C163.005 71.3208 163.032 71.4265 163.018 71.5311C163.005 71.6357 162.954 71.7317 162.873 71.8004C162.838 71.8408 162.791 71.8699 162.739 71.8841C162.687 71.8982 162.632 71.8968 162.581 71.88C159.172 71.2884 155.668 72.057 152.823 74.0198C152.756 74.0759 152.671 74.1067 152.584 74.1067C152.496 74.1067 152.411 74.0759 152.344 74.0198V74.0198C152.258 73.9605 152.198 73.872 152.173 73.7709C152.149 73.6698 152.162 73.5633 152.211 73.4716V73.4716C154.313 70.5006 157.134 69.5722 160.505 69.1743C160.753 69.1749 160.997 69.2271 161.223 69.3276C161.449 69.4281 161.652 69.5747 161.818 69.7579V69.7579Z" fill="#333133"/>
<path d="M158.828 73.7811C161.099 73.2859 163.867 74.6653 165.756 76.6017C164.259 78.6492 162.041 80.0577 159.547 80.5453C158.669 79.6697 158.119 78.5207 157.988 77.2898C157.857 76.0588 158.154 74.8204 158.828 73.7811V73.7811Z" fill="#333133"/>
<path d="M138.329 63.8691C136.25 64.6394 133.972 64.6845 131.864 63.9972C129.757 63.3098 127.946 61.9306 126.726 60.0846C122.114 53.4265 119.94 53.3823 118.947 52.6131C116.224 50.4998 128.199 52.2505 131.428 56.3356C133.55 59.0033 135.856 61.5205 138.329 63.8691V63.8691Z" fill="#FFC8AF"/>
<path d="M139.145 63.1794C139.145 63.1794 144.795 60.8185 142.347 55.1419C139.899 49.4653 140.919 48.2716 140.919 47.3608C140.786 44.8851 135.934 52.1267 137.229 55.8316C138.068 58.2246 138.708 60.6821 139.145 63.1794V63.1794Z" fill="#FFC8AF"/>
<path d="M133.822 58.2632L135.889 63.5684C135.966 63.7725 136.112 63.9438 136.301 64.0534C136.49 64.1629 136.711 64.204 136.927 64.1697L139.482 63.6126C139.653 63.5687 139.799 63.4599 139.89 63.3095C139.982 63.1591 140.01 62.9791 139.97 62.808C139.975 62.7669 139.975 62.7253 139.97 62.6842L137.903 57.3789C137.824 57.1759 137.679 57.0055 137.49 56.8962C137.301 56.7869 137.081 56.745 136.865 56.7777L134.31 57.3347C134.225 57.3554 134.145 57.3927 134.074 57.4444C134.004 57.4961 133.944 57.5612 133.899 57.636C133.853 57.7107 133.823 57.7937 133.81 57.8801C133.797 57.9665 133.801 58.0546 133.822 58.1394C133.817 58.1805 133.817 58.222 133.822 58.2632Z" fill="#FF8658"/>
<path d="M131.401 68.3166C133.707 59.563 144.183 61.1103 151.457 66.3891C151.405 66.4736 151.343 66.5509 151.271 66.619C148.548 69.0594 147.944 70.9693 146.907 74.4707C145.807 78.1137 144.973 71.2522 143.509 71.0046C141.806 69.3069 141.46 74.6387 140.431 76.0004C139.402 77.3621 140.05 79.8467 140.768 80.7752C141.966 82.3048 141.655 82.8 140.768 84.5154C139.788 84.432 138.803 84.432 137.823 84.5154C135.801 79.0421 128.181 77.6008 130.842 70.0674C131.063 69.4953 131.25 68.9107 131.401 68.3166V68.3166Z" fill="#FF8658"/>
<path d="M134.018 69.1301C136.271 60.6063 150.029 59.2004 157.081 64.3377C157.037 64.4273 156.973 64.5059 156.895 64.5676C154.18 66.8434 152.15 69.8244 151.031 73.1798C149.967 76.7166 148.539 77.1764 147.111 76.9377C145.452 75.2754 143.784 75.2754 142.791 76.6017C141.797 77.928 142.418 80.3419 143.119 81.2438C144.29 82.7381 144.006 83.2156 143.119 84.8867C143.119 84.8867 137.575 86.7171 137.469 86.8762C135.499 81.5709 130.86 78.1933 133.486 70.8632C133.699 70.3061 133.867 69.7048 134.018 69.1301Z" fill="#333133"/>
<path d="M166.962 85.0901L159.733 86.7436C159.733 86.7436 160.868 90.6606 163.45 89.9621C166.031 89.2636 166.962 85.0901 166.962 85.0901Z" fill="#E53E41"/>
<path d="M171.708 287.751C172.666 288.574 169.251 310.741 157.303 335.773C158.19 334.606 163.849 326.046 163.725 326.4C163.725 326.4 172.941 342.563 175.895 354.076C178.61 364.686 177.563 367.675 176.365 376.871C176.365 376.871 169.269 404.432 170.804 416.987C173.381 435.577 177.912 453.845 184.322 471.49L183.763 469.722C176.583 446.137 174.082 421.383 176.401 396.845C177.448 385.571 179.621 375.562 180.064 367.392C180.461 361.038 180.046 354.659 178.831 348.408C177.607 342.59 176.685 338.912 172.995 327.585C168.95 315.312 174.165 294.798 171.708 287.751Z" fill="#333133"/>
<path d="M226.075 270.606C229.268 255.212 226.492 245.336 223.174 239.067C215.333 224.212 201.344 223.575 198.603 209.976C196.705 200.577 201.078 197.385 200.448 184.864C200.002 177.393 197.909 170.111 194.319 163.537C194.161 163.242 193.901 163.013 193.587 162.894C193.273 162.774 192.926 162.772 192.611 162.887C192.295 163.002 192.032 163.227 191.87 163.521C191.708 163.814 191.658 164.156 191.729 164.483C194.53 177.302 192.722 190.695 186.619 202.319C187.313 205.746 188.237 209.122 189.387 212.425C196.04 217.817 202.02 223.986 207.199 230.799C216.158 242.64 222.582 256.189 226.075 270.606V270.606Z" fill="#25215E"/>
<path d="M98.3853 182.106C97.7998 182.557 92.9477 185.192 92.3534 185.643C91.717 186.022 91.2408 186.619 91.0139 187.323C90.7035 188.207 91.3155 189.162 91.901 190.382C88.2464 186.571 86.9779 185.793 81.1411 182.424C79.9703 181.743 78.9856 177.614 81.7621 178.136C101.419 181.814 104.541 175.66 104.541 175.66C102.834 178.111 100.757 180.285 98.3853 182.106V182.106Z" fill="#25215E"/>
<path d="M153.746 100.104L147.199 93.6316C149.4 94.5308 151.742 95.0395 154.118 95.1347C154.056 95.5415 154.003 95.9571 153.958 96.3903C153.815 97.623 153.744 98.863 153.746 100.104V100.104Z" fill="#333133"/>
</g>
</g>
<defs>
<filter id="filter0_ddd_320_23243" x="112.478" y="-12.0012" width="612.024" height="372.002" filterUnits="userSpaceOnUse" color-interpolation-filters="sRGB">
<feFlood flood-opacity="0" result="BackgroundImageFix"/>
<feColorMatrix in="SourceAlpha" type="matrix" values="0 0 0 0 0 0 0 0 0 0 0 0 0 0 0 0 0 0 127 0" result="hardAlpha"/>
<feOffset dx="-4" dy="6"/>
<feGaussianBlur stdDeviation="8"/>
<feComposite in2="hardAlpha" operator="out"/>
<feColorMatrix type="matrix" values="0 0 0 0 0.619608 0 0 0 0 0.611765 0 0 0 0 0.823529 0 0 0 0.05 0"/>
<feBlend mode="normal" in2="BackgroundImageFix" result="effect1_dropShadow_320_23243"/>
<feColorMatrix in="SourceAlpha" type="matrix" values="0 0 0 0 0 0 0 0 0 0 0 0 0 0 0 0 0 0 127 0" result="hardAlpha"/>
<feOffset dx="9" dy="6"/>
<feGaussianBlur stdDeviation="10"/>
<feComposite in2="hardAlpha" operator="out"/>
<feColorMatrix type="matrix" values="0 0 0 0 0.458824 0 0 0 0 0.45098 0 0 0 0 0.713726 0 0 0 0.09 0"/>
<feBlend mode="normal" in2="effect1_dropShadow_320_23243" result="effect2_dropShadow_320_23243"/>
<feColorMatrix in="SourceAlpha" type="matrix" values="0 0 0 0 0 0 0 0 0 0 0 0 0 0 0 0 0 0 127 0" result="hardAlpha"/>
<feOffset dx="-3" dy="8"/>
<feGaussianBlur stdDeviation="6.5"/>
<feComposite in2="hardAlpha" operator="out"/>
<feColorMatrix type="matrix" values="0 0 0 0 0.458824 0 0 0 0 0.45098 0 0 0 0 0.713726 0 0 0 0.1 0"/>
<feBlend mode="normal" in2="effect2_dropShadow_320_23243" result="effect3_dropShadow_320_23243"/>
<feBlend mode="normal" in="SourceGraphic" in2="effect3_dropShadow_320_23243" result="shape"/>
</filter>
<filter id="filter1_d_320_23243" x="223.49" y="62" width="198" height="116" filterUnits="userSpaceOnUse" color-interpolation-filters="sRGB">
<feFlood flood-opacity="0" result="BackgroundImageFix"/>
<feColorMatrix in="SourceAlpha" type="matrix" values="0 0 0 0 0 0 0 0 0 0 0 0 0 0 0 0 0 0 127 0" result="hardAlpha"/>
<feMorphology radius="1" operator="dilate" in="SourceAlpha" result="effect1_dropShadow_320_23243"/>
<feOffset dy="2"/>
<feGaussianBlur stdDeviation="3.5"/>
<feComposite in2="hardAlpha" operator="out"/>
<feColorMatrix type="matrix" values="0 0 0 0 0.2 0 0 0 0 0.192157 0 0 0 0 0.2 0 0 0 0.07 0"/>
<feBlend mode="normal" in2="BackgroundImageFix" result="effect1_dropShadow_320_23243"/>
<feBlend mode="normal" in="SourceGraphic" in2="effect1_dropShadow_320_23243" result="shape"/>
</filter>
<linearGradient id="paint0_linear_320_23243" x1="19.4599" y1="518.124" x2="65.4805" y2="506.959" gradientUnits="userSpaceOnUse">
<stop offset="0.132544" stop-color="#FF8658"/>
<stop offset="0.269314" stop-color="#FF9A72"/>
<stop offset="1" stop-color="#FFE76C"/>
</linearGradient>
<linearGradient id="paint1_linear_320_23243" x1="109.305" y1="216.017" x2="179.308" y2="274.219" gradientUnits="userSpaceOnUse">
<stop stop-color="#FF8658"/>
<stop offset="0.295874" stop-color="#FF9A72"/>
<stop offset="0.885417" stop-color="#FFE76C"/>
</linearGradient>
<linearGradient id="paint2_linear_320_23243" x1="70.0893" y1="195.099" x2="141.755" y2="270.225" gradientUnits="userSpaceOnUse">
<stop stop-color="#FF8658"/>
<stop offset="0.415272" stop-color="#F7926A"/>
<stop offset="1" stop-color="#FFE76C"/>
</linearGradient>
<linearGradient id="paint3_linear_320_23243" x1="152.956" y1="281.995" x2="152.956" y2="110.626" gradientUnits="userSpaceOnUse">
<stop stop-color="#EAE9F7"/>
<stop offset="0.510417" stop-color="#8B89C2"/>
<stop offset="1" stop-color="#686596"/>
</linearGradient>
<linearGradient id="paint4_linear_320_23243" x1="274.99" y1="282" x2="281.602" y2="263.203" gradientUnits="userSpaceOnUse">
<stop stop-color="#FF8658"/>
<stop offset="0.333199" stop-color="#FF9A72"/>
<stop offset="0.77" stop-color="#FFE76C"/>
</linearGradient>
<linearGradient id="paint5_linear_320_23243" x1="174.49" y1="497" x2="225.578" y2="496.902" gradientUnits="userSpaceOnUse">
<stop stop-color="#FF8658"/>
<stop offset="0.18" stop-color="#FF9A72"/>
<stop offset="0.77" stop-color="#FFE76C"/>
</linearGradient>
<linearGradient id="paint6_linear_320_23243" x1="101.99" y1="152.5" x2="169.225" y2="56.8139" gradientUnits="userSpaceOnUse">
<stop stop-color="#FF8658"/>
<stop offset="0.341103" stop-color="#FF9A72"/>
<stop offset="1" stop-color="#FFE76C"/>
</linearGradient>
<clipPath id="clip0_320_23243">
<rect width="695.245" height="564" fill="white" transform="translate(0.245117 2)"/>
</clipPath>
<clipPath id="clip1_320_23243">
<rect width="349" height="173" fill="white" transform="translate(209.49 140)"/>
</clipPath>
<clipPath id="clip2_320_23243">
<rect width="645" height="43" fill="white" transform="translate(19.4902 523)"/>
</clipPath>
<clipPath id="clip3_320_23243">
<rect width="139" height="132" fill="white" transform="translate(274.49 366)"/>
</clipPath>
<clipPath id="clip4_320_23243">
<rect width="59" height="50" fill="white" transform="translate(326.49 476)"/>
</clipPath>
<clipPath id="clip5_320_23243">
<rect width="21" height="16" fill="white" transform="translate(293.49 447)"/>
</clipPath>
<clipPath id="clip6_320_23243">
<rect width="23" height="17" fill="white" transform="matrix(0.351009 0.936372 -0.936373 0.351006 313.49 433)"/>
</clipPath>
<clipPath id="clip7_320_23243">
<rect width="23" height="17" fill="white" transform="matrix(0.35101 0.936372 -0.936373 0.351006 384.49 427)"/>
</clipPath>
<clipPath id="clip8_320_23243">
<rect width="23" height="17" fill="white" transform="matrix(-0.847768 -0.530367 0.530365 -0.847769 337.49 431)"/>
</clipPath>
<clipPath id="clip9_320_23243">
<rect width="23" height="17" fill="white" transform="matrix(-0.814728 0.579843 -0.579841 -0.814729 351.49 407)"/>
</clipPath>
<clipPath id="clip10_320_23243">
<rect width="349" height="173" fill="white" transform="translate(189.49 140)"/>
</clipPath>
<clipPath id="clip11_320_23243">
<rect width="375" height="166" fill="white" transform="translate(231.49 112)"/>
</clipPath>
<clipPath id="clip12_320_23243">
<rect width="104" height="56" fill="white" transform="matrix(-1 0 0 1 567.49 245)"/>
</clipPath>
<clipPath id="clip13_320_23243">
<rect width="187" height="215" fill="white" transform="matrix(-1 0 0 1 625.49 309)"/>
</clipPath>
<clipPath id="clip14_320_23243">
<rect width="267" height="504" fill="white" transform="translate(26.4902 45)"/>
</clipPath>
</defs>
</svg>
