<svg width="507" height="371" viewBox="0 0 507 371" fill="none" xmlns="http://www.w3.org/2000/svg">
<path d="M343.337 369.522L365.941 369.59C370.41 369.332 374.875 369.05 379.345 368.821C392.496 368.196 405.572 366.588 418.447 364.014C433.714 360.881 448.394 356.284 461.676 348.399C471.809 342.387 480.581 335.043 486.757 325.302C495.493 311.514 496.12 296.743 492.74 281.485C490.321 270.544 486.032 260.184 482.012 249.731C479.359 242.839 477.616 235.799 479.376 228.551C480.693 223.108 482.468 217.77 484.684 212.587C488.821 202.969 493.574 193.58 497.811 184.003C506.271 164.841 508.247 145.125 503.527 124.793C498.682 103.873 489.707 84.7762 476.057 67.5116C459.905 47.0887 441.101 29.3955 417.314 16.6847C400.645 7.76557 382.817 2.16376 363.494 1.21465C342.041 0.15789 322.026 4.90064 304.067 15.7768C290.188 24.1788 276.868 33.3842 263.435 42.4071C248.36 52.5387 233.475 62.8977 217.318 71.56C204.961 78.1887 191.948 82.094 177.564 80.5847C165.496 79.3334 153.456 77.8231 141.428 76.2399C126.22 74.23 111.011 72.5886 95.5973 73.8665C81.6141 75.0393 68.5016 78.6649 56.6738 85.854C41.079 95.328 30.6542 108.649 23.9814 124.633C14.6946 146.879 13.5298 169.91 17.0501 193.276C18.6056 203.607 20.8395 213.847 22.5168 224.163C24.049 233.579 22.7915 242.659 18.0883 251.283C15.3083 256.377 12.6672 261.557 10.317 266.835C4.5882 279.688 0.675228 292.939 1.24136 307.038C1.6453 317.252 4.77722 326.653 11.2812 334.975C18.8461 344.648 29.1554 350.956 40.7782 355.575C53.7382 360.721 67.3708 363.35 81.3161 364.647C92.5561 365.74 103.884 365.795 115.135 364.814C126.079 363.839 137.027 362.855 147.988 362.078C161.623 361.111 175.266 360.216 188.922 359.532C205.921 358.685 222.957 358.59 239.909 360.091C256.106 361.513 272.209 363.784 288.387 365.404C301.402 366.707 314.462 367.633 327.5 368.644C332.802 369.037 338.074 369.231 343.337 369.522Z" fill="#EAE9F7"/>
<path d="M478.065 334.247H12.7891V368.5H478.065V334.247Z" fill="#D1D3D4"/>
<path d="M20.1582 341.721V359.574C20.1611 359.977 20.3254 360.363 20.6157 360.648C20.906 360.933 21.2989 361.094 21.7094 361.097C22.008 361.088 22.2995 361.006 22.5578 360.859L50.6741 343.03C50.8455 342.923 50.9936 342.784 51.1097 342.621C51.2258 342.457 51.3077 342.272 51.3506 342.078C51.3934 341.883 51.3964 341.681 51.3593 341.485C51.3222 341.289 51.2459 341.102 51.1346 340.936C50.9916 340.723 50.7971 340.549 50.5687 340.429C50.3403 340.308 50.085 340.245 49.8257 340.245H21.7094C21.5082 340.239 21.3077 340.273 21.12 340.345C20.9322 340.416 20.7609 340.524 20.6163 340.661C20.4717 340.799 20.3566 340.964 20.2779 341.146C20.1992 341.328 20.1585 341.523 20.1582 341.721V341.721Z" fill="#F3F3F7"/>
<path d="M30.7504 359.526C30.4501 359.692 30.2151 359.952 30.0829 360.265C29.9506 360.577 29.9288 360.924 30.0209 361.25C30.113 361.576 30.3136 361.863 30.5908 362.064C30.868 362.265 31.2058 362.368 31.5502 362.359H76.1C76.3039 362.359 76.5059 362.321 76.6944 362.244C76.8829 362.168 77.0542 362.056 77.1983 361.914C77.3425 361.772 77.4567 361.604 77.5345 361.419C77.6122 361.234 77.6519 361.036 77.6512 360.835C77.6538 360.559 77.5783 360.287 77.4331 360.05L66.1623 341.483C65.9571 341.142 65.6238 340.893 65.234 340.791C64.8442 340.689 64.4291 340.741 64.0779 340.936L30.7504 359.526Z" fill="#F3F3F7"/>
<path d="M72.4877 342.507L77.8443 351.6C78.051 351.946 78.3887 352.198 78.7838 352.3C79.1788 352.403 79.5992 352.348 79.953 352.147C80.0514 352.097 80.1413 352.033 80.2197 351.957L90.3512 342.864C90.5015 342.73 90.6234 342.568 90.7097 342.387C90.796 342.207 90.845 342.011 90.854 341.812C90.8631 341.613 90.8318 341.414 90.7622 341.227C90.6925 341.04 90.5858 340.868 90.4482 340.721C90.3035 340.566 90.1277 340.441 89.9317 340.355C89.7357 340.269 89.5237 340.223 89.309 340.221H73.8208C73.6169 340.221 73.4149 340.26 73.2264 340.336C73.0379 340.412 72.8666 340.525 72.7225 340.666C72.5783 340.808 72.464 340.976 72.3863 341.161C72.3086 341.346 72.2689 341.545 72.2695 341.745C72.2703 342.014 72.3457 342.277 72.4877 342.507V342.507Z" fill="#F3F3F7"/>
<path d="M81.3826 357.812L83.3944 361.549C83.5248 361.792 83.7199 361.996 83.959 362.139C84.1981 362.281 84.4721 362.357 84.7517 362.359H116.843C117.047 362.359 117.249 362.32 117.438 362.244C117.626 362.168 117.797 362.055 117.941 361.914C118.086 361.772 118.2 361.604 118.278 361.419C118.355 361.234 118.395 361.035 118.394 360.835C118.389 360.639 118.348 360.446 118.273 360.264L110.468 341.174C110.353 340.894 110.155 340.654 109.901 340.484C109.646 340.315 109.346 340.223 109.038 340.221H98.9068C98.7088 340.218 98.5122 340.255 98.3289 340.328C98.1456 340.402 97.9794 340.511 97.8404 340.65L81.6735 356.003C81.4365 356.236 81.2806 356.536 81.2284 356.861C81.1761 357.186 81.2301 357.519 81.3826 357.812V357.812Z" fill="#F3F3F7"/>
<path d="M116.941 342.221L119.486 349.505C119.622 349.884 119.903 350.197 120.27 350.375C120.637 350.553 121.061 350.582 121.45 350.457C121.555 350.429 121.654 350.38 121.74 350.314L134.078 343.03C134.428 342.825 134.68 342.491 134.78 342.103C134.88 341.715 134.819 341.304 134.611 340.959C134.471 340.735 134.276 340.549 134.042 340.42C133.809 340.291 133.546 340.222 133.278 340.221H118.396C118.192 340.221 117.99 340.26 117.801 340.336C117.613 340.412 117.441 340.525 117.297 340.666C117.153 340.808 117.039 340.976 116.961 341.161C116.883 341.346 116.844 341.545 116.844 341.745C116.839 341.909 116.872 342.072 116.941 342.221V342.221Z" fill="#F3F3F7"/>
<path d="M122.152 355.932L123.8 360.835C123.928 361.216 124.203 361.531 124.566 361.714C124.929 361.897 125.35 361.932 125.739 361.811C125.763 361.811 125.788 361.788 125.812 361.788L139.967 356.479C140.179 356.397 140.37 356.272 140.529 356.112C140.688 355.952 140.81 355.761 140.888 355.551L144.887 344.173C144.994 343.879 145.004 343.559 144.918 343.259C144.831 342.959 144.652 342.692 144.404 342.496C144.157 342.3 143.854 342.184 143.536 342.165C143.219 342.146 142.903 342.223 142.633 342.388L122.831 354.17C122.529 354.343 122.297 354.613 122.174 354.933C122.05 355.254 122.043 355.606 122.152 355.932V355.932Z" fill="#F3F3F7"/>
<path d="M141.01 359.407L143.507 358.527C143.721 358.457 143.948 358.431 144.174 358.452C144.399 358.472 144.617 358.538 144.815 358.646L146.318 359.526C146.608 359.696 146.833 359.955 146.958 360.263C147.084 360.572 147.102 360.911 147.011 361.231C146.92 361.55 146.725 361.832 146.455 362.031C146.185 362.231 145.856 362.338 145.518 362.335H141.519C139.774 362.359 139.362 359.979 141.01 359.407Z" fill="#F3F3F7"/>
<path d="M147.433 356.741L152.596 359.693C152.906 359.868 153.268 359.933 153.621 359.877C153.975 359.821 154.297 359.646 154.535 359.383L169.126 342.745C169.321 342.524 169.446 342.253 169.487 341.964C169.528 341.676 169.483 341.381 169.357 341.117C169.232 340.853 169.031 340.63 168.779 340.475C168.527 340.321 168.235 340.241 167.939 340.245H153.783C153.475 340.244 153.174 340.334 152.918 340.504C152.663 340.674 152.466 340.916 152.353 341.197L146.779 354.884C146.649 355.22 146.644 355.59 146.764 355.929C146.883 356.268 147.12 356.556 147.433 356.741V356.741Z" fill="#F3F3F7"/>
<path d="M161.709 362.359H206.137C206.341 362.359 206.543 362.32 206.732 362.244C206.92 362.168 207.091 362.056 207.236 361.914C207.38 361.772 207.494 361.604 207.572 361.419C207.649 361.234 207.689 361.036 207.688 360.835C207.694 360.656 207.661 360.478 207.592 360.312L200.49 341.221C200.381 340.928 200.183 340.675 199.923 340.496C199.663 340.317 199.353 340.221 199.035 340.221H176.785C176.549 340.22 176.317 340.273 176.106 340.376C175.896 340.48 175.713 340.631 175.573 340.817L160.521 359.907C160.394 360.062 160.3 360.241 160.245 360.432C160.19 360.624 160.174 360.824 160.199 361.022C160.224 361.219 160.289 361.41 160.39 361.582C160.491 361.755 160.626 361.905 160.788 362.026C161.045 362.239 161.371 362.357 161.709 362.359V362.359Z" fill="#F3F3F7"/>
<path d="M204.902 342.221L207.762 350.433C207.897 350.813 208.179 351.125 208.546 351.303C208.913 351.481 209.336 351.511 209.725 351.385C209.885 351.335 210.034 351.254 210.162 351.147L221.069 342.935C221.326 342.743 221.514 342.476 221.608 342.172C221.702 341.869 221.696 341.544 221.592 341.244C221.487 340.944 221.289 340.683 221.026 340.5C220.762 340.316 220.446 340.219 220.123 340.221H206.38C206.177 340.221 205.974 340.26 205.786 340.336C205.598 340.413 205.426 340.525 205.282 340.666C205.138 340.808 205.024 340.976 204.946 341.161C204.868 341.346 204.829 341.545 204.829 341.745C204.828 341.906 204.852 342.067 204.902 342.221Z" fill="#F3F3F7"/>
<path d="M210.112 356.218L211.736 361.24C211.841 361.564 212.048 361.846 212.326 362.047C212.605 362.248 212.941 362.357 213.287 362.359H232.217C232.648 362.359 233.061 362.191 233.365 361.892C233.67 361.593 233.841 361.187 233.841 360.764C233.845 360.668 233.837 360.572 233.817 360.479L231.829 349.362C231.77 349.043 231.613 348.748 231.379 348.519C231.146 348.289 230.846 348.135 230.52 348.077L222.255 346.649C222.04 346.61 221.82 346.616 221.607 346.665C221.394 346.714 221.194 346.806 221.019 346.934L210.718 354.456C210.442 354.651 210.235 354.925 210.126 355.241C210.018 355.557 210.013 355.899 210.112 356.218V356.218Z" fill="#F3F3F7"/>
<path d="M229.093 344.411L233.698 345.173C233.928 345.208 234.163 345.197 234.388 345.14C234.613 345.083 234.824 344.98 235.007 344.839L237.237 343.054C237.403 342.923 237.541 342.76 237.643 342.576C237.744 342.392 237.807 342.189 237.827 341.981C237.848 341.772 237.825 341.561 237.761 341.361C237.697 341.162 237.593 340.976 237.455 340.817C237.303 340.631 237.111 340.482 236.893 340.379C236.675 340.276 236.436 340.222 236.194 340.221H230.523C230.121 340.222 229.733 340.365 229.432 340.626L228.269 341.65C228.111 341.789 227.983 341.957 227.891 342.145C227.8 342.332 227.747 342.536 227.736 342.744C227.724 342.952 227.755 343.159 227.826 343.356C227.896 343.552 228.006 343.733 228.147 343.887C228.389 344.167 228.724 344.353 229.093 344.411V344.411Z" fill="#F3F3F7"/>
<path d="M235.296 350.981L237.768 361.145C237.853 361.492 238.054 361.801 238.34 362.022C238.627 362.242 238.98 362.361 239.344 362.359H244.579C245.01 362.359 245.423 362.191 245.727 361.892C246.032 361.593 246.203 361.187 246.203 360.764C246.205 360.516 246.147 360.272 246.033 360.05L241.113 350.243C240.993 350.005 240.816 349.801 240.596 349.647C240.376 349.493 240.121 349.396 239.853 349.362L237.065 349.005C236.854 348.977 236.638 348.991 236.432 349.046C236.225 349.1 236.032 349.194 235.863 349.323C235.694 349.451 235.552 349.611 235.447 349.794C235.341 349.976 235.273 350.177 235.248 350.386C235.239 350.585 235.255 350.785 235.296 350.981V350.981Z" fill="#F3F3F7"/>
<path d="M241.211 346.434L242.423 346.648C242.649 346.692 242.863 346.783 243.051 346.914C243.239 347.046 243.397 347.215 243.513 347.41L246.252 351.933C246.362 352.113 246.506 352.27 246.678 352.396C246.849 352.521 247.044 352.611 247.251 352.662C247.459 352.713 247.674 352.723 247.885 352.692C248.097 352.661 248.299 352.589 248.482 352.48C248.63 352.382 248.768 352.271 248.894 352.147L256.941 342.84C257.139 342.608 257.266 342.325 257.306 342.025C257.346 341.725 257.299 341.42 257.169 341.145C257.04 340.871 256.833 340.638 256.574 340.475C256.315 340.311 256.013 340.223 255.705 340.221H245.113C244.724 340.224 244.347 340.359 244.047 340.602L240.459 343.649C240.298 343.785 240.166 343.951 240.071 344.137C239.975 344.323 239.918 344.526 239.902 344.733C239.886 344.941 239.912 345.15 239.979 345.348C240.045 345.546 240.151 345.729 240.29 345.887C240.512 346.181 240.843 346.377 241.211 346.434V346.434Z" fill="#F3F3F7"/>
<path d="M248.748 357.217L250.469 361.359C250.591 361.653 250.799 361.905 251.067 362.083C251.334 362.26 251.649 362.357 251.972 362.359H270.805C271.236 362.359 271.649 362.191 271.953 361.892C272.258 361.593 272.429 361.187 272.429 360.764C272.433 360.524 272.375 360.286 272.259 360.074L263.994 343.53C263.807 343.152 263.475 342.863 263.071 342.724C262.666 342.586 262.223 342.61 261.837 342.792C261.669 342.873 261.514 342.978 261.376 343.102L249.088 355.527C248.867 355.744 248.716 356.021 248.656 356.322C248.595 356.623 248.628 356.934 248.748 357.217V357.217Z" fill="#F3F3F7"/>
<path d="M267.922 342.53L272.6 352.195C272.784 352.575 273.115 352.868 273.519 353.011C273.923 353.154 274.368 353.134 274.757 352.956C274.829 352.931 274.896 352.89 274.951 352.837L289.397 343.387C289.687 343.2 289.909 342.925 290.029 342.605C290.149 342.284 290.162 341.934 290.064 341.606C289.966 341.278 289.764 340.99 289.486 340.783C289.209 340.577 288.872 340.463 288.524 340.459L269.4 340.245C268.971 340.243 268.557 340.406 268.249 340.7C267.941 340.994 267.762 341.395 267.752 341.816C267.768 342.062 267.826 342.303 267.922 342.53V342.53Z" fill="#F3F3F7"/>
<path d="M275.556 357.955L277.107 361.407C277.236 361.687 277.444 361.925 277.706 362.094C277.967 362.263 278.273 362.354 278.586 362.359H299.237C299.668 362.359 300.081 362.191 300.385 361.892C300.69 361.593 300.861 361.187 300.861 360.764V360.597L299.14 344.078C299.097 343.658 298.887 343.273 298.555 343.005C298.224 342.737 297.798 342.61 297.371 342.649C297.11 342.675 296.859 342.765 296.643 342.911L276.162 356.003C275.842 356.205 275.605 356.512 275.494 356.87C275.382 357.227 275.405 357.612 275.556 357.955Z" fill="#F3F3F7"/>
<path d="M303.066 342.007L304.278 352.195C304.301 352.403 304.366 352.605 304.469 352.788C304.571 352.972 304.71 353.134 304.877 353.264C305.044 353.395 305.235 353.492 305.44 353.549C305.645 353.607 305.86 353.624 306.072 353.599C306.106 353.603 306.14 353.594 306.169 353.575L327.547 349.814C327.922 349.749 328.262 349.556 328.506 349.268C328.75 348.981 328.882 348.618 328.88 348.243V341.816C328.88 341.393 328.709 340.988 328.404 340.689C328.1 340.389 327.687 340.221 327.256 340.221H304.69C304.26 340.221 303.847 340.389 303.542 340.689C303.238 340.988 303.066 341.393 303.066 341.816V342.007Z" fill="#F3F3F7"/>
<path d="M305.296 358.455L305.636 360.954C305.687 361.335 305.878 361.685 306.172 361.939C306.466 362.193 306.844 362.334 307.235 362.335H322.093C322.307 362.335 322.518 362.294 322.715 362.213C322.912 362.133 323.091 362.016 323.242 361.868C323.393 361.72 323.512 361.544 323.594 361.35C323.675 361.157 323.717 360.949 323.717 360.74V360.597L323.281 355.551C323.242 355.128 323.034 354.738 322.702 354.465C322.371 354.193 321.942 354.061 321.512 354.099C321.462 354.095 321.412 354.103 321.366 354.123L306.629 356.646C306.221 356.735 305.859 356.969 305.614 357.302C305.368 357.635 305.255 358.045 305.296 358.455V358.455Z" fill="#F3F3F7"/>
<path d="M327.255 353.075L332.079 352.1C332.371 352.041 332.674 352.061 332.955 352.157C333.237 352.254 333.487 352.423 333.679 352.647L339.52 359.74C339.654 359.903 339.754 360.09 339.815 360.29C339.875 360.491 339.894 360.701 339.872 360.909C339.849 361.117 339.785 361.318 339.683 361.502C339.581 361.685 339.443 361.847 339.278 361.978C338.991 362.21 338.631 362.337 338.26 362.335H328.467C328.076 362.334 327.698 362.193 327.404 361.939C327.11 361.686 326.919 361.336 326.868 360.954L325.995 354.837C325.935 354.441 326.032 354.036 326.266 353.709C326.501 353.381 326.855 353.154 327.255 353.075V353.075Z" fill="#F3F3F7"/>
<path d="M332.758 347.029L333.025 341.745C333.044 341.335 333.223 340.947 333.526 340.664C333.828 340.38 334.23 340.221 334.649 340.221H352.9C353.28 340.223 353.648 340.354 353.94 340.593C354.232 340.832 354.43 341.164 354.5 341.531L357.966 360.478C358.04 360.895 357.944 361.323 357.699 361.67C357.454 362.018 357.08 362.256 356.657 362.335C356.561 362.355 356.464 362.363 356.366 362.359H346.428C346.195 362.359 345.963 362.311 345.75 362.216C345.537 362.122 345.347 361.984 345.192 361.811L333.17 348.172C332.897 347.852 332.75 347.447 332.758 347.029V347.029Z" fill="#F3F3F7"/>
<path d="M359.105 342.078L360.778 351.504C360.813 351.71 360.889 351.906 361.003 352.082C361.116 352.258 361.263 352.411 361.437 352.53C361.611 352.65 361.807 352.734 362.014 352.779C362.221 352.823 362.435 352.827 362.644 352.79C362.848 352.747 363.044 352.675 363.226 352.576L378.423 343.149C378.603 343.038 378.759 342.894 378.882 342.724C379.005 342.554 379.092 342.361 379.14 342.158C379.187 341.955 379.193 341.744 379.157 341.538C379.122 341.333 379.045 341.136 378.932 340.959C378.782 340.733 378.578 340.547 378.336 340.418C378.095 340.289 377.825 340.222 377.55 340.221H360.681C360.25 340.221 359.837 340.389 359.532 340.689C359.228 340.988 359.057 341.393 359.057 341.816C359.081 341.911 359.081 342.007 359.105 342.078Z" fill="#F3F3F7"/>
<path d="M362.086 357.527L362.547 360.978C362.598 361.359 362.789 361.709 363.083 361.963C363.377 362.217 363.755 362.358 364.146 362.359H390.033C390.464 362.359 390.877 362.191 391.181 361.892C391.486 361.593 391.657 361.187 391.657 360.764C391.663 360.469 391.578 360.178 391.414 359.931L382.64 346.006C382.413 345.649 382.052 345.393 381.634 345.295C381.217 345.198 380.778 345.265 380.41 345.482L362.838 355.956C362.568 356.115 362.353 356.35 362.219 356.629C362.086 356.909 362.039 357.221 362.086 357.527V357.527Z" fill="#F3F3F7"/>
<path d="M386.106 342.292L388.894 340.483C389.161 340.315 389.472 340.224 389.79 340.221H402.637C403.067 340.221 403.48 340.389 403.785 340.689C404.089 340.988 404.261 341.393 404.261 341.816C404.262 342.048 404.21 342.278 404.109 342.488C404.009 342.698 403.862 342.883 403.679 343.03L392.869 351.957C392.706 352.091 392.519 352.193 392.316 352.256C392.114 352.319 391.901 352.343 391.689 352.325C391.478 352.308 391.272 352.249 391.083 352.153C390.894 352.057 390.727 351.926 390.59 351.766C390.542 351.719 390.517 351.671 390.469 351.623L385.646 344.506C385.41 344.152 385.327 343.721 385.413 343.306C385.499 342.892 385.748 342.528 386.106 342.292V342.292Z" fill="#F3F3F7"/>
<path d="M393.766 356.432L397.232 361.645C397.378 361.867 397.579 362.05 397.817 362.175C398.054 362.299 398.32 362.363 398.59 362.359H412.72C413.151 362.359 413.564 362.191 413.869 361.892C414.173 361.593 414.344 361.187 414.344 360.764C414.342 360.452 414.249 360.146 414.078 359.883L405.764 347.529C405.525 347.177 405.154 346.932 404.732 346.847C404.31 346.762 403.87 346.845 403.51 347.077C403.461 347.101 403.437 347.125 403.389 347.148L394.106 354.313C393.79 354.561 393.58 354.916 393.517 355.308C393.454 355.7 393.543 356.101 393.766 356.432V356.432Z" fill="#F3F3F7"/>
<path d="M411.968 340.579L408.793 343.173C408.481 343.424 408.275 343.78 408.217 344.172C408.159 344.564 408.252 344.964 408.478 345.292L414.053 353.385C414.171 353.56 414.323 353.71 414.501 353.826C414.679 353.943 414.879 354.023 415.089 354.063C415.298 354.103 415.514 354.102 415.723 354.059C415.933 354.016 416.131 353.932 416.307 353.813C416.57 353.639 416.773 353.39 416.889 353.099L421.421 342.411C421.583 342.02 421.582 341.581 421.419 341.19C421.256 340.798 420.944 340.485 420.549 340.317C420.347 340.241 420.134 340.2 419.919 340.198H412.986C412.615 340.216 412.258 340.349 411.968 340.579V340.579Z" fill="#F3F3F7"/>
<path d="M418.197 359.693L419.143 361.478C419.287 361.739 419.501 361.956 419.761 362.107C420.022 362.258 420.319 362.337 420.621 362.335L432.643 362.097C432.857 362.091 433.067 362.044 433.261 361.958C433.456 361.872 433.631 361.749 433.778 361.597C433.924 361.444 434.038 361.265 434.114 361.069C434.19 360.873 434.225 360.664 434.219 360.455C434.217 360.244 434.171 360.036 434.083 359.843C433.996 359.651 433.869 359.478 433.71 359.336L424.208 350.719C423.889 350.435 423.468 350.285 423.037 350.303C422.606 350.321 422.2 350.504 421.906 350.814C421.796 350.925 421.705 351.054 421.639 351.195L418.197 358.265C418.078 358.485 418.016 358.73 418.016 358.979C418.016 359.228 418.078 359.473 418.197 359.693V359.693Z" fill="#F3F3F7"/>
<path d="M425.906 341.221L423.991 345.982C423.873 346.288 423.851 346.622 423.929 346.941C424.006 347.259 424.18 347.547 424.428 347.767L430.608 353.099C430.865 353.318 431.184 353.455 431.523 353.489C431.861 353.523 432.202 353.453 432.499 353.29L450.314 343.197C450.624 343.023 450.866 342.753 451.004 342.429C451.142 342.106 451.167 341.747 451.076 341.408C450.985 341.069 450.782 340.769 450.5 340.554C450.218 340.34 449.871 340.223 449.514 340.221H427.433C427.106 340.22 426.786 340.315 426.514 340.493C426.242 340.671 426.031 340.924 425.906 341.221V341.221Z" fill="#F3F3F7"/>
<path d="M461.535 341.793L470.527 360.026C470.712 360.405 470.737 360.841 470.597 361.238C470.456 361.635 470.161 361.961 469.776 362.145C469.551 362.258 469.301 362.316 469.049 362.311L441.393 361.835C440.996 361.826 440.616 361.674 440.326 361.407L435.721 357.241C435.405 356.953 435.218 356.553 435.2 356.13C435.182 355.707 435.334 355.293 435.624 354.98C435.728 354.865 435.851 354.768 435.988 354.694L459.256 341.078C459.627 340.865 460.068 340.802 460.485 340.905C460.902 341.007 461.262 341.266 461.486 341.626C461.511 341.679 461.527 341.735 461.535 341.793V341.793Z" fill="#F3F3F7"/>
<path d="M466.965 340.221H470.044C470.474 340.221 470.887 340.389 471.192 340.689C471.496 340.988 471.668 341.393 471.668 341.816V348.196C471.668 348.619 471.496 349.024 471.192 349.323C470.887 349.622 470.474 349.79 470.044 349.79C469.736 349.791 469.434 349.706 469.172 349.546C468.911 349.386 468.701 349.158 468.565 348.886L465.487 342.507C465.394 342.318 465.341 342.113 465.33 341.904C465.319 341.694 465.351 341.485 465.423 341.288C465.495 341.091 465.607 340.91 465.751 340.755C465.895 340.601 466.069 340.476 466.262 340.388C466.479 340.277 466.721 340.22 466.965 340.221V340.221Z" fill="#F3F3F7"/>
<path d="M257.886 202.226C253.211 224.434 248.535 246.642 243.86 268.848C243.713 269.55 243.564 270.252 243.418 270.954C243.091 272.495 242.767 274.037 242.444 275.577C242.233 276.579 242.022 277.58 241.811 278.581C238.104 296.185 234.397 313.79 230.692 331.396L227.923 331.242C231.11 313.688 234.297 296.135 237.483 278.581C237.692 277.431 237.901 276.279 238.11 275.128C238.363 273.737 238.616 272.345 238.869 270.953C239.024 270.094 239.18 269.236 239.336 268.379C243.361 246.209 247.386 224.038 251.412 201.866L257.886 202.226Z" fill="#AFADCB"/>
<path d="M275.257 194.017C280.772 159.638 286.287 125.284 291.802 90.9568C290.206 90.8964 288.613 91.1606 287.018 91.1004C281.665 125.406 276.312 159.711 270.958 194.017H275.257Z" fill="#AFADCB"/>
<path d="M295.459 203.765C292.04 226.088 288.621 248.412 285.202 270.736C285.191 270.809 285.179 270.882 285.168 270.954C284.831 273.156 284.493 275.358 284.156 277.56C284.104 277.901 284.052 278.24 284.001 278.581C281.158 297.136 278.316 315.692 275.475 334.248H272.703C275.016 315.691 277.33 297.136 279.645 278.581C279.695 278.173 279.747 277.762 279.797 277.353C280.065 275.221 280.331 273.088 280.597 270.954C280.615 270.809 280.633 270.667 280.651 270.522C283.426 248.27 286.2 226.018 288.974 203.765H295.459Z" fill="#AFADCB"/>
<path d="M294.752 203.278L305.009 270.249L306.055 277.073L314.736 333.76H317.508C315.143 314.794 312.778 295.83 310.414 276.865C310.129 274.588 309.845 272.311 309.562 270.034C306.787 247.783 304.012 225.53 301.237 203.277L294.752 203.278Z" fill="#AFADCB"/>
<path d="M311.421 198.896H240.502L253.396 103.268H324.316L311.421 198.896Z" fill="#D1D3D4"/>
<path d="M316.859 204.901H233.369L234.99 197.273H318.48L316.859 204.901Z" fill="#AFADCB"/>
<path d="M287.03 189.483L222.994 180.719C224.309 179.581 225.606 178.391 226.885 177.149C247.117 157.477 255.093 131.487 258.011 109.311L317.994 109.636C315.749 132.235 308.999 158.689 291.893 182.992C290.308 185.244 288.687 187.408 287.03 189.483Z" fill="#F3F3F7"/>
<path d="M348.787 168.268L378.921 295.396L365.34 294.569C365.34 294.569 362.963 292.619 366.443 284.457C369.923 276.296 369.817 271.95 361.859 269.936C353.901 267.922 348.044 264.955 350.358 254.567C352.671 244.18 352.395 242.696 341.275 238.456C330.155 234.217 327.078 221.052 333.593 201.041C338.495 185.926 348.787 168.268 348.787 168.268Z" fill="#4F9977"/>
<path d="M350.167 243.226C350.27 243.324 350.356 243.439 350.422 243.565C350.485 243.65 350.549 243.735 350.591 243.798L350.719 243.989C350.804 244.137 350.867 244.265 350.931 244.392C350.968 244.458 350.997 244.53 351.016 244.604C351.08 244.752 351.122 244.9 351.186 245.049C351.287 245.359 351.358 245.679 351.398 246.003L351.462 246.512C351.483 246.978 351.483 247.466 351.462 247.932C351.466 248.031 351.459 248.131 351.44 248.229C351.419 248.547 351.377 248.865 351.334 249.204C351.313 249.31 351.313 249.437 351.292 249.543C351.249 249.882 351.186 250.264 351.122 250.645L351.058 251.027C350.867 252.066 350.613 253.232 350.316 254.525C348.003 264.912 353.859 267.88 361.817 269.894C364.194 270.487 365.849 271.293 366.953 272.353L366.91 272.31C363.239 268.367 357.531 267.329 355.324 260.863C353.499 255.542 356.364 247.762 356.194 241.933C355.939 233.178 349.148 226.755 342.591 221.476C340.087 219.462 337.498 217.406 336.119 214.481C334.612 211.258 334.761 207.421 334.994 203.712C335.185 200.701 335.418 197.67 335.843 194.639C335.631 195.147 335.44 195.677 335.249 196.186L335.227 196.271C335.036 196.759 334.845 197.267 334.676 197.755L334.633 197.882C334.464 198.37 334.273 198.857 334.124 199.345L334.082 199.451L333.572 200.977C333.063 202.546 332.617 204.051 332.214 205.535C332.066 206.128 331.917 206.701 331.768 207.294C331.684 207.633 331.599 207.973 331.535 208.312C331.429 208.778 331.323 209.244 331.238 209.711C330.743 212.095 330.417 214.51 330.262 216.94C330.219 217.682 330.198 218.402 330.177 219.102C330.159 220.662 330.258 222.221 330.474 223.766C330.495 223.978 330.538 224.189 330.559 224.38C330.665 224.995 330.771 225.589 330.92 226.182C330.959 226.375 331.009 226.566 331.068 226.755C331.26 227.495 331.494 228.224 331.768 228.938C331.832 229.108 331.917 229.277 331.981 229.447C332.256 230.117 332.575 230.768 332.936 231.397C333.102 231.704 333.286 232.001 333.487 232.287C333.678 232.563 333.891 232.86 334.103 233.135C335.047 234.376 336.178 235.463 337.456 236.357C337.604 236.463 337.732 236.548 337.88 236.654C338.471 237.048 339.088 237.402 339.726 237.714C340.214 237.947 340.724 238.181 341.233 238.371C341.933 238.647 342.591 238.901 343.185 239.134C343.949 239.431 344.65 239.728 345.307 240.025L345.689 240.194C346.531 240.57 347.346 241.002 348.13 241.488L348.321 241.615C348.997 242.078 349.617 242.619 350.167 243.226V243.226Z" fill="#66BA93"/>
<path d="M348.15 169.921L347.726 170.154L347.599 170.366C347.768 170.218 347.959 170.07 348.15 169.921Z" fill="#66BA93"/>
<path d="M412.79 117.646L383.293 295.883L378.943 295.396C378.943 295.396 366.062 273.794 370.285 261.372C376.057 241.975 367.611 234.238 370.348 219.801C372.895 206.362 382.487 200.32 377.012 185.057C371.537 169.794 365.001 137.042 412.79 117.646Z" fill="#4F9977"/>
<path d="M378.921 295.396L381.043 295.629C376.481 286.301 372.597 272.586 375.313 263.068C381.34 241.933 371.345 230.591 376.035 213.717C380.746 196.843 389.149 194.024 380.491 178.507C375.568 169.688 375.101 158.665 375.61 150.779C370.963 164.049 374.146 176.98 377.032 185.036C382.507 200.299 372.915 206.34 370.348 219.78C367.61 234.195 376.056 241.954 370.284 261.351C366.061 273.794 378.921 295.396 378.921 295.396Z" fill="#66BA93"/>
<path d="M387.156 302.455L416.568 221.285C416.568 221.285 398.148 220.204 387.856 236.591C377.564 252.977 391.357 258.065 385.097 263.873C378.837 269.682 373.999 274.409 385.076 301.988L387.156 302.455Z" fill="#4F9977"/>
<path d="M385.521 291.665C383.611 287.679 381.68 283.164 383.272 278.712C384.842 274.26 389.383 271.399 392.036 267.413C394.943 263.068 395.325 257.344 392.991 253.168C391.93 251.26 390.359 249.691 389.277 247.783C387.834 245.261 387.622 242.42 387.919 239.431C388.089 237.799 388.874 236.506 388.153 236.124C388.041 236.272 387.942 236.428 387.855 236.591C377.563 252.977 391.357 258.065 385.097 263.873C379.049 269.491 374.295 274.112 384.099 299.55C385.436 299.635 386.794 299.656 388.153 299.656L388.662 298.278L385.521 291.665Z" fill="#66BA93"/>
<path d="M403.963 333.744L397.087 292.618H356.491L341.318 333.744" fill="#D1D3D4"/>
<path d="M352.332 303.875C352.332 303.875 347.196 319.032 351.992 325.498C358.571 334.401 371.473 333.744 403.962 333.744H341.297L352.332 303.875Z" fill="#EAE9F7"/>
<path d="M398.106 297.961C397.66 296.18 396.939 294.378 397.087 292.576H356.322C356.173 292.937 356.003 293.297 355.855 293.658C355.812 293.912 355.749 294.188 355.685 294.442C355.197 295.968 354.709 297.494 354.157 299C353.902 299.678 353.563 300.335 353.308 301.013C353.053 301.755 352.884 302.497 352.608 303.239C352.465 303.641 352.265 304.019 352.014 304.363C352.031 304.461 352.038 304.56 352.035 304.66H398.912C398.657 302.413 398.636 300.123 398.106 297.961Z" fill="#B8B7B8"/>
<path d="M330.58 224.529L330.368 222.897L353.478 188.046L355.239 195.423L330.58 224.529Z" fill="#7ED9AF"/>
<path d="M373.616 159.237L373.85 157.626L409.84 135.431L409.034 140.243L373.616 159.237Z" fill="#7ED9AF"/>
<path d="M373.383 168.798L373.298 167.484L407.782 147.79L407.209 151.309L373.383 168.798Z" fill="#7ED9AF"/>
<path d="M378.582 191.862L378.412 190.378L403.432 174.161L402.562 179.355L378.582 191.862Z" fill="#7ED9AF"/>
<path d="M369.945 229.277L369.839 227.984L397.108 212.318L396.471 216.219L369.945 229.277Z" fill="#7ED9AF"/>
<path d="M349.297 242.399L348.13 241.488L360.141 216.198L361.987 223.914L349.297 242.399Z" fill="#7ED9AF"/>
<path d="M351.504 247.635L351.377 245.706L363.388 229.892L364.47 234.428L351.504 247.635Z" fill="#7ED9AF"/>
<path d="M385.627 240.745L386.242 239.346L412.896 231.354L411.856 234.237L385.627 240.745Z" fill="#7ED9AF"/>
<path d="M383.951 247.211L384.078 245.918L410.435 238.181L409.438 240.936L383.951 247.211Z" fill="#7ED9AF"/>
<path d="M386.604 261.69C386.692 261.436 386.75 261.173 386.773 260.905C386.795 260.566 386.795 260.121 386.795 260.121L404.302 255.118L403.029 258.637L386.604 261.69Z" fill="#7ED9AF"/>
<path d="M380.301 288.294L379.962 286.959L394.244 282.888L392.779 286.937L380.301 288.294Z" fill="#7ED9AF"/>
<path d="M122.332 266.382L130.714 333.241H127.714L116.393 268.175L122.332 266.382Z" fill="#AFADCB"/>
<path d="M89.5183 266.382L67.709 333.241H70.7083L95.0998 268.175L89.5183 266.382Z" fill="#AFADCB"/>
<path d="M139.691 266.382L117.882 333.241H120.881L145.273 268.175L139.691 266.382Z" fill="#AFADCB"/>
<path d="M139.691 266.382L136.414 276.426H142.174L145.273 268.175L139.691 266.382Z" fill="#333133"/>
<path d="M89.5186 266.382L86.2412 276.426H92.0213L95.1 268.175L89.5186 266.382Z" fill="#333133"/>
<path d="M123.583 276.426H117.823L116.393 268.175L122.332 266.382L123.583 276.426Z" fill="#333133"/>
<path d="M172.486 266.382L180.868 333.241H177.889L166.547 268.175L172.486 266.382Z" fill="#AFADCB"/>
<path d="M165.713 265.027L167.957 276.426H173.737L172.744 267.279L165.713 265.027Z" fill="#333133"/>
<path d="M59.4857 192.667C57.122 200.977 68.702 219.53 65.663 240.774C62.624 262.017 77.9184 273.078 101.754 273.078H181.94C184.82 273.078 187.382 270.726 187.68 267.856C187.978 264.967 185.873 262.635 182.993 262.635H161.203C161.203 262.635 141.281 234.855 142.83 215.724C144.379 196.593 146.286 188.821 134.329 187.426C119.571 185.692 62.7035 181.348 59.4857 192.667Z" fill="#2B292B"/>
<path d="M89.8962 262.596C68.5039 258.769 65.6635 240.754 65.6635 240.754C62.6444 261.998 77.9189 273.058 101.754 273.058H181.94C184.82 273.058 187.383 270.706 187.681 267.837C187.979 264.967 185.873 262.615 182.993 262.615H161.204C161.204 262.596 111.288 266.422 89.8962 262.596Z" fill="#545254"/>
<path d="M143.802 165.584C143.802 165.584 142.416 158.686 146.614 153.903L129.815 150.553C129.815 150.553 132.003 158.838 126.776 168.104L143.802 165.584Z" fill="url(#paint0_linear_411_13065)"/>
<path d="M146.734 153.689C146.962 152.551 143.364 150.872 138.697 149.94C134.031 149.008 130.063 149.175 129.835 150.313C129.607 151.451 133.205 153.13 137.871 154.062C142.538 154.994 146.506 154.828 146.734 153.689Z" fill="#25215E"/>
<path d="M204.444 181.693C201.659 177.488 198.218 176.457 198.218 176.457C198.037 176.813 197.848 177.168 197.649 177.524C197.637 177.545 197.625 177.566 197.612 177.587C197.528 177.738 197.442 177.888 197.356 178.039C197.322 178.098 197.286 178.158 197.251 178.217C197.188 178.325 197.124 178.433 197.06 178.541C196.998 178.644 196.935 178.746 196.872 178.849C196.835 178.908 196.799 178.967 196.762 179.027C196.67 179.175 196.576 179.323 196.482 179.471L196.465 179.497C195.292 181.305 194.012 183.042 192.633 184.699C192.578 184.766 192.523 184.833 192.468 184.899C186.307 192.31 178.805 198.216 178.805 198.216C171.678 183.165 158.817 165.088 146.859 162.552C139.634 161.014 133.998 162.111 129.886 163.239C126.806 164.093 123.585 164.316 120.417 163.894C117.959 163.602 115.471 163.701 113.045 164.188C106.164 165.497 101.904 171.714 100.479 178.372C99.0538 185.014 97.5791 186.29 97.6775 189.889C97.7759 193.488 99.5779 197.12 98.5948 200.392C97.6117 203.663 96.7445 212.71 112.143 214.673C112.143 214.673 112.283 214.577 112.557 214.411C112.022 215.712 111.284 217.541 110.392 220.13C109.562 222.536 108.965 224.537 108.59 225.856L159.212 217.676C156.692 215.662 154.361 213.422 152.247 210.985C152.396 211.021 152.542 211.053 152.691 211.09C158.031 216.456 166.698 221.298 178.887 218.664C198.546 214.411 206.901 187.664 206.901 187.664C206.328 183.901 204.444 181.693 204.444 181.693Z" fill="url(#paint1_linear_411_13065)"/>
<path d="M198.234 176.441L204.46 181.676C204.46 181.676 207.507 175.132 208.883 172.515C210.259 169.897 218.205 166.887 220.712 165.84C223.218 164.793 226.855 161.39 226.855 161.39C225.495 159.754 223.447 161.521 223.447 161.521C222.137 160.425 220.58 161.488 220.58 161.488C218.811 160.67 217.631 162.143 217.631 162.143C215.763 161.636 214.239 162.797 213.338 163.746C213.054 164.052 212.694 164.279 212.295 164.406C211.896 164.532 211.471 164.552 211.061 164.466C210.717 164.384 210.292 164.302 209.767 164.188C206.246 163.452 203.706 165.66 198.234 176.441Z" fill="url(#paint2_linear_411_13065)"/>
<path d="M186.211 191.623C182.623 195.778 181.181 202.96 181.181 202.96L178.806 198.216L186.211 191.623Z" fill="#25215E"/>
<path d="M108.245 207.704L112.16 214.673L108.245 227.27C111.046 216.424 114.831 216.26 123.595 215.72C126.085 215.573 126.298 213.152 124.709 212.219C122.481 210.927 119.795 213.495 116.633 211.762C111.898 209.161 107.704 195.484 107.704 195.484L108.245 207.704Z" fill="url(#paint3_linear_411_13065)"/>
<path d="M165.765 218.657C165.57 218.662 162.321 218.784 160.865 221.283C159.494 223.635 160.282 227.121 163.061 229.102C159.85 218.126 151.183 220.481 148.742 213.086C145.384 202.944 142.467 203.353 139.666 198.003C137.848 194.535 140.878 189.202 140.878 189.202C141.565 192.54 142.685 195.775 144.208 198.825C150.286 210.96 161.122 216.592 165.765 218.657Z" fill="#5F5E9B"/>
<path d="M105.869 203.451C107.229 210.354 103.674 212.808 103.674 212.808C106.164 214.477 111.996 215.164 111.996 215.164C114.323 209.111 107.54 195.974 107.54 195.974C107.54 195.974 104.706 197.479 105.869 203.451Z" fill="#5F5E9B"/>
<path d="M131.386 127.861L128.799 130.796L125.856 136.901L130.253 142.663L129.099 142.854L129.791 150.556C129.791 150.556 130.186 152.694 138.955 154.251L138.295 145.517C139.785 145.33 141.393 144.357 142.587 141.568C142.587 141.568 145.152 141.266 145.21 141.129C147.807 136.114 143.166 130.168 143.166 130.168L131.386 127.861Z" fill="url(#paint4_linear_411_13065)"/>
<path d="M136.959 130.529C137.682 129.926 138.931 132.006 141.86 133.076C144.788 134.147 149.318 131.319 149.044 126.713C148.77 122.107 145.403 121.292 141.808 123.383C138.213 125.475 133.41 119.565 127.315 123.219C121.717 126.571 123.725 133.778 121.718 141.841C119.711 149.903 118.347 154.204 106.084 163.949C99.7166 169.015 93.8778 177.24 92.6661 185.022C91.5369 192.215 94.7072 198.832 99.6116 203.47C111.241 214.424 122.97 206.231 124.027 197.906C125.541 189.901 119.29 176.576 126.438 167.985C135.407 157.21 133.639 141.897 132.286 138.639C132.286 138.639 129.742 138.373 129.332 136.494C128.921 134.615 131.3 132.286 132.577 133.76C133.268 134.546 133.541 135.649 133.649 136.494C133.667 136.65 133.716 136.801 133.792 136.939C133.869 137.077 133.972 137.198 134.095 137.296C134.218 137.394 134.36 137.466 134.512 137.51C134.663 137.553 134.822 137.566 134.978 137.548L134.995 137.546L135.045 137.539L135.082 137.521C135.368 137.469 135.626 137.318 135.81 137.094C135.995 136.871 136.094 136.589 136.09 136.299C136.053 134.611 136.085 131.244 136.959 130.529Z" fill="#25215E"/>
<path d="M134.78 143.942C134.78 143.942 136.529 145.565 138.31 145.529L138.685 149.941L134.78 143.942Z" fill="#333133"/>
<path d="M144.659 134.679C144.808 135.019 144.927 135.371 145.015 135.732C145.032 135.794 145.024 135.859 144.994 135.916C144.964 135.973 144.914 136.016 144.853 136.037C144.823 136.047 144.79 136.05 144.759 136.045C144.727 136.041 144.697 136.03 144.67 136.012C143.619 135.405 141.043 134.194 138.478 135.035C138.429 135.053 138.376 135.053 138.327 135.037C138.278 135.021 138.236 134.988 138.208 134.945V134.945C138.171 134.893 138.156 134.828 138.166 134.764C138.176 134.7 138.21 134.643 138.262 134.604V134.604C138.87 134.183 140.64 132.994 143.964 134.047C144.118 134.097 144.26 134.179 144.38 134.288C144.5 134.397 144.595 134.53 144.659 134.679V134.679Z" fill="#333133"/>
<path d="M140.089 142.688L140.214 142.586C140.233 142.572 140.249 142.554 140.262 142.534C140.275 142.514 140.283 142.491 140.287 142.468C140.291 142.444 140.29 142.42 140.284 142.397C140.279 142.373 140.269 142.352 140.255 142.332L140.251 142.327C140.239 142.309 140.223 142.294 140.204 142.282C140.186 142.27 140.165 142.263 140.143 142.259L138.17 141.692C138.131 141.674 138.087 141.671 138.046 141.686C138.006 141.7 137.973 141.73 137.954 141.768C137.949 141.781 137.944 141.793 137.942 141.807C137.927 141.839 137.936 141.863 137.929 141.88L137.934 142C137.969 142.626 138.187 143.018 138.548 143.18C139.196 143.45 140.013 142.772 140.089 142.688Z" fill="#333133"/>
<path d="M110.417 120.601C108.14 123.993 110.281 128.897 114.983 129.612C119.686 130.326 122.327 127.678 122.327 127.678L123.589 127.074C122.017 119.767 113.403 116.146 110.417 120.601Z" fill="#25215E"/>
<path d="M123.632 129.823C123.462 130.049 123.224 130.215 122.953 130.297C122.682 130.379 122.391 130.371 122.124 130.276C121.857 130.181 121.628 130.003 121.47 129.769C121.311 129.534 121.232 129.255 121.244 128.972C121.397 127.077 122.1 125.269 123.267 123.767C123.376 123.632 123.511 123.519 123.664 123.436C123.817 123.352 123.985 123.3 124.158 123.281C124.331 123.263 124.507 123.278 124.674 123.327C124.841 123.376 124.997 123.458 125.133 123.567C125.268 123.676 125.381 123.811 125.465 123.963C125.548 124.116 125.601 124.284 125.619 124.457C125.638 124.63 125.622 124.805 125.573 124.972C125.524 125.139 125.443 125.294 125.334 125.43V125.43C124.521 126.49 124.023 127.757 123.896 129.086C123.885 129.352 123.793 129.609 123.632 129.823V129.823Z" fill="#FF7341"/>
<path d="M132.852 139.803C133.281 139.231 133.165 138.421 132.592 137.992C132.02 137.563 131.208 137.679 130.779 138.251C130.35 138.822 130.466 139.633 131.038 140.062C131.611 140.49 132.422 140.374 132.852 139.803Z" fill="#FF7341"/>
<path d="M144.253 137.765C144.253 137.765 141.187 140.12 138.849 136.398C138.834 136.391 142.401 134.09 144.253 137.765Z" fill="white"/>
<path d="M141.404 138.431C142.951 138.76 144.239 137.757 144.239 137.757C143.647 136.593 142.894 136.04 142.134 135.809C141.722 136.09 141.423 136.507 141.289 136.987C141.156 137.467 141.196 137.978 141.404 138.431Z" fill="#333133"/>
<path d="M225.401 329.536C225.224 331.183 223.441 332.28 221.64 332.739C220.491 333.047 219.323 333.277 218.144 333.428C217.298 333.526 216.35 333.608 215.473 333.456C213.817 332.441 212.965 330.719 212.682 328.262C212.269 324.682 209.697 322.027 196.812 303.394C183.927 284.76 181.137 283.348 181.404 276.31C181.672 269.273 175.732 263.35 161.61 263.523C150.307 263.658 142.38 262.516 136.905 261.061C143.571 261.034 151.063 259.21 160.129 256.652C160.768 256.472 161.399 256.288 162.02 256.107C166.479 254.484 171.91 251.871 176.484 247.852C179.731 244.998 179.959 243.508 182.669 242.417C185.04 241.463 187.319 241.526 188.865 241.725C191.249 243.389 194.713 246.225 197.384 250.329C199.946 254.266 201.515 258.969 201.935 260.226C201.935 260.228 201.939 260.239 201.94 260.241C209.702 277.85 218.308 317.433 219.26 321.541C219.804 323.889 221.67 325.677 223.46 326.904C223.46 326.906 223.461 326.909 223.462 326.91C223.803 327.974 224.485 328.896 225.401 329.536V329.536Z" fill="#1D1951"/>
<path d="M182.887 242.24L182.67 242.417C180.473 244.257 178.319 246.232 176.486 247.851C171.912 251.871 166.481 254.483 162.022 256.106C161.401 256.288 160.77 256.471 160.131 256.651C151.065 259.21 143.573 261.034 136.907 261.06C128.142 258.727 125.658 255.588 125.658 255.588C125.658 255.588 127.88 233.036 128.268 231.533C128.293 231.44 128.34 231.292 128.407 231.099C131.472 222.321 141.748 218.447 149.888 222.956C159.76 228.421 172.714 235.786 182.887 242.24Z" fill="#1D1951"/>
<path d="M213.284 330.756C213.685 330.917 214.1 331.039 214.524 331.122C215.358 331.351 216.209 331.515 217.069 331.612C218.447 331.757 219.84 331.639 221.174 331.263C223.165 330.673 224.089 329.174 223.951 327.211C222.027 325.985 219.862 324.087 219.269 321.528C218.85 319.796 217.071 311.73 214.588 301.649L204.15 313.903C210.764 323.301 212.362 325.502 212.69 328.248C212.777 329.106 212.977 329.95 213.284 330.756Z" fill="url(#paint5_linear_411_13065)"/>
<path d="M255.13 286.443C252.637 286.245 251.039 284.269 248.132 279.922C245.224 275.576 226.531 270.653 215.551 267.913C213.603 267.421 211.714 266.716 209.919 265.812C207.011 264.329 204.324 262.449 201.936 260.225C201.859 258.771 201.373 252.736 196.402 247.777C190.96 242.35 184.182 242.237 182.886 242.24L182.67 242.417C180.473 244.257 178.318 246.232 176.485 247.851C171.911 251.871 166.48 254.483 162.021 256.106C161.4 256.288 160.769 256.471 160.13 256.651C151.064 259.21 143.572 261.034 136.906 261.06C133.51 261.075 130.327 260.623 127.261 259.565C123.364 258.234 119.812 256.052 116.865 253.178C106.725 243.207 108.231 228.472 108.541 225.856C110.917 224.622 113.293 223.39 115.67 222.157C125.674 216.971 137.014 214.921 148.204 216.276C166.153 218.448 192.513 222.07 199.679 225.345C200.201 225.584 200.77 225.882 201.379 226.232C201.481 226.291 201.582 226.35 201.687 226.412C201.916 226.548 202.152 226.691 202.393 226.841C202.473 226.89 202.554 226.941 202.636 226.993C202.75 227.065 202.865 227.139 202.981 227.215C203.084 227.281 203.186 227.348 203.291 227.417C203.415 227.499 203.54 227.58 203.666 227.667C203.782 227.744 203.9 227.824 204.018 227.905C205.216 228.72 206.509 229.667 207.878 230.719C208.329 231.062 208.787 231.419 209.254 231.79C209.474 231.964 209.694 232.14 209.918 232.317C209.923 232.323 209.929 232.327 209.936 232.332C210.154 232.505 210.372 232.682 210.591 232.859C210.952 233.15 211.315 233.448 211.684 233.748C212.158 234.136 212.637 234.533 213.121 234.939C226.861 246.424 244.581 264.066 249.771 269.085C251.152 270.42 252.41 271.352 253.56 271.972C254.728 273.299 255.96 274.57 257.008 275.995C258.252 277.685 258.856 278.677 259.002 279.895C259.391 283.17 255.805 285.938 255.13 286.443Z" fill="#25215E"/>
<path d="M244.294 263.754L243.07 264.624C243.07 264.624 230.674 253.032 214.743 238.781C206.257 231.19 201.989 228.158 198.025 226.586C194.064 225.026 189.893 224.062 185.649 223.724C172.913 222.569 152.071 220.535 125.742 218.166L126.846 217.808C133.8 215.928 141.052 215.408 148.203 216.275C166.152 218.448 192.512 222.07 199.677 225.345C200.2 225.583 200.768 225.881 201.378 226.232C201.479 226.29 201.581 226.349 201.686 226.411C201.992 226.591 202.309 226.786 202.635 226.992C202.749 227.064 202.864 227.139 202.98 227.215C203.083 227.28 203.185 227.347 203.29 227.416C203.414 227.498 203.539 227.579 203.665 227.666C203.781 227.743 203.899 227.823 204.017 227.904C205.215 228.719 206.507 229.666 207.877 230.718C208.328 231.064 208.786 231.422 209.253 231.789C212.864 234.643 216.919 238.129 221.045 241.828C229.566 249.462 238.397 258.005 244.294 263.754Z" fill="#46437B"/>
<path d="M244.308 263.763L232.025 272.431C239.625 274.772 246.459 277.466 248.112 279.948C251.019 284.295 252.617 286.271 255.111 286.468L271.713 286.058C271.51 285.429 271.235 284.825 270.894 284.258C269.646 282.198 268.048 281.558 263.194 278.369C262.701 278.045 262.212 277.714 261.72 277.388C255.163 273.037 251.842 270.827 249.761 269.096C247.804 267.466 245.98 265.683 244.308 263.763V263.763Z" fill="url(#paint6_linear_411_13065)"/>
<path d="M243.061 264.636C243.061 264.636 259.062 277.362 263.193 278.369L244.353 263.809L243.061 264.636Z" fill="#F9D039"/>
<path d="M232.403 330.511C229.327 329.981 224.619 329.315 223.789 323.108C220.595 324.096 221.743 329.619 221.743 329.619C218.25 326.457 214.228 325.757 212.077 325.638C210.652 329.744 210.272 332.095 211.544 334.155L236.173 334.248C236.173 334.229 236.184 331.174 232.403 330.511Z" fill="#333133"/>
<path d="M213.44 267.342C209.172 265.762 205.263 263.348 201.941 260.24L201.939 260.233L201.937 260.226C201.934 260.219 201.643 259.39 201.572 259.202C198.132 250.105 194.6 247.123 194.6 247.123C193.864 246.501 193.439 246.142 192.798 245.814C187.151 242.922 178.663 249.528 173.794 252.619C156.485 263.61 136.508 261.139 136.933 261.126C144.799 260.921 152.542 259.141 159.706 255.891C162.411 254.635 165.038 253.214 167.57 251.638C178.616 244.901 182.792 238.965 189.85 239.695C190.82 239.792 191.774 240.012 192.69 240.348C201.329 243.605 200.286 255.883 210.819 265.216C211.91 266.181 212.852 266.906 213.44 267.342Z" fill="#151244"/>
<path d="M272.148 283.459C271.361 283.086 268.207 281.645 263.18 278.332C261.757 279.898 263.382 281.614 261.697 282.944C259.242 284.852 256.541 279.948 252.434 278.277C251.243 277.792 249.598 277.468 248.118 278.185C247.76 278.36 247.43 278.587 247.139 278.859C247.735 279.528 248.282 280.239 248.777 280.986C249.891 282.668 250.045 283.488 250.755 284.443C251.047 284.835 251.386 285.19 251.766 285.499C253.015 286.505 254.595 287.01 256.196 286.915L271.655 286.123C273.002 286.092 273.396 284.035 272.148 283.459Z" fill="#333133"/>
<path d="M196.32 170.675C196.264 170.535 196.266 170.379 196.324 170.24C196.383 170.101 196.494 169.99 196.634 169.931L229.761 155.936C230.141 155.788 230.565 155.795 230.94 155.956C231.314 156.117 231.609 156.419 231.76 156.795C231.834 156.982 231.87 157.181 231.867 157.382C231.864 157.582 231.821 157.78 231.74 157.964C231.66 158.148 231.543 158.314 231.398 158.454C231.253 158.593 231.081 158.703 230.893 158.777L197.062 171.005C196.919 171.057 196.762 171.051 196.623 170.989C196.485 170.928 196.376 170.815 196.32 170.675V170.675Z" fill="#46437B"/>
<path d="M232.957 158.487C232.252 158.228 231.673 157.714 231.337 157.047C230.875 156.048 231.219 154.987 231.408 154.6C232.172 153.037 235.281 152.493 239.197 153.232C239.285 153.248 239.368 153.286 239.437 153.343C239.506 153.399 239.56 153.472 239.593 153.555C239.626 153.638 239.638 153.727 239.627 153.815C239.615 153.904 239.582 153.988 239.529 154.06C237.185 157.271 234.586 159.068 232.957 158.487Z" fill="#F97274"/>
<defs>
<linearGradient id="paint0_linear_411_13065" x1="136.696" y1="168.104" x2="136.696" y2="150.554" gradientUnits="userSpaceOnUse">
<stop stop-color="#EAE9F7"/>
<stop offset="0.510417" stop-color="#8B89C2"/>
<stop offset="1" stop-color="#686596"/>
</linearGradient>
<linearGradient id="paint1_linear_411_13065" x1="152.293" y1="225.856" x2="152.293" y2="161.8" gradientUnits="userSpaceOnUse">
<stop stop-color="#EAE9F7"/>
<stop offset="0.510417" stop-color="#8B89C2"/>
<stop offset="1" stop-color="#686596"/>
</linearGradient>
<linearGradient id="paint2_linear_411_13065" x1="188.311" y1="189.808" x2="204.324" y2="150.328" gradientUnits="userSpaceOnUse">
<stop stop-color="#FF8658"/>
<stop offset="0.408366" stop-color="#FF9A72"/>
<stop offset="1" stop-color="#FFE76C"/>
</linearGradient>
<linearGradient id="paint3_linear_411_13065" x1="116.714" y1="227.27" x2="116.714" y2="195.487" gradientUnits="userSpaceOnUse">
<stop stop-color="#EAE9F7"/>
<stop offset="0.510417" stop-color="#8B89C2"/>
<stop offset="1" stop-color="#686596"/>
</linearGradient>
<linearGradient id="paint4_linear_411_13065" x1="115.281" y1="150.503" x2="155.97" y2="130.81" gradientUnits="userSpaceOnUse">
<stop stop-color="#FF8658"/>
<stop offset="0.241891" stop-color="#FF9A72"/>
<stop offset="1" stop-color="#FFE76C"/>
</linearGradient>
<linearGradient id="paint5_linear_411_13065" x1="197.227" y1="328.937" x2="226.473" y2="312.508" gradientUnits="userSpaceOnUse">
<stop stop-color="#FF8658"/>
<stop offset="0.357354" stop-color="#FF9A72"/>
<stop offset="1" stop-color="#FFE76C"/>
</linearGradient>
<linearGradient id="paint6_linear_411_13065" x1="218.264" y1="295.27" x2="232.58" y2="250.046" gradientUnits="userSpaceOnUse">
<stop stop-color="#FF8658"/>
<stop offset="0.488741" stop-color="#FF9A72"/>
<stop offset="1" stop-color="#FFE76C"/>
</linearGradient>
</defs>
</svg>
