<svg width="1273" height="1366" viewBox="0 0 1273 1366" fill="none" xmlns="http://www.w3.org/2000/svg">
<path d="M1273 103.217L1072.4 0.142212L537.549 1040.7L174.728 596.554L0 739.294L415.424 1245.14H432.627H686.118L693.368 1231.21L1273 103.217Z" fill="#66BA93"/>
<path d="M984.393 280.363C997.472 192.927 1070.41 84.1658 1148.03 38.9551L1072.4 0L537.691 1040.56L174.728 596.411L68.5264 683.279C68.5264 683.279 136.484 685.838 177.998 698.633C317.752 741.711 406.894 938.619 443.858 1031.6C464.473 1083.49 495.04 1123.59 510.678 1128.85C536.269 1137.52 566.552 1112.64 584.892 1083.63C623.562 1022.79 642.045 935.207 666.924 867.391C728.058 701.05 816.773 669.772 890.702 601.53C957.096 540.538 955.958 469.31 984.393 280.363Z" fill="#7ED9AF"/>
<path d="M1092 1246.14H187V1365.14H1092V1246.14Z" fill="#DCDDE2"/>
<path d="M259.671 1342.88L229.999 1262.74C229.548 1261.52 228.726 1260.46 227.646 1259.72C226.565 1258.97 225.278 1258.58 223.96 1258.58H210.842V1351.47H253.632C255.344 1351.47 256.986 1350.8 258.197 1349.6C259.407 1348.4 260.087 1346.78 260.087 1345.09C260.08 1344.34 259.939 1343.59 259.671 1342.88Z" fill="#EEEFF5"/>
<path d="M248.583 1266.96L260.504 1301.4C260.775 1302.19 261.201 1302.92 261.76 1303.55C262.318 1304.18 262.996 1304.69 263.756 1305.06C264.516 1305.43 265.341 1305.64 266.186 1305.69C267.03 1305.75 267.877 1305.63 268.676 1305.36C269.34 1305.15 269.958 1304.82 270.498 1304.38L316.048 1269.94C320.941 1266.24 318.286 1258.53 312.144 1258.53H254.725C253.013 1258.53 251.372 1259.2 250.161 1260.4C248.95 1261.59 248.27 1263.21 248.27 1264.9C248.217 1265.6 248.323 1266.31 248.583 1266.96Z" fill="#EEEFF5"/>
<path d="M270.29 1325.66L277.058 1346.74C277.49 1348.09 278.349 1349.28 279.509 1350.12C280.67 1350.96 282.073 1351.42 283.513 1351.42H362.534C364.327 1351.41 366.046 1350.7 367.314 1349.45C368.582 1348.2 369.296 1346.5 369.302 1344.73C369.293 1344.37 369.258 1344.01 369.197 1343.65L360.92 1297.03C360.677 1295.67 360.017 1294.42 359.03 1293.45C358.043 1292.47 356.777 1291.82 355.403 1291.58L320.889 1285.62C319.982 1285.46 319.052 1285.49 318.156 1285.7C317.26 1285.91 316.418 1286.3 315.683 1286.85L272.737 1318.36C271.594 1319.16 270.741 1320.3 270.301 1321.62C269.86 1322.93 269.857 1324.35 270.29 1325.66Z" fill="#EEEFF5"/>
<path d="M349.468 1276.11L368.677 1279.35C369.631 1279.5 370.607 1279.45 371.541 1279.21C372.475 1278.96 373.344 1278.52 374.09 1277.91L383.357 1270.4C388.302 1266.45 385.439 1258.53 379.088 1258.53H355.454C353.787 1258.54 352.178 1259.14 350.925 1260.23L346.084 1264.54C345.146 1265.39 344.465 1266.47 344.12 1267.68C343.774 1268.88 343.778 1270.16 344.13 1271.37C344.482 1272.57 345.169 1273.65 346.113 1274.49C347.056 1275.33 348.218 1275.89 349.468 1276.11Z" fill="#EEEFF5"/>
<path d="M375.392 1303.71L385.699 1346.33C386.049 1347.8 386.893 1349.11 388.094 1350.04C389.295 1350.97 390.782 1351.48 392.31 1351.47H414.174C415.063 1351.47 415.944 1351.3 416.766 1350.96C417.588 1350.63 418.335 1350.13 418.963 1349.51C419.592 1348.89 420.091 1348.16 420.43 1347.34C420.769 1346.53 420.943 1345.66 420.941 1344.78C420.928 1343.76 420.697 1342.74 420.265 1341.8L399.702 1300.68C399.212 1299.69 398.479 1298.84 397.57 1298.2C396.661 1297.56 395.604 1297.16 394.497 1297.03L382.888 1295.54C382.01 1295.43 381.118 1295.49 380.263 1295.72C379.408 1295.95 378.607 1296.34 377.906 1296.87C377.205 1297.41 376.618 1298.07 376.178 1298.83C375.737 1299.59 375.453 1300.43 375.34 1301.3C375.148 1302.09 375.166 1302.93 375.392 1303.71Z" fill="#EEEFF5"/>
<path d="M400.015 1284.64L405.012 1285.57C405.955 1285.75 406.85 1286.12 407.639 1286.66C408.428 1287.2 409.093 1287.89 409.593 1288.7L421.045 1307.72C421.96 1309.25 423.448 1310.35 425.184 1310.79C426.921 1311.24 428.764 1310.98 430.311 1310.09C430.964 1309.71 431.545 1309.22 432.029 1308.65L465.658 1269.58C466.491 1268.61 467.026 1267.42 467.199 1266.16C467.372 1264.9 467.176 1263.61 466.635 1262.46C466.093 1261.3 465.228 1260.32 464.142 1259.64C463.056 1258.95 461.794 1258.58 460.504 1258.58H416.308C414.68 1258.58 413.106 1259.16 411.883 1260.23L396.891 1273.08C396.223 1273.65 395.678 1274.36 395.288 1275.14C394.897 1275.93 394.668 1276.79 394.615 1277.66C394.562 1278.54 394.685 1279.41 394.977 1280.24C395.27 1281.07 395.726 1281.83 396.319 1282.48C397.256 1283.61 398.564 1284.37 400.015 1284.64Z" fill="#EEEFF5"/>
<path d="M431.509 1329.88L438.641 1347.25C439.143 1348.48 440.006 1349.54 441.119 1350.28C442.232 1351.02 443.544 1351.42 444.887 1351.42H523.545C524.434 1351.42 525.315 1351.25 526.137 1350.91C526.958 1350.58 527.705 1350.08 528.334 1349.46C528.963 1348.84 529.461 1348.1 529.8 1347.29C530.14 1346.48 530.314 1345.61 530.312 1344.73C530.304 1343.72 530.073 1342.72 529.635 1341.8L495.122 1272.36C494.647 1271.39 493.944 1270.56 493.073 1269.92C492.201 1269.28 491.187 1268.85 490.115 1268.68C489.043 1268.51 487.946 1268.6 486.914 1268.93C485.883 1269.27 484.949 1269.84 484.19 1270.61L432.862 1322.68C431.962 1323.63 431.356 1324.81 431.116 1326.08C430.876 1327.36 431.013 1328.68 431.509 1329.88Z" fill="#EEEFF5"/>
<path d="M511.519 1268.24L531.04 1308.8C531.418 1309.6 531.951 1310.31 532.609 1310.9C533.267 1311.49 534.036 1311.95 534.873 1312.24C535.709 1312.54 536.597 1312.67 537.485 1312.63C538.373 1312.58 539.243 1312.37 540.046 1311.99C540.358 1311.85 540.655 1311.68 540.931 1311.47L601.16 1271.84C606.678 1268.19 604.128 1259.66 597.464 1259.61L517.662 1258.68C516.773 1258.67 515.889 1258.83 515.062 1259.15C514.235 1259.47 513.481 1259.95 512.842 1260.56C512.204 1261.18 511.694 1261.9 511.342 1262.71C510.99 1263.52 510.802 1264.38 510.791 1265.26C510.822 1266.3 511.07 1267.31 511.519 1268.24Z" fill="#EEEFF5"/>
<path d="M543.43 1332.96L549.885 1347.41C550.413 1348.6 551.28 1349.61 552.38 1350.32C553.479 1351.03 554.765 1351.41 556.08 1351.42H642.285C643.174 1351.42 644.055 1351.25 644.877 1350.91C645.699 1350.58 646.445 1350.08 647.074 1349.46C647.703 1348.84 648.201 1348.1 648.541 1347.29C648.88 1346.48 649.054 1345.61 649.052 1344.73C649.061 1344.51 649.043 1344.29 649 1344.07L641.816 1274.72C641.696 1273.58 641.282 1272.5 640.615 1271.56C639.949 1270.63 639.05 1269.88 638.007 1269.38C636.963 1268.89 635.808 1268.66 634.653 1268.74C633.497 1268.81 632.379 1269.17 631.405 1269.79L545.981 1324.69C544.623 1325.54 543.618 1326.84 543.15 1328.36C542.682 1329.88 542.781 1331.51 543.43 1332.96Z" fill="#EEEFF5"/>
<path d="M658.214 1265.98L663.264 1308.7C663.476 1310.46 664.383 1312.06 665.787 1313.16C667.192 1314.25 668.98 1314.76 670.76 1314.56C670.916 1314.56 671.02 1314.51 671.176 1314.51L760.349 1298.78C761.912 1298.5 763.327 1297.69 764.346 1296.49C765.364 1295.29 765.921 1293.77 765.919 1292.2V1265.21C765.921 1264.33 765.747 1263.46 765.407 1262.65C765.068 1261.84 764.57 1261.1 763.941 1260.48C763.312 1259.86 762.565 1259.37 761.744 1259.03C760.922 1258.7 760.041 1258.53 759.152 1258.53H664.982C664.092 1258.53 663.212 1258.7 662.39 1259.03C661.568 1259.37 660.821 1259.86 660.192 1260.48C659.564 1261.1 659.065 1261.84 658.726 1262.65C658.386 1263.46 658.213 1264.33 658.214 1265.21C658.162 1265.47 658.162 1265.73 658.214 1265.98Z" fill="#EEEFF5"/>
<path d="M667.532 1335.12L668.938 1345.66C669.148 1347.27 669.947 1348.75 671.183 1349.82C672.42 1350.89 674.009 1351.47 675.653 1351.47H737.652C738.541 1351.47 739.422 1351.3 740.244 1350.96C741.066 1350.63 741.813 1350.13 742.441 1349.51C743.07 1348.89 743.568 1348.16 743.908 1347.34C744.247 1346.53 744.421 1345.66 744.419 1344.78V1344.17L742.545 1323.04C742.471 1322.17 742.221 1321.31 741.811 1320.53C741.401 1319.75 740.838 1319.06 740.156 1318.5C739.473 1317.93 738.684 1317.51 737.835 1317.25C736.985 1316.99 736.091 1316.89 735.205 1316.98C734.997 1316.98 734.789 1317.03 734.633 1317.03L673.102 1327.67C671.372 1327.95 669.821 1328.88 668.781 1330.27C667.74 1331.67 667.292 1333.41 667.532 1335.12Z" fill="#EEEFF5"/>
<path d="M759.152 1312.5L779.35 1308.44C780.565 1308.19 781.828 1308.28 782.996 1308.7C784.164 1309.11 785.191 1309.84 785.961 1310.81L810.271 1340.57C811.391 1341.95 811.915 1343.71 811.73 1345.47C811.545 1347.23 810.666 1348.85 809.282 1349.98C808.078 1350.95 806.569 1351.48 805.013 1351.47H764.097C762.463 1351.47 760.885 1350.88 759.651 1349.83C758.417 1348.77 757.612 1347.31 757.382 1345.71L753.738 1320.01C753.504 1318.31 753.934 1316.59 754.94 1315.2C755.946 1313.8 757.452 1312.84 759.152 1312.5Z" fill="#EEEFF5"/>
<path d="M782.109 1287.11L783.202 1264.9C783.29 1263.19 784.04 1261.57 785.299 1260.38C786.558 1259.2 788.229 1258.53 789.969 1258.53H866.076C867.664 1258.53 869.202 1259.08 870.42 1260.08C871.639 1261.09 872.46 1262.49 872.739 1264.03L887.158 1343.55C887.319 1344.42 887.304 1345.3 887.116 1346.16C886.928 1347.02 886.569 1347.83 886.061 1348.56C885.553 1349.28 884.906 1349.89 884.156 1350.37C883.406 1350.84 882.569 1351.16 881.692 1351.31C881.296 1351.37 880.896 1351.41 880.495 1351.42H839.058C838.088 1351.43 837.127 1351.22 836.245 1350.82C835.363 1350.42 834.582 1349.84 833.957 1349.1L783.774 1291.79C783.199 1291.15 782.755 1290.42 782.47 1289.61C782.184 1288.81 782.061 1287.96 782.109 1287.11Z" fill="#EEEFF5"/>
<path d="M892 1266.39L898.975 1305.92C899.28 1307.67 900.274 1309.22 901.738 1310.24C903.202 1311.26 905.017 1311.67 906.784 1311.37C907.653 1311.23 908.485 1310.91 909.23 1310.45L972.635 1270.92C978.361 1267.32 975.81 1258.58 969.043 1258.58H898.663C897.774 1258.58 896.893 1258.75 896.071 1259.09C895.249 1259.42 894.502 1259.91 893.874 1260.53C893.245 1261.15 892.747 1261.89 892.407 1262.7C892.068 1263.52 891.894 1264.38 891.896 1265.26C891.907 1265.64 891.942 1266.02 892 1266.39Z" fill="#EEEFF5"/>
<path d="M904.441 1331.11L906.367 1345.61C906.586 1347.21 907.387 1348.69 908.621 1349.76C909.856 1350.82 911.441 1351.41 913.083 1351.42H1021.1C1021.99 1351.42 1022.87 1351.25 1023.69 1350.91C1024.51 1350.58 1025.26 1350.08 1025.89 1349.46C1026.52 1348.84 1027.02 1348.1 1027.36 1347.29C1027.69 1346.48 1027.87 1345.61 1027.87 1344.73C1027.86 1343.5 1027.52 1342.29 1026.88 1341.24L990.282 1282.79C989.346 1281.29 987.846 1280.21 986.11 1279.8C984.375 1279.39 982.543 1279.67 981.016 1280.58L907.669 1324.53C906.534 1325.19 905.623 1326.17 905.049 1327.34C904.475 1328.51 904.263 1329.82 904.441 1331.11Z" fill="#EEEFF5"/>
<path d="M1064.57 1258.53H1020.11C1018.8 1258.52 1017.51 1258.9 1016.41 1259.61L1004.75 1267.16C1003.25 1268.14 1002.2 1269.65 1001.83 1271.39C1001.46 1273.12 1001.8 1274.93 1002.78 1276.42C1002.78 1276.43 1002.78 1276.44 1002.79 1276.45C1002.8 1276.46 1002.81 1276.47 1002.83 1276.47L1023.03 1306.33C1023.52 1307.07 1024.15 1307.69 1024.88 1308.18C1025.62 1308.67 1026.45 1309.01 1027.32 1309.18C1028.19 1309.36 1029.09 1309.36 1029.96 1309.18C1030.83 1309.01 1031.66 1308.67 1032.4 1308.19L1033.02 1307.72L1064.62 1281.46L1064.57 1258.53Z" fill="#EEEFF5"/>
<path d="M1064.57 1297.13L1038.12 1317.64C1036.79 1318.68 1035.91 1320.16 1035.64 1321.81C1035.37 1323.46 1035.73 1325.14 1036.66 1326.54L1051.14 1348.38C1051.75 1349.32 1052.59 1350.08 1053.58 1350.61C1054.57 1351.14 1055.68 1351.42 1056.81 1351.42H1064.57V1297.13Z" fill="#EEEFF5"/>
<path d="M333.591 659.684L426.078 710.254L550.061 1165.37C550.061 1165.37 547.695 1208.22 544.6 1204.74C526.252 1184.37 456.774 1115.27 451.017 1093.16C443.487 1064.18 452.113 1028.61 427.487 995.248C381.608 946.017 329.539 861.774 292.913 805.432C256.635 767.865 274.2 678.042 333.591 659.684Z" fill="#25215E"/>
<path d="M425.817 709.472L550.061 1165.37L546.235 1167C522.339 1104.84 508.965 1060.06 501.017 1029.67C495.122 1007.07 491.904 991.111 481.887 966.443C469.904 937.012 460.774 921.801 455.365 897.185C451.261 878.515 454.391 849.57 443.296 816.784C438.341 802.316 434.72 787.425 432.478 772.298C428.13 742.067 425.817 709.472 425.817 709.472Z" fill="#686596"/>
<path d="M526.478 1185.45C531.869 1170.5 543.087 1166.32 550.113 1165.07C568.687 1214.81 587.174 1264.25 595.678 1287.06C596.035 1287.88 596.098 1288.81 595.856 1289.68C595.614 1290.55 595.082 1291.31 594.348 1291.83C593.615 1292.35 592.723 1292.61 591.823 1292.56C590.923 1292.51 590.068 1292.15 589.4 1291.54C573.556 1279.08 546.095 1256.15 543.069 1244.83C538.756 1228.84 549.695 1228.59 537.852 1205.87C535.069 1200.45 526.408 1185.67 526.478 1185.45Z" fill="url(#paint0_linear_738_39999)"/>
<path d="M545.087 1166.24C546.676 1165.59 548.352 1165.17 550.061 1165C568.617 1214.74 587.122 1264.18 595.609 1286.99C596.165 1288.52 594.374 1289.98 595.209 1290.9C598.217 1294.29 548.565 1172.57 545.087 1166.24Z" fill="#FFE76C"/>
<path d="M542.982 1218.96C551.817 1219.52 559.243 1232.4 561.226 1243.51C563.209 1254.62 570.948 1265.24 578.461 1266.3C581.939 1266.79 584.409 1264.08 585.956 1261.09L595.626 1286.99C595.996 1287.81 596.069 1288.74 595.833 1289.62C595.596 1290.49 595.065 1291.26 594.328 1291.79C593.591 1292.31 592.695 1292.57 591.791 1292.51C590.886 1292.46 590.029 1292.09 589.365 1291.47C573.487 1279.01 546.043 1256.08 543.017 1244.76C539.869 1232.7 545.243 1229.64 542.982 1218.96Z" fill="#333133"/>
<path d="M554.843 453.492C554.843 453.492 599.574 482.002 611.904 523.463C611.904 523.463 566.687 499.125 554.843 453.492Z" fill="#25215E"/>
<path d="M411.174 469.398C411.174 469.398 404.217 487.495 414.652 491.111C425.087 494.727 438.53 499.542 433.974 516.909L382.495 526.018L378.565 471.345L411.174 469.398Z" fill="#333133"/>
<path d="M600.165 419.437C600.165 419.437 607.122 400.175 610.6 386.824C611.695 387.797 612.558 389.004 613.124 390.355C613.69 391.706 613.945 393.167 613.869 394.63C613.765 398.611 613.069 408.537 613.069 408.537L600.165 419.437Z" fill="url(#paint1_linear_738_39999)"/>
<path d="M602.704 415.873C602.704 415.873 614.756 399.393 621.835 387.589C622.574 388.899 623.029 390.35 623.17 391.848C623.31 393.346 623.134 394.856 622.652 396.281C621.365 400.053 617.835 409.441 617.835 409.441L602.704 415.873Z" fill="url(#paint2_linear_738_39999)"/>
<path d="M554.426 455.63C554.426 455.63 565.765 436.386 576.93 426.981C588.095 417.577 612.913 404.817 623.348 403.078C628.515 402.117 633.747 401.535 639 401.34C638.519 402.511 637.81 403.575 636.914 404.471C636.019 405.366 634.954 406.074 633.782 406.555C628.565 408.293 619.869 410.032 616.391 411.77C614.287 412.831 608.565 420.462 609.434 423.939C610.304 427.416 615.365 428.668 618.13 427.416C620.895 426.164 635.678 418.15 638.756 422.966C638.756 422.966 621.678 437.221 614.652 437.846C607.626 438.472 593.174 439.272 590.53 443.062C587.887 446.851 577.174 475.344 575.991 491.737C576.061 491.841 558.617 472.162 554.426 455.63Z" fill="url(#paint3_linear_738_39999)"/>
<path d="M456.774 625.698C460.982 661.527 454.13 679.346 425.678 709.976C380.043 705.595 349.452 686.264 305.678 672.548C308.565 739.025 280.391 823.946 204.043 815.08C196.6 800.391 189.609 785.527 182.165 770.768C204.078 740.624 227.382 712.758 249.435 682.649C253.748 640.492 268.443 554.893 307.295 532.468C352.043 507.383 422.217 509.556 422.217 509.556L434.391 509.66C464.182 509.347 505.695 539.213 523.087 562.872C523.087 562.872 522.461 510.477 554.843 453.457C567.013 481.498 586.716 505.62 611.765 523.15C611.765 523.15 613.278 529.426 604.913 534.936C596.548 540.447 585.209 539.369 587.991 547.609C590.774 555.849 602.13 554.128 599.974 579.926C597.817 605.724 581.608 667.994 527.435 667.994C479.574 667.994 458.861 629.227 458.861 629.227L456.774 625.698Z" fill="url(#paint4_linear_738_39999)"/>
<path d="M483.608 527.948C511.434 555.762 522.565 596.493 522.565 596.493C521.973 585.488 522.083 574.455 522.895 563.464C514.182 551.677 499.678 538.396 483.608 527.948Z" fill="#25215E"/>
<path d="M450.843 676.338C445.922 686.769 429.504 706.43 425.678 710.254C419.409 709.874 413.184 708.961 407.069 707.525C460.704 675.26 456.774 625.977 456.774 625.977C456.774 625.977 461.748 653.409 450.843 676.338Z" fill="url(#paint5_linear_738_39999)"/>
<path d="M281.383 1197.63C267.696 1176.3 257.296 999.629 239.783 881.47C217.904 733.636 310.304 688.924 310.304 688.924L384.269 780.816C384.269 780.816 384.896 834.707 353.539 891.309C305.939 977.204 335.417 971.276 338.774 1051.59C339.852 1077.84 311.4 1166.46 303.191 1195.44C301.261 1202.52 294.652 1218.25 281.383 1197.63Z" fill="#25215E"/>
<path d="M185.522 796.201C192.13 809.048 204.217 816.384 204.217 815.324C204.217 812.525 203.8 803.068 197.261 790.238C190.722 777.409 185.383 772.646 182.096 771.012C181.721 771.756 181.44 772.545 181.261 773.359C180.322 777.461 180.461 786.379 185.522 796.201Z" fill="#333133"/>
<path d="M174.061 782.276L134.409 787.822C134.409 787.822 133.487 791.299 138.078 791.82L120.426 800.373C120.426 800.373 120.635 804.754 127.382 803.659L120.165 809.865C120.165 809.865 123.452 813.255 129.835 810.23C136.217 807.205 149.713 797.331 149.713 797.331L145.348 804.841C146.927 805.793 148.821 806.078 150.611 805.635C152.402 805.192 153.943 804.056 154.895 802.477C158.913 796.757 163.33 794.428 167.156 796.079C169.452 797.053 174.617 801.138 181.069 800.356C184.548 799.939 187.417 797.87 190.652 795.471C192.941 793.771 195.02 791.804 196.843 789.612C195.024 785.731 192.834 782.035 190.304 778.574C188.994 776.8 187.527 775.148 185.922 773.637C184.725 772.522 183.446 771.499 182.095 770.577C180.546 775.142 177.765 779.19 174.061 782.276Z" fill="url(#paint6_linear_738_39999)"/>
<path d="M273.974 1171.33L314.756 1154.42C307.643 1180.13 303.469 1204.15 306.913 1213.52C312.93 1229.93 315.122 1238.14 310.739 1245.25H241.174C241.174 1245.25 241.174 1236.23 252.391 1234.3C263.609 1232.37 282.217 1229.93 277.556 1196.56C276.809 1190.96 275.522 1182.21 273.974 1171.33Z" fill="url(#paint7_linear_738_39999)"/>
<path d="M252.408 1234.23C261.487 1232.7 275.382 1230.75 277.904 1212.46C287.313 1215.42 283.869 1231.71 283.869 1231.71C294.304 1222.42 302.808 1220.39 309.156 1220.06C313.313 1232.23 314.374 1239.18 310.634 1245.23H241.243C241.243 1245.23 241.243 1236.14 252.408 1234.23Z" fill="#333133"/>
<path d="M427.487 995.249C435.296 1000.86 450.791 1027.17 452.652 1036.27C461.174 1078 445.695 1085.14 526.165 1184.79C497.104 1154.28 452.496 1108.12 451.017 1093.16C443.348 1070.73 445.73 1017.26 427.487 995.249Z" fill="#151244"/>
<path d="M352.756 513.345C353.518 497.258 356.353 481.336 361.191 465.974C357.243 455.821 395.974 480.455 390.756 480.472C388.6 486.626 391.626 501.333 392.861 509.243C403 509.399 413.052 509.243 423.226 509.921C412.513 527.861 397.139 542.568 375.365 545.297C353.591 548.026 339.869 540.534 329.956 522.42C329.887 522.315 345.643 516.074 352.756 513.345Z" fill="url(#paint8_linear_738_39999)"/>
<path d="M337.191 826.223C335.452 827.684 341.574 867.25 362.861 911.996C361.278 909.91 351.191 894.612 351.417 895.255C351.417 895.255 335 924.13 329.747 944.696C324.913 963.696 326.774 969.033 328.895 985.409C328.895 985.409 341.556 1034.64 338.808 1057.07C334.217 1090.27 326.149 1122.9 314.739 1154.42C315.069 1153.36 315.4 1152.31 315.713 1151.25C328.549 1109.13 333.033 1064.91 328.913 1021.06C327.052 1000.93 323.174 983.045 322.391 968.46C321.687 957.107 322.424 945.711 324.582 934.543C326.774 924.113 328.408 917.594 335.017 897.359C342.113 875.455 332.808 838.809 337.191 826.223Z" fill="#151244"/>
<path d="M240.339 795.593C234.635 768.091 239.591 750.394 245.556 739.251C259.469 712.723 284.443 711.576 289.33 687.29C292.704 670.514 284.913 664.795 286.043 642.439C286.832 629.088 290.562 616.076 296.965 604.333C297.227 603.768 297.694 603.322 298.271 603.086C298.849 602.85 299.494 602.842 300.078 603.062C300.661 603.282 301.14 603.715 301.417 604.273C301.695 604.831 301.751 605.474 301.574 606.072C296.581 628.97 299.8 652.895 310.669 673.661C309.414 679.762 307.753 685.773 305.695 691.653C293.84 701.285 283.184 712.304 273.956 724.474C258.008 745.636 246.567 769.84 240.339 795.593Z" fill="url(#paint9_linear_738_39999)"/>
<path d="M390.148 489.286L378.478 477.83C382.398 479.444 386.572 480.356 390.808 480.524C390.687 481.254 390.6 482.002 390.513 482.767C390.271 484.931 390.149 487.108 390.148 489.286Z" fill="#333133"/>
<path d="M368.513 480.229C368.513 480.229 400.826 482.176 410.043 478.282C419.261 474.388 417 464.965 417 464.965L426.096 462.74C426.096 462.74 425.487 435.83 399.452 426.668C373.417 417.507 353.574 460.533 368.513 480.229Z" fill="#F9D039"/>
<path d="M390.495 458.864C390.275 458.859 390.066 458.77 389.91 458.614C389.754 458.459 389.665 458.249 389.661 458.029C389.666 457.8 389.759 457.582 389.922 457.421C390.043 457.317 401.104 447.182 413.069 455.404C413.233 455.536 413.34 455.725 413.371 455.932C413.401 456.14 413.352 456.351 413.234 456.524C413.115 456.697 412.936 456.82 412.732 456.866C412.527 456.913 412.312 456.882 412.13 456.778C401.261 449.302 391.174 458.516 391.069 458.638C390.911 458.779 390.708 458.859 390.495 458.864Z" fill="#333133"/>
<path d="M411.174 440.211L412.061 445.426C412.078 445.549 412.07 445.675 412.038 445.795C412.006 445.916 411.951 446.029 411.874 446.127C411.798 446.226 411.703 446.309 411.595 446.37C411.487 446.432 411.367 446.471 411.243 446.486H410.948C407.47 445.826 397.4 444.209 390.461 446.26C390.322 446.311 390.17 446.304 390.036 446.242C389.902 446.181 389.799 446.068 389.748 445.93C389.719 445.873 389.701 445.811 389.697 445.747C389.693 445.684 389.701 445.62 389.722 445.56C389.744 445.5 389.777 445.444 389.82 445.397C389.863 445.35 389.916 445.313 389.974 445.287C395.918 441.007 403.194 438.985 410.496 439.585C410.658 439.611 410.809 439.684 410.929 439.795C411.05 439.907 411.135 440.051 411.174 440.211Z" fill="#333133"/>
<path d="M397.052 467.017L408.148 470.076C408.148 470.076 403.887 475.17 399.887 473.553C395.887 471.937 397.052 467.017 397.052 467.017Z" fill="#FF8F91"/>
<path d="M397.052 467.017L408.148 470.076C408.148 470.076 403.887 475.17 399.887 473.553C395.887 471.937 397.052 467.017 397.052 467.017Z" fill="#E53E41"/>
<path d="M379.226 480.333C379.226 480.333 391.4 484.523 392.043 502.167C392.043 502.167 394.548 480.663 389.226 480.663C383.904 480.663 379.226 480.333 379.226 480.333Z" fill="#333133"/>
<path d="M272.043 580.396C272.043 580.396 252.913 548.27 261.295 533.285C269.678 518.3 277.4 525.236 284.113 513.589C290.826 501.941 290.565 493.875 310.2 482.784C329.834 471.693 335.243 460.028 338.234 452.258C341.226 444.487 351.678 428.163 376.269 424.617C401.713 420.845 414.652 436.108 414.652 436.108C414.652 436.108 400.374 429.502 388.217 439.498C376.06 449.494 381.052 470.181 371.956 478.177C362.86 486.174 355.521 485.322 355.521 498.691C355.521 509.121 352.756 513.345 352.756 513.345C352.756 513.345 322.008 525.34 312.043 529.982C285.956 542.151 272.043 580.969 272.043 580.969" fill="#333133"/>
<path d="M1088.03 1047.93L1086.79 973.242C1086.79 971.96 1086.4 970.708 1085.68 969.649C1084.96 968.59 1083.93 967.775 1082.74 967.31C1065.83 960.64 1057.08 951.97 1052.52 944.701C1051.09 939.823 1049.46 935.041 1047.61 930.357C1021.33 863.307 953.642 817.228 867.924 817.228C805.833 817.228 746.418 841.419 701.224 880.192C700.674 879.213 700.125 878.262 699.515 877.328C698.269 875.357 696.916 873.458 695.46 871.637C692.572 867.925 689.221 864.599 685.487 861.74C681.615 858.783 677.277 856.494 672.651 854.967C667.756 853.4 662.608 852.776 657.48 853.125C656.041 853.204 654.607 853.357 653.183 853.581C650.893 850.338 647.796 847.75 644.199 846.071C639.771 844.037 634.77 843.421 629.913 843.723C625.057 844.069 620.281 845.156 615.753 846.945C618.063 846.553 620.392 846.291 622.731 846.159C624.979 846.053 627.231 846.145 629.462 846.434C633.585 846.938 637.501 848.528 640.809 851.041C642.501 852.342 644.024 853.849 645.342 855.528C638.851 857.76 632.951 861.439 628.089 866.287C626.077 868.29 624.284 870.501 622.742 872.885C621.173 875.272 619.937 877.862 619.066 880.582C618.178 883.314 617.82 886.189 618.011 889.055C618.208 891.855 619.11 894.56 620.632 896.917C622.117 899.158 624.106 901.019 626.44 902.349C627.547 903.001 628.709 903.552 629.913 903.999C630.506 904.235 631.111 904.417 631.71 904.615C632.309 904.813 633.001 904.978 633.677 905.11C635.092 905.398 636.536 905.518 637.979 905.467C639.547 905.398 641.097 905.116 642.589 904.631C644.14 904.112 645.618 903.395 646.985 902.498C648.302 901.603 649.519 900.571 650.617 899.419C651.651 898.319 652.595 897.139 653.441 895.889C654.219 894.694 654.917 893.449 655.53 892.161C656.702 889.719 657.612 887.159 658.244 884.525C659.43 879.586 659.732 874.476 659.134 869.432C658.853 867.097 658.356 864.793 657.65 862.549C665.192 862.616 672.46 865.382 678.14 870.345C681.133 872.911 683.781 875.853 686.02 879.098C687.159 880.74 688.206 882.443 689.157 884.2C689.63 885.08 690.086 885.971 690.504 886.867L691.108 888.208L691.388 888.874C691.388 888.923 691.427 888.978 691.449 889.033C654.095 924.545 628.089 970.537 621.033 1020.82C612.412 1082.18 633.82 1137.22 674.657 1174.54C676.64 1176.36 678.684 1178.12 680.761 1179.86C685.707 1185.52 691.449 1196.11 689.004 1213.47L685.157 1240.77C685.08 1241.2 685.098 1241.64 685.209 1242.05C685.321 1242.47 685.524 1242.86 685.803 1243.18C686.082 1243.51 686.431 1243.78 686.824 1243.95C687.216 1244.13 687.644 1244.22 688.075 1244.21L776.046 1245.14C776.824 1245.13 777.582 1244.89 778.231 1244.46C778.88 1244.03 779.393 1243.43 779.711 1242.72L788.409 1223.3C795.703 1224 803.146 1224.36 810.74 1224.36C818.334 1224.37 825.88 1224.01 833.378 1223.3L836.615 1242.68C836.728 1243.38 837.094 1244.01 837.644 1244.46C838.195 1244.91 838.89 1245.13 839.599 1245.1L927.811 1244.18C928.756 1244.14 929.658 1243.78 930.365 1243.15C931.072 1242.52 931.541 1241.67 931.691 1240.74L935.537 1213.43C937.955 1196.23 946.527 1185.68 953.049 1179.98C986.6 1157.37 1014.56 1127.35 1033.4 1092.88L1033.47 1092.8C1041.16 1082.91 1066.44 1068.52 1079.78 1061.36C1084.85 1058.63 1088.13 1053.29 1088.03 1047.93ZM650.617 883.76C649.667 887.818 647.908 891.865 645.326 894.575C642.743 897.286 639.677 898.248 636.237 897.517C635.809 897.423 635.391 897.302 634.952 897.181C634.512 897.06 634.05 896.873 633.622 896.692C632.778 896.353 631.965 895.941 631.193 895.46C629.753 894.606 628.534 893.425 627.633 892.013C625.924 889.319 625.781 885.734 627.012 882.116C628.243 878.499 630.682 874.903 633.77 871.989C638.23 867.781 643.731 864.84 649.705 863.467C650.595 866.008 651.171 868.648 651.419 871.329C651.833 875.489 651.562 879.688 650.617 883.76Z" fill="#F97274"/>
<path d="M698.856 882.606C697.29 879.637 696.356 877.416 694.905 875.596C692.015 871.886 688.663 868.56 684.932 865.699C681.062 862.737 676.723 860.443 672.096 858.914C667.2 857.342 662.051 856.712 656.92 857.056C645.847 857.727 635.4 862.419 627.539 870.252C625.526 872.254 623.732 874.466 622.187 876.849L622.143 876.921C619.925 880.379 618.538 884.305 618.094 888.39L618.017 889.083C617.827 886.219 618.185 883.345 619.072 880.616C619.942 877.895 621.179 875.305 622.748 872.918C624.29 870.535 626.082 868.323 628.094 866.32C635.957 858.488 646.406 853.796 657.48 853.125C662.609 852.781 667.757 853.411 672.651 854.983C677.277 856.51 681.615 858.8 685.487 861.757C689.221 864.615 692.573 867.941 695.46 871.654C696.917 873.465 698.272 875.356 699.521 877.317C700.114 878.251 700.686 879.203 701.235 880.181L698.856 882.606Z" fill="#FF8F91"/>
<path d="M621.034 1020.82C612.412 1082.18 633.82 1137.22 674.657 1174.54C676.641 1176.36 678.685 1178.12 680.762 1179.86C685.707 1185.52 691.449 1196.11 689.004 1213.47L685.157 1240.77C685.08 1241.2 685.098 1241.64 685.209 1242.05C685.321 1242.47 685.524 1242.86 685.803 1243.18C686.082 1243.51 686.431 1243.78 686.824 1243.95C687.217 1244.13 687.644 1244.22 688.075 1244.21L776.046 1245.14C776.824 1245.13 777.582 1244.89 778.231 1244.46C778.88 1244.03 779.393 1243.43 779.711 1242.72L788.409 1223.3C795.703 1224 803.146 1224.36 810.74 1224.36C818.334 1224.37 825.88 1224.01 833.379 1223.3L836.615 1242.68C836.728 1243.38 837.094 1244.01 837.644 1244.46C838.195 1244.91 838.89 1245.14 839.599 1245.1L927.812 1244.18C928.756 1244.14 929.658 1243.78 930.365 1243.15C931.072 1242.52 931.541 1241.67 931.691 1240.74L935.537 1213.43C937.955 1196.23 946.527 1185.68 953.049 1179.98C986.6 1157.37 1014.56 1127.35 1033.4 1092.88C1033.42 1092.85 1033.45 1092.83 1033.47 1092.8C1046.53 1078.75 1077.37 1062.68 1077.15 1062.78C1066.87 1067.85 1059.5 1063.88 1055.37 1051.01C995.26 1175.83 721.549 1277.86 621.034 1020.82Z" fill="#F05659"/>
<path d="M839.774 822.022C815.246 824.37 791.003 835.531 772.436 853.878C752.611 873.44 736.522 903.411 751.468 945.015C781.359 1028.22 949.829 1104.5 1056.53 1007.42L1079.33 1028.65C1080.32 1029.56 1082.08 1028.65 1082.14 1027.23L1083.24 974.314C1083.28 973.56 1083.1 972.81 1082.74 972.146C1082.39 971.482 1081.85 970.927 1081.2 970.543L1060.95 958.738C1060.75 958.641 1060.54 958.587 1060.31 958.579C1060.09 958.571 1059.87 958.609 1059.66 958.692C1059.46 958.774 1059.27 958.898 1059.11 959.057C1058.96 959.215 1058.84 959.404 1058.76 959.612L1054.68 969.311C1054.56 969.586 1054.17 969.597 1054.13 969.311C1052.01 955.863 1023.46 804.434 839.774 822.022Z" fill="#FF8F91"/>
<path d="M893.854 868.74C893.854 868.74 848.577 921.522 890.585 954.565C932.592 987.609 971.451 971.763 971.451 971.763L893.854 868.74Z" fill="#F05659"/>
<path d="M893.854 868.74C893.854 868.74 941.142 807.634 1050.43 808.959C1070.5 809.3 1045.92 839.099 1039.33 847.935C1011.28 885.564 989.715 919.256 971.451 971.763C971.451 971.763 877.122 973.743 893.854 868.74Z" fill="#FF837F"/>
<path d="M953.802 954.098C954.412 954.246 955.03 954.356 955.654 954.428C965.445 955.599 975.567 949.1 979.594 939.434C1000.29 889.748 1057.64 826.734 1047.47 818.218C1042.03 813.654 998.018 832.084 966.149 856.605C934.708 880.797 916.459 911.24 935.378 940.292C939.944 947.308 946.082 952.091 953.802 954.098Z" fill="#FF9692"/>
<path d="M809.416 835.465L808.146 830.687C810.3 830.138 861.374 816.794 905.838 830.715L904.36 835.438C861.275 821.951 809.921 835.328 809.416 835.465Z" fill="#333133"/>
<path d="M1039.49 964.496C1042.84 964.155 1045.06 958.94 1044.44 952.846C1043.82 946.753 1040.6 942.09 1037.25 942.43C1033.9 942.771 1031.68 947.986 1032.3 954.08C1032.92 960.173 1036.14 964.837 1039.49 964.496Z" fill="#333133"/>
<path opacity="0.15" d="M649.683 863.456C650.879 866.74 651.525 870.199 651.595 873.693C651.826 882.49 649.249 897.467 637.787 897.726C637.787 897.726 649.738 902.339 654.304 882.606C655.793 875.948 655.413 869.009 653.205 862.554L649.683 863.456Z" fill="#333133"/>
<path d="M749.955 584.763C769.997 564.721 769.997 532.226 749.955 512.184C729.912 492.142 697.416 492.142 677.374 512.184C657.331 532.226 657.331 564.721 677.374 584.763C697.416 604.805 729.912 604.805 749.955 584.763Z" fill="#25215E"/>
<path d="M712.79 505.802L731.446 500.361C730.319 499.934 729.153 499.564 727.987 499.215L712.207 503.82L712.79 505.802Z" fill="#686596"/>
<path d="M742.6 506.133L717.804 513.361L718.387 515.344L744.738 507.668C744.038 507.124 743.319 506.618 742.6 506.133Z" fill="#686596"/>
<path d="M752.122 514.508L728.686 521.348L729.269 523.33L753.58 516.237C753.113 515.654 752.627 515.071 752.122 514.508Z" fill="#686596"/>
<path d="M758.633 523.777L739.569 529.335L740.152 531.317L759.604 525.643C759.293 525.021 758.982 524.399 758.633 523.777Z" fill="#686596"/>
<path d="M745.943 540.8L763.355 535.728C763.219 535.203 763.083 534.679 762.927 534.135L762.811 533.727L745.36 538.818L745.943 540.8Z" fill="#686596"/>
<path d="M727.209 555.277L727.792 557.259L764.948 546.435C764.929 545.736 764.871 545.036 764.812 544.317L727.209 555.277Z" fill="#686596"/>
<path d="M730.222 565.576L730.805 567.558L764.132 557.842C764.268 557.084 764.385 556.346 764.501 555.588L730.222 565.576Z" fill="#686596"/>
<path d="M733.214 575.856L733.797 577.838L760.187 570.143C760.557 569.327 760.926 568.51 761.256 567.675L733.214 575.856Z" fill="#686596"/>
<path d="M736.226 586.155L736.809 588.137L750.645 584.095C751.539 583.162 752.414 582.191 753.23 581.2L736.226 586.155Z" fill="#686596"/>
<path d="M702.336 603.101C730.68 603.101 753.658 580.123 753.658 551.78C753.658 523.436 730.68 500.459 702.336 500.459C673.991 500.459 651.013 523.436 651.013 551.78C651.013 580.123 673.991 603.101 702.336 603.101Z" fill="#F9D039"/>
<path d="M687.974 502.538C683.394 503.877 679.02 505.838 674.974 508.367L655.929 573.757C660.927 584.333 669.397 592.879 679.929 597.97L708.204 500.789C701.411 500.026 694.535 500.62 687.974 502.538Z" fill="#FFE76C"/>
<path d="M707.776 602.847L734.322 511.651C730.05 508.248 725.261 505.551 720.136 503.665L691.511 601.973C696.85 603.138 702.343 603.433 707.776 602.847Z" fill="#FFE76C"/>
<path d="M726.012 575.455C739.088 562.379 739.088 541.18 726.012 528.104C712.936 515.029 691.735 515.029 678.659 528.104C665.584 541.18 665.584 562.379 678.659 575.455C691.735 588.53 712.936 588.53 726.012 575.455Z" fill="#FFB08F"/>
<path d="M715.122 520.862L696.524 584.775C701.587 585.666 706.787 585.38 711.721 583.94C712.304 583.765 712.887 583.59 713.451 583.376L728.667 531.103C725.096 526.593 720.434 523.069 715.122 520.862Z" fill="#FF8658"/>
<path d="M692.968 519.677C675.226 524.846 665.024 543.423 670.193 561.184C672.545 569.252 677.845 576.139 685.04 580.481L703.132 518.355C699.695 518.259 696.265 518.705 692.968 519.677Z" fill="#FF8658"/>
<path d="M629.821 406.213L730.182 406.141C730.929 406.143 731.644 406.417 732.172 406.903C732.7 407.389 732.997 408.047 732.998 408.733L733 418.479C732.998 419.166 732.7 419.824 732.171 420.309C731.642 420.794 730.926 421.067 730.179 421.068L629.819 421.14C629.072 421.138 628.356 420.864 627.828 420.378C627.3 419.893 627.003 419.235 627.002 418.548L627 408.802C627.002 408.115 627.3 407.457 627.829 406.972C628.358 406.487 629.074 406.214 629.821 406.213Z" fill="#F9D039"/>
<path d="M636.954 406.208H634.541V421.138H636.954V406.208Z" fill="#FFE76C"/>
<path d="M649.808 406.189H647.395V421.119H649.808V406.189Z" fill="#FFE76C"/>
<path d="M662.663 406.188H660.25V421.118H662.663V406.188Z" fill="#FFE76C"/>
<path d="M675.517 406.17H673.104V421.099H675.517V406.17Z" fill="#FFE76C"/>
<path d="M688.372 406.168H685.959V421.098H688.372V406.168Z" fill="#FFE76C"/>
<path d="M701.246 406.149H698.833V421.079H701.246V406.149Z" fill="#FFE76C"/>
<path d="M714.1 406.148H711.687V421.077H714.1V406.148Z" fill="#FFE76C"/>
<path d="M726.954 406.147H724.541V421.077H726.954V406.147Z" fill="#FFE76C"/>
<path d="M886.955 812.763C906.997 792.721 906.997 760.226 886.955 740.184C866.912 720.142 834.416 720.142 814.374 740.184C794.331 760.226 794.331 792.721 814.374 812.763C834.416 832.805 866.912 832.805 886.955 812.763Z" fill="#25215E"/>
<path d="M849.79 733.802L868.446 728.361C867.319 727.934 866.153 727.564 864.987 727.215L849.207 731.82L849.79 733.802Z" fill="#686596"/>
<path d="M879.6 734.133L854.804 741.361L855.387 743.344L881.738 735.668C881.038 735.124 880.319 734.618 879.6 734.133Z" fill="#686596"/>
<path d="M889.122 742.508L865.686 749.348L866.269 751.33L890.58 744.237C890.113 743.654 889.627 743.071 889.122 742.508Z" fill="#686596"/>
<path d="M895.633 751.777L876.569 757.335L877.152 759.317L896.604 753.643C896.293 753.021 895.982 752.399 895.633 751.777Z" fill="#686596"/>
<path d="M882.943 768.8L900.355 763.728C900.219 763.203 900.083 762.679 899.927 762.135L899.811 761.727L882.36 766.818L882.943 768.8Z" fill="#686596"/>
<path d="M864.209 783.277L864.792 785.259L901.948 774.435C901.929 773.736 901.871 773.036 901.812 772.317L864.209 783.277Z" fill="#686596"/>
<path d="M867.222 793.576L867.805 795.558L901.132 785.842C901.268 785.084 901.385 784.346 901.501 783.588L867.222 793.576Z" fill="#686596"/>
<path d="M870.214 803.856L870.797 805.838L897.187 798.143C897.557 797.327 897.926 796.51 898.256 795.675L870.214 803.856Z" fill="#686596"/>
<path d="M873.226 814.155L873.809 816.137L887.645 812.095C888.539 811.162 889.414 810.191 890.23 809.2L873.226 814.155Z" fill="#686596"/>
<path d="M839.336 831.101C867.68 831.101 890.658 808.123 890.658 779.78C890.658 751.436 867.68 728.459 839.336 728.459C810.991 728.459 788.013 751.436 788.013 779.78C788.013 808.123 810.991 831.101 839.336 831.101Z" fill="#F9D039"/>
<path d="M824.974 730.538C820.394 731.877 816.02 733.838 811.974 736.367L792.929 801.757C797.927 812.333 806.397 820.879 816.929 825.97L845.204 728.789C838.411 728.026 831.535 728.62 824.974 730.538Z" fill="#FFE76C"/>
<path d="M844.776 830.847L871.322 739.651C867.05 736.248 862.261 733.551 857.136 731.665L828.511 829.973C833.85 831.138 839.343 831.433 844.776 830.847Z" fill="#FFE76C"/>
<path d="M863.012 803.455C876.088 790.379 876.088 769.18 863.012 756.104C849.936 743.029 828.735 743.029 815.659 756.104C802.584 769.18 802.584 790.379 815.659 803.455C828.735 816.53 849.936 816.53 863.012 803.455Z" fill="#FFB08F"/>
<path d="M852.122 748.862L833.524 812.775C838.587 813.666 843.787 813.38 848.721 811.94C849.304 811.765 849.887 811.59 850.451 811.376L865.667 759.103C862.096 754.593 857.434 751.069 852.122 748.862Z" fill="#FF8658"/>
<path d="M829.968 747.677C812.226 752.846 802.024 771.423 807.193 789.184C809.545 797.252 814.845 804.139 822.04 808.481L840.132 746.355C836.695 746.259 833.265 746.705 829.968 747.677Z" fill="#FF8658"/>
<defs>
<linearGradient id="paint0_linear_738_39999" x1="502.372" y1="1341.99" x2="642.048" y2="1204.33" gradientUnits="userSpaceOnUse">
<stop stop-color="#FF8658"/>
<stop offset="0.341103" stop-color="#FF9A72"/>
<stop offset="1" stop-color="#FFE76C"/>
</linearGradient>
<linearGradient id="paint1_linear_738_39999" x1="595.409" y1="432.078" x2="629.839" y2="405.904" gradientUnits="userSpaceOnUse">
<stop stop-color="#FF8658"/>
<stop offset="0.341103" stop-color="#FF9A72"/>
<stop offset="1" stop-color="#FFE76C"/>
</linearGradient>
<linearGradient id="paint2_linear_738_39999" x1="595.592" y1="426.836" x2="625.481" y2="387.659" gradientUnits="userSpaceOnUse">
<stop stop-color="#FF8658"/>
<stop offset="0.341103" stop-color="#FF9A72"/>
<stop offset="1" stop-color="#FFE76C"/>
</linearGradient>
<linearGradient id="paint3_linear_738_39999" x1="525.101" y1="526.778" x2="611.896" y2="380.015" gradientUnits="userSpaceOnUse">
<stop stop-color="#FF8658"/>
<stop offset="0.341103" stop-color="#FF9A72"/>
<stop offset="1" stop-color="#FFE76C"/>
</linearGradient>
<linearGradient id="paint4_linear_738_39999" x1="397.043" y1="815.719" x2="397.043" y2="453.493" gradientUnits="userSpaceOnUse">
<stop stop-color="#EAE9F7"/>
<stop offset="0.510417" stop-color="#8B89C2"/>
<stop offset="1" stop-color="#686596"/>
</linearGradient>
<linearGradient id="paint5_linear_738_39999" x1="432.49" y1="710.254" x2="432.49" y2="625.985" gradientUnits="userSpaceOnUse">
<stop stop-color="#EAE9F7"/>
<stop offset="0.510417" stop-color="#8B89C2"/>
<stop offset="1" stop-color="#686596"/>
</linearGradient>
<linearGradient id="paint6_linear_738_39999" x1="93.5782" y1="827.343" x2="117.92" y2="744.883" gradientUnits="userSpaceOnUse">
<stop stop-color="#FF8658"/>
<stop offset="0.341103" stop-color="#FF9A72"/>
<stop offset="1" stop-color="#FFE76C"/>
</linearGradient>
<linearGradient id="paint7_linear_738_39999" x1="215.66" y1="1280.46" x2="308.363" y2="1144.73" gradientUnits="userSpaceOnUse">
<stop stop-color="#FF8658"/>
<stop offset="0.341103" stop-color="#FF9A72"/>
<stop offset="1" stop-color="#FFE76C"/>
</linearGradient>
<linearGradient id="paint8_linear_738_39999" x1="297.616" y1="577.753" x2="368.75" y2="432.093" gradientUnits="userSpaceOnUse">
<stop stop-color="#FF8658"/>
<stop offset="0.341103" stop-color="#FF9A72"/>
<stop offset="1" stop-color="#FFE76C"/>
</linearGradient>
<linearGradient id="paint9_linear_738_39999" x1="274.249" y1="795.592" x2="274.249" y2="602.922" gradientUnits="userSpaceOnUse">
<stop stop-color="#EAE9F7"/>
<stop offset="0.510417" stop-color="#8B89C2"/>
<stop offset="1" stop-color="#686596"/>
</linearGradient>
</defs>
</svg>
