<svg width="1618" height="929" viewBox="0 0 1618 929" fill="none" xmlns="http://www.w3.org/2000/svg">
<path d="M779.05 758.438L1227.66 758.088C1230.99 758.098 1234.19 759.429 1236.55 761.789C1238.91 764.149 1240.24 767.347 1240.24 770.682L1240.25 818.021C1240.24 821.356 1238.91 824.551 1236.55 826.907C1234.18 829.263 1230.98 830.589 1227.64 830.594L779.038 830.944C775.699 830.934 772.499 829.603 770.14 827.243C767.781 824.883 766.453 821.686 766.449 818.351L766.439 771.012C766.449 767.677 767.781 764.481 770.145 762.125C772.508 759.768 775.71 758.443 779.05 758.438Z" fill="#F9D039"/>
<path d="M741.152 685.961L1189.76 685.611C1193.1 685.621 1196.3 686.952 1198.66 689.312C1201.02 691.672 1202.34 694.87 1202.35 698.205L1202.36 745.543C1202.35 748.879 1201.01 752.074 1198.65 754.43C1196.29 756.786 1193.09 758.112 1189.75 758.116L741.141 758.467C737.801 758.457 734.602 757.126 732.242 754.766C729.883 752.405 728.556 749.208 728.551 745.873L728.542 698.534C728.552 695.199 729.884 692.004 732.248 689.647C734.611 687.291 737.813 685.966 741.152 685.961Z" fill="#F9D039"/>
<path d="M708.723 613.522L1157.33 613.171C1160.67 613.182 1163.87 614.512 1166.23 616.873C1168.59 619.233 1169.91 622.43 1169.92 625.765L1169.93 673.104C1169.92 676.439 1168.58 679.634 1166.22 681.991C1163.86 684.347 1160.66 685.672 1157.32 685.677L708.821 685.971C705.481 685.96 702.281 684.629 699.922 682.269C697.562 679.908 696.235 676.71 696.231 673.374L696.222 626.035C696.219 622.721 697.535 619.541 699.879 617.194C702.223 614.848 705.405 613.527 708.723 613.522Z" fill="#F9D039"/>
<path d="M749.39 540.961L1198 540.61C1201.34 540.621 1204.53 541.951 1206.89 544.312C1209.25 546.672 1210.58 549.869 1210.59 553.204L1210.59 600.543C1210.58 603.878 1209.25 607.073 1206.89 609.43C1204.53 611.786 1201.32 613.111 1197.98 613.116L749.379 613.467C746.04 613.457 742.841 612.126 740.481 609.767C738.122 607.407 736.794 604.211 736.789 600.876L736.78 553.537C736.789 550.202 738.121 547.005 740.485 544.648C742.848 542.291 746.05 540.965 749.39 540.961Z" fill="#F9D039"/>
<path d="M944.68 540.845L1155.74 830.691L779.014 831.028L944.68 540.845Z" fill="#FF8658"/>
<path d="M810.933 758.413H800.146V830.929H810.933V758.413Z" fill="#FFE76C"/>
<path d="M800.061 794.181L800.022 831.017L810.9 830.983L810.869 775.247L800.061 794.181Z" fill="#D6B328"/>
<path d="M868.39 758.406H857.604V830.922H868.39V758.406Z" fill="#D6B328"/>
<path d="M925.851 758.314H915.064V830.83H925.851V758.314Z" fill="#D6B328"/>
<path d="M983.311 758.219H972.525V830.735H983.311V758.219Z" fill="#D6B328"/>
<path d="M1040.77 758.216H1029.98V830.733H1040.77V758.216Z" fill="#D6B328"/>
<path d="M1098.23 758.209H1087.44V830.726H1098.23V758.209Z" fill="#D6B328"/>
<path d="M773.032 685.944H762.246V758.46H773.032V685.944Z" fill="#FFE76C"/>
<path d="M830.495 685.848H819.708V758.365H830.495V685.848Z" fill="#FFE76C"/>
<path d="M887.953 685.846H877.167V758.363H887.953V685.846Z" fill="#D6B328"/>
<path d="M945.41 685.839H934.624V758.356H945.41V685.839Z" fill="#D6B328"/>
<path d="M740.616 613.515H729.829V686.031H740.616V613.515Z" fill="#FFE76C"/>
<path d="M798.076 613.42H787.29V685.937H798.076V613.42Z" fill="#FFE76C"/>
<path d="M855.62 613.415H844.834V685.931H855.62V613.415Z" fill="#FFE76C"/>
<path d="M913.079 613.32H902.292V685.837H913.079V613.32Z" fill="#D6B328"/>
<path d="M781.271 540.94H770.484V613.457H781.271V540.94Z" fill="#FFE76C"/>
<path d="M838.731 540.848H827.945V613.364H838.731V540.848Z" fill="#FFE76C"/>
<path d="M896.189 540.843H885.403V613.36H896.189V540.843Z" fill="#FFE76C"/>
<path d="M1155.77 758.114H1144.99V830.63H1155.77V758.114Z" fill="#FFE76C"/>
<path d="M1213.23 758.11H1202.45V830.626H1213.23V758.11Z" fill="#FFE76C"/>
<path d="M1002.96 685.746H992.171V758.263H1002.96V685.746Z" fill="#D6B328"/>
<path d="M1060.42 685.74H1049.63V758.256H1060.42V685.74Z" fill="#FFE76C"/>
<path d="M1117.87 685.647H1107.09V758.164H1117.87V685.647Z" fill="#FFE76C"/>
<path d="M1175.33 685.64H1164.54V758.157H1175.33V685.64Z" fill="#FFE76C"/>
<path d="M970.538 613.315H959.752V685.831H970.538V613.315Z" fill="#FFE76C"/>
<path d="M1028 613.223H1017.21V685.74H1028V613.223Z" fill="#FFE76C"/>
<path d="M1085.45 613.219H1074.67V685.735H1085.45V613.219Z" fill="#FFE76C"/>
<path d="M1142.91 613.124H1132.13V685.64H1142.91V613.124Z" fill="#FFE76C"/>
<path d="M953.649 540.751H942.863V613.268H953.649V540.751Z" fill="#FFE76C"/>
<path d="M1011.11 540.743H1000.32V613.26H1011.11V540.743Z" fill="#FFE76C"/>
<path d="M1068.66 540.651H1057.87V613.168H1068.66V540.651Z" fill="#FFE76C"/>
<path d="M1126.11 540.645H1115.33V613.161H1126.11V540.645Z" fill="#FFE76C"/>
<path d="M1183.57 540.642H1172.78V613.158H1183.57V540.642Z" fill="#FFE76C"/>
<path d="M830.533 758.52L830.459 740.896L820.403 758.498L830.533 758.52Z" fill="#D6B328"/>
<path d="M116.16 276.214L214.615 693.044L170.241 690.333C170.241 690.333 162.475 683.939 173.846 657.179C185.217 630.419 184.871 616.17 158.87 609.567C132.869 602.964 113.733 593.233 121.291 559.175C128.848 525.117 127.947 520.251 91.6154 506.35C55.284 492.448 45.2304 449.285 66.5162 383.671C82.5325 334.113 116.16 276.214 116.16 276.214Z" fill="#7ED9AF"/>
<path d="M120.667 521.989C121.003 522.311 121.284 522.687 121.499 523.101C121.707 523.379 121.915 523.657 122.053 523.865L122.469 524.491C122.747 524.978 122.955 525.395 123.163 525.812C123.285 526.03 123.378 526.264 123.44 526.507C123.648 526.993 123.787 527.48 123.995 527.966C124.325 528.984 124.557 530.032 124.688 531.094L124.896 532.762C124.965 534.291 124.965 535.89 124.896 537.419C124.91 537.745 124.887 538.072 124.827 538.392C124.757 539.435 124.619 540.477 124.48 541.59C124.411 541.937 124.411 542.354 124.341 542.702C124.203 543.814 123.995 545.065 123.787 546.316L123.579 547.567C122.955 550.973 122.123 554.796 121.152 559.036C113.595 593.094 132.731 602.825 158.731 609.428C166.497 611.374 171.905 614.015 175.51 617.491L175.372 617.352C163.377 604.423 144.726 601.018 137.515 579.818C131.552 562.372 140.912 536.863 140.358 517.749C139.526 489.043 117.339 467.982 95.9143 450.675C87.7328 444.072 79.2739 437.33 74.7672 427.738C69.8444 417.173 70.3298 404.592 71.0924 392.429C71.7165 382.559 72.4791 372.619 73.8658 362.68C73.1725 364.348 72.5485 366.086 71.9245 367.754L71.8551 368.032C71.2311 369.631 70.6071 371.299 70.0524 372.897L69.9138 373.314C69.3591 374.913 68.7351 376.512 68.2497 378.11L68.111 378.458L66.447 383.462C64.783 388.606 63.327 393.541 62.0096 398.406C61.5243 400.352 61.0389 402.229 60.5536 404.175C60.2762 405.287 59.9989 406.399 59.7909 407.512C59.4442 409.041 59.0975 410.57 58.8202 412.099C57.2044 419.915 56.1387 427.835 55.6308 435.801C55.4921 438.233 55.4228 440.597 55.3535 442.89C55.2946 448.005 55.619 453.116 56.3242 458.182C56.3935 458.877 56.5322 459.572 56.6015 460.197C56.9482 462.213 57.2948 464.159 57.7802 466.106C57.9094 466.739 58.0714 467.366 58.2655 467.982C58.8917 470.41 59.6557 472.801 60.5536 475.141C60.7616 475.697 61.0389 476.254 61.2469 476.81C62.1466 479.007 63.1888 481.143 64.367 483.204C64.9113 484.211 65.5132 485.186 66.1697 486.123C66.7937 487.027 67.487 488 68.1804 488.904C71.2664 492.971 74.9618 496.535 79.1353 499.469C79.6206 499.816 80.0366 500.094 80.522 500.442C82.4533 501.733 84.4685 502.894 86.5541 503.917C88.1488 504.682 89.8128 505.446 91.4768 506.072C93.7649 506.975 95.9143 507.809 97.8556 508.574C100.352 509.547 102.64 510.52 104.789 511.493L106.037 512.049C108.787 513.282 111.45 514.699 114.011 516.289L114.635 516.706C116.844 518.225 118.869 519.998 120.667 521.989Z" fill="#66BA93"/>
<path d="M114.08 281.635L112.693 282.4L112.277 283.095C112.832 282.608 113.456 282.122 114.08 281.635Z" fill="#66BA93"/>
<path d="M325.273 110.232L228.898 694.643L214.685 693.044C214.685 693.044 172.599 622.217 186.396 581.486C205.255 517.888 177.66 492.518 186.604 445.184C194.924 401.117 226.264 381.308 208.375 331.263C190.487 281.218 169.132 173.831 325.273 110.232Z" fill="#7ED9AF"/>
<path d="M214.615 693.044L221.549 693.809C206.642 663.226 193.953 618.255 202.828 587.047C222.519 517.749 189.863 480.563 205.186 425.236C220.578 369.909 248.034 360.664 219.746 309.786C203.66 280.871 202.135 244.727 203.799 218.871C188.615 262.382 199.015 304.781 208.444 331.194C226.333 381.238 194.993 401.048 186.604 445.115C177.66 492.379 205.255 517.818 186.396 581.417C172.598 622.217 214.615 693.044 214.615 693.044Z" fill="#66BA93"/>
<path d="M241.517 716.19L337.615 450.05C337.615 450.05 277.432 446.505 243.805 500.233C210.178 553.962 255.245 570.643 234.792 589.688C214.338 608.733 198.53 624.233 234.722 714.661L241.517 716.19Z" fill="#7ED9AF"/>
<path d="M236.178 680.811C229.938 667.744 223.629 652.939 228.829 638.343C233.96 623.746 248.797 614.363 257.464 601.296C266.963 587.047 268.211 568.28 260.584 554.587C257.117 548.332 251.987 543.188 248.451 536.933C243.736 528.661 243.042 519.348 244.013 509.547C244.568 504.195 247.133 499.955 244.776 498.704C244.412 499.187 244.088 499.699 243.805 500.233C210.178 553.962 255.245 570.643 234.792 589.688C215.031 608.107 199.5 623.26 231.533 706.667C235.901 706.945 240.338 707.015 244.776 707.015L246.44 702.497L236.178 680.811Z" fill="#66BA93"/>
<path d="M296.43 818.781L273.966 683.939H141.329L91.7544 818.781" fill="#DCDDE2"/>
<path d="M127.739 720.847C127.739 720.847 110.96 770.544 126.63 791.743C148.123 820.936 190.279 818.781 296.43 818.781H91.6851L127.739 720.847Z" fill="#C0C0D1"/>
<path d="M277.294 701.454C275.838 695.616 273.48 689.708 273.966 683.8H140.774C140.288 684.981 139.734 686.163 139.248 687.345C139.11 688.179 138.902 689.082 138.694 689.916C137.099 694.921 135.504 699.925 133.702 704.86C132.87 707.084 131.76 709.239 130.928 711.463C130.096 713.896 129.541 716.329 128.64 718.762C128.175 720.077 127.521 721.318 126.699 722.445C126.756 722.766 126.78 723.093 126.768 723.418H279.928C279.096 716.051 279.027 708.544 277.294 701.454Z" fill="#C0C0D1"/>
<path d="M56.6709 460.684L55.9775 455.332L131.483 341.063L137.238 365.252L56.6709 460.684Z" fill="#8FE3BC"/>
<path d="M197.282 246.604L198.044 241.322L315.636 168.548L313.001 184.326L197.282 246.604Z" fill="#8FE3BC"/>
<path d="M196.519 277.951L196.242 273.642L308.911 209.071L307.039 220.609L196.519 277.951Z" fill="#8FE3BC"/>
<path d="M213.506 353.575L212.951 348.709L294.697 295.537L291.854 312.566L213.506 353.575Z" fill="#8FE3BC"/>
<path d="M185.287 476.254L184.94 472.014L274.035 420.648L271.955 433.438L185.287 476.254Z" fill="#8FE3BC"/>
<path d="M117.824 519.278L114.011 516.289L153.254 433.368L159.286 458.668L117.824 519.278Z" fill="#8FE3BC"/>
<path d="M125.035 536.446L124.619 530.121L163.862 478.269L167.398 493.143L125.035 536.446Z" fill="#8FE3BC"/>
<path d="M236.525 513.857L238.536 509.269L325.62 483.065L322.223 492.518L236.525 513.857Z" fill="#8FE3BC"/>
<path d="M231.047 535.056L231.463 530.816L317.577 505.446L314.318 514.482L231.047 535.056Z" fill="#8FE3BC"/>
<path d="M239.714 582.529C240.005 581.698 240.191 580.834 240.269 579.957C240.338 578.845 240.338 577.385 240.338 577.385L297.539 560.982L293.379 572.52L239.714 582.529Z" fill="#8FE3BC"/>
<path d="M219.122 669.759L218.013 665.38L264.675 652.035L259.891 665.311L219.122 669.759Z" fill="#8FE3BC"/>
<path d="M1502.65 817.032H0V929H1502.65V817.032Z" fill="#DCDDE2"/>
<path d="M23.7969 841.464V899.821C23.8061 901.139 24.3369 902.401 25.2744 903.333C26.212 904.264 27.4809 904.792 28.8068 904.801C29.7708 904.772 30.7124 904.505 31.5465 904.023L122.351 845.744C122.904 845.394 123.382 844.939 123.757 844.404C124.132 843.87 124.397 843.266 124.535 842.629C124.674 841.992 124.683 841.334 124.564 840.693C124.444 840.052 124.197 839.442 123.838 838.896C123.376 838.202 122.748 837.633 122.01 837.239C121.273 836.845 120.448 836.639 119.611 836.64H28.8068C28.1567 836.62 27.5093 836.731 26.903 836.964C26.2966 837.198 25.7435 837.55 25.2764 838C24.8093 838.45 24.4377 838.988 24.1835 839.583C23.9294 840.178 23.7979 840.818 23.7969 841.464Z" fill="#EEEFF5"/>
<path d="M58.0051 899.666C57.0354 900.208 56.2764 901.058 55.8494 902.079C55.4224 903.101 55.352 904.235 55.6493 905.301C55.9467 906.367 56.5947 907.303 57.4899 907.96C58.3852 908.617 59.476 908.957 60.5883 908.925H204.466C205.124 908.927 205.777 908.8 206.385 908.55C206.994 908.301 207.547 907.934 208.013 907.471C208.478 907.008 208.847 906.459 209.098 905.853C209.349 905.248 209.478 904.6 209.476 903.945C209.484 903.041 209.24 902.152 208.771 901.378L172.371 840.686C171.708 839.571 170.632 838.759 169.373 838.424C168.114 838.089 166.774 838.259 165.639 838.896L58.0051 899.666Z" fill="#EEEFF5"/>
<path d="M192.802 844.032L210.102 873.755C210.769 874.887 211.86 875.71 213.136 876.045C214.412 876.381 215.769 876.201 216.912 875.545C217.23 875.382 217.52 875.172 217.773 874.922L250.494 845.199C250.98 844.761 251.373 844.232 251.652 843.642C251.93 843.052 252.089 842.413 252.118 841.762C252.147 841.111 252.046 840.461 251.821 839.849C251.596 839.237 251.252 838.675 250.807 838.196C250.34 837.687 249.772 837.279 249.139 836.998C248.506 836.716 247.821 836.568 247.128 836.562H197.108C196.449 836.56 195.797 836.687 195.188 836.937C194.579 837.186 194.026 837.553 193.56 838.016C193.095 838.479 192.726 839.029 192.475 839.634C192.224 840.239 192.096 840.887 192.098 841.542C192.1 842.42 192.344 843.281 192.802 844.032Z" fill="#EEEFF5"/>
<path d="M221.53 894.063L228.028 906.279C228.449 907.074 229.079 907.739 229.851 908.205C230.623 908.671 231.508 908.92 232.411 908.925H336.053C336.712 908.927 337.364 908.8 337.973 908.55C338.582 908.301 339.135 907.934 339.6 907.471C340.066 907.008 340.435 906.458 340.686 905.853C340.937 905.248 341.065 904.6 341.063 903.945C341.046 903.304 340.914 902.672 340.672 902.078L315.466 839.674C315.092 838.76 314.454 837.976 313.632 837.422C312.809 836.867 311.84 836.568 310.847 836.562H278.126C277.487 836.552 276.852 836.67 276.26 836.911C275.668 837.152 275.131 837.51 274.682 837.962L222.47 888.15C221.704 888.91 221.201 889.892 221.032 890.955C220.864 892.017 221.038 893.105 221.53 894.063Z" fill="#EEEFF5"/>
<path d="M336.366 843.098L344.586 866.908C345.022 868.148 345.931 869.169 347.116 869.751C348.302 870.333 349.67 870.43 350.926 870.02C351.268 869.929 351.587 869.77 351.866 869.553L391.71 845.744C392.84 845.072 393.656 843.982 393.979 842.713C394.302 841.444 394.105 840.099 393.432 838.974C392.982 838.24 392.349 837.632 391.596 837.21C390.842 836.788 389.992 836.565 389.126 836.562H341.063C340.405 836.56 339.752 836.687 339.143 836.937C338.535 837.186 337.982 837.553 337.516 838.016C337.05 838.479 336.681 839.029 336.43 839.634C336.179 840.239 336.051 840.887 336.053 841.542C336.036 842.078 336.143 842.61 336.366 843.098Z" fill="#EEEFF5"/>
<path d="M353.196 887.916L358.519 903.945C358.932 905.188 359.82 906.22 360.992 906.817C362.164 907.414 363.526 907.529 364.782 907.136C364.86 907.136 364.938 907.058 365.017 907.058L410.732 889.706C411.415 889.438 412.033 889.029 412.546 888.506C413.059 887.983 413.454 887.357 413.706 886.672L426.622 849.478C426.965 848.517 427 847.473 426.72 846.491C426.441 845.509 425.861 844.638 425.062 843.997C424.263 843.357 423.284 842.979 422.259 842.915C421.235 842.852 420.215 843.106 419.342 843.643L355.388 882.159C354.415 882.724 353.666 883.604 353.267 884.652C352.868 885.7 352.843 886.852 353.196 887.916Z" fill="#EEEFF5"/>
<path d="M414.098 899.277L422.16 896.398C422.854 896.169 423.587 896.086 424.315 896.153C425.042 896.22 425.748 896.436 426.387 896.787L431.241 899.666C432.177 900.221 432.904 901.068 433.308 902.075C433.713 903.082 433.773 904.193 433.479 905.238C433.185 906.282 432.554 907.201 431.683 907.853C430.811 908.506 429.748 908.855 428.658 908.847H415.741C410.105 908.925 408.775 901.144 414.098 899.277Z" fill="#EEEFF5"/>
<path d="M434.842 890.562L451.515 900.21C452.517 900.784 453.687 900.997 454.828 900.813C455.969 900.628 457.011 900.058 457.778 899.199L504.902 844.81C505.529 844.089 505.934 843.203 506.066 842.259C506.198 841.315 506.053 840.353 505.647 839.489C505.242 838.626 504.594 837.897 503.781 837.391C502.968 836.886 502.025 836.625 501.066 836.64H455.351C454.355 836.635 453.382 836.93 452.557 837.486C451.733 838.041 451.097 838.831 450.732 839.752L432.728 884.493C432.311 885.59 432.294 886.799 432.68 887.908C433.066 889.016 433.831 889.956 434.842 890.562Z" fill="#EEEFF5"/>
<path d="M480.948 908.925H624.434C625.093 908.927 625.745 908.8 626.354 908.55C626.963 908.301 627.516 907.934 627.981 907.471C628.447 907.008 628.816 906.458 629.067 905.853C629.318 905.248 629.446 904.6 629.444 903.945C629.462 903.359 629.355 902.776 629.131 902.233L606.195 839.83C605.845 838.872 605.206 838.044 604.365 837.46C603.525 836.875 602.524 836.561 601.499 836.562H529.638C528.878 836.556 528.127 836.73 527.446 837.068C526.766 837.406 526.176 837.899 525.724 838.507L477.113 900.911C476.703 901.418 476.4 902.002 476.222 902.628C476.043 903.253 475.992 903.908 476.073 904.554C476.153 905.199 476.362 905.822 476.689 906.386C477.015 906.95 477.452 907.443 477.974 907.836C478.806 908.534 479.859 908.919 480.948 908.925Z" fill="#EEEFF5"/>
<path d="M620.442 843.098L629.679 869.942C630.116 871.183 631.024 872.204 632.21 872.786C633.395 873.368 634.763 873.464 636.02 873.055C636.536 872.89 637.015 872.626 637.429 872.277L672.654 845.432C673.484 844.804 674.094 843.931 674.397 842.939C674.7 841.947 674.682 840.885 674.344 839.903C674.006 838.922 673.367 838.071 672.515 837.472C671.664 836.872 670.645 836.554 669.601 836.562H625.217C624.559 836.56 623.906 836.687 623.297 836.937C622.689 837.186 622.136 837.553 621.67 838.016C621.204 838.479 620.835 839.029 620.584 839.634C620.333 840.239 620.205 840.887 620.207 841.542C620.203 842.07 620.282 842.595 620.442 843.098Z" fill="#EEEFF5"/>
<path d="M637.272 888.85L642.517 905.268C642.856 906.325 643.524 907.249 644.424 907.906C645.324 908.563 646.41 908.92 647.526 908.925H708.663C710.054 908.925 711.388 908.376 712.371 907.398C713.355 906.42 713.907 905.094 713.907 903.712C713.92 903.398 713.894 903.085 713.829 902.778L707.41 866.441C707.219 865.396 706.712 864.434 705.957 863.684C705.202 862.933 704.234 862.429 703.183 862.239L676.49 857.571C675.795 857.445 675.083 857.464 674.396 857.624C673.709 857.785 673.063 858.084 672.498 858.504L639.229 883.092C638.338 883.728 637.67 884.625 637.319 885.658C636.968 886.691 636.951 887.807 637.272 888.85Z" fill="#EEEFF5"/>
<path d="M698.565 850.257L713.438 852.746C714.18 852.864 714.938 852.828 715.666 852.64C716.393 852.453 717.074 852.118 717.665 851.657L724.867 845.821C725.404 845.393 725.85 844.862 726.178 844.259C726.506 843.656 726.708 842.994 726.774 842.312C726.84 841.63 726.767 840.942 726.561 840.289C726.354 839.635 726.017 839.029 725.571 838.507C725.082 837.901 724.462 837.412 723.758 837.076C723.053 836.739 722.282 836.564 721.501 836.562H703.183C701.886 836.562 700.634 837.033 699.661 837.885L695.903 841.231C695.394 841.685 694.98 842.235 694.685 842.849C694.389 843.462 694.219 844.128 694.182 844.807C694.146 845.486 694.245 846.166 694.473 846.807C694.701 847.449 695.054 848.039 695.512 848.545C696.291 849.459 697.374 850.066 698.565 850.257Z" fill="#EEEFF5"/>
<path d="M718.604 871.732L726.589 904.957C726.861 906.092 727.513 907.102 728.437 907.823C729.361 908.543 730.503 908.932 731.677 908.925H748.585C749.976 908.925 751.31 908.376 752.294 907.398C753.277 906.421 753.83 905.094 753.83 903.712C753.836 902.902 753.648 902.102 753.282 901.378L737.391 869.32C737.004 868.543 736.43 867.874 735.72 867.372C735.01 866.87 734.186 866.55 733.321 866.441L724.319 865.274C723.634 865.183 722.939 865.228 722.272 865.406C721.606 865.584 720.981 865.892 720.435 866.312C719.889 866.731 719.432 867.255 719.091 867.851C718.75 868.448 718.531 869.106 718.448 869.787C718.419 870.439 718.471 871.093 718.604 871.732Z" fill="#EEEFF5"/>
<path d="M737.705 856.87L741.618 857.571C742.349 857.714 743.041 858.01 743.649 858.44C744.256 858.869 744.765 859.421 745.141 860.061L753.987 874.844C754.34 875.434 754.806 875.948 755.36 876.357C755.914 876.766 756.543 877.063 757.213 877.229C757.882 877.395 758.578 877.428 759.26 877.326C759.943 877.224 760.598 876.989 761.188 876.634C761.666 876.314 762.111 875.949 762.519 875.545L788.508 845.121C789.147 844.362 789.555 843.439 789.685 842.458C789.816 841.477 789.663 840.48 789.244 839.582C788.825 838.685 788.158 837.924 787.321 837.389C786.484 836.855 785.511 836.568 784.516 836.562H750.307C749.05 836.571 747.833 837.011 746.863 837.807L735.278 847.767C734.758 848.211 734.331 848.752 734.022 849.36C733.713 849.968 733.528 850.631 733.477 851.311C733.426 851.99 733.511 852.673 733.726 853.32C733.941 853.967 734.282 854.565 734.73 855.081C735.447 856.042 736.515 856.685 737.705 856.87Z" fill="#EEEFF5"/>
<path d="M762.049 892.118L767.607 905.657C768.001 906.617 768.672 907.44 769.536 908.021C770.4 908.603 771.417 908.917 772.46 908.925H833.283C834.674 908.925 836.008 908.376 836.992 907.398C837.975 906.42 838.528 905.094 838.528 903.712C838.542 902.925 838.354 902.149 837.98 901.455L811.287 847.378C810.682 846.142 809.61 845.194 808.304 844.742C806.999 844.29 805.566 844.371 804.32 844.965C803.778 845.23 803.277 845.57 802.833 845.977L763.145 886.594C762.431 887.302 761.945 888.206 761.75 889.19C761.555 890.174 761.659 891.193 762.049 892.118Z" fill="#EEEFF5"/>
<path d="M823.968 844.109L839.076 875.7C839.673 876.944 840.74 877.903 842.044 878.369C843.349 878.835 844.786 878.771 846.043 878.19C846.278 878.107 846.491 877.975 846.669 877.801L893.323 846.911C894.262 846.298 894.979 845.401 895.367 844.353C895.755 843.305 895.794 842.16 895.478 841.089C895.162 840.017 894.509 839.074 893.614 838.399C892.718 837.724 891.629 837.353 890.505 837.34L828.743 836.64C827.356 836.632 826.021 837.166 825.026 838.126C824.031 839.087 823.454 840.397 823.42 841.775C823.473 842.578 823.658 843.366 823.968 844.109Z" fill="#EEEFF5"/>
<path d="M848.626 894.53L853.636 905.813C854.052 906.729 854.722 907.508 855.568 908.059C856.414 908.61 857.4 908.911 858.411 908.925H925.105C926.496 908.925 927.83 908.376 928.813 907.398C929.797 906.42 930.35 905.094 930.35 903.712V903.167L924.792 849.167C924.653 847.796 923.974 846.536 922.904 845.661C921.833 844.786 920.457 844.368 919.077 844.498C918.235 844.583 917.427 844.877 916.729 845.354L850.583 888.15C849.548 888.809 848.782 889.813 848.424 890.982C848.065 892.151 848.137 893.409 848.626 894.53Z" fill="#EEEFF5"/>
<path d="M937.473 842.398L941.387 875.7C941.461 876.381 941.67 877.041 942.002 877.641C942.334 878.241 942.782 878.77 943.32 879.196C943.859 879.623 944.477 879.94 945.14 880.128C945.802 880.316 946.496 880.371 947.18 880.291C947.29 880.303 947.401 880.275 947.493 880.213L1016.54 867.919C1017.75 867.706 1018.84 867.074 1019.63 866.134C1020.42 865.194 1020.85 864.007 1020.84 862.784V841.775C1020.84 840.393 1020.29 839.067 1019.3 838.089C1018.32 837.111 1016.99 836.562 1015.6 836.562H942.718C941.327 836.562 939.993 837.111 939.009 838.089C938.026 839.067 937.473 840.393 937.473 841.775V842.398Z" fill="#EEEFF5"/>
<path d="M944.675 896.164L945.771 904.334C945.937 905.58 946.553 906.724 947.503 907.554C948.452 908.384 949.673 908.843 950.937 908.847H998.922C999.611 908.847 1000.29 908.712 1000.93 908.45C1001.57 908.188 1002.14 907.804 1002.63 907.32C1003.12 906.836 1003.5 906.262 1003.77 905.629C1004.03 904.997 1004.17 904.319 1004.17 903.634V903.167L1002.76 886.672C1002.63 885.289 1001.96 884.013 1000.89 883.123C999.817 882.233 998.434 881.802 997.044 881.925C996.883 881.913 996.722 881.94 996.574 882.003L948.98 890.251C947.66 890.544 946.493 891.307 945.7 892.396C944.906 893.486 944.542 894.826 944.675 896.164Z" fill="#EEEFF5"/>
<path d="M1015.6 878.579L1031.17 875.389C1032.12 875.198 1033.1 875.263 1034 875.578C1034.91 875.893 1035.72 876.446 1036.34 877.179L1055.21 900.366C1055.64 900.897 1055.96 901.507 1056.16 902.163C1056.35 902.818 1056.41 903.505 1056.34 904.184C1056.27 904.864 1056.06 905.523 1055.73 906.122C1055.4 906.722 1054.96 907.252 1054.42 907.68C1053.5 908.439 1052.33 908.852 1051.13 908.847H1019.51C1018.25 908.843 1017.03 908.383 1016.08 907.554C1015.13 906.724 1014.51 905.58 1014.34 904.334L1011.53 884.337C1011.33 883.041 1011.64 881.721 1012.4 880.649C1013.16 879.577 1014.3 878.836 1015.6 878.579Z" fill="#EEEFF5"/>
<path d="M1033.37 858.816L1034.23 841.542C1034.29 840.201 1034.87 838.935 1035.84 838.007C1036.82 837.08 1038.12 836.562 1039.47 836.562H1098.42C1099.64 836.567 1100.83 836.997 1101.77 837.778C1102.72 838.559 1103.36 839.642 1103.58 840.842L1114.78 902.778C1115.01 904.139 1114.7 905.538 1113.91 906.674C1113.12 907.81 1111.91 908.59 1110.55 908.847C1110.24 908.912 1109.92 908.938 1109.61 908.925H1077.51C1076.76 908.927 1076.01 908.768 1075.32 908.46C1074.64 908.151 1074.02 907.699 1073.52 907.135L1034.7 862.55C1033.81 861.506 1033.34 860.18 1033.37 858.816Z" fill="#EEEFF5"/>
<path d="M1118.45 842.631L1123.86 873.444C1123.97 874.115 1124.22 874.757 1124.58 875.333C1124.95 875.909 1125.43 876.406 1125.99 876.797C1126.55 877.188 1127.18 877.465 1127.85 877.61C1128.52 877.756 1129.21 877.768 1129.88 877.646C1130.54 877.507 1131.18 877.271 1131.76 876.945L1180.84 846.133C1181.42 845.77 1181.93 845.297 1182.33 844.741C1182.72 844.185 1183.01 843.557 1183.16 842.892C1183.31 842.227 1183.33 841.539 1183.22 840.867C1183.1 840.194 1182.85 839.551 1182.49 838.974C1182 838.235 1181.34 837.627 1180.56 837.206C1179.79 836.784 1178.91 836.563 1178.03 836.562H1123.54C1122.15 836.562 1120.82 837.111 1119.83 838.089C1118.85 839.067 1118.3 840.393 1118.3 841.775C1118.38 842.087 1118.38 842.398 1118.45 842.631Z" fill="#EEEFF5"/>
<path d="M1128.08 893.13L1129.57 904.412C1129.74 905.658 1130.35 906.802 1131.3 907.632C1132.25 908.461 1133.47 908.921 1134.74 908.925H1218.34C1219.73 908.925 1221.06 908.376 1222.05 907.398C1223.03 906.42 1223.58 905.094 1223.58 903.712C1223.6 902.747 1223.33 901.798 1222.8 900.988L1194.46 855.47C1193.73 854.302 1192.56 853.468 1191.22 853.148C1189.87 852.828 1188.45 853.047 1187.26 853.758L1130.51 887.994C1129.64 888.516 1128.94 889.282 1128.51 890.196C1128.08 891.11 1127.93 892.131 1128.08 893.13Z" fill="#EEEFF5"/>
<path d="M1205.66 843.331L1214.66 837.418C1215.52 836.867 1216.53 836.57 1217.56 836.562H1259.04C1260.44 836.562 1261.77 837.111 1262.75 838.089C1263.74 839.067 1264.29 840.393 1264.29 841.775C1264.29 842.534 1264.13 843.284 1263.8 843.97C1263.48 844.657 1263 845.263 1262.41 845.744L1227.5 874.922C1226.97 875.362 1226.37 875.695 1225.71 875.902C1225.06 876.108 1224.37 876.185 1223.69 876.127C1223.01 876.07 1222.34 875.878 1221.73 875.565C1221.12 875.251 1220.58 874.821 1220.14 874.3C1219.98 874.144 1219.9 873.988 1219.75 873.833L1204.17 850.568C1203.41 849.41 1203.14 848.001 1203.42 846.646C1203.7 845.291 1204.5 844.101 1205.66 843.331Z" fill="#EEEFF5"/>
<path d="M1230.39 889.55L1241.59 906.591C1242.06 907.318 1242.71 907.914 1243.48 908.322C1244.24 908.731 1245.1 908.938 1245.97 908.925H1291.61C1293 908.925 1294.33 908.376 1295.32 907.398C1296.3 906.42 1296.85 905.094 1296.85 903.712C1296.85 902.691 1296.55 901.693 1295.99 900.833L1269.14 860.45C1268.37 859.298 1267.17 858.496 1265.81 858.219C1264.45 857.942 1263.03 858.212 1261.86 858.971C1261.71 859.049 1261.63 859.127 1261.47 859.205L1231.49 882.625C1230.47 883.435 1229.79 884.594 1229.59 885.876C1229.39 887.158 1229.67 888.469 1230.39 889.55Z" fill="#EEEFF5"/>
<path d="M1289.18 837.729L1278.93 846.21C1277.92 847.03 1277.26 848.195 1277.07 849.477C1276.88 850.758 1277.18 852.063 1277.91 853.135L1295.91 879.591C1296.3 880.163 1296.79 880.653 1297.36 881.034C1297.94 881.414 1298.58 881.678 1299.26 881.808C1299.94 881.938 1300.63 881.933 1301.31 881.793C1301.98 881.653 1302.63 881.38 1303.19 880.991C1304.04 880.421 1304.7 879.607 1305.07 878.657L1319.71 843.72C1320.23 842.439 1320.23 841.006 1319.7 839.726C1319.18 838.447 1318.17 837.423 1316.89 836.873C1316.24 836.625 1315.55 836.493 1314.86 836.484H1292.47C1291.27 836.544 1290.12 836.98 1289.18 837.729Z" fill="#EEEFF5"/>
<path d="M1309.3 900.21L1312.35 906.046C1312.82 906.898 1313.51 907.609 1314.35 908.102C1315.19 908.595 1316.15 908.853 1317.13 908.847L1355.95 908.069C1356.64 908.049 1357.32 907.894 1357.95 907.613C1358.58 907.333 1359.15 906.931 1359.62 906.433C1360.09 905.934 1360.46 905.348 1360.7 904.707C1360.95 904.067 1361.06 903.385 1361.04 902.7C1361.04 902.011 1360.89 901.331 1360.6 900.701C1360.32 900.072 1359.91 899.508 1359.4 899.043L1328.71 870.876C1327.68 869.946 1326.32 869.458 1324.93 869.516C1323.54 869.574 1322.23 870.175 1321.28 871.187C1320.92 871.55 1320.63 871.972 1320.42 872.432L1309.3 895.542C1308.91 896.26 1308.71 897.062 1308.71 897.876C1308.71 898.69 1308.91 899.492 1309.3 900.21Z" fill="#EEEFF5"/>
<path d="M1334.19 839.83L1328.01 855.392C1327.63 856.393 1327.55 857.485 1327.81 858.526C1328.06 859.567 1328.62 860.509 1329.42 861.228L1349.38 878.657C1350.21 879.374 1351.24 879.819 1352.33 879.93C1353.43 880.042 1354.53 879.814 1355.48 879.28L1413.02 846.288C1414.02 845.718 1414.8 844.837 1415.25 843.779C1415.69 842.722 1415.77 841.549 1415.48 840.44C1415.19 839.332 1414.53 838.352 1413.62 837.651C1412.71 836.949 1411.59 836.567 1410.44 836.562H1339.12C1338.07 836.558 1337.04 836.866 1336.16 837.449C1335.28 838.031 1334.59 838.86 1334.19 839.83Z" fill="#EEEFF5"/>
<path d="M1449.26 841.697L1478.3 901.3C1478.9 902.538 1478.98 903.962 1478.53 905.26C1478.07 906.558 1477.12 907.624 1475.88 908.225C1475.15 908.597 1474.35 908.784 1473.53 908.769L1384.21 907.213C1382.93 907.183 1381.7 906.685 1380.77 905.813L1365.9 892.196C1364.88 891.253 1364.27 889.948 1364.21 888.564C1364.15 887.18 1364.65 885.829 1365.58 884.804C1365.92 884.429 1366.31 884.113 1366.76 883.87L1441.9 839.363C1443.1 838.665 1444.53 838.461 1445.87 838.796C1447.22 839.13 1448.38 839.977 1449.11 841.153C1449.18 841.326 1449.24 841.509 1449.26 841.697Z" fill="#EEEFF5"/>
<path d="M1466.8 836.562H1476.74C1478.13 836.562 1479.46 837.111 1480.45 838.089C1481.43 839.066 1481.98 840.392 1481.98 841.775V862.628C1481.98 864.011 1481.43 865.337 1480.45 866.314C1479.46 867.292 1478.13 867.841 1476.74 867.841C1475.74 867.842 1474.77 867.566 1473.93 867.043C1473.08 866.52 1472.4 865.772 1471.96 864.885L1462.02 844.032C1461.72 843.414 1461.55 842.744 1461.52 842.06C1461.48 841.376 1461.58 840.692 1461.82 840.048C1462.05 839.403 1462.41 838.811 1462.87 838.306C1463.34 837.802 1463.9 837.394 1464.53 837.107C1465.23 836.744 1466.01 836.557 1466.8 836.562Z" fill="#EEEFF5"/>
<path d="M873.818 16.855C878.992 12.8818 902.3 -4.19689 931.258 0.962299C936.431 1.91112 950.762 4.46106 961.584 15.7875C971.811 26.521 969.016 34.6453 974.903 43.3625C992.147 68.9212 1042.69 39.0928 1074.32 63.5248C1100.43 83.6279 1082.83 116.184 1113.15 138.303C1132.89 152.714 1151.5 146.606 1161.55 163.21C1169.64 176.612 1166.01 194.758 1161.55 204.068C1135.03 259.337 953.378 264.615 914.847 196.656C899.744 170.029 915.56 145.597 896.771 77.342C890.943 56.5273 883.273 36.3057 873.818 16.855Z" fill="#333133"/>
<path d="M803.119 230.042C794.021 222.214 792.653 200.747 815.903 147.317C836.298 138.303 856.693 129.29 877.029 120.276C877.446 116.006 877.921 111.737 878.337 107.467C879.051 100.469 879.765 93.4719 880.538 86.415C881.489 77.1641 882.44 67.9724 883.392 58.7215C894.927 58.3657 906.463 58.0099 917.939 57.6541C919.188 76.5711 920.436 95.4881 921.685 114.405C938.632 115.947 957.54 119.92 961.049 130.831C971.871 164.692 832.374 255.423 803.119 230.042Z" fill="url(#paint0_linear_738_40000)"/>
<path d="M899.863 76.8082C892.668 87.008 885.532 97.2671 878.337 107.467C879.051 100.469 879.764 93.4718 880.537 86.415C886.959 83.2127 893.441 80.0105 899.863 76.8082Z" fill="#FF7341"/>
<path d="M987.747 400.295C948.324 316.681 787.48 319.824 683.066 321.84C624.08 322.967 594.587 323.56 569.791 337.199C512.411 368.925 502.54 428.167 434.219 570.489C420.602 598.954 407.877 623.86 397.174 644.26C389.92 658.077 383.558 669.818 378.444 679.188C405.083 657.602 426.905 643.963 442.781 635.186C452.117 630.027 466.031 622.852 469.361 609.213C471.799 599.309 464.069 593.676 462.998 586.382C457.766 551.453 553.737 528.504 593.814 459.122C605.23 439.375 609.809 420.22 611.89 406.107C632.94 433.445 674.682 479.996 742.171 510.061C749.187 513.204 911.755 583.713 973.476 511.663C997.32 483.732 1004.63 436.113 987.747 400.295Z" fill="url(#paint1_linear_738_40000)"/>
<path d="M462.939 586.441C464.901 587.746 478.993 597.53 477.804 609.272C476.793 619.472 464.604 626.943 454.436 633.111C449.203 636.254 448.846 635.72 443.792 638.922C432.732 645.92 426.489 653.688 423.575 656.95C408.413 673.91 383.201 684.228 378.622 679.188C376.303 676.697 378.147 668.454 398.304 642.065C394.499 649.537 393.309 653.807 394.558 654.815C398.245 657.602 419.116 634.89 462.939 586.441Z" fill="#333133"/>
<path d="M943.091 533.367C908.604 549.319 858.834 565.389 803.773 555.13C791.524 552.817 779.453 549.378 767.799 544.871C704.888 520.913 662.135 474.006 650.6 484.621C647.746 487.231 648.875 491.441 651.313 497.608C654.286 505.021 659.162 515.221 661.243 528.682C674.325 613.186 554.153 691.938 576.629 728.941C581.505 737.006 588.106 740.861 589.652 751.654C591.495 764.463 584.895 762.387 570.921 783.024C551.893 811.133 550.05 837.106 545.888 836.276C540.18 835.15 542.796 799.213 547.493 740.802C552.131 683.28 554.391 654.519 557.602 619.353C561.586 575.233 563.964 539 566.164 509.053C568.305 480.114 570.267 457.106 573.419 438.663C578.889 406.344 587.927 387.901 607.609 375.982C608.679 375.211 609.809 374.559 611.058 374.084C640.551 362.639 685.92 455.445 747.819 500.04C782.664 525.124 841.055 548.133 943.091 533.367Z" fill="url(#paint2_linear_738_40000)"/>
<path d="M578.175 416.247C578.71 409.783 580.435 403.497 583.17 397.627C590.603 382.09 603.565 374.736 608.62 372.186C616.29 369.281 624.496 368.154 632.642 368.984C683.482 374.558 705.839 473.235 775.35 520.973C797.351 536.094 833.087 552.284 890.765 551.038C892.43 550.979 807.519 565.211 749.663 517.177C711.548 485.511 672.422 417.67 639.005 396.856C634.248 393.891 621.523 386.004 606.955 388.791C600.83 390.036 595.122 392.823 590.365 396.856C584.538 402.015 580.256 408.716 578.175 416.247Z" fill="#FF7341"/>
<path d="M588.819 164.277C554.272 115.888 519.665 83.8058 497.367 70.9968C491.659 67.7353 486.07 64.5923 486.07 64.5923C480.956 62.0424 470.966 57.1797 460.144 55.5786C446.111 53.5623 444.863 59.1959 431.424 58.2471C412.278 56.8239 403.18 44.4893 399.553 47.6322C395.569 51.131 401.218 70.5817 415.489 82.0861C434.873 97.7416 455.744 87.186 477.685 93.2347C496.594 98.4532 520.379 117.074 538.812 178.628L588.819 164.277Z" fill="url(#paint3_linear_738_40000)"/>
<path d="M829.698 134.093C826.606 149.452 804.843 150.935 789.204 161.134C788.55 161.549 787.896 162.024 787.242 162.498C784.626 164.396 782.307 166.59 780.285 169.081C768.869 183.431 766.431 211.955 797.291 272.502C791.405 275.407 785.399 278.076 779.393 280.448C768.096 284.895 756.501 288.394 744.668 290.944C692.758 302.033 640.313 293.198 599.998 264.022C561.348 236.031 545.233 197.545 538.871 178.628L564.38 132.492C584.121 153.188 598.214 156.331 607.43 155.323C613.198 154.671 618.787 152.18 623.901 155.323C632.642 160.66 628.301 174.951 634.545 178.154C641.442 181.712 650.778 166.353 669.092 155.857C697.039 139.905 710.894 155.323 735.035 139.964C753.884 127.985 749.603 115.947 769.582 106.577C773.388 104.798 797.826 93.294 815.843 106.577C823.157 111.855 831.898 123.122 829.698 134.093Z" fill="url(#paint4_linear_738_40000)"/>
<path d="M813.762 200.392C818.935 197.545 823.157 193.335 826.011 188.176C826.963 186.337 832.493 176.137 828.152 165.345C826.844 162.142 824.822 159.237 822.325 156.865C822.919 157.043 831.482 159.474 833.503 166.946C834.039 169.021 834.039 171.215 833.503 173.291C839.687 167.302 847.418 163.091 855.861 161.075C860.38 160.008 865.078 159.652 869.656 160.008C866.564 160.541 839.569 165.76 830.828 187.583C829.044 192.149 828.092 197.011 828.152 201.874L813.762 200.392Z" fill="#FF7341"/>
<path d="M892.311 9.6203C878.159 10.3319 869.418 20.7689 864.245 26.9362C853.542 39.7452 851.461 54.096 850.926 60.9157L860.499 61.4494C860.796 65.3039 862.461 79.7734 872.213 84.7547C885.651 91.6336 904.976 75.6223 913.717 62.4575C916.571 58.1285 929.593 38.5592 919.901 22.8444C913.955 13.1784 901.944 9.14589 892.311 9.6203Z" fill="url(#paint5_linear_738_40000)"/>
<path d="M925.193 30.4349C923.647 24.2083 921.388 14.9573 914.252 9.97604C904.382 3.09712 887.732 6.00287 873.283 17.2108C873.521 21.8955 875.245 28.2407 885.057 28.1221C891.122 27.8849 897.008 26.0466 902.063 22.6664C900.517 26.9361 899.268 31.3244 898.257 35.772C897.008 41.7614 899.922 48.2252 904.679 47.3357C904.679 47.3357 905.809 40.6347 910.09 37.2545C913.301 34.7046 918.296 36.6615 919.247 41.2277C919.782 43.7183 918.712 46.1496 917.939 47.5136C916.987 49.2333 915.739 50.6565 914.193 51.8425C907.355 57.1203 915.204 115.354 921.625 114.405C924.361 113.99 926.501 102.96 924.42 57.7726H924.717C927.215 48.8775 927.393 39.4486 925.193 30.4349Z" fill="#333133"/>
<path d="M887.673 55.6971C888.268 55.7564 888.803 55.3413 888.862 54.7483C888.922 54.4518 888.803 54.1553 888.625 53.9181C888.506 53.7402 875.543 39.2707 859.013 48.3438C858.477 48.6403 858.299 49.2926 858.537 49.8263C858.834 50.36 859.488 50.5379 860.024 50.3007C860.024 50.3007 860.023 50.3007 860.083 50.3007C875.067 42.0579 886.9 55.282 887.019 55.4006C887.138 55.5192 887.435 55.6971 887.673 55.6971Z" fill="#333133"/>
<path d="M865.791 32.3919L862.937 38.6778C862.699 39.2708 862.997 39.9824 863.591 40.2789L863.948 40.3975C868.645 40.7533 881.727 42.0579 889.695 46.9206C890.052 47.1578 890.468 47.0392 890.706 46.7427C890.944 46.4462 890.884 46.0904 890.646 45.8532C890.646 45.8532 890.646 45.8532 890.587 45.7939C884.581 38.4999 876.197 33.5779 866.862 31.8582C866.445 31.7989 866.029 31.9768 865.791 32.3919Z" fill="#333133"/>
<path d="M735.035 321.247C745.322 348.466 759.89 398.931 750.971 460.723C747.463 485.036 741.457 505.377 731.586 527.852C745.619 537.399 799.551 570.311 870.608 563.61C933.815 557.621 1007.55 509.528 1011 432.614C1014.27 370.23 962.357 325.932 954.092 319.112C962.06 309.031 986.023 276.178 986.023 228.441C985.963 167.657 946.956 129.23 939.761 122.411C865.256 179.34 822.563 202.704 811.622 192.386C805.557 186.693 809.243 170.563 822.8 144.115C773.566 161.194 744.609 199.976 748.89 230.042C749.96 237.692 755.371 259.93 772.793 274.577C779.096 279.914 783.615 281.219 791.405 288.335C800.8 297.052 808.411 307.489 813.762 319.112L735.035 321.247Z" fill="url(#paint6_linear_738_40000)"/>
<path d="M964.2 314.902C963.368 315.198 962.119 315.673 960.632 316.266C958.135 317.274 942.794 323.619 929.058 336.132C922.815 341.765 903.668 359.14 898.198 388.079C895.165 404.091 898.317 416.129 901.944 431.013C905.809 446.965 910.863 455.386 917.88 461.257C920.199 463.214 925.609 467.661 928.523 466.001C932.804 463.569 925.61 451.294 925.312 430.48C925.134 415.121 928.88 412.215 929.058 390.689C929.177 376.278 927.512 376.397 928.523 372.661C935.777 345.205 1031.21 352.558 1032.76 341.35C1033.41 336.843 1018.61 329.075 964.2 314.902Z" fill="url(#paint7_linear_738_40000)"/>
<path d="M937.085 125.079C963.962 101.3 983.763 98.5718 996.666 100.173C1033.47 104.739 1039.66 148.029 1096.09 168.606C1113.39 174.892 1120.29 173.588 1136.52 182.898C1145.56 188.116 1171.13 202.882 1182.25 233.304C1183.73 237.395 1193.31 264.555 1183.32 290.588C1161.32 347.814 1061.3 356.59 1001.48 344.137C987.628 341.231 951.178 333.641 945.113 311.818C941.605 299.187 949.632 287.09 952.545 282.108C965.627 259.633 971.454 216.521 937.085 125.079Z" fill="url(#paint8_linear_738_40000)"/>
<path d="M784.507 164.277C759.057 182.779 746.511 212.43 752.576 239.589C757.749 262.539 774.517 275.763 780.226 279.914C768.69 284.955 756.501 288.276 744.608 290.944C741.992 285.251 724.926 246.765 744.073 206.737C756.084 181.593 776.182 168.962 784.507 164.277Z" fill="url(#paint9_linear_738_40000)"/>
<path d="M934.469 195.588C940.415 194.224 942.794 213.675 957.838 224.231C981.206 240.657 1018.43 223.697 1022.18 233.778C1023.78 238.107 1017.42 242.436 1019.5 246.528C1023.01 253.466 1047.68 240.301 1055.12 248.663C1058.86 252.873 1056.6 260.404 1056.19 261.946C1049.82 283.472 1014.62 283.472 963.665 312.826C957.54 316.384 952.724 319.468 949.87 321.306C958.016 313.597 966.519 306.362 975.379 299.543C1003.86 277.72 1019.92 272.917 1018.96 265.623C1017.89 257.202 997.618 257.854 960.454 238.581C938.869 227.314 930.842 219.368 929.653 209.939C928.88 203.772 930.961 196.418 934.469 195.588Z" fill="#7573B6"/>
<path d="M813.762 319.171C831.779 318.875 856.337 321.306 881.311 333.997C896.533 341.765 905.987 350.364 906.82 349.356C908.128 347.755 888.387 322.967 856.812 307.964C838.558 299.306 818.519 294.977 798.302 295.214L813.762 319.171Z" fill="url(#paint10_linear_738_40000)"/>
<path d="M871.083 64.5923L881.727 67.498C881.727 67.498 877.624 72.3607 873.819 70.7596C869.954 69.2178 871.083 64.5923 871.083 64.5923Z" fill="#C72D30"/>
<path d="M576.213 727.993C584.597 734.338 594.706 744.063 594.29 755.568C593.873 767.25 583.23 767.843 573.002 786.345C562.24 805.796 565.689 818.605 552.012 832.718C549.158 835.624 547.018 836.751 545.353 836.158C539.347 834.023 541.369 815.462 543.39 799.628C543.331 806.329 544.045 809.887 545.531 810.243C549.931 811.311 558.256 783.498 576.213 727.993Z" fill="#333133"/>
<path d="M1435.9 737.079C1536.47 636.519 1536.47 473.479 1435.9 372.919C1335.33 272.359 1172.28 272.359 1071.71 372.919C971.142 473.479 971.142 636.519 1071.71 737.079C1172.28 837.639 1335.33 837.639 1435.9 737.079Z" fill="#FF8658"/>
<path d="M1249.42 340.899L1343.03 313.599C1337.38 311.454 1331.52 309.601 1325.67 307.846L1246.5 330.954L1249.42 340.899Z" fill="#D6B328"/>
<path d="M1399 342.557L1274.58 378.827L1277.5 388.772L1409.73 350.259C1406.22 347.529 1402.61 344.994 1399 342.557Z" fill="#D6B328"/>
<path d="M1446.78 384.579L1329.19 418.9L1332.11 428.845L1454.09 393.257C1451.75 390.332 1449.32 387.407 1446.78 384.579Z" fill="#D6B328"/>
<path d="M1479.45 431.087L1383.79 458.973L1386.72 468.918L1484.32 440.447C1482.76 437.327 1481.2 434.207 1479.45 431.087Z" fill="#D6B328"/>
<path d="M1415.77 516.498L1503.14 491.05C1502.46 488.418 1501.78 485.785 1501 483.055L1500.41 481.008L1412.85 506.553L1415.77 516.498Z" fill="#D6B328"/>
<path d="M1321.77 589.137L1324.7 599.082L1511.14 544.774C1511.04 541.264 1510.75 537.754 1510.46 534.146L1321.77 589.137Z" fill="#D6B328"/>
<path d="M1336.89 640.812L1339.81 650.757L1507.04 602.006C1507.73 598.204 1508.31 594.499 1508.9 590.696L1336.89 640.812Z" fill="#D6B328"/>
<path d="M1351.9 692.39L1354.83 702.335L1487.25 663.725C1489.1 659.63 1490.95 655.535 1492.61 651.342L1351.9 692.39Z" fill="#D6B328"/>
<path d="M1367.02 744.065L1369.94 754.01L1439.37 733.73C1443.86 729.05 1448.24 724.175 1452.34 719.203L1367.02 744.065Z" fill="#D6B328"/>
<path d="M1196.96 829.089C1339.19 829.089 1454.49 713.802 1454.49 571.589C1454.49 429.376 1339.19 314.089 1196.96 314.089C1054.74 314.089 939.442 429.376 939.442 571.589C939.442 713.802 1054.74 829.089 1196.96 829.089Z" fill="#F9D039"/>
<path d="M1124.9 324.519C1101.92 331.237 1079.97 341.079 1059.67 353.769L964.109 681.86C989.188 734.925 1031.69 777.8 1084.53 803.346L1226.41 315.744C1192.33 311.916 1157.82 314.899 1124.9 324.519Z" fill="#FFE76C"/>
<path d="M1224.26 827.819L1357.46 370.247C1336.03 353.171 1312 339.641 1286.28 330.174L1142.65 823.431C1169.44 829.275 1197 830.756 1224.26 827.819Z" fill="#FFE76C"/>
<path d="M1315.76 690.378C1381.38 624.773 1381.38 518.405 1315.76 452.799C1250.15 387.193 1143.78 387.193 1078.16 452.799C1012.55 518.405 1012.55 624.773 1078.16 690.378C1143.78 755.984 1250.15 755.984 1315.76 690.378Z" fill="#FF7341"/>
<path d="M1261.12 416.462L1167.81 737.143C1193.21 741.612 1219.3 740.178 1244.06 732.95C1246.98 732.073 1249.91 731.195 1252.74 730.123L1329.09 467.845C1311.17 445.218 1287.78 427.533 1261.12 416.462Z" fill="#FFB08F"/>
<path d="M1149.96 410.515C1060.94 436.45 1009.74 529.661 1035.68 618.777C1047.48 659.253 1074.08 693.813 1110.18 715.595L1200.96 403.885C1183.72 403.401 1166.51 405.638 1149.96 410.515Z" fill="#FFB08F"/>
<path d="M409.787 19.7758L489.325 19.2582C493.527 51.9384 469.286 76.5534 448.777 76.206C428.725 75.8668 405.827 51.5633 409.787 19.7758Z" fill="#DCDDE2"/>
<path d="M440.459 61.1929C445.704 80.4434 451.253 113.124 439.939 149.203C437.593 156.679 434.637 163.951 431.103 170.947L468.532 171.465C464.87 163.988 461.912 156.189 459.695 148.168C449.879 112.597 457.13 81.1259 462.815 63.7813L440.459 61.1929Z" fill="#DCDDE2"/>
<path d="M417.065 33.7538L481.527 32.7186C482.102 51.3456 466.765 66.6604 448.777 66.3698C431.55 66.0913 417.073 51.5847 417.065 33.7538Z" fill="#E53E41"/>
<defs>
<linearGradient id="paint0_linear_738_40000" x1="1059.2" y1="204.708" x2="684.017" y2="118.425" gradientUnits="userSpaceOnUse">
<stop stop-color="#FF8658"/>
<stop offset="0.341103" stop-color="#FF9A72"/>
<stop offset="1" stop-color="#FFE76C"/>
</linearGradient>
<linearGradient id="paint1_linear_738_40000" x1="626.25" y1="691.069" x2="382.19" y2="402.762" gradientUnits="userSpaceOnUse">
<stop stop-color="#FF8658"/>
<stop offset="0.341103" stop-color="#FF9A72"/>
<stop offset="1" stop-color="#FFE76C"/>
</linearGradient>
<linearGradient id="paint2_linear_738_40000" x1="829.169" y1="829.278" x2="576.14" y2="269.749" gradientUnits="userSpaceOnUse">
<stop stop-color="#FF8658"/>
<stop offset="0.341103" stop-color="#FF9A72"/>
<stop offset="1" stop-color="#FFE76C"/>
</linearGradient>
<linearGradient id="paint3_linear_738_40000" x1="589.515" y1="254.568" x2="331.743" y2="88.2839" gradientUnits="userSpaceOnUse">
<stop stop-color="#FF8658"/>
<stop offset="0.341103" stop-color="#FF9A72"/>
<stop offset="1" stop-color="#FFE76C"/>
</linearGradient>
<linearGradient id="paint4_linear_738_40000" x1="684.474" y1="295.563" x2="684.474" y2="100.277" gradientUnits="userSpaceOnUse">
<stop stop-color="#EAE9F7"/>
<stop offset="0.510417" stop-color="#8B89C2"/>
<stop offset="1" stop-color="#686596"/>
</linearGradient>
<linearGradient id="paint5_linear_738_40000" x1="970.862" y1="171.467" x2="811.453" y2="-0.146073" gradientUnits="userSpaceOnUse">
<stop stop-color="#FF8658"/>
<stop offset="0.341103" stop-color="#FF9A72"/>
<stop offset="1" stop-color="#FFE76C"/>
</linearGradient>
<linearGradient id="paint6_linear_738_40000" x1="885.147" y1="-27.9782" x2="861.526" y2="565.103" gradientUnits="userSpaceOnUse">
<stop stop-color="#EAE9F7"/>
<stop offset="0.510417" stop-color="#8B89C2"/>
<stop offset="1" stop-color="#686596"/>
</linearGradient>
<linearGradient id="paint7_linear_738_40000" x1="1093.31" y1="314.922" x2="863.243" y2="495.979" gradientUnits="userSpaceOnUse">
<stop stop-color="#FF8658"/>
<stop offset="0.341103" stop-color="#FF9A72"/>
<stop offset="1" stop-color="#FFE76C"/>
</linearGradient>
<linearGradient id="paint8_linear_738_40000" x1="817.798" y1="215.199" x2="1136.19" y2="374.375" gradientUnits="userSpaceOnUse">
<stop stop-color="#EAE9F7"/>
<stop offset="0.510417" stop-color="#8B89C2"/>
<stop offset="1" stop-color="#686596"/>
</linearGradient>
<linearGradient id="paint9_linear_738_40000" x1="544.032" y1="336.795" x2="875.54" y2="170.623" gradientUnits="userSpaceOnUse">
<stop stop-color="#EAE9F7"/>
<stop offset="0.510417" stop-color="#8B89C2"/>
<stop offset="1" stop-color="#686596"/>
</linearGradient>
<linearGradient id="paint10_linear_738_40000" x1="1201.77" y1="295.683" x2="804.678" y2="289.561" gradientUnits="userSpaceOnUse">
<stop stop-color="#EAE9F7"/>
<stop offset="0.510417" stop-color="#8B89C2"/>
<stop offset="1" stop-color="#686596"/>
</linearGradient>
</defs>
</svg>
