<svg width="288" height="256" viewBox="0 0 288 256" fill="none" xmlns="http://www.w3.org/2000/svg">
<g clip-path="url(#clip0_320_23241)">
<path d="M264.838 125.143C248.087 193.285 179.399 248.484 111.46 248.484C43.5204 248.484 1.97065 193.238 18.7215 125.143C35.4724 57.0477 104.16 1.80225 172.1 1.80225C240.039 1.80225 281.589 57.0477 264.838 125.143Z" fill="#EAE9F7"/>
<g clip-path="url(#clip1_320_23241)">
<path d="M251.001 19.2514C250.56 19.5018 250.472 19.9799 250.269 20.3729C219.321 80.5304 188.377 140.69 157.438 200.85C152.987 209.511 148.54 218.172 144.098 226.833C143.665 227.685 143.184 228.003 142.197 228C126.515 227.962 110.834 227.962 95.1522 228C94.2152 228 93.6489 227.697 93.0676 226.986C70.6996 199.737 48.3165 172.498 25.9184 145.269C23.4129 142.21 20.8973 139.153 18.3717 136.099C17.9908 135.638 17.7528 135.348 18.3892 134.832C22.4558 131.578 26.4872 128.281 30.5287 124.999C30.6096 125.093 30.7131 125.166 30.8297 125.21C30.9462 125.254 31.0719 125.267 31.1952 125.249C35.0237 125.189 38.7971 125.75 42.573 126.251C47.8697 126.974 52.9285 128.396 57.6665 131.007C64.5568 134.8 70.1342 140.087 75.1328 146.008C79.5275 151.215 83.2508 156.908 86.6584 162.818C91.0506 170.436 94.7814 178.36 98.1038 186.483C100.341 191.958 102.797 197.295 106.372 202.057C107.625 203.732 108.948 205.407 110.787 206.39C113.293 207.735 115.738 206.796 117.988 205.484C122.022 203.133 124.502 199.396 126.65 195.423C130.616 188.108 133.122 180.22 135.552 172.316C138.511 162.698 141.565 153.13 146.591 144.328C149.382 139.419 152.733 134.85 156.576 130.712C159.217 127.883 162.141 125.359 165.12 122.888C169.78 119.026 174.779 115.593 179.314 111.573C182.634 108.629 185.651 105.47 187.79 101.537C190.466 96.6275 191.842 91.2977 192.927 85.8752C193.776 81.6194 194.408 77.326 194.984 73.0226C195.513 69.0947 196.116 65.1744 196.688 61.2565C197.216 57.619 197.662 53.964 198.299 50.344C199.426 43.9428 201.864 38.0096 205.014 32.3469C208.978 25.2146 213.846 18.7708 219.872 13.2557C222.377 10.9651 225.061 8.85466 228.06 7.19989C232.131 9.27273 236.208 11.3356 240.272 13.4234C243.855 15.2634 247.418 17.136 250.991 18.9936L251.001 19.2514Z" fill="#66BA93"/>
<path d="M228.083 7.20738C225.076 8.86215 222.398 10.9625 219.894 13.2632C213.869 18.7707 209 25.2221 205.036 32.3544C201.887 38.0171 199.449 43.9503 198.322 50.3515C197.685 53.9715 197.239 57.6265 196.71 61.264C196.139 65.1869 195.535 69.1073 195.007 73.0301C194.43 77.3335 193.799 81.6269 192.95 85.8828C191.865 91.3052 190.489 96.635 187.813 101.544C185.673 105.477 182.657 108.636 179.337 111.581C174.802 115.601 169.803 119.033 165.143 122.896C162.164 125.367 159.24 127.903 156.599 130.719C152.756 134.858 149.405 139.427 146.614 144.335C141.578 153.137 138.534 162.706 135.575 172.324C133.144 180.227 130.639 188.115 126.672 195.43C124.518 199.403 122.045 203.141 118.011 205.492C115.756 206.804 113.323 207.745 110.81 206.398C108.971 205.414 107.65 203.739 106.395 202.065C102.819 197.308 100.364 191.966 98.1265 186.491C94.8041 178.367 91.0732 170.444 86.681 162.826C83.2684 156.915 79.5451 151.222 75.1554 146.015C70.1568 140.095 64.5794 134.807 57.6891 131.015C52.9511 128.409 47.8923 126.987 42.5955 126.258C38.8197 125.745 35.0463 125.187 31.2178 125.257C31.0946 125.275 30.9688 125.261 30.8522 125.217C30.7357 125.174 30.6321 125.101 30.5513 125.006C34.3664 121.852 38.1841 118.7 42.0043 115.551C44.3194 113.643 46.6621 111.773 48.9597 109.846C49.5861 109.32 49.9143 109.257 50.4981 109.973C62.7052 124.954 74.9308 139.918 87.1746 154.865C96.6123 166.406 106.05 177.945 115.488 189.482C115.723 189.77 115.989 190.033 116.312 190.396L214.227 0.0100098H214.477C215.044 0.340463 215.597 0.690944 216.176 0.993859C220.135 3.06837 224.104 5.13954 228.083 7.20738Z" fill="#7ED9AF"/>
</g>
<path d="M159.087 177.673L159.428 157.324C159.428 156.975 159.533 156.634 159.73 156.345C159.928 156.057 160.207 155.835 160.533 155.708C165.147 153.891 167.536 151.529 168.782 149.548C169.17 148.219 169.616 146.916 170.12 145.64C177.294 127.372 195.771 114.817 219.168 114.817C236.117 114.817 252.335 121.409 264.671 131.972C264.821 131.706 264.971 131.447 265.137 131.192C265.477 130.655 265.847 130.137 266.244 129.641C267.032 128.63 267.947 127.724 268.966 126.945C270.023 126.139 271.207 125.516 272.47 125.1C273.806 124.673 275.211 124.503 276.611 124.598C277.004 124.619 277.395 124.661 277.784 124.722C278.409 123.839 279.255 123.133 280.236 122.676C281.445 122.122 282.81 121.954 284.136 122.036C285.461 122.131 286.765 122.427 288.001 122.914C287.371 122.807 286.735 122.736 286.096 122.7C285.483 122.671 284.868 122.696 284.259 122.775C283.133 122.912 282.065 123.345 281.162 124.03C280.7 124.384 280.284 124.795 279.924 125.252C281.696 125.861 283.307 126.863 284.634 128.184C285.183 128.729 285.672 129.332 286.093 129.982C286.521 130.632 286.859 131.337 287.097 132.079C287.339 132.823 287.437 133.606 287.385 134.387C287.331 135.15 287.085 135.887 286.669 136.529C286.264 137.14 285.721 137.647 285.084 138.009C284.782 138.187 284.464 138.337 284.136 138.459C283.974 138.523 283.809 138.572 283.645 138.626C283.482 138.68 283.293 138.725 283.108 138.761C282.722 138.84 282.328 138.873 281.934 138.859C281.506 138.84 281.083 138.763 280.676 138.631C280.252 138.489 279.849 138.294 279.476 138.05C279.117 137.806 278.784 137.525 278.484 137.211C278.202 136.911 277.945 136.59 277.714 136.249C277.501 135.924 277.311 135.584 277.144 135.233C276.824 134.568 276.575 133.871 276.403 133.153C276.079 131.807 275.997 130.415 276.16 129.041C276.236 128.405 276.372 127.777 276.565 127.165C274.506 127.184 272.522 127.937 270.972 129.289C270.155 129.989 269.432 130.79 268.821 131.674C268.51 132.122 268.224 132.586 267.964 133.064C267.836 133.304 267.711 133.547 267.597 133.791L267.432 134.156L267.356 134.338C267.356 134.351 267.345 134.366 267.339 134.381C277.535 144.057 284.634 156.587 286.56 170.286C288.913 187.005 283.069 202 271.923 212.17C271.381 212.664 270.823 213.145 270.256 213.617C268.906 215.161 267.339 218.045 268.006 222.774L269.056 230.215C269.077 230.33 269.073 230.449 269.042 230.563C269.012 230.676 268.956 230.782 268.88 230.871C268.804 230.961 268.709 231.032 268.602 231.081C268.494 231.129 268.378 231.153 268.26 231.151L244.247 231.404C244.035 231.4 243.828 231.336 243.651 231.219C243.474 231.102 243.334 230.937 243.247 230.743L240.873 225.453C238.882 225.644 236.85 225.741 234.777 225.743C232.705 225.745 230.645 225.648 228.598 225.453L227.715 230.733C227.684 230.924 227.584 231.097 227.434 231.218C227.283 231.34 227.093 231.403 226.9 231.394L202.822 231.142C202.564 231.132 202.318 231.033 202.125 230.862C201.931 230.691 201.804 230.459 201.763 230.204L200.713 222.765C200.053 218.078 197.713 215.203 195.933 213.65C186.775 207.49 179.143 199.313 173.999 189.919L173.981 189.899C171.881 187.203 164.982 183.284 161.34 181.332C159.957 180.589 159.062 179.135 159.087 177.673ZM278.484 132.945C278.744 134.05 279.224 135.153 279.929 135.891C280.634 136.63 281.471 136.892 282.41 136.693C282.527 136.667 282.641 136.634 282.761 136.601C282.88 136.568 283.006 136.517 283.123 136.468C283.354 136.375 283.576 136.263 283.786 136.132C284.179 135.899 284.512 135.578 284.758 135.193C285.225 134.459 285.264 133.482 284.928 132.497C284.592 131.511 283.926 130.531 283.083 129.737C281.866 128.591 280.364 127.789 278.733 127.415C278.49 128.108 278.333 128.827 278.265 129.558C278.152 130.691 278.226 131.835 278.484 132.945V132.945Z" fill="#FF8F91"/>
<path d="M265.317 132.63C265.745 131.821 266 131.216 266.396 130.72C267.184 129.709 268.099 128.803 269.118 128.024C270.174 127.217 271.358 126.592 272.621 126.175C273.958 125.747 275.364 125.575 276.764 125.669C279.786 125.852 282.638 127.13 284.784 129.264C285.333 129.81 285.823 130.412 286.245 131.062L286.257 131.081C286.862 132.023 287.241 133.093 287.362 134.206L287.383 134.395C287.435 133.614 287.337 132.831 287.095 132.088C286.857 131.346 286.52 130.641 286.092 129.991C285.671 129.341 285.181 128.738 284.632 128.193C282.486 126.059 279.634 124.781 276.611 124.598C275.211 124.504 273.806 124.676 272.47 125.104C271.207 125.52 270.023 126.144 268.966 126.95C267.947 127.728 267.032 128.635 266.244 129.646C265.846 130.14 265.476 130.655 265.136 131.189C264.974 131.444 264.818 131.703 264.668 131.969L265.317 132.63Z" fill="#FFB0B1"/>
<path d="M286.56 170.286C288.913 187.005 283.069 202 271.923 212.17C271.381 212.664 270.823 213.145 270.256 213.617C268.906 215.161 267.339 218.045 268.006 222.774L269.056 230.215C269.077 230.33 269.073 230.449 269.042 230.563C269.012 230.676 268.956 230.782 268.88 230.871C268.804 230.961 268.709 231.032 268.602 231.081C268.494 231.129 268.378 231.153 268.26 231.151L244.247 231.404C244.035 231.4 243.828 231.336 243.651 231.219C243.474 231.102 243.334 230.937 243.247 230.743L240.873 225.453C238.882 225.644 236.85 225.741 234.777 225.743C232.704 225.745 230.645 225.648 228.598 225.453L227.714 230.733C227.684 230.924 227.584 231.097 227.433 231.218C227.283 231.34 227.093 231.403 226.9 231.394L202.821 231.142C202.564 231.132 202.317 231.033 202.124 230.862C201.931 230.691 201.804 230.458 201.763 230.204L200.713 222.765C200.053 218.078 197.713 215.203 195.933 213.65C186.775 207.49 179.143 199.313 173.999 189.919C173.994 189.912 173.988 189.905 173.981 189.899C170.417 186.069 161.997 181.692 162.057 181.719C164.865 183.1 166.875 182.018 168.002 178.512C184.411 212.519 259.123 240.319 286.56 170.286Z" fill="#F97274"/>
<path d="M226.853 116.124C233.548 116.763 240.165 119.804 245.233 124.803C250.645 130.133 255.036 138.298 250.957 149.634C242.798 172.304 196.812 193.087 167.687 166.637L161.462 172.421C161.192 172.67 160.712 172.421 160.696 172.033L160.396 157.616C160.387 157.411 160.434 157.207 160.532 157.026C160.63 156.845 160.775 156.694 160.952 156.589L166.479 153.373C166.534 153.346 166.594 153.331 166.654 153.329C166.715 153.327 166.775 153.338 166.832 153.36C166.888 153.382 166.939 153.416 166.982 153.459C167.025 153.503 167.058 153.554 167.079 153.611L168.192 156.253C168.224 156.328 168.33 156.331 168.342 156.253C168.921 152.589 176.714 111.332 226.853 116.124Z" fill="#FFB0B1"/>
<path d="M212.089 128.852C212.089 128.852 224.448 143.233 212.982 152.236C201.515 161.239 190.909 156.921 190.909 156.921L212.089 128.852Z" fill="#FF8F91"/>
<path d="M212.09 128.852C212.09 128.852 199.183 112.203 169.351 112.565C163.873 112.657 170.582 120.776 172.38 123.184C180.039 133.436 185.924 142.616 190.91 156.921C190.91 156.921 216.657 157.461 212.09 128.852Z" fill="#FF8F91"/>
<path d="M195.727 152.108C195.561 152.149 195.392 152.179 195.222 152.198C192.549 152.517 189.786 150.747 188.687 148.113C183.037 134.576 167.383 117.407 170.159 115.087C171.644 113.844 183.658 118.865 192.357 125.546C200.939 132.137 205.92 140.432 200.756 148.347C199.51 150.258 197.835 151.562 195.727 152.108Z" fill="#FFB0B1"/>
<path d="M235.139 119.786L235.486 118.485C234.898 118.335 220.957 114.699 208.82 118.492L209.223 119.779C220.984 116.104 235.001 119.749 235.139 119.786Z" fill="#F05659"/>
<path d="M172.338 154.941C171.423 154.849 170.819 153.427 170.988 151.767C171.156 150.107 172.035 148.837 172.95 148.929C173.864 149.022 174.469 150.443 174.3 152.103C174.131 153.764 173.253 155.034 172.338 154.941Z" fill="#333133"/>
<path opacity="0.15" d="M278.739 127.413C278.412 128.307 278.236 129.25 278.217 130.202C278.154 132.599 278.857 136.679 281.986 136.75C281.986 136.75 278.724 138.006 277.477 132.63C277.071 130.816 277.175 128.926 277.777 127.167L278.739 127.413Z" fill="#333133"/>
<path d="M164.713 222.399L209.547 222.364C209.881 222.365 210.201 222.498 210.437 222.733C210.673 222.969 210.805 223.288 210.806 223.62L210.807 228.342C210.805 228.675 210.672 228.993 210.436 229.228C210.2 229.463 209.88 229.595 209.546 229.596L164.712 229.63C164.378 229.629 164.058 229.497 163.823 229.261C163.587 229.026 163.454 228.707 163.454 228.374L163.453 223.653C163.454 223.32 163.587 223.001 163.823 222.767C164.059 222.532 164.379 222.399 164.713 222.399V222.399Z" fill="#F9D039"/>
<path d="M160.927 215.17L205.761 215.135C206.095 215.136 206.415 215.269 206.651 215.504C206.886 215.74 207.019 216.059 207.02 216.391L207.02 221.113C207.019 221.446 206.886 221.764 206.65 221.999C206.414 222.234 206.094 222.366 205.76 222.367L160.926 222.402C160.592 222.401 160.272 222.268 160.036 222.033C159.8 221.797 159.668 221.478 159.667 221.146L159.667 216.424C159.668 216.091 159.801 215.773 160.037 215.538C160.273 215.303 160.593 215.17 160.927 215.17V215.17Z" fill="#F9D039"/>
<path d="M157.686 207.945L202.52 207.91C202.854 207.911 203.174 208.043 203.41 208.279C203.646 208.514 203.778 208.833 203.779 209.166L203.78 213.888C203.779 214.22 203.645 214.539 203.409 214.774C203.173 215.009 202.853 215.141 202.519 215.142L157.696 215.171C157.362 215.17 157.042 215.037 156.806 214.802C156.57 214.566 156.438 214.247 156.437 213.914L156.437 209.193C156.436 208.862 156.568 208.545 156.802 208.311C157.036 208.077 157.354 207.945 157.686 207.945V207.945Z" fill="#F9D039"/>
<path d="M161.749 200.707L206.584 200.672C206.917 200.673 207.237 200.806 207.473 201.041C207.709 201.277 207.841 201.596 207.842 201.928L207.843 206.65C207.842 206.983 207.709 207.301 207.472 207.537C207.236 207.772 206.916 207.904 206.582 207.904L161.748 207.939C161.414 207.938 161.095 207.805 160.859 207.57C160.623 207.335 160.49 207.016 160.49 206.683L160.489 201.962C160.49 201.629 160.623 201.31 160.859 201.075C161.095 200.84 161.415 200.708 161.749 200.707V200.707Z" fill="#F9D039"/>
<path d="M167.901 222.397H166.823V229.63H167.901V222.397Z" fill="#FFEF8B"/>
<path d="M173.642 222.396H172.564V229.629H173.642V222.396Z" fill="#FFEF8B"/>
<path d="M179.386 222.387H178.308V229.62H179.386V222.387Z" fill="#FFEF8B"/>
<path d="M185.128 222.377H184.05V229.61H185.128V222.377Z" fill="#FFEF8B"/>
<path d="M190.87 222.377H189.792V229.61H190.87V222.377Z" fill="#FFEF8B"/>
<path d="M196.613 222.376H195.535V229.609H196.613V222.376Z" fill="#FFEF8B"/>
<path d="M164.113 215.168H163.035V222.401H164.113V215.168Z" fill="#FFEF8B"/>
<path d="M169.856 215.159H168.778V222.392H169.856V215.159Z" fill="#FFEF8B"/>
<path d="M175.599 215.159H174.521V222.392H175.599V215.159Z" fill="#FFEF8B"/>
<path d="M181.341 215.158H180.263V222.391H181.341V215.158Z" fill="#FFEF8B"/>
<path d="M160.872 207.944H159.794V215.177H160.872V207.944Z" fill="#FFEF8B"/>
<path d="M166.615 207.935H165.537V215.168H166.615V207.935Z" fill="#FFEF8B"/>
<path d="M172.368 207.934H171.29V215.167H172.368V207.934Z" fill="#FFEF8B"/>
<path d="M178.11 207.925H177.032V215.158H178.11V207.925Z" fill="#FFEF8B"/>
<path d="M164.936 200.705H163.858V207.938H164.936V200.705Z" fill="#FFEF8B"/>
<path d="M170.679 200.696H169.601V207.929H170.679V200.696Z" fill="#FFEF8B"/>
<path d="M176.422 200.695H175.344V207.929H176.422V200.695Z" fill="#FFEF8B"/>
<path d="M202.366 222.367H201.288V229.6H202.366V222.367Z" fill="#FFEF8B"/>
<path d="M208.108 222.366H207.03V229.599H208.108V222.366Z" fill="#FFEF8B"/>
<path d="M187.093 215.149H186.015V222.382H187.093V215.149Z" fill="#FFEF8B"/>
<path d="M192.835 215.148H191.757V222.381H192.835V215.148Z" fill="#FFEF8B"/>
<path d="M198.576 215.139H197.498V222.372H198.576V215.139Z" fill="#FFEF8B"/>
<path d="M204.321 215.138H203.243V222.371H204.321V215.138Z" fill="#FFEF8B"/>
<path d="M183.853 207.924H182.775V215.157H183.853V207.924Z" fill="#FFEF8B"/>
<path d="M189.596 207.915H188.518V215.148H189.596V207.915Z" fill="#FFEF8B"/>
<path d="M195.337 207.914H194.259V215.147H195.337V207.914Z" fill="#FFEF8B"/>
<path d="M201.08 207.905H200.002V215.138H201.08V207.905Z" fill="#FFEF8B"/>
<path d="M182.164 200.686H181.086V207.919H182.164V200.686Z" fill="#FFEF8B"/>
<path d="M187.907 200.686H186.829V207.919H187.907V200.686Z" fill="#FFEF8B"/>
<path d="M193.658 200.676H192.58V207.909H193.658V200.676Z" fill="#FFEF8B"/>
<path d="M199.401 200.676H198.323V207.909H199.401V200.676Z" fill="#FFEF8B"/>
<path d="M205.142 200.675H204.064V207.908H205.142V200.675Z" fill="#FFEF8B"/>
<path d="M135.338 224.611L159.009 192.385C159.186 192.146 159.451 191.987 159.746 191.943C160.041 191.899 160.342 191.973 160.582 192.15L163.998 194.663C164.238 194.841 164.398 195.107 164.443 195.401C164.488 195.696 164.415 195.996 164.238 196.236L140.568 228.462C140.391 228.701 140.126 228.86 139.831 228.904C139.536 228.948 139.236 228.874 138.995 228.697L135.579 226.184C135.339 226.006 135.179 225.741 135.134 225.446C135.089 225.151 135.162 224.851 135.338 224.611V224.611Z" fill="#F9D039"/>
<path d="M137.02 222.335L136.452 223.107L141.666 226.945L142.234 226.173L137.02 222.335Z" fill="#FFEF8B"/>
<path d="M140.052 218.203L139.484 218.975L144.697 222.813L145.265 222.041L140.052 218.203Z" fill="#FFEF8B"/>
<path d="M143.088 214.076L142.52 214.848L147.734 218.686L148.301 217.914L143.088 214.076Z" fill="#FFEF8B"/>
<path d="M146.121 209.943L145.553 210.715L150.766 214.554L151.334 213.782L146.121 209.943Z" fill="#FFEF8B"/>
<path d="M149.157 205.816L148.589 206.588L153.803 210.426L154.371 209.654L149.157 205.816Z" fill="#FFEF8B"/>
<path d="M152.192 201.678L151.625 202.449L156.838 206.288L157.406 205.516L152.192 201.678Z" fill="#FFEF8B"/>
<path d="M155.229 197.55L154.661 198.322L159.875 202.16L160.443 201.389L155.229 197.55Z" fill="#FFEF8B"/>
<path d="M158.267 193.423L157.699 194.195L162.912 198.033L163.48 197.261L158.267 193.423Z" fill="#FFEF8B"/>
<path d="M101.577 212.34H88.5914V220.248H88.0103C88.0326 220.318 88.0447 220.39 88.0461 220.464C88.0461 220.636 88.0533 220.809 88.0605 220.981C88.13 221.317 88.1565 221.66 88.1394 222.002V222.038H89.8398C89.8315 222.073 89.8267 222.11 89.8254 222.146H92.315L92.3724 222.038H97.8036C97.9289 222.038 98.0512 222.076 98.1552 222.146H98.6143C98.6411 222.099 98.665 222.051 98.6861 222.002H99.6403L103.342 215.345C103.472 215.115 103.555 214.861 103.587 214.599C103.619 214.336 103.598 214.07 103.527 213.816C103.455 213.561 103.335 213.323 103.171 213.116C103.008 212.908 102.805 212.735 102.575 212.606C102.272 212.43 101.928 212.338 101.577 212.34V212.34ZM101.463 215.036L98.5641 220.255C98.5282 220.255 98.4852 220.248 98.4493 220.248H93.3625L94.7544 217.746C94.8272 217.616 94.8737 217.473 94.8911 217.324C94.9085 217.176 94.8966 217.026 94.8559 216.882C94.8152 216.739 94.7467 216.605 94.6542 216.488C94.5616 216.371 94.447 216.273 94.3167 216.2C94.1475 216.107 93.9576 216.057 93.7643 216.057V216.057C93.5626 216.057 93.3645 216.111 93.1905 216.213C93.0165 216.316 92.8728 216.463 92.7742 216.639L90.7653 220.248H88.5914V214.123H100.932C101.012 214.123 101.091 214.139 101.165 214.169C101.239 214.2 101.306 214.245 101.363 214.302C101.42 214.358 101.465 214.426 101.495 214.5C101.526 214.574 101.542 214.654 101.542 214.734C101.544 214.84 101.516 214.944 101.463 215.036V215.036Z" fill="#CAC9EA"/>
<path d="M61.6527 202.304L64.2068 180.629H36.7926V180.636C36.1843 180.659 35.5792 180.736 34.9846 180.866C25.8011 182.879 20.9224 197.832 20.9224 197.832L31.4762 228.602H39.4257C31.4045 225.604 38.9665 215.64 43.9385 204.08L61.6527 202.304Z" fill="#7573B6"/>
<path d="M38.3197 188.645L35.457 191.506L46.6494 203.814L45.6163 202.678L50.6816 192.038L50.33 189.953C50.2522 189.486 50.0139 189.061 49.6562 188.751C49.2985 188.441 48.844 188.266 48.3713 188.257L39.7977 188.063C39.5248 188.054 39.253 188.101 38.9989 188.201C38.7448 188.301 38.5137 188.452 38.3197 188.645V188.645Z" fill="#9E9CD2"/>
<path d="M88.5925 205.582H68.0013L49.541 225.517L58.5093 228.609H63.4741L76.3526 228.796L88.5925 205.582Z" fill="#7573B6"/>
<path d="M55.2808 226.129L64.6868 222.318C64.9094 222.227 65.093 222.061 65.2058 221.848C65.3185 221.635 65.3532 221.39 65.3038 221.154L63.7469 213.907C63.6892 213.643 63.5292 213.412 63.302 213.265C63.0748 213.118 62.7988 213.067 62.5344 213.124C62.319 213.17 62.1248 213.286 61.9819 213.454L54.7643 221.808C54.6541 221.933 54.5776 222.084 54.5419 222.247L53.9105 224.957C53.88 225.087 53.8756 225.222 53.8974 225.354C53.9191 225.486 53.9667 225.613 54.0374 225.726C54.108 225.84 54.2004 225.938 54.3091 226.016C54.4179 226.094 54.5408 226.149 54.671 226.179C54.8747 226.224 55.0871 226.206 55.2808 226.129V226.129Z" fill="#9E9CD2"/>
<path d="M65.6835 210.169L68.0367 215.891C68.1419 216.148 68.3444 216.353 68.5999 216.461C68.8553 216.569 69.143 216.571 69.3999 216.467C69.5208 216.417 69.6306 216.344 69.7228 216.251L75.5988 210.607C75.7791 210.436 75.892 210.205 75.9171 209.957C75.9421 209.709 75.8775 209.46 75.7351 209.256L74.4508 207.401C74.3543 207.262 74.2257 207.148 74.0758 207.069C73.9259 206.99 73.7592 206.949 73.5899 206.948H67.7211C67.541 206.948 67.3639 206.994 67.2068 207.082C67.0497 207.17 66.9179 207.297 66.8242 207.451L65.748 209.234C65.6652 209.374 65.6162 209.532 65.605 209.694C65.5938 209.856 65.6207 210.019 65.6835 210.169V210.169Z" fill="#9E9CD2"/>
<path d="M87.403 205.582H77.5522L77.294 206.107C77.1712 206.36 77.1197 206.641 77.1449 206.921C77.1702 207.202 77.2714 207.469 77.4375 207.696L78.6428 209.335C78.7914 209.536 78.9866 209.698 79.2115 209.807C79.4365 209.916 79.6845 209.969 79.9342 209.96L85.9035 209.723C86.1096 209.716 86.3121 209.667 86.499 209.579L87.9698 206.79C87.9709 206.559 87.9205 206.331 87.8225 206.122C87.7244 205.913 87.5811 205.729 87.403 205.582V205.582Z" fill="#9E9CD2"/>
<path d="M67.959 220.485L67.9088 220.974C67.8696 221.364 67.9681 221.755 68.187 222.079C68.4059 222.404 68.7315 222.641 69.107 222.75L73.5911 224.058C73.9643 224.166 74.3634 224.142 74.7204 223.988C75.0775 223.835 75.3706 223.562 75.5498 223.217L80.0626 214.497C80.1641 214.301 80.2261 214.087 80.2449 213.867C80.2638 213.647 80.2392 213.426 80.1726 213.215C80.1059 213.005 79.9986 212.81 79.8566 212.641C79.7146 212.472 79.5408 212.333 79.3451 212.232C79.2815 212.196 79.2142 212.167 79.1442 212.146L77.86 211.679C77.565 211.573 77.2467 211.552 76.9403 211.617C76.6339 211.681 76.3513 211.83 76.1237 212.045L68.4612 219.436C68.18 219.718 68.003 220.088 67.959 220.485Z" fill="#9E9CD2"/>
<path d="M70.197 224.971L67.7648 224.123C67.3584 223.978 66.914 223.98 66.5093 224.13L57.8495 227.2C57.4235 227.351 57.065 227.649 56.8379 228.041L58.5024 228.616H63.4672L70.5629 228.717L71.1513 227.825C71.2896 227.617 71.3856 227.384 71.4337 227.139C71.4819 226.893 71.4813 226.641 71.432 226.396C71.3827 226.151 71.2856 225.918 71.1463 225.71C71.0071 225.503 70.8283 225.325 70.6203 225.187C70.4927 225.091 70.3495 225.018 70.197 224.971Z" fill="#9E9CD2"/>
<path d="M88.5935 221.995L86.8716 228.782L92.9628 229.04C96.4784 229.04 99.6352 221.995 99.6352 221.995H88.5935Z" fill="#7573B6"/>
<path d="M88.1768 223.332H89.9417C90.188 223.332 90.4283 223.408 90.629 223.551C90.8297 223.694 90.9807 223.897 91.061 224.13L92.625 228.616H88.1768V223.332Z" fill="#9E9CD2"/>
<path d="M91.7412 221.995L93.2479 225.654C93.3531 225.911 93.5556 226.116 93.811 226.224C94.0665 226.332 94.3541 226.334 94.6111 226.229C94.7319 226.18 94.8417 226.106 94.9339 226.014L99.1167 221.995H91.7412Z" fill="#9E9CD2"/>
<path d="M92.4608 212.879C94.4697 206.201 88.1561 203.167 83.7078 207.825C79.9124 211.801 74.0364 226.402 67.1416 228.666L92.7765 229.04C86.1759 228.861 90.4735 219.486 92.4608 212.879Z" fill="#4B497F"/>
<path d="M46.4052 201.592C46.4052 201.592 52.8193 182.361 62.5624 180.78C71.8392 179.27 77.1843 189.788 72.3055 202.153C67.4268 214.518 50.3584 221.995 58.5159 228.609H26.8472L46.4052 201.592Z" fill="#4B497F"/>
<path d="M65.9069 190.464C68.0593 188.846 70.2811 187.332 72.5722 185.92C70.6422 182.146 67.0692 180.039 62.5564 180.773C52.8133 182.354 46.3992 201.585 46.3992 201.585L26.834 228.602H42.654C44.8207 228.602 50.912 226.273 50.7685 222.405C50.6824 220.011 49.0609 218.81 50.1587 215.554C51.8519 210.528 62.6712 203.569 64.9742 201.06C65.4908 200.5 66.0217 199.745 65.7491 199.026C65.4549 198.249 64.4577 198.091 63.7617 197.638C62.5277 196.833 62.3196 195.007 62.9223 193.656C63.525 192.326 64.7231 191.355 65.9069 190.464Z" fill="#5F5E9B"/>
<path d="M33.2483 190.794H28.9436L22.5366 228.609H26.8414C37.2589 228.609 47.1456 220.14 48.9177 209.702C50.6826 199.263 43.6659 190.794 33.2483 190.794Z" fill="#25215E"/>
<path d="M44.6912 209.702C42.1227 220.147 31.5904 228.609 21.1728 228.609C10.7553 228.609 4.3842 220.14 6.95271 209.702C9.52123 199.263 20.0536 190.794 30.4711 190.794C40.8887 190.794 47.2597 199.263 44.6912 209.702Z" fill="#46437B"/>
<path d="M41.6123 209.702C39.46 218.444 30.6495 225.525 21.9324 225.525C13.2152 225.525 7.88447 218.444 10.0369 209.702C12.1892 200.96 20.9997 193.878 29.7168 193.878C38.434 193.878 43.7647 200.967 41.6123 209.702Z" fill="white"/>
<path d="M33.571 209.702C32.5163 213.986 28.19 217.466 23.9139 217.466C19.6379 217.466 17.0191 213.994 18.0738 209.702C19.1285 205.41 23.4547 201.937 27.7308 201.937C32.0141 201.937 34.6256 205.417 33.571 209.702Z" fill="#D1D3D4"/>
<path d="M12.4052 209.702C14.4571 201.362 22.5716 194.533 30.887 193.922C30.5067 193.893 30.1121 193.878 29.7103 193.878C20.986 193.878 12.1756 200.96 10.0232 209.702C7.8708 218.444 13.2015 225.525 21.9187 225.525C22.3205 225.525 22.7151 225.51 23.1169 225.482C15.11 224.871 10.3604 218.041 12.4052 209.702Z" fill="#D1D3D4"/>
<path d="M50.8536 209.148C50.3944 211.01 48.8375 212.527 47.3667 212.527C45.896 212.527 45.0852 211.017 45.5444 209.148C46.0036 207.279 47.5605 205.769 49.0313 205.769C50.5021 205.769 51.3128 207.279 50.8536 209.148Z" fill="#9E9CD2"/>
<path d="M50.8537 209.148C50.4806 210.672 49.4331 211.909 48.5148 211.909C47.5964 211.909 47.1588 210.672 47.539 209.148C47.9193 207.624 48.9596 206.387 49.8779 206.387C50.7963 206.387 51.2339 207.617 50.8537 209.148Z" fill="#B3B2DF"/>
<path d="M26.0368 209.637C25.9494 209.718 25.8469 209.78 25.7353 209.821C25.6236 209.862 25.505 209.88 25.3863 209.875C25.2675 209.87 25.151 209.841 25.0434 209.79C24.9359 209.739 24.8395 209.668 24.7597 209.579C24.7103 209.524 24.667 209.464 24.6305 209.4L19.924 200.773C19.8271 200.594 19.7928 200.388 19.8266 200.187C19.8605 199.986 19.9604 199.803 20.1105 199.666V199.666C20.1979 199.585 20.3004 199.522 20.412 199.481C20.5237 199.44 20.6423 199.422 20.761 199.428C20.8798 199.433 20.9963 199.462 21.1039 199.513C21.2114 199.563 21.3078 199.635 21.3876 199.723C21.437 199.778 21.4803 199.838 21.5168 199.903L26.2305 208.53C26.3251 208.71 26.3574 208.916 26.3223 209.117C26.2872 209.317 26.1868 209.5 26.0368 209.637V209.637Z" fill="#757475"/>
<path d="M26.3388 209.982C26.2827 210.073 26.1969 210.141 26.0961 210.175C25.9953 210.209 25.8858 210.207 25.7864 210.169L15.2971 205.942C15.1862 205.896 15.0977 205.809 15.0507 205.699C15.0037 205.588 15.002 205.464 15.046 205.352C15.0552 205.329 15.0672 205.307 15.0819 205.288V205.288C15.138 205.197 15.2238 205.129 15.3246 205.095C15.4254 205.061 15.5349 205.063 15.6343 205.101L26.1236 209.328C26.2345 209.373 26.323 209.46 26.37 209.571C26.417 209.681 26.4187 209.806 26.3747 209.917C26.3601 209.937 26.348 209.959 26.3388 209.982V209.982Z" fill="#757475"/>
<path d="M28.1315 209.702C27.8158 210.981 26.5315 212.009 25.2544 212.009C23.9774 212.009 23.2025 210.974 23.5182 209.702C23.8339 208.429 25.1181 207.394 26.3952 207.394C27.6723 207.394 28.44 208.429 28.1315 209.702Z" fill="#757475"/>
<path d="M26.6694 209.702C26.5546 210.169 26.0883 210.543 25.6219 210.543C25.1556 210.543 24.8758 210.169 24.9906 209.702C25.1054 209.234 25.5717 208.86 26.0381 208.86C26.5044 208.86 26.7842 209.234 26.6694 209.702Z" fill="white"/>
<path d="M36.9062 181.779H32.4795C29.4303 183.318 26.9622 186.229 25.104 189.148C25.2596 189.28 25.4428 189.376 25.6402 189.429C25.8376 189.481 26.0442 189.488 26.2448 189.45L35.9735 187.811C36.2208 187.77 36.4527 187.663 36.6456 187.503C36.8385 187.343 36.9854 187.134 37.0713 186.898L38.2407 183.691C38.3193 183.476 38.345 183.245 38.3154 183.018C38.2859 182.791 38.202 182.574 38.071 182.387C37.94 182.199 37.7657 182.046 37.5629 181.94C37.3601 181.834 37.1349 181.779 36.9062 181.779V181.779Z" fill="#9E9CD2"/>
<path d="M41.434 180.636L40.5658 183.677C40.4587 184.054 40.505 184.457 40.6947 184.8C40.8843 185.142 41.2018 185.395 41.5775 185.503C41.7779 185.56 41.988 185.575 42.1945 185.546L51.8515 184.108C52.054 184.08 52.2482 184.009 52.4213 183.9C52.5944 183.791 52.7425 183.646 52.856 183.476L54.3411 181.276C54.471 181.087 54.5546 180.87 54.585 180.643L41.434 180.636Z" fill="#9E9CD2"/>
<path d="M83.7078 207.825C79.9124 211.801 74.0364 226.402 67.1416 228.666L77.7887 228.825C78.4201 227.753 79.4532 226.848 80.5079 226.157C82.2872 224.993 84.332 224.073 85.5804 222.34C86.018 221.729 86.2907 220.773 85.7023 220.298C85.3293 220.004 84.7912 220.061 84.3535 219.874C83.3706 219.457 83.3562 217.955 84.0306 217.128C84.7051 216.301 85.7813 215.949 86.7642 215.532C89.2896 214.446 91.3129 212.721 92.8411 210.622C92.963 205.575 87.618 203.727 83.7078 207.825Z" fill="#5F5E9B"/>
<path d="M287.106 228.154H0V252.089H287.106V228.154Z" fill="#DCDDE2"/>
<path d="M4.54736 233.376V245.851C4.54913 246.133 4.65054 246.403 4.82967 246.602C5.00881 246.801 5.25126 246.914 5.50458 246.916C5.68879 246.91 5.86869 246.853 6.02806 246.75L23.3776 234.291C23.4834 234.217 23.5748 234.119 23.6464 234.005C23.7181 233.891 23.7686 233.762 23.7951 233.626C23.8215 233.489 23.8233 233.349 23.8005 233.212C23.7776 233.075 23.7305 232.944 23.6618 232.828C23.5736 232.679 23.4536 232.557 23.3126 232.473C23.1717 232.389 23.0142 232.345 22.8542 232.345H5.50458C5.38038 232.341 5.25669 232.365 5.14083 232.415C5.02497 232.464 4.91929 232.54 4.83004 232.636C4.7408 232.732 4.6698 232.847 4.62124 232.974C4.57269 233.102 4.54757 233.238 4.54736 233.376V233.376Z" fill="#F3F3F7"/>
<path d="M11.0829 245.818C10.8976 245.934 10.7526 246.116 10.671 246.334C10.5894 246.552 10.5759 246.795 10.6327 247.023C10.6896 247.251 10.8134 247.451 10.9844 247.591C11.1555 247.732 11.3639 247.804 11.5764 247.798H39.0665C39.1924 247.798 39.317 247.771 39.4333 247.717C39.5496 247.664 39.6553 247.586 39.7443 247.487C39.8332 247.388 39.9037 247.27 39.9517 247.141C39.9997 247.012 40.0242 246.873 40.0238 246.733C40.0253 246.54 39.9787 246.35 39.8892 246.184L32.9344 233.21C32.8077 232.972 32.602 232.798 32.3615 232.727C32.121 232.655 31.8648 232.691 31.6481 232.828L11.0829 245.818Z" fill="#F3F3F7"/>
<path d="M36.8382 233.925L40.1436 240.279C40.2711 240.521 40.4795 240.697 40.7233 240.769C40.9671 240.841 41.2265 240.802 41.4448 240.662C41.5055 240.627 41.561 240.582 41.6094 240.529L47.8612 234.175C47.954 234.081 48.0291 233.968 48.0824 233.842C48.1356 233.716 48.1659 233.579 48.1715 233.44C48.177 233.301 48.1578 233.162 48.1148 233.031C48.0718 232.9 48.0059 232.78 47.921 232.678C47.8318 232.569 47.7233 232.482 47.6023 232.422C47.4813 232.362 47.3505 232.33 47.2181 232.329H37.6608C37.535 232.328 37.4104 232.355 37.2941 232.409C37.1777 232.462 37.0721 232.54 36.9831 232.639C36.8941 232.738 36.8236 232.856 36.7757 232.985C36.7277 233.115 36.7032 233.253 36.7036 233.393C36.7041 233.581 36.7506 233.765 36.8382 233.925V233.925Z" fill="#F3F3F7"/>
<path d="M42.3274 244.621L43.5687 247.232C43.6492 247.402 43.7696 247.544 43.9171 247.644C44.0647 247.743 44.2337 247.796 44.4063 247.798H64.2088C64.3346 247.798 64.4592 247.771 64.5756 247.717C64.6919 247.664 64.7975 247.586 64.8865 247.487C64.9755 247.388 65.046 247.27 65.0939 247.141C65.1419 247.012 65.1664 246.873 65.166 246.733C65.1628 246.596 65.1374 246.461 65.0912 246.334L60.2752 232.994C60.2038 232.798 60.0818 232.631 59.9248 232.512C59.7677 232.394 59.5825 232.33 59.3928 232.329H53.1409C53.0187 232.326 52.8974 232.352 52.7843 232.403C52.6712 232.455 52.5686 232.531 52.4828 232.628L42.5068 243.356C42.3606 243.519 42.2644 243.729 42.2322 243.956C42.1999 244.183 42.2333 244.416 42.3274 244.621V244.621Z" fill="#F3F3F7"/>
<path d="M64.2682 233.726L65.8386 238.816C65.9221 239.081 66.0957 239.299 66.3222 239.423C66.5487 239.548 66.81 239.568 67.0501 239.481C67.1153 239.461 67.1764 239.427 67.2296 239.381L74.8425 234.291C75.0584 234.148 75.2143 233.915 75.276 233.643C75.3377 233.372 75.3001 233.085 75.1715 232.844C75.0855 232.687 74.9647 232.557 74.8207 232.467C74.6766 232.377 74.5142 232.329 74.3489 232.329H65.1656C65.0398 232.328 64.9151 232.355 64.7988 232.409C64.6825 232.462 64.5768 232.54 64.4878 232.639C64.3989 232.738 64.3284 232.856 64.2804 232.985C64.2325 233.115 64.208 233.253 64.2084 233.393C64.205 233.508 64.2255 233.621 64.2682 233.726V233.726Z" fill="#F3F3F7"/>
<path d="M67.4839 243.307L68.5009 246.733C68.5797 246.999 68.7494 247.219 68.9734 247.347C69.1973 247.475 69.4574 247.499 69.6974 247.415C69.7124 247.415 69.7273 247.398 69.7423 247.398L78.4769 243.689C78.6075 243.632 78.7256 243.544 78.8236 243.433C78.9215 243.321 78.9971 243.187 79.0453 243.041L81.5131 235.09C81.5786 234.884 81.5851 234.661 81.5317 234.451C81.4783 234.241 81.3676 234.055 81.215 233.918C81.0623 233.781 80.8752 233.7 80.6794 233.687C80.4836 233.673 80.2889 233.728 80.1221 233.842L67.9026 242.076C67.7167 242.197 67.5736 242.385 67.4974 242.609C67.4212 242.833 67.4164 243.079 67.4839 243.307V243.307Z" fill="#F3F3F7"/>
<path d="M79.1205 245.735L80.6611 245.12C80.7936 245.071 80.9337 245.053 81.0727 245.067C81.2117 245.082 81.3465 245.128 81.4687 245.203L82.396 245.818C82.575 245.937 82.7138 246.118 82.7911 246.333C82.8684 246.549 82.8798 246.786 82.8237 247.009C82.7676 247.233 82.6469 247.429 82.4805 247.568C82.314 247.708 82.1109 247.783 81.9024 247.781H79.4346C78.3577 247.798 78.1035 246.134 79.1205 245.735Z" fill="#F3F3F7"/>
<path d="M83.0838 243.872L86.2695 245.935C86.4609 246.057 86.6844 246.103 86.9024 246.063C87.1204 246.024 87.3195 245.902 87.466 245.718L96.4699 234.092C96.5898 233.938 96.667 233.748 96.6923 233.546C96.7176 233.345 96.6898 233.139 96.6123 232.954C96.5349 232.77 96.411 232.614 96.2557 232.506C96.1003 232.398 95.9202 232.342 95.737 232.345H87.0024C86.8121 232.344 86.6261 232.407 86.4686 232.526C86.3112 232.645 86.1896 232.814 86.1199 233.011L82.6799 242.575C82.6002 242.809 82.597 243.068 82.6707 243.305C82.7445 243.542 82.8907 243.742 83.0838 243.872V243.872Z" fill="#F3F3F7"/>
<path d="M91.8928 247.798H119.308C119.434 247.798 119.559 247.771 119.675 247.717C119.791 247.664 119.897 247.586 119.986 247.487C120.075 247.388 120.145 247.27 120.193 247.141C120.241 247.012 120.266 246.873 120.265 246.733C120.269 246.608 120.248 246.483 120.205 246.367L115.823 233.027C115.756 232.822 115.634 232.645 115.474 232.52C115.313 232.395 115.122 232.328 114.926 232.329H101.196C101.05 232.327 100.907 232.364 100.777 232.437C100.647 232.509 100.534 232.614 100.448 232.744L91.1599 246.084C91.0817 246.193 91.0238 246.318 90.9896 246.451C90.9555 246.585 90.9458 246.725 90.9612 246.863C90.9765 247.001 91.0165 247.134 91.0789 247.255C91.1413 247.375 91.2248 247.481 91.3244 247.565C91.4835 247.714 91.6846 247.796 91.8928 247.798V247.798Z" fill="#F3F3F7"/>
<path d="M118.546 233.726L120.311 239.464C120.395 239.729 120.568 239.948 120.795 240.072C121.021 240.196 121.283 240.217 121.523 240.13C121.621 240.094 121.713 240.038 121.792 239.963L128.522 234.225C128.681 234.09 128.797 233.904 128.855 233.692C128.913 233.48 128.91 233.253 128.845 233.043C128.781 232.833 128.658 232.651 128.496 232.523C128.333 232.395 128.138 232.327 127.939 232.329H119.459C119.333 232.328 119.208 232.355 119.092 232.409C118.976 232.462 118.87 232.54 118.781 232.639C118.692 232.738 118.622 232.856 118.574 232.985C118.526 233.115 118.501 233.253 118.502 233.393C118.501 233.506 118.516 233.618 118.546 233.726Z" fill="#F3F3F7"/>
<path d="M121.76 243.506L122.762 247.016C122.827 247.242 122.955 247.439 123.126 247.58C123.298 247.72 123.506 247.796 123.719 247.798H135.4C135.666 247.798 135.921 247.68 136.109 247.471C136.297 247.262 136.402 246.979 136.402 246.683C136.405 246.616 136.4 246.549 136.388 246.483L135.161 238.716C135.125 238.492 135.028 238.287 134.883 238.126C134.739 237.966 134.554 237.858 134.353 237.818L129.253 236.82C129.121 236.793 128.984 236.797 128.853 236.831C128.722 236.865 128.598 236.929 128.49 237.019L122.134 242.275C121.964 242.411 121.836 242.603 121.769 242.824C121.702 243.045 121.699 243.283 121.76 243.506V243.506Z" fill="#F3F3F7"/>
<path d="M133.472 235.256L136.314 235.788C136.456 235.813 136.6 235.806 136.739 235.766C136.878 235.726 137.008 235.654 137.121 235.555L138.497 234.308C138.6 234.216 138.685 234.103 138.748 233.974C138.811 233.845 138.849 233.704 138.862 233.558C138.874 233.412 138.861 233.265 138.821 233.125C138.782 232.985 138.717 232.856 138.632 232.744C138.539 232.615 138.42 232.51 138.286 232.438C138.151 232.366 138.004 232.329 137.854 232.329H134.354C134.107 232.329 133.867 232.429 133.681 232.611L132.964 233.327C132.866 233.424 132.787 233.541 132.731 233.672C132.674 233.804 132.642 233.946 132.635 234.091C132.628 234.236 132.647 234.382 132.69 234.519C132.734 234.656 132.801 234.782 132.889 234.89C133.038 235.086 133.245 235.215 133.472 235.256V235.256Z" fill="#F3F3F7"/>
<path d="M137.301 239.847L138.826 246.949C138.879 247.192 139.003 247.408 139.18 247.562C139.356 247.716 139.574 247.799 139.799 247.798H143.029C143.295 247.798 143.55 247.68 143.738 247.471C143.926 247.262 144.031 246.979 144.031 246.683C144.032 246.51 143.997 246.339 143.927 246.184L140.89 239.331C140.817 239.165 140.707 239.022 140.571 238.915C140.435 238.807 140.278 238.739 140.113 238.716L138.393 238.466C138.262 238.447 138.129 238.456 138.002 238.495C137.874 238.533 137.755 238.598 137.651 238.688C137.546 238.778 137.459 238.89 137.394 239.017C137.329 239.145 137.287 239.285 137.271 239.431C137.265 239.571 137.276 239.71 137.301 239.847V239.847Z" fill="#F3F3F7"/>
<path d="M140.95 236.67L141.698 236.82C141.838 236.85 141.97 236.914 142.086 237.005C142.202 237.097 142.299 237.215 142.371 237.352L144.061 240.512C144.128 240.638 144.218 240.748 144.323 240.835C144.429 240.923 144.55 240.986 144.677 241.022C144.805 241.057 144.938 241.064 145.069 241.043C145.199 241.021 145.324 240.971 145.437 240.895C145.528 240.826 145.613 240.748 145.691 240.662L150.657 234.158C150.779 233.996 150.857 233.799 150.882 233.589C150.907 233.379 150.878 233.166 150.798 232.974C150.718 232.782 150.59 232.62 150.43 232.505C150.27 232.391 150.084 232.33 149.894 232.329H143.358C143.118 232.33 142.885 232.424 142.7 232.595L140.486 234.724C140.387 234.819 140.306 234.934 140.247 235.064C140.188 235.194 140.152 235.336 140.142 235.481C140.133 235.627 140.149 235.773 140.19 235.911C140.231 236.049 140.296 236.177 140.382 236.287C140.519 236.493 140.723 236.63 140.95 236.67V236.67Z" fill="#F3F3F7"/>
<path d="M145.601 244.205L146.663 247.099C146.738 247.304 146.866 247.48 147.031 247.604C147.196 247.729 147.391 247.796 147.59 247.798H159.211C159.477 247.798 159.732 247.68 159.92 247.471C160.108 247.262 160.213 246.979 160.213 246.683C160.216 246.515 160.18 246.349 160.109 246.201L155.009 234.641C154.893 234.376 154.688 234.174 154.439 234.077C154.189 233.981 153.916 233.998 153.677 234.125C153.574 234.181 153.478 234.254 153.393 234.341L145.81 243.024C145.674 243.175 145.581 243.368 145.544 243.579C145.506 243.789 145.526 244.007 145.601 244.205V244.205Z" fill="#F3F3F7"/>
<path d="M157.431 233.942L160.318 240.695C160.432 240.961 160.636 241.166 160.885 241.266C161.134 241.365 161.409 241.352 161.649 241.227C161.694 241.21 161.735 241.181 161.769 241.144L170.683 234.541C170.862 234.41 170.999 234.218 171.073 233.994C171.147 233.77 171.155 233.525 171.095 233.296C171.034 233.067 170.909 232.866 170.738 232.721C170.567 232.577 170.359 232.498 170.144 232.495L158.344 232.345C158.079 232.344 157.824 232.458 157.634 232.663C157.443 232.868 157.333 233.148 157.327 233.443C157.337 233.615 157.372 233.783 157.431 233.942V233.942Z" fill="#F3F3F7"/>
<path d="M162.144 244.72L163.101 247.132C163.181 247.328 163.309 247.495 163.471 247.612C163.632 247.73 163.821 247.794 164.014 247.798H176.757C177.022 247.798 177.277 247.68 177.465 247.471C177.653 247.262 177.759 246.979 177.759 246.683V246.567L176.697 235.023C176.67 234.73 176.541 234.461 176.336 234.274C176.131 234.087 175.869 233.997 175.605 234.025C175.444 234.043 175.29 234.106 175.156 234.208L162.518 243.356C162.32 243.497 162.174 243.712 162.106 243.962C162.037 244.212 162.051 244.481 162.144 244.72Z" fill="#F3F3F7"/>
<path d="M179.119 233.576L179.866 240.695C179.881 240.841 179.921 240.982 179.984 241.11C180.047 241.238 180.133 241.351 180.236 241.442C180.339 241.534 180.457 241.601 180.584 241.642C180.71 241.682 180.843 241.694 180.973 241.676C180.994 241.679 181.016 241.673 181.033 241.66L194.225 239.032C194.456 238.986 194.666 238.851 194.816 238.65C194.967 238.449 195.049 238.195 195.047 237.934V233.443C195.047 233.147 194.942 232.864 194.754 232.655C194.566 232.446 194.311 232.329 194.045 232.329H180.121C179.855 232.329 179.6 232.446 179.412 232.655C179.224 232.864 179.119 233.147 179.119 233.443V233.576Z" fill="#F3F3F7"/>
<path d="M180.496 245.07L180.705 246.816C180.737 247.083 180.855 247.327 181.036 247.504C181.218 247.682 181.451 247.78 181.692 247.781H190.861C190.992 247.781 191.123 247.752 191.244 247.696C191.366 247.64 191.476 247.558 191.569 247.454C191.662 247.351 191.736 247.228 191.787 247.093C191.837 246.958 191.863 246.813 191.863 246.666V246.567L191.594 243.04C191.57 242.745 191.441 242.472 191.236 242.282C191.032 242.092 190.767 241.999 190.502 242.026C190.471 242.023 190.44 242.029 190.412 242.042L181.318 243.806C181.066 243.868 180.843 244.031 180.692 244.264C180.54 244.497 180.47 244.784 180.496 245.07V245.07Z" fill="#F3F3F7"/>
<path d="M194.045 241.311L197.022 240.629C197.202 240.588 197.389 240.602 197.563 240.669C197.736 240.736 197.891 240.854 198.009 241.011L201.613 245.968C201.696 246.081 201.758 246.212 201.795 246.352C201.832 246.492 201.844 246.639 201.831 246.784C201.817 246.929 201.777 247.07 201.714 247.198C201.651 247.327 201.566 247.44 201.464 247.531C201.287 247.694 201.065 247.782 200.836 247.781H194.793C194.552 247.78 194.319 247.682 194.137 247.504C193.956 247.327 193.838 247.082 193.806 246.816L193.268 242.541C193.23 242.264 193.29 241.982 193.435 241.753C193.58 241.524 193.798 241.365 194.045 241.311V241.311Z" fill="#F3F3F7"/>
<path d="M197.44 237.086L197.605 233.393C197.616 233.106 197.727 232.836 197.914 232.637C198.1 232.439 198.349 232.329 198.607 232.329H209.869C210.104 232.33 210.33 232.421 210.511 232.588C210.691 232.755 210.813 232.987 210.856 233.243L212.995 246.483C213.041 246.774 212.981 247.074 212.83 247.316C212.679 247.559 212.448 247.726 212.187 247.781C212.128 247.795 212.068 247.8 212.008 247.798H205.876C205.731 247.798 205.589 247.764 205.457 247.698C205.325 247.632 205.208 247.536 205.113 247.415L197.694 237.884C197.526 237.661 197.435 237.377 197.44 237.086V237.086Z" fill="#F3F3F7"/>
<path d="M213.699 233.626L214.731 240.213C214.753 240.356 214.8 240.494 214.87 240.617C214.94 240.74 215.031 240.846 215.138 240.93C215.245 241.013 215.366 241.072 215.494 241.103C215.622 241.134 215.754 241.137 215.883 241.111C216.008 241.081 216.129 241.031 216.241 240.961L225.619 234.374C225.73 234.297 225.826 234.196 225.902 234.077C225.978 233.958 226.032 233.824 226.062 233.682C226.091 233.54 226.094 233.392 226.072 233.249C226.05 233.105 226.003 232.968 225.933 232.844C225.841 232.686 225.715 232.556 225.566 232.466C225.417 232.376 225.25 232.329 225.081 232.329H214.671C214.405 232.329 214.15 232.446 213.962 232.655C213.775 232.864 213.669 233.147 213.669 233.443C213.684 233.51 213.684 233.576 213.699 233.626Z" fill="#F3F3F7"/>
<path d="M215.538 244.421L215.822 246.833C215.854 247.099 215.971 247.344 216.153 247.521C216.334 247.698 216.568 247.797 216.809 247.798H232.783C233.049 247.798 233.303 247.68 233.491 247.471C233.679 247.262 233.785 246.979 233.785 246.683C233.788 246.477 233.736 246.274 233.635 246.101L228.221 236.37C228.081 236.121 227.858 235.943 227.6 235.874C227.343 235.806 227.072 235.853 226.845 236.005L216.002 243.323C215.835 243.435 215.703 243.598 215.62 243.794C215.537 243.989 215.509 244.208 215.538 244.421V244.421Z" fill="#F3F3F7"/>
<path d="M230.361 233.776L232.081 232.512C232.246 232.394 232.438 232.33 232.634 232.329H240.561C240.827 232.329 241.082 232.446 241.27 232.655C241.458 232.864 241.563 233.147 241.563 233.443C241.564 233.605 241.532 233.765 241.47 233.912C241.408 234.059 241.317 234.188 241.204 234.291L234.534 240.529C234.433 240.623 234.318 240.694 234.193 240.738C234.068 240.782 233.936 240.799 233.806 240.786C233.675 240.774 233.548 240.733 233.432 240.666C233.315 240.599 233.212 240.507 233.128 240.396C233.098 240.362 233.083 240.329 233.053 240.296L230.077 235.323C229.931 235.075 229.88 234.774 229.933 234.484C229.986 234.195 230.14 233.94 230.361 233.776V233.776Z" fill="#F3F3F7"/>
<path d="M235.086 243.656L237.225 247.299C237.315 247.454 237.439 247.581 237.586 247.669C237.732 247.756 237.897 247.8 238.063 247.798H246.783C247.048 247.798 247.303 247.68 247.491 247.471C247.679 247.262 247.785 246.979 247.785 246.683C247.783 246.465 247.726 246.251 247.62 246.068L242.49 237.435C242.343 237.189 242.114 237.017 241.853 236.958C241.592 236.899 241.321 236.957 241.099 237.119C241.069 237.136 241.054 237.152 241.024 237.169L235.296 242.175C235.101 242.348 234.971 242.596 234.933 242.87C234.894 243.144 234.949 243.425 235.086 243.656V243.656Z" fill="#F3F3F7"/>
<path d="M246.319 232.578L244.36 234.391C244.167 234.566 244.041 234.815 244.005 235.089C243.969 235.363 244.026 235.642 244.166 235.871L247.606 241.527C247.679 241.649 247.773 241.754 247.882 241.835C247.992 241.917 248.115 241.973 248.245 242.001C248.374 242.029 248.507 242.028 248.636 241.998C248.766 241.968 248.888 241.909 248.997 241.826C249.159 241.704 249.284 241.53 249.356 241.327L252.152 233.859C252.252 233.585 252.252 233.279 252.151 233.005C252.051 232.732 251.858 232.513 251.614 232.395C251.49 232.342 251.358 232.314 251.225 232.312H246.948C246.718 232.325 246.498 232.418 246.319 232.578V232.578Z" fill="#F3F3F7"/>
<path d="M250.163 245.935L250.747 247.182C250.836 247.364 250.968 247.516 251.129 247.622C251.289 247.727 251.473 247.782 251.659 247.781L259.078 247.615C259.209 247.61 259.339 247.577 259.459 247.517C259.579 247.457 259.687 247.371 259.777 247.265C259.868 247.158 259.938 247.033 259.985 246.896C260.032 246.759 260.054 246.613 260.05 246.467C260.049 246.32 260.02 246.174 259.966 246.04C259.912 245.905 259.834 245.784 259.736 245.685L253.873 239.664C253.675 239.465 253.416 239.361 253.15 239.373C252.884 239.386 252.633 239.514 252.452 239.73C252.384 239.808 252.328 239.898 252.287 239.997L250.163 244.937C250.09 245.09 250.051 245.262 250.051 245.436C250.051 245.61 250.09 245.781 250.163 245.935V245.935Z" fill="#F3F3F7"/>
<path d="M254.92 233.027L253.738 236.354C253.665 236.568 253.652 236.801 253.7 237.024C253.748 237.246 253.855 237.448 254.008 237.601L257.821 241.327C257.98 241.48 258.177 241.575 258.386 241.599C258.595 241.623 258.805 241.575 258.988 241.46L269.981 234.408C270.172 234.286 270.322 234.097 270.407 233.871C270.492 233.645 270.508 233.395 270.451 233.158C270.395 232.921 270.27 232.711 270.096 232.561C269.922 232.411 269.708 232.33 269.488 232.329H255.862C255.66 232.328 255.463 232.394 255.295 232.518C255.127 232.643 254.997 232.82 254.92 233.027V233.027Z" fill="#F3F3F7"/>
<path d="M276.907 233.426L282.456 246.167C282.57 246.432 282.585 246.737 282.498 247.014C282.412 247.291 282.229 247.519 281.992 247.648C281.853 247.727 281.699 247.767 281.543 247.764L264.478 247.432C264.233 247.425 263.998 247.319 263.82 247.132L260.978 244.221C260.783 244.02 260.667 243.741 260.656 243.445C260.645 243.149 260.739 242.86 260.918 242.641C260.982 242.561 261.058 242.493 261.142 242.442L275.501 232.927C275.729 232.778 276.002 232.734 276.259 232.806C276.516 232.878 276.738 233.058 276.877 233.31C276.892 233.347 276.902 233.386 276.907 233.426V233.426Z" fill="#F3F3F7"/>
<path d="M280.255 232.329H282.155C282.421 232.329 282.676 232.446 282.863 232.655C283.051 232.864 283.157 233.147 283.157 233.443V237.901C283.157 238.196 283.051 238.48 282.863 238.689C282.676 238.898 282.421 239.015 282.155 239.015C281.965 239.015 281.779 238.956 281.617 238.844C281.456 238.733 281.326 238.573 281.243 238.383L279.343 233.925C279.286 233.793 279.253 233.65 279.246 233.504C279.24 233.358 279.259 233.212 279.304 233.074C279.348 232.936 279.417 232.809 279.506 232.702C279.595 232.594 279.702 232.506 279.822 232.445C279.956 232.367 280.104 232.327 280.255 232.329V232.329Z" fill="#F3F3F7"/>
</g>
<defs>
<clipPath id="clip0_320_23241">
<rect width="288.001" height="256" fill="white"/>
</clipPath>
<clipPath id="clip1_320_23241">
<rect width="233" height="228" fill="white" transform="translate(18.001)"/>
</clipPath>
</defs>
</svg>
