<svg width="178" height="280" viewBox="0 0 178 280" fill="none" xmlns="http://www.w3.org/2000/svg">
<mask id="mask0_411_14282" style="mask-type:alpha" maskUnits="userSpaceOnUse" x="0" y="0" width="178" height="280">
<rect width="178" height="280" fill="#D1D3D4"/>
</mask>
<g mask="url(#mask0_411_14282)">
<rect width="178" height="280" fill="#F3F3F7"/>
<path d="M53.471 255.157L153.066 225.237C153.066 225.237 138.362 196.795 114.832 202.268C91.3026 207.741 87.8348 236.637 87.8348 236.637C87.8348 236.637 85.9462 230.918 82.5763 232.1C79.2063 233.281 79.7018 243.602 75.3689 245.387C75.3689 245.387 73.0337 239.802 69.2571 241.251C65.4805 242.7 61.3538 252.789 53.471 255.157Z" fill="#F3F3F7"/>
<path d="M128.248 163.653L135.512 161.849L162.19 223.044L154.926 224.848C137.347 229.214 117.111 219.052 109.741 202.16C102.38 185.254 110.657 168.022 128.248 163.653Z" fill="#FF8658"/>
<path d="M116.859 200.392C125.573 216.95 146.899 226.842 164.478 222.476C182.057 218.11 189.254 201.133 180.54 184.576C171.826 168.018 150.5 158.126 132.922 162.492C115.343 166.858 108.142 183.822 116.859 200.392Z" fill="#F9D039"/>
<path d="M122.053 199.102C129.353 212.968 147.191 221.238 161.9 217.584C176.622 213.928 182.634 199.734 175.334 185.869C168.034 172.003 150.196 163.733 135.487 167.386C120.777 171.04 114.753 185.236 122.053 199.102Z" fill="white"/>
<path d="M135.624 195.732C139.202 202.528 147.962 206.593 155.178 204.801C162.393 203.009 165.355 196.046 161.775 189.237C158.194 182.429 149.437 178.376 142.222 180.168C135.006 181.961 132.047 188.936 135.624 195.732Z" fill="#EBEBEB"/>
<path d="M171.339 186.862C164.377 173.634 147.819 165.497 133.531 167.95C134.161 167.742 134.821 167.552 135.499 167.384C150.22 163.728 168.058 171.997 175.358 185.863C182.658 199.729 176.634 213.926 161.925 217.579C161.247 217.747 160.575 217.889 159.885 218.008C173.139 213.62 178.3 200.089 171.339 186.862Z" fill="#EBEBEB"/>
<path d="M106.225 202.028C107.781 204.981 111.044 206.891 113.526 206.275C116.008 205.659 116.742 202.768 115.183 199.803C113.624 196.838 110.364 194.94 107.882 195.557C105.4 196.173 104.668 199.075 106.225 202.028Z" fill="#F9D039"/>
<path d="M106.225 202.028C107.494 204.447 109.78 206.097 111.33 205.712C112.879 205.327 113.099 203.055 111.818 200.639C110.537 198.224 108.262 196.571 106.713 196.956C105.163 197.341 104.956 199.61 106.225 202.028Z" fill="#545254"/>
<path d="M148.309 192.465C148.491 192.565 148.69 192.628 148.895 192.65C149.101 192.672 149.309 192.653 149.507 192.594C149.705 192.536 149.89 192.438 150.05 192.307C150.21 192.176 150.343 192.015 150.44 191.832C150.5 191.719 150.548 191.599 150.583 191.475L154.905 174.929C154.993 174.587 154.965 174.225 154.826 173.901C154.687 173.576 154.445 173.306 154.138 173.134V173.134C153.957 173.034 153.757 172.971 153.552 172.949C153.346 172.926 153.138 172.945 152.94 173.004C152.742 173.063 152.558 173.16 152.397 173.291C152.237 173.422 152.105 173.583 152.007 173.766C151.947 173.88 151.899 174 151.865 174.124L147.542 190.67C147.451 191.012 147.476 191.375 147.616 191.7C147.755 192.026 147.999 192.295 148.309 192.465Z" fill="#545254"/>
<path d="M147.958 193.171C148.09 193.301 148.264 193.38 148.448 193.395C148.632 193.411 148.816 193.361 148.968 193.256L164.894 181.718C165.062 181.595 165.175 181.411 165.208 181.205C165.241 180.998 165.192 180.787 165.071 180.617C165.046 180.582 165.016 180.551 164.983 180.523V180.523C164.85 180.394 164.677 180.314 164.493 180.299C164.308 180.284 164.124 180.333 163.972 180.439L148.046 191.976C147.878 192.099 147.765 192.284 147.732 192.49C147.699 192.696 147.749 192.907 147.87 193.077C147.895 193.112 147.924 193.144 147.958 193.171V193.171Z" fill="#545254"/>
<path d="M144.813 193.45C145.883 195.479 148.481 196.678 150.636 196.143C152.791 195.607 153.665 193.534 152.598 191.517C151.531 189.499 148.93 188.289 146.775 188.824C144.62 189.359 143.744 191.421 144.813 193.45Z" fill="#545254"/>
<path d="M147.283 192.837C147.673 193.578 148.617 194.014 149.404 193.818C150.19 193.623 150.506 192.874 150.116 192.133C149.726 191.392 148.782 190.956 147.996 191.151C147.209 191.346 146.893 192.095 147.283 192.837Z" fill="white"/>
<path d="M164.981 176.77C164.981 176.77 176.375 183.909 185.743 200.715L185.756 200.704C185.777 200.731 187.602 203.637 189.648 207.832C193.07 214.854 194.479 220.064 195.054 223.192L193.872 223.409C192.636 216.685 189.32 209.659 187.046 205.391C185.765 204.49 184.195 204.107 182.648 204.318C178.322 204.883 170.443 200.993 168.611 193.479C166.382 184.387 161.59 186.696 164.981 176.77Z" fill="#4F9977"/>
<path d="M164.981 176.771C164.991 179.565 165.13 182.566 166.9 184.714C167.842 185.847 169.193 186.674 169.793 188.03C170.463 189.551 169.991 191.305 169.899 192.966C169.787 194.807 170.295 196.864 171.827 197.888C173.323 198.881 175.148 198.376 176.565 199.107C177.585 199.626 178.307 200.937 179.12 201.748C181.797 204.382 184.651 204.288 185.165 204.508C184.345 204.276 183.487 204.217 182.643 204.334C178.317 204.899 170.438 201.009 168.606 193.495C166.382 184.387 161.59 186.697 164.981 176.771Z" fill="#66BA93"/>
<path d="M183.634 198.967C183.146 198.596 182.766 198.105 182.334 197.67C181.132 196.468 179.553 195.721 177.867 195.556C176.259 195.407 174.589 195.798 173.054 195.297C172.639 195.158 172.217 194.944 172.002 194.561C171.561 193.782 172.222 192.769 173.048 192.44C174.216 191.98 175.517 192.409 176.695 192.008C177.723 191.658 178.057 190.813 178.636 190.015C180.979 193.006 183.11 196.159 185.014 199.451C184.538 199.477 184.034 199.27 183.634 198.967Z" fill="#66BA93"/>
<path d="M174.766 190.363C173.879 190.462 173.094 189.955 173.012 189.23C172.929 188.504 173.581 187.835 174.468 187.735C175.354 187.635 176.139 188.143 176.222 188.868C176.304 189.594 175.652 190.263 174.766 190.363Z" fill="#66BA93"/>
<path d="M108.768 200.669C108.878 200.466 108.844 200.211 108.675 200.062C100.795 193.124 96.7565 185.32 96.6711 176.867C96.6196 171.772 98.0767 167.219 99.7996 163.996C100.452 164.411 101.177 164.67 101.959 164.754C104.177 164.994 106.399 163.695 107.618 161.449C109.09 158.736 107.917 157.693 107.523 157.437C106.075 156.501 103.064 157.598 100.529 161.054C100.202 161.501 99.874 161.99 99.5532 162.518C98.6418 161.619 97.9629 160.277 97.609 158.603C96.6115 153.882 97.6871 149.017 99.512 145.283C99.8246 145.6 100.163 145.812 100.495 145.952C102.372 146.743 104.688 145.497 106.006 143.857C107.44 142.068 107.178 140.25 106.178 139.373C105.134 138.459 103.243 138.508 101.373 140.682C100.718 141.443 100.079 142.342 99.4881 143.349C99.0366 142.079 98.9722 140.191 99.3163 137.788C100.693 128.163 109.011 121.992 109.094 121.931C109.316 121.769 109.377 121.461 109.232 121.241C109.088 121.021 108.793 120.972 108.571 121.133C108.215 121.393 99.8133 127.619 98.3702 137.695C97.8783 141.131 98.2268 143.198 98.891 144.432C96.843 148.412 95.5881 153.72 96.6746 158.862C97.0882 160.822 97.9172 162.384 99.0382 163.41C99.0218 163.44 99.0059 163.469 98.9895 163.499C94.6284 171.536 92.2047 186.891 108.034 200.829C108.229 201.001 108.531 200.968 108.708 200.757C108.731 200.729 108.751 200.699 108.768 200.669ZM100.294 163.119C100.62 162.571 100.95 162.071 101.278 161.624C103.562 158.513 106.061 157.684 106.987 158.283C107.58 158.667 107.507 159.682 106.792 161C105.756 162.909 103.961 163.971 102.107 163.771C101.453 163.701 100.844 163.478 100.294 163.119ZM100.004 144.333C100.64 143.18 101.344 142.16 102.069 141.317C103.497 139.657 104.84 139.531 105.537 140.141C106.192 140.715 106.312 141.97 105.283 143.249C104.226 144.565 102.328 145.638 100.893 145.034C100.548 144.888 100.251 144.653 100.004 144.333Z" fill="#333133"/>
<path d="M104.523 127.685C104.523 127.685 104.55 128.534 105.355 128.649C105.355 128.649 107.651 126.658 108.429 124.071L105.847 125.278L104.523 127.685Z" fill="url(#paint0_linear_411_14282)"/>
<path d="M59.8305 150.402L47.9243 167.529L43.3673 261.666C43.3616 261.776 43.3777 261.885 43.4147 261.988C43.4517 262.091 43.5088 262.186 43.5827 262.267C43.6567 262.348 43.746 262.413 43.8455 262.459C43.9449 262.505 44.0525 262.531 44.162 262.535C44.3037 262.539 44.4444 262.508 44.5711 262.445C44.6978 262.381 44.8066 262.287 44.8874 262.17L50.2059 254.337C50.6489 253.683 50.8986 252.918 50.9261 252.129C50.9537 251.34 50.758 250.56 50.3617 249.877L49.4967 248.408C49.2811 248.036 49.1573 247.618 49.1353 247.189C49.1134 246.76 49.194 246.332 49.3705 245.94C51.4997 241.266 58.7728 223.659 58.3416 220.121C57.8402 215.983 54.1753 210.394 57.418 204.799C61.5398 197.658 72.8332 178.275 75.159 168.777C77.4848 159.279 71.4743 150.339 59.8305 150.402Z" fill="#25215E"/>
<path d="M47.9241 167.529L49.2715 165.59C49.2715 165.59 49.8361 178.724 49.6588 183.097C49.4524 188.253 47.048 198.494 47.5354 203.636C48.9364 218.708 45.3462 220.783 45.7994 241.682C45.8019 242.063 44.363 241.144 44.363 241.144L47.9241 167.529Z" fill="#46437B"/>
<path d="M55.7325 167.814C55.7325 167.814 63.8202 179.554 68.9336 183.876L60.8966 198.779C60.8966 198.779 65.3277 189.915 62.9947 182.482C61.2904 176.998 52.7109 174.617 55.7325 167.814Z" fill="#151244"/>
<path d="M41.542 134.894C35.8914 137.258 31.7796 142.055 31.7796 142.055C26.0182 147.893 23.4128 152.027 23.4128 152.027C19.7731 157.931 18.3994 162.785 18.3994 162.785C22.0564 165.481 25.7907 168.277 30.0196 169.779C32.5874 163.958 33.9852 161.479 34.7718 159.665L47.9362 167.526L59.8301 150.402L57.1466 149.082C59.5817 148.82 62.1319 148.226 64.6855 147.433C63.1765 145.808 62.0209 143.964 61.3586 141.668C60.4252 138.44 60.8858 135.102 60.5038 131.816C60.491 131.715 60.4922 131.613 60.5074 131.512C54.4855 131.692 47.9518 132.302 41.542 134.894Z" fill="url(#paint1_linear_411_14282)"/>
<path d="M46.6055 149.241C45.0021 148.56 39.1292 148.493 30.9985 159.998C28.8098 163.107 27.8127 164.868 26.231 168.089C22.4618 165.789 18.384 162.776 18.384 162.776C13.1944 179.182 22.3164 183.271 23.7558 183.874C30.6061 186.764 36.5957 181.58 37.6113 172.052C38.5641 163.066 39.6736 158.738 40.4911 156.943C40.7258 156.422 41.0783 155.964 41.5207 155.603C41.9632 155.241 42.4835 154.988 43.0406 154.863C42.7262 155.822 44.3521 156.063 45.5229 156.114C45.8442 156.131 46.1617 156.039 46.4237 155.852C46.6856 155.665 46.8764 155.394 46.9649 155.085L47.3385 153.835C47.3416 153.847 48.209 149.921 46.6055 149.241Z" fill="url(#paint2_linear_411_14282)"/>
<path d="M44.8901 262.183L50.2086 254.349C50.6516 253.696 50.9012 252.931 50.9288 252.142C50.9563 251.353 50.7607 250.573 50.3643 249.89L49.4993 248.421C49.2838 248.049 49.16 247.631 49.138 247.202C49.1161 246.773 49.1967 246.344 49.3732 245.952C49.8052 244.99 50.4704 243.535 51.2259 241.808C48.9288 242.369 46.5095 242.135 44.3628 241.145L43.3669 261.667C43.3626 261.777 43.3801 261.886 43.4184 261.989C43.4567 262.092 43.5151 262.187 43.5901 262.267C43.6652 262.348 43.7554 262.413 43.8556 262.458C43.9558 262.503 44.064 262.529 44.174 262.532C44.3126 262.536 44.4501 262.506 44.5748 262.445C44.6995 262.385 44.8076 262.295 44.8901 262.183V262.183Z" fill="url(#paint3_linear_411_14282)"/>
<path d="M105.787 122.227C103.597 122.1 103.798 122.168 102.344 123.306C100.889 124.443 99.7672 124.801 99.7672 124.801C95.7215 126.95 84.3281 129.293 75.5381 130.779C70.8037 131.587 64.8911 131.253 58.522 131.571C57.7925 134.516 57.4799 140.251 62.2996 148.105C72.0236 145.611 82.3883 139.55 87.6879 135.826C93.9395 131.432 98.8367 129.479 98.8367 129.479C98.8367 129.479 100.886 130.154 102.631 129.339C104.377 128.524 106.252 125.9 106.252 125.9C106.952 125.821 107.642 125.671 108.312 125.454C109.459 125.091 109.417 124.127 109.417 124.127L108.426 124.058C108.893 122.389 107.98 122.366 105.787 122.227Z" fill="url(#paint4_linear_411_14282)"/>
<path d="M21.5449 132.638C21.5449 132.638 15.6355 126.33 19.0364 120.578C22.4373 114.826 29.1482 113.817 31.4891 106.499C33.8301 99.1812 31.0773 90.7473 39.3394 84.3272C47.6014 77.9071 58.7521 82.1107 61.8959 92.0131C65.0428 101.928 57.9785 107.024 54.225 108.549C50.4714 110.073 42.9956 110.969 41.4228 118.307C39.8531 125.657 38.3435 128.321 34.2049 130.467C30.0663 132.613 25.2987 128.995 21.5449 132.638Z" fill="#25215E"/>
<path d="M31.7799 142.055L25.084 139.469C25.1504 138.623 24.9788 137.403 24.0799 135.85C22.8226 133.702 18.89 132.916 16.4897 136.604C14.8813 139.082 14.5296 142.116 14.6872 142.327L16.0497 142.568C16.0497 142.568 16.7931 146.514 19.4272 145.781C20.4439 145.501 21.3987 145.031 22.2419 144.398C23.4613 145.069 25.2307 146.576 26.7315 147.532C25.0432 149.583 23.9596 151.207 23.3883 152.033C25.4135 152.399 30.4463 152.846 34.1289 149.182C37.8115 145.517 36.2612 140.6 35.4156 138.626C34.1154 139.672 32.8997 140.818 31.7799 142.055V142.055Z" fill="url(#paint5_linear_411_14282)"/>
<path d="M22.9315 133.097C23.1981 132.088 22.596 131.054 21.5867 130.787C20.5774 130.521 19.5431 131.123 19.2765 132.132C19.0099 133.141 19.612 134.175 20.6213 134.442C21.6306 134.708 22.665 134.106 22.9315 133.097Z" fill="#4F9977"/>
<path d="M16.0144 141.261C16.0144 141.261 16.7067 138.326 19.9543 139.427C19.9667 139.424 18.9457 142.572 16.0144 141.261Z" fill="white"/>
<path d="M16.0369 138.755C15.985 138.96 15.9444 139.168 15.9152 139.377C15.9114 139.413 15.9214 139.449 15.9432 139.478C15.9651 139.507 15.997 139.526 16.0326 139.533C16.0676 139.537 16.103 139.528 16.1318 139.508C16.6714 139.084 18.0141 138.185 19.5253 138.441C19.5556 138.447 19.5869 138.443 19.6144 138.429C19.6419 138.415 19.664 138.392 19.6772 138.364V138.364C19.6865 138.349 19.6925 138.331 19.6945 138.313C19.6966 138.295 19.6949 138.277 19.6893 138.259C19.6838 138.242 19.6746 138.226 19.6624 138.213C19.6502 138.199 19.6353 138.189 19.6186 138.181C19.2441 137.998 18.1422 137.482 16.369 138.344C16.2856 138.382 16.2122 138.439 16.1545 138.51C16.0969 138.582 16.0567 138.666 16.0369 138.755V138.755Z" fill="#333133"/>
<path d="M17.4081 139.454C16.3107 140.016 16.0268 141.257 16.0268 141.257C16.9585 141.671 17.6865 141.635 18.2599 141.4C18.3705 141.027 18.3457 140.627 18.1898 140.271C18.0339 139.915 17.757 139.626 17.4081 139.454V139.454Z" fill="#333133"/>
<path d="M24.0798 135.85C22.8689 133.783 19.1841 132.988 16.7846 136.202C17.0004 136.806 17.4794 137.569 18.7593 137.159C19.5404 136.888 20.2315 136.407 20.7563 135.768C20.7269 136.388 20.7362 137.01 20.7843 137.629C20.8604 138.465 21.5005 139.188 22.0833 138.885C22.0833 138.885 21.9609 137.968 22.3862 137.35C22.706 136.889 23.4307 136.946 23.7396 137.5C23.882 137.769 23.9126 138.083 23.8249 138.374C23.7915 138.49 23.7814 138.611 23.7954 138.731C23.8093 138.851 23.847 138.967 23.9062 139.073C23.9654 139.178 24.045 139.27 24.1403 139.345C24.2356 139.419 24.3447 139.473 24.4612 139.505C24.6673 139.56 24.8858 139.542 25.0808 139.457L25.118 139.447C25.1503 138.624 24.9912 137.4 24.0798 135.85Z" fill="#25215E"/>
<path d="M17.0733 143.563L19.159 142.848C19.159 142.848 19.4886 144.016 18.7294 144.244C17.964 144.447 17.0733 143.563 17.0733 143.563Z" fill="white"/>
<path d="M51.7148 162.076C51.7148 162.076 64.2233 185.151 84.0331 194.283C103.843 203.414 103.399 182.605 104.342 177.766C105.285 172.927 110.624 134.393 110.202 133.433C109.779 132.472 101.379 143.531 102.396 144.818C103.413 146.104 105.583 147.052 102.185 151.383C98.7859 155.714 89.487 167.496 93.3393 179.88C93.3393 179.88 91.0977 179.227 88.2787 175.453C78.3319 162.162 75.6656 149.997 59.821 150.419L51.7148 162.076Z" fill="#25215E"/>
<path d="M51.7148 162.076C51.7148 162.076 64.2233 185.151 84.0331 194.283C103.843 203.414 103.399 182.605 104.342 177.766C105.285 172.927 110.624 134.393 110.202 133.433C109.779 132.472 101.379 143.531 102.396 144.818C103.413 146.104 105.583 147.052 102.185 151.383C98.7859 155.714 89.487 167.496 93.3393 179.88C93.3393 179.88 91.0977 179.227 88.2787 175.453C78.3319 162.162 75.6656 149.997 59.821 150.419L51.7148 162.076Z" fill="#25215E"/>
<path d="M102.409 144.814C103.426 146.101 105.596 147.048 102.197 151.379C101.818 151.868 101.356 152.443 100.862 153.105C103.295 153.18 105.648 153.99 107.611 155.428C109.084 144.616 110.421 133.943 110.205 133.444C109.779 132.471 101.392 143.527 102.409 144.814Z" fill="url(#paint6_linear_411_14282)"/>
<path d="M102.409 144.814C102.866 145.385 103.531 145.89 103.852 146.653C106.642 145.17 107.051 141.569 107.051 141.569C108.291 143.064 107.232 144.313 109.063 144.477C109.844 138.349 110.35 133.764 110.205 133.444C109.779 132.471 101.392 143.527 102.409 144.814Z" fill="#333133"/>
<path d="M18.3996 162.785C19.7977 164.069 24.1039 167.578 23.4529 169.832C23.1415 170.909 21.6437 171.926 21.078 173.198C20.9986 173.351 20.9518 173.52 20.9403 173.692C20.9289 173.865 20.953 174.038 21.0113 174.201C21.3723 175.124 22.6887 175.126 23.1114 174.232C24.908 170.339 26.2466 168.099 26.2466 168.099C26.2466 168.099 19.7113 163.828 18.3996 162.785Z" fill="#FF8658"/>
<path d="M22.2696 144.404C22.2696 144.404 23.1163 143.681 23.4983 143.099L25.243 146.468L22.2696 144.404Z" fill="#25215E"/>
<path d="M48.4776 144.539L57.1466 149.082L59.7213 148.693L62.3024 148.117L60.6006 145.027C60.6006 145.027 55.8508 147.786 50.1496 143.005C48.4853 141.603 46.6763 143.591 48.4776 144.539Z" fill="#25215E"/>
<path d="M57.4334 204.809C56.3439 206.254 55.368 207.781 54.5145 209.376C51.3611 215.277 60.1642 219.248 51.2357 241.635C54.174 234.603 58.6809 222.919 58.3539 220.119C57.8524 215.981 54.1876 210.391 57.4334 204.809C58.3155 203.274 59.5238 201.198 60.906 198.763L57.4334 204.809Z" fill="#151244"/>
<path d="M75.1501 156.504C75.1501 156.504 81.7653 165.071 84.0851 173.086C85.4468 177.774 87.9165 181.041 90.2033 182.46C91.9455 183.54 94.0763 181.788 93.3484 179.863C93.3484 179.863 91.1068 179.21 88.2878 175.437C82.8477 168.157 79.5876 161.23 75.1501 156.504Z" fill="#151244"/>
<path d="M49.4994 248.421C49.3821 248.219 49.2929 248.002 49.234 247.776C46.3981 248.81 46.667 253.124 46.667 253.124C46.667 253.124 45.9209 252.875 45.1375 250.728C44.7119 249.544 43.9308 249.896 43.9308 249.896L43.8602 251.414L43.3545 261.67C43.3466 261.785 43.3635 261.9 43.4039 262.008C43.4443 262.116 43.5074 262.214 43.589 262.296C43.683 262.386 43.7962 262.453 43.9201 262.493C44.044 262.533 44.1753 262.544 44.3041 262.526C44.3931 262.513 44.4797 262.487 44.5614 262.449C44.6903 262.379 44.8008 262.279 44.884 262.158L48.4296 256.936L50.2025 254.325C50.2614 254.244 50.305 254.155 50.3639 254.074C50.7348 253.437 50.9299 252.713 50.9295 251.976C50.929 251.238 50.7329 250.514 50.3613 249.878L49.4994 248.421Z" fill="#333133"/>
<mask id="mask1_411_14282" style="mask-type:alpha" maskUnits="userSpaceOnUse" x="-46" y="205" width="262" height="77">
<rect width="260.882" height="75.74" transform="matrix(-1 0 0 1 215.882 205.595)" fill="#C4C4C4"/>
</mask>
<g mask="url(#mask1_411_14282)">
<path d="M-40.1914 281.034L286.212 186.66V281.034H-40.1914Z" fill="#DCDDE2"/>
</g>
<path d="M183.003 220.42L153.127 228.882C152.526 229.052 152.017 229.454 151.713 229.999C151.408 230.544 151.332 231.187 151.502 231.788C151.57 232.046 151.686 232.29 151.844 232.506L165.166 251.172C165.409 251.509 165.735 251.776 166.113 251.947C166.492 252.118 166.908 252.187 167.321 252.146L180.199 250.864C180.724 250.812 181.218 250.585 181.599 250.219C181.98 249.853 182.228 249.37 182.302 248.847L185.979 223.019C186.065 222.4 185.903 221.773 185.528 221.273C185.154 220.774 184.596 220.442 183.978 220.352C183.652 220.298 183.318 220.321 183.003 220.42V220.42Z" fill="#F3F3F7"/>
<path d="M156.102 254.864L174.093 256.779C174.671 256.84 175.206 257.114 175.595 257.546C175.983 257.979 176.197 258.539 176.197 259.121V274.795C176.196 275.421 175.947 276.02 175.504 276.462C175.062 276.904 174.462 277.153 173.837 277.154H173.734L152.614 276.18C152.305 276.166 152.002 276.091 151.722 275.959C151.442 275.828 151.191 275.642 150.983 275.414C150.775 275.185 150.614 274.918 150.509 274.627C150.405 274.336 150.358 274.027 150.373 273.719C150.376 273.61 150.388 273.501 150.408 273.394L153.537 256.779C153.645 256.195 153.969 255.674 154.445 255.319C154.92 254.964 155.512 254.802 156.102 254.864Z" fill="#F3F3F7"/>
<path d="M155.264 251.018L141.942 252.129C141.416 252.17 140.892 252.034 140.452 251.742C140.012 251.451 139.682 251.022 139.514 250.523L134.965 236.848C134.768 236.256 134.814 235.61 135.093 235.053C135.372 234.495 135.861 234.071 136.452 233.873C136.47 233.873 136.487 233.856 136.504 233.856L143.823 231.583C144.297 231.432 144.807 231.437 145.278 231.597C145.749 231.757 146.156 232.064 146.44 232.472L156.975 247.309C157.335 247.819 157.478 248.451 157.372 249.067C157.266 249.682 156.92 250.23 156.41 250.591C156.074 250.835 155.678 250.982 155.264 251.018V251.018Z" fill="#F3F3F7"/>
<path d="M120.924 238.01L104.797 242.728C104.205 242.899 103.705 243.297 103.404 243.834C103.104 244.372 103.026 245.006 103.189 245.599L106.216 256.727C106.297 257.026 106.435 257.306 106.624 257.552C106.813 257.797 107.048 258.002 107.317 258.156C107.586 258.31 107.882 258.41 108.189 258.449C108.496 258.489 108.808 258.467 109.107 258.386C109.578 258.265 109.999 257.996 110.304 257.616L123.404 241.77C124.891 239.993 123.147 237.36 120.924 238.01Z" fill="#F3F3F7"/>
<path d="M131.715 243.633L137.017 259.205C137.199 259.742 137.181 260.325 136.968 260.85C136.754 261.374 136.359 261.804 135.854 262.06L121.009 269.633C120.56 269.866 120.047 269.947 119.547 269.863C119.048 269.78 118.589 269.537 118.239 269.171L112.151 262.812C111.733 262.379 111.498 261.802 111.494 261.2C111.491 260.599 111.72 260.019 112.134 259.582L127.765 242.795C128.041 242.496 128.39 242.273 128.778 242.15C129.166 242.026 129.58 242.005 129.978 242.09C130.377 242.174 130.747 242.361 131.051 242.632C131.356 242.902 131.584 243.247 131.715 243.633V243.633Z" fill="#F3F3F7"/>
<path d="M143.105 257.001H147.209C147.835 257.002 148.434 257.251 148.877 257.694C149.319 258.136 149.568 258.735 149.569 259.36C149.572 259.463 149.567 259.566 149.552 259.668L147.808 272.933C147.745 273.421 147.529 273.878 147.191 274.237C146.853 274.596 146.411 274.839 145.927 274.933L138.299 276.454C137.995 276.514 137.682 276.514 137.378 276.452C137.073 276.391 136.784 276.271 136.527 276.098C136.269 275.924 136.049 275.702 135.878 275.444C135.706 275.185 135.588 274.895 135.529 274.591C135.446 274.175 135.475 273.744 135.614 273.343L140.899 258.557C141.06 258.101 141.359 257.707 141.754 257.428C142.15 257.15 142.621 257 143.105 257.001V257.001Z" fill="#F3F3F7"/>
<path d="M121.625 272.436L129.424 268.983C129.995 268.731 130.644 268.715 131.227 268.939C131.81 269.164 132.281 269.61 132.536 270.18C132.671 270.481 132.741 270.807 132.741 271.137C132.741 271.467 132.671 271.793 132.536 272.094L130.073 277.564C129.888 277.976 129.588 278.326 129.209 278.572C128.83 278.817 128.388 278.948 127.936 278.949H121.762C121.136 278.948 120.537 278.699 120.095 278.257C119.652 277.815 119.403 277.215 119.402 276.59C119.405 276.279 119.469 275.971 119.59 275.684L120.445 273.65C120.55 273.379 120.709 273.131 120.911 272.923C121.114 272.714 121.357 272.549 121.625 272.436V272.436Z" fill="#F3F3F7"/>
<path d="M109.517 265.736L115.708 271.445C116.103 271.81 116.362 272.298 116.443 272.829C116.524 273.36 116.421 273.903 116.153 274.368L114.135 277.821C113.925 278.175 113.628 278.468 113.271 278.672C112.914 278.875 112.51 278.983 112.099 278.984H95.4594C93.1849 278.984 92.2272 276.078 94.0571 274.727L106.524 265.582C106.962 265.252 107.501 265.087 108.049 265.115C108.596 265.143 109.116 265.363 109.517 265.736V265.736Z" fill="#F3F3F7"/>
<path d="M103.326 261.07L97.8367 246.745C97.6304 246.205 97.2319 245.76 96.7175 245.495C96.2032 245.23 95.6091 245.164 95.0491 245.309L75.023 250.369C74.722 250.445 74.439 250.58 74.1901 250.766C73.9412 250.951 73.7313 251.184 73.5725 251.451C73.4137 251.717 73.309 252.013 73.2644 252.32C73.2199 252.627 73.2363 252.94 73.3129 253.241C73.4118 253.668 73.6384 254.056 73.9627 254.352L90.5343 270.317C90.9386 270.708 91.469 270.941 92.0302 270.976C92.5913 271.01 93.1464 270.843 93.5955 270.505L102.523 263.805C102.936 263.498 103.237 263.065 103.383 262.572C103.528 262.078 103.508 261.551 103.326 261.07V261.07Z" fill="#F3F3F7"/>
<path d="M70.4397 256.146L84.9077 270.932C85.3428 271.38 85.5833 271.982 85.5769 272.606C85.5705 273.23 85.3177 273.827 84.8735 274.265C84.8437 274.299 84.8091 274.328 84.7709 274.351L81.3848 277.308C81.0883 277.569 80.7307 277.752 80.3452 277.838C79.9596 277.925 79.5584 277.913 79.1786 277.804L63.8213 273.394C63.5231 273.308 63.2448 273.165 63.0024 272.971C62.76 272.778 62.5583 272.538 62.4089 272.267C62.2594 271.995 62.1653 271.696 62.1318 271.388C62.0983 271.08 62.1262 270.768 62.2137 270.471C62.2137 270.454 62.2309 270.419 62.2309 270.402L66.5234 257.069C66.6198 256.775 66.7733 256.503 66.975 256.268C67.1768 256.033 67.4229 255.84 67.6993 255.701C67.9756 255.561 68.2768 255.477 68.5857 255.454C68.8945 255.43 69.2049 255.468 69.4991 255.565C69.8525 255.685 70.174 255.884 70.4397 256.146Z" fill="#F3F3F7"/>
<path d="M56.7412 256.351L37.382 262.283C37.0858 262.372 36.8103 262.52 36.5714 262.716C36.3325 262.913 36.135 263.155 35.9903 263.428C35.8456 263.702 35.7565 264.001 35.7283 264.309C35.7 264.617 35.7332 264.928 35.8258 265.223C35.8807 265.41 35.9612 265.588 36.0652 265.753L42.3757 276.146C42.5875 276.491 42.8843 276.775 43.2375 276.973C43.5908 277.171 43.9889 277.274 44.3937 277.274H54.0049C54.5473 277.274 55.073 277.086 55.4934 276.744C55.9139 276.401 56.2036 275.925 56.3136 275.394L59.7511 259.069C59.8816 258.457 59.7641 257.819 59.4243 257.293C59.0845 256.768 58.5501 256.398 57.9383 256.266C57.5377 256.208 57.1294 256.237 56.7412 256.351V256.351Z" fill="#F3F3F7"/>
<path d="M30.3017 266.658L32.5592 274.385C32.7323 274.986 32.6604 275.63 32.3591 276.178C32.0579 276.726 31.5518 277.132 30.9516 277.308C30.7742 277.363 30.5899 277.391 30.4043 277.393L15.8508 278.009C15.2259 278.032 14.617 277.808 14.1561 277.386C13.6951 276.963 13.4192 276.377 13.3881 275.752C13.3705 275.486 13.4053 275.219 13.4907 274.966L15.1667 269.564C15.2831 269.187 15.4931 268.845 15.7771 268.57C16.0611 268.295 16.41 268.096 16.7914 267.992L27.4115 265.035C28.0102 264.869 28.65 264.947 29.1915 265.251C29.7329 265.555 30.132 266.061 30.3017 266.658V266.658Z" fill="#F3F3F7"/>
<path d="M1.58818 276.949C2.04297 277.287 2.60372 277.45 3.16858 277.409C3.73344 277.368 4.26492 277.126 4.66649 276.727C6.37666 275.018 4.7178 272.146 2.37486 272.779C2.07471 272.86 1.79358 273 1.54762 273.19C1.30167 273.38 1.09571 273.617 0.941584 273.887C0.787456 274.157 0.688187 274.455 0.649475 274.763C0.610763 275.072 0.633369 275.385 0.715996 275.685C0.851455 276.194 1.15972 276.641 1.58818 276.949V276.949Z" fill="#F3F3F7"/>
<path d="M162.082 222.524C162.082 222.524 157.207 220.298 151.895 222.981C151.895 222.981 143.515 222.44 139.872 223.474C134.514 225 135.689 230.114 135.689 230.114L162.082 222.524Z" fill="#25215E"/>
<path d="M138.93 217.217C138.584 217.315 138.274 217.512 138.04 217.782C137.806 218.052 137.657 218.384 137.614 218.736C137.571 219.087 137.634 219.442 137.796 219.756C137.958 220.071 138.211 220.329 138.524 220.5C138.836 220.671 139.194 220.746 139.553 220.716C139.911 220.686 140.253 220.553 140.536 220.332C140.818 220.111 141.029 219.814 141.142 219.477C141.254 219.14 141.262 218.778 141.166 218.439C141.102 218.213 140.993 218.002 140.846 217.819C140.7 217.635 140.517 217.482 140.309 217.369C140.102 217.256 139.873 217.184 139.636 217.158C139.4 217.131 139.159 217.152 138.93 217.217V217.217Z" fill="#25215E"/>
<path d="M132.288 218.045C132.127 218.091 131.983 218.182 131.874 218.308C131.764 218.434 131.695 218.589 131.675 218.753C131.655 218.917 131.684 219.082 131.76 219.229C131.835 219.375 131.953 219.496 132.099 219.575C132.245 219.655 132.412 219.69 132.578 219.676C132.745 219.662 132.905 219.6 133.037 219.497C133.168 219.394 133.267 219.255 133.319 219.098C133.371 218.941 133.375 218.773 133.33 218.615C133.27 218.402 133.127 218.223 132.931 218.116C132.736 218.009 132.505 217.984 132.288 218.045V218.045Z" fill="#25215E"/>
<path d="M131.01 223.302C130.63 223.41 130.29 223.625 130.034 223.922C129.777 224.219 129.614 224.583 129.566 224.968C129.519 225.354 129.588 225.744 129.766 226.088C129.943 226.433 130.221 226.717 130.564 226.904C130.907 227.092 131.3 227.174 131.693 227.142C132.086 227.109 132.461 226.962 132.772 226.72C133.082 226.478 133.313 226.151 133.436 225.781C133.559 225.412 133.569 225.015 133.463 224.643C133.393 224.395 133.274 224.164 133.113 223.963C132.951 223.761 132.751 223.594 132.523 223.469C132.296 223.345 132.045 223.266 131.785 223.237C131.525 223.209 131.262 223.231 131.01 223.302V223.302Z" fill="#25215E"/>
<path d="M124.403 227.223C124.161 227.292 123.945 227.429 123.781 227.618C123.618 227.807 123.514 228.039 123.484 228.285C123.453 228.531 123.497 228.779 123.611 228.999C123.724 229.218 123.901 229.399 124.119 229.519C124.338 229.638 124.588 229.691 124.839 229.67C125.089 229.649 125.328 229.555 125.526 229.401C125.724 229.247 125.871 229.039 125.949 228.803C126.028 228.567 126.034 228.315 125.966 228.077C125.876 227.759 125.661 227.49 125.368 227.33C125.074 227.17 124.728 227.131 124.403 227.223Z" fill="#25215E"/>
<path d="M23.9985 224.639L24.8374 264.785L28.808 263.495C28.808 263.495 29.3638 262.732 27.7015 260.571C26.0392 258.41 25.7361 257.108 27.9449 255.897C30.1536 254.686 31.6649 253.353 30.1779 250.44C28.6909 247.527 28.6585 247.064 31.6351 244.947C34.6117 242.831 34.512 238.677 31.0357 233.223C28.4156 229.102 23.9985 224.639 23.9985 224.639Z" fill="#4F9977"/>
<path d="M29.3613 247.05C29.3382 247.087 29.3215 247.128 29.3117 247.171C29.2994 247.201 29.287 247.231 29.2793 247.253L29.2561 247.32C29.2423 247.37 29.2332 247.413 29.2241 247.456C29.2182 247.479 29.2152 247.502 29.2152 247.525C29.2077 247.574 29.2066 247.622 29.1991 247.671C29.193 247.771 29.1965 247.872 29.2095 247.971L29.2298 248.127C29.2594 248.268 29.2969 248.413 29.3392 248.55C29.3455 248.58 29.3553 248.609 29.3683 248.637C29.3991 248.73 29.4362 248.821 29.4749 248.919C29.4894 248.949 29.4992 248.986 29.5136 249.016C29.5524 249.114 29.6007 249.223 29.649 249.331L29.6973 249.44C29.834 249.734 29.9994 250.062 30.1873 250.424C31.6743 253.337 30.163 254.67 27.9542 255.881C27.2939 256.241 26.8643 256.608 26.6181 257.008L26.6275 256.992C27.4144 255.536 29.03 254.788 29.1877 252.695C29.3201 250.971 27.87 248.876 27.4714 247.129C26.8729 244.504 28.3954 242.07 29.9367 239.996C30.5255 239.204 31.1362 238.393 31.3206 237.416C31.52 236.342 31.1804 235.211 30.8254 234.125C30.5368 233.244 30.2341 232.36 29.8745 231.491C29.9768 231.626 30.0743 231.769 30.1702 231.906L30.183 231.929C30.2773 232.06 30.3732 232.196 30.4612 232.328L30.4836 232.363C30.5716 232.495 30.6659 232.625 30.7475 232.759L30.7683 232.787L31.0371 233.202C31.3092 233.63 31.5575 234.044 31.7916 234.454C31.8814 234.619 31.9696 234.778 32.0594 234.944C32.1108 235.038 32.1621 235.132 32.2071 235.228C32.2746 235.359 32.342 235.49 32.4031 235.622C32.7336 236.293 33.0165 236.987 33.2498 237.698C33.3195 237.915 33.3813 238.128 33.4415 238.335C33.567 238.798 33.6575 239.269 33.7124 239.745C33.7224 239.81 33.7261 239.876 33.7345 239.935C33.7504 240.126 33.7645 240.311 33.7661 240.499C33.7693 240.559 33.7692 240.62 33.7661 240.681C33.7662 240.916 33.7529 241.151 33.7262 241.384C33.7204 241.439 33.7082 241.496 33.7023 241.552C33.6722 241.772 33.6276 241.991 33.5689 242.206C33.543 242.31 33.5112 242.412 33.4735 242.513C33.438 242.61 33.3979 242.714 33.356 242.813C33.171 243.254 32.9187 243.665 32.6082 244.029C32.5722 244.072 32.541 244.107 32.505 244.15C32.3597 244.313 32.2038 244.466 32.0382 244.607C31.9112 244.714 31.7778 244.823 31.6412 244.919C31.4544 245.055 31.2786 245.181 31.1201 245.296C30.916 245.443 30.7308 245.585 30.5583 245.724L30.4579 245.804C30.2369 245.98 30.028 246.172 29.8325 246.376L29.7856 246.429C29.6204 246.619 29.4779 246.827 29.3613 247.05V247.05Z" fill="#66BA93"/>
<path d="M24.3136 225.082L24.4587 225.119L24.5133 225.173C24.451 225.141 24.3823 225.112 24.3136 225.082Z" fill="#66BA93"/>
<path d="M1.0882 214.496L23.5762 265.266L24.8309 264.787C24.8309 264.787 26.9937 257.368 24.7826 253.997C21.5743 248.668 23.4873 245.717 21.5624 241.631C19.771 237.828 16.4565 236.767 16.9074 231.805C17.3584 226.842 16.7777 216.594 1.0882 214.496Z" fill="#4F9977"/>
<path d="M24.8373 264.785L24.2249 265.017C24.8619 261.891 24.9592 257.511 23.4194 254.888C20.0015 249.062 22.0972 244.919 19.4046 240.258C16.7057 235.599 13.9924 235.406 15.3693 230.123C16.1526 227.12 15.4424 223.804 14.6838 221.497C17.0862 225.088 17.1365 229.181 16.8996 231.8C16.4486 236.763 19.7631 237.823 21.5609 241.625C23.4841 245.704 21.5728 248.662 24.7811 253.99C26.9938 257.368 24.8373 264.785 24.8373 264.785Z" fill="#66BA93"/>
<path d="M22.9354 267.518L7.94773 245.626C7.94773 245.626 13.336 243.888 17.6552 247.973C21.9744 252.058 18.2688 254.632 20.5757 255.879C22.8825 257.127 24.6838 258.161 23.5172 267.22L22.9354 267.518Z" fill="#4F9977"/>
<path d="M22.5896 264.182C22.85 262.849 23.0759 261.357 22.2604 260.155C21.4511 258.951 19.8817 258.448 18.7868 257.466C17.5886 256.396 17.0343 254.723 17.4061 253.301C17.5744 252.651 17.9201 252.064 18.0946 251.413C18.329 250.551 18.1733 249.69 17.8549 248.823C17.6787 248.35 17.3459 248.026 17.5308 247.857C17.5752 247.892 17.6168 247.931 17.655 247.973C21.9742 252.058 18.2686 254.632 20.5755 255.879C22.8046 257.086 24.5725 258.096 23.6192 266.419C23.2286 266.547 22.8268 266.658 22.4234 266.762L22.166 266.391L22.5896 264.182Z" fill="#66BA93"/>
<path d="M20.3522 278.121L19.2275 265.355L31.2864 262.234L38.9605 273.305" fill="#DCDDE2"/>
<path d="M33.3889 265.264C33.3889 265.264 36.0816 269.379 35.1549 271.672C33.8864 274.827 30.0032 275.623 20.3523 278.121L38.9669 273.304L33.3889 265.264Z" fill="#C0C0D1"/>
<path d="M19.3366 267.022C19.3318 266.458 19.4074 265.867 19.2245 265.342L31.3338 262.208C31.4056 262.304 31.4838 262.398 31.5557 262.494C31.5879 262.566 31.628 262.643 31.6665 262.714C31.9291 263.131 32.1916 263.548 32.4714 263.953C32.5993 264.135 32.7507 264.305 32.8786 264.487C33.0114 264.688 33.119 264.896 33.258 265.096C33.3312 265.204 33.4199 265.301 33.5211 265.384C33.5234 265.415 33.5289 265.445 33.5376 265.474L19.6129 269.078C19.5155 268.39 19.3455 267.707 19.3366 267.022Z" fill="#C0C0D1"/>
<path d="M33.7399 239.981L33.6772 239.479L24.1288 230.885L24.1737 233.215L33.7399 239.981Z" fill="#7ED9AF"/>
<path d="M15.928 223.86L15.7346 223.399L3.33444 219.561L3.94455 220.931L15.928 223.86Z" fill="#7ED9AF"/>
<path d="M16.7337 226.687L16.6577 226.29L4.89772 223.08L5.33891 224.083L16.7337 226.687Z" fill="#7ED9AF"/>
<path d="M16.9653 233.95L16.9014 233.495L8.22061 230.593L8.87902 232.072L16.9653 233.95Z" fill="#7ED9AF"/>
<path d="M22.4122 244.42L22.3441 244.027L13.0375 241.462L13.527 242.573L22.4122 244.42Z" fill="#7ED9AF"/>
<path d="M29.5561 246.737L29.8326 246.376L24.3172 239.774L24.363 242.212L29.5561 246.737Z" fill="#7ED9AF"/>
<path d="M29.3039 248.465L29.1932 247.881L24.4075 244.099L24.4354 245.532L29.3039 248.465Z" fill="#7ED9AF"/>
<path d="M18.6369 249.038L18.3463 248.669L9.81354 248.34L10.3444 249.118L18.6369 249.038Z" fill="#7ED9AF"/>
<path d="M19.6329 250.833L19.4955 250.458L11.0706 250.182L11.5791 250.926L19.6329 250.833Z" fill="#7ED9AF"/>
<path d="M19.9598 255.346C19.9139 255.277 19.8766 255.203 19.849 255.125C19.8166 255.026 19.7823 254.894 19.7823 254.894L14.1965 254.751L14.8457 255.7L19.9598 255.346Z" fill="#7ED9AF"/>
<path d="M23.8809 262.778L23.8789 262.354L19.3231 262.241L20.0698 263.333L23.8809 262.778Z" fill="#7ED9AF"/>
</g>
<defs>
<linearGradient id="paint0_linear_411_14282" x1="103.551" y1="130.577" x2="104.802" y2="123.249" gradientUnits="userSpaceOnUse">
<stop stop-color="#FF8658"/>
<stop offset="0.341103" stop-color="#FF9A72"/>
<stop offset="1" stop-color="#FFE76C"/>
</linearGradient>
<linearGradient id="paint1_linear_411_14282" x1="23.6509" y1="126.707" x2="50.0998" y2="163.825" gradientUnits="userSpaceOnUse">
<stop stop-color="#EAE9F7"/>
<stop offset="0.55533" stop-color="#8B89C2"/>
<stop offset="1" stop-color="#686596"/>
</linearGradient>
<linearGradient id="paint2_linear_411_14282" x1="26.2058" y1="207.406" x2="5.18279" y2="153.244" gradientUnits="userSpaceOnUse">
<stop stop-color="#FF8658"/>
<stop offset="0.341103" stop-color="#FF9A72"/>
<stop offset="1" stop-color="#FFE76C"/>
</linearGradient>
<linearGradient id="paint3_linear_411_14282" x1="54.4579" y1="217.925" x2="25.5324" y2="237.565" gradientUnits="userSpaceOnUse">
<stop stop-color="#FF8658"/>
<stop offset="0.341103" stop-color="#FF9A72"/>
<stop offset="1" stop-color="#FFE76C"/>
</linearGradient>
<linearGradient id="paint4_linear_411_14282" x1="15.2356" y1="156.462" x2="21.1356" y2="108.024" gradientUnits="userSpaceOnUse">
<stop stop-color="#FF8658"/>
<stop offset="0.341103" stop-color="#FF9A72"/>
<stop offset="1" stop-color="#FFE76C"/>
</linearGradient>
<linearGradient id="paint5_linear_411_14282" x1="43.1873" y1="151.503" x2="4.24049" y2="142.721" gradientUnits="userSpaceOnUse">
<stop stop-color="#FF8658"/>
<stop offset="0.166638" stop-color="#FF9A72"/>
<stop offset="1" stop-color="#FFE76C"/>
</linearGradient>
<linearGradient id="paint6_linear_411_14282" x1="101.044" y1="177.501" x2="116.217" y2="134.33" gradientUnits="userSpaceOnUse">
<stop stop-color="#FF8658"/>
<stop offset="0.341103" stop-color="#FF9A72"/>
<stop offset="1" stop-color="#FFE76C"/>
</linearGradient>
</defs>
</svg>
